<svg width="96" height="96" viewBox="0 0 96 96" fill="none" xmlns="http://www.w3.org/2000/svg">
<path fill-rule="evenodd" clip-rule="evenodd" d="M33.504 49L33.4294 49.3879C33.0501 51.3366 33.0149 53.3393 33.3249 55.3367L28 64.7361L33.8805 66.0663V75.808H41.6858V82.7647H60.4187V71.9934C65.8824 68.1656 69.003 62.0113 68.9984 55.4456L69 52.6259C69 51.563 68.9008 50.4709 68.701 49.3949L68.6298 49H33.504ZM67.442 52.6189C67.442 51.8568 67.385 51.073 67.2717 50.3001H34.8532C34.6011 51.846 34.6175 53.6555 34.9077 55.3468L34.9522 55.6227L30.383 63.6902L35.4416 64.8335V74.2622H43.2471V81.2189H58.8578V71.1865L59.2012 70.9545C64.3629 67.4352 67.4484 61.6365 67.4437 55.4442L67.442 52.6189Z" fill="#863244" stroke="#863244" stroke-width="1.5"/>
<path d="M44.2794 57.1999C42.8833 57.1999 41.7471 56.4764 41.7471 55.0293H40.0588C40.0588 57.1999 41.9522 58.6469 44.2794 58.6469C46.6067 58.6469 48.5 57.1999 48.5 55.0293H46.8118C46.8116 56.4764 45.6755 57.1999 44.2794 57.1999Z" fill="#863244" stroke="#863244" stroke-width="1.5"/>
<path d="M36.84 30.14H39.8C40.08 30.14 40.22 30.28 40.22 30.56V42.58C40.22 42.86 40.08 43 39.8 43H38.16C37.88 43 37.74 42.86 37.74 42.58V33.1H37.66L35.62 39.8C35.54 40.0667 35.3733 40.2 35.12 40.2H33.44C33.1867 40.2 33.02 40.0667 32.94 39.8L30.86 33.08H30.78V42.58C30.78 42.74 30.7533 42.8533 30.7 42.92C30.6467 42.9733 30.5333 43 30.36 43H28.72C28.44 43 28.3 42.86 28.3 42.58V30.56C28.3 30.28 28.44 30.14 28.72 30.14H31.7C31.8867 30.14 32.0133 30.2333 32.08 30.42L34.2 37.48H34.32L36.46 30.42C36.5 30.2333 36.6267 30.14 36.84 30.14ZM45.4517 30.56V42.58C45.4517 42.86 45.3117 43 45.0317 43H43.3317C43.0517 43 42.9117 42.86 42.9117 42.58V30.56C42.9117 30.28 43.0517 30.14 43.3317 30.14H45.0317C45.3117 30.14 45.4517 30.28 45.4517 30.56ZM50.2238 43H48.5638C48.2838 43 48.1438 42.86 48.1438 42.58V30.56C48.1438 30.28 48.2838 30.14 48.5638 30.14H50.0638C50.3438 30.14 50.5304 30.2333 50.6238 30.42L54.6638 38H54.7438V30.56C54.7438 30.28 54.8838 30.14 55.1638 30.14H56.8238C57.1038 30.14 57.2438 30.28 57.2438 30.56V42.58C57.2438 42.86 57.1038 43 56.8238 43H55.3638C55.0704 43 54.8571 42.8667 54.7238 42.6L50.7238 35.16H50.6438V42.58C50.6438 42.86 50.5038 43 50.2238 43ZM62.603 40.8H64.783C65.2096 40.8 65.5096 40.7133 65.683 40.54C65.8696 40.3533 65.963 40.0467 65.963 39.62V33.52C65.963 33.0933 65.8696 32.7933 65.683 32.62C65.5096 32.4333 65.2096 32.34 64.783 32.34H62.603C62.4563 32.34 62.383 32.4133 62.383 32.56V40.58C62.383 40.7267 62.4563 40.8 62.603 40.8ZM59.843 42.58V30.56C59.843 30.28 59.983 30.14 60.263 30.14H65.203C66.243 30.14 67.0496 30.4267 67.623 31C68.2096 31.56 68.503 32.36 68.503 33.4V39.74C68.503 40.78 68.2096 41.5867 67.623 42.16C67.0496 42.72 66.243 43 65.203 43H60.263C59.983 43 59.843 42.86 59.843 42.58Z" fill="white"/>
<path d="M30.64 27H28.72C28.48 27 28.4 26.86 28.48 26.58L31.64 14.56C31.7333 14.28 31.9333 14.14 32.24 14.14H34.9C35.2333 14.14 35.4333 14.28 35.5 14.56L38.66 26.58C38.74 26.86 38.66 27 38.42 27H36.5C36.3533 27 36.2533 26.9733 36.2 26.92C36.1467 26.8533 36.1067 26.74 36.08 26.58L35.52 24.38H31.62L31.06 26.58C31.0333 26.74 30.9867 26.8533 30.92 26.92C30.8667 26.9733 30.7733 27 30.64 27ZM33.54 16.56L32.1 22.34H35.06L33.62 16.56H33.54ZM44.4128 27H42.7328C42.4395 27 42.2928 26.86 42.2928 26.58V16.56C42.2928 16.4133 42.2195 16.34 42.0728 16.34H39.7928C39.5128 16.34 39.3728 16.2 39.3728 15.92V14.56C39.3728 14.28 39.5128 14.14 39.7928 14.14H47.3528C47.6328 14.14 47.7728 14.28 47.7728 14.56V15.92C47.7728 16.2 47.6328 16.34 47.3528 16.34H45.0728C44.9128 16.34 44.8328 16.4133 44.8328 16.56V26.58C44.8328 26.86 44.6928 27 44.4128 27ZM52.8 24.8H54.22C54.6467 24.8 54.9467 24.7133 55.12 24.54C55.3067 24.3533 55.4 24.0467 55.4 23.62V17.52C55.4 17.0933 55.3067 16.7933 55.12 16.62C54.9467 16.4333 54.6467 16.34 54.22 16.34H52.8C52.3733 16.34 52.0733 16.4333 51.9 16.62C51.7267 16.7933 51.64 17.0933 51.64 17.52V23.62C51.64 24.0467 51.7267 24.3533 51.9 24.54C52.0733 24.7133 52.3733 24.8 52.8 24.8ZM54.64 27H52.4C51.3467 27 50.5333 26.72 49.96 26.16C49.3867 25.6 49.1 24.7933 49.1 23.74V17.4C49.1 16.3467 49.3867 15.54 49.96 14.98C50.5333 14.42 51.3467 14.14 52.4 14.14H54.64C55.6933 14.14 56.5067 14.42 57.08 14.98C57.6533 15.54 57.94 16.3467 57.94 17.4V23.74C57.94 24.7933 57.6533 25.6 57.08 26.16C56.5067 26.72 55.6933 27 54.64 27ZM59.9952 26.58V25.38C59.9952 24.94 60.0818 24.6133 60.2552 24.4L65.5552 16.58V16.5H60.7752C60.4952 16.5 60.3552 16.36 60.3552 16.08V14.56C60.3552 14.28 60.4952 14.14 60.7752 14.14H67.8752C68.1418 14.14 68.2752 14.28 68.2752 14.56V16.28C68.2752 16.68 68.1752 17.0267 67.9752 17.32L62.9952 24.56V24.64H68.0752C68.3418 24.64 68.4752 24.7667 68.4752 25.02V26.54C68.4752 26.8467 68.3418 27 68.0752 27H60.4152C60.1352 27 59.9952 26.86 59.9952 26.58Z" fill="white"/>
</svg>
