<svg width="48" height="48" viewBox="0 0 48 48" fill="none" xmlns="http://www.w3.org/2000/svg">
<rect width="48" height="48" rx="24" fill="#E15371"/>
<path fill-rule="evenodd" clip-rule="evenodd" d="M16.5506 24L16.5161 24.1838C16.3403 25.1072 16.324 26.0563 16.4676 27.0028L14 31.4568L16.7251 32.0872V36.7034H20.3422V40H29.0233V34.8958C31.5553 33.082 33.0014 30.1656 32.9992 27.0544L33 25.7182C33 25.2145 32.954 24.697 32.8615 24.1871L32.8285 24H16.5506ZM32.278 25.7149C32.278 25.3538 32.2516 24.9823 32.1991 24.6161H17.1759C17.059 25.3486 17.0666 26.2061 17.2012 27.0075L17.2217 27.1383L15.1043 30.9612L17.4486 31.503V35.9709H21.0657V39.2675H28.2999V34.5135L28.4591 34.4035C30.8511 32.7358 32.281 29.988 32.2788 27.0537L32.278 25.7149Z" fill="#863244"/>
<path d="M21.5441 27.8857C20.8971 27.8857 20.3706 27.5429 20.3706 26.8571H19.5882C19.5882 27.8857 20.4656 28.5714 21.5441 28.5714C22.6226 28.5714 23.5 27.8857 23.5 26.8571H22.7177C22.7176 27.5429 22.1911 27.8857 21.5441 27.8857Z" fill="#863244"/>
<path fill-rule="evenodd" clip-rule="evenodd" d="M16.5506 24L16.5161 24.1838C16.3403 25.1072 16.324 26.0563 16.4676 27.0028L14 31.4568L16.7251 32.0872V36.7034H20.3422V40H29.0233V34.8958C31.5553 33.082 33.0014 30.1656 32.9992 27.0544L33 25.7182C33 25.2145 32.954 24.697 32.8615 24.1871L32.8285 24H16.5506ZM32.278 25.7149C32.278 25.3538 32.2516 24.9823 32.1991 24.6161H17.1759C17.059 25.3486 17.0666 26.2061 17.2012 27.0075L17.2217 27.1383L15.1043 30.9612L17.4486 31.503V35.9709H21.0657V39.2675H28.2999V34.5135L28.4591 34.4035C30.8511 32.7358 32.281 29.988 32.2788 27.0537L32.278 25.7149Z" stroke="#863244"/>
<path d="M21.5441 27.8857C20.8971 27.8857 20.3706 27.5429 20.3706 26.8571H19.5882C19.5882 27.8857 20.4656 28.5714 21.5441 28.5714C22.6226 28.5714 23.5 27.8857 23.5 26.8571H22.7177C22.7176 27.5429 22.1911 27.8857 21.5441 27.8857Z" stroke="#863244"/>
<path d="M18.036 14.7616H19.4349C19.5673 14.7616 19.6334 14.8295 19.6334 14.9653V20.7963C19.6334 20.9321 19.5673 21 19.4349 21H18.6599C18.5275 21 18.4614 20.9321 18.4614 20.7963V16.1975H18.4236L17.4594 19.4477C17.4216 19.577 17.3429 19.6417 17.2231 19.6417H16.4292C16.3094 19.6417 16.2307 19.577 16.1929 19.4477L15.2099 16.1878H15.1721V20.7963C15.1721 20.8739 15.1595 20.9289 15.1342 20.9612C15.109 20.9871 15.0555 21 14.9736 21H14.1985C14.0662 21 14 20.9321 14 20.7963V14.9653C14 14.8295 14.0662 14.7616 14.1985 14.7616H15.6068C15.6951 14.7616 15.7549 14.8069 15.7864 14.8974L16.7884 18.3222H16.8451L17.8564 14.8974C17.8753 14.8069 17.9352 14.7616 18.036 14.7616Z" fill="white"/>
<path d="M22.1059 14.9653V20.7963C22.1059 20.9321 22.0398 21 21.9074 21H21.104C20.9717 21 20.9055 20.9321 20.9055 20.7963V14.9653C20.9055 14.8295 20.9717 14.7616 21.104 14.7616H21.9074C22.0398 14.7616 22.1059 14.8295 22.1059 14.9653Z" fill="white"/>
<path d="M24.3612 21H23.5767C23.4444 21 23.3782 20.9321 23.3782 20.7963V14.9653C23.3782 14.8295 23.4444 14.7616 23.5767 14.7616H24.2856C24.4179 14.7616 24.5061 14.8069 24.5502 14.8974L26.4596 18.5745H26.4974V14.9653C26.4974 14.8295 26.5635 14.7616 26.6959 14.7616H27.4804C27.6127 14.7616 27.6789 14.8295 27.6789 14.9653V20.7963C27.6789 20.9321 27.6127 21 27.4804 21H26.7904C26.6518 21 26.5509 20.9353 26.4879 20.806L24.5975 17.1968H24.5597V20.7963C24.5597 20.9321 24.4935 21 24.3612 21Z" fill="white"/>
<path d="M30.2116 19.9328H31.2419C31.4436 19.9328 31.5853 19.8907 31.6673 19.8067C31.7555 19.7161 31.7996 19.5673 31.7996 19.3604V16.4012C31.7996 16.1943 31.7555 16.0487 31.6673 15.9647C31.5853 15.8741 31.4436 15.8288 31.2419 15.8288H30.2116C30.1423 15.8288 30.1077 15.8644 30.1077 15.9356V19.8261C30.1077 19.8972 30.1423 19.9328 30.2116 19.9328ZM28.9073 20.7963V14.9653C28.9073 14.8295 28.9734 14.7616 29.1058 14.7616H31.4404C31.9319 14.7616 32.3132 14.9007 32.5841 15.1788C32.8614 15.4505 33 15.8385 33 16.343V19.4186C33 19.9231 32.8614 20.3144 32.5841 20.5925C32.3132 20.8642 31.9319 21 31.4404 21H29.1058C28.9734 21 28.9073 20.9321 28.9073 20.7963Z" fill="white"/>
<path d="M15.1059 13.2384H14.1985C14.0851 13.2384 14.0473 13.1705 14.0851 13.0347L15.5785 7.20374C15.6226 7.06791 15.7171 7 15.8621 7H17.1192C17.2767 7 17.3712 7.06791 17.4027 7.20374L18.8962 13.0347C18.934 13.1705 18.8962 13.2384 18.7827 13.2384H17.8753C17.806 13.2384 17.7588 13.2255 17.7336 13.1996C17.7083 13.1672 17.6894 13.1123 17.6768 13.0347L17.4122 11.9674H15.569L15.3044 13.0347C15.2918 13.1123 15.2697 13.1672 15.2382 13.1996C15.213 13.2255 15.1689 13.2384 15.1059 13.2384ZM16.4764 8.17394L15.7959 10.9778H17.1948L16.5142 8.17394H16.4764Z" fill="white"/>
<path d="M21.6149 13.2384H20.821C20.6823 13.2384 20.613 13.1705 20.613 13.0347V8.17394C20.613 8.10279 20.5784 8.06722 20.5091 8.06722H19.4315C19.2992 8.06722 19.233 7.99931 19.233 7.86348V7.20374C19.233 7.06791 19.2992 7 19.4315 7H23.0044C23.1367 7 23.2029 7.06791 23.2029 7.20374V7.86348C23.2029 7.99931 23.1367 8.06722 23.0044 8.06722H21.9269C21.8512 8.06722 21.8134 8.10279 21.8134 8.17394V13.0347C21.8134 13.1705 21.7473 13.2384 21.6149 13.2384Z" fill="white"/>
<path d="M25.5787 12.1712H26.2498C26.4515 12.1712 26.5933 12.1291 26.6752 12.045C26.7634 11.9545 26.8075 11.8057 26.8075 11.5988V8.63964C26.8075 8.43266 26.7634 8.28713 26.6752 8.20305C26.5933 8.1125 26.4515 8.06722 26.2498 8.06722H25.5787C25.3771 8.06722 25.2353 8.1125 25.1534 8.20305C25.0715 8.28713 25.0305 8.43266 25.0305 8.63964V11.5988C25.0305 11.8057 25.0715 11.9545 25.1534 12.045C25.2353 12.1291 25.3771 12.1712 25.5787 12.1712ZM26.4483 13.2384H25.3897C24.8919 13.2384 24.5075 13.1026 24.2366 12.8309C23.9656 12.5593 23.8301 12.1679 23.8301 11.657V8.58143C23.8301 8.07045 23.9656 7.67914 24.2366 7.40748C24.5075 7.13583 24.8919 7 25.3897 7H26.4483C26.9461 7 27.3305 7.13583 27.6015 7.40748C27.8724 7.67914 28.0079 8.07045 28.0079 8.58143V11.657C28.0079 12.1679 27.8724 12.5593 27.6015 12.8309C27.3305 13.1026 26.9461 13.2384 26.4483 13.2384Z" fill="white"/>
<path d="M28.9792 13.0347V12.4525C28.9792 12.2391 29.0202 12.0806 29.1021 11.9771L31.6069 8.18364V8.14484H29.3478C29.2155 8.14484 29.1493 8.07692 29.1493 7.94109V7.20374C29.1493 7.06791 29.2155 7 29.3478 7H32.7033C32.8293 7 32.8923 7.06791 32.8923 7.20374V8.03811C32.8923 8.23215 32.8451 8.40032 32.7506 8.54262L30.397 12.0547V12.0936H32.7978C32.9238 12.0936 32.9869 12.155 32.9869 12.2779V13.0152C32.9869 13.164 32.9238 13.2384 32.7978 13.2384H29.1777C29.0454 13.2384 28.9792 13.1705 28.9792 13.0347Z" fill="white"/>
</svg>
