<svg width="487" height="404" viewBox="0 0 487 404" fill="none" xmlns="http://www.w3.org/2000/svg">
<path d="M0 234.5C0 140.888 75.8877 65 169.5 65H317.5C411.112 65 487 140.888 487 234.5V234.5C487 328.112 411.112 404 317.5 404H169.5C75.8877 404 0 328.112 0 234.5V234.5Z" fill="#D60A2E"/>
<path d="M171.013 183.182V285H152.419L108.122 220.916H107.376V285H85.8494V183.182H104.741L148.69 247.216H149.585V183.182H171.013ZM188.799 285V183.182H257.407V200.93H210.326V225.192H253.877V242.94H210.326V267.251H257.605V285H188.799ZM297.44 285L268.307 183.182H291.822L308.676 253.928H309.521L328.115 183.182H348.25L366.794 254.077H367.689L384.543 183.182H408.058L378.925 285H357.945L338.555 218.43H337.76L318.42 285H297.44Z" fill="white"/>
</svg>
