<svg width="136" height="136" viewBox="0 0 136 136" fill="none" xmlns="http://www.w3.org/2000/svg">
<path d="M86.4551 115.016H20.9844C13.8075 115.016 7.96875 109.177 7.96875 102C7.96875 94.8231 13.8075 88.9844 20.9844 88.9844H46.4844C58.0553 88.9844 67.4688 79.5709 67.4688 68C67.4688 56.4291 58.0553 47.0156 46.4844 47.0156H32.5449C32.8007 48.305 32.9375 49.6365 32.9375 51C32.9375 52.3635 32.8007 53.695 32.5449 54.9844H46.4844C53.6613 54.9844 59.5 60.8231 59.5 68C59.5 75.1769 53.6613 81.0156 46.4844 81.0156H20.9844C9.41348 81.0156 0 90.4291 0 102C0 113.571 9.41348 122.984 20.9844 122.984H86.4551C86.1993 121.695 86.0625 120.363 86.0625 119C86.0625 117.637 86.1993 116.305 86.4551 115.016Z" fill="#FFB74D"/>
<path d="M106.516 106.516C99.6318 106.516 94.0312 112.116 94.0312 119C94.0312 125.884 99.6318 131.484 106.516 131.484C113.4 131.484 119 125.884 119 119C119 112.116 113.4 106.516 106.516 106.516Z" fill="#FFB74D"/>
<path d="M37.9844 4.51562H12.4844C10.2839 4.51562 8.5 6.29956 8.5 8.5C8.5 11.7908 8.5 35.8432 8.5 39.1715C3.56469 40.8385 0 45.5093 0 51C0 57.8839 5.60044 63.4844 12.4844 63.4844C19.3683 63.4844 24.9688 57.8839 24.9688 51C24.9688 45.5093 21.4041 40.8385 16.4688 39.1715V29.4844H37.9844C40.1848 29.4844 41.9688 27.7004 41.9688 25.5V8.5C41.9688 6.29956 40.1848 4.51562 37.9844 4.51562Z" fill="#AED581"/>
<path d="M106.516 13.0156C90.2579 13.0156 77.0312 26.2422 77.0312 42.5C77.0312 51.2792 80.8561 59.4586 87.557 65.0821L102.966 95.3094C104.442 98.2045 108.59 98.2042 110.065 95.3094L125.474 65.0821C132.175 59.4586 136 51.2792 136 42.5C136 26.2422 122.773 13.0156 106.516 13.0156ZM106.516 54.9844C99.6318 54.9844 94.0312 49.3839 94.0312 42.5C94.0312 35.6161 99.6318 30.0156 106.516 30.0156C113.4 30.0156 119 35.6161 119 42.5C119 49.3839 113.4 54.9844 106.516 54.9844Z" fill="#FFB74D"/>
</svg>
