<svg width="68" height="39" viewBox="0 0 68 39" fill="none" xmlns="http://www.w3.org/2000/svg">
<path d="M3.33908 25.6921H0V22.1429H12.1188V25.6921H8.77968V38.2078H3.33908V25.6921ZM12.8495 26.6728H17.7764V29.0546C18.1345 28.136 18.617 27.4589 19.2241 27.0231C19.8467 26.5716 20.5706 26.3459 21.3957 26.3459L22.0729 30.152C20.5939 30.152 19.5043 30.3155 18.8038 30.6424C18.1188 30.9538 17.7764 31.4518 17.7764 32.1368V38.2078H12.8495V26.6728ZM28.9912 34.4017H22.5232V31.1327L28.7343 22.5865H33.9648V31.1794H36.2064V34.4251H33.9648V38.2078H28.9912V34.4017ZM28.9912 31.1794V26.5561L25.9557 31.1794H28.9912ZM43.8598 38.3946C42.6146 38.3946 41.5093 38.1456 40.5441 37.6474C39.5946 37.1337 38.8474 36.4177 38.3024 35.4992C37.7732 34.5807 37.5085 33.5378 37.5085 32.3703C37.5085 31.2495 37.7887 30.2299 38.3491 29.3114C38.9095 28.3929 39.6725 27.669 40.6375 27.1398C41.6027 26.6106 42.6768 26.3459 43.8598 26.3459C45.3699 26.3459 46.5608 26.6573 47.4324 27.2799L46.9887 30.3855C46.1014 30.1208 45.3699 29.9886 44.7938 29.9886C44.0466 29.9886 43.4552 30.2066 43.0192 30.6424C42.5834 31.0627 42.3654 31.6386 42.3654 32.3703C42.3654 33.102 42.5834 33.6858 43.0192 34.1215C43.4552 34.5573 44.0311 34.7753 44.7471 34.7753C45.3699 34.7753 46.1014 34.6431 46.942 34.3784L47.3857 37.6474C46.8565 37.9121 46.3194 38.0989 45.7745 38.2078C45.2298 38.3324 44.5915 38.3946 43.8598 38.3946ZM60.6178 38.3946C59.5749 38.3946 58.7343 38.2624 58.096 37.9977C57.4734 37.7175 56.9597 37.2583 56.5549 36.62C56.1501 35.9817 55.7922 35.071 55.4808 33.888L54.1031 34.9855V38.2078H49.1529L49.1762 22.82L54.1265 22.0962L54.1031 30.082L60.1041 25.1784L62.7894 28.8444L59.03 31.4596C59.2168 32.6426 59.4815 33.4677 59.8239 33.9347C60.182 34.4017 60.7034 34.6352 61.3884 34.6352C61.6686 34.6352 62.0034 34.5885 62.3925 34.4951L61.9254 38.3246C61.4584 38.3713 61.0227 38.3946 60.6178 38.3946Z" fill="#F9F9F9"/>
<path d="M65.8118 38.3251C65.1215 38.3251 64.5809 38.1361 64.1901 37.7585C63.7994 37.3808 63.604 36.9053 63.604 36.3322C63.604 35.7461 63.8058 35.2707 64.2097 34.9059C64.6135 34.5412 65.1475 34.3589 65.8118 34.3589C66.463 34.3589 66.9905 34.5543 67.3944 34.945C67.7982 35.3227 68 35.7852 68 36.3322C68 36.9443 67.8111 37.4328 67.4334 37.7976C67.0558 38.1492 66.5152 38.3251 65.8118 38.3251Z" fill="#F0D051"/>
<path d="M12.1655 18.6889C9.23889 18.6889 7.44871 17.3346 6.79491 14.626L6.21115 12.2209H5.11369V18.3153H0V2.25036H7.07511C8.41386 2.25036 9.58914 2.45272 10.601 2.85746C11.6284 3.24662 12.4223 3.79926 12.9827 4.51533C13.5431 5.23139 13.8233 6.05644 13.8233 6.99045C13.8233 8.03342 13.5665 8.91296 13.0528 9.62902C12.5546 10.3295 11.7763 10.9055 10.7177 11.3569C10.8267 11.9485 10.9512 12.4855 11.0913 12.9681C11.2781 13.5596 11.535 13.9722 11.8619 14.2057C12.1888 14.4392 12.6636 14.5559 13.2863 14.5559C13.5042 14.5559 13.8467 14.5248 14.3137 14.4625V18.2686C13.582 18.5488 12.866 18.6889 12.1655 18.6889ZM6.001 8.95187C7.15295 8.95187 7.96242 8.82732 8.42942 8.57826C8.91199 8.31362 9.15328 7.86996 9.15328 7.2473C9.15328 6.71804 8.95869 6.33664 8.56952 6.10314C8.18036 5.85408 7.56547 5.72954 6.72486 5.72954H5.11369V8.95187H6.001ZM20.0635 18.5021C18.7559 18.5021 17.7362 18.0818 17.0046 17.2412C16.273 16.4006 15.9071 15.2564 15.9071 13.8087V6.61684H20.8574V13.5986C20.8574 13.9566 20.9508 14.2368 21.1376 14.4392C21.34 14.626 21.5968 14.7194 21.9081 14.7194C22.2195 14.7194 22.5387 14.626 22.8656 14.4392L23.1224 17.6848C22.7798 17.9496 22.3285 18.1518 21.768 18.2919C21.2232 18.432 20.655 18.5021 20.0635 18.5021ZM18.3823 4.86558C17.6506 4.86558 17.0279 4.63987 16.5142 4.18842C16.0161 3.72142 15.767 3.15322 15.767 2.48386C15.767 1.81449 16.0317 1.25409 16.5609 0.802644C17.0902 0.351199 17.6973 0.125488 18.3823 0.125488C19.0983 0.125488 19.7132 0.35899 20.2269 0.825994C20.7562 1.293 21.0208 1.84561 21.0208 2.48386C21.0208 3.16881 20.7562 3.73698 20.2269 4.18842C19.6977 4.63987 19.0828 4.86558 18.3823 4.86558ZM31.0903 23.6625C30.234 23.6625 29.4167 23.577 28.6385 23.4056L29.0121 19.9498C29.6193 20.0432 30.1797 20.0899 30.6934 20.0899C31.6583 20.0899 32.3901 19.8018 32.8883 19.226C33.3863 18.6655 33.6822 17.7161 33.7756 16.3772C32.8571 17.6693 31.4561 18.3153 29.5726 18.3153C28.5451 18.3153 27.5954 18.0506 26.7238 17.5214C25.8675 16.9922 25.1827 16.276 24.669 15.3732C24.1708 14.4703 23.9218 13.4818 23.9218 12.4077C23.9218 11.318 24.1708 10.3217 24.669 9.41887C25.167 8.50042 25.8441 7.77656 26.7005 7.2473C27.5721 6.71804 28.5218 6.45339 29.5492 6.45339C30.4987 6.45339 31.3238 6.70245 32.0243 7.2006C32.7403 7.68316 33.2073 8.33697 33.4253 9.16202V6.45339H38.3522V15.3498C38.3522 18.0739 37.7294 20.1366 36.4842 21.5376C35.2543 22.9541 33.4563 23.6625 31.0903 23.6625ZM31.0903 14.8128C31.7129 14.8128 32.25 14.5948 32.7015 14.159C33.1528 13.7075 33.3941 13.1783 33.4253 12.5711V12.3843C33.3941 11.7928 33.1451 11.2713 32.6781 10.8199C32.2266 10.3684 31.6974 10.1427 31.0903 10.1427C30.452 10.1427 29.9071 10.3762 29.4558 10.8432C29.0043 11.2947 28.7786 11.8395 28.7786 12.4777C28.7786 13.116 29.0043 13.6686 29.4558 14.1356C29.9071 14.5871 30.452 14.8128 31.0903 14.8128ZM40.7178 2.92751L45.6446 2.20366V9.02192C45.9873 8.19687 46.501 7.56641 47.1858 7.13055C47.8863 6.6791 48.7269 6.45339 49.7076 6.45339C51.202 6.45339 52.3695 6.99045 53.2101 8.06456C54.0664 9.12311 54.4944 10.5942 54.4944 12.4777V18.3153H49.5908V11.9874C49.5908 11.318 49.4431 10.8043 49.1472 10.4463C48.867 10.0882 48.47 9.90922 47.9563 9.90922C47.5827 9.90922 47.217 10.0338 46.8589 10.2828C46.501 10.5163 46.205 10.8588 45.9715 11.3102C45.7538 11.7617 45.6446 12.2754 45.6446 12.8513V18.3153H40.7178V2.92751ZM61.6567 18.5021C60.2869 18.5021 59.2206 18.113 58.4577 17.3346C57.695 16.5407 57.3135 15.451 57.3135 14.0656V9.51227H55.8191V6.61684H57.6638L59.8354 2.20366H62.1937V6.61684H64.9024V9.51227H62.1937V13.4818C62.1937 13.871 62.3184 14.1745 62.5673 14.3925C62.8166 14.6104 63.1668 14.7194 63.6181 14.7194C64.0384 14.7194 64.4199 14.626 64.7623 14.4392L64.9491 17.7082C64.56 17.9417 64.0541 18.1364 63.4313 18.2919C62.8242 18.432 62.2328 18.5021 61.6567 18.5021Z" fill="#F9F9F9"/>
</svg>
