<svg width="76" height="68" viewBox="0 0 76 68" fill="none" xmlns="http://www.w3.org/2000/svg">
<path fill-rule="evenodd" clip-rule="evenodd" d="M61.5304 67L24.9906 47.0278L25.4602 46.1493L62 66.1215L61.5304 67Z" fill="#FCC055"/>
<path fill-rule="evenodd" clip-rule="evenodd" d="M61.5304 67L24.9906 47.0278L25.4602 46.1493L62 66.1215L61.5304 67Z" fill="black" fill-opacity="0.2"/>
<path fill-rule="evenodd" clip-rule="evenodd" d="M24.8589 46.111L39.5689 0L40.5088 0.306576L25.7161 46.677C25.6412 46.9117 25.4318 47.076 25.1883 47.0911L1.06035 48.5849L1 47.5881L24.8589 46.111Z" fill="#FCC055"/>
<path fill-rule="evenodd" clip-rule="evenodd" d="M24.8589 46.111L39.5689 0L40.5088 0.306576L25.7161 46.677C25.6412 46.9117 25.4318 47.076 25.1883 47.0911L1.06035 48.5849L1 47.5881L24.8589 46.111Z" fill="black" fill-opacity="0.2"/>
<g clip-path="url(#clip0_234_308)">
<path d="M32.063 41.1165C31.2616 41.9179 30.0038 42.3509 28.4227 42.3529C26.5555 42.3554 24.4187 41.7533 22.406 40.6579C18.0556 38.2899 15.7235 34.4586 17.0968 31.9354C17.7875 30.6663 19.2759 29.9658 21.2877 29.9631C23.1549 29.9607 25.2917 30.5628 27.3044 31.6582C31.6548 34.0262 33.9869 37.8575 32.6136 40.3807C32.4664 40.6512 32.2809 40.899 32.063 41.1165ZM18.5839 32.1386C18.456 32.2656 18.3472 32.4105 18.2607 32.5686C17.2765 34.3769 19.4648 37.5484 23.0394 39.4941C24.8605 40.4853 26.7718 41.03 28.421 41.0279C29.9257 41.026 31.0014 40.5712 31.4498 39.7473C32.434 37.939 30.2457 34.7675 26.6711 32.8218C24.85 31.8306 22.9387 31.2859 21.2895 31.288C20.0714 31.2897 19.1345 31.588 18.5839 32.1386Z" fill="url(#paint0_linear_234_308)"/>
<path d="M44.3805 28.6138C41.8573 29.9871 38.0259 27.6551 35.6579 23.3047C34.5625 21.292 33.9605 19.1552 33.9629 17.288C33.9655 15.2761 34.666 13.7878 35.9351 13.0971C38.4583 11.7238 42.2897 14.0558 44.6577 18.4062C45.7531 20.4189 46.3551 22.5557 46.3527 24.4229C46.3506 26.0041 45.9176 27.2617 45.1162 28.0632C44.8987 28.2811 44.6509 28.4666 44.3805 28.6138ZM35.2878 17.2897C35.2857 18.9389 35.8305 20.8501 36.8217 22.6712C38.7674 26.2458 41.9389 28.4342 43.7471 27.45C44.571 27.0016 45.0258 25.9258 45.0278 24.4211C45.0298 22.7719 44.4851 20.8607 43.4939 19.0396C41.5482 15.465 38.3767 13.2766 36.5685 14.2608C36.4103 14.3473 36.2655 14.4562 36.1384 14.584C35.5877 15.1346 35.2895 16.0716 35.2878 17.2897Z" fill="url(#paint1_linear_234_308)"/>
<path d="M44.3805 28.6138C41.8573 29.9871 38.0259 27.6551 35.6579 23.3047C34.5625 21.292 33.9605 19.1552 33.9629 17.288C33.9655 15.2761 34.666 13.7878 35.9351 13.0971C38.4583 11.7238 42.2897 14.0558 44.6577 18.4062C45.7531 20.4189 46.3551 22.5557 46.3527 24.4229C46.3506 26.0041 45.9176 27.2617 45.1162 28.0632C44.8987 28.2811 44.6509 28.4666 44.3805 28.6138ZM35.2878 17.2897C35.2857 18.9389 35.8305 20.8501 36.8217 22.6712C38.7674 26.2458 41.9389 28.4342 43.7471 27.45C44.571 27.0016 45.0258 25.9258 45.0278 24.4211C45.0298 22.7719 44.4851 20.8607 43.4939 19.0396C41.5482 15.465 38.3767 13.2766 36.5685 14.2608C36.4103 14.3473 36.2655 14.4562 36.1384 14.584C35.5877 15.1346 35.2895 16.0716 35.2878 17.2897Z" fill="url(#paint2_linear_234_308)"/>
<path d="M40.2567 34.3828L34.4403 40.1992C33.7063 40.9309 33.2303 41.8814 33.084 42.9074L29.889 46.1024C29.4185 46.5729 29.4185 47.3356 29.889 47.8059L35.9504 53.8674C36.4209 54.3379 37.1836 54.3379 37.6539 53.8674L39.3396 52.1818C39.5705 51.9504 39.8461 51.7684 40.1495 51.6468C40.4529 51.5252 40.7779 51.4665 41.1047 51.4742C42.5771 51.5107 44.0612 50.9673 45.1849 49.8436L50.4512 44.5773L40.2567 34.3828Z" fill="url(#paint3_linear_234_308)"/>
<path d="M42.1828 41.8512C40.8389 40.5073 39.1331 39.7464 37.3791 39.5674L36.5113 40.4352C35.4068 41.5397 34.7028 42.9813 34.5109 44.5314L34.2349 46.7623C34.3009 46.8376 34.3693 46.9108 34.4399 46.9818L37.3014 49.8434C39.2411 51.7831 42.2545 51.9944 44.4282 50.4775C46.2188 47.4337 44.796 44.4643 42.1828 41.8512Z" fill="url(#paint4_linear_234_308)"/>
<path d="M49.4277 45.6012L45.1852 49.8438C44.0614 50.9676 42.5773 51.511 41.1047 51.4741C40.778 51.4665 40.453 51.5252 40.1496 51.6469C39.8462 51.7685 39.5707 51.9505 39.3397 52.1817L37.654 53.8675C37.1836 54.3378 36.4209 54.3378 35.9505 53.8675L29.8892 47.8062C29.4185 47.3354 29.4185 46.5727 29.8889 46.1023L33.084 42.9072C33.2261 41.9165 33.6781 40.9618 34.4405 40.1993L40.2568 34.3831L47.902 42.0283L49.4294 40.501L49.4276 40.5035L49.4277 45.6012Z" fill="url(#paint5_linear_234_308)"/>
<path d="M54.3384 42.0818C53.6781 41.7838 52.9708 41.6031 52.2485 41.5479C51.0639 41.4571 49.9461 40.9634 49.1059 40.1233L42.9001 33.9175L37.917 38.9006L44.1228 45.1064C44.9629 45.9466 45.4566 47.0644 45.5475 48.249C45.603 48.9712 45.7838 49.6782 46.0818 50.3385L54.3384 42.0818Z" fill="url(#paint6_linear_234_308)"/>
<path d="M16.8145 25.4134C15.6957 26.5322 15.7335 28.3614 16.9029 29.4273C26.948 38.5834 37.9555 42.5319 42.2437 38.2437C46.5319 33.9555 42.5833 22.948 33.4273 12.9029C32.3615 11.7335 30.5322 11.6957 29.4134 12.8145L16.8145 25.4134Z" fill="url(#paint7_linear_234_308)"/>
<path d="M29.4134 12.8145L16.8145 25.4134C15.6957 26.5322 15.7335 28.3614 16.9029 29.4273C17.8233 30.2668 18.7698 31.0773 19.741 31.8576L35.8577 15.7411C35.0773 14.7699 34.2668 13.8234 33.4273 12.903C32.3615 11.7335 30.5322 11.6957 29.4134 12.8145Z" fill="url(#paint8_linear_234_308)"/>
<path d="M28.3757 26.1251L28.2314 26.7412C28.1921 26.9379 28.1003 27.082 28.0086 27.1738C27.6285 27.5539 26.9599 27.4097 26.5535 27.0034C26.2782 26.7281 26.134 26.3479 26.2389 25.9285L26.9206 23.1494C26.9599 22.9789 27.0648 22.8216 27.209 22.6775C27.6285 22.258 28.3626 22.022 28.7558 22.4152L37.093 30.7524C37.5125 31.1719 37.2111 31.8929 36.6998 32.4041C36.1885 32.9154 35.4675 33.2169 35.0481 32.7975L28.3757 26.1251Z" fill="url(#paint9_linear_234_308)"/>
<path d="M23.2222 34.4337C31.2334 39.8681 38.8467 41.6407 42.2435 38.2438C45.6404 34.8469 43.8678 27.2336 38.4335 19.2224L23.2222 34.4337Z" fill="url(#paint10_linear_234_308)"/>
<path d="M45.5474 48.2491C45.6029 48.9714 45.7837 49.6784 46.0817 50.3386L54.3383 42.082C53.678 41.784 52.9708 41.6033 52.2484 41.5481C51.6281 41.5011 51.0217 41.3406 50.4593 41.0745L45.0737 46.4601C45.3399 47.0224 45.5004 47.6288 45.5474 48.2491Z" fill="url(#paint11_linear_234_308)"/>
<path d="M59.7738 45.5327L49.5328 55.7737C49.4113 55.8952 49.2527 55.9728 49.0822 55.9941C48.9116 56.0154 48.7389 55.9793 48.5912 55.8914L45.5095 54.0576C44.8197 53.6471 44.3669 52.9548 44.2674 52.1583C44.1679 51.3617 44.4364 50.5793 45.0041 50.0117L54.0117 41.004C54.5793 40.4364 55.3617 40.1679 56.1584 40.2674C56.955 40.367 57.6472 40.8197 58.0577 41.5096L59.8915 44.5912C59.9794 44.7389 60.0155 44.9117 59.9942 45.0822C59.9729 45.2527 59.8953 45.4112 59.7738 45.5327Z" fill="url(#paint12_linear_234_308)"/>
<path d="M45.5094 54.0575L48.591 55.8912C48.7387 55.9791 48.9115 56.0153 49.082 55.994C49.2525 55.9726 49.4111 55.8951 49.5326 55.7736L59.7736 45.5326C59.8951 45.4111 59.9726 45.2525 59.9939 45.082C60.0152 44.9114 59.9791 44.7387 59.8912 44.591L58.0574 41.5094C57.9061 41.2544 57.7122 41.0273 57.4841 40.8379L44.8379 53.4842C45.0272 53.7123 45.2544 53.9062 45.5094 54.0575Z" fill="url(#paint13_linear_234_308)"/>
<path d="M31.4945 44.4971L29.889 46.1026C29.4185 46.5731 29.4185 47.3358 29.889 47.8061L35.9504 53.8676C36.4209 54.3381 37.1836 54.338 37.6539 53.8676L39.2595 52.262L31.4945 44.4971Z" fill="url(#paint14_linear_234_308)"/>
<path d="M39.287 53.598L29.9627 44.9003C29.3802 44.357 28.5564 44.4416 28.0594 44.9073L28.0588 44.9052L19.0801 53.8831C18.2989 54.6642 18.8521 56 19.9569 56H38.3406C39.6 56 40.2079 54.4571 39.287 53.598Z" fill="url(#paint15_linear_234_308)"/>
<path d="M38.1938 48.2645C37.5164 48.9502 36.4084 48.9502 35.7264 48.2683L34.2279 46.7698C31.82 44.3563 31.5922 40.5901 33.5452 37.9207L35.8266 38.8128C36.3796 38.9837 36.9033 39.2382 37.3793 39.5675C37.6583 39.7608 37.9196 39.9785 38.16 40.2182C40.3584 42.4061 40.3928 45.9952 38.2345 48.223C38.2209 48.2367 38.2075 48.2507 38.1938 48.2645Z" fill="url(#paint16_linear_234_308)"/>
<path d="M51.8429 40.586C51.1372 39.9072 50.0148 39.9159 49.3196 40.6111L47.0225 42.9082C46.3187 43.612 46.3187 44.7531 47.0225 45.4569C47.7263 46.1608 48.8675 46.1608 49.5712 45.4569L51.8432 43.185C52.558 42.4702 52.5715 41.2868 51.8429 40.586Z" fill="url(#paint17_linear_234_308)"/>
<path d="M49.4273 40.5034L47.0224 42.9083C46.3186 43.6121 45.1775 43.6121 44.4737 42.9083C43.7698 42.2044 43.7698 41.0634 44.4737 40.3595L46.9038 37.9295C47.599 37.2343 48.7212 37.2256 49.427 37.9044C50.1555 38.6052 50.1421 39.7886 49.4273 40.5034Z" fill="url(#paint18_linear_234_308)"/>
<path d="M44.748 34.988L42.8048 36.9313L42.4591 36.5856C41.2426 35.3691 39.2702 35.3691 38.0537 36.5856L42.1995 32.4397C42.9031 31.7362 44.0444 31.7357 44.7479 32.4394C45.4519 33.1432 45.4516 34.2845 44.748 34.988Z" fill="url(#paint19_linear_234_308)"/>
<path d="M47.4933 37.3401L44.4736 40.3598C43.7697 41.0636 42.6287 41.0636 41.9248 40.3598C41.221 39.6559 41.221 38.5149 41.9248 37.811L44.9697 34.7662C45.6649 34.071 46.7872 34.0622 47.4929 34.7411C48.2215 35.4419 48.208 36.6253 47.4933 37.3401Z" fill="url(#paint20_linear_234_308)"/>
<path d="M45.1614 39.2874L40.6748 34.8007C39.5359 33.6618 37.6894 33.6618 36.5506 34.8007L34.2335 37.1178C31.5667 39.7846 31.5667 44.1084 34.2335 46.7752L34.5112 44.5314C34.7031 42.9812 35.4071 41.5396 36.5116 40.4351L37.9168 39.03C38.4386 38.5081 39.2848 38.5081 39.8067 39.03L41.7988 41.0221C42.7274 41.9507 44.2329 41.9507 45.1615 41.0221C45.6405 40.5432 45.6405 39.7664 45.1614 39.2874Z" fill="url(#paint21_linear_234_308)"/>
</g>
<path fill-rule="evenodd" clip-rule="evenodd" d="M0.0296188 48.265L14.5115 3.84512L15.4628 4.15493L1.08539 48.2544L36.6183 66.9976L61.6374 66.5073L75.0408 21.3578L76 21.6422L62.5134 67.0721C62.439 67.3226 62.211 67.4962 61.9496 67.5014L36.5346 67.9994C36.433 68.0014 36.3325 67.9776 36.2426 67.9302L0.320202 48.9815C0.0617556 48.8452 -0.0609111 48.5427 0.0296188 48.265Z" fill="#FCC055"/>
<path fill-rule="evenodd" clip-rule="evenodd" d="M39.8968 0.00970221C40.0315 -0.00914606 40.1687 0.0182838 40.2857 0.0874963L75.5125 20.9144C76.0116 21.2095 75.8436 21.9702 75.2666 22.0279L50.5879 24.4944C50.465 24.5067 50.3412 24.4807 50.2335 24.4201L14.9994 4.5808C14.499 4.29907 14.642 3.54343 15.2108 3.46385L39.8968 0.00970221ZM39.8969 1.01945L16.5217 4.29018L50.6143 23.4868L73.9529 21.1542L39.8969 1.01945Z" fill="#FCC055"/>
<path fill-rule="evenodd" clip-rule="evenodd" d="M36.0227 67.3468L50.0304 23.8468L50.9829 24.1532L36.9752 67.6532L36.0227 67.3468Z" fill="#FCC055"/>
<defs>
<linearGradient id="paint0_linear_234_308" x1="23.3816" y1="37.7873" x2="25.6718" y2="35.2474" gradientUnits="userSpaceOnUse">
<stop stop-color="#FBC56D"/>
<stop offset="1" stop-color="#C5715A"/>
</linearGradient>
<linearGradient id="paint1_linear_234_308" x1="36.3362" y1="22.7217" x2="45.1222" y2="18.4328" gradientUnits="userSpaceOnUse">
<stop stop-color="#FBC56D"/>
<stop offset="1" stop-color="#C5715A"/>
</linearGradient>
<linearGradient id="paint2_linear_234_308" x1="41.6365" y1="19.6841" x2="38.0555" y2="22.5156" gradientUnits="userSpaceOnUse">
<stop stop-color="#8C3D27" stop-opacity="0"/>
<stop offset="1" stop-color="#8C3D27"/>
</linearGradient>
<linearGradient id="paint3_linear_234_308" x1="39.9793" y1="34.2933" x2="39.9793" y2="52.4217" gradientUnits="userSpaceOnUse">
<stop stop-color="#FFDFCF"/>
<stop offset="1" stop-color="#FFA78F"/>
</linearGradient>
<linearGradient id="paint4_linear_234_308" x1="43.9556" y1="39.4036" x2="37.6282" y2="50.0196" gradientUnits="userSpaceOnUse">
<stop stop-color="#FFDFCF"/>
<stop offset="1" stop-color="#FFA78F"/>
</linearGradient>
<linearGradient id="paint5_linear_234_308" x1="38.8665" y1="45.968" x2="41.2304" y2="43.6041" gradientUnits="userSpaceOnUse">
<stop stop-color="#F89580" stop-opacity="0"/>
<stop offset="0.997" stop-color="#C5715A"/>
</linearGradient>
<linearGradient id="paint6_linear_234_308" x1="40.3893" y1="45.9366" x2="44.4472" y2="42.1686" gradientUnits="userSpaceOnUse">
<stop stop-color="#FEF0AE"/>
<stop offset="1" stop-color="#FBC56D"/>
</linearGradient>
<linearGradient id="paint7_linear_234_308" x1="29.2524" y1="32.1012" x2="36.9468" y2="24.4068" gradientUnits="userSpaceOnUse">
<stop stop-color="#FEF0AE"/>
<stop offset="1" stop-color="#FBC56D"/>
</linearGradient>
<linearGradient id="paint8_linear_234_308" x1="24.8833" y1="20.8697" x2="23.0971" y2="18.8506" gradientUnits="userSpaceOnUse">
<stop stop-color="#F6A96C" stop-opacity="0"/>
<stop offset="0.996" stop-color="#F6A96C" stop-opacity="0.996"/>
<stop offset="1" stop-color="#F6A96C"/>
</linearGradient>
<linearGradient id="paint9_linear_234_308" x1="32.8691" y1="26.6261" x2="30.5333" y2="28.9619" gradientUnits="userSpaceOnUse">
<stop stop-color="#FEF0AE"/>
<stop offset="1" stop-color="#FBC56D"/>
</linearGradient>
<linearGradient id="paint10_linear_234_308" x1="35.3225" y1="31.3376" x2="42.1846" y2="38.1997" gradientUnits="userSpaceOnUse">
<stop stop-color="#DC8758" stop-opacity="0"/>
<stop offset="0.996" stop-color="#DC8758" stop-opacity="0.996"/>
<stop offset="1" stop-color="#DC8758"/>
</linearGradient>
<linearGradient id="paint11_linear_234_308" x1="48.4032" y1="44.4182" x2="50.2209" y2="46.236" gradientUnits="userSpaceOnUse">
<stop stop-color="#DC8758" stop-opacity="0"/>
<stop offset="0.996" stop-color="#DC8758" stop-opacity="0.996"/>
<stop offset="1" stop-color="#DC8758"/>
</linearGradient>
<linearGradient id="paint12_linear_234_308" x1="48.9699" y1="45.5701" x2="54.7342" y2="49.8993" gradientUnits="userSpaceOnUse">
<stop stop-color="#5A5A5A"/>
<stop offset="1" stop-color="#444444"/>
</linearGradient>
<linearGradient id="paint13_linear_234_308" x1="52.6584" y1="48.6733" x2="54.5007" y2="50.5156" gradientUnits="userSpaceOnUse">
<stop stop-color="#433F43" stop-opacity="0"/>
<stop offset="1" stop-color="#1A1A1A"/>
</linearGradient>
<linearGradient id="paint14_linear_234_308" x1="34.9284" y1="48.8282" x2="34.0402" y2="49.7163" gradientUnits="userSpaceOnUse">
<stop stop-color="#F89580" stop-opacity="0"/>
<stop offset="0.997" stop-color="#C5715A"/>
</linearGradient>
<linearGradient id="paint15_linear_234_308" x1="29.2226" y1="50.7342" x2="29.2226" y2="57.3394" gradientUnits="userSpaceOnUse">
<stop stop-color="#FD4755"/>
<stop offset="1" stop-color="#A72B2B"/>
</linearGradient>
<linearGradient id="paint16_linear_234_308" x1="36.3629" y1="43.5842" x2="41.6675" y2="44.4912" gradientUnits="userSpaceOnUse">
<stop stop-color="#F89580" stop-opacity="0"/>
<stop offset="0.997" stop-color="#C5715A"/>
</linearGradient>
<linearGradient id="paint17_linear_234_308" x1="49.4252" y1="37.9308" x2="49.4252" y2="49.9414" gradientUnits="userSpaceOnUse">
<stop stop-color="#FFDFCF"/>
<stop offset="1" stop-color="#FFA78F"/>
</linearGradient>
<linearGradient id="paint18_linear_234_308" x1="45.6688" y1="39.2292" x2="48.4668" y2="42.0272" gradientUnits="userSpaceOnUse">
<stop stop-color="#FFDFCF"/>
<stop offset="1" stop-color="#FFA78F"/>
</linearGradient>
<linearGradient id="paint19_linear_234_308" x1="40.2278" y1="33.4439" x2="43.9805" y2="37.1965" gradientUnits="userSpaceOnUse">
<stop stop-color="#FFDFCF"/>
<stop offset="1" stop-color="#FFA78F"/>
</linearGradient>
<linearGradient id="paint20_linear_234_308" x1="43.4274" y1="36.3732" x2="46.2254" y2="39.1712" gradientUnits="userSpaceOnUse">
<stop stop-color="#FFDFCF"/>
<stop offset="1" stop-color="#FFA78F"/>
</linearGradient>
<linearGradient id="paint21_linear_234_308" x1="40.5951" y1="37.4005" x2="34.2677" y2="48.0165" gradientUnits="userSpaceOnUse">
<stop stop-color="#FFDFCF"/>
<stop offset="1" stop-color="#FFA78F"/>
</linearGradient>
<clipPath id="clip0_234_308">
<rect width="44" height="44" fill="white" transform="translate(16 12)"/>
</clipPath>
</defs>
</svg>
