<svg width="76" height="68" viewBox="0 0 76 68" fill="none" xmlns="http://www.w3.org/2000/svg">
<path fill-rule="evenodd" clip-rule="evenodd" d="M61.5308 67.0005L24.9908 47.0281L25.4604 46.1497L62.0004 66.122L61.5308 67.0005Z" fill="#FCC055"/>
<path fill-rule="evenodd" clip-rule="evenodd" d="M61.5308 67.0005L24.9908 47.0281L25.4604 46.1497L62.0004 66.122L61.5308 67.0005Z" fill="black" fill-opacity="0.2"/>
<path fill-rule="evenodd" clip-rule="evenodd" d="M24.8591 46.1114L39.5692 0L40.5091 0.306578L25.7162 46.6773C25.6413 46.912 25.4319 47.0764 25.1885 47.0914L1.06035 48.5852L1 47.5885L24.8591 46.1114Z" fill="#FCC055"/>
<path fill-rule="evenodd" clip-rule="evenodd" d="M24.8591 46.1114L39.5692 0L40.5091 0.306578L25.7162 46.6773C25.6413 46.912 25.4319 47.0764 25.1885 47.0914L1.06035 48.5852L1 47.5885L24.8591 46.1114Z" fill="black" fill-opacity="0.2"/>
<g clip-path="url(#clip0_218_918)">
<path d="M56.4373 49.2075H19.5604C18.7029 49.2075 18.0078 48.4937 18.0078 47.6131V24.8351H57.9899V47.6132C57.9899 48.4937 57.2948 49.2075 56.4373 49.2075Z" fill="url(#paint0_linear_218_918)"/>
<path d="M18.0078 24.8351H57.9899V32.059H18.0078V24.8351Z" fill="url(#paint1_linear_218_918)"/>
<path d="M45.249 49.2075H56.4376C57.2951 49.2075 57.9902 48.4937 57.9902 47.6131V24.8351H45.249V49.2075Z" fill="url(#paint2_linear_218_918)"/>
<path d="M45.249 49.2075H56.4376C57.2951 49.2075 57.9902 48.4937 57.9902 47.6131V24.8351H45.249V49.2075Z" fill="url(#paint3_linear_218_918)"/>
<path d="M57.6911 26.5223H18.3072C17.4089 26.5223 16.6807 25.7745 16.6807 24.852V24.2167C16.6807 23.2943 17.4088 22.5464 18.3072 22.5464H57.6911C58.5894 22.5464 59.3176 23.2942 59.3176 24.2167V24.852C59.3176 25.7745 58.5894 26.5223 57.6911 26.5223Z" fill="url(#paint4_linear_218_918)"/>
<path d="M59.3176 24.2165V24.8519C59.3176 25.7746 58.5898 26.522 57.6913 26.522H18.307C17.4085 26.522 16.6807 25.7746 16.6807 24.8519V24.2165C16.6807 24.137 16.6865 24.0583 16.6965 23.9813H59.3018C59.3118 24.0583 59.3176 24.137 59.3176 24.2165Z" fill="url(#paint5_linear_218_918)"/>
<path d="M57.6909 22.5465H39.6431V26.5223H57.6909C58.5891 26.5223 59.3174 25.7745 59.3174 24.852V24.2167C59.3174 23.2943 58.5892 22.5465 57.6909 22.5465Z" fill="url(#paint6_linear_218_918)"/>
<path d="M57.6909 22.5465H39.6431V26.5223H57.6909C58.5891 26.5223 59.3174 25.7745 59.3174 24.852V24.2167C59.3174 23.2943 58.5892 22.5465 57.6909 22.5465Z" fill="url(#paint7_linear_218_918)"/>
<path d="M18.0078 42.8259V47.6132C18.0078 48.4937 18.7029 49.2075 19.5604 49.2075H56.4373C57.2948 49.2075 57.9899 48.4937 57.9899 47.6132V42.8259H18.0078Z" fill="url(#paint8_linear_218_918)"/>
<path d="M49.0775 23.4906L39.3803 14.4795C38.5963 13.751 37.4022 13.751 36.6181 14.4795L26.9209 23.4906C27.6624 23.4906 28.2634 24.1078 28.2634 24.8692V49.2075H47.735V24.8692C47.735 24.1078 48.3361 23.4906 49.0775 23.4906Z" fill="url(#paint9_linear_218_918)"/>
<path d="M36.6181 14.4795L26.9209 23.4906C27.6624 23.4906 28.2634 24.1078 28.2634 24.8692V28.0153H47.735V24.8692C47.735 24.1078 48.3361 23.4906 49.0775 23.4906L39.3803 14.4795C38.5964 13.751 37.4022 13.751 36.6181 14.4795Z" fill="url(#paint10_linear_218_918)"/>
<path d="M38.125 13.9388V49.2075H47.7347V24.8692C47.7347 24.1078 48.3357 23.4905 49.0772 23.4905L39.38 14.4795C39.0213 14.1462 38.5767 13.9672 38.125 13.9388Z" fill="url(#paint11_linear_218_918)"/>
<path d="M36.2859 16.3376C37.2584 15.4339 38.7395 15.4339 39.7119 16.3376L46.7223 22.8519C47.1646 23.2629 47.7398 23.4905 48.3364 23.4905H49.2823C50.1486 23.4905 50.5598 22.3945 49.9175 21.7975L39.712 12.3141C38.7395 11.4104 37.2585 11.4104 36.286 12.3141L26.0805 21.7975C25.4381 22.3945 25.8493 23.4905 26.7157 23.4905H27.6615C28.2581 23.4905 28.8334 23.2629 29.2757 22.8519L36.2859 16.3376Z" fill="url(#paint12_linear_218_918)"/>
<path d="M49.9176 21.7975L39.7121 12.3141C38.7397 11.4104 37.2586 11.4104 36.2861 12.3141L35.5132 13.0323V17.0558L36.2861 16.3376C37.2586 15.4339 38.7397 15.4339 39.7121 16.3376L46.7225 22.8519C47.1648 23.2629 47.74 23.4905 48.3366 23.4905H49.2825C50.1487 23.4905 50.5599 22.3945 49.9176 21.7975Z" fill="url(#paint13_linear_218_918)"/>
<path d="M46.7225 22.8518C47.1649 23.2629 47.7401 23.4905 48.3367 23.4905H49.2826C50.1489 23.4905 50.5601 22.3944 49.9177 21.7975L45.5437 17.7329H41.2139L46.7225 22.8518Z" fill="url(#paint14_linear_218_918)"/>
<path d="M26.7157 23.4905H27.6615C28.2581 23.4905 28.8334 23.2629 29.2757 22.8518L34.7844 17.7329H30.4545L26.0805 21.7975C25.4381 22.3944 25.8493 23.4905 26.7157 23.4905Z" fill="url(#paint15_linear_218_918)"/>
<path d="M28.2632 39.7391H47.7348V45.4805H28.2632V39.7391Z" fill="url(#paint16_linear_218_918)"/>
<path d="M28.2632 32.2194H47.7348V37.9608H28.2632V32.2194Z" fill="url(#paint17_linear_218_918)"/>
<path d="M37.9988 25.1094C39.9414 25.1094 41.5162 23.4923 41.5162 21.4974C41.5162 19.5025 39.9414 17.8854 37.9988 17.8854C36.0562 17.8854 34.4814 19.5025 34.4814 21.4974C34.4814 23.4923 36.0562 25.1094 37.9988 25.1094Z" fill="url(#paint18_linear_218_918)"/>
<path d="M37.9988 25.1094C39.9414 25.1094 41.5162 23.4923 41.5162 21.4974C41.5162 19.5025 39.9414 17.8854 37.9988 17.8854C36.0562 17.8854 34.4814 19.5025 34.4814 21.4974C34.4814 23.4923 36.0562 25.1094 37.9988 25.1094Z" fill="url(#paint19_linear_218_918)"/>
<path d="M37.9988 25.1094C39.9414 25.1094 41.5162 23.4923 41.5162 21.4974C41.5162 19.5025 39.9414 17.8854 37.9988 17.8854C36.0562 17.8854 34.4814 19.5025 34.4814 21.4974C34.4814 23.4923 36.0562 25.1094 37.9988 25.1094Z" fill="url(#paint20_linear_218_918)"/>
<path d="M47.1483 33.824H28.8501C27.9796 33.824 27.2739 33.0994 27.2739 32.2054C27.2739 31.3115 27.9796 30.5868 28.8501 30.5868H47.1482C48.0187 30.5868 48.7244 31.3115 48.7244 32.2054C48.7244 33.0993 48.0188 33.824 47.1483 33.824Z" fill="url(#paint21_linear_218_918)"/>
<path d="M47.1483 30.5869H32.915V33.8241H47.1483C48.0188 33.8241 48.7245 33.0994 48.7245 32.2054C48.7244 31.3115 48.0188 30.5869 47.1483 30.5869Z" fill="url(#paint22_linear_218_918)"/>
<path d="M27.2739 32.2056C27.2739 33.0995 27.9797 33.8242 28.8501 33.8242H47.1482C48.0187 33.8242 48.7244 33.0995 48.7244 32.2056C48.7244 31.7957 48.5757 31.4217 48.3311 31.1365H27.6672C27.4134 31.4316 27.2735 31.8119 27.2739 32.2056Z" fill="url(#paint23_linear_218_918)"/>
<path d="M42.0951 45.4181H33.9028V36.4224C33.9028 36.189 33.9931 35.9651 34.1539 35.8C34.3146 35.635 34.5326 35.5422 34.7599 35.5422H41.2381C41.4654 35.5422 41.6835 35.635 41.8442 35.8C42.0049 35.9651 42.0952 36.189 42.0952 36.4224L42.0951 45.4181Z" fill="url(#paint24_linear_218_918)"/>
<path d="M38.6397 35.5422H34.7599C34.5326 35.5422 34.3146 35.635 34.1539 35.8C33.9931 35.9651 33.9028 36.189 33.9028 36.4224V45.418H38.6397V35.5422Z" fill="url(#paint25_linear_218_918)"/>
<path d="M41.2381 35.5422H34.7599C34.5326 35.5422 34.3146 35.635 34.1539 35.8C33.9931 35.9651 33.9028 36.189 33.9028 36.4224V40.6631H42.0951V36.4224C42.0952 35.9363 41.7115 35.5422 41.2381 35.5422Z" fill="url(#paint26_linear_218_918)"/>
<path d="M47.2813 49.1375H28.7169C27.7078 49.1375 26.8896 48.2974 26.8896 47.2611V46.7246C26.8896 45.6883 27.7078 44.8481 28.7169 44.8481H47.2814C48.2905 44.8481 49.1086 45.6883 49.1086 46.7246V47.2611C49.1085 48.2975 48.2905 49.1375 47.2813 49.1375Z" fill="url(#paint27_linear_218_918)"/>
<path d="M49.1086 46.65V47.3355C49.1086 48.331 48.2572 49.1373 47.2061 49.1373H28.7922C27.7411 49.1373 26.8896 48.331 26.8896 47.3355V46.65C26.8896 46.5642 26.8965 46.4793 26.9082 46.3962H49.0901C49.1019 46.4793 49.1086 46.5642 49.1086 46.65Z" fill="url(#paint28_linear_218_918)"/>
<path d="M47.2059 44.8481H40.5679V49.1375H47.2059C48.2567 49.1375 49.1086 48.3307 49.1086 47.3355V46.6501C49.1085 45.655 48.2567 44.8481 47.2059 44.8481Z" fill="url(#paint29_linear_218_918)"/>
<path d="M59.2442 51.5384H16.7539C15.7847 51.5384 14.999 50.7316 14.999 49.7364V49.0509C14.999 48.0557 15.7847 47.2489 16.7539 47.2489H59.2443C60.2134 47.2489 60.9991 48.0557 60.9991 49.0509V49.7364C60.999 50.7316 60.2133 51.5384 59.2442 51.5384Z" fill="url(#paint30_linear_218_918)"/>
<path d="M60.999 49.0508V49.7363C60.999 50.7318 60.2138 51.5382 59.2444 51.5382H16.7537C15.7843 51.5382 14.999 50.7318 14.999 49.7363V49.0508C14.999 48.965 15.0053 48.8802 15.0161 48.7971H60.982C60.9927 48.8802 60.999 48.965 60.999 49.0508Z" fill="url(#paint31_linear_218_918)"/>
<path d="M59.2442 47.249H39.7729V51.5384H59.2442C60.2134 51.5384 60.9991 50.7316 60.9991 49.7364V49.051C60.9991 48.0558 60.2134 47.249 59.2442 47.249Z" fill="url(#paint32_linear_218_918)"/>
<path d="M24.8686 29.1418H21.5397C21.3765 29.1419 21.22 29.2085 21.1046 29.327C20.9892 29.4454 20.9243 29.6062 20.9243 29.7737V33.1923C20.9243 33.3599 20.9892 33.5206 21.1046 33.6391C21.22 33.7576 21.3765 33.8242 21.5397 33.8242H24.8686C25.0318 33.8242 25.1883 33.7576 25.3037 33.6391C25.4191 33.5206 25.484 33.3599 25.484 33.1923V29.7737C25.484 29.6908 25.4681 29.6086 25.4372 29.5319C25.4062 29.4552 25.3609 29.3856 25.3038 29.3269C25.2466 29.2682 25.1788 29.2217 25.1041 29.1899C25.0295 29.1582 24.9494 29.1418 24.8686 29.1418Z" fill="url(#paint33_linear_218_918)"/>
<path d="M25.484 32.3964V29.7737C25.484 29.6908 25.4681 29.6086 25.4372 29.5319C25.4062 29.4552 25.3609 29.3856 25.3038 29.3269C25.2466 29.2682 25.1788 29.2217 25.1041 29.1899C25.0295 29.1582 24.9494 29.1418 24.8686 29.1418H21.5397C21.3765 29.1419 21.22 29.2085 21.1046 29.327C20.9892 29.4455 20.9243 29.6062 20.9243 29.7737V32.3964H25.484Z" fill="url(#paint34_linear_218_918)"/>
<path d="M21.5397 33.8241H23.7766V29.1418H21.5397C21.3765 29.1419 21.22 29.2085 21.1046 29.327C20.9892 29.4454 20.9243 29.6062 20.9243 29.7737V33.1923C20.9244 33.3599 20.9892 33.5205 21.1046 33.639C21.22 33.7575 21.3765 33.8241 21.5397 33.8241Z" fill="url(#paint35_linear_218_918)"/>
<path d="M24.8686 39.3033H21.5397C21.3765 39.3034 21.22 39.37 21.1046 39.4884C20.9892 39.6069 20.9243 39.7677 20.9243 39.9352V43.3538C20.9243 43.5214 20.9892 43.6821 21.1046 43.8006C21.22 43.9191 21.3765 43.9857 21.5397 43.9857H24.8686C25.0318 43.9857 25.1883 43.9191 25.3037 43.8006C25.4191 43.6821 25.484 43.5214 25.484 43.3538V39.9352C25.484 39.7677 25.4191 39.6069 25.3037 39.4884C25.1883 39.37 25.0318 39.3034 24.8686 39.3033Z" fill="url(#paint36_linear_218_918)"/>
<path d="M25.484 42.5579V39.9352C25.484 39.8523 25.4681 39.7701 25.4372 39.6934C25.4062 39.6167 25.3609 39.5471 25.3038 39.4884C25.2466 39.4297 25.1788 39.3832 25.1041 39.3514C25.0295 39.3197 24.9494 39.3033 24.8686 39.3033H21.5397C21.3765 39.3034 21.22 39.37 21.1046 39.4884C20.9892 39.6069 20.9243 39.7677 20.9243 39.9352V42.5579H25.484Z" fill="url(#paint37_linear_218_918)"/>
<path d="M21.5397 43.9856H23.7766V39.3033H21.5397C21.3765 39.3034 21.22 39.37 21.1046 39.4884C20.9892 39.6069 20.9243 39.7677 20.9243 39.9352V43.3538C20.9244 43.5214 20.9892 43.682 21.1046 43.8005C21.22 43.919 21.3765 43.9856 21.5397 43.9856Z" fill="url(#paint38_linear_218_918)"/>
<path d="M54.4585 29.1418H51.1295C50.9663 29.1419 50.8098 29.2085 50.6944 29.327C50.579 29.4454 50.5142 29.6062 50.5142 29.7737V33.1923C50.5142 33.3599 50.579 33.5206 50.6944 33.6391C50.8098 33.7576 50.9663 33.8242 51.1295 33.8242H54.4585C54.6217 33.8242 54.7782 33.7576 54.8936 33.6391C55.009 33.5206 55.0738 33.3599 55.0738 33.1923V29.7737C55.0738 29.6062 55.009 29.4454 54.8936 29.327C54.7782 29.2085 54.6217 29.1419 54.4585 29.1418Z" fill="url(#paint39_linear_218_918)"/>
<path d="M55.0738 32.3964V29.7737C55.0738 29.6908 55.0579 29.6086 55.027 29.5319C54.9961 29.4552 54.9508 29.3856 54.8936 29.3269C54.8365 29.2682 54.7686 29.2217 54.694 29.1899C54.6193 29.1582 54.5393 29.1418 54.4585 29.1418H51.1295C50.9663 29.1419 50.8098 29.2085 50.6944 29.327C50.579 29.4455 50.5142 29.6062 50.5142 29.7737V32.3964H55.0738Z" fill="url(#paint40_linear_218_918)"/>
<path d="M51.1295 33.8241H53.3664V29.1418H51.1295C50.9663 29.1419 50.8098 29.2085 50.6944 29.327C50.579 29.4454 50.5142 29.6062 50.5142 29.7737V33.1923C50.5142 33.2753 50.5301 33.3574 50.561 33.4341C50.5919 33.5108 50.6373 33.5804 50.6944 33.6391C50.7515 33.6977 50.8194 33.7443 50.894 33.776C50.9687 33.8078 51.0487 33.8241 51.1295 33.8241Z" fill="url(#paint41_linear_218_918)"/>
<path d="M54.4585 39.3033H51.1295C50.9663 39.3034 50.8098 39.37 50.6944 39.4884C50.579 39.6069 50.5142 39.7677 50.5142 39.9352V43.3538C50.5142 43.5214 50.579 43.6821 50.6944 43.8006C50.8098 43.9191 50.9663 43.9857 51.1295 43.9857H54.4585C54.6217 43.9857 54.7782 43.9191 54.8936 43.8006C55.009 43.6821 55.0738 43.5214 55.0738 43.3538V39.9352C55.0738 39.7677 55.009 39.6069 54.8936 39.4884C54.7782 39.37 54.6217 39.3034 54.4585 39.3033Z" fill="url(#paint42_linear_218_918)"/>
<path d="M55.0738 42.5579V39.9352C55.0738 39.8523 55.0579 39.7701 55.027 39.6934C54.9961 39.6167 54.9508 39.5471 54.8936 39.4884C54.8365 39.4297 54.7686 39.3832 54.694 39.3514C54.6193 39.3197 54.5393 39.3033 54.4585 39.3033H51.1295C50.9663 39.3034 50.8098 39.37 50.6944 39.4884C50.579 39.6069 50.5142 39.7677 50.5142 39.9352V42.5579H55.0738Z" fill="url(#paint43_linear_218_918)"/>
<path d="M51.1295 43.9856H53.3664V39.3033H51.1295C50.9663 39.3034 50.8098 39.37 50.6944 39.4884C50.579 39.6069 50.5142 39.7677 50.5142 39.9352V43.3538C50.5142 43.4368 50.5301 43.5189 50.561 43.5956C50.5919 43.6723 50.6373 43.7419 50.6944 43.8006C50.7515 43.8592 50.8194 43.9058 50.894 43.9375C50.9687 43.9693 51.0487 43.9856 51.1295 43.9856Z" fill="url(#paint44_linear_218_918)"/>
</g>
<path fill-rule="evenodd" clip-rule="evenodd" d="M0.029619 48.2653L14.5116 3.84514L15.4629 4.15495L1.0854 48.2548L36.6185 66.998L61.6378 66.5077L75.0413 21.3579L76.0005 21.6424L62.5138 67.0726C62.4394 67.3231 62.2114 67.4967 61.95 67.5018L36.5348 67.9999C36.4332 68.0019 36.3327 67.978 36.2429 67.9306L0.320204 48.9819C0.061756 48.8455 -0.0609115 48.543 0.029619 48.2653Z" fill="#FCC055"/>
<path fill-rule="evenodd" clip-rule="evenodd" d="M39.8971 0.00970225C40.0318 -0.00914614 40.1689 0.0182839 40.286 0.0874969L75.513 20.9146C76.0121 21.2097 75.8441 21.9704 75.2671 22.028L50.5883 24.4946C50.4653 24.5068 50.3415 24.4809 50.2339 24.4203L14.9995 4.58083C14.4991 4.2991 14.6421 3.54346 15.2109 3.46387L39.8971 0.00970225ZM39.8971 1.01946L16.5218 4.29021L50.6147 23.4869L73.9534 21.1543L39.8971 1.01946Z" fill="#FCC055"/>
<path fill-rule="evenodd" clip-rule="evenodd" d="M36.023 67.3473L50.0308 23.847L50.9832 24.1534L36.9754 67.6537L36.023 67.3473Z" fill="#FCC055"/>
<defs>
<linearGradient id="paint0_linear_218_918" x1="37.1094" y1="30.168" x2="40.2506" y2="50.6494" gradientUnits="userSpaceOnUse">
<stop stop-color="#EAF9FA"/>
<stop offset="1" stop-color="#B4D2E2"/>
</linearGradient>
<linearGradient id="paint1_linear_218_918" x1="37.9989" y1="29.0414" x2="37.9989" y2="25.8201" gradientUnits="userSpaceOnUse">
<stop stop-color="#528FD8" stop-opacity="0"/>
<stop offset="0.219" stop-color="#4E8ED8" stop-opacity="0.219"/>
<stop offset="0.451" stop-color="#4189D6" stop-opacity="0.451"/>
<stop offset="0.69" stop-color="#2C81D3" stop-opacity="0.69"/>
<stop offset="0.931" stop-color="#0E76CF" stop-opacity="0.931"/>
<stop offset="1" stop-color="#0473CE"/>
</linearGradient>
<linearGradient id="paint2_linear_218_918" x1="50.6809" y1="37.0213" x2="47.1012" y2="37.0213" gradientUnits="userSpaceOnUse">
<stop stop-color="#528FD8" stop-opacity="0"/>
<stop offset="0.219" stop-color="#4E8ED8" stop-opacity="0.219"/>
<stop offset="0.451" stop-color="#4189D6" stop-opacity="0.451"/>
<stop offset="0.69" stop-color="#2C81D3" stop-opacity="0.69"/>
<stop offset="0.931" stop-color="#0E76CF" stop-opacity="0.931"/>
<stop offset="1" stop-color="#0473CE"/>
</linearGradient>
<linearGradient id="paint3_linear_218_918" x1="56.1128" y1="37.0213" x2="58.5318" y2="37.0213" gradientUnits="userSpaceOnUse">
<stop stop-color="#528FD8" stop-opacity="0"/>
<stop offset="0.219" stop-color="#4E8ED8" stop-opacity="0.219"/>
<stop offset="0.451" stop-color="#4189D6" stop-opacity="0.451"/>
<stop offset="0.69" stop-color="#2C81D3" stop-opacity="0.69"/>
<stop offset="0.931" stop-color="#0E76CF" stop-opacity="0.931"/>
<stop offset="1" stop-color="#0473CE"/>
</linearGradient>
<linearGradient id="paint4_linear_218_918" x1="37.9991" y1="23.3265" x2="37.9991" y2="26.0556" gradientUnits="userSpaceOnUse">
<stop stop-color="#F1B0A2"/>
<stop offset="1" stop-color="#CA6E59"/>
</linearGradient>
<linearGradient id="paint5_linear_218_918" x1="37.9991" y1="25.3204" x2="37.9991" y2="26.6389" gradientUnits="userSpaceOnUse">
<stop stop-color="#C4573A" stop-opacity="0"/>
<stop offset="0.234" stop-color="#BE5539" stop-opacity="0.234"/>
<stop offset="0.545" stop-color="#AD4E35" stop-opacity="0.545"/>
<stop offset="0.898" stop-color="#914330" stop-opacity="0.898"/>
<stop offset="1" stop-color="#883F2E"/>
</linearGradient>
<linearGradient id="paint6_linear_218_918" x1="55.4651" y1="24.5345" x2="59.3597" y2="24.5345" gradientUnits="userSpaceOnUse">
<stop stop-color="#C4573A" stop-opacity="0"/>
<stop offset="0.234" stop-color="#BE5539" stop-opacity="0.234"/>
<stop offset="0.545" stop-color="#AD4E35" stop-opacity="0.545"/>
<stop offset="0.898" stop-color="#914330" stop-opacity="0.898"/>
<stop offset="1" stop-color="#883F2E"/>
</linearGradient>
<linearGradient id="paint7_linear_218_918" x1="51.1245" y1="26.3854" x2="47.8493" y2="23.7276" gradientUnits="userSpaceOnUse">
<stop stop-color="#C4573A" stop-opacity="0"/>
<stop offset="0.234" stop-color="#BE5539" stop-opacity="0.234"/>
<stop offset="0.545" stop-color="#AD4E35" stop-opacity="0.545"/>
<stop offset="0.898" stop-color="#914330" stop-opacity="0.898"/>
<stop offset="1" stop-color="#883F2E"/>
</linearGradient>
<linearGradient id="paint8_linear_218_918" x1="37.9989" y1="45.5692" x2="37.9989" y2="49.7004" gradientUnits="userSpaceOnUse">
<stop stop-color="#528FD8" stop-opacity="0"/>
<stop offset="0.219" stop-color="#4E8ED8" stop-opacity="0.219"/>
<stop offset="0.451" stop-color="#4189D6" stop-opacity="0.451"/>
<stop offset="0.69" stop-color="#2C81D3" stop-opacity="0.69"/>
<stop offset="0.931" stop-color="#0E76CF" stop-opacity="0.931"/>
<stop offset="1" stop-color="#0473CE"/>
</linearGradient>
<linearGradient id="paint9_linear_218_918" x1="33.6853" y1="29.282" x2="44.4597" y2="43.7661" gradientUnits="userSpaceOnUse">
<stop stop-color="#EAF9FA"/>
<stop offset="1" stop-color="#B4D2E2"/>
</linearGradient>
<linearGradient id="paint10_linear_218_918" x1="34.9723" y1="20.7993" x2="33.0905" y2="18.4091" gradientUnits="userSpaceOnUse">
<stop stop-color="#528FD8" stop-opacity="0"/>
<stop offset="0.219" stop-color="#4E8ED8" stop-opacity="0.219"/>
<stop offset="0.451" stop-color="#4189D6" stop-opacity="0.451"/>
<stop offset="0.69" stop-color="#2C81D3" stop-opacity="0.69"/>
<stop offset="0.931" stop-color="#0E76CF" stop-opacity="0.931"/>
<stop offset="1" stop-color="#0473CE"/>
</linearGradient>
<linearGradient id="paint11_linear_218_918" x1="44.8035" y1="31.5732" x2="48.7155" y2="31.5732" gradientUnits="userSpaceOnUse">
<stop stop-color="#528FD8" stop-opacity="0"/>
<stop offset="0.219" stop-color="#4E8ED8" stop-opacity="0.219"/>
<stop offset="0.451" stop-color="#4189D6" stop-opacity="0.451"/>
<stop offset="0.69" stop-color="#2C81D3" stop-opacity="0.69"/>
<stop offset="0.931" stop-color="#0E76CF" stop-opacity="0.931"/>
<stop offset="1" stop-color="#0473CE"/>
</linearGradient>
<linearGradient id="paint12_linear_218_918" x1="35.9993" y1="12.2828" x2="38.2066" y2="22.9895" gradientUnits="userSpaceOnUse">
<stop stop-color="#FDB4BA"/>
<stop offset="1" stop-color="#FE5694"/>
</linearGradient>
<linearGradient id="paint13_linear_218_918" x1="43.0993" y1="17.7262" x2="44.3807" y2="16.419" gradientUnits="userSpaceOnUse">
<stop stop-color="#FD3581" stop-opacity="0"/>
<stop offset="0.281" stop-color="#FA317D" stop-opacity="0.282"/>
<stop offset="0.56" stop-color="#F02571" stop-opacity="0.56"/>
<stop offset="0.838" stop-color="#DF115E" stop-opacity="0.838"/>
<stop offset="1" stop-color="#D2024E"/>
</linearGradient>
<linearGradient id="paint14_linear_218_918" x1="45.7225" y1="21.3296" x2="45.7225" y2="23.586" gradientUnits="userSpaceOnUse">
<stop stop-color="#FD3581" stop-opacity="0"/>
<stop offset="0.281" stop-color="#FA317D" stop-opacity="0.282"/>
<stop offset="0.56" stop-color="#F02571" stop-opacity="0.56"/>
<stop offset="0.838" stop-color="#DF115E" stop-opacity="0.838"/>
<stop offset="1" stop-color="#D2024E"/>
</linearGradient>
<linearGradient id="paint15_linear_218_918" x1="30.2757" y1="21.3296" x2="30.2757" y2="23.586" gradientUnits="userSpaceOnUse">
<stop stop-color="#FD3581" stop-opacity="0"/>
<stop offset="0.281" stop-color="#FA317D" stop-opacity="0.282"/>
<stop offset="0.56" stop-color="#F02571" stop-opacity="0.56"/>
<stop offset="0.838" stop-color="#DF115E" stop-opacity="0.838"/>
<stop offset="1" stop-color="#D2024E"/>
</linearGradient>
<linearGradient id="paint16_linear_218_918" x1="37.999" y1="42.3735" x2="37.999" y2="45.713" gradientUnits="userSpaceOnUse">
<stop stop-color="#528FD8" stop-opacity="0"/>
<stop offset="0.219" stop-color="#4E8ED8" stop-opacity="0.219"/>
<stop offset="0.451" stop-color="#4189D6" stop-opacity="0.451"/>
<stop offset="0.69" stop-color="#2C81D3" stop-opacity="0.69"/>
<stop offset="0.931" stop-color="#0E76CF" stop-opacity="0.931"/>
<stop offset="1" stop-color="#0473CE"/>
</linearGradient>
<linearGradient id="paint17_linear_218_918" x1="37.999" y1="35.643" x2="37.999" y2="33.6261" gradientUnits="userSpaceOnUse">
<stop stop-color="#528FD8" stop-opacity="0"/>
<stop offset="0.219" stop-color="#4E8ED8" stop-opacity="0.219"/>
<stop offset="0.451" stop-color="#4189D6" stop-opacity="0.451"/>
<stop offset="0.69" stop-color="#2C81D3" stop-opacity="0.69"/>
<stop offset="0.931" stop-color="#0E76CF" stop-opacity="0.931"/>
<stop offset="1" stop-color="#0473CE"/>
</linearGradient>
<linearGradient id="paint18_linear_218_918" x1="36.1697" y1="19.6191" x2="40.2047" y2="23.5483" gradientUnits="userSpaceOnUse">
<stop stop-color="#C8EFFE"/>
<stop offset="1" stop-color="#62DBFB"/>
</linearGradient>
<linearGradient id="paint19_linear_218_918" x1="38.0892" y1="21.5358" x2="33.9619" y2="19.8757" gradientUnits="userSpaceOnUse">
<stop stop-color="#07B2CD" stop-opacity="0"/>
<stop offset="0.455" stop-color="#05A5CE" stop-opacity="0.455"/>
<stop offset="1" stop-color="#0290CF"/>
</linearGradient>
<linearGradient id="paint20_linear_218_918" x1="37.9988" y1="21.1774" x2="37.9988" y2="17.5924" gradientUnits="userSpaceOnUse">
<stop stop-color="#07B2CD" stop-opacity="0"/>
<stop offset="0.455" stop-color="#05A5CE" stop-opacity="0.455"/>
<stop offset="1" stop-color="#0290CF"/>
</linearGradient>
<linearGradient id="paint21_linear_218_918" x1="37.9992" y1="31.222" x2="37.9992" y2="33.4441" gradientUnits="userSpaceOnUse">
<stop stop-color="#F1B0A2"/>
<stop offset="1" stop-color="#CA6E59"/>
</linearGradient>
<linearGradient id="paint22_linear_218_918" x1="43.499" y1="33.8239" x2="47.3276" y2="35.611" gradientUnits="userSpaceOnUse">
<stop stop-color="#C4573A" stop-opacity="0"/>
<stop offset="0.234" stop-color="#BE5539" stop-opacity="0.234"/>
<stop offset="0.545" stop-color="#AD4E35" stop-opacity="0.545"/>
<stop offset="0.898" stop-color="#914330" stop-opacity="0.898"/>
<stop offset="1" stop-color="#883F2E"/>
</linearGradient>
<linearGradient id="paint23_linear_218_918" x1="37.9991" y1="32.3831" x2="37.9991" y2="34.0648" gradientUnits="userSpaceOnUse">
<stop stop-color="#C4573A" stop-opacity="0"/>
<stop offset="0.234" stop-color="#BE5539" stop-opacity="0.234"/>
<stop offset="0.545" stop-color="#AD4E35" stop-opacity="0.545"/>
<stop offset="0.898" stop-color="#914330" stop-opacity="0.898"/>
<stop offset="1" stop-color="#883F2E"/>
</linearGradient>
<linearGradient id="paint24_linear_218_918" x1="35.5596" y1="38.3094" x2="40.5929" y2="43.0529" gradientUnits="userSpaceOnUse">
<stop stop-color="#537983"/>
<stop offset="1" stop-color="#384949"/>
</linearGradient>
<linearGradient id="paint25_linear_218_918" x1="35.9089" y1="40.4801" x2="33.4918" y2="40.4801" gradientUnits="userSpaceOnUse">
<stop stop-color="#1A1A1A" stop-opacity="0"/>
<stop offset="1" stop-color="#1A1A1A"/>
</linearGradient>
<linearGradient id="paint26_linear_218_918" x1="37.9991" y1="37.046" x2="37.9991" y2="35.2167" gradientUnits="userSpaceOnUse">
<stop stop-color="#1A1A1A" stop-opacity="0"/>
<stop offset="1" stop-color="#1A1A1A"/>
</linearGradient>
<linearGradient id="paint27_linear_218_918" x1="37.9991" y1="45.6897" x2="37.9991" y2="48.6342" gradientUnits="userSpaceOnUse">
<stop stop-color="#F1B0A2"/>
<stop offset="1" stop-color="#CA6E59"/>
</linearGradient>
<linearGradient id="paint28_linear_218_918" x1="37.9992" y1="47.8409" x2="37.9992" y2="49.2634" gradientUnits="userSpaceOnUse">
<stop stop-color="#C4573A" stop-opacity="0"/>
<stop offset="0.234" stop-color="#BE5539" stop-opacity="0.234"/>
<stop offset="0.545" stop-color="#AD4E35" stop-opacity="0.545"/>
<stop offset="0.898" stop-color="#914330" stop-opacity="0.898"/>
<stop offset="1" stop-color="#883F2E"/>
</linearGradient>
<linearGradient id="paint29_linear_218_918" x1="47.4362" y1="46.9928" x2="49.1269" y2="46.9928" gradientUnits="userSpaceOnUse">
<stop stop-color="#C4573A" stop-opacity="0"/>
<stop offset="0.234" stop-color="#BE5539" stop-opacity="0.234"/>
<stop offset="0.545" stop-color="#AD4E35" stop-opacity="0.545"/>
<stop offset="0.898" stop-color="#914330" stop-opacity="0.898"/>
<stop offset="1" stop-color="#883F2E"/>
</linearGradient>
<linearGradient id="paint30_linear_218_918" x1="37.999" y1="48.0905" x2="37.999" y2="51.0349" gradientUnits="userSpaceOnUse">
<stop stop-color="#F1B0A2"/>
<stop offset="1" stop-color="#CA6E59"/>
</linearGradient>
<linearGradient id="paint31_linear_218_918" x1="37.999" y1="50.2417" x2="37.999" y2="51.6642" gradientUnits="userSpaceOnUse">
<stop stop-color="#C4573A" stop-opacity="0"/>
<stop offset="0.234" stop-color="#BE5539" stop-opacity="0.234"/>
<stop offset="0.545" stop-color="#AD4E35" stop-opacity="0.545"/>
<stop offset="0.898" stop-color="#914330" stop-opacity="0.898"/>
<stop offset="1" stop-color="#883F2E"/>
</linearGradient>
<linearGradient id="paint32_linear_218_918" x1="56.8429" y1="49.3937" x2="61.0447" y2="49.3937" gradientUnits="userSpaceOnUse">
<stop stop-color="#C4573A" stop-opacity="0"/>
<stop offset="0.234" stop-color="#BE5539" stop-opacity="0.234"/>
<stop offset="0.545" stop-color="#AD4E35" stop-opacity="0.545"/>
<stop offset="0.898" stop-color="#914330" stop-opacity="0.898"/>
<stop offset="1" stop-color="#883F2E"/>
</linearGradient>
<linearGradient id="paint33_linear_218_918" x1="24.5341" y1="32.8486" x2="21.7866" y2="30.1731" gradientUnits="userSpaceOnUse">
<stop stop-color="#C8EFFE"/>
<stop offset="1" stop-color="#62DBFB"/>
</linearGradient>
<linearGradient id="paint34_linear_218_918" x1="23.2042" y1="30.2079" x2="23.2042" y2="29.1768" gradientUnits="userSpaceOnUse">
<stop stop-color="#07B2CD" stop-opacity="0"/>
<stop offset="0.455" stop-color="#05A5CE" stop-opacity="0.455"/>
<stop offset="1" stop-color="#0290CF"/>
</linearGradient>
<linearGradient id="paint35_linear_218_918" x1="21.9801" y1="31.4831" x2="20.981" y2="31.4831" gradientUnits="userSpaceOnUse">
<stop stop-color="#07B2CD" stop-opacity="0"/>
<stop offset="0.455" stop-color="#05A5CE" stop-opacity="0.455"/>
<stop offset="1" stop-color="#0290CF"/>
</linearGradient>
<linearGradient id="paint36_linear_218_918" x1="24.5341" y1="43.0102" x2="21.7866" y2="40.3347" gradientUnits="userSpaceOnUse">
<stop stop-color="#C8EFFE"/>
<stop offset="1" stop-color="#62DBFB"/>
</linearGradient>
<linearGradient id="paint37_linear_218_918" x1="23.2042" y1="40.3694" x2="23.2042" y2="39.3383" gradientUnits="userSpaceOnUse">
<stop stop-color="#07B2CD" stop-opacity="0"/>
<stop offset="0.455" stop-color="#05A5CE" stop-opacity="0.455"/>
<stop offset="1" stop-color="#0290CF"/>
</linearGradient>
<linearGradient id="paint38_linear_218_918" x1="21.9801" y1="41.6446" x2="20.981" y2="41.6446" gradientUnits="userSpaceOnUse">
<stop stop-color="#07B2CD" stop-opacity="0"/>
<stop offset="0.455" stop-color="#05A5CE" stop-opacity="0.455"/>
<stop offset="1" stop-color="#0290CF"/>
</linearGradient>
<linearGradient id="paint39_linear_218_918" x1="54.1238" y1="32.8486" x2="51.3763" y2="30.1731" gradientUnits="userSpaceOnUse">
<stop stop-color="#C8EFFE"/>
<stop offset="1" stop-color="#62DBFB"/>
</linearGradient>
<linearGradient id="paint40_linear_218_918" x1="52.7941" y1="30.2079" x2="52.7941" y2="29.1768" gradientUnits="userSpaceOnUse">
<stop stop-color="#07B2CD" stop-opacity="0"/>
<stop offset="0.455" stop-color="#05A5CE" stop-opacity="0.455"/>
<stop offset="1" stop-color="#0290CF"/>
</linearGradient>
<linearGradient id="paint41_linear_218_918" x1="51.5699" y1="31.4831" x2="50.5709" y2="31.4831" gradientUnits="userSpaceOnUse">
<stop stop-color="#07B2CD" stop-opacity="0"/>
<stop offset="0.455" stop-color="#05A5CE" stop-opacity="0.455"/>
<stop offset="1" stop-color="#0290CF"/>
</linearGradient>
<linearGradient id="paint42_linear_218_918" x1="54.1238" y1="43.0102" x2="51.3763" y2="40.3347" gradientUnits="userSpaceOnUse">
<stop stop-color="#C8EFFE"/>
<stop offset="1" stop-color="#62DBFB"/>
</linearGradient>
<linearGradient id="paint43_linear_218_918" x1="52.7941" y1="40.3694" x2="52.7941" y2="39.3383" gradientUnits="userSpaceOnUse">
<stop stop-color="#07B2CD" stop-opacity="0"/>
<stop offset="0.455" stop-color="#05A5CE" stop-opacity="0.455"/>
<stop offset="1" stop-color="#0290CF"/>
</linearGradient>
<linearGradient id="paint44_linear_218_918" x1="51.5699" y1="41.6446" x2="50.5709" y2="41.6446" gradientUnits="userSpaceOnUse">
<stop stop-color="#07B2CD" stop-opacity="0"/>
<stop offset="0.455" stop-color="#05A5CE" stop-opacity="0.455"/>
<stop offset="1" stop-color="#0290CF"/>
</linearGradient>
<clipPath id="clip0_218_918">
<rect width="46" height="46" fill="white" transform="translate(14.999 8.5)"/>
</clipPath>
</defs>
</svg>
