<svg width="76" height="68" viewBox="0 0 76 68" fill="none" xmlns="http://www.w3.org/2000/svg">
<path fill-rule="evenodd" clip-rule="evenodd" d="M61.5304 67L24.9906 47.0278L25.4602 46.1493L62 66.1215L61.5304 67Z" fill="#FCC055"/>
<path fill-rule="evenodd" clip-rule="evenodd" d="M61.5304 67L24.9906 47.0278L25.4602 46.1493L62 66.1215L61.5304 67Z" fill="black" fill-opacity="0.2"/>
<path fill-rule="evenodd" clip-rule="evenodd" d="M24.8589 46.111L39.5689 0L40.5088 0.306576L25.7161 46.677C25.6412 46.9117 25.4318 47.076 25.1883 47.0911L1.06035 48.5849L1 47.5881L24.8589 46.111Z" fill="#FCC055"/>
<path fill-rule="evenodd" clip-rule="evenodd" d="M24.8589 46.111L39.5689 0L40.5088 0.306576L25.7161 46.677C25.6412 46.9117 25.4318 47.076 25.1883 47.0911L1.06035 48.5849L1 47.5881L24.8589 46.111Z" fill="black" fill-opacity="0.2"/>
<g clip-path="url(#clip0_147_2354)">
<path d="M24.5421 45.4261C24.1539 45.4261 23.8398 45.7902 23.8398 46.2397V55.2949C23.8398 55.545 23.9752 55.7745 24.1921 55.8989L24.2107 55.9095C24.6723 56.1705 25.2444 55.8357 25.2444 55.3054V46.2397C25.2444 45.7902 24.9295 45.4261 24.5421 45.4261Z" fill="url(#paint0_linear_147_2354)"/>
<path d="M27.9069 45.4261C27.5186 45.4261 27.2046 45.7902 27.2046 46.2397V54.9889C27.2046 55.5032 27.7454 55.8382 28.206 55.6095L28.2245 55.6002C28.34 55.5429 28.4372 55.4544 28.5052 55.3447C28.5731 55.2351 28.6091 55.1087 28.6091 54.9797V46.2397C28.6091 45.7902 28.2942 45.4261 27.9069 45.4261Z" fill="url(#paint1_linear_147_2354)"/>
<path d="M31.2706 45.4261C30.8833 45.4261 30.5684 45.7902 30.5684 46.2397V53.3047C30.5684 53.8201 31.111 54.1551 31.5719 53.9242L31.5905 53.9149C31.7054 53.8572 31.802 53.7688 31.8696 53.6594C31.9371 53.55 31.9729 53.4239 31.9729 53.2953V46.2397C31.9729 45.7902 31.6589 45.4261 31.2706 45.4261Z" fill="url(#paint2_linear_147_2354)"/>
<path d="M34.6354 45.4261C34.248 45.4261 33.9331 45.7902 33.9331 46.2397V51.618C33.9331 52.1334 34.4758 52.4685 34.9367 52.2375L34.9552 52.2282C35.0701 52.1706 35.1668 52.0821 35.2343 51.9727C35.3019 51.8633 35.3377 51.7372 35.3377 51.6087V46.2397C35.3377 45.7902 35.0236 45.4261 34.6354 45.4261Z" fill="url(#paint3_linear_147_2354)"/>
<path d="M37.9999 45.4261C37.6116 45.4261 37.2976 45.7902 37.2976 46.2397V50.5408C37.2976 50.9235 37.6079 51.2339 37.9906 51.233H38.0091C38.3918 51.2338 38.7021 50.9235 38.7021 50.5408V46.2397C38.7022 45.7902 38.3881 45.4261 37.9999 45.4261Z" fill="url(#paint4_linear_147_2354)"/>
<path d="M41.3646 45.4261C40.9764 45.4261 40.6624 45.7902 40.6624 46.2397V51.6087C40.6624 51.7372 40.6981 51.8633 40.7657 51.9727C40.8332 52.0821 40.9299 52.1706 41.0448 52.2282L41.0634 52.2375C41.5242 52.4685 42.0668 52.1335 42.0668 51.618V46.2397C42.0669 45.7902 41.752 45.4261 41.3646 45.4261Z" fill="url(#paint5_linear_147_2354)"/>
<path d="M44.7294 45.4261C44.3411 45.4261 44.0271 45.7902 44.0271 46.2397V53.2953C44.0271 53.4239 44.0629 53.55 44.1304 53.6594C44.198 53.7688 44.2946 53.8572 44.4096 53.9149L44.4281 53.9242C44.8889 54.1551 45.4316 53.8201 45.4316 53.3046V46.2397C45.4317 45.7902 45.1167 45.4261 44.7294 45.4261Z" fill="url(#paint6_linear_147_2354)"/>
<path d="M48.0931 45.4261C47.7058 45.4261 47.3909 45.7902 47.3909 46.2397V54.9797C47.3908 55.1087 47.4268 55.2351 47.4948 55.3447C47.5627 55.4544 47.6599 55.5429 47.7754 55.6002L47.7939 55.6095C48.2546 55.8383 48.7953 55.5033 48.7953 54.9889V46.2397C48.7954 45.7902 48.4814 45.4261 48.0931 45.4261Z" fill="url(#paint7_linear_147_2354)"/>
<path d="M51.4579 45.4261C51.0705 45.4261 50.7556 45.7902 50.7556 46.2397V55.3054C50.7556 55.8357 51.3277 56.1705 51.7894 55.9095C51.9181 55.8367 52.0419 55.7557 52.1602 55.6668V46.2396C52.1602 45.7902 51.8461 45.4261 51.4579 45.4261Z" fill="url(#paint8_linear_147_2354)"/>
<path d="M22.4551 48.7277C22.4551 50.6338 24.0003 52.179 25.9063 52.179C26.4433 52.179 26.9728 52.0537 27.4529 51.8131L35.9929 47.5323C36.6159 47.2201 37.3032 47.0575 38.0001 47.0575C38.697 47.0575 39.3843 47.2201 40.0073 47.5323L48.5473 51.8131C49.0274 52.0537 49.5569 52.179 50.0939 52.179C52 52.179 53.5451 50.6338 53.5451 48.7277V19.4188H22.4551V48.7277Z" fill="url(#paint9_linear_147_2354)"/>
<path d="M22.4599 22.7143L51.5861 51.8404C52.7449 51.2839 53.545 50.0992 53.545 48.7277V19.4188H22.4551V22.7158L22.4599 22.7143Z" fill="url(#paint10_linear_147_2354)"/>
<path d="M49.8313 44.5008C49.8313 44.1001 49.5636 43.7489 49.1771 43.6431C48.9597 43.5836 48.7487 43.5027 48.5471 43.4018L40.0071 39.121C39.3841 38.8087 38.6968 38.6461 37.9999 38.6461C37.303 38.6461 36.6157 38.8087 35.9927 39.121L27.4527 43.4018C27.2511 43.5027 27.0401 43.5836 26.8227 43.6431C26.6347 43.6946 26.4688 43.8064 26.3506 43.9614C26.2324 44.1164 26.1684 44.3059 26.1685 44.5008V47.132C26.1685 47.7859 26.8549 48.2276 27.4406 47.937C27.4446 47.935 27.4486 47.933 27.4527 47.9309L35.9927 43.6501C36.6157 43.3379 37.303 43.1753 37.9999 43.1753C38.6968 43.1753 39.3841 43.3379 40.0071 43.6501L48.5471 47.9309L48.5592 47.937C49.1449 48.2276 49.8313 47.7859 49.8313 47.132V44.5008Z" fill="url(#paint11_linear_147_2354)"/>
<path d="M53.5451 38.2553L44.3416 29.0518L42.8352 29.1257L38.7694 25.0599L33.8142 36.5478L49.3666 52.1002C49.6049 52.1516 49.8485 52.179 50.0939 52.179C51.9999 52.179 53.5451 50.6339 53.5451 48.7278V38.2553Z" fill="url(#paint12_linear_147_2354)"/>
<path d="M43.6259 28.4283L40.9353 27.7782C40.685 27.7177 40.4662 27.566 40.3219 27.3527L38.7709 25.06C38.5832 24.7827 38.2959 24.6338 38.0001 24.6099C37.7044 24.6338 37.4169 24.7827 37.2293 25.06L35.6783 27.3527C35.534 27.566 35.3153 27.7178 35.065 27.7782L32.3743 28.4283C31.6444 28.6046 31.3403 29.4757 31.8017 30.0681L33.503 32.2517C33.6612 32.4549 33.7379 32.7098 33.7181 32.9665L33.5049 35.7263C33.4471 36.4749 34.1816 37.0334 34.8876 36.7776L37.4901 35.8344C37.6533 35.7756 37.8287 35.7589 38.0001 35.7858C38.1715 35.7589 38.3469 35.7756 38.5102 35.8344L41.1126 36.7776C41.8185 37.0334 42.5531 36.4749 42.4953 35.7263L42.2821 32.9665C42.2622 32.7097 42.339 32.4549 42.4973 32.2517L44.1985 30.0681C44.6599 29.4757 44.3557 28.6046 43.6259 28.4283Z" fill="url(#paint13_linear_147_2354)"/>
<path d="M38.5101 35.8343L41.1125 36.7775C41.8184 37.0333 42.553 36.4748 42.4952 35.7262L42.282 32.9664C42.2621 32.7096 42.3389 32.4548 42.4971 32.2516L44.1984 30.068C44.6599 29.4757 44.3557 28.6045 43.6258 28.4282L40.9351 27.7781C40.6848 27.7176 40.4661 27.5659 40.3218 27.3526L38.7708 25.0598C38.5831 24.7825 38.2957 24.6337 38 24.6097V35.7857C38.1714 35.7588 38.3468 35.7756 38.5101 35.8343Z" fill="url(#paint14_linear_147_2354)"/>
<path d="M43.6259 28.4283L40.9352 27.7783C40.8441 27.7562 40.7565 27.7218 40.6747 27.676L33.8157 36.5478C34.0848 36.8078 34.4907 36.9215 34.8875 36.7776L37.49 35.8345C37.6532 35.7757 37.8287 35.7589 38.0001 35.7858C38.1715 35.7589 38.3469 35.7757 38.5101 35.8345L41.1126 36.7776C41.8185 37.0334 42.553 36.475 42.4952 35.7264L42.2821 32.9666C42.2622 32.7098 42.339 32.4549 42.4972 32.2518L44.1985 30.0682C44.6599 29.4758 44.3557 28.6047 43.6259 28.4283Z" fill="url(#paint15_linear_147_2354)"/>
<path d="M32.3743 28.4283L35.0649 27.7783C35.156 27.7562 35.2437 27.7218 35.3255 27.676L42.1845 36.5478C41.9154 36.8078 41.5095 36.9215 41.1126 36.7776L38.5101 35.8345C38.3469 35.7757 38.1715 35.7589 38.0001 35.7858C37.8287 35.7589 37.6533 35.7757 37.49 35.8345L34.8876 36.7776C34.1817 37.0334 33.4471 36.475 33.5049 35.7264L33.7181 32.9666C33.738 32.7098 33.6612 32.4549 33.5029 32.2518L31.8017 30.0682C31.3403 29.4758 31.6445 28.6047 32.3743 28.4283Z" fill="url(#paint16_linear_147_2354)"/>
<path d="M31.6581 29.0518C31.5301 29.3744 31.5608 29.7589 31.8016 30.0681L33.5029 32.2517C33.6611 32.4548 33.7379 32.7097 33.718 32.9665L33.5049 35.7263C33.4471 36.4749 34.1815 37.0334 34.8875 36.7776L37.49 35.8344C37.6532 35.7756 37.8286 35.7589 38 35.7857C38.1714 35.7589 38.3468 35.7756 38.5101 35.8344L41.1125 36.7776C41.8184 37.0334 42.553 36.4749 42.4952 35.7263L42.282 32.9665C42.2714 32.8253 42.29 32.6834 42.3366 32.5497L31.6581 29.0518Z" fill="url(#paint17_linear_147_2354)"/>
<path d="M44.343 29.0518C44.4709 29.3744 44.4403 29.7589 44.1994 30.0681L42.4982 32.2517C42.3399 32.4548 42.2632 32.7097 42.283 32.9665L42.4962 35.7263C42.554 36.4749 41.8196 37.0334 41.1136 36.7776L38.5111 35.8344C38.3479 35.7756 38.1725 35.7589 38.001 35.7857C37.8296 35.7589 37.6542 35.7756 37.491 35.8344L34.8885 36.7776C34.1826 37.0334 33.4481 36.4749 33.5059 35.7263L33.7191 32.9665C33.7297 32.8253 33.7111 32.6834 33.6645 32.5497L44.343 29.0518Z" fill="url(#paint18_linear_147_2354)"/>
<path d="M43.3441 31.1646H32.6558L33.5028 32.2518C33.6611 32.4549 33.7378 32.7098 33.718 32.9666L33.5048 35.7264C33.447 36.475 34.1814 37.0335 34.8874 36.7777L37.4899 35.8345C37.6531 35.7757 37.8286 35.759 38 35.7859C38.1714 35.7591 38.3468 35.7758 38.51 35.8345L41.1125 36.7777C41.8184 37.0335 42.5529 36.475 42.4951 35.7264L42.2819 32.9666C42.2621 32.7098 42.3389 32.455 42.4971 32.2518L43.3441 31.1646Z" fill="url(#paint19_linear_147_2354)"/>
<path d="M22.4551 35.9523V48.7277C22.4551 50.6338 24.0003 52.179 25.9063 52.179C26.4433 52.179 26.9728 52.0537 27.4529 51.8131L35.9929 47.5323C36.6159 47.22 37.3032 47.0574 38.0001 47.0574C38.697 47.0574 39.3843 47.22 40.0073 47.5323L48.5473 51.8131C49.0274 52.0537 49.5569 52.179 50.0939 52.179C52 52.179 53.5451 50.6338 53.5451 48.7277V35.9523H22.4551Z" fill="url(#paint20_linear_147_2354)"/>
<path d="M32.3269 33.1111L30.6564 32.7075C30.501 32.67 30.3652 32.5758 30.2757 32.4434L29.3127 31.0199C29.2592 30.9402 29.1884 30.8736 29.1055 30.8252C29.0226 30.7768 28.9298 30.7478 28.8341 30.7405C28.7384 30.7478 28.6456 30.7768 28.5627 30.8252C28.4798 30.8736 28.409 30.9402 28.3555 31.0199L27.3925 32.4434C27.303 32.5758 27.1672 32.67 27.0118 32.7075L25.3413 33.1111C24.8882 33.2206 24.6993 33.7615 24.9858 34.1292L26.042 35.4849C26.1403 35.611 26.1879 35.7693 26.1755 35.9287L26.0432 37.6422C26.0073 38.1069 26.4634 38.4537 26.9016 38.2948L28.5174 37.7093C28.6187 37.6728 28.7277 37.6624 28.8341 37.6791C28.9405 37.6624 29.0495 37.6728 29.1508 37.7093L30.7666 38.2948C31.2048 38.4537 31.6609 38.1069 31.625 37.6422L31.4926 35.9287C31.4803 35.7693 31.5279 35.611 31.6262 35.4849L32.6824 34.1292C32.9689 33.7615 32.78 33.2206 32.3269 33.1111Z" fill="url(#paint21_linear_147_2354)"/>
<path d="M29.1509 37.7092L30.7667 38.2947C31.205 38.4536 31.661 38.1068 31.6251 37.6421L31.4928 35.9286C31.4804 35.7692 31.5281 35.6109 31.6263 35.4848L32.6825 34.129C32.969 33.7613 32.7802 33.2205 32.3271 33.111L30.6565 32.7074C30.5011 32.6699 30.3653 32.5757 30.2758 32.4432L29.3128 31.0198C29.2593 30.9401 29.1885 30.8735 29.1056 30.8251C29.0227 30.7767 28.9299 30.7477 28.8342 30.7404V37.679C28.9407 37.6623 29.0496 37.6727 29.1509 37.7092Z" fill="url(#paint22_linear_147_2354)"/>
<path d="M32.3268 33.1111L30.6563 32.7075C30.5997 32.6938 30.5453 32.6724 30.4945 32.644L26.2361 38.1522C26.4031 38.3136 26.6551 38.3841 26.9015 38.2949L28.5173 37.7093C28.6186 37.6728 28.7275 37.6624 28.834 37.6791C28.9404 37.6624 29.0493 37.6728 29.1507 37.7093L30.7664 38.2949C31.2047 38.4537 31.6608 38.1069 31.6249 37.6422L31.4925 35.9287C31.4802 35.7693 31.5278 35.611 31.6261 35.4849L32.6823 34.1292C32.9688 33.7615 32.7799 33.2206 32.3268 33.1111Z" fill="url(#paint23_linear_147_2354)"/>
<path d="M25.3413 33.1111L27.0118 32.7075C27.0688 32.6937 27.1231 32.6722 27.1736 32.644L31.432 38.1522C31.265 38.3136 31.013 38.3841 30.7666 38.2949L29.1508 37.7093C29.0494 37.6728 28.9405 37.6624 28.8341 37.6791C28.7277 37.6624 28.6187 37.6728 28.5174 37.7093L26.9016 38.2949C26.4634 38.4537 26.0073 38.1069 26.0432 37.6422L26.1755 35.9287C26.1879 35.7693 26.1403 35.611 26.042 35.4849L24.9858 34.1292C24.6993 33.7615 24.8882 33.2206 25.3413 33.1111Z" fill="url(#paint24_linear_147_2354)"/>
<path d="M24.8967 33.4982C24.8173 33.6985 24.8363 33.9372 24.9859 34.1292L26.042 35.4849C26.1403 35.611 26.1879 35.7693 26.1756 35.9287L26.0432 37.6422C26.0073 38.107 26.4634 38.4537 26.9017 38.2949L28.5174 37.7093C28.6188 37.6728 28.7277 37.6624 28.8341 37.6791C28.9406 37.6624 29.0495 37.6728 29.1508 37.7093L30.7666 38.2949C31.2049 38.4537 31.6609 38.107 31.625 37.6422L31.4927 35.9287C31.4861 35.841 31.4977 35.753 31.5266 35.67L24.8967 33.4982Z" fill="url(#paint25_linear_147_2354)"/>
<path d="M32.772 33.4982C32.8515 33.6985 32.8324 33.9372 32.6829 34.1292L31.6267 35.4849C31.5285 35.611 31.4808 35.7693 31.4932 35.9287L31.6255 37.6422C31.6614 38.107 31.2054 38.4537 30.7671 38.2949L29.1513 37.7093C29.05 37.6728 28.9411 37.6624 28.8346 37.6791C28.7282 37.6624 28.6193 37.6728 28.5179 37.7093L26.9022 38.2949C26.4639 38.4537 26.0078 38.107 26.0437 37.6422L26.1761 35.9287C26.1826 35.841 26.1711 35.753 26.1422 35.67L32.772 33.4982Z" fill="url(#paint26_linear_147_2354)"/>
<path d="M32.152 34.8098H25.5161L26.042 35.4848C26.1403 35.6109 26.1879 35.7692 26.1756 35.9286L26.0433 37.6421C26.0074 38.1069 26.4634 38.4536 26.9017 38.2948L28.5174 37.7092C28.6188 37.6727 28.7277 37.6624 28.8341 37.679C28.9406 37.6623 29.0495 37.6727 29.1509 37.7092L30.7666 38.2948C31.2049 38.4536 31.6609 38.1069 31.625 37.6421L31.4927 35.9286C31.4804 35.7692 31.528 35.6109 31.6262 35.4848L32.152 34.8098Z" fill="url(#paint27_linear_147_2354)"/>
<path d="M50.6587 33.1111L48.9882 32.7075C48.8328 32.67 48.697 32.5758 48.6074 32.4434L47.6444 31.0199C47.591 30.9402 47.5202 30.8736 47.4373 30.8252C47.3544 30.7768 47.2616 30.7478 47.1659 30.7405C47.0702 30.7478 46.9774 30.7768 46.8945 30.8252C46.8116 30.8736 46.7408 30.9402 46.6873 31.0199L45.7243 32.4434C45.6348 32.5758 45.499 32.67 45.3436 32.7075L43.6731 33.1111C43.2199 33.2206 43.0311 33.7615 43.3176 34.1292L44.3738 35.4849C44.472 35.611 44.5197 35.7693 44.5073 35.9287L44.375 37.6422C44.3391 38.1069 44.7951 38.4537 45.2334 38.2948L46.8492 37.7093C46.9505 37.6728 47.0595 37.6624 47.1659 37.6791C47.2723 37.6624 47.3812 37.6728 47.4826 37.7093L49.0983 38.2948C49.5366 38.4537 49.9927 38.1069 49.9568 37.6422L49.8244 35.9287C49.8121 35.7693 49.8597 35.611 49.958 35.4849L51.0142 34.1292C51.3007 33.7615 51.1118 33.2206 50.6587 33.1111Z" fill="url(#paint28_linear_147_2354)"/>
<path d="M47.4825 37.7092L49.0982 38.2947C49.5365 38.4536 49.9926 38.1068 49.9567 37.6421L49.8243 35.9286C49.812 35.7692 49.8596 35.6109 49.9579 35.4848L51.014 34.129C51.3006 33.7613 51.1117 33.2205 50.6586 33.111L48.9881 32.7074C48.8327 32.6699 48.6969 32.5757 48.6073 32.4432L47.6443 31.0198C47.5909 30.9401 47.5201 30.8735 47.4372 30.8251C47.3543 30.7767 47.2615 30.7477 47.1658 30.7404V37.679C47.2722 37.6623 47.3811 37.6727 47.4825 37.7092Z" fill="url(#paint29_linear_147_2354)"/>
<path d="M50.6586 33.1111L48.9881 32.7075C48.9315 32.6938 48.8771 32.6724 48.8263 32.644L44.5679 38.1522C44.7349 38.3136 44.9869 38.3841 45.2333 38.2949L46.8491 37.7093C46.9504 37.6728 47.0593 37.6624 47.1658 37.6791C47.2722 37.6624 47.3811 37.6728 47.4825 37.7093L49.0982 38.2949C49.5365 38.4537 49.9926 38.1069 49.9567 37.6422L49.8243 35.9287C49.812 35.7693 49.8596 35.611 49.9579 35.4849L51.014 34.1292C51.3006 33.7615 51.1117 33.2206 50.6586 33.1111Z" fill="url(#paint30_linear_147_2354)"/>
<path d="M43.6731 33.1111L45.3436 32.7075C45.4006 32.6937 45.4549 32.6722 45.5054 32.644L49.7638 38.1522C49.5968 38.3136 49.3447 38.3841 49.0983 38.2949L47.4826 37.7093C47.3812 37.6728 47.2723 37.6624 47.1659 37.6791C47.0595 37.6624 46.9505 37.6728 46.8492 37.7093L45.2334 38.2949C44.7951 38.4537 44.3391 38.1069 44.375 37.6422L44.5073 35.9287C44.5197 35.7693 44.472 35.611 44.3738 35.4849L43.3176 34.1292C43.0311 33.7615 43.2199 33.2206 43.6731 33.1111Z" fill="url(#paint31_linear_147_2354)"/>
<path d="M43.2285 33.4982C43.1491 33.6985 43.1681 33.9372 43.3176 34.1292L44.3738 35.4849C44.4721 35.611 44.5197 35.7693 44.5074 35.9287L44.375 37.6422C44.3391 38.107 44.7952 38.4537 45.2335 38.2949L46.8492 37.7093C46.9506 37.6728 47.0595 37.6624 47.1659 37.6791C47.2724 37.6624 47.3813 37.6728 47.4826 37.7093L49.0984 38.2949C49.5367 38.4537 49.9927 38.107 49.9568 37.6422L49.8245 35.9287C49.8179 35.841 49.8295 35.753 49.8584 35.67L43.2285 33.4982Z" fill="url(#paint32_linear_147_2354)"/>
<path d="M51.1041 33.4982C51.1835 33.6985 51.1645 33.9372 51.0149 34.1292L49.9588 35.4849C49.8605 35.611 49.8129 35.7693 49.8252 35.9287L49.9576 37.6422C49.9934 38.107 49.5374 38.4537 49.0991 38.2949L47.4834 37.7093C47.382 37.6728 47.2731 37.6624 47.1667 37.6791C47.0602 37.6624 46.9513 37.6728 46.8499 37.7093L45.2342 38.2949C44.7959 38.4537 44.3399 38.107 44.3758 37.6422L44.5081 35.9287C44.5147 35.841 44.5031 35.753 44.4742 35.67L51.1041 33.4982Z" fill="url(#paint33_linear_147_2354)"/>
<path d="M50.4838 34.8098H43.8479L44.3738 35.4848C44.4721 35.6109 44.5197 35.7692 44.5074 35.9286L44.375 37.6421C44.3391 38.1069 44.7952 38.4536 45.2335 38.2948L46.8492 37.7092C46.9506 37.6727 47.0595 37.6624 47.1659 37.679C47.2724 37.6623 47.3813 37.6727 47.4826 37.7092L49.0984 38.2948C49.5367 38.4536 49.9927 38.1069 49.9568 37.6421L49.8245 35.9286C49.8121 35.7692 49.8598 35.6109 49.958 35.4848L50.4838 34.8098Z" fill="url(#paint34_linear_147_2354)"/>
<path d="M25.1611 18.9301V15.9338C25.1611 15.1641 24.3276 14.6831 23.6612 15.0682C23.1705 15.3517 22.6277 15.5332 22.0653 15.6019C21.5028 15.6706 20.9323 15.625 20.3878 15.4679L19.1037 15.0973C17.55 14.6489 16 15.8149 16 17.432C16 19.0491 17.55 20.215 19.1037 19.7667L20.3878 19.3961C20.9323 19.239 21.5028 19.1934 22.0653 19.2621C22.6277 19.3307 23.1705 19.5123 23.6612 19.7957C24.3276 20.1809 25.1611 19.6999 25.1611 18.9301Z" fill="url(#paint35_linear_147_2354)"/>
<path d="M50.8389 18.9301V15.9338C50.8389 15.1641 51.6723 14.6831 52.3388 15.0682C52.8294 15.3517 53.3722 15.5332 53.9347 15.6019C54.4971 15.6706 55.0677 15.625 55.6121 15.4679L56.8962 15.0973C58.4499 14.6489 59.9999 15.8149 59.9999 17.432C59.9999 19.0491 58.4499 20.215 56.8962 19.7667L55.6121 19.3961C55.0677 19.239 54.4971 19.1934 53.9347 19.2621C53.3722 19.3307 52.8294 19.5123 52.3388 19.7957C51.6723 20.1809 50.8389 19.6999 50.8389 18.9301Z" fill="url(#paint36_linear_147_2354)"/>
<path d="M50.8389 18.9301V15.9338C50.8389 15.1641 51.6723 14.6831 52.3388 15.0682C52.8294 15.3517 53.3722 15.5332 53.9347 15.6019C54.4971 15.6706 55.0677 15.625 55.6121 15.4679L56.8962 15.0973C58.4499 14.6489 59.9999 15.8149 59.9999 17.432C59.9999 19.0491 58.4499 20.215 56.8962 19.7667L55.6121 19.3961C55.0677 19.239 54.4971 19.1934 53.9347 19.2621C53.3722 19.3307 52.8294 19.5123 52.3388 19.7957C51.6723 20.1809 50.8389 19.6999 50.8389 18.9301Z" fill="url(#paint37_linear_147_2354)"/>
<path d="M52.7608 22.8639H23.239C21.9999 22.8639 20.9954 21.8595 20.9954 20.6203V14.2437C20.9954 13.0045 21.9999 12 23.239 12H52.7607C53.9998 12 55.0043 13.0045 55.0043 14.2437V20.6204C55.0044 21.8595 53.9998 22.8639 52.7608 22.8639Z" fill="url(#paint38_linear_147_2354)"/>
<path d="M20.9954 14.8341V20.6204C20.9954 21.8595 21.9999 22.864 23.239 22.864H52.7607C53.9998 22.864 55.0043 21.8595 55.0043 20.6204V14.8341H20.9954Z" fill="url(#paint39_linear_147_2354)"/>
</g>
<path fill-rule="evenodd" clip-rule="evenodd" d="M0.0296188 48.265L14.5115 3.84512L15.4628 4.15493L1.08539 48.2544L36.6183 66.9976L61.6374 66.5073L75.0408 21.3578L76 21.6422L62.5134 67.0721C62.439 67.3226 62.211 67.4962 61.9496 67.5014L36.5346 67.9994C36.433 68.0014 36.3325 67.9776 36.2426 67.9302L0.320202 48.9815C0.0617556 48.8452 -0.0609111 48.5427 0.0296188 48.265Z" fill="#FCC055"/>
<path fill-rule="evenodd" clip-rule="evenodd" d="M39.8968 0.00970221C40.0315 -0.00914606 40.1687 0.0182838 40.2857 0.0874963L75.5125 20.9144C76.0116 21.2095 75.8436 21.9702 75.2666 22.0279L50.5879 24.4944C50.465 24.5067 50.3412 24.4807 50.2335 24.4201L14.9994 4.5808C14.499 4.29907 14.642 3.54343 15.2108 3.46385L39.8968 0.00970221ZM39.8969 1.01945L16.5217 4.29018L50.6143 23.4868L73.9529 21.1542L39.8969 1.01945Z" fill="#FCC055"/>
<path fill-rule="evenodd" clip-rule="evenodd" d="M36.0227 67.3468L50.0304 23.8468L50.9829 24.1532L36.9752 67.6532L36.0227 67.3468Z" fill="#FCC055"/>
<defs>
<linearGradient id="paint0_linear_147_2354" x1="26.0348" y1="53.8872" x2="28.1629" y2="58.3735" gradientUnits="userSpaceOnUse">
<stop stop-color="#BBEC6C"/>
<stop offset="1" stop-color="#81B823"/>
</linearGradient>
<linearGradient id="paint1_linear_147_2354" x1="28.8402" y1="52.5565" x2="30.9683" y2="57.0428" gradientUnits="userSpaceOnUse">
<stop stop-color="#BBEC6C"/>
<stop offset="1" stop-color="#81B823"/>
</linearGradient>
<linearGradient id="paint2_linear_147_2354" x1="31.9123" y1="51.0992" x2="34.0404" y2="55.5855" gradientUnits="userSpaceOnUse">
<stop stop-color="#BBEC6C"/>
<stop offset="1" stop-color="#81B823"/>
</linearGradient>
<linearGradient id="paint3_linear_147_2354" x1="34.9855" y1="49.6413" x2="37.1136" y2="54.1276" gradientUnits="userSpaceOnUse">
<stop stop-color="#BBEC6C"/>
<stop offset="1" stop-color="#81B823"/>
</linearGradient>
<linearGradient id="paint4_linear_147_2354" x1="37.9409" y1="48.2394" x2="40.069" y2="52.7257" gradientUnits="userSpaceOnUse">
<stop stop-color="#BBEC6C"/>
<stop offset="1" stop-color="#81B823"/>
</linearGradient>
<linearGradient id="paint5_linear_147_2354" x1="40.4808" y1="47.0346" x2="42.6089" y2="51.5208" gradientUnits="userSpaceOnUse">
<stop stop-color="#BBEC6C"/>
<stop offset="1" stop-color="#81B823"/>
</linearGradient>
<linearGradient id="paint6_linear_147_2354" x1="42.901" y1="45.8865" x2="45.0291" y2="50.3728" gradientUnits="userSpaceOnUse">
<stop stop-color="#BBEC6C"/>
<stop offset="1" stop-color="#81B823"/>
</linearGradient>
<linearGradient id="paint7_linear_147_2354" x1="45.3208" y1="44.7386" x2="47.4488" y2="49.2249" gradientUnits="userSpaceOnUse">
<stop stop-color="#BBEC6C"/>
<stop offset="1" stop-color="#81B823"/>
</linearGradient>
<linearGradient id="paint8_linear_147_2354" x1="48.004" y1="43.4659" x2="50.1321" y2="47.9522" gradientUnits="userSpaceOnUse">
<stop stop-color="#BBEC6C"/>
<stop offset="1" stop-color="#81B823"/>
</linearGradient>
<linearGradient id="paint9_linear_147_2354" x1="33.2874" y1="23.163" x2="47.2632" y2="56.5496" gradientUnits="userSpaceOnUse">
<stop stop-color="#B3DAFE"/>
<stop offset="1" stop-color="#0182FC"/>
</linearGradient>
<linearGradient id="paint10_linear_147_2354" x1="38.0001" y1="32.1882" x2="38.0001" y2="17.6068" gradientUnits="userSpaceOnUse">
<stop stop-color="#0182FC" stop-opacity="0"/>
<stop offset="0.127" stop-color="#017FF2" stop-opacity="0.127"/>
<stop offset="0.338" stop-color="#0175D9" stop-opacity="0.338"/>
<stop offset="0.606" stop-color="#0266B0" stop-opacity="0.606"/>
<stop offset="0.918" stop-color="#025277" stop-opacity="0.918"/>
<stop offset="1" stop-color="#024C67"/>
</linearGradient>
<linearGradient id="paint11_linear_147_2354" x1="36.2637" y1="41.6701" x2="40.7776" y2="52.4533" gradientUnits="userSpaceOnUse">
<stop stop-color="#F9F5F3"/>
<stop offset="1" stop-color="#D8E8F0"/>
</linearGradient>
<linearGradient id="paint12_linear_147_2354" x1="51.964" y1="43.5501" x2="34.3034" y2="32.4338" gradientUnits="userSpaceOnUse">
<stop stop-color="#0182FC" stop-opacity="0"/>
<stop offset="0.127" stop-color="#017FF2" stop-opacity="0.127"/>
<stop offset="0.338" stop-color="#0175D9" stop-opacity="0.338"/>
<stop offset="0.606" stop-color="#0266B0" stop-opacity="0.606"/>
<stop offset="0.918" stop-color="#025277" stop-opacity="0.918"/>
<stop offset="1" stop-color="#024C67"/>
</linearGradient>
<linearGradient id="paint13_linear_147_2354" x1="35.1422" y1="28.8017" x2="40.2959" y2="33.9553" gradientUnits="userSpaceOnUse">
<stop stop-color="#FEF0AE"/>
<stop offset="1" stop-color="#FBC56D"/>
</linearGradient>
<linearGradient id="paint14_linear_147_2354" x1="41.088" y1="30.2068" x2="33.9649" y2="33.1515" gradientUnits="userSpaceOnUse">
<stop stop-color="#F6A96C" stop-opacity="0"/>
<stop offset="0.996" stop-color="#F6A96C" stop-opacity="0.996"/>
<stop offset="1" stop-color="#F6A96C"/>
</linearGradient>
<linearGradient id="paint15_linear_147_2354" x1="39.2283" y1="32.7347" x2="35.3285" y2="31.0633" gradientUnits="userSpaceOnUse">
<stop stop-color="#F6A96C" stop-opacity="0"/>
<stop offset="0.996" stop-color="#F6A96C" stop-opacity="0.996"/>
<stop offset="1" stop-color="#F6A96C"/>
</linearGradient>
<linearGradient id="paint16_linear_147_2354" x1="36.7719" y1="32.7347" x2="40.6717" y2="31.0633" gradientUnits="userSpaceOnUse">
<stop stop-color="#F6A96C" stop-opacity="0"/>
<stop offset="0.996" stop-color="#F6A96C" stop-opacity="0.996"/>
<stop offset="1" stop-color="#F6A96C"/>
</linearGradient>
<linearGradient id="paint17_linear_147_2354" x1="36.8585" y1="32.9302" x2="39.3655" y2="28.9011" gradientUnits="userSpaceOnUse">
<stop stop-color="#F6A96C" stop-opacity="0"/>
<stop offset="0.996" stop-color="#F6A96C" stop-opacity="0.996"/>
<stop offset="1" stop-color="#F6A96C"/>
</linearGradient>
<linearGradient id="paint18_linear_147_2354" x1="38.9493" y1="32.4214" x2="38.7403" y2="28.4818" gradientUnits="userSpaceOnUse">
<stop stop-color="#F6A96C" stop-opacity="0"/>
<stop offset="0.996" stop-color="#F6A96C" stop-opacity="0.996"/>
<stop offset="1" stop-color="#F6A96C"/>
</linearGradient>
<linearGradient id="paint19_linear_147_2354" x1="38" y1="33.3898" x2="38" y2="37.7673" gradientUnits="userSpaceOnUse">
<stop stop-color="#DC8758" stop-opacity="0"/>
<stop offset="0.996" stop-color="#DC8758" stop-opacity="0.996"/>
<stop offset="1" stop-color="#DC8758"/>
</linearGradient>
<linearGradient id="paint20_linear_147_2354" x1="38.0001" y1="42.5411" x2="38.0001" y2="51.5719" gradientUnits="userSpaceOnUse">
<stop stop-color="#0182FC" stop-opacity="0"/>
<stop offset="0.127" stop-color="#017FF2" stop-opacity="0.127"/>
<stop offset="0.338" stop-color="#0175D9" stop-opacity="0.338"/>
<stop offset="0.606" stop-color="#0266B0" stop-opacity="0.606"/>
<stop offset="0.918" stop-color="#025277" stop-opacity="0.918"/>
<stop offset="1" stop-color="#024C67"/>
</linearGradient>
<linearGradient id="paint21_linear_147_2354" x1="27.0599" y1="33.3429" x2="30.2595" y2="36.5426" gradientUnits="userSpaceOnUse">
<stop stop-color="#FEF0AE"/>
<stop offset="1" stop-color="#FBC56D"/>
</linearGradient>
<linearGradient id="paint22_linear_147_2354" x1="30.7514" y1="34.2153" x2="26.3291" y2="36.0436" gradientUnits="userSpaceOnUse">
<stop stop-color="#F6A96C" stop-opacity="0"/>
<stop offset="0.996" stop-color="#F6A96C" stop-opacity="0.996"/>
<stop offset="1" stop-color="#F6A96C"/>
</linearGradient>
<linearGradient id="paint23_linear_147_2354" x1="29.5966" y1="35.7848" x2="27.1754" y2="34.7471" gradientUnits="userSpaceOnUse">
<stop stop-color="#F6A96C" stop-opacity="0"/>
<stop offset="0.996" stop-color="#F6A96C" stop-opacity="0.996"/>
<stop offset="1" stop-color="#F6A96C"/>
</linearGradient>
<linearGradient id="paint24_linear_147_2354" x1="28.0716" y1="35.7848" x2="30.4927" y2="34.7471" gradientUnits="userSpaceOnUse">
<stop stop-color="#F6A96C" stop-opacity="0"/>
<stop offset="0.996" stop-color="#F6A96C" stop-opacity="0.996"/>
<stop offset="1" stop-color="#F6A96C"/>
</linearGradient>
<linearGradient id="paint25_linear_147_2354" x1="28.1254" y1="35.9061" x2="29.6819" y2="33.4046" gradientUnits="userSpaceOnUse">
<stop stop-color="#F6A96C" stop-opacity="0"/>
<stop offset="0.996" stop-color="#F6A96C" stop-opacity="0.996"/>
<stop offset="1" stop-color="#F6A96C"/>
</linearGradient>
<linearGradient id="paint26_linear_147_2354" x1="29.4234" y1="35.5902" x2="29.2937" y2="33.1443" gradientUnits="userSpaceOnUse">
<stop stop-color="#F6A96C" stop-opacity="0"/>
<stop offset="0.996" stop-color="#F6A96C" stop-opacity="0.996"/>
<stop offset="1" stop-color="#F6A96C"/>
</linearGradient>
<linearGradient id="paint27_linear_147_2354" x1="28.8341" y1="36.1914" x2="28.8341" y2="38.9091" gradientUnits="userSpaceOnUse">
<stop stop-color="#DC8758" stop-opacity="0"/>
<stop offset="0.996" stop-color="#DC8758" stop-opacity="0.996"/>
<stop offset="1" stop-color="#DC8758"/>
</linearGradient>
<linearGradient id="paint28_linear_147_2354" x1="45.3916" y1="33.3429" x2="48.5912" y2="36.5426" gradientUnits="userSpaceOnUse">
<stop stop-color="#FEF0AE"/>
<stop offset="1" stop-color="#FBC56D"/>
</linearGradient>
<linearGradient id="paint29_linear_147_2354" x1="49.083" y1="34.2153" x2="44.6606" y2="36.0436" gradientUnits="userSpaceOnUse">
<stop stop-color="#F6A96C" stop-opacity="0"/>
<stop offset="0.996" stop-color="#F6A96C" stop-opacity="0.996"/>
<stop offset="1" stop-color="#F6A96C"/>
</linearGradient>
<linearGradient id="paint30_linear_147_2354" x1="47.9283" y1="35.7848" x2="45.5071" y2="34.7471" gradientUnits="userSpaceOnUse">
<stop stop-color="#F6A96C" stop-opacity="0"/>
<stop offset="0.996" stop-color="#F6A96C" stop-opacity="0.996"/>
<stop offset="1" stop-color="#F6A96C"/>
</linearGradient>
<linearGradient id="paint31_linear_147_2354" x1="46.4033" y1="35.7848" x2="48.8244" y2="34.7471" gradientUnits="userSpaceOnUse">
<stop stop-color="#F6A96C" stop-opacity="0"/>
<stop offset="0.996" stop-color="#F6A96C" stop-opacity="0.996"/>
<stop offset="1" stop-color="#F6A96C"/>
</linearGradient>
<linearGradient id="paint32_linear_147_2354" x1="46.4573" y1="35.9061" x2="48.0137" y2="33.4046" gradientUnits="userSpaceOnUse">
<stop stop-color="#F6A96C" stop-opacity="0"/>
<stop offset="0.996" stop-color="#F6A96C" stop-opacity="0.996"/>
<stop offset="1" stop-color="#F6A96C"/>
</linearGradient>
<linearGradient id="paint33_linear_147_2354" x1="47.7553" y1="35.5902" x2="47.6256" y2="33.1443" gradientUnits="userSpaceOnUse">
<stop stop-color="#F6A96C" stop-opacity="0"/>
<stop offset="0.996" stop-color="#F6A96C" stop-opacity="0.996"/>
<stop offset="1" stop-color="#F6A96C"/>
</linearGradient>
<linearGradient id="paint34_linear_147_2354" x1="47.1658" y1="36.1914" x2="47.1658" y2="38.9091" gradientUnits="userSpaceOnUse">
<stop stop-color="#DC8758" stop-opacity="0"/>
<stop offset="0.996" stop-color="#DC8758" stop-opacity="0.996"/>
<stop offset="1" stop-color="#DC8758"/>
</linearGradient>
<linearGradient id="paint35_linear_147_2354" x1="20.5805" y1="16.122" x2="20.5805" y2="19.3069" gradientUnits="userSpaceOnUse">
<stop stop-color="#FBC56D"/>
<stop offset="1" stop-color="#C5715A"/>
</linearGradient>
<linearGradient id="paint36_linear_147_2354" x1="55.4194" y1="16.122" x2="55.4194" y2="19.3069" gradientUnits="userSpaceOnUse">
<stop stop-color="#FBC56D"/>
<stop offset="1" stop-color="#C5715A"/>
</linearGradient>
<linearGradient id="paint37_linear_147_2354" x1="58.3721" y1="17.432" x2="54.7464" y2="17.432" gradientUnits="userSpaceOnUse">
<stop stop-color="#8C3D27" stop-opacity="0"/>
<stop offset="1" stop-color="#8C3D27"/>
</linearGradient>
<linearGradient id="paint38_linear_147_2354" x1="37.3587" y1="12.9438" x2="38.6527" y2="22.0021" gradientUnits="userSpaceOnUse">
<stop stop-color="#B3DAFE"/>
<stop offset="1" stop-color="#0182FC"/>
</linearGradient>
<linearGradient id="paint39_linear_147_2354" x1="37.9999" y1="17.5757" x2="37.9999" y2="23.4047" gradientUnits="userSpaceOnUse">
<stop stop-color="#0182FC" stop-opacity="0"/>
<stop offset="0.127" stop-color="#017FF2" stop-opacity="0.127"/>
<stop offset="0.338" stop-color="#0175D9" stop-opacity="0.338"/>
<stop offset="0.606" stop-color="#0266B0" stop-opacity="0.606"/>
<stop offset="0.918" stop-color="#025277" stop-opacity="0.918"/>
<stop offset="1" stop-color="#024C67"/>
</linearGradient>
<clipPath id="clip0_147_2354">
<rect width="44" height="44" fill="white" transform="translate(16 12)"/>
</clipPath>
</defs>
</svg>
