<svg width="77" height="68" viewBox="0 0 77 68" fill="none" xmlns="http://www.w3.org/2000/svg">
<path fill-rule="evenodd" clip-rule="evenodd" d="M62.0304 67L25.4906 47.0278L25.9602 46.1493L62.5 66.1215L62.0304 67Z" fill="#FCC055"/>
<path fill-rule="evenodd" clip-rule="evenodd" d="M62.0304 67L25.4906 47.0278L25.9602 46.1493L62.5 66.1215L62.0304 67Z" fill="black" fill-opacity="0.2"/>
<path fill-rule="evenodd" clip-rule="evenodd" d="M25.3589 46.111L40.0689 0L41.0088 0.306576L26.2161 46.677C26.1412 46.9117 25.9318 47.076 25.6883 47.0911L1.56035 48.5849L1.5 47.5881L25.3589 46.111Z" fill="#FCC055"/>
<path fill-rule="evenodd" clip-rule="evenodd" d="M25.3589 46.111L40.0689 0L41.0088 0.306576L26.2161 46.677C26.1412 46.9117 25.9318 47.076 25.6883 47.0911L1.56035 48.5849L1.5 47.5881L25.3589 46.111Z" fill="black" fill-opacity="0.2"/>
<path d="M44.2594 29.8063V32.857H22.7148V29.8063C22.7148 24.0313 27.3984 19.3477 33.1734 19.3477H33.8008C39.5758 19.3391 44.2594 24.0227 44.2594 29.8063Z" fill="url(#paint0_linear_148_204)"/>
<path d="M22.7148 29.8062V32.857H44.2594V29.8062C44.2594 27.5375 43.5375 25.4406 42.3086 23.7305H24.657C23.4281 25.4406 22.7148 27.5375 22.7148 29.8062Z" fill="url(#paint1_linear_148_204)"/>
<path d="M47.6624 56H19.3031C18.6242 56 18.0828 55.45 18.0828 54.7797C18.0828 48.257 23.3679 42.9805 29.882 42.9805H37.075C43.5976 42.9805 48.8742 48.2656 48.8742 54.7797C48.8828 55.45 48.3328 56 47.6624 56Z" fill="url(#paint2_linear_148_204)"/>
<path d="M37.0836 42.9719H32.6406V56H47.6711C48.35 56 48.8914 55.45 48.8914 54.7797C48.8828 48.2571 43.5977 42.9719 37.0836 42.9719Z" fill="url(#paint3_linear_148_204)"/>
<path d="M33.4827 56H47.6624C48.3413 56 48.8827 55.45 48.8827 54.7797C48.8827 48.257 43.5975 42.9805 37.0834 42.9805H33.4827V56Z" fill="url(#paint4_linear_148_204)"/>
<path d="M33.4827 47.0625L32.4257 48.1195C31.6694 48.8758 30.4062 48.6953 29.8819 47.7672L28.8507 45.9195C28.5843 45.4383 28.4468 44.9055 28.4468 44.3555V43.5906C28.4468 43.1523 28.6187 42.7312 28.9366 42.4219L29.4093 41.9492H33.4827V47.0625Z" fill="url(#paint5_linear_148_204)"/>
<path d="M33.4827 47.0625L34.5397 48.1195C35.2959 48.8758 36.5592 48.6953 37.0834 47.7672L38.1147 45.9195C38.3811 45.4383 38.5186 44.9055 38.5186 44.3555V43.5906C38.5186 43.1523 38.3467 42.7312 38.0288 42.4219L37.5561 41.9492H33.4827V47.0625Z" fill="url(#paint6_linear_148_204)"/>
<path d="M18.0828 54.7796C18.0828 55.4585 18.6328 56 19.3031 56H47.6539C48.3328 56 48.8742 55.4499 48.8742 54.7796C48.8742 52.7171 48.3414 50.7835 47.4132 49.0906H19.5437C18.6156 50.775 18.0828 52.7171 18.0828 54.7796Z" fill="url(#paint7_linear_148_204)"/>
<path d="M33.4828 47.0625C35.3718 47.0625 36.9031 45.5312 36.9031 43.6422C36.9031 41.7533 35.3718 40.2219 33.4828 40.2219C31.5938 40.2219 30.0625 41.7533 30.0625 43.6422C30.0625 45.5312 31.5938 47.0625 33.4828 47.0625Z" fill="url(#paint8_linear_148_204)"/>
<path d="M33.4828 47.0625C35.3718 47.0625 36.9031 45.5312 36.9031 43.6422C36.9031 41.7533 35.3718 40.2219 33.4828 40.2219C31.5938 40.2219 30.0625 41.7533 30.0625 43.6422C30.0625 45.5312 31.5938 47.0625 33.4828 47.0625Z" fill="url(#paint9_linear_148_204)"/>
<path d="M20.5061 33.9743C20.5061 31.7485 22.053 29.8837 24.1241 29.3939C24.6827 29.2649 25.2069 29.6946 25.2069 30.2618V37.6868C25.2069 38.254 24.6741 38.6837 24.1241 38.5548C22.053 38.0649 20.5061 36.2001 20.5061 33.9743Z" fill="url(#paint10_linear_148_204)"/>
<path d="M46.4593 33.9743C46.4593 31.7485 44.9125 29.8837 42.8414 29.3939C42.2828 29.2649 41.7585 29.6946 41.7585 30.2618V37.6868C41.7585 38.254 42.2914 38.6837 42.8414 38.5548C44.9125 38.0649 46.4593 36.2001 46.4593 33.9743Z" fill="url(#paint11_linear_148_204)"/>
<path d="M46.4593 33.9743C46.4593 31.7485 44.9125 29.8837 42.8414 29.3939C42.2828 29.2649 41.7585 29.6946 41.7585 30.2618V37.6868C41.7585 38.254 42.2914 38.6837 42.8414 38.5548C44.9125 38.0649 46.4593 36.2001 46.4593 33.9743Z" fill="url(#paint12_linear_148_204)"/>
<path d="M33.7407 44.0461H33.225C28.4555 44.0461 24.5969 40.1789 24.5969 35.418V32.9172C24.5969 28.1477 28.4641 24.2891 33.225 24.2891H33.7407C38.5102 24.2891 42.3688 28.1562 42.3688 32.9172V35.418C42.3774 40.1789 38.5102 44.0461 33.7407 44.0461Z" fill="url(#paint13_linear_148_204)"/>
<path d="M24.5969 30.339V32.7194C26.1954 31.9632 27.3469 29.7718 27.3469 27.1851C27.3469 26.2054 27.1836 25.2858 26.8915 24.478C25.4649 26.0163 24.5969 28.0788 24.5969 30.339Z" fill="url(#paint14_linear_148_204)"/>
<path d="M33.9726 39.1046H32.9929C32.1765 39.1046 31.5577 38.3656 31.6952 37.5578L32.1593 34.9625C32.2194 34.6359 32.503 34.3953 32.8382 34.3953H34.1272C34.4624 34.3953 34.746 34.6359 34.8062 34.9625L35.2702 37.5578C35.4163 38.3656 34.7976 39.1046 33.9726 39.1046Z" fill="url(#paint15_linear_148_204)"/>
<path d="M33.9726 39.1046H32.9929C32.1765 39.1046 31.5577 38.3656 31.6952 37.5578L32.1593 34.9625C32.2194 34.6359 32.503 34.3953 32.8382 34.3953H34.1272C34.4624 34.3953 34.746 34.6359 34.8062 34.9625L35.2702 37.5578C35.4163 38.3656 34.7976 39.1046 33.9726 39.1046Z" fill="url(#paint16_linear_148_204)"/>
<path d="M32.9929 39.1046H33.9726C34.789 39.1046 35.4077 38.3656 35.2702 37.5578L34.8062 34.9625C34.746 34.6359 34.4624 34.3953 34.1272 34.3953H32.8382C32.503 34.3953 32.2194 34.6359 32.1593 34.9625L31.6952 37.5578C31.5577 38.3656 32.1765 39.1046 32.9929 39.1046Z" fill="url(#paint17_linear_148_204)"/>
<path d="M29.6071 35.547C28.9024 35.547 28.3352 34.9798 28.3352 34.2751V33.622C28.3352 32.9173 28.9024 32.3501 29.6071 32.3501C30.3118 32.3501 30.879 32.9173 30.879 33.622V34.2751C30.879 34.9798 30.3118 35.547 29.6071 35.547Z" fill="url(#paint18_linear_148_204)"/>
<path d="M37.3585 35.547C36.6539 35.547 36.0867 34.9798 36.0867 34.2751V33.622C36.0867 32.9173 36.6539 32.3501 37.3585 32.3501C38.0632 32.3501 38.6304 32.9173 38.6304 33.622V34.2751C38.6304 34.9798 38.0632 35.547 37.3585 35.547Z" fill="url(#paint19_linear_148_204)"/>
<path d="M33.4141 41.3391L32.9328 41.8204H27.4414C28.9711 43.204 30.9992 44.0461 33.225 44.0461H33.7406C34.4711 44.0461 35.1758 43.9516 35.8547 43.7883L33.4141 41.3391Z" fill="url(#paint20_linear_148_204)"/>
<path d="M42.3772 30.3391C42.3772 25.5695 38.5101 21.7109 33.7491 21.7109H33.2335C28.9366 21.7109 25.3702 24.8477 24.7085 28.9641C25.9116 27.5891 27.8452 28.7406 28.1374 28.8953C29.4179 29.5828 31.3429 30.0125 33.4913 30.0125C35.4163 30.0125 37.1608 29.6602 38.4241 29.1016C38.9827 28.8523 39.6358 29.1445 39.7991 29.7375C39.8851 30.0812 39.9366 30.4336 39.9366 30.7945C39.9366 32.1953 41.1913 33.0977 42.3772 32.943V30.3391Z" fill="url(#paint21_linear_148_204)"/>
<path d="M31.2915 42.2586H26.9516C25.0868 42.2586 23.5657 40.7461 23.5657 38.8727V37.9102C23.5657 37.7211 23.7204 37.5664 23.9094 37.5664C24.0985 37.5664 24.2532 37.7211 24.2532 37.9102V38.8727C24.2532 40.3594 25.4563 41.5711 26.9516 41.5711H31.2915C31.4805 41.5711 31.6352 41.7258 31.6352 41.9148C31.6352 42.1125 31.4805 42.2586 31.2915 42.2586Z" fill="url(#paint22_linear_148_204)"/>
<path d="M32.8211 42.7484H31.4461C30.9906 42.7484 30.6211 42.3789 30.6211 41.9234C30.6211 41.4679 30.9906 41.0984 31.4461 41.0984H32.8211C33.2766 41.0984 33.6461 41.4679 33.6461 41.9234C33.6461 42.3789 33.2766 42.7484 32.8211 42.7484Z" fill="url(#paint23_linear_148_204)"/>
<path d="M45.892 12H53.953C57.2444 12 59.917 14.6727 59.917 17.9641V22.1922C59.917 25.4836 57.2444 28.1562 53.953 28.1562H49.3209C49.235 28.1562 49.1663 28.1992 49.1233 28.2766C48.453 29.4281 47.0694 30.2445 45.2475 30.7086C45.0241 30.7687 44.8694 30.4852 45.0413 30.3219C45.7202 29.6687 46.0553 29.0328 46.1155 28.4055C46.1241 28.268 46.0209 28.1562 45.892 28.1562C42.6006 28.1562 39.928 25.4836 39.928 22.1922V17.9641C39.928 14.6727 42.6006 12 45.892 12Z" fill="url(#paint24_linear_148_204)"/>
<path d="M53.953 12H49.0288V28.4312C49.0632 28.3797 49.0976 28.3281 49.1233 28.2766C49.1663 28.2078 49.2351 28.1562 49.321 28.1562H53.953C57.2444 28.1562 59.9171 25.4836 59.9171 22.1922V17.9641C59.9171 14.6727 57.2444 12 53.953 12Z" fill="url(#paint25_linear_148_204)"/>
<path d="M39.928 18.0586V22.1922C39.928 25.4836 42.6006 28.1562 45.892 28.1562C46.0295 28.1562 46.1327 28.2766 46.1155 28.4055C46.0553 29.0328 45.7288 29.6773 45.0413 30.3219C44.8694 30.4852 45.0241 30.7602 45.2475 30.7086C47.0694 30.2359 48.453 29.4195 49.1233 28.2766C49.1663 28.2078 49.235 28.1562 49.3209 28.1562H53.953C57.2444 28.1562 59.917 25.4836 59.917 22.1922V18.0586H39.928Z" fill="url(#paint26_linear_148_204)"/>
<path d="M59.9086 22.4242L52.5868 15.0938L48.8743 22.4242L54.5719 28.1219C57.5024 27.8211 59.7969 25.3977 59.9086 22.4242Z" fill="url(#paint27_linear_148_204)"/>
<path d="M53.9531 28.1562C54.1594 28.1562 54.3656 28.1476 54.5633 28.1218L50.5328 24.0913L48.625 25.9991L50.782 28.1562H53.9531Z" fill="url(#paint28_linear_148_204)"/>
<path d="M49.4328 19.6312L46.7859 16.9757L48.1437 15.6179H51.5984V17.8609L49.4328 19.6312Z" fill="url(#paint29_linear_148_204)"/>
<path d="M53.0594 15.7555C52.8875 15.4203 52.6469 15.1281 52.3461 14.8875C52.0453 14.6469 51.6758 14.4578 51.2375 14.3117C50.7992 14.1742 50.318 14.1055 49.7852 14.1055C49.218 14.1055 48.7367 14.1828 48.3242 14.3289C47.9117 14.475 47.5766 14.6641 47.3102 14.8875C47.0438 15.1109 46.8461 15.3516 46.7172 15.6094C46.5883 15.8672 46.5195 16.1078 46.5195 16.3313C46.5195 16.4945 46.5539 16.6406 46.6141 16.7523C46.6742 16.8641 46.7516 16.9672 46.8547 17.0445C46.9578 17.1219 47.0609 17.182 47.1813 17.2164C47.293 17.2594 47.4133 17.2766 47.525 17.2766C47.7484 17.2766 47.9031 17.2078 48.0062 17.0789C48.1094 16.95 48.2125 16.8039 48.3328 16.6406C48.4531 16.4773 48.6078 16.3313 48.8141 16.2023C49.0203 16.0734 49.3297 16.0047 49.7508 16.0047C50.1719 16.0047 50.5242 16.0992 50.8078 16.2797C51.0914 16.4602 51.2375 16.7438 51.2375 17.1305C51.2375 17.3539 51.1859 17.5516 51.0828 17.732C50.9797 17.9125 50.8508 18.0844 50.7047 18.2305C50.5586 18.3766 50.3953 18.5141 50.2234 18.643C50.0516 18.7719 49.8969 18.8922 49.768 18.9953C49.6477 19.0984 49.5187 19.2188 49.3898 19.3562C49.2609 19.5023 49.1406 19.6742 49.0375 19.8719C48.9344 20.0695 48.8398 20.3016 48.7711 20.5766C48.7023 20.8516 48.6594 21.1609 48.6594 21.5133C48.6594 21.943 48.7281 22.2352 48.857 22.3898C48.9859 22.5445 49.2266 22.6219 49.5703 22.6219C49.9828 22.6219 50.2406 22.5445 50.3695 22.3984C50.4898 22.2523 50.55 22.0977 50.55 21.943C50.55 21.7367 50.5586 21.5391 50.5672 21.3586C50.5758 21.1781 50.6102 21.0148 50.6789 20.8516C50.7391 20.6883 50.8336 20.5336 50.9539 20.3703C51.0742 20.207 51.2547 20.0437 51.4867 19.8633C51.5984 19.7773 51.7531 19.6398 51.968 19.4594C52.1742 19.2789 52.3891 19.0555 52.5867 18.7977C52.793 18.5398 52.9648 18.2391 53.1195 17.9125C53.2656 17.5773 53.343 17.225 53.343 16.8383C53.3172 16.4516 53.2313 16.0906 53.0594 15.7555Z" fill="url(#paint30_linear_148_204)"/>
<path d="M49.579 26.3945C50.3241 26.3945 50.9282 25.7904 50.9282 25.0453C50.9282 24.3001 50.3241 23.696 49.579 23.696C48.8338 23.696 48.2297 24.3001 48.2297 25.0453C48.2297 25.7904 48.8338 26.3945 49.579 26.3945Z" fill="url(#paint31_linear_148_204)"/>
<path fill-rule="evenodd" clip-rule="evenodd" d="M0.529619 48.265L15.0115 3.84512L15.9628 4.15493L1.58539 48.2544L37.1183 66.9976L62.1374 66.5073L75.5408 21.3578L76.5 21.6422L63.0134 67.0721C62.939 67.3226 62.711 67.4962 62.4496 67.5014L37.0346 67.9994C36.933 68.0014 36.8325 67.9776 36.7426 67.9302L0.820202 48.9815C0.561756 48.8452 0.439089 48.5427 0.529619 48.265Z" fill="#FCC055"/>
<path fill-rule="evenodd" clip-rule="evenodd" d="M40.3968 0.00970221C40.5315 -0.00914606 40.6687 0.0182838 40.7857 0.0874963L76.0125 20.9144C76.5116 21.2095 76.3436 21.9702 75.7666 22.0279L51.0879 24.4944C50.965 24.5067 50.8412 24.4807 50.7335 24.4201L15.4994 4.5808C14.999 4.29907 15.142 3.54343 15.7108 3.46385L40.3968 0.00970221ZM40.3969 1.01945L17.0217 4.29018L51.1143 23.4868L74.4529 21.1542L40.3969 1.01945Z" fill="#FCC055"/>
<path fill-rule="evenodd" clip-rule="evenodd" d="M36.5227 67.3468L50.5304 23.8468L51.4829 24.1532L37.4752 67.6532L36.5227 67.3468Z" fill="#FCC055"/>
<defs>
<linearGradient id="paint0_linear_148_204" x1="31.3974" y1="20.1338" x2="33.6947" y2="31.8962" gradientUnits="userSpaceOnUse">
<stop stop-color="#5A5A5A"/>
<stop offset="1" stop-color="#444444"/>
</linearGradient>
<linearGradient id="paint1_linear_148_204" x1="33.4838" y1="26.3584" x2="33.4838" y2="29.531" gradientUnits="userSpaceOnUse">
<stop stop-color="#433F43" stop-opacity="0"/>
<stop offset="1" stop-color="#1A1A1A"/>
</linearGradient>
<linearGradient id="paint2_linear_148_204" x1="28.4658" y1="44.2732" x2="35.5203" y2="57.1331" gradientUnits="userSpaceOnUse">
<stop stop-color="#F5FBFF"/>
<stop offset="1" stop-color="#D8ECFE"/>
</linearGradient>
<linearGradient id="paint3_linear_148_204" x1="42.6309" y1="49.1482" x2="47.4706" y2="48.4743" gradientUnits="userSpaceOnUse">
<stop stop-color="#B3DAFE" stop-opacity="0"/>
<stop offset="0.431" stop-color="#B1D9FE" stop-opacity="0.432"/>
<stop offset="0.666" stop-color="#A9D6FE" stop-opacity="0.666"/>
<stop offset="0.852" stop-color="#9BD0FE" stop-opacity="0.852"/>
<stop offset="1" stop-color="#8AC9FE"/>
</linearGradient>
<linearGradient id="paint4_linear_148_204" x1="39.5507" y1="50.6073" x2="32.1175" y2="48.0752" gradientUnits="userSpaceOnUse">
<stop stop-color="#B3DAFE" stop-opacity="0"/>
<stop offset="0.431" stop-color="#B1D9FE" stop-opacity="0.432"/>
<stop offset="0.666" stop-color="#A9D6FE" stop-opacity="0.666"/>
<stop offset="0.852" stop-color="#9BD0FE" stop-opacity="0.852"/>
<stop offset="1" stop-color="#8AC9FE"/>
</linearGradient>
<linearGradient id="paint5_linear_148_204" x1="28.5203" y1="41.7296" x2="32.3221" y2="45.5314" gradientUnits="userSpaceOnUse">
<stop stop-color="#B3DAFE"/>
<stop offset="1" stop-color="#0182FC"/>
</linearGradient>
<linearGradient id="paint6_linear_148_204" x1="34.7643" y1="43.9537" x2="37.5823" y2="46.3226" gradientUnits="userSpaceOnUse">
<stop stop-color="#B3DAFE"/>
<stop offset="1" stop-color="#0182FC"/>
</linearGradient>
<linearGradient id="paint7_linear_148_204" x1="33.4837" y1="52.5786" x2="33.4837" y2="56.0164" gradientUnits="userSpaceOnUse">
<stop stop-color="#B3DAFE" stop-opacity="0"/>
<stop offset="0.431" stop-color="#B1D9FE" stop-opacity="0.432"/>
<stop offset="0.666" stop-color="#A9D6FE" stop-opacity="0.666"/>
<stop offset="0.852" stop-color="#9BD0FE" stop-opacity="0.852"/>
<stop offset="1" stop-color="#8AC9FE"/>
</linearGradient>
<linearGradient id="paint8_linear_148_204" x1="31.296" y1="41.4578" x2="34.9784" y2="45.1401" gradientUnits="userSpaceOnUse">
<stop stop-color="#FFDFCF"/>
<stop offset="1" stop-color="#FFA78F"/>
</linearGradient>
<linearGradient id="paint9_linear_148_204" x1="33.4838" y1="45.1733" x2="33.4838" y2="42.4749" gradientUnits="userSpaceOnUse">
<stop stop-color="#F89580" stop-opacity="0"/>
<stop offset="0.997" stop-color="#C5715A"/>
</linearGradient>
<linearGradient id="paint10_linear_148_204" x1="21.7651" y1="33.0581" x2="24.4606" y2="34.0383" gradientUnits="userSpaceOnUse">
<stop stop-color="#FFA1AE"/>
<stop offset="1" stop-color="#FF4565"/>
</linearGradient>
<linearGradient id="paint11_linear_148_204" x1="42.0822" y1="33.5215" x2="46.0642" y2="35.972" gradientUnits="userSpaceOnUse">
<stop stop-color="#FFA1AE"/>
<stop offset="1" stop-color="#FF4565"/>
</linearGradient>
<linearGradient id="paint12_linear_148_204" x1="44.379" y1="33.9768" x2="41.9217" y2="33.9768" gradientUnits="userSpaceOnUse">
<stop stop-color="#FE0364" stop-opacity="0"/>
<stop offset="0.234" stop-color="#F90362" stop-opacity="0.234"/>
<stop offset="0.517" stop-color="#EA035B" stop-opacity="0.517"/>
<stop offset="0.824" stop-color="#D20250" stop-opacity="0.824"/>
<stop offset="1" stop-color="#C00148"/>
</linearGradient>
<linearGradient id="paint13_linear_148_204" x1="32.4312" y1="33.0642" x2="38.5248" y2="39.4374" gradientUnits="userSpaceOnUse">
<stop stop-color="#FFDFCF"/>
<stop offset="1" stop-color="#FFA78F"/>
</linearGradient>
<linearGradient id="paint14_linear_148_204" x1="24.2108" y1="27.1507" x2="28.1929" y2="30.9184" gradientUnits="userSpaceOnUse">
<stop stop-color="#C86D36"/>
<stop offset="0.201" stop-color="#C46B35"/>
<stop offset="0.414" stop-color="#B76233"/>
<stop offset="0.633" stop-color="#A2552F"/>
<stop offset="0.855" stop-color="#85422A"/>
<stop offset="1" stop-color="#6D3326"/>
</linearGradient>
<linearGradient id="paint15_linear_148_204" x1="33.4837" y1="36.5036" x2="33.4837" y2="39.5931" gradientUnits="userSpaceOnUse">
<stop stop-color="#F89580" stop-opacity="0"/>
<stop offset="0.262" stop-color="#F1907B" stop-opacity="0.262"/>
<stop offset="0.636" stop-color="#DE826C" stop-opacity="0.638"/>
<stop offset="0.997" stop-color="#C5715A"/>
</linearGradient>
<linearGradient id="paint16_linear_148_204" x1="34.0168" y1="36.8727" x2="35.8398" y2="37.3161" gradientUnits="userSpaceOnUse">
<stop stop-color="#F89580" stop-opacity="0"/>
<stop offset="0.262" stop-color="#F1907B" stop-opacity="0.262"/>
<stop offset="0.636" stop-color="#DE826C" stop-opacity="0.638"/>
<stop offset="0.997" stop-color="#C5715A"/>
</linearGradient>
<linearGradient id="paint17_linear_148_204" x1="32.9504" y1="36.8727" x2="31.1274" y2="37.3161" gradientUnits="userSpaceOnUse">
<stop stop-color="#FFDDCD" stop-opacity="0"/>
<stop offset="0.997" stop-color="#FFDDCD"/>
</linearGradient>
<linearGradient id="paint18_linear_148_204" x1="28.7807" y1="33.3446" x2="30.5443" y2="34.6427" gradientUnits="userSpaceOnUse">
<stop stop-color="#5A5A5A"/>
<stop offset="1" stop-color="#444444"/>
</linearGradient>
<linearGradient id="paint19_linear_148_204" x1="36.4438" y1="33.2685" x2="38.0115" y2="34.4443" gradientUnits="userSpaceOnUse">
<stop stop-color="#5A5A5A"/>
<stop offset="1" stop-color="#444444"/>
</linearGradient>
<linearGradient id="paint20_linear_148_204" x1="31.8066" y1="45.1755" x2="31.5411" y2="41.1731" gradientUnits="userSpaceOnUse">
<stop stop-color="#F89580" stop-opacity="0"/>
<stop offset="0.997" stop-color="#C5715A"/>
</linearGradient>
<linearGradient id="paint21_linear_148_204" x1="33.2431" y1="23.1405" x2="33.6107" y2="31.1046" gradientUnits="userSpaceOnUse">
<stop stop-color="#C86D36"/>
<stop offset="0.201" stop-color="#C46B35"/>
<stop offset="0.414" stop-color="#B76233"/>
<stop offset="0.633" stop-color="#A2552F"/>
<stop offset="0.855" stop-color="#85422A"/>
<stop offset="1" stop-color="#6D3326"/>
</linearGradient>
<linearGradient id="paint22_linear_148_204" x1="27.6052" y1="37.5693" x2="27.6052" y2="42.2627" gradientUnits="userSpaceOnUse">
<stop stop-color="#F5FBFF"/>
<stop offset="1" stop-color="#D8ECFE"/>
</linearGradient>
<linearGradient id="paint23_linear_148_204" x1="32.1317" y1="41.2451" x2="32.1317" y2="42.4495" gradientUnits="userSpaceOnUse">
<stop stop-color="#5A5A5A"/>
<stop offset="1" stop-color="#444444"/>
</linearGradient>
<linearGradient id="paint24_linear_148_204" x1="46.3751" y1="12.9855" x2="52.7464" y2="25.7281" gradientUnits="userSpaceOnUse">
<stop stop-color="#B3DAFE"/>
<stop offset="1" stop-color="#0182FC"/>
</linearGradient>
<linearGradient id="paint25_linear_148_204" x1="56.0738" y1="20.2139" x2="59.9546" y2="20.2139" gradientUnits="userSpaceOnUse">
<stop stop-color="#314DC9" stop-opacity="0"/>
<stop offset="0.276" stop-color="#304BC4" stop-opacity="0.276"/>
<stop offset="0.563" stop-color="#2B45B8" stop-opacity="0.563"/>
<stop offset="0.854" stop-color="#243BA3" stop-opacity="0.854"/>
<stop offset="1" stop-color="#1F3596"/>
</linearGradient>
<linearGradient id="paint26_linear_148_204" x1="49.9211" y1="23.6969" x2="49.9211" y2="28.7739" gradientUnits="userSpaceOnUse">
<stop stop-color="#314DC9" stop-opacity="0"/>
<stop offset="0.276" stop-color="#304BC4" stop-opacity="0.276"/>
<stop offset="0.563" stop-color="#2B45B8" stop-opacity="0.563"/>
<stop offset="0.854" stop-color="#243BA3" stop-opacity="0.854"/>
<stop offset="1" stop-color="#1F3596"/>
</linearGradient>
<linearGradient id="paint27_linear_148_204" x1="57.522" y1="23.6725" x2="49.6574" y2="19.5579" gradientUnits="userSpaceOnUse">
<stop stop-color="#314DC9" stop-opacity="0"/>
<stop offset="0.276" stop-color="#304BC4" stop-opacity="0.276"/>
<stop offset="0.563" stop-color="#2B45B8" stop-opacity="0.563"/>
<stop offset="0.854" stop-color="#243BA3" stop-opacity="0.854"/>
<stop offset="1" stop-color="#1F3596"/>
</linearGradient>
<linearGradient id="paint28_linear_148_204" x1="53.2445" y1="28.7086" x2="48.7378" y2="24.2019" gradientUnits="userSpaceOnUse">
<stop stop-color="#314DC9" stop-opacity="0"/>
<stop offset="0.276" stop-color="#304BC4" stop-opacity="0.276"/>
<stop offset="0.563" stop-color="#2B45B8" stop-opacity="0.563"/>
<stop offset="0.854" stop-color="#243BA3" stop-opacity="0.854"/>
<stop offset="1" stop-color="#1F3596"/>
</linearGradient>
<linearGradient id="paint29_linear_148_204" x1="50.9166" y1="19.4066" x2="48.6295" y2="15.2816" gradientUnits="userSpaceOnUse">
<stop stop-color="#314DC9" stop-opacity="0"/>
<stop offset="0.276" stop-color="#304BC4" stop-opacity="0.276"/>
<stop offset="0.563" stop-color="#2B45B8" stop-opacity="0.563"/>
<stop offset="0.854" stop-color="#243BA3" stop-opacity="0.854"/>
<stop offset="1" stop-color="#1F3596"/>
</linearGradient>
<linearGradient id="paint30_linear_148_204" x1="48.4265" y1="17.3054" x2="52.4086" y2="19.7559" gradientUnits="userSpaceOnUse">
<stop stop-color="#F5FBFF"/>
<stop offset="1" stop-color="#D8ECFE"/>
</linearGradient>
<linearGradient id="paint31_linear_148_204" x1="48.9919" y1="24.4561" x2="50.3788" y2="25.843" gradientUnits="userSpaceOnUse">
<stop stop-color="#F5FBFF"/>
<stop offset="1" stop-color="#D8ECFE"/>
</linearGradient>
</defs>
</svg>
