<svg width="76" height="68" viewBox="0 0 76 68" fill="none" xmlns="http://www.w3.org/2000/svg">
<path fill-rule="evenodd" clip-rule="evenodd" d="M61.5304 67L24.9906 47.0278L25.4602 46.1493L62 66.1215L61.5304 67Z" fill="#FCC055"/>
<path fill-rule="evenodd" clip-rule="evenodd" d="M61.5304 67L24.9906 47.0278L25.4602 46.1493L62 66.1215L61.5304 67Z" fill="black" fill-opacity="0.2"/>
<path fill-rule="evenodd" clip-rule="evenodd" d="M24.8589 46.111L39.5689 0L40.5088 0.306576L25.7161 46.677C25.6412 46.9117 25.4318 47.076 25.1883 47.0911L1.06035 48.5849L1 47.5881L24.8589 46.111Z" fill="#FCC055"/>
<path fill-rule="evenodd" clip-rule="evenodd" d="M24.8589 46.111L39.5689 0L40.5088 0.306576L25.7161 46.677C25.6412 46.9117 25.4318 47.076 25.1883 47.0911L1.06035 48.5849L1 47.5881L24.8589 46.111Z" fill="black" fill-opacity="0.2"/>
<path d="M25.2257 24.9294C23.1339 24.9294 21.5566 22.4227 21.5566 19.0986C21.5566 15.7744 23.1339 13.2677 25.2257 13.2677C27.3174 13.2677 28.8947 15.7744 28.8947 19.0986C28.8947 22.4227 27.3174 24.9294 25.2257 24.9294ZM25.2257 22.4523C25.5224 22.4523 26.4175 21.2628 26.4175 19.0986C26.4175 16.9342 25.5223 15.7448 25.2257 15.7448C24.9289 15.7448 24.0338 16.9342 24.0338 19.0986C24.0338 21.2629 24.929 22.4523 25.2257 22.4523Z" fill="url(#paint0_linear_172_4870)"/>
<path d="M22.1872 15.7448H25.2256C24.9288 15.7448 24.0337 16.9342 24.0337 19.0985C24.0337 19.766 24.119 20.3404 24.2455 20.8162H21.7066C21.6091 20.2771 21.5566 19.7016 21.5566 19.0985C21.5566 17.83 21.7869 16.6813 22.1872 15.7448Z" fill="url(#paint1_linear_172_4870)"/>
<path d="M51.0567 24.9294C48.965 24.9294 47.3877 22.4227 47.3877 19.0986C47.3877 15.7744 48.965 13.2677 51.0567 13.2677C53.1484 13.2677 54.7257 15.7744 54.7257 19.0986C54.7257 22.4227 53.1484 24.9294 51.0567 24.9294ZM51.0567 22.4523C51.3535 22.4523 52.2486 21.2628 52.2486 19.0986C52.2486 16.9342 51.3534 15.7448 51.0567 15.7448C50.7601 15.7448 49.8648 16.9342 49.8648 19.0986C49.8648 21.2629 50.7601 22.4523 51.0567 22.4523Z" fill="url(#paint2_linear_172_4870)"/>
<path d="M48.0182 15.7448H51.0566C50.7599 15.7448 49.8648 16.9342 49.8648 19.0985C49.8648 19.766 49.9501 20.3404 50.0765 20.8162H47.5377C47.4402 20.2771 47.3877 19.7016 47.3877 19.0985C47.3877 17.83 47.6179 16.6813 48.0182 15.7448Z" fill="url(#paint3_linear_172_4870)"/>
<path d="M33.836 24.9294C31.7443 24.9294 30.167 22.4227 30.167 19.0986C30.167 15.7744 31.7443 13.2677 33.836 13.2677C35.9277 13.2677 37.505 15.7744 37.505 19.0986C37.505 22.4227 35.9277 24.9294 33.836 24.9294ZM33.836 22.4523C34.1328 22.4523 35.0279 21.2628 35.0279 19.0986C35.0279 16.9342 34.1327 15.7448 33.836 15.7448C33.5393 15.7448 32.6441 16.9342 32.6441 19.0986C32.6441 21.2629 33.5393 22.4523 33.836 22.4523Z" fill="url(#paint4_linear_172_4870)"/>
<path d="M30.7975 15.7448H33.8359C33.5392 15.7448 32.6441 16.9342 32.6441 19.0985C32.6441 19.766 32.7294 20.3404 32.8558 20.8162H30.317C30.2195 20.2771 30.167 19.7016 30.167 19.0985C30.1669 17.83 30.3972 16.6813 30.7975 15.7448Z" fill="url(#paint5_linear_172_4870)"/>
<path d="M42.4464 24.9294C40.3546 24.9294 38.7773 22.4227 38.7773 19.0986C38.7773 15.7744 40.3546 13.2677 42.4464 13.2677C44.5381 13.2677 46.1154 15.7744 46.1154 19.0986C46.1154 22.4227 44.538 24.9294 42.4464 24.9294ZM42.4464 22.4523C42.7431 22.4523 43.6382 21.2628 43.6382 19.0986C43.6382 16.9342 42.743 15.7448 42.4464 15.7448C42.1497 15.7448 41.2545 16.9342 41.2545 19.0986C41.2544 21.2629 42.1496 22.4523 42.4464 22.4523Z" fill="url(#paint6_linear_172_4870)"/>
<path d="M39.4079 15.7448H42.4463C42.1495 15.7448 41.2544 16.9342 41.2544 19.0985C41.2544 19.766 41.3397 20.3404 41.4662 20.8162H38.9273C38.8299 20.2771 38.7773 19.7016 38.7773 19.0985C38.7773 17.83 39.0076 16.6813 39.4079 15.7448Z" fill="url(#paint7_linear_172_4870)"/>
<path d="M60 50.6265V22.1797C60 19.912 58.1617 18.0737 55.8941 18.0737H20.1059C17.8383 18.0737 16 19.912 16 22.1797V50.6265C16 52.8941 17.8383 54.7324 20.1059 54.7324H55.8941C58.1617 54.7324 60 52.8941 60 50.6265Z" fill="url(#paint8_linear_172_4870)"/>
<path d="M16 50.6265V30.25H60V50.6265C60 52.8941 58.1617 54.7324 55.8941 54.7324H20.1059C17.8383 54.7324 16 52.8941 16 50.6265Z" fill="url(#paint9_linear_172_4870)"/>
<path d="M38.5425 18.0737H55.894C58.1617 18.0737 60 19.912 60 22.1797V50.6265C60 52.8941 58.1617 54.7324 55.894 54.7324H38.5425V18.0737Z" fill="url(#paint10_linear_172_4870)"/>
<path d="M57.1656 20.2677L19.2334 51.5335L22.4323 54.7323H55.8939C58.1615 54.7323 59.9998 52.894 59.9998 50.6264V23.102L57.1656 20.2677Z" fill="url(#paint11_linear_172_4870)"/>
<path d="M58.1021 48.6642V22.6715C58.1021 20.5994 56.4224 18.9198 54.3504 18.9198H21.6496C19.5776 18.9198 17.8979 20.5994 17.8979 22.6715V48.6642C17.8979 50.7363 19.5776 52.4159 21.6496 52.4159H54.3503C56.4224 52.4159 58.1021 50.7363 58.1021 48.6642Z" fill="url(#paint12_linear_172_4870)"/>
<path d="M54.3503 52.4159H51.3749L23.8115 24.8525L24.7849 23.8791C26.1002 22.5638 26.8392 20.7799 26.8392 18.9198H54.3503C56.4223 18.9198 58.102 20.5994 58.102 22.6715V48.6642C58.102 50.7363 56.4222 52.4159 54.3503 52.4159Z" fill="url(#paint13_linear_172_4870)"/>
<path d="M58.1023 22.6715V48.6642C58.1023 49.2106 57.9846 49.7292 57.7745 50.1974L32.4297 24.8525L33.4031 23.8791C34.7184 22.5638 35.4573 20.7799 35.4574 18.9198H54.3506C56.4226 18.9198 58.1023 20.5995 58.1023 22.6715Z" fill="url(#paint14_linear_172_4870)"/>
<path d="M17.8979 48.6643V30.0457H58.102V48.6643C58.102 50.7363 56.4224 52.416 54.3503 52.416H21.6496C19.5777 52.416 17.8979 50.7363 17.8979 48.6643Z" fill="url(#paint15_linear_172_4870)"/>
<path d="M38.4956 18.9198H54.3502C56.4223 18.9198 58.1019 20.5994 58.1019 22.6715V48.6642C58.1019 50.7363 56.4223 52.4159 54.3502 52.4159H38.4956V18.9198Z" fill="url(#paint16_linear_172_4870)"/>
<path d="M58.1022 22.6715V41.9073L41.0474 24.8525L42.0208 23.8791C42.672 23.2278 43.1886 22.4547 43.5411 21.6037C43.8936 20.7528 44.075 19.8408 44.0749 18.9198H54.3505C56.4224 18.9198 58.1022 20.5995 58.1022 22.6715Z" fill="url(#paint17_linear_172_4870)"/>
<path d="M58.102 22.6715V33.2895L49.665 24.8525L50.6385 23.8791C51.2897 23.2278 51.8063 22.4547 52.1588 21.6037C52.5112 20.7528 52.6926 19.8408 52.6926 18.9198H54.3504C56.4223 18.9198 58.102 20.5995 58.102 22.6715Z" fill="url(#paint18_linear_172_4870)"/>
<path d="M25.2254 25.4192C26.3566 25.4192 27.2738 24.5021 27.2738 23.3708C27.2738 22.2395 26.3566 21.3224 25.2254 21.3224C24.9649 21.3221 24.7068 21.3716 24.465 21.4681L23.3267 24.1409C23.6311 24.8905 24.3665 25.4192 25.2254 25.4192Z" fill="url(#paint19_linear_172_4870)"/>
<path d="M25.2253 24.9293C25.9308 24.9293 26.5778 24.6439 27.1257 24.1376C28.2018 23.1448 28.8943 21.3008 28.8943 19.0983C28.8943 19.0388 28.8934 18.9793 28.8923 18.9199C28.886 18.5541 28.8596 18.189 28.8131 17.826H26.3043C26.3658 18.154 26.4054 18.5197 26.4143 18.9199C26.4163 18.9784 26.4173 19.0379 26.4173 19.0983C26.4173 20.1079 26.223 20.9046 25.9853 21.4683C25.7127 22.1134 25.3838 22.4522 25.2253 22.4522C25.0668 22.4522 24.7378 22.1134 24.4654 21.4683C23.7103 21.7706 23.1772 22.5078 23.1772 23.3707C23.1772 23.6432 23.2308 23.9028 23.3278 24.1407C23.8748 24.6449 24.5208 24.9293 25.2253 24.9293Z" fill="url(#paint20_linear_172_4870)"/>
<path d="M25.2253 24.9293C25.9308 24.9293 26.5778 24.6439 27.1257 24.1376C28.2018 23.1448 28.8943 21.3008 28.8943 19.0983C28.8943 19.0388 28.8934 18.9793 28.8923 18.9199C28.886 18.5541 28.8596 18.189 28.8131 17.826H26.3043C26.3658 18.154 26.4054 18.5197 26.4143 18.9199C26.4163 18.9784 26.4173 19.0379 26.4173 19.0983C26.4173 20.1079 26.223 20.9046 25.9853 21.4683C25.7127 22.1134 25.3838 22.4522 25.2253 22.4522C25.0668 22.4522 24.7378 22.1134 24.4654 21.4683C23.7103 21.7706 23.1772 22.5078 23.1772 23.3707C23.1772 23.6432 23.2308 23.9028 23.3278 24.1407C23.8748 24.6449 24.5208 24.9293 25.2253 24.9293Z" fill="url(#paint21_linear_172_4870)"/>
<path d="M25.2253 24.9293C25.9308 24.9293 26.5778 24.6439 27.1257 24.1376C28.2018 23.1448 28.8943 21.3008 28.8943 19.0983C28.8943 19.0388 28.8934 18.9793 28.8923 18.9199C28.886 18.5541 28.8596 18.189 28.8131 17.826H26.3043C26.3658 18.154 26.4054 18.5197 26.4143 18.9199C26.4163 18.9784 26.4173 19.0379 26.4173 19.0983C26.4173 20.1079 26.223 20.9046 25.9853 21.4683C25.7127 22.1134 25.3838 22.4522 25.2253 22.4522C25.0668 22.4522 24.7378 22.1134 24.4654 21.4683C23.7103 21.7706 23.1772 22.5078 23.1772 23.3707C23.1772 23.6432 23.2308 23.9028 23.3278 24.1407C23.8748 24.6449 24.5208 24.9293 25.2253 24.9293Z" fill="url(#paint22_linear_172_4870)"/>
<path d="M25.3003 22.4323C25.6492 22.2714 26.4173 21.1038 26.4173 19.0985C26.4173 17.0933 25.6492 15.9256 25.3003 15.7648V13.2705C27.3545 13.3298 28.8945 15.8144 28.8945 19.0985C28.8945 22.3826 27.3545 24.8673 25.3003 24.9266V22.4323Z" fill="url(#paint23_linear_172_4870)"/>
<path d="M33.8357 25.4192C34.967 25.4192 35.8841 24.5021 35.8841 23.3708C35.8841 22.2395 34.967 21.3224 33.8357 21.3224C33.5753 21.3221 33.3172 21.3716 33.0753 21.4681L31.937 24.1409C32.2414 24.8905 32.9769 25.4192 33.8357 25.4192Z" fill="url(#paint24_linear_172_4870)"/>
<path d="M33.8357 24.9293C34.5411 24.9293 35.1881 24.6439 35.7361 24.1376C36.8121 23.1448 37.5047 21.3008 37.5047 19.0983C37.5047 19.0388 37.5037 18.9793 37.5027 18.9199C37.4964 18.5541 37.4699 18.189 37.4235 17.826H34.9147C34.9761 18.154 35.0158 18.5197 35.0247 18.9199C35.0267 18.9784 35.0276 19.0379 35.0276 19.0983C35.0276 20.1079 34.8334 20.9046 34.5956 21.4683C34.3231 22.1134 33.9941 22.4522 33.8357 22.4522C33.6771 22.4522 33.3481 22.1134 33.0757 21.4683C32.3207 21.7706 31.7876 22.5078 31.7876 23.3707C31.7876 23.6432 31.8411 23.9028 31.9382 24.1407C32.4852 24.6449 33.1312 24.9293 33.8357 24.9293Z" fill="url(#paint25_linear_172_4870)"/>
<path d="M33.8357 24.9293C34.5411 24.9293 35.1881 24.6439 35.7361 24.1376C36.8121 23.1448 37.5047 21.3008 37.5047 19.0983C37.5047 19.0388 37.5037 18.9793 37.5027 18.9199C37.4964 18.5541 37.4699 18.189 37.4235 17.826H34.9147C34.9761 18.154 35.0158 18.5197 35.0247 18.9199C35.0267 18.9784 35.0276 19.0379 35.0276 19.0983C35.0276 20.1079 34.8334 20.9046 34.5956 21.4683C34.3231 22.1134 33.9941 22.4522 33.8357 22.4522C33.6771 22.4522 33.3481 22.1134 33.0757 21.4683C32.3207 21.7706 31.7876 22.5078 31.7876 23.3707C31.7876 23.6432 31.8411 23.9028 31.9382 24.1407C32.4852 24.6449 33.1312 24.9293 33.8357 24.9293Z" fill="url(#paint26_linear_172_4870)"/>
<path d="M33.8357 24.9293C34.5411 24.9293 35.1881 24.6439 35.7361 24.1376C36.8121 23.1448 37.5047 21.3008 37.5047 19.0983C37.5047 19.0388 37.5037 18.9793 37.5027 18.9199C37.4964 18.5541 37.4699 18.189 37.4235 17.826H34.9147C34.9761 18.154 35.0158 18.5197 35.0247 18.9199C35.0267 18.9784 35.0276 19.0379 35.0276 19.0983C35.0276 20.1079 34.8334 20.9046 34.5956 21.4683C34.3231 22.1134 33.9941 22.4522 33.8357 22.4522C33.6771 22.4522 33.3481 22.1134 33.0757 21.4683C32.3207 21.7706 31.7876 22.5078 31.7876 23.3707C31.7876 23.6432 31.8411 23.9028 31.9382 24.1407C32.4852 24.6449 33.1312 24.9293 33.8357 24.9293Z" fill="url(#paint27_linear_172_4870)"/>
<path d="M33.9106 22.4323C34.2596 22.2714 35.0277 21.1038 35.0277 19.0985C35.0277 17.0933 34.2596 15.9256 33.9106 15.7648V13.2705C35.9648 13.3298 37.5048 15.8144 37.5048 19.0985C37.5048 22.3826 35.9648 24.8673 33.9106 24.9266V22.4323Z" fill="url(#paint28_linear_172_4870)"/>
<path d="M42.4466 25.4192C43.5778 25.4192 44.495 24.5021 44.495 23.3708C44.495 22.2395 43.5778 21.3224 42.4466 21.3224C42.1861 21.3221 41.928 21.3716 41.6862 21.4681L40.5479 24.1409C40.8522 24.8905 41.5876 25.4192 42.4466 25.4192Z" fill="url(#paint29_linear_172_4870)"/>
<path d="M42.446 24.9293C43.1515 24.9293 43.7985 24.6439 44.3464 24.1376C45.4225 23.1448 46.115 21.3008 46.115 19.0983C46.115 19.0388 46.1141 18.9793 46.113 18.9199C46.1067 18.5541 46.0803 18.189 46.0338 17.826H43.525C43.5865 18.154 43.6261 18.5197 43.635 18.9199C43.637 18.9784 43.638 19.0379 43.638 19.0983C43.638 20.1079 43.4437 20.9046 43.206 21.4683C42.9334 22.1134 42.6045 22.4522 42.446 22.4522C42.2875 22.4522 41.9585 22.1134 41.6861 21.4683C40.931 21.7706 40.3979 22.5078 40.3979 23.3707C40.3979 23.6432 40.4514 23.9028 40.5485 24.1407C41.0955 24.6449 41.7415 24.9293 42.446 24.9293Z" fill="url(#paint30_linear_172_4870)"/>
<path d="M42.446 24.9293C43.1515 24.9293 43.7985 24.6439 44.3464 24.1376C45.4225 23.1448 46.115 21.3008 46.115 19.0983C46.115 19.0388 46.1141 18.9793 46.113 18.9199C46.1067 18.5541 46.0803 18.189 46.0338 17.826H43.525C43.5865 18.154 43.6261 18.5197 43.635 18.9199C43.637 18.9784 43.638 19.0379 43.638 19.0983C43.638 20.1079 43.4437 20.9046 43.206 21.4683C42.9334 22.1134 42.6045 22.4522 42.446 22.4522C42.2875 22.4522 41.9585 22.1134 41.6861 21.4683C40.931 21.7706 40.3979 22.5078 40.3979 23.3707C40.3979 23.6432 40.4514 23.9028 40.5485 24.1407C41.0955 24.6449 41.7415 24.9293 42.446 24.9293Z" fill="url(#paint31_linear_172_4870)"/>
<path d="M42.446 24.9293C43.1515 24.9293 43.7985 24.6439 44.3464 24.1376C45.4225 23.1448 46.115 21.3008 46.115 19.0983C46.115 19.0388 46.1141 18.9793 46.113 18.9199C46.1067 18.5541 46.0803 18.189 46.0338 17.826H43.525C43.5865 18.154 43.6261 18.5197 43.635 18.9199C43.637 18.9784 43.638 19.0379 43.638 19.0983C43.638 20.1079 43.4437 20.9046 43.206 21.4683C42.9334 22.1134 42.6045 22.4522 42.446 22.4522C42.2875 22.4522 41.9585 22.1134 41.6861 21.4683C40.931 21.7706 40.3979 22.5078 40.3979 23.3707C40.3979 23.6432 40.4514 23.9028 40.5485 24.1407C41.0955 24.6449 41.7415 24.9293 42.446 24.9293Z" fill="url(#paint32_linear_172_4870)"/>
<path d="M42.521 22.4323C42.8699 22.2714 43.6381 21.1038 43.6381 19.0985C43.6381 17.0933 42.87 15.9256 42.521 15.7648V13.2705C44.5752 13.3298 46.1152 15.8144 46.1152 19.0985C46.1152 22.3826 44.5752 24.8673 42.521 24.9266V22.4323Z" fill="url(#paint33_linear_172_4870)"/>
<path d="M51.0564 25.4192C52.1877 25.4192 53.1048 24.5021 53.1048 23.3708C53.1048 22.2395 52.1877 21.3224 51.0564 21.3224C50.796 21.3221 50.5379 21.3716 50.296 21.4681L49.1577 24.1409C49.4621 24.8905 50.1976 25.4192 51.0564 25.4192Z" fill="url(#paint34_linear_172_4870)"/>
<path d="M51.0564 24.9293C51.7618 24.9293 52.4088 24.6439 52.9568 24.1376C54.0328 23.1448 54.7254 21.3008 54.7254 19.0983C54.7254 19.0388 54.7244 18.9793 54.7234 18.9199C54.7171 18.5541 54.6906 18.189 54.6442 17.826H52.1354C52.1968 18.154 52.2365 18.5197 52.2454 18.9199C52.2474 18.9784 52.2483 19.0379 52.2483 19.0983C52.2483 20.1079 52.0541 20.9046 51.8163 21.4683C51.5438 22.1134 51.2148 22.4522 51.0564 22.4522C50.8978 22.4522 50.5688 22.1134 50.2964 21.4683C49.5414 21.7706 49.0083 22.5078 49.0083 23.3707C49.0083 23.6432 49.0618 23.9028 49.1589 24.1407C49.7059 24.6449 50.3518 24.9293 51.0564 24.9293Z" fill="url(#paint35_linear_172_4870)"/>
<path d="M51.0564 24.9293C51.7618 24.9293 52.4088 24.6439 52.9568 24.1376C54.0328 23.1448 54.7254 21.3008 54.7254 19.0983C54.7254 19.0388 54.7244 18.9793 54.7234 18.9199C54.7171 18.5541 54.6906 18.189 54.6442 17.826H52.1354C52.1968 18.154 52.2365 18.5197 52.2454 18.9199C52.2474 18.9784 52.2483 19.0379 52.2483 19.0983C52.2483 20.1079 52.0541 20.9046 51.8163 21.4683C51.5438 22.1134 51.2148 22.4522 51.0564 22.4522C50.8978 22.4522 50.5688 22.1134 50.2964 21.4683C49.5414 21.7706 49.0083 22.5078 49.0083 23.3707C49.0083 23.6432 49.0618 23.9028 49.1589 24.1407C49.7059 24.6449 50.3518 24.9293 51.0564 24.9293Z" fill="url(#paint36_linear_172_4870)"/>
<path d="M51.0564 24.9293C51.7618 24.9293 52.4088 24.6439 52.9568 24.1376C54.0328 23.1448 54.7254 21.3008 54.7254 19.0983C54.7254 19.0388 54.7244 18.9793 54.7234 18.9199C54.7171 18.5541 54.6906 18.189 54.6442 17.826H52.1354C52.1968 18.154 52.2365 18.5197 52.2454 18.9199C52.2474 18.9784 52.2483 19.0379 52.2483 19.0983C52.2483 20.1079 52.0541 20.9046 51.8163 21.4683C51.5438 22.1134 51.2148 22.4522 51.0564 22.4522C50.8978 22.4522 50.5688 22.1134 50.2964 21.4683C49.5414 21.7706 49.0083 22.5078 49.0083 23.3707C49.0083 23.6432 49.0618 23.9028 49.1589 24.1407C49.7059 24.6449 50.3518 24.9293 51.0564 24.9293Z" fill="url(#paint37_linear_172_4870)"/>
<path d="M51.1313 22.4323C51.4803 22.2714 52.2484 21.1038 52.2484 19.0985C52.2484 17.0933 51.4803 15.9256 51.1313 15.7648V13.2705C53.1855 13.3298 54.7255 15.8144 54.7255 19.0985C54.7255 22.3826 53.1855 24.8673 51.1313 24.9266V22.4323Z" fill="url(#paint38_linear_172_4870)"/>
<path d="M26.1965 33.9195H21.7928C20.9032 33.9195 20.1821 33.1984 20.1821 32.3089V30.6456C20.1821 29.756 20.9032 29.0349 21.7928 29.0349H26.1965C27.086 29.0349 27.8071 29.756 27.8071 30.6456V32.3089C27.8071 33.1984 27.086 33.9195 26.1965 33.9195Z" fill="url(#paint39_linear_172_4870)"/>
<path d="M26.1962 29.0349H22.1846V33.9194H26.1962C27.0858 33.9194 27.8069 33.1983 27.8069 32.3088V30.6455C27.8069 29.756 27.0858 29.0349 26.1962 29.0349Z" fill="url(#paint40_linear_172_4870)"/>
<path d="M20.1821 30.8519V32.3088C20.1821 33.1984 20.9032 33.9195 21.7928 33.9195H26.1965C27.086 33.9195 27.8071 33.1984 27.8071 32.3088V30.8519H20.1821Z" fill="url(#paint41_linear_172_4870)"/>
<path d="M35.5334 33.9195H31.1297C30.2401 33.9195 29.519 33.1984 29.519 32.3089V30.6456C29.519 29.756 30.2401 29.0349 31.1297 29.0349H35.5334C36.4229 29.0349 37.144 29.756 37.144 30.6456V32.3089C37.144 33.1984 36.4229 33.9195 35.5334 33.9195Z" fill="url(#paint42_linear_172_4870)"/>
<path d="M35.5331 29.0349H31.5215V33.9194H35.5331C36.4227 33.9194 37.1438 33.1983 37.1438 32.3088V30.6455C37.1438 29.756 36.4227 29.0349 35.5331 29.0349Z" fill="url(#paint43_linear_172_4870)"/>
<path d="M29.519 30.8519V32.3088C29.519 33.1984 30.2401 33.9195 31.1297 33.9195H35.5334C36.4229 33.9195 37.144 33.1984 37.144 32.3088V30.8519H29.519Z" fill="url(#paint44_linear_172_4870)"/>
<path d="M44.8703 33.9195H40.4666C39.5771 33.9195 38.856 33.1984 38.856 32.3089V30.6456C38.856 29.756 39.5771 29.0349 40.4666 29.0349H44.8703C45.7598 29.0349 46.4809 29.756 46.4809 30.6456V32.3089C46.4809 33.1984 45.7598 33.9195 44.8703 33.9195Z" fill="url(#paint45_linear_172_4870)"/>
<path d="M44.8705 29.0349H40.8589V33.9194H44.8705C45.7601 33.9194 46.4812 33.1983 46.4812 32.3088V30.6455C46.4812 29.756 45.7601 29.0349 44.8705 29.0349Z" fill="url(#paint46_linear_172_4870)"/>
<path d="M38.856 30.8519V32.3088C38.856 33.1984 39.5771 33.9195 40.4666 33.9195H44.8703C45.7598 33.9195 46.4809 33.1984 46.4809 32.3088V30.8519H38.856Z" fill="url(#paint47_linear_172_4870)"/>
<path d="M54.2072 33.9195H49.8035C48.914 33.9195 48.1929 33.1984 48.1929 32.3089V30.6456C48.1929 29.756 48.914 29.0349 49.8035 29.0349H54.2072C55.0967 29.0349 55.8178 29.756 55.8178 30.6456V32.3089C55.8178 33.1984 55.0967 33.9195 54.2072 33.9195Z" fill="url(#paint48_linear_172_4870)"/>
<path d="M54.2074 29.0349H50.1958V33.9194H54.2074C55.097 33.9194 55.8181 33.1983 55.8181 32.3088V30.6455C55.8181 29.756 55.097 29.0349 54.2074 29.0349Z" fill="url(#paint49_linear_172_4870)"/>
<path d="M48.1929 30.8519V32.3088C48.1929 33.1984 48.914 33.9195 49.8035 33.9195H54.2072C55.0967 33.9195 55.8178 33.1984 55.8178 32.3088V30.8519H48.1929Z" fill="url(#paint50_linear_172_4870)"/>
<path d="M26.1965 41.0449H21.7928C20.9032 41.0449 20.1821 40.3238 20.1821 39.4342V37.7709C20.1821 36.8814 20.9032 36.1603 21.7928 36.1603H26.1965C27.086 36.1603 27.8071 36.8814 27.8071 37.7709V39.4342C27.8071 40.3238 27.086 41.0449 26.1965 41.0449Z" fill="url(#paint51_linear_172_4870)"/>
<path d="M26.1962 36.1604H22.1846V41.0449H26.1962C27.0858 41.0449 27.8069 40.3238 27.8069 39.4343V37.771C27.8069 36.8815 27.0858 36.1604 26.1962 36.1604Z" fill="url(#paint52_linear_172_4870)"/>
<path d="M20.1821 37.9775V39.4344C20.1821 40.324 20.9032 41.0451 21.7928 41.0451H26.1965C27.086 41.0451 27.8071 40.324 27.8071 39.4344V37.9775H20.1821Z" fill="url(#paint53_linear_172_4870)"/>
<path d="M35.5334 41.0449H31.1297C30.2401 41.0449 29.519 40.3238 29.519 39.4342V37.7709C29.519 36.8814 30.2401 36.1603 31.1297 36.1603H35.5334C36.4229 36.1603 37.144 36.8814 37.144 37.7709V39.4342C37.144 40.3238 36.4229 41.0449 35.5334 41.0449Z" fill="url(#paint54_linear_172_4870)"/>
<path d="M35.5331 36.1604H31.5215V41.0449H35.5331C36.4227 41.0449 37.1438 40.3238 37.1438 39.4343V37.771C37.1438 36.8815 36.4227 36.1604 35.5331 36.1604Z" fill="url(#paint55_linear_172_4870)"/>
<path d="M29.519 37.9775V39.4344C29.519 40.324 30.2401 41.0451 31.1297 41.0451H35.5334C36.4229 41.0451 37.144 40.324 37.144 39.4344V37.9775H29.519Z" fill="url(#paint56_linear_172_4870)"/>
<path d="M44.8703 41.0449H40.4666C39.5771 41.0449 38.856 40.3238 38.856 39.4342V37.7709C38.856 36.8814 39.5771 36.1603 40.4666 36.1603H44.8703C45.7598 36.1603 46.4809 36.8814 46.4809 37.7709V39.4342C46.4809 40.3238 45.7598 41.0449 44.8703 41.0449Z" fill="url(#paint57_linear_172_4870)"/>
<path d="M44.8705 36.1604H40.8589V41.0449H44.8705C45.7601 41.0449 46.4812 40.3238 46.4812 39.4343V37.771C46.4812 36.8815 45.7601 36.1604 44.8705 36.1604Z" fill="url(#paint58_linear_172_4870)"/>
<path d="M38.856 37.9775V39.4344C38.856 40.324 39.5771 41.0451 40.4666 41.0451H44.8703C45.7598 41.0451 46.4809 40.324 46.4809 39.4344V37.9775H38.856Z" fill="url(#paint59_linear_172_4870)"/>
<path d="M54.2072 41.0449H49.8035C48.914 41.0449 48.1929 40.3238 48.1929 39.4342V37.7709C48.1929 36.8814 48.914 36.1603 49.8035 36.1603H54.2072C55.0967 36.1603 55.8178 36.8814 55.8178 37.7709V39.4342C55.8178 40.3238 55.0967 41.0449 54.2072 41.0449Z" fill="url(#paint60_linear_172_4870)"/>
<path d="M54.2074 36.1604H50.1958V41.0449H54.2074C55.097 41.0449 55.8181 40.3238 55.8181 39.4343V37.771C55.8181 36.8815 55.097 36.1604 54.2074 36.1604Z" fill="url(#paint61_linear_172_4870)"/>
<path d="M48.1929 37.9775V39.4344C48.1929 40.324 48.914 41.0451 49.8035 41.0451H54.2072C55.0967 41.0451 55.8178 40.324 55.8178 39.4344V37.9775H48.1929Z" fill="url(#paint62_linear_172_4870)"/>
<path d="M26.1965 48.1705H21.7928C20.9032 48.1705 20.1821 47.4494 20.1821 46.5598V44.8965C20.1821 44.007 20.9032 43.2859 21.7928 43.2859H26.1965C27.086 43.2859 27.8071 44.007 27.8071 44.8965V46.5598C27.8071 47.4494 27.086 48.1705 26.1965 48.1705Z" fill="url(#paint63_linear_172_4870)"/>
<path d="M26.1962 43.2859H22.1846V48.1704H26.1962C27.0858 48.1704 27.8069 47.4493 27.8069 46.5598V44.8964C27.8069 44.007 27.0858 43.2859 26.1962 43.2859Z" fill="url(#paint64_linear_172_4870)"/>
<path d="M20.1821 45.1029V46.5598C20.1821 47.4493 20.9032 48.1704 21.7928 48.1704H26.1965C27.086 48.1704 27.8071 47.4493 27.8071 46.5598V45.1029H20.1821Z" fill="url(#paint65_linear_172_4870)"/>
<path d="M35.5334 48.1705H31.1297C30.2401 48.1705 29.519 47.4494 29.519 46.5598V44.8965C29.519 44.007 30.2401 43.2859 31.1297 43.2859H35.5334C36.4229 43.2859 37.144 44.007 37.144 44.8965V46.5598C37.144 47.4494 36.4229 48.1705 35.5334 48.1705Z" fill="url(#paint66_linear_172_4870)"/>
<path d="M35.5331 43.2859H31.5215V48.1704H35.5331C36.4227 48.1704 37.1438 47.4493 37.1438 46.5598V44.8964C37.1438 44.007 36.4227 43.2859 35.5331 43.2859Z" fill="url(#paint67_linear_172_4870)"/>
<path d="M29.519 45.1029V46.5598C29.519 47.4493 30.2401 48.1704 31.1297 48.1704H35.5334C36.4229 48.1704 37.144 47.4493 37.144 46.5598V45.1029H29.519Z" fill="url(#paint68_linear_172_4870)"/>
<path d="M44.8703 48.1705H40.4666C39.5771 48.1705 38.856 47.4494 38.856 46.5598V44.8965C38.856 44.007 39.5771 43.2859 40.4666 43.2859H44.8703C45.7598 43.2859 46.4809 44.007 46.4809 44.8965V46.5598C46.4809 47.4494 45.7598 48.1705 44.8703 48.1705Z" fill="url(#paint69_linear_172_4870)"/>
<path d="M44.8705 43.2859H40.8589V48.1704H44.8705C45.7601 48.1704 46.4812 47.4493 46.4812 46.5598V44.8964C46.4812 44.007 45.7601 43.2859 44.8705 43.2859Z" fill="url(#paint70_linear_172_4870)"/>
<path d="M38.856 45.1029V46.5598C38.856 47.4493 39.5771 48.1704 40.4666 48.1704H44.8703C45.7598 48.1704 46.4809 47.4493 46.4809 46.5598V45.1029H38.856Z" fill="url(#paint71_linear_172_4870)"/>
<path d="M54.2072 48.1705H49.8035C48.914 48.1705 48.1929 47.4494 48.1929 46.5598V44.8965C48.1929 44.007 48.914 43.2859 49.8035 43.2859H54.2072C55.0967 43.2859 55.8178 44.007 55.8178 44.8965V46.5598C55.8178 47.4494 55.0967 48.1705 54.2072 48.1705Z" fill="url(#paint72_linear_172_4870)"/>
<path d="M54.2074 43.2859H50.1958V48.1704H54.2074C55.097 48.1704 55.8181 47.4493 55.8181 46.5598V44.8964C55.8181 44.007 55.097 43.2859 54.2074 43.2859Z" fill="url(#paint73_linear_172_4870)"/>
<path d="M48.1929 45.1029V46.5598C48.1929 47.4493 48.914 48.1704 49.8035 48.1704H54.2072C55.0967 48.1704 55.8178 47.4493 55.8178 46.5598V45.1029H48.1929Z" fill="url(#paint74_linear_172_4870)"/>
<path fill-rule="evenodd" clip-rule="evenodd" d="M0.0296188 48.265L14.5115 3.84512L15.4628 4.15493L1.08539 48.2544L36.6183 66.9976L61.6374 66.5073L75.0408 21.3578L76 21.6422L62.5134 67.0721C62.439 67.3226 62.211 67.4962 61.9496 67.5014L36.5346 67.9994C36.433 68.0014 36.3325 67.9776 36.2426 67.9302L0.320202 48.9815C0.0617556 48.8452 -0.0609111 48.5427 0.0296188 48.265Z" fill="#FCC055"/>
<path fill-rule="evenodd" clip-rule="evenodd" d="M39.8968 0.00970221C40.0315 -0.00914606 40.1687 0.0182838 40.2857 0.0874963L75.5125 20.9144C76.0116 21.2095 75.8436 21.9702 75.2666 22.0279L50.5879 24.4944C50.465 24.5067 50.3412 24.4807 50.2335 24.4201L14.9994 4.5808C14.499 4.29907 14.642 3.54343 15.2108 3.46385L39.8968 0.00970221ZM39.8969 1.01945L16.5217 4.29018L50.6143 23.4868L73.9529 21.1542L39.8969 1.01945Z" fill="#FCC055"/>
<path fill-rule="evenodd" clip-rule="evenodd" d="M36.0227 67.3468L50.0304 23.8468L50.9829 24.1532L36.9752 67.6532L36.0227 67.3468Z" fill="#FCC055"/>
<defs>
<linearGradient id="paint0_linear_172_4870" x1="22.5671" y1="16.8074" x2="26.9111" y2="20.551" gradientUnits="userSpaceOnUse">
<stop stop-color="#FEF0AE"/>
<stop offset="1" stop-color="#FAC600"/>
</linearGradient>
<linearGradient id="paint1_linear_172_4870" x1="23.3911" y1="16.7195" x2="23.3911" y2="18.8639" gradientUnits="userSpaceOnUse">
<stop stop-color="#FE9738" stop-opacity="0"/>
<stop offset="1" stop-color="#FE9738"/>
</linearGradient>
<linearGradient id="paint2_linear_172_4870" x1="48.3981" y1="16.8074" x2="52.7421" y2="20.551" gradientUnits="userSpaceOnUse">
<stop stop-color="#FEF0AE"/>
<stop offset="1" stop-color="#FAC600"/>
</linearGradient>
<linearGradient id="paint3_linear_172_4870" x1="49.2222" y1="16.7195" x2="49.2222" y2="18.8639" gradientUnits="userSpaceOnUse">
<stop stop-color="#FE9738" stop-opacity="0"/>
<stop offset="1" stop-color="#FE9738"/>
</linearGradient>
<linearGradient id="paint4_linear_172_4870" x1="31.1774" y1="16.8074" x2="35.5213" y2="20.551" gradientUnits="userSpaceOnUse">
<stop stop-color="#FEF0AE"/>
<stop offset="1" stop-color="#FAC600"/>
</linearGradient>
<linearGradient id="paint5_linear_172_4870" x1="32.0014" y1="16.7195" x2="32.0014" y2="18.8639" gradientUnits="userSpaceOnUse">
<stop stop-color="#FE9738" stop-opacity="0"/>
<stop offset="1" stop-color="#FE9738"/>
</linearGradient>
<linearGradient id="paint6_linear_172_4870" x1="39.7877" y1="16.8074" x2="44.1317" y2="20.551" gradientUnits="userSpaceOnUse">
<stop stop-color="#FEF0AE"/>
<stop offset="1" stop-color="#FAC600"/>
</linearGradient>
<linearGradient id="paint7_linear_172_4870" x1="40.6119" y1="16.7195" x2="40.6119" y2="18.8639" gradientUnits="userSpaceOnUse">
<stop stop-color="#FE9738" stop-opacity="0"/>
<stop offset="1" stop-color="#FE9738"/>
</linearGradient>
<linearGradient id="paint8_linear_172_4870" x1="27.5728" y1="25.9759" x2="56.4365" y2="54.8397" gradientUnits="userSpaceOnUse">
<stop stop-color="#B3DAFE"/>
<stop offset="1" stop-color="#0182FC"/>
</linearGradient>
<linearGradient id="paint9_linear_172_4870" x1="38" y1="46.6381" x2="38" y2="55.4845" gradientUnits="userSpaceOnUse">
<stop stop-color="#314DC9" stop-opacity="0"/>
<stop offset="0.276" stop-color="#304BC4" stop-opacity="0.276"/>
<stop offset="0.563" stop-color="#2B45B8" stop-opacity="0.563"/>
<stop offset="0.854" stop-color="#243BA3" stop-opacity="0.854"/>
<stop offset="1" stop-color="#1F3596"/>
</linearGradient>
<linearGradient id="paint10_linear_172_4870" x1="53.2919" y1="36.4031" x2="60.2766" y2="36.4031" gradientUnits="userSpaceOnUse">
<stop stop-color="#314DC9" stop-opacity="0"/>
<stop offset="0.276" stop-color="#304BC4" stop-opacity="0.276"/>
<stop offset="0.563" stop-color="#2B45B8" stop-opacity="0.563"/>
<stop offset="0.854" stop-color="#243BA3" stop-opacity="0.854"/>
<stop offset="1" stop-color="#1F3596"/>
</linearGradient>
<linearGradient id="paint11_linear_172_4870" x1="47.3981" y1="48.6195" x2="37.1061" y2="33.6715" gradientUnits="userSpaceOnUse">
<stop stop-color="#314DC9" stop-opacity="0"/>
<stop offset="0.276" stop-color="#304BC4" stop-opacity="0.276"/>
<stop offset="0.563" stop-color="#2B45B8" stop-opacity="0.563"/>
<stop offset="0.854" stop-color="#243BA3" stop-opacity="0.854"/>
<stop offset="1" stop-color="#1F3596"/>
</linearGradient>
<linearGradient id="paint12_linear_172_4870" x1="28.4723" y1="26.1402" x2="54.846" y2="52.5139" gradientUnits="userSpaceOnUse">
<stop stop-color="#F5FBFF"/>
<stop offset="1" stop-color="#DBD5EF"/>
</linearGradient>
<linearGradient id="paint13_linear_172_4870" x1="35.4206" y1="22.9985" x2="28.0079" y2="17.7912" gradientUnits="userSpaceOnUse">
<stop stop-color="#DBD5EF" stop-opacity="0"/>
<stop offset="0.285" stop-color="#D9D2EE" stop-opacity="0.285"/>
<stop offset="0.474" stop-color="#D4C9E9" stop-opacity="0.474"/>
<stop offset="0.635" stop-color="#CBBAE2" stop-opacity="0.635"/>
<stop offset="0.779" stop-color="#BFA5D7" stop-opacity="0.78"/>
<stop offset="0.913" stop-color="#AF8ACA" stop-opacity="0.913"/>
<stop offset="1" stop-color="#A274BF"/>
</linearGradient>
<linearGradient id="paint14_linear_172_4870" x1="42.1857" y1="24.9693" x2="34.7118" y2="20.007" gradientUnits="userSpaceOnUse">
<stop stop-color="#DBD5EF" stop-opacity="0"/>
<stop offset="0.285" stop-color="#D9D2EE" stop-opacity="0.285"/>
<stop offset="0.474" stop-color="#D4C9E9" stop-opacity="0.474"/>
<stop offset="0.635" stop-color="#CBBAE2" stop-opacity="0.635"/>
<stop offset="0.779" stop-color="#BFA5D7" stop-opacity="0.78"/>
<stop offset="0.913" stop-color="#AF8ACA" stop-opacity="0.913"/>
<stop offset="1" stop-color="#A274BF"/>
</linearGradient>
<linearGradient id="paint15_linear_172_4870" x1="38" y1="45.02" x2="38" y2="53.1032" gradientUnits="userSpaceOnUse">
<stop stop-color="#DBD5EF" stop-opacity="0"/>
<stop offset="0.285" stop-color="#D9D2EE" stop-opacity="0.285"/>
<stop offset="0.474" stop-color="#D4C9E9" stop-opacity="0.474"/>
<stop offset="0.635" stop-color="#CBBAE2" stop-opacity="0.635"/>
<stop offset="0.779" stop-color="#BFA5D7" stop-opacity="0.78"/>
<stop offset="0.913" stop-color="#AF8ACA" stop-opacity="0.913"/>
<stop offset="1" stop-color="#A274BF"/>
</linearGradient>
<linearGradient id="paint16_linear_172_4870" x1="51.9727" y1="35.6679" x2="58.3547" y2="35.6679" gradientUnits="userSpaceOnUse">
<stop stop-color="#DBD5EF" stop-opacity="0"/>
<stop offset="0.285" stop-color="#D9D2EE" stop-opacity="0.285"/>
<stop offset="0.474" stop-color="#D4C9E9" stop-opacity="0.474"/>
<stop offset="0.635" stop-color="#CBBAE2" stop-opacity="0.635"/>
<stop offset="0.779" stop-color="#BFA5D7" stop-opacity="0.78"/>
<stop offset="0.913" stop-color="#AF8ACA" stop-opacity="0.913"/>
<stop offset="1" stop-color="#A274BF"/>
</linearGradient>
<linearGradient id="paint17_linear_172_4870" x1="50.8173" y1="26.5296" x2="41.6892" y2="20.5872" gradientUnits="userSpaceOnUse">
<stop stop-color="#DBD5EF" stop-opacity="0"/>
<stop offset="0.285" stop-color="#D9D2EE" stop-opacity="0.285"/>
<stop offset="0.474" stop-color="#D4C9E9" stop-opacity="0.474"/>
<stop offset="0.635" stop-color="#CBBAE2" stop-opacity="0.635"/>
<stop offset="0.779" stop-color="#BFA5D7" stop-opacity="0.78"/>
<stop offset="0.913" stop-color="#AF8ACA" stop-opacity="0.913"/>
<stop offset="1" stop-color="#A274BF"/>
</linearGradient>
<linearGradient id="paint18_linear_172_4870" x1="57.5899" y1="26.6426" x2="50.8511" y2="21.9866" gradientUnits="userSpaceOnUse">
<stop stop-color="#DBD5EF" stop-opacity="0"/>
<stop offset="0.285" stop-color="#D9D2EE" stop-opacity="0.285"/>
<stop offset="0.474" stop-color="#D4C9E9" stop-opacity="0.474"/>
<stop offset="0.635" stop-color="#CBBAE2" stop-opacity="0.635"/>
<stop offset="0.779" stop-color="#BFA5D7" stop-opacity="0.78"/>
<stop offset="0.913" stop-color="#AF8ACA" stop-opacity="0.913"/>
<stop offset="1" stop-color="#A274BF"/>
</linearGradient>
<linearGradient id="paint19_linear_172_4870" x1="27.3181" y1="27.0365" x2="23.81" y2="20.8914" gradientUnits="userSpaceOnUse">
<stop stop-color="#F5FBFF"/>
<stop offset="1" stop-color="#DBD5EF"/>
</linearGradient>
<linearGradient id="paint20_linear_172_4870" x1="21.9943" y1="17.4719" x2="26.3383" y2="21.2154" gradientUnits="userSpaceOnUse">
<stop stop-color="#FEF0AE"/>
<stop offset="1" stop-color="#FAC600"/>
</linearGradient>
<linearGradient id="paint21_linear_172_4870" x1="26.0358" y1="21.7639" x2="26.0358" y2="24.1618" gradientUnits="userSpaceOnUse">
<stop stop-color="#FE9738" stop-opacity="0"/>
<stop offset="1" stop-color="#FE9738"/>
</linearGradient>
<linearGradient id="paint22_linear_172_4870" x1="24.868" y1="21.1786" x2="23.3846" y2="21.0374" gradientUnits="userSpaceOnUse">
<stop stop-color="#FE9738" stop-opacity="0"/>
<stop offset="1" stop-color="#FE9738"/>
</linearGradient>
<linearGradient id="paint23_linear_172_4870" x1="26.9899" y1="19.0985" x2="28.4097" y2="19.0985" gradientUnits="userSpaceOnUse">
<stop stop-color="#FE9738" stop-opacity="0"/>
<stop offset="1" stop-color="#FE9738"/>
</linearGradient>
<linearGradient id="paint24_linear_172_4870" x1="35.9285" y1="27.0365" x2="32.4203" y2="20.8914" gradientUnits="userSpaceOnUse">
<stop stop-color="#F5FBFF"/>
<stop offset="1" stop-color="#DBD5EF"/>
</linearGradient>
<linearGradient id="paint25_linear_172_4870" x1="30.6048" y1="17.4719" x2="34.9487" y2="21.2154" gradientUnits="userSpaceOnUse">
<stop stop-color="#FEF0AE"/>
<stop offset="1" stop-color="#FAC600"/>
</linearGradient>
<linearGradient id="paint26_linear_172_4870" x1="34.6462" y1="21.7639" x2="34.6462" y2="24.1618" gradientUnits="userSpaceOnUse">
<stop stop-color="#FE9738" stop-opacity="0"/>
<stop offset="1" stop-color="#FE9738"/>
</linearGradient>
<linearGradient id="paint27_linear_172_4870" x1="33.4783" y1="21.1786" x2="31.9951" y2="21.0374" gradientUnits="userSpaceOnUse">
<stop stop-color="#FE9738" stop-opacity="0"/>
<stop offset="1" stop-color="#FE9738"/>
</linearGradient>
<linearGradient id="paint28_linear_172_4870" x1="35.6003" y1="19.0985" x2="37.0199" y2="19.0985" gradientUnits="userSpaceOnUse">
<stop stop-color="#FE9738" stop-opacity="0"/>
<stop offset="1" stop-color="#FE9738"/>
</linearGradient>
<linearGradient id="paint29_linear_172_4870" x1="44.5392" y1="27.0365" x2="41.0311" y2="20.8914" gradientUnits="userSpaceOnUse">
<stop stop-color="#F5FBFF"/>
<stop offset="1" stop-color="#DBD5EF"/>
</linearGradient>
<linearGradient id="paint30_linear_172_4870" x1="39.2151" y1="17.4719" x2="43.5591" y2="21.2154" gradientUnits="userSpaceOnUse">
<stop stop-color="#FEF0AE"/>
<stop offset="1" stop-color="#FAC600"/>
</linearGradient>
<linearGradient id="paint31_linear_172_4870" x1="43.2565" y1="21.7639" x2="43.2565" y2="24.1618" gradientUnits="userSpaceOnUse">
<stop stop-color="#FE9738" stop-opacity="0"/>
<stop offset="1" stop-color="#FE9738"/>
</linearGradient>
<linearGradient id="paint32_linear_172_4870" x1="42.0887" y1="21.1786" x2="40.6054" y2="21.0374" gradientUnits="userSpaceOnUse">
<stop stop-color="#FE9738" stop-opacity="0"/>
<stop offset="1" stop-color="#FE9738"/>
</linearGradient>
<linearGradient id="paint33_linear_172_4870" x1="44.2106" y1="19.0985" x2="45.6303" y2="19.0985" gradientUnits="userSpaceOnUse">
<stop stop-color="#FE9738" stop-opacity="0"/>
<stop offset="1" stop-color="#FE9738"/>
</linearGradient>
<linearGradient id="paint34_linear_172_4870" x1="53.1492" y1="27.0365" x2="49.641" y2="20.8914" gradientUnits="userSpaceOnUse">
<stop stop-color="#F5FBFF"/>
<stop offset="1" stop-color="#DBD5EF"/>
</linearGradient>
<linearGradient id="paint35_linear_172_4870" x1="47.8254" y1="17.4719" x2="52.1693" y2="21.2154" gradientUnits="userSpaceOnUse">
<stop stop-color="#FEF0AE"/>
<stop offset="1" stop-color="#FAC600"/>
</linearGradient>
<linearGradient id="paint36_linear_172_4870" x1="51.8668" y1="21.7639" x2="51.8668" y2="24.1618" gradientUnits="userSpaceOnUse">
<stop stop-color="#FE9738" stop-opacity="0"/>
<stop offset="1" stop-color="#FE9738"/>
</linearGradient>
<linearGradient id="paint37_linear_172_4870" x1="50.699" y1="21.1786" x2="49.2157" y2="21.0374" gradientUnits="userSpaceOnUse">
<stop stop-color="#FE9738" stop-opacity="0"/>
<stop offset="1" stop-color="#FE9738"/>
</linearGradient>
<linearGradient id="paint38_linear_172_4870" x1="52.821" y1="19.0985" x2="54.2407" y2="19.0985" gradientUnits="userSpaceOnUse">
<stop stop-color="#FE9738" stop-opacity="0"/>
<stop offset="1" stop-color="#FE9738"/>
</linearGradient>
<linearGradient id="paint39_linear_172_4870" x1="18.9616" y1="22.5881" x2="25.4966" y2="34.1298" gradientUnits="userSpaceOnUse">
<stop stop-color="#DBD5EF" stop-opacity="0"/>
<stop offset="0.285" stop-color="#D9D2EE" stop-opacity="0.285"/>
<stop offset="0.474" stop-color="#D4C9E9" stop-opacity="0.474"/>
<stop offset="0.635" stop-color="#CBBAE2" stop-opacity="0.635"/>
<stop offset="0.779" stop-color="#BFA5D7" stop-opacity="0.78"/>
<stop offset="0.913" stop-color="#AF8ACA" stop-opacity="0.913"/>
<stop offset="1" stop-color="#A274BF"/>
</linearGradient>
<linearGradient id="paint40_linear_172_4870" x1="24.2447" y1="31.4772" x2="28.0803" y2="31.4772" gradientUnits="userSpaceOnUse">
<stop stop-color="#DBD5EF" stop-opacity="0"/>
<stop offset="0.285" stop-color="#D9D2EE" stop-opacity="0.285"/>
<stop offset="0.474" stop-color="#D4C9E9" stop-opacity="0.474"/>
<stop offset="0.635" stop-color="#CBBAE2" stop-opacity="0.635"/>
<stop offset="0.779" stop-color="#BFA5D7" stop-opacity="0.78"/>
<stop offset="0.913" stop-color="#AF8ACA" stop-opacity="0.913"/>
<stop offset="1" stop-color="#A274BF"/>
</linearGradient>
<linearGradient id="paint41_linear_172_4870" x1="23.9946" y1="31.4656" x2="23.9946" y2="34.0485" gradientUnits="userSpaceOnUse">
<stop stop-color="#DBD5EF" stop-opacity="0"/>
<stop offset="0.285" stop-color="#D9D2EE" stop-opacity="0.285"/>
<stop offset="0.474" stop-color="#D4C9E9" stop-opacity="0.474"/>
<stop offset="0.635" stop-color="#CBBAE2" stop-opacity="0.635"/>
<stop offset="0.779" stop-color="#BFA5D7" stop-opacity="0.78"/>
<stop offset="0.913" stop-color="#AF8ACA" stop-opacity="0.913"/>
<stop offset="1" stop-color="#A274BF"/>
</linearGradient>
<linearGradient id="paint42_linear_172_4870" x1="28.2985" y1="22.5881" x2="34.8335" y2="34.1298" gradientUnits="userSpaceOnUse">
<stop stop-color="#DBD5EF" stop-opacity="0"/>
<stop offset="0.285" stop-color="#D9D2EE" stop-opacity="0.285"/>
<stop offset="0.474" stop-color="#D4C9E9" stop-opacity="0.474"/>
<stop offset="0.635" stop-color="#CBBAE2" stop-opacity="0.635"/>
<stop offset="0.779" stop-color="#BFA5D7" stop-opacity="0.78"/>
<stop offset="0.913" stop-color="#AF8ACA" stop-opacity="0.913"/>
<stop offset="1" stop-color="#A274BF"/>
</linearGradient>
<linearGradient id="paint43_linear_172_4870" x1="33.5816" y1="31.4772" x2="37.4172" y2="31.4772" gradientUnits="userSpaceOnUse">
<stop stop-color="#DBD5EF" stop-opacity="0"/>
<stop offset="0.285" stop-color="#D9D2EE" stop-opacity="0.285"/>
<stop offset="0.474" stop-color="#D4C9E9" stop-opacity="0.474"/>
<stop offset="0.635" stop-color="#CBBAE2" stop-opacity="0.635"/>
<stop offset="0.779" stop-color="#BFA5D7" stop-opacity="0.78"/>
<stop offset="0.913" stop-color="#AF8ACA" stop-opacity="0.913"/>
<stop offset="1" stop-color="#A274BF"/>
</linearGradient>
<linearGradient id="paint44_linear_172_4870" x1="33.3316" y1="31.4656" x2="33.3316" y2="34.0485" gradientUnits="userSpaceOnUse">
<stop stop-color="#DBD5EF" stop-opacity="0"/>
<stop offset="0.285" stop-color="#D9D2EE" stop-opacity="0.285"/>
<stop offset="0.474" stop-color="#D4C9E9" stop-opacity="0.474"/>
<stop offset="0.635" stop-color="#CBBAE2" stop-opacity="0.635"/>
<stop offset="0.779" stop-color="#BFA5D7" stop-opacity="0.78"/>
<stop offset="0.913" stop-color="#AF8ACA" stop-opacity="0.913"/>
<stop offset="1" stop-color="#A274BF"/>
</linearGradient>
<linearGradient id="paint45_linear_172_4870" x1="37.6354" y1="22.5881" x2="44.1704" y2="34.1298" gradientUnits="userSpaceOnUse">
<stop stop-color="#DBD5EF" stop-opacity="0"/>
<stop offset="0.285" stop-color="#D9D2EE" stop-opacity="0.285"/>
<stop offset="0.474" stop-color="#D4C9E9" stop-opacity="0.474"/>
<stop offset="0.635" stop-color="#CBBAE2" stop-opacity="0.635"/>
<stop offset="0.779" stop-color="#BFA5D7" stop-opacity="0.78"/>
<stop offset="0.913" stop-color="#AF8ACA" stop-opacity="0.913"/>
<stop offset="1" stop-color="#A274BF"/>
</linearGradient>
<linearGradient id="paint46_linear_172_4870" x1="42.919" y1="31.4772" x2="46.7546" y2="31.4772" gradientUnits="userSpaceOnUse">
<stop stop-color="#DBD5EF" stop-opacity="0"/>
<stop offset="0.285" stop-color="#D9D2EE" stop-opacity="0.285"/>
<stop offset="0.474" stop-color="#D4C9E9" stop-opacity="0.474"/>
<stop offset="0.635" stop-color="#CBBAE2" stop-opacity="0.635"/>
<stop offset="0.779" stop-color="#BFA5D7" stop-opacity="0.78"/>
<stop offset="0.913" stop-color="#AF8ACA" stop-opacity="0.913"/>
<stop offset="1" stop-color="#A274BF"/>
</linearGradient>
<linearGradient id="paint47_linear_172_4870" x1="42.6685" y1="31.4656" x2="42.6685" y2="34.0485" gradientUnits="userSpaceOnUse">
<stop stop-color="#DBD5EF" stop-opacity="0"/>
<stop offset="0.285" stop-color="#D9D2EE" stop-opacity="0.285"/>
<stop offset="0.474" stop-color="#D4C9E9" stop-opacity="0.474"/>
<stop offset="0.635" stop-color="#CBBAE2" stop-opacity="0.635"/>
<stop offset="0.779" stop-color="#BFA5D7" stop-opacity="0.78"/>
<stop offset="0.913" stop-color="#AF8ACA" stop-opacity="0.913"/>
<stop offset="1" stop-color="#A274BF"/>
</linearGradient>
<linearGradient id="paint48_linear_172_4870" x1="46.9723" y1="22.5881" x2="53.5073" y2="34.1298" gradientUnits="userSpaceOnUse">
<stop stop-color="#DBD5EF" stop-opacity="0"/>
<stop offset="0.285" stop-color="#D9D2EE" stop-opacity="0.285"/>
<stop offset="0.474" stop-color="#D4C9E9" stop-opacity="0.474"/>
<stop offset="0.635" stop-color="#CBBAE2" stop-opacity="0.635"/>
<stop offset="0.779" stop-color="#BFA5D7" stop-opacity="0.78"/>
<stop offset="0.913" stop-color="#AF8ACA" stop-opacity="0.913"/>
<stop offset="1" stop-color="#A274BF"/>
</linearGradient>
<linearGradient id="paint49_linear_172_4870" x1="52.2559" y1="31.4772" x2="56.0915" y2="31.4772" gradientUnits="userSpaceOnUse">
<stop stop-color="#DBD5EF" stop-opacity="0"/>
<stop offset="0.285" stop-color="#D9D2EE" stop-opacity="0.285"/>
<stop offset="0.474" stop-color="#D4C9E9" stop-opacity="0.474"/>
<stop offset="0.635" stop-color="#CBBAE2" stop-opacity="0.635"/>
<stop offset="0.779" stop-color="#BFA5D7" stop-opacity="0.78"/>
<stop offset="0.913" stop-color="#AF8ACA" stop-opacity="0.913"/>
<stop offset="1" stop-color="#A274BF"/>
</linearGradient>
<linearGradient id="paint50_linear_172_4870" x1="52.0054" y1="31.4656" x2="52.0054" y2="34.0485" gradientUnits="userSpaceOnUse">
<stop stop-color="#DBD5EF" stop-opacity="0"/>
<stop offset="0.285" stop-color="#D9D2EE" stop-opacity="0.285"/>
<stop offset="0.474" stop-color="#D4C9E9" stop-opacity="0.474"/>
<stop offset="0.635" stop-color="#CBBAE2" stop-opacity="0.635"/>
<stop offset="0.779" stop-color="#BFA5D7" stop-opacity="0.78"/>
<stop offset="0.913" stop-color="#AF8ACA" stop-opacity="0.913"/>
<stop offset="1" stop-color="#A274BF"/>
</linearGradient>
<linearGradient id="paint51_linear_172_4870" x1="18.9616" y1="29.7136" x2="25.4966" y2="41.2553" gradientUnits="userSpaceOnUse">
<stop stop-color="#DBD5EF" stop-opacity="0"/>
<stop offset="0.285" stop-color="#D9D2EE" stop-opacity="0.285"/>
<stop offset="0.474" stop-color="#D4C9E9" stop-opacity="0.474"/>
<stop offset="0.635" stop-color="#CBBAE2" stop-opacity="0.635"/>
<stop offset="0.779" stop-color="#BFA5D7" stop-opacity="0.78"/>
<stop offset="0.913" stop-color="#AF8ACA" stop-opacity="0.913"/>
<stop offset="1" stop-color="#A274BF"/>
</linearGradient>
<linearGradient id="paint52_linear_172_4870" x1="24.2447" y1="38.6027" x2="28.0803" y2="38.6027" gradientUnits="userSpaceOnUse">
<stop stop-color="#DBD5EF" stop-opacity="0"/>
<stop offset="0.285" stop-color="#D9D2EE" stop-opacity="0.285"/>
<stop offset="0.474" stop-color="#D4C9E9" stop-opacity="0.474"/>
<stop offset="0.635" stop-color="#CBBAE2" stop-opacity="0.635"/>
<stop offset="0.779" stop-color="#BFA5D7" stop-opacity="0.78"/>
<stop offset="0.913" stop-color="#AF8ACA" stop-opacity="0.913"/>
<stop offset="1" stop-color="#A274BF"/>
</linearGradient>
<linearGradient id="paint53_linear_172_4870" x1="23.9946" y1="38.5911" x2="23.9946" y2="41.1741" gradientUnits="userSpaceOnUse">
<stop stop-color="#DBD5EF" stop-opacity="0"/>
<stop offset="0.285" stop-color="#D9D2EE" stop-opacity="0.285"/>
<stop offset="0.474" stop-color="#D4C9E9" stop-opacity="0.474"/>
<stop offset="0.635" stop-color="#CBBAE2" stop-opacity="0.635"/>
<stop offset="0.779" stop-color="#BFA5D7" stop-opacity="0.78"/>
<stop offset="0.913" stop-color="#AF8ACA" stop-opacity="0.913"/>
<stop offset="1" stop-color="#A274BF"/>
</linearGradient>
<linearGradient id="paint54_linear_172_4870" x1="28.2985" y1="29.7136" x2="34.8335" y2="41.2553" gradientUnits="userSpaceOnUse">
<stop stop-color="#DBD5EF" stop-opacity="0"/>
<stop offset="0.285" stop-color="#D9D2EE" stop-opacity="0.285"/>
<stop offset="0.474" stop-color="#D4C9E9" stop-opacity="0.474"/>
<stop offset="0.635" stop-color="#CBBAE2" stop-opacity="0.635"/>
<stop offset="0.779" stop-color="#BFA5D7" stop-opacity="0.78"/>
<stop offset="0.913" stop-color="#AF8ACA" stop-opacity="0.913"/>
<stop offset="1" stop-color="#A274BF"/>
</linearGradient>
<linearGradient id="paint55_linear_172_4870" x1="33.5816" y1="38.6027" x2="37.4172" y2="38.6027" gradientUnits="userSpaceOnUse">
<stop stop-color="#DBD5EF" stop-opacity="0"/>
<stop offset="0.285" stop-color="#D9D2EE" stop-opacity="0.285"/>
<stop offset="0.474" stop-color="#D4C9E9" stop-opacity="0.474"/>
<stop offset="0.635" stop-color="#CBBAE2" stop-opacity="0.635"/>
<stop offset="0.779" stop-color="#BFA5D7" stop-opacity="0.78"/>
<stop offset="0.913" stop-color="#AF8ACA" stop-opacity="0.913"/>
<stop offset="1" stop-color="#A274BF"/>
</linearGradient>
<linearGradient id="paint56_linear_172_4870" x1="33.3316" y1="38.5911" x2="33.3316" y2="41.1741" gradientUnits="userSpaceOnUse">
<stop stop-color="#DBD5EF" stop-opacity="0"/>
<stop offset="0.285" stop-color="#D9D2EE" stop-opacity="0.285"/>
<stop offset="0.474" stop-color="#D4C9E9" stop-opacity="0.474"/>
<stop offset="0.635" stop-color="#CBBAE2" stop-opacity="0.635"/>
<stop offset="0.779" stop-color="#BFA5D7" stop-opacity="0.78"/>
<stop offset="0.913" stop-color="#AF8ACA" stop-opacity="0.913"/>
<stop offset="1" stop-color="#A274BF"/>
</linearGradient>
<linearGradient id="paint57_linear_172_4870" x1="37.6354" y1="29.7136" x2="44.1704" y2="41.2553" gradientUnits="userSpaceOnUse">
<stop stop-color="#DBD5EF" stop-opacity="0"/>
<stop offset="0.285" stop-color="#D9D2EE" stop-opacity="0.285"/>
<stop offset="0.474" stop-color="#D4C9E9" stop-opacity="0.474"/>
<stop offset="0.635" stop-color="#CBBAE2" stop-opacity="0.635"/>
<stop offset="0.779" stop-color="#BFA5D7" stop-opacity="0.78"/>
<stop offset="0.913" stop-color="#AF8ACA" stop-opacity="0.913"/>
<stop offset="1" stop-color="#A274BF"/>
</linearGradient>
<linearGradient id="paint58_linear_172_4870" x1="42.919" y1="38.6027" x2="46.7546" y2="38.6027" gradientUnits="userSpaceOnUse">
<stop stop-color="#DBD5EF" stop-opacity="0"/>
<stop offset="0.285" stop-color="#D9D2EE" stop-opacity="0.285"/>
<stop offset="0.474" stop-color="#D4C9E9" stop-opacity="0.474"/>
<stop offset="0.635" stop-color="#CBBAE2" stop-opacity="0.635"/>
<stop offset="0.779" stop-color="#BFA5D7" stop-opacity="0.78"/>
<stop offset="0.913" stop-color="#AF8ACA" stop-opacity="0.913"/>
<stop offset="1" stop-color="#A274BF"/>
</linearGradient>
<linearGradient id="paint59_linear_172_4870" x1="42.6685" y1="38.5911" x2="42.6685" y2="41.1741" gradientUnits="userSpaceOnUse">
<stop stop-color="#DBD5EF" stop-opacity="0"/>
<stop offset="0.285" stop-color="#D9D2EE" stop-opacity="0.285"/>
<stop offset="0.474" stop-color="#D4C9E9" stop-opacity="0.474"/>
<stop offset="0.635" stop-color="#CBBAE2" stop-opacity="0.635"/>
<stop offset="0.779" stop-color="#BFA5D7" stop-opacity="0.78"/>
<stop offset="0.913" stop-color="#AF8ACA" stop-opacity="0.913"/>
<stop offset="1" stop-color="#A274BF"/>
</linearGradient>
<linearGradient id="paint60_linear_172_4870" x1="46.9723" y1="29.7136" x2="53.5073" y2="41.2553" gradientUnits="userSpaceOnUse">
<stop stop-color="#DBD5EF" stop-opacity="0"/>
<stop offset="0.285" stop-color="#D9D2EE" stop-opacity="0.285"/>
<stop offset="0.474" stop-color="#D4C9E9" stop-opacity="0.474"/>
<stop offset="0.635" stop-color="#CBBAE2" stop-opacity="0.635"/>
<stop offset="0.779" stop-color="#BFA5D7" stop-opacity="0.78"/>
<stop offset="0.913" stop-color="#AF8ACA" stop-opacity="0.913"/>
<stop offset="1" stop-color="#A274BF"/>
</linearGradient>
<linearGradient id="paint61_linear_172_4870" x1="52.2559" y1="38.6027" x2="56.0915" y2="38.6027" gradientUnits="userSpaceOnUse">
<stop stop-color="#DBD5EF" stop-opacity="0"/>
<stop offset="0.285" stop-color="#D9D2EE" stop-opacity="0.285"/>
<stop offset="0.474" stop-color="#D4C9E9" stop-opacity="0.474"/>
<stop offset="0.635" stop-color="#CBBAE2" stop-opacity="0.635"/>
<stop offset="0.779" stop-color="#BFA5D7" stop-opacity="0.78"/>
<stop offset="0.913" stop-color="#AF8ACA" stop-opacity="0.913"/>
<stop offset="1" stop-color="#A274BF"/>
</linearGradient>
<linearGradient id="paint62_linear_172_4870" x1="52.0054" y1="38.5911" x2="52.0054" y2="41.1741" gradientUnits="userSpaceOnUse">
<stop stop-color="#DBD5EF" stop-opacity="0"/>
<stop offset="0.285" stop-color="#D9D2EE" stop-opacity="0.285"/>
<stop offset="0.474" stop-color="#D4C9E9" stop-opacity="0.474"/>
<stop offset="0.635" stop-color="#CBBAE2" stop-opacity="0.635"/>
<stop offset="0.779" stop-color="#BFA5D7" stop-opacity="0.78"/>
<stop offset="0.913" stop-color="#AF8ACA" stop-opacity="0.913"/>
<stop offset="1" stop-color="#A274BF"/>
</linearGradient>
<linearGradient id="paint63_linear_172_4870" x1="18.9616" y1="36.8392" x2="25.4966" y2="48.3809" gradientUnits="userSpaceOnUse">
<stop stop-color="#DBD5EF" stop-opacity="0"/>
<stop offset="0.285" stop-color="#D9D2EE" stop-opacity="0.285"/>
<stop offset="0.474" stop-color="#D4C9E9" stop-opacity="0.474"/>
<stop offset="0.635" stop-color="#CBBAE2" stop-opacity="0.635"/>
<stop offset="0.779" stop-color="#BFA5D7" stop-opacity="0.78"/>
<stop offset="0.913" stop-color="#AF8ACA" stop-opacity="0.913"/>
<stop offset="1" stop-color="#A274BF"/>
</linearGradient>
<linearGradient id="paint64_linear_172_4870" x1="24.2447" y1="45.7281" x2="28.0803" y2="45.7281" gradientUnits="userSpaceOnUse">
<stop stop-color="#DBD5EF" stop-opacity="0"/>
<stop offset="0.285" stop-color="#D9D2EE" stop-opacity="0.285"/>
<stop offset="0.474" stop-color="#D4C9E9" stop-opacity="0.474"/>
<stop offset="0.635" stop-color="#CBBAE2" stop-opacity="0.635"/>
<stop offset="0.779" stop-color="#BFA5D7" stop-opacity="0.78"/>
<stop offset="0.913" stop-color="#AF8ACA" stop-opacity="0.913"/>
<stop offset="1" stop-color="#A274BF"/>
</linearGradient>
<linearGradient id="paint65_linear_172_4870" x1="23.9946" y1="45.7166" x2="23.9946" y2="48.2995" gradientUnits="userSpaceOnUse">
<stop stop-color="#DBD5EF" stop-opacity="0"/>
<stop offset="0.285" stop-color="#D9D2EE" stop-opacity="0.285"/>
<stop offset="0.474" stop-color="#D4C9E9" stop-opacity="0.474"/>
<stop offset="0.635" stop-color="#CBBAE2" stop-opacity="0.635"/>
<stop offset="0.779" stop-color="#BFA5D7" stop-opacity="0.78"/>
<stop offset="0.913" stop-color="#AF8ACA" stop-opacity="0.913"/>
<stop offset="1" stop-color="#A274BF"/>
</linearGradient>
<linearGradient id="paint66_linear_172_4870" x1="28.2985" y1="36.8392" x2="34.8335" y2="48.3809" gradientUnits="userSpaceOnUse">
<stop stop-color="#FFA1AE"/>
<stop offset="1" stop-color="#FF4565"/>
</linearGradient>
<linearGradient id="paint67_linear_172_4870" x1="33.5816" y1="45.7281" x2="37.4172" y2="45.7281" gradientUnits="userSpaceOnUse">
<stop stop-color="#FE0364" stop-opacity="0"/>
<stop offset="0.234" stop-color="#F90362" stop-opacity="0.234"/>
<stop offset="0.517" stop-color="#EA035B" stop-opacity="0.517"/>
<stop offset="0.824" stop-color="#D20250" stop-opacity="0.824"/>
<stop offset="1" stop-color="#C00148"/>
</linearGradient>
<linearGradient id="paint68_linear_172_4870" x1="33.3316" y1="45.7166" x2="33.3316" y2="48.2995" gradientUnits="userSpaceOnUse">
<stop stop-color="#FE0364" stop-opacity="0"/>
<stop offset="0.234" stop-color="#F90362" stop-opacity="0.234"/>
<stop offset="0.517" stop-color="#EA035B" stop-opacity="0.517"/>
<stop offset="0.824" stop-color="#D20250" stop-opacity="0.824"/>
<stop offset="1" stop-color="#C00148"/>
</linearGradient>
<linearGradient id="paint69_linear_172_4870" x1="37.6354" y1="36.8392" x2="44.1704" y2="48.3809" gradientUnits="userSpaceOnUse">
<stop stop-color="#DBD5EF" stop-opacity="0"/>
<stop offset="0.285" stop-color="#D9D2EE" stop-opacity="0.285"/>
<stop offset="0.474" stop-color="#D4C9E9" stop-opacity="0.474"/>
<stop offset="0.635" stop-color="#CBBAE2" stop-opacity="0.635"/>
<stop offset="0.779" stop-color="#BFA5D7" stop-opacity="0.78"/>
<stop offset="0.913" stop-color="#AF8ACA" stop-opacity="0.913"/>
<stop offset="1" stop-color="#A274BF"/>
</linearGradient>
<linearGradient id="paint70_linear_172_4870" x1="42.919" y1="45.7281" x2="46.7546" y2="45.7281" gradientUnits="userSpaceOnUse">
<stop stop-color="#DBD5EF" stop-opacity="0"/>
<stop offset="0.285" stop-color="#D9D2EE" stop-opacity="0.285"/>
<stop offset="0.474" stop-color="#D4C9E9" stop-opacity="0.474"/>
<stop offset="0.635" stop-color="#CBBAE2" stop-opacity="0.635"/>
<stop offset="0.779" stop-color="#BFA5D7" stop-opacity="0.78"/>
<stop offset="0.913" stop-color="#AF8ACA" stop-opacity="0.913"/>
<stop offset="1" stop-color="#A274BF"/>
</linearGradient>
<linearGradient id="paint71_linear_172_4870" x1="42.6685" y1="45.7166" x2="42.6685" y2="48.2995" gradientUnits="userSpaceOnUse">
<stop stop-color="#DBD5EF" stop-opacity="0"/>
<stop offset="0.285" stop-color="#D9D2EE" stop-opacity="0.285"/>
<stop offset="0.474" stop-color="#D4C9E9" stop-opacity="0.474"/>
<stop offset="0.635" stop-color="#CBBAE2" stop-opacity="0.635"/>
<stop offset="0.779" stop-color="#BFA5D7" stop-opacity="0.78"/>
<stop offset="0.913" stop-color="#AF8ACA" stop-opacity="0.913"/>
<stop offset="1" stop-color="#A274BF"/>
</linearGradient>
<linearGradient id="paint72_linear_172_4870" x1="46.9723" y1="36.8392" x2="53.5073" y2="48.3809" gradientUnits="userSpaceOnUse">
<stop stop-color="#DBD5EF" stop-opacity="0"/>
<stop offset="0.285" stop-color="#D9D2EE" stop-opacity="0.285"/>
<stop offset="0.474" stop-color="#D4C9E9" stop-opacity="0.474"/>
<stop offset="0.635" stop-color="#CBBAE2" stop-opacity="0.635"/>
<stop offset="0.779" stop-color="#BFA5D7" stop-opacity="0.78"/>
<stop offset="0.913" stop-color="#AF8ACA" stop-opacity="0.913"/>
<stop offset="1" stop-color="#A274BF"/>
</linearGradient>
<linearGradient id="paint73_linear_172_4870" x1="52.2559" y1="45.7281" x2="56.0915" y2="45.7281" gradientUnits="userSpaceOnUse">
<stop stop-color="#DBD5EF" stop-opacity="0"/>
<stop offset="0.285" stop-color="#D9D2EE" stop-opacity="0.285"/>
<stop offset="0.474" stop-color="#D4C9E9" stop-opacity="0.474"/>
<stop offset="0.635" stop-color="#CBBAE2" stop-opacity="0.635"/>
<stop offset="0.779" stop-color="#BFA5D7" stop-opacity="0.78"/>
<stop offset="0.913" stop-color="#AF8ACA" stop-opacity="0.913"/>
<stop offset="1" stop-color="#A274BF"/>
</linearGradient>
<linearGradient id="paint74_linear_172_4870" x1="52.0054" y1="45.7166" x2="52.0054" y2="48.2995" gradientUnits="userSpaceOnUse">
<stop stop-color="#DBD5EF" stop-opacity="0"/>
<stop offset="0.285" stop-color="#D9D2EE" stop-opacity="0.285"/>
<stop offset="0.474" stop-color="#D4C9E9" stop-opacity="0.474"/>
<stop offset="0.635" stop-color="#CBBAE2" stop-opacity="0.635"/>
<stop offset="0.779" stop-color="#BFA5D7" stop-opacity="0.78"/>
<stop offset="0.913" stop-color="#AF8ACA" stop-opacity="0.913"/>
<stop offset="1" stop-color="#A274BF"/>
</linearGradient>
</defs>
</svg>
