<svg width="76" height="68" viewBox="0 0 76 68" fill="none" xmlns="http://www.w3.org/2000/svg">
<path fill-rule="evenodd" clip-rule="evenodd" d="M61.5304 67L24.9906 47.0278L25.4602 46.1493L62 66.1215L61.5304 67Z" fill="#FCC055"/>
<path fill-rule="evenodd" clip-rule="evenodd" d="M61.5304 67L24.9906 47.0278L25.4602 46.1493L62 66.1215L61.5304 67Z" fill="black" fill-opacity="0.2"/>
<path fill-rule="evenodd" clip-rule="evenodd" d="M24.8589 46.111L39.5689 0L40.5088 0.306576L25.7161 46.677C25.6412 46.9117 25.4318 47.076 25.1883 47.0911L1.06035 48.5849L1 47.5881L24.8589 46.111Z" fill="#FCC055"/>
<path fill-rule="evenodd" clip-rule="evenodd" d="M24.8589 46.111L39.5689 0L40.5088 0.306576L25.7161 46.677C25.6412 46.9117 25.4318 47.076 25.1883 47.0911L1.06035 48.5849L1 47.5881L24.8589 46.111Z" fill="black" fill-opacity="0.2"/>
<g clip-path="url(#clip0_164_1296)">
<path d="M18.814 38.4689L17.1811 29.0591C16.7526 28.3429 17.1571 27.4199 17.9731 27.245C21.567 26.4745 25.1846 25.9128 28.8135 25.5615V35.9511C28.8135 37.5458 27.626 38.8883 26.044 39.0884C24.0891 39.3358 22.1423 39.6436 20.2065 40.0112C19.3102 40.1815 18.5522 39.3428 18.814 38.4689Z" fill="url(#paint0_linear_164_1296)"/>
<path d="M28.8136 30.3689V35.9513C28.8136 37.5454 27.6257 38.8884 26.0441 39.0886C24.0892 39.3359 22.1424 39.6438 20.2066 40.0118C19.3103 40.1812 18.5518 39.3427 18.8136 38.4687L17.4082 30.3689H28.8136Z" fill="url(#paint1_linear_164_1296)"/>
<path d="M26.6613 36.3679L24.8633 34.5753L25.7496 33.7546H28.8132V35.952C28.8132 37.5448 27.6286 38.8891 26.0484 39.0893L26.0102 39.0941C27.1773 38.7138 27.5305 37.2347 26.6613 36.3679Z" fill="url(#paint2_linear_164_1296)"/>
<path d="M26.6613 36.3679L24.8633 34.5753L25.7496 33.7546H28.8132V35.952C28.8132 37.5448 27.6286 38.8891 26.0484 39.0893L26.0102 39.0941C27.1773 38.7138 27.5305 37.2347 26.6613 36.3679Z" fill="url(#paint3_linear_164_1296)"/>
<path d="M57.186 38.4689L58.8189 29.0591C59.2474 28.3429 58.843 27.4199 58.0269 27.245C54.433 26.4745 50.8154 25.9128 47.1865 25.5615V35.9511C47.1865 37.5458 48.374 38.8883 49.956 39.0884C51.9109 39.3358 53.8577 39.6436 55.7936 40.0112C56.6898 40.1815 57.4479 39.3428 57.186 38.4689Z" fill="url(#paint4_linear_164_1296)"/>
<path d="M57.186 38.4689L58.8189 29.0591C59.2474 28.3429 58.843 27.4199 58.0269 27.245C54.433 26.4745 50.8154 25.9128 47.1865 25.5615V35.9511C47.1865 37.5458 48.374 38.8883 49.956 39.0884C51.9109 39.3358 53.8577 39.6436 55.7936 40.0112C56.6898 40.1815 57.4479 39.3428 57.186 38.4689Z" fill="url(#paint5_linear_164_1296)"/>
<path d="M57.1865 38.4687C57.4483 39.3427 56.6898 40.1812 55.7935 40.0118C53.8577 39.6437 51.9109 39.3359 49.956 39.0886C48.3744 38.8884 47.1865 37.5455 47.1865 35.9513V30.3689H58.592L57.1865 38.4687Z" fill="url(#paint6_linear_164_1296)"/>
<path d="M49.3385 36.3679L51.1365 34.5753L50.2502 33.7546H47.1865V35.952C47.1865 37.5448 48.3712 38.8891 49.9513 39.0893L49.9895 39.0941C48.8224 38.7138 48.4692 37.2347 49.3385 36.3679Z" fill="url(#paint7_linear_164_1296)"/>
<path d="M49.3385 36.3679L51.1365 34.5753L50.2502 33.7546H47.1865V35.952C47.1865 37.5448 48.3712 38.8891 49.9513 39.0893L49.9895 39.0941C48.8224 38.7138 48.4692 37.2347 49.3385 36.3679Z" fill="url(#paint8_linear_164_1296)"/>
<path d="M24.3511 33.7269L22.9268 24.2204C22.8028 23.3928 23.3467 22.6132 24.1657 22.4414C33.3163 20.5212 42.6834 20.5212 51.8339 22.4414C52.6529 22.6132 53.1969 23.3928 53.0729 24.2204L51.6485 33.727C51.5361 34.4769 50.8201 34.9808 50.0763 34.8334C42.079 33.2491 33.9208 33.2491 25.9233 34.8333C25.1795 34.9807 24.4635 34.4769 24.3511 33.7269Z" fill="url(#paint9_linear_164_1296)"/>
<path d="M19.8668 55.8921C19.1172 55.9576 18.4565 55.4032 18.3909 54.6536L16.0053 27.3864C15.9397 26.6369 16.4942 25.9761 17.2437 25.9105C17.9933 25.845 18.654 26.3994 18.7196 27.149L21.1051 54.4161C21.1708 55.1656 20.6163 55.8264 19.8668 55.8921Z" fill="url(#paint10_linear_164_1296)"/>
<path d="M56.1334 55.8922C56.8829 55.9578 57.5437 55.4033 57.6092 54.6538L59.9948 27.3867C60.0604 26.6371 59.5059 25.9764 58.7563 25.9108C58.0068 25.8452 57.346 26.3997 57.2805 27.1492L54.8949 54.4163C54.8293 55.1658 55.3838 55.8266 56.1334 55.8922Z" fill="url(#paint11_linear_164_1296)"/>
<path d="M42.2783 42.9004C41.8356 42.0293 41.1093 41.3351 40.219 40.9324C40.1204 40.8878 40.1204 40.7467 40.219 40.7021C41.1092 40.2993 41.8356 39.6051 42.2783 38.7341C42.3253 38.6417 42.4569 38.6417 42.5039 38.7341C42.9466 39.6052 43.673 40.2993 44.5632 40.7021C44.6619 40.7467 44.6619 40.8878 44.5632 40.9324C43.673 41.3352 42.9467 42.0294 42.5039 42.9004C42.4569 42.9929 42.3253 42.9929 42.2783 42.9004Z" fill="url(#paint12_linear_164_1296)"/>
<path d="M33.2553 53.4128C32.3263 53.1099 31.3218 53.1327 30.4075 53.4773C30.3062 53.5156 30.2064 53.4158 30.2447 53.3146C30.5893 52.4002 30.6121 51.3958 30.3092 50.4668C30.2771 50.3682 30.3702 50.2751 30.4687 50.3073C31.3977 50.6102 32.4022 50.5874 33.3165 50.2427C33.4178 50.2045 33.5176 50.3043 33.4793 50.4055C33.1347 51.3198 33.1119 52.3243 33.4148 53.2533C33.4469 53.3518 33.3538 53.4449 33.2553 53.4128Z" fill="url(#paint13_linear_164_1296)"/>
<path d="M22.8838 45.3977C22.4411 44.5266 21.7147 43.8325 20.8245 43.4297C20.7258 43.3852 20.7258 43.244 20.8245 43.1995C21.7147 42.7966 22.441 42.1024 22.8838 41.2314C22.9307 41.139 23.0624 41.139 23.1094 41.2314C23.5521 42.1025 24.2785 42.7967 25.1687 43.1995C25.2674 43.244 25.2674 43.3852 25.1687 43.4297C24.2785 43.8325 23.5522 44.5267 23.1094 45.3977C23.0624 45.4901 22.9307 45.4901 22.8838 45.3977Z" fill="url(#paint14_linear_164_1296)"/>
<path d="M54.4451 51.9727C53.574 52.4154 52.8798 53.1417 52.477 54.032C52.4325 54.1306 52.2913 54.1306 52.2468 54.032C51.8439 53.1418 51.1498 52.4154 50.2788 51.9727C50.1864 51.9257 50.1864 51.7941 50.2788 51.7471C51.1498 51.3044 51.844 50.578 52.2468 49.6878C52.2913 49.5891 52.4325 49.5891 52.477 49.6878C52.8799 50.578 53.5741 51.3043 54.4451 51.7471C54.5375 51.7941 54.5375 51.9257 54.4451 51.9727Z" fill="url(#paint15_linear_164_1296)"/>
<path d="M39.7097 17.9126C38.8387 18.3553 38.1445 19.0817 37.7417 19.9719C37.6972 20.0706 37.556 20.0706 37.5115 19.9719C37.1086 19.0817 36.4144 18.3554 35.5434 17.9126C35.451 17.8657 35.451 17.734 35.5434 17.687C36.4145 17.2443 37.1087 16.5179 37.5115 15.6277C37.556 15.529 37.6972 15.529 37.7417 15.6277C38.1446 16.5179 38.8387 17.2442 39.7097 17.687C39.8022 17.7339 39.8022 17.8657 39.7097 17.9126Z" fill="url(#paint16_linear_164_1296)"/>
<path d="M22.5103 23.2224H21.0535C20.943 23.2224 20.837 23.1785 20.7588 23.1004C20.6807 23.0222 20.6368 22.9162 20.6368 22.8057V20.8155C20.6368 19.964 20.3052 19.1635 19.7032 18.5614C18.6685 17.5267 18.0986 16.1511 18.0986 14.6879V12.5195C18.0986 12.409 18.1425 12.303 18.2207 12.2248C18.2988 12.1467 18.4048 12.1028 18.5153 12.1028H19.9722C20.0269 12.1028 20.0811 12.1136 20.1316 12.1345C20.1822 12.1554 20.2281 12.1861 20.2668 12.2248C20.3055 12.2635 20.3362 12.3095 20.3571 12.36C20.3781 12.4106 20.3889 12.4648 20.3889 12.5195V14.6879C20.3889 15.5393 20.7204 16.3398 21.3225 16.9418C22.3572 17.9765 22.9269 19.3522 22.9269 20.8154V22.8056C22.927 22.8603 22.9162 22.9145 22.8953 22.9651C22.8744 23.0157 22.8437 23.0616 22.805 23.1003C22.7663 23.1391 22.7204 23.1698 22.6698 23.1907C22.6192 23.2116 22.565 23.2224 22.5103 23.2224Z" fill="url(#paint17_linear_164_1296)"/>
<path d="M19.7031 18.5615C20.3052 19.1636 20.6367 19.9641 20.6367 20.8156V22.8058C20.6367 22.9163 20.6807 23.0223 20.7588 23.1005C20.837 23.1786 20.9429 23.2225 21.0535 23.2225H22.5104C22.5651 23.2225 22.6193 23.2117 22.6698 23.1908C22.7204 23.1699 22.7663 23.1392 22.805 23.1005C22.8437 23.0618 22.8744 23.0158 22.8954 22.9653C22.9163 22.9147 22.9271 22.8605 22.9271 22.8058C22.9271 22.1525 22.6675 21.526 22.2056 21.0641L19.7031 18.5615Z" fill="url(#paint18_linear_164_1296)"/>
<path d="M19.7031 18.5615C20.3052 19.1636 20.6367 19.9641 20.6367 20.8156V22.8058C20.6367 22.9163 20.6807 23.0223 20.7588 23.1005C20.837 23.1786 20.9429 23.2225 21.0535 23.2225H22.5104C22.5651 23.2225 22.6193 23.2117 22.6698 23.1908C22.7204 23.1699 22.7663 23.1392 22.805 23.1005C22.8437 23.0618 22.8744 23.0158 22.8954 22.9653C22.9163 22.9147 22.9271 22.8605 22.9271 22.8058C22.9271 22.1525 22.6675 21.526 22.2056 21.0641L19.7031 18.5615Z" fill="url(#paint19_linear_164_1296)"/>
<path d="M22.9272 22.8058C22.9272 22.1525 22.6676 21.526 22.2057 21.0641L19.7031 18.5615" fill="url(#paint20_linear_164_1296)"/>
<path d="M21.3226 16.9418C20.7205 16.3398 20.389 15.5393 20.389 14.6879V12.5195C20.389 12.4648 20.3782 12.4106 20.3572 12.36C20.3363 12.3095 20.3056 12.2635 20.2669 12.2248C20.2282 12.1861 20.1823 12.1554 20.1317 12.1345C20.0812 12.1136 20.027 12.1028 19.9722 12.1028H18.5153C18.4048 12.1028 18.2988 12.1467 18.2207 12.2248C18.1425 12.303 18.0986 12.409 18.0986 12.5195V12.8762C18.0986 13.1431 18.1512 13.4073 18.2533 13.6538C18.3554 13.9003 18.5051 14.1243 18.6937 14.313L21.3226 16.9418Z" fill="url(#paint21_linear_164_1296)"/>
<path d="M59.2577 21.2239L57.9248 22.5568C57.8237 22.6579 57.6865 22.7147 57.5435 22.7147C57.4005 22.7147 57.2634 22.6579 57.1623 22.5568L55.3414 20.7359C54.5624 19.9569 53.5267 19.5279 52.425 19.5279C50.5317 19.5279 48.7519 18.7907 47.4132 17.4519L45.4294 15.4682C45.3283 15.367 45.2715 15.2299 45.2715 15.0869C45.2715 14.9439 45.3283 14.8068 45.4294 14.7056L46.7623 13.3727C46.8634 13.2716 47.0005 13.2148 47.1435 13.2148C47.2865 13.2148 47.4237 13.2716 47.5248 13.3727L49.5086 15.3565C50.2876 16.1355 51.3233 16.5645 52.4249 16.5645C54.3182 16.5645 56.0981 17.3018 57.4368 18.6405L59.2577 20.4614C59.3077 20.5114 59.3475 20.5709 59.3746 20.6363C59.4017 20.7017 59.4156 20.7718 59.4156 20.8426C59.4156 20.9134 59.4017 20.9836 59.3746 21.049C59.3475 21.1144 59.3077 21.1738 59.2577 21.2239Z" fill="url(#paint22_linear_164_1296)"/>
<path d="M52.4248 19.5278C53.5265 19.5278 54.5622 19.9568 55.3412 20.7359L57.162 22.5567C57.2632 22.6578 57.4003 22.7146 57.5433 22.7146C57.6863 22.7146 57.8234 22.6578 57.9245 22.5567L59.2574 21.2238C59.3585 21.1227 59.4153 20.9855 59.4153 20.8425C59.4153 20.6996 59.3585 20.5624 59.2574 20.4613C58.9615 20.1653 58.6102 19.9306 58.2235 19.7704C57.8368 19.6103 57.4224 19.5278 57.0039 19.5278H52.4248Z" fill="url(#paint23_linear_164_1296)"/>
<path d="M52.4248 19.5278C53.5265 19.5278 54.5622 19.9568 55.3412 20.7359L57.162 22.5567C57.2632 22.6578 57.4003 22.7146 57.5433 22.7146C57.6863 22.7146 57.8234 22.6578 57.9245 22.5567L59.2574 21.2238C59.3585 21.1227 59.4153 20.9855 59.4153 20.8425C59.4153 20.6996 59.3585 20.5624 59.2574 20.4613C58.9615 20.1653 58.6102 19.9306 58.2235 19.7704C57.8368 19.6103 57.4224 19.5278 57.0039 19.5278H52.4248Z" fill="url(#paint24_linear_164_1296)"/>
<path d="M59.2575 20.4613C58.9616 20.1653 58.6103 19.9306 58.2236 19.7704C57.8369 19.6103 57.4225 19.5278 57.004 19.5278H52.4248" fill="url(#paint25_linear_164_1296)"/>
<path d="M52.4249 16.5645C51.3233 16.5645 50.2875 16.1355 49.5086 15.3565L47.5248 13.3727C47.4237 13.2716 47.2865 13.2148 47.1435 13.2148C47.0005 13.2148 46.8634 13.2716 46.7623 13.3727L45.4294 14.7056C45.3283 14.8068 45.2715 14.9439 45.2715 15.0869C45.2715 15.2299 45.3283 15.367 45.4294 15.4682L45.7557 15.7945C45.9998 16.0386 46.2896 16.2322 46.6086 16.3643C46.9276 16.4965 47.2694 16.5645 47.6147 16.5645L52.4249 16.5645Z" fill="url(#paint26_linear_164_1296)"/>
<path d="M28.3972 45.3045L27.7745 44.6817C27.7224 44.6297 27.6607 44.5884 27.5927 44.5602C27.5247 44.5321 27.4518 44.5176 27.3782 44.5176C27.3046 44.5176 27.2318 44.5321 27.1638 44.5602C27.0958 44.5884 27.034 44.6297 26.982 44.6817L25.6007 46.063C25.5486 46.1151 25.5074 46.1768 25.4792 46.2448C25.451 46.3128 25.4365 46.3857 25.4365 46.4593C25.4365 46.5329 25.451 46.6057 25.4792 46.6737C25.5074 46.7417 25.5486 46.8035 25.6007 46.8555L26.1442 47.399C28.0263 49.2811 31.0777 49.2811 32.9599 47.399L33.5033 46.8555C33.5554 46.8035 33.5967 46.7417 33.6248 46.6737C33.653 46.6057 33.6675 46.5329 33.6675 46.4593C33.6675 46.3857 33.653 46.3128 33.6248 46.2448C33.5967 46.1768 33.5554 46.1151 33.5033 46.063L32.1221 44.6817C32.07 44.6297 32.0083 44.5884 31.9403 44.5602C31.8723 44.5321 31.7994 44.5176 31.7258 44.5176C31.6522 44.5176 31.5793 44.5321 31.5113 44.5602C31.4434 44.5884 31.3816 44.6297 31.3295 44.6817L30.7068 45.3045C30.069 45.9423 29.035 45.9423 28.3972 45.3045Z" fill="url(#paint27_linear_164_1296)"/>
<path d="M32.9601 47.399L33.5036 46.8555C33.5557 46.8035 33.5969 46.7417 33.6251 46.6737C33.6533 46.6057 33.6678 46.5329 33.6678 46.4593C33.6678 46.3857 33.6533 46.3128 33.6251 46.2448C33.5969 46.1768 33.5557 46.1151 33.5036 46.063L32.1223 44.6817C32.0703 44.6297 32.0085 44.5884 31.9405 44.5602C31.8725 44.5321 31.7997 44.5176 31.7261 44.5176C31.6525 44.5176 31.5796 44.5321 31.5116 44.5602C31.4436 44.5884 31.3819 44.6297 31.3298 44.6817L30.7071 45.3045C30.0693 45.9423 29.0353 45.9423 28.3975 45.3045L30.4854 47.3924C31.1629 48.0699 32.267 48.087 32.9471 47.412L32.9601 47.399Z" fill="url(#paint28_linear_164_1296)"/>
<path d="M38.6049 34.8886H39.4855C39.6341 34.8886 39.7766 34.8295 39.8817 34.7244C39.9868 34.6194 40.0458 34.4768 40.0459 34.3282V32.3749C40.0458 32.2262 39.9868 32.0837 39.8817 31.9786C39.7766 31.8735 39.6341 31.8145 39.4855 31.8145H38.7169C36.0553 31.8145 33.8975 33.9722 33.8975 36.6339V37.4025C33.8975 37.5511 33.9565 37.6936 34.0616 37.7987C34.1667 37.9038 34.3092 37.9628 34.4579 37.9629H36.4112C36.5598 37.9628 36.7024 37.9038 36.8075 37.7987C36.9125 37.6936 36.9716 37.5511 36.9716 37.4025V36.5219C36.9716 35.6198 37.7029 34.8886 38.6049 34.8886Z" fill="url(#paint29_linear_164_1296)"/>
<path d="M33.8975 36.6336V37.4022C33.8976 37.5508 33.9566 37.6933 34.0617 37.7984C34.1668 37.9035 34.3093 37.9626 34.4579 37.9626H36.4113C36.5599 37.9626 36.7025 37.9035 36.8075 37.7984C36.9126 37.6933 36.9717 37.5508 36.9717 37.4022V36.5216C36.9717 35.6196 37.7029 34.8884 38.6049 34.8884H35.652C34.6938 34.8884 33.9012 35.6571 33.8975 36.6152L33.8975 36.6336Z" fill="url(#paint30_linear_164_1296)"/>
<path d="M46.0528 49.8578V50.7384C46.0528 50.887 46.1118 51.0295 46.2169 51.1346C46.322 51.2397 46.4645 51.2988 46.6132 51.2988H48.5665C48.7151 51.2988 48.8577 51.2397 48.9628 51.1346C49.0678 51.0295 49.1269 50.887 49.1269 50.7384V49.9699C49.1269 47.3082 46.9692 45.1504 44.3075 45.1504H43.5389C43.3903 45.1504 43.2478 45.2095 43.1427 45.3146C43.0376 45.4196 42.9785 45.5622 42.9785 45.7108V47.6642C42.9785 47.8129 43.0376 47.9554 43.1427 48.0605C43.2478 48.1656 43.3903 48.2246 43.5389 48.2246H44.4195C45.3215 48.2246 46.0528 48.9559 46.0528 49.8578Z" fill="url(#paint31_linear_164_1296)"/>
<path d="M44.3075 45.1505H43.5389C43.3903 45.1505 43.2478 45.2095 43.1427 45.3146C43.0376 45.4197 42.9785 45.5623 42.9785 45.7109V47.6642C42.9785 47.8129 43.0376 47.9554 43.1427 48.0605C43.2478 48.1656 43.3903 48.2246 43.5389 48.2246H44.4195C45.3215 48.2246 46.0527 48.9558 46.0527 49.8578V46.905C46.0527 45.9468 45.284 45.1541 44.3259 45.1504L44.3075 45.1505Z" fill="url(#paint32_linear_164_1296)"/>
<path d="M26.6243 27.1987C27.0873 27.166 27.5504 27.1356 28.0136 27.1077C28.1556 27.099 28.2673 27.1482 28.3479 27.2551C28.4285 27.3621 28.4729 27.488 28.4814 27.6326C28.4885 27.7531 28.4616 27.8741 28.401 27.9953C28.3403 28.1167 28.2333 28.1821 28.0801 28.1914C27.5279 28.2252 27.2519 28.2433 26.6999 28.2818L26.807 29.8164C27.6208 29.7584 28.4351 29.7078 29.2499 29.6646C29.3896 29.6569 29.4995 29.7132 29.5787 29.8327C29.6581 29.9523 29.702 30.0966 29.7107 30.2653C29.7185 30.4083 29.6916 30.5511 29.6325 30.6816C29.5727 30.8147 29.4676 30.8851 29.3169 30.8933C28.2432 30.9557 27.1699 31.0251 26.0971 31.1015C25.9403 31.1132 25.7961 31.088 25.6639 31.0256C25.5316 30.9633 25.4597 30.86 25.4483 30.7158L24.9975 24.9876C24.9862 24.8432 25.0434 24.7298 25.1695 24.6475C25.2955 24.565 25.4403 24.5177 25.6035 24.5055C26.7205 24.4219 27.8383 24.3496 28.9568 24.2887C29.1137 24.2801 29.2304 24.3389 29.3062 24.4648C29.381 24.5876 29.4239 24.727 29.4311 24.8705C29.4399 25.0392 29.4099 25.1874 29.3415 25.3147C29.273 25.4421 29.1671 25.5096 29.0238 25.5174C28.021 25.5721 27.5198 25.6032 26.5178 25.6731L26.6243 27.1987Z" fill="url(#paint33_linear_164_1296)"/>
<path d="M29.6225 24.9333C29.6075 24.8858 29.5996 24.8529 29.5986 24.8349C29.5943 24.7507 29.6201 24.6723 29.6762 24.6C29.7323 24.5278 29.8062 24.4636 29.8978 24.4078C29.9923 24.3507 30.0931 24.3049 30.1981 24.2711C30.3066 24.2359 30.4112 24.2159 30.5118 24.2113C30.6311 24.2059 30.7343 24.2211 30.8207 24.2566C30.9072 24.2921 30.9681 24.3576 31.0036 24.4524C31.5069 25.9784 32.0007 27.5077 32.4805 29.0413C32.8526 27.479 33.2345 25.919 33.6305 24.3625C33.6592 24.2653 33.7157 24.1959 33.7996 24.1545C33.8834 24.1132 33.9851 24.091 34.1047 24.0882C34.2051 24.0858 34.3109 24.0986 34.4216 24.1263C34.5321 24.1541 34.6352 24.1927 34.7304 24.2421C34.8257 24.2914 34.9039 24.3504 34.9647 24.4187C35.0255 24.4868 35.0568 24.5633 35.0582 24.6477C35.0586 24.6658 35.0527 24.6992 35.0411 24.7476C34.4958 26.5958 33.9657 28.4485 33.4508 30.3055C33.4068 30.4637 33.2968 30.5845 33.1212 30.6682C32.9454 30.7519 32.7521 30.7975 32.541 30.8047C32.3297 30.8119 32.1337 30.7797 31.9527 30.7082C31.7715 30.6367 31.6535 30.5237 31.5989 30.3688C30.9551 28.5515 30.2963 26.7396 29.6225 24.9333Z" fill="url(#paint34_linear_164_1296)"/>
<path d="M37.0822 26.8048C37.6388 26.8017 37.9171 26.8012 38.4738 26.8029C38.616 26.8033 38.7241 26.8596 38.7977 26.9715C38.8712 27.0835 38.9075 27.2119 38.9067 27.3567C38.906 27.4774 38.8715 27.5963 38.8032 27.7135C38.7349 27.8308 38.6241 27.889 38.4706 27.8886C37.9177 27.887 37.6411 27.8874 37.0882 27.8905L37.0969 29.4288C38.0754 29.4233 38.5648 29.4242 39.5432 29.4337C39.6832 29.4351 39.7891 29.4982 39.8606 29.6225C39.9321 29.7469 39.9667 29.8938 39.9646 30.0626C39.9632 30.2058 39.9272 30.3466 39.8598 30.473C39.7918 30.6021 39.6824 30.6656 39.5315 30.6641C38.4561 30.6576 37.3819 30.6581 36.3066 30.6658C36.1495 30.6674 36.0073 30.633 35.8794 30.5623C35.7515 30.4916 35.6864 30.384 35.6843 30.2393C35.6565 28.3241 35.6288 26.4091 35.6011 24.494C35.5991 24.3492 35.6633 24.2397 35.7944 24.1655C35.9254 24.0913 36.0727 24.0533 36.2363 24.0516C37.3558 24.0397 38.4754 24.0391 39.5948 24.0499C39.7519 24.0514 39.8647 24.1177 39.9321 24.248C39.9989 24.3753 40.0328 24.5172 40.0307 24.6609C40.0286 24.8298 39.9893 24.9758 39.9129 25.0984C39.8364 25.2212 39.7265 25.2818 39.583 25.2804C38.7464 25.2711 37.9099 25.2694 37.0733 25.2754C37.077 25.8872 37.0787 26.1931 37.0822 26.8048Z" fill="url(#paint35_linear_164_1296)"/>
<path d="M44.4944 30.789C44.3315 30.7824 44.1815 30.7525 44.0444 30.6989C43.9074 30.6453 43.7994 30.5388 43.7203 30.379C43.1815 29.3131 42.6327 28.2523 42.0738 27.1967L41.997 30.2724C41.9934 30.4171 41.9165 30.5236 41.7668 30.5926C41.6171 30.6614 41.4547 30.694 41.2797 30.6904C41.1044 30.6867 40.9437 30.6476 40.797 30.5725C40.6502 30.4975 40.5778 30.3878 40.5801 30.2431L40.6728 24.498C40.6752 24.3473 40.7538 24.2383 40.909 24.1717C41.0642 24.1051 41.2331 24.0734 41.4155 24.0772C41.5476 24.0799 41.6607 24.0885 41.7546 24.1026C41.8471 24.1163 41.936 24.1476 42.0167 24.1948C42.0972 24.2419 42.1741 24.3148 42.2469 24.4132C42.3197 24.5116 42.3977 24.6434 42.4811 24.8086C42.9594 25.7536 43.4327 26.7011 43.9009 27.6511L44.0126 24.5765C44.0181 24.4259 44.0988 24.3201 44.2553 24.2595C44.4115 24.199 44.5811 24.1723 44.7634 24.1798C44.9457 24.1873 45.1126 24.2276 45.2635 24.3006C45.4143 24.3735 45.4864 24.4857 45.4796 24.6362L45.2199 30.3854C45.2134 30.5301 45.1343 30.6352 44.9833 30.701C44.8324 30.7668 44.6695 30.7961 44.4944 30.789Z" fill="url(#paint36_linear_164_1296)"/>
<path d="M50.5952 24.5204C50.7521 24.5323 50.8601 24.6075 50.9186 24.745C50.9772 24.8826 51.0006 25.0268 50.9888 25.1771C50.975 25.3516 50.9256 25.4989 50.8409 25.6194C50.7563 25.7398 50.6423 25.7945 50.4992 25.7836C49.9835 25.7444 49.7256 25.7258 49.2098 25.6906L48.8758 30.5927C48.866 30.7371 48.7845 30.8404 48.6319 30.9028C48.4793 30.9652 48.3157 30.9907 48.1409 30.9795C47.9659 30.9684 47.8069 30.9223 47.6635 30.8411C47.5199 30.7598 47.4524 30.6471 47.461 30.5027L47.7515 25.5978C47.3214 25.572 46.8912 25.5482 46.461 25.5265C46.3175 25.5191 46.2117 25.4503 46.1431 25.3202C46.0744 25.19 46.0442 25.0376 46.0527 24.8628C46.0592 24.7148 46.1018 24.5706 46.1769 24.443C46.2525 24.314 46.369 24.2531 46.526 24.2612C47.8834 24.3354 49.2392 24.4217 50.5952 24.5204Z" fill="url(#paint37_linear_164_1296)"/>
</g>
<path fill-rule="evenodd" clip-rule="evenodd" d="M0.0296188 48.265L14.5115 3.84512L15.4628 4.15493L1.08539 48.2544L36.6183 66.9976L61.6374 66.5073L75.0408 21.3578L76 21.6422L62.5134 67.0721C62.439 67.3226 62.211 67.4962 61.9496 67.5014L36.5346 67.9994C36.433 68.0014 36.3325 67.9776 36.2426 67.9302L0.320202 48.9815C0.0617556 48.8452 -0.0609111 48.5427 0.0296188 48.265Z" fill="#FCC055"/>
<path fill-rule="evenodd" clip-rule="evenodd" d="M39.8968 0.00970221C40.0315 -0.00914606 40.1687 0.0182838 40.2857 0.0874963L75.5125 20.9144C76.0116 21.2095 75.8436 21.9702 75.2666 22.0279L50.5879 24.4944C50.465 24.5067 50.3412 24.4807 50.2335 24.4201L14.9994 4.5808C14.499 4.29907 14.642 3.54343 15.2108 3.46385L39.8968 0.00970221ZM39.8969 1.01945L16.5217 4.29018L50.6143 23.4868L73.9529 21.1542L39.8969 1.01945Z" fill="#FCC055"/>
<path fill-rule="evenodd" clip-rule="evenodd" d="M36.0227 67.3468L50.0304 23.8468L50.9829 24.1532L36.9752 67.6532L36.0227 67.3468Z" fill="#FCC055"/>
<defs>
<linearGradient id="paint0_linear_164_1296" x1="18.7661" y1="29.8532" x2="28.3392" y2="35" gradientUnits="userSpaceOnUse">
<stop stop-color="#FDB4BA"/>
<stop offset="1" stop-color="#FE5694"/>
</linearGradient>
<linearGradient id="paint1_linear_164_1296" x1="24.1224" y1="36.2371" x2="24.8429" y2="39.634" gradientUnits="userSpaceOnUse">
<stop stop-color="#FD3581" stop-opacity="0"/>
<stop offset="0.281" stop-color="#FA317D" stop-opacity="0.282"/>
<stop offset="0.56" stop-color="#F02571" stop-opacity="0.56"/>
<stop offset="0.838" stop-color="#DF115E" stop-opacity="0.838"/>
<stop offset="1" stop-color="#D2024E"/>
</linearGradient>
<linearGradient id="paint2_linear_164_1296" x1="25.4307" y1="34.4955" x2="29.3423" y2="38.3042" gradientUnits="userSpaceOnUse">
<stop stop-color="#FDB4BA"/>
<stop offset="1" stop-color="#FE5694"/>
</linearGradient>
<linearGradient id="paint3_linear_164_1296" x1="20.2057" y1="29.3027" x2="28.0289" y2="37.0344" gradientUnits="userSpaceOnUse">
<stop stop-color="#FD3581" stop-opacity="0"/>
<stop offset="0.281" stop-color="#FA317D" stop-opacity="0.282"/>
<stop offset="0.56" stop-color="#F02571" stop-opacity="0.56"/>
<stop offset="0.838" stop-color="#DF115E" stop-opacity="0.838"/>
<stop offset="1" stop-color="#D2024E"/>
</linearGradient>
<linearGradient id="paint4_linear_164_1296" x1="50.8976" y1="30.3268" x2="57.4854" y2="37.1206" gradientUnits="userSpaceOnUse">
<stop stop-color="#FDB4BA"/>
<stop offset="1" stop-color="#FE5694"/>
</linearGradient>
<linearGradient id="paint5_linear_164_1296" x1="55.5536" y1="33.6624" x2="50.4295" y2="32.107" gradientUnits="userSpaceOnUse">
<stop stop-color="#FD3581" stop-opacity="0"/>
<stop offset="0.281" stop-color="#FA317D" stop-opacity="0.282"/>
<stop offset="0.56" stop-color="#F02571" stop-opacity="0.56"/>
<stop offset="0.838" stop-color="#DF115E" stop-opacity="0.838"/>
<stop offset="1" stop-color="#D2024E"/>
</linearGradient>
<linearGradient id="paint6_linear_164_1296" x1="52.0717" y1="35.8189" x2="51.4541" y2="39.9364" gradientUnits="userSpaceOnUse">
<stop stop-color="#FD3581" stop-opacity="0"/>
<stop offset="0.281" stop-color="#FA317D" stop-opacity="0.282"/>
<stop offset="0.56" stop-color="#F02571" stop-opacity="0.56"/>
<stop offset="0.838" stop-color="#DF115E" stop-opacity="0.838"/>
<stop offset="1" stop-color="#D2024E"/>
</linearGradient>
<linearGradient id="paint7_linear_164_1296" x1="47.1198" y1="33.4667" x2="50.2079" y2="37.0694" gradientUnits="userSpaceOnUse">
<stop stop-color="#FDB4BA"/>
<stop offset="1" stop-color="#FE5694"/>
</linearGradient>
<linearGradient id="paint8_linear_164_1296" x1="40.296" y1="27.3959" x2="50.2694" y2="37.0033" gradientUnits="userSpaceOnUse">
<stop stop-color="#FD3581" stop-opacity="0"/>
<stop offset="0.281" stop-color="#FA317D" stop-opacity="0.282"/>
<stop offset="0.56" stop-color="#F02571" stop-opacity="0.56"/>
<stop offset="0.838" stop-color="#DF115E" stop-opacity="0.838"/>
<stop offset="1" stop-color="#D2024E"/>
</linearGradient>
<linearGradient id="paint9_linear_164_1296" x1="37.9998" y1="24.0894" x2="37.9998" y2="36.137" gradientUnits="userSpaceOnUse">
<stop stop-color="#FDB4BA"/>
<stop offset="1" stop-color="#FE5694"/>
</linearGradient>
<linearGradient id="paint10_linear_164_1296" x1="17.5607" y1="41.0234" x2="19.4477" y2="40.854" gradientUnits="userSpaceOnUse">
<stop stop-color="#F1B0A2"/>
<stop offset="1" stop-color="#CA6E59"/>
</linearGradient>
<linearGradient id="paint11_linear_164_1296" x1="56.0193" y1="40.7589" x2="58.4964" y2="41.0066" gradientUnits="userSpaceOnUse">
<stop stop-color="#F1B0A2"/>
<stop offset="1" stop-color="#CA6E59"/>
</linearGradient>
<linearGradient id="paint12_linear_164_1296" x1="42.3914" y1="39.563" x2="42.3913" y2="42.2811" gradientUnits="userSpaceOnUse">
<stop stop-color="#EAF9FA"/>
<stop offset="1" stop-color="#B4D2E2"/>
</linearGradient>
<linearGradient id="paint13_linear_164_1296" x1="31.0272" y1="51.0252" x2="32.638" y2="52.636" gradientUnits="userSpaceOnUse">
<stop stop-color="#C8EFFE"/>
<stop offset="1" stop-color="#62DBFB"/>
</linearGradient>
<linearGradient id="paint14_linear_164_1296" x1="22.18" y1="42.498" x2="24.6466" y2="44.9646" gradientUnits="userSpaceOnUse">
<stop stop-color="#FD4755"/>
<stop offset="1" stop-color="#A72B2B"/>
</linearGradient>
<linearGradient id="paint15_linear_164_1296" x1="51.525" y1="51.0231" x2="53.8351" y2="53.3331" gradientUnits="userSpaceOnUse">
<stop stop-color="#C8EFFE"/>
<stop offset="1" stop-color="#62DBFB"/>
</linearGradient>
<linearGradient id="paint16_linear_164_1296" x1="36.7897" y1="16.9629" x2="39.0998" y2="19.2731" gradientUnits="userSpaceOnUse">
<stop stop-color="#FEF0AE"/>
<stop offset="1" stop-color="#FAC600"/>
</linearGradient>
<linearGradient id="paint17_linear_164_1296" x1="18.0986" y1="17.6626" x2="22.9271" y2="17.6626" gradientUnits="userSpaceOnUse">
<stop stop-color="#C8EFFE"/>
<stop offset="1" stop-color="#62DBFB"/>
</linearGradient>
<linearGradient id="paint18_linear_164_1296" x1="20.1148" y1="21.9422" x2="21.7178" y2="20.3788" gradientUnits="userSpaceOnUse">
<stop stop-color="#07B2CD" stop-opacity="0"/>
<stop offset="0.455" stop-color="#05A5CE" stop-opacity="0.455"/>
<stop offset="1" stop-color="#0290CF"/>
</linearGradient>
<linearGradient id="paint19_linear_164_1296" x1="21.3151" y1="22.5584" x2="21.3151" y2="23.2719" gradientUnits="userSpaceOnUse">
<stop stop-color="#07B2CD" stop-opacity="0"/>
<stop offset="0.455" stop-color="#05A5CE" stop-opacity="0.455"/>
<stop offset="1" stop-color="#0290CF"/>
</linearGradient>
<linearGradient id="paint20_linear_164_1296" x1="21.3151" y1="22.2022" x2="21.3151" y2="23.116" gradientUnits="userSpaceOnUse">
<stop stop-color="#07B2CD" stop-opacity="0"/>
<stop offset="0.455" stop-color="#05A5CE" stop-opacity="0.455"/>
<stop offset="1" stop-color="#0290CF"/>
</linearGradient>
<linearGradient id="paint21_linear_164_1296" x1="20.6461" y1="13.0979" x2="19.142" y2="15.6311" gradientUnits="userSpaceOnUse">
<stop stop-color="#07B2CD" stop-opacity="0"/>
<stop offset="0.455" stop-color="#05A5CE" stop-opacity="0.455"/>
<stop offset="1" stop-color="#0290CF"/>
</linearGradient>
<linearGradient id="paint22_linear_164_1296" x1="50.1376" y1="20.1942" x2="54.5551" y2="15.7766" gradientUnits="userSpaceOnUse">
<stop stop-color="#8BC727"/>
<stop offset="0.132" stop-color="#83C528"/>
<stop offset="0.343" stop-color="#6BBD2B"/>
<stop offset="0.607" stop-color="#45B131"/>
<stop offset="0.911" stop-color="#11A038"/>
<stop offset="1" stop-color="#009B3A"/>
</linearGradient>
<linearGradient id="paint23_linear_164_1296" x1="55.8973" y1="22.265" x2="55.9335" y2="19.3679" gradientUnits="userSpaceOnUse">
<stop stop-color="#026841" stop-opacity="0"/>
<stop offset="0.238" stop-color="#026441" stop-opacity="0.238"/>
<stop offset="0.474" stop-color="#015840" stop-opacity="0.475"/>
<stop offset="0.711" stop-color="#01443F" stop-opacity="0.711"/>
<stop offset="0.946" stop-color="#00283D" stop-opacity="0.946"/>
<stop offset="1" stop-color="#00213D"/>
</linearGradient>
<linearGradient id="paint24_linear_164_1296" x1="57.5592" y1="21.7304" x2="58.2121" y2="22.3832" gradientUnits="userSpaceOnUse">
<stop stop-color="#026841" stop-opacity="0"/>
<stop offset="0.238" stop-color="#026441" stop-opacity="0.238"/>
<stop offset="0.474" stop-color="#015840" stop-opacity="0.475"/>
<stop offset="0.711" stop-color="#01443F" stop-opacity="0.711"/>
<stop offset="0.946" stop-color="#00283D" stop-opacity="0.946"/>
<stop offset="1" stop-color="#00213D"/>
</linearGradient>
<linearGradient id="paint25_linear_164_1296" x1="57.2334" y1="21.4045" x2="58.0694" y2="22.2406" gradientUnits="userSpaceOnUse">
<stop stop-color="#026841" stop-opacity="0"/>
<stop offset="0.238" stop-color="#026441" stop-opacity="0.238"/>
<stop offset="0.474" stop-color="#015840" stop-opacity="0.475"/>
<stop offset="0.711" stop-color="#01443F" stop-opacity="0.711"/>
<stop offset="0.946" stop-color="#00283D" stop-opacity="0.946"/>
<stop offset="1" stop-color="#00213D"/>
</linearGradient>
<linearGradient id="paint26_linear_164_1296" x1="48.292" y1="13.6873" x2="49.2336" y2="17.3811" gradientUnits="userSpaceOnUse">
<stop stop-color="#026841" stop-opacity="0"/>
<stop offset="0.238" stop-color="#026441" stop-opacity="0.238"/>
<stop offset="0.474" stop-color="#015840" stop-opacity="0.475"/>
<stop offset="0.711" stop-color="#01443F" stop-opacity="0.711"/>
<stop offset="0.946" stop-color="#00283D" stop-opacity="0.946"/>
<stop offset="1" stop-color="#00213D"/>
</linearGradient>
<linearGradient id="paint27_linear_164_1296" x1="29.1533" y1="45.1233" x2="30.1043" y2="48.3387" gradientUnits="userSpaceOnUse">
<stop stop-color="#FEF0AE"/>
<stop offset="1" stop-color="#FAC600"/>
</linearGradient>
<linearGradient id="paint28_linear_164_1296" x1="31.6674" y1="44.5484" x2="30.1956" y2="47.8317" gradientUnits="userSpaceOnUse">
<stop stop-color="#FEA613" stop-opacity="0"/>
<stop offset="0.203" stop-color="#FDA215" stop-opacity="0.203"/>
<stop offset="0.405" stop-color="#FB961B" stop-opacity="0.405"/>
<stop offset="0.607" stop-color="#F68225" stop-opacity="0.607"/>
<stop offset="0.807" stop-color="#F06633" stop-opacity="0.807"/>
<stop offset="1" stop-color="#E94444"/>
</linearGradient>
<linearGradient id="paint29_linear_164_1296" x1="35.7338" y1="33.6672" x2="38.0095" y2="35.9429" gradientUnits="userSpaceOnUse">
<stop stop-color="#FEF0AE"/>
<stop offset="1" stop-color="#FAC600"/>
</linearGradient>
<linearGradient id="paint30_linear_164_1296" x1="36.8416" y1="37.7468" x2="35.5607" y2="34.3844" gradientUnits="userSpaceOnUse">
<stop stop-color="#FEA613" stop-opacity="0"/>
<stop offset="0.203" stop-color="#FDA215" stop-opacity="0.203"/>
<stop offset="0.405" stop-color="#FB961B" stop-opacity="0.405"/>
<stop offset="0.607" stop-color="#F68225" stop-opacity="0.607"/>
<stop offset="0.807" stop-color="#F06633" stop-opacity="0.807"/>
<stop offset="1" stop-color="#E94444"/>
</linearGradient>
<linearGradient id="paint31_linear_164_1296" x1="47.2982" y1="47.0291" x2="45.0226" y2="49.3048" gradientUnits="userSpaceOnUse">
<stop stop-color="#8BC727"/>
<stop offset="0.132" stop-color="#83C528"/>
<stop offset="0.343" stop-color="#6BBD2B"/>
<stop offset="0.607" stop-color="#45B131"/>
<stop offset="0.911" stop-color="#11A038"/>
<stop offset="1" stop-color="#009B3A"/>
</linearGradient>
<linearGradient id="paint32_linear_164_1296" x1="43.1944" y1="48.0944" x2="46.5568" y2="46.8135" gradientUnits="userSpaceOnUse">
<stop stop-color="#026841" stop-opacity="0"/>
<stop offset="0.238" stop-color="#026441" stop-opacity="0.238"/>
<stop offset="0.474" stop-color="#015840" stop-opacity="0.475"/>
<stop offset="0.711" stop-color="#01443F" stop-opacity="0.711"/>
<stop offset="0.946" stop-color="#00283D" stop-opacity="0.946"/>
<stop offset="1" stop-color="#00213D"/>
</linearGradient>
<linearGradient id="paint33_linear_164_1296" x1="27.3541" y1="27.1033" x2="27.3541" y2="31.2426" gradientUnits="userSpaceOnUse">
<stop stop-color="#EAF9FA"/>
<stop offset="1" stop-color="#B4D2E2"/>
</linearGradient>
<linearGradient id="paint34_linear_164_1296" x1="32.3282" y1="27.1034" x2="32.3282" y2="31.2426" gradientUnits="userSpaceOnUse">
<stop stop-color="#EAF9FA"/>
<stop offset="1" stop-color="#B4D2E2"/>
</linearGradient>
<linearGradient id="paint35_linear_164_1296" x1="37.8162" y1="27.1033" x2="37.8162" y2="31.2426" gradientUnits="userSpaceOnUse">
<stop stop-color="#EAF9FA"/>
<stop offset="1" stop-color="#B4D2E2"/>
</linearGradient>
<linearGradient id="paint36_linear_164_1296" x1="43.0302" y1="27.1032" x2="43.0302" y2="31.2424" gradientUnits="userSpaceOnUse">
<stop stop-color="#EAF9FA"/>
<stop offset="1" stop-color="#B4D2E2"/>
</linearGradient>
<linearGradient id="paint37_linear_164_1296" x1="48.5214" y1="27.1033" x2="48.5214" y2="31.2426" gradientUnits="userSpaceOnUse">
<stop stop-color="#EAF9FA"/>
<stop offset="1" stop-color="#B4D2E2"/>
</linearGradient>
<clipPath id="clip0_164_1296">
<rect width="44" height="44" fill="white" transform="translate(16 12)"/>
</clipPath>
</defs>
</svg>
