<svg width="77" height="68" viewBox="0 0 77 68" fill="none" xmlns="http://www.w3.org/2000/svg">
<path fill-rule="evenodd" clip-rule="evenodd" d="M62.0304 67L25.4906 47.0278L25.9602 46.1493L62.5 66.1215L62.0304 67Z" fill="#FCC055"/>
<path fill-rule="evenodd" clip-rule="evenodd" d="M62.0304 67L25.4906 47.0278L25.9602 46.1493L62.5 66.1215L62.0304 67Z" fill="black" fill-opacity="0.2"/>
<path fill-rule="evenodd" clip-rule="evenodd" d="M25.3589 46.111L40.0689 0L41.0088 0.306576L26.2161 46.677C26.1412 46.9117 25.9318 47.076 25.6883 47.0911L1.56035 48.5849L1.5 47.5881L25.3589 46.111Z" fill="#FCC055"/>
<path fill-rule="evenodd" clip-rule="evenodd" d="M25.3589 46.111L40.0689 0L41.0088 0.306576L26.2161 46.677C26.1412 46.9117 25.9318 47.076 25.6883 47.0911L1.56035 48.5849L1.5 47.5881L25.3589 46.111Z" fill="black" fill-opacity="0.2"/>
<g clip-path="url(#clip0_172_4754)">
<path d="M51.9724 27.665H39.765C34.7792 27.665 30.7373 31.7069 30.7373 36.6928V43.0964C30.7373 48.0822 34.7791 52.1241 39.765 52.1241H46.7716C46.896 52.1241 47.0082 52.1927 47.0707 52.3003C48.0794 54.0377 50.179 55.2756 52.9367 55.9883C53.2777 56.0764 53.5065 55.6519 53.2518 55.4088C52.2217 54.4254 51.7157 53.4538 51.6307 52.5023C51.6126 52.2998 51.7691 52.1241 51.9725 52.1241C56.9583 52.1241 61.0002 48.0823 61.0002 43.0964V36.6929C61.0001 31.7069 56.9582 27.665 51.9724 27.665Z" fill="url(#paint0_linear_172_4754)"/>
<path d="M51.9719 27.665H43.873V52.1241H46.7711C46.8955 52.1241 47.0077 52.1926 47.0702 52.3002C48.0789 54.0376 50.1785 55.2756 52.9362 55.9882C53.2772 56.0763 53.506 55.6518 53.2513 55.4087C52.2212 54.4253 51.7152 53.4537 51.6302 52.5022C51.6121 52.2997 51.7686 52.1241 51.972 52.1241C56.9579 52.1241 60.9997 48.0822 60.9997 43.0963V36.6928C60.9996 31.7069 56.9577 27.665 51.9719 27.665Z" fill="url(#paint1_linear_172_4754)"/>
<path d="M61.0002 36.8408V43.0962C61.0002 48.082 56.9584 52.1239 51.9725 52.1239C51.7691 52.1239 51.6126 52.2996 51.6307 52.5021C51.7158 53.4535 52.2217 54.4252 53.2518 55.4086C53.5065 55.6518 53.2777 56.0763 52.9367 55.9881C50.1791 55.2754 48.0794 54.0375 47.0707 52.3001C47.0083 52.1926 46.896 52.1239 46.7716 52.1239H39.765C34.7792 52.1239 30.7373 48.0821 30.7373 43.0962V36.8408H61.0002Z" fill="url(#paint2_linear_172_4754)"/>
<path d="M51.9726 52.124C56.0818 52.124 59.5494 49.3783 60.6418 45.6216L47.9318 32.9116V42.4228H42.6225L40.2627 46.166L46.2207 52.124H46.7719C46.8962 52.124 47.0084 52.1926 47.0709 52.3002C48.0797 54.0375 50.1793 55.2755 52.9369 55.9882C53.2779 56.0762 53.5068 55.6517 53.2521 55.4086C52.2219 54.4252 51.7159 53.4536 51.6309 52.5021C51.6127 52.2996 51.7693 52.124 51.9726 52.124Z" fill="url(#paint3_linear_172_4754)"/>
<path d="M47.9497 42.38L45.8587 34.7031L43.7676 42.38H47.9497Z" fill="url(#paint4_linear_172_4754)"/>
<path d="M41.9963 46.8341C41.7795 46.8341 41.5523 46.8005 41.3154 46.7323C41.0782 46.6647 40.8581 46.5732 40.6549 46.458C40.4516 46.343 40.2856 46.2075 40.1569 46.0514C40.028 45.8957 39.9639 45.7231 39.9639 45.5332C39.9639 45.4925 39.9772 45.4182 40.0044 45.3096L43.7849 32.9116C43.8931 32.5594 44.1472 32.2953 44.547 32.1191C44.9466 31.9432 45.3834 31.855 45.8581 31.855C46.3322 31.855 46.7691 31.9431 47.169 32.1191C47.5684 32.2953 47.8225 32.5594 47.931 32.9116L51.7319 45.3096C51.7589 45.4182 51.7725 45.4925 51.7725 45.5332C51.7725 45.7231 51.708 45.8957 51.5794 46.0514C51.4504 46.2075 51.2848 46.343 51.0814 46.458C50.8782 46.5733 50.6577 46.6648 50.4207 46.7323C50.1836 46.8005 49.9566 46.8341 49.74 46.8341C49.4825 46.8341 49.2623 46.7903 49.0793 46.7021C48.8965 46.6141 48.7711 46.4613 48.7035 46.2446L48.0123 43.704H43.7239L43.0328 46.2446C42.9649 46.4613 42.8398 46.6141 42.6569 46.7021C42.4739 46.7903 42.2536 46.8341 41.9963 46.8341ZM47.3419 41.2651L45.8581 35.818L44.3744 41.2651H47.3419Z" fill="url(#paint5_linear_172_4754)"/>
<path d="M26.0277 12H38.2351C43.2209 12 47.2628 16.0418 47.2628 21.0277V27.4314C47.2628 32.4172 43.221 36.4591 38.2351 36.4591H31.2285C31.1041 36.4591 30.9919 36.5277 30.9294 36.6353C29.9207 38.3727 27.8211 39.6107 25.0634 40.3233C24.7224 40.4114 24.4936 39.9868 24.7483 39.7437C25.7784 38.7603 26.2844 37.7887 26.3694 36.8372C26.3876 36.6348 26.231 36.4591 26.0276 36.4591C21.0418 36.459 17 32.4172 17 27.4313V21.0277C17 16.0418 21.0418 12 26.0277 12Z" fill="url(#paint6_linear_172_4754)"/>
<path d="M38.2352 12H30.7803V36.8719C30.8315 36.7937 30.883 36.7155 30.9295 36.6352C30.9919 36.5277 31.1043 36.459 31.2286 36.459H38.2352C43.221 36.459 47.2629 32.4172 47.2629 27.4313V21.0277C47.2629 16.0418 43.2211 12 38.2352 12Z" fill="url(#paint7_linear_172_4754)"/>
<path d="M17 21.1758V27.4312C17 32.417 21.0418 36.4589 26.0277 36.4589C26.2311 36.4589 26.3876 36.6346 26.3695 36.837C26.2845 37.7885 25.7785 38.7601 24.7484 39.7435C24.4937 39.9867 24.7225 40.4113 25.0635 40.3231C27.8211 39.6104 29.9208 38.3725 30.9295 36.6351C30.9919 36.5276 31.1042 36.4589 31.2286 36.4589H38.2352C43.221 36.4589 47.2629 32.4171 47.2629 27.4312V21.1758H17Z" fill="url(#paint8_linear_172_4754)"/>
<path d="M29.3818 17.3372H34.7279V28.4291H29.3818V17.3372Z" fill="url(#paint9_linear_172_4754)"/>
<path d="M29.3818 17.3372H34.7279V23.4827H29.3818V17.3372Z" fill="url(#paint10_linear_172_4754)"/>
<path d="M47.2225 28.2879L35.8991 16.9644V24.9816L31.4014 32.4625L35.3979 36.459H38.2355C42.9325 36.459 46.7911 32.8719 47.2225 28.2879Z" fill="url(#paint11_linear_172_4754)"/>
<path d="M47.26 27.665H39.765C34.7792 27.665 30.7373 31.7069 30.7373 36.6928V36.9407C30.8049 36.8412 30.869 36.7393 30.9295 36.6354C30.9919 36.5279 31.1043 36.4592 31.2286 36.4592H38.2352C43.1431 36.4591 47.1362 32.5429 47.26 27.665Z" fill="url(#paint12_linear_172_4754)"/>
<path d="M46.1015 31.8639C46.0206 31.8582 45.9396 31.8553 45.8585 31.855C45.3839 31.855 44.947 31.9431 44.5474 32.1191C44.1477 32.2953 43.8935 32.5594 43.7853 32.9116L43.1465 35.0067C44.3699 34.212 45.3836 33.1339 46.1015 31.8639Z" fill="url(#paint13_linear_172_4754)"/>
<path d="M32.1211 32.754C31.8771 32.754 31.6536 32.6725 31.4503 32.5101C31.2471 32.3472 31.1455 32.1033 31.1455 31.7782V30.5993C30.5627 30.5317 30.0276 30.3895 29.5398 30.1725C29.0521 29.9558 28.6285 29.6577 28.2696 29.2783C27.9103 28.8992 27.6325 28.4281 27.4362 27.8658C27.2397 27.3035 27.1416 26.6359 27.1416 25.8636V20.4776C27.1416 19.5969 27.2702 18.8517 27.5278 18.2417C27.7849 17.6321 28.1374 17.1377 28.5846 16.758C29.0317 16.379 29.5567 16.1047 30.1597 15.935C30.7626 15.7657 31.4165 15.6812 32.1212 15.6812C32.8254 15.6812 33.4828 15.7656 34.0926 15.935C34.7024 16.1047 35.2307 16.379 35.6779 16.758C36.1252 17.1377 36.4772 17.6321 36.7348 18.2417C36.9921 18.8517 37.121 19.5969 37.121 20.4776V25.8637C37.121 26.636 37.0194 27.3037 36.8162 27.8659C36.6129 28.4282 36.3315 28.8993 35.9726 29.2784C35.6135 29.6578 35.1902 29.9559 34.7025 30.1726C34.2146 30.3896 33.6792 30.5318 33.0967 30.5994V31.7783C33.0967 32.1033 32.9951 32.3472 32.7919 32.5102C32.5884 32.6725 32.365 32.754 32.1211 32.754ZM33.9502 20.4776C33.9502 19.7865 33.7877 19.2751 33.4625 18.9432C33.1373 18.6112 32.6902 18.4452 32.1211 18.4452C31.5518 18.4452 31.1079 18.6112 30.7898 18.9432C30.4713 19.2751 30.3121 19.7864 30.3121 20.4776V25.8637C30.3121 26.7716 30.5898 27.3815 31.1455 27.693V26.7987C31.1455 26.4601 31.2471 26.2162 31.4503 26.0671C31.6536 25.918 31.8771 25.8435 32.1211 25.8435C32.365 25.8435 32.5884 25.918 32.7917 26.0671C32.9951 26.2162 33.0966 26.4601 33.0966 26.7987V27.693C33.3676 27.5442 33.5775 27.3203 33.7267 27.0221C33.8757 26.7245 33.9503 26.3382 33.9503 25.8637V20.4776H33.9502Z" fill="url(#paint14_linear_172_4754)"/>
</g>
<path fill-rule="evenodd" clip-rule="evenodd" d="M0.529619 48.265L15.0115 3.84512L15.9628 4.15493L1.58539 48.2544L37.1183 66.9976L62.1374 66.5073L75.5408 21.3578L76.5 21.6422L63.0134 67.0721C62.939 67.3226 62.711 67.4962 62.4496 67.5014L37.0346 67.9994C36.933 68.0014 36.8325 67.9776 36.7426 67.9302L0.820202 48.9815C0.561756 48.8452 0.439089 48.5427 0.529619 48.265Z" fill="#FCC055"/>
<path fill-rule="evenodd" clip-rule="evenodd" d="M40.3968 0.00970221C40.5315 -0.00914606 40.6687 0.0182838 40.7857 0.0874963L76.0125 20.9144C76.5116 21.2095 76.3436 21.9702 75.7666 22.0279L51.0879 24.4944C50.965 24.5067 50.8412 24.4807 50.7335 24.4201L15.4994 4.5808C14.999 4.29907 15.142 3.54343 15.7108 3.46385L40.3968 0.00970221ZM40.3969 1.01945L17.0217 4.29018L51.1143 23.4868L74.4529 21.1542L40.3969 1.01945Z" fill="#FCC055"/>
<path fill-rule="evenodd" clip-rule="evenodd" d="M36.5227 67.3468L50.5304 23.8468L51.4829 24.1532L37.4752 67.6532L36.5227 67.3468Z" fill="#FCC055"/>
<defs>
<linearGradient id="paint0_linear_172_4754" x1="41.7988" y1="30.6905" x2="51.3412" y2="52.2707" gradientUnits="userSpaceOnUse">
<stop stop-color="#B3DAFE"/>
<stop offset="1" stop-color="#0182FC"/>
</linearGradient>
<linearGradient id="paint1_linear_172_4754" x1="55.0302" y1="41.8325" x2="60.906" y2="41.8325" gradientUnits="userSpaceOnUse">
<stop stop-color="#314DC9" stop-opacity="0"/>
<stop offset="0.276" stop-color="#304BC4" stop-opacity="0.276"/>
<stop offset="0.563" stop-color="#2B45B8" stop-opacity="0.563"/>
<stop offset="0.854" stop-color="#243BA3" stop-opacity="0.854"/>
<stop offset="1" stop-color="#1F3596"/>
</linearGradient>
<linearGradient id="paint2_linear_172_4754" x1="45.8688" y1="45.3739" x2="45.8688" y2="53.0606" gradientUnits="userSpaceOnUse">
<stop stop-color="#314DC9" stop-opacity="0"/>
<stop offset="0.276" stop-color="#304BC4" stop-opacity="0.276"/>
<stop offset="0.563" stop-color="#2B45B8" stop-opacity="0.563"/>
<stop offset="0.854" stop-color="#243BA3" stop-opacity="0.854"/>
<stop offset="1" stop-color="#1F3596"/>
</linearGradient>
<linearGradient id="paint3_linear_172_4754" x1="54.2454" y1="47.3412" x2="41.7454" y2="39.2683" gradientUnits="userSpaceOnUse">
<stop stop-color="#314DC9" stop-opacity="0"/>
<stop offset="0.276" stop-color="#304BC4" stop-opacity="0.276"/>
<stop offset="0.563" stop-color="#2B45B8" stop-opacity="0.563"/>
<stop offset="0.854" stop-color="#243BA3" stop-opacity="0.854"/>
<stop offset="1" stop-color="#1F3596"/>
</linearGradient>
<linearGradient id="paint4_linear_172_4754" x1="47.3305" y1="39.3077" x2="44.9346" y2="38.5786" gradientUnits="userSpaceOnUse">
<stop stop-color="#314DC9" stop-opacity="0"/>
<stop offset="0.276" stop-color="#304BC4" stop-opacity="0.276"/>
<stop offset="0.563" stop-color="#2B45B8" stop-opacity="0.563"/>
<stop offset="0.854" stop-color="#243BA3" stop-opacity="0.854"/>
<stop offset="1" stop-color="#1F3596"/>
</linearGradient>
<linearGradient id="paint5_linear_172_4754" x1="41.1238" y1="37.2514" x2="49.578" y2="43.3777" gradientUnits="userSpaceOnUse">
<stop stop-color="#F5FBFF"/>
<stop offset="1" stop-color="#D8ECFE"/>
</linearGradient>
<linearGradient id="paint6_linear_172_4754" x1="26.7628" y1="13.4921" x2="36.4088" y2="32.7844" gradientUnits="userSpaceOnUse">
<stop stop-color="#F5FBFF"/>
<stop offset="1" stop-color="#D8ECFE"/>
</linearGradient>
<linearGradient id="paint7_linear_172_4754" x1="41.4467" y1="24.4359" x2="47.3223" y2="24.4359" gradientUnits="userSpaceOnUse">
<stop stop-color="#B3DAFE" stop-opacity="0"/>
<stop offset="0.431" stop-color="#B1D9FE" stop-opacity="0.432"/>
<stop offset="0.666" stop-color="#A9D6FE" stop-opacity="0.666"/>
<stop offset="0.852" stop-color="#9BD0FE" stop-opacity="0.852"/>
<stop offset="1" stop-color="#8AC9FE"/>
</linearGradient>
<linearGradient id="paint8_linear_172_4754" x1="32.1314" y1="29.7089" x2="32.1314" y2="37.3955" gradientUnits="userSpaceOnUse">
<stop stop-color="#B3DAFE" stop-opacity="0"/>
<stop offset="0.431" stop-color="#B1D9FE" stop-opacity="0.432"/>
<stop offset="0.666" stop-color="#A9D6FE" stop-opacity="0.666"/>
<stop offset="0.852" stop-color="#9BD0FE" stop-opacity="0.852"/>
<stop offset="1" stop-color="#8AC9FE"/>
</linearGradient>
<linearGradient id="paint9_linear_172_4754" x1="33.329" y1="22.8831" x2="29.9814" y2="22.8831" gradientUnits="userSpaceOnUse">
<stop stop-color="#B3DAFE" stop-opacity="0"/>
<stop offset="0.431" stop-color="#B1D9FE" stop-opacity="0.432"/>
<stop offset="0.666" stop-color="#A9D6FE" stop-opacity="0.666"/>
<stop offset="0.852" stop-color="#9BD0FE" stop-opacity="0.852"/>
<stop offset="1" stop-color="#8AC9FE"/>
</linearGradient>
<linearGradient id="paint10_linear_172_4754" x1="32.0549" y1="21.7339" x2="32.0549" y2="18.4767" gradientUnits="userSpaceOnUse">
<stop stop-color="#B3DAFE" stop-opacity="0"/>
<stop offset="0.431" stop-color="#B1D9FE" stop-opacity="0.432"/>
<stop offset="0.666" stop-color="#A9D6FE" stop-opacity="0.666"/>
<stop offset="0.852" stop-color="#9BD0FE" stop-opacity="0.852"/>
<stop offset="1" stop-color="#8AC9FE"/>
</linearGradient>
<linearGradient id="paint11_linear_172_4754" x1="42.1895" y1="28.8538" x2="33.6457" y2="26.0559" gradientUnits="userSpaceOnUse">
<stop stop-color="#B3DAFE" stop-opacity="0"/>
<stop offset="0.431" stop-color="#B1D9FE" stop-opacity="0.432"/>
<stop offset="0.666" stop-color="#A9D6FE" stop-opacity="0.666"/>
<stop offset="0.852" stop-color="#9BD0FE" stop-opacity="0.852"/>
<stop offset="1" stop-color="#8AC9FE"/>
</linearGradient>
<linearGradient id="paint12_linear_172_4754" x1="32.6213" y1="28.1806" x2="48.7333" y2="38.5952" gradientUnits="userSpaceOnUse">
<stop stop-color="#314DC9" stop-opacity="0"/>
<stop offset="0.276" stop-color="#304BC4" stop-opacity="0.276"/>
<stop offset="0.563" stop-color="#2B45B8" stop-opacity="0.563"/>
<stop offset="0.854" stop-color="#243BA3" stop-opacity="0.854"/>
<stop offset="1" stop-color="#1F3596"/>
</linearGradient>
<linearGradient id="paint13_linear_172_4754" x1="42.4464" y1="30.2261" x2="45.3564" y2="34.5144" gradientUnits="userSpaceOnUse">
<stop stop-color="white"/>
<stop offset="1" stop-color="#EAF6FF" stop-opacity="0"/>
</linearGradient>
<linearGradient id="paint14_linear_172_4754" x1="25.4061" y1="20.0453" x2="39.0063" y2="27.6418" gradientUnits="userSpaceOnUse">
<stop stop-color="#B3DAFE"/>
<stop offset="1" stop-color="#0182FC"/>
</linearGradient>
<clipPath id="clip0_172_4754">
<rect width="44" height="44" fill="white" transform="translate(17 12)"/>
</clipPath>
</defs>
</svg>
