<svg width="76" height="68" viewBox="0 0 76 68" fill="none" xmlns="http://www.w3.org/2000/svg">
<path fill-rule="evenodd" clip-rule="evenodd" d="M61.5304 66.9995L24.9906 47.0273L25.4602 46.1489L62 66.121L61.5304 66.9995Z" fill="#CB725E"/>
<path fill-rule="evenodd" clip-rule="evenodd" d="M61.5304 66.9995L24.9906 47.0273L25.4602 46.1489L62 66.121L61.5304 66.9995Z" fill="black" fill-opacity="0.2"/>
<path fill-rule="evenodd" clip-rule="evenodd" d="M24.8589 46.1105L39.5689 -0.000488281L40.5088 0.306087L25.7161 46.6765C25.6412 46.9112 25.4318 47.0756 25.1883 47.0906L1.06035 48.5844L1 47.5876L24.8589 46.1105Z" fill="#CB725E"/>
<path fill-rule="evenodd" clip-rule="evenodd" d="M24.8589 46.1105L39.5689 -0.000488281L40.5088 0.306087L25.7161 46.6765C25.6412 46.9112 25.4318 47.0756 25.1883 47.0906L1.06035 48.5844L1 47.5876L24.8589 46.1105Z" fill="black" fill-opacity="0.2"/>
<g clip-path="url(#clip0_218_410)">
<path d="M38.1216 11.9999C28.6013 11.9327 20.8638 19.6304 20.8638 29.1349C20.8638 33.0015 22.1446 36.5679 24.3032 39.4352L35.3877 54.6688C36.678 56.443 39.3216 56.443 40.6119 54.6688L51.6964 39.4352C53.8287 36.6026 55.1054 33.0876 55.1358 29.2766C55.2114 19.8446 47.5536 12.0651 38.1216 11.9999ZM37.9998 38.5627C32.7934 38.5627 28.573 34.3422 28.573 29.1349C28.573 23.9286 32.7934 19.7081 37.9998 19.7081C43.2061 19.7081 47.4265 23.9286 47.4265 29.1349C47.4265 34.3422 43.2061 38.5627 37.9998 38.5627Z" fill="url(#paint0_linear_218_410)"/>
<path d="M37.9998 17.0342C31.3164 17.0342 25.8979 22.4515 25.8979 29.135C25.8979 35.8185 31.3163 41.2368 37.9998 41.2368C44.6834 41.2368 50.1017 35.8185 50.1017 29.135C50.1016 22.4515 44.6833 17.0342 37.9998 17.0342ZM37.9998 37.6348C33.3058 37.6348 29.5011 33.829 29.5011 29.135C29.5011 24.441 33.3058 20.6363 37.9998 20.6363C42.6938 20.6363 46.4985 24.441 46.4985 29.135C46.4985 33.8289 42.6938 37.6348 37.9998 37.6348Z" fill="url(#paint1_linear_218_410)"/>
<path d="M46.4985 29.1346C46.4985 33.8286 42.6938 37.6344 37.9998 37.6344C33.3058 37.6344 29.5011 33.8286 29.5011 29.1346C29.5001 27.9545 29.7459 26.7871 30.2226 25.7075H21.207C20.9783 26.8355 20.8633 27.9837 20.8638 29.1346C20.8638 33.0013 22.1446 36.5677 24.3032 39.4349L35.3877 54.6685C36.678 56.4428 39.3216 56.4428 40.6119 54.6685L51.6964 39.4349C53.8287 36.6023 55.1054 33.0874 55.1358 29.2763C55.1456 28.0778 55.0289 26.8816 54.7878 25.7075H45.7769C46.2537 26.7871 46.4995 27.9544 46.4985 29.1346Z" fill="url(#paint2_linear_218_410)"/>
<path d="M38.1215 12C37.1311 11.9928 36.142 12.071 35.165 12.2335V21.1222C36.0754 20.8 37.034 20.6357 37.9997 20.6362C42.6937 20.6362 46.4984 24.4409 46.4984 29.1349C46.4984 33.8289 42.6937 37.6346 37.9997 37.6346C37.034 37.6351 36.0754 37.4707 35.165 37.1484V54.3628L35.3876 54.6687C36.6779 56.443 39.3215 56.443 40.6118 54.6687L51.6963 39.4351C53.8286 36.6025 55.1053 33.0876 55.1357 29.2765C55.2113 19.8446 47.5535 12.0651 38.1215 12Z" fill="url(#paint3_linear_218_410)"/>
<path d="M38.1215 12C37.1311 11.9928 36.142 12.071 35.165 12.2335V21.1222C36.0754 20.8 37.034 20.6357 37.9997 20.6362C42.6937 20.6362 46.4984 24.4409 46.4984 29.1349C46.4984 33.8289 42.6937 37.6346 37.9997 37.6346C37.034 37.6351 36.0754 37.4707 35.165 37.1484V54.3628L35.3876 54.6687C36.6779 56.443 39.3215 56.443 40.6118 54.6687L51.6963 39.4351C53.8286 36.6025 55.1053 33.0876 55.1357 29.2765C55.2113 19.8446 47.5535 12.0651 38.1215 12Z" fill="url(#paint4_linear_218_410)"/>
<path d="M38 35.2778C41.3924 35.2778 44.1425 32.5277 44.1425 29.1352C44.1425 25.7428 41.3924 22.9927 38 22.9927C34.6075 22.9927 31.8574 25.7428 31.8574 29.1352C31.8574 32.5277 34.6075 35.2778 38 35.2778Z" fill="url(#paint5_linear_218_410)"/>
<path d="M31.8569 29.1356C31.8569 32.5281 34.607 35.2782 37.9995 35.2782C41.392 35.2782 44.142 32.528 44.142 29.1356C44.142 28.4008 44.0126 27.6965 43.776 27.0435H32.2229C31.9801 27.7142 31.8563 28.4222 31.8569 29.1356Z" fill="url(#paint6_linear_218_410)"/>
<path d="M33.6561 33.4788C36.055 35.8776 39.9443 35.8776 42.343 33.4788C44.7419 31.0799 44.7419 27.1906 42.343 24.7919C41.8391 24.287 41.2508 23.8739 40.6049 23.5713L32.4355 31.7406C32.7382 32.3866 33.1512 32.9748 33.6561 33.4788Z" fill="url(#paint7_linear_218_410)"/>
</g>
<path fill-rule="evenodd" clip-rule="evenodd" d="M0.0296188 48.2645L14.5115 3.84463L15.4628 4.15444L1.08539 48.2539L36.6183 66.9971L61.6374 66.5068L75.0408 21.3573L76 21.6418L62.5134 67.0717C62.439 67.3222 62.211 67.4958 61.9496 67.5009L36.5346 67.9989C36.433 68.0009 36.3325 67.9771 36.2426 67.9297L0.320202 48.981C0.0617556 48.8447 -0.0609111 48.5422 0.0296188 48.2645Z" fill="#CB725E"/>
<path fill-rule="evenodd" clip-rule="evenodd" d="M39.8968 0.00921393C40.0315 -0.00963434 40.1687 0.0177955 40.2857 0.087008L75.5125 20.914C76.0116 21.209 75.8436 21.9697 75.2666 22.0274L50.5879 24.4939C50.465 24.5062 50.3412 24.4803 50.2335 24.4196L14.9994 4.58031C14.499 4.29858 14.642 3.54294 15.2108 3.46336L39.8968 0.00921393ZM39.8969 1.01896L16.5217 4.28969L50.6143 23.4863L73.9529 21.1537L39.8969 1.01896Z" fill="#CB725E"/>
<path fill-rule="evenodd" clip-rule="evenodd" d="M36.0227 67.3464L50.0304 23.8464L50.9829 24.1527L36.9752 67.6527L36.0227 67.3464Z" fill="#CB725E"/>
<defs>
<linearGradient id="paint0_linear_218_410" x1="20.7954" y1="33.9995" x2="48.5611" y2="33.9995" gradientUnits="userSpaceOnUse">
<stop stop-color="#FFA1AE"/>
<stop offset="1" stop-color="#FF4565"/>
</linearGradient>
<linearGradient id="paint1_linear_218_410" x1="46.4694" y1="37.6048" x2="30.4972" y2="21.6326" gradientUnits="userSpaceOnUse">
<stop stop-color="#FFA1AE"/>
<stop offset="1" stop-color="#FF4565"/>
</linearGradient>
<linearGradient id="paint2_linear_218_410" x1="42.485" y1="38.1485" x2="49.2207" y2="43.612" gradientUnits="userSpaceOnUse">
<stop stop-color="#FE0364" stop-opacity="0"/>
<stop offset="0.234" stop-color="#F90362" stop-opacity="0.234"/>
<stop offset="0.517" stop-color="#EA035B" stop-opacity="0.517"/>
<stop offset="0.824" stop-color="#D20250" stop-opacity="0.824"/>
<stop offset="1" stop-color="#C00148"/>
</linearGradient>
<linearGradient id="paint3_linear_218_410" x1="44.8178" y1="34.9591" x2="53.6492" y2="36.3063" gradientUnits="userSpaceOnUse">
<stop stop-color="#FE0364" stop-opacity="0"/>
<stop offset="0.234" stop-color="#F90362" stop-opacity="0.234"/>
<stop offset="0.517" stop-color="#EA035B" stop-opacity="0.517"/>
<stop offset="0.824" stop-color="#D20250" stop-opacity="0.824"/>
<stop offset="1" stop-color="#C00148"/>
</linearGradient>
<linearGradient id="paint4_linear_218_410" x1="49.0061" y1="29.8026" x2="54.6942" y2="27.7819" gradientUnits="userSpaceOnUse">
<stop stop-color="#FE0364" stop-opacity="0"/>
<stop offset="0.234" stop-color="#F90362" stop-opacity="0.234"/>
<stop offset="0.517" stop-color="#EA035B" stop-opacity="0.517"/>
<stop offset="0.824" stop-color="#D20250" stop-opacity="0.824"/>
<stop offset="1" stop-color="#C00148"/>
</linearGradient>
<linearGradient id="paint5_linear_218_410" x1="34.804" y1="25.9393" x2="40.258" y2="31.3932" gradientUnits="userSpaceOnUse">
<stop stop-color="#F5FBFF"/>
<stop offset="1" stop-color="#DBD5EF"/>
</linearGradient>
<linearGradient id="paint6_linear_218_410" x1="37.9996" y1="28.8188" x2="37.9996" y2="35.5164" gradientUnits="userSpaceOnUse">
<stop stop-color="#DBD5EF" stop-opacity="0"/>
<stop offset="0.285" stop-color="#D9D2EE" stop-opacity="0.285"/>
<stop offset="0.474" stop-color="#D4C9E9" stop-opacity="0.474"/>
<stop offset="0.635" stop-color="#CBBAE2" stop-opacity="0.635"/>
<stop offset="0.779" stop-color="#BFA5D7" stop-opacity="0.78"/>
<stop offset="0.913" stop-color="#AF8ACA" stop-opacity="0.913"/>
<stop offset="1" stop-color="#A274BF"/>
</linearGradient>
<linearGradient id="paint7_linear_218_410" x1="37.6009" y1="28.7914" x2="42.9511" y2="33.4065" gradientUnits="userSpaceOnUse">
<stop stop-color="#DBD5EF" stop-opacity="0"/>
<stop offset="0.285" stop-color="#D9D2EE" stop-opacity="0.285"/>
<stop offset="0.474" stop-color="#D4C9E9" stop-opacity="0.474"/>
<stop offset="0.635" stop-color="#CBBAE2" stop-opacity="0.635"/>
<stop offset="0.779" stop-color="#BFA5D7" stop-opacity="0.78"/>
<stop offset="0.913" stop-color="#AF8ACA" stop-opacity="0.913"/>
<stop offset="1" stop-color="#A274BF"/>
</linearGradient>
<clipPath id="clip0_218_410">
<rect width="44" height="44" fill="white" transform="translate(16 11.9995)"/>
</clipPath>
</defs>
</svg>
