<svg width="76" height="68" viewBox="0 0 76 68" fill="none" xmlns="http://www.w3.org/2000/svg">
<path fill-rule="evenodd" clip-rule="evenodd" d="M61.5304 67L24.9906 47.0278L25.4602 46.1493L62 66.1215L61.5304 67Z" fill="#FCC055"/>
<path fill-rule="evenodd" clip-rule="evenodd" d="M61.5304 67L24.9906 47.0278L25.4602 46.1493L62 66.1215L61.5304 67Z" fill="black" fill-opacity="0.2"/>
<path fill-rule="evenodd" clip-rule="evenodd" d="M24.8589 46.111L39.5689 0L40.5088 0.306576L25.7161 46.677C25.6412 46.9117 25.4318 47.076 25.1883 47.0911L1.06035 48.5849L1 47.5881L24.8589 46.111Z" fill="#FCC055"/>
<path fill-rule="evenodd" clip-rule="evenodd" d="M24.8589 46.111L39.5689 0L40.5088 0.306576L25.7161 46.677C25.6412 46.9117 25.4318 47.076 25.1883 47.0911L1.06035 48.5849L1 47.5881L24.8589 46.111Z" fill="black" fill-opacity="0.2"/>
<g clip-path="url(#clip0_171_4137)">
<path d="M36.642 19.8832V22.8523C36.642 23.4145 36.4829 23.9652 36.1832 24.4408C35.8835 24.9165 35.4554 25.2977 34.9483 25.5404L30.9627 27.4474C29.5352 28.131 27.8638 27.1821 27.7182 25.6062L27.5642 23.9292C27.4944 23.1763 27.6439 22.4193 27.9946 21.7495C28.5103 20.7653 28.4463 19.5799 27.8332 18.6533C26.9714 17.3492 26.6032 15.7251 26.9111 14.0852C27.1386 12.8759 28.1947 12 29.4252 12H29.4256C30.1417 12 30.8507 12.1411 31.5123 12.4152C32.1738 12.6892 32.7749 13.091 33.2811 13.5974L34.5727 14.8893C35.8973 16.2137 36.6417 18.0101 36.642 19.8832Z" fill="url(#paint0_linear_171_4137)"/>
<path d="M36.3123 17.752H27.3389C27.4786 18.066 27.6443 18.3671 27.8332 18.6535C28.4466 19.5801 28.5105 20.7655 27.9946 21.7491C27.644 22.4191 27.4945 23.1762 27.564 23.9292L27.7185 25.6064C27.8643 27.1818 29.5354 28.1308 30.9624 27.4475L34.9483 25.54C35.4554 25.2974 35.8835 24.9164 36.1832 24.4408C36.4829 23.9653 36.6419 23.4146 36.6418 22.8525V19.8829C36.6418 19.1531 36.5288 18.4352 36.3123 17.752Z" fill="url(#paint1_linear_171_4137)"/>
<path d="M36.1728 21.5647C36.1728 18.9118 33.8265 16.7612 30.9322 16.7612C29.5939 16.7612 28.3734 17.2217 27.4473 17.9783C27.5618 18.2111 27.6907 18.4365 27.8333 18.6533C28.4463 19.5799 28.5103 20.7653 27.9947 21.7495C27.644 22.4193 27.4945 23.1763 27.5643 23.9292L27.6938 25.3398C28.5853 25.9832 29.7094 26.3682 30.9322 26.3682C33.8266 26.3681 36.1728 24.2175 36.1728 21.5647Z" fill="url(#paint2_linear_171_4137)"/>
<path d="M33.1006 24.0594C35.3481 24.0594 37.17 22.9986 37.17 21.69C37.17 20.3814 35.3481 19.3206 33.1006 19.3206C30.8532 19.3206 29.0312 20.3814 29.0312 21.69C29.0312 22.9986 30.8532 24.0594 33.1006 24.0594Z" fill="url(#paint3_linear_171_4137)"/>
<path d="M48.0051 21.7495C48.3566 22.419 48.5061 23.1763 48.4354 23.9292L48.2814 25.6062C48.1367 27.1821 46.4653 28.1309 45.0369 27.4474L41.0521 25.5404C40.017 25.046 39.3584 23.9997 39.3584 22.8523V19.8829C39.3584 18.0099 40.1024 16.2137 41.4268 14.8892L42.7196 13.5968C43.2258 13.0905 43.8267 12.6889 44.4882 12.415C45.1496 12.141 45.8585 12 46.5744 12C47.8048 12 48.8609 12.8759 49.0884 14.0851C49.3973 15.725 49.0281 17.3491 48.1664 18.6532C47.5543 19.5799 47.4904 20.7653 48.0051 21.7495Z" fill="url(#paint4_linear_171_4137)"/>
<path d="M48.167 18.6535C48.356 18.3671 48.5216 18.066 48.6614 17.752H39.688C39.4695 18.4412 39.3583 19.1599 39.3584 19.8829V22.8525C39.3584 24 40.0175 25.0456 41.052 25.54L45.037 27.4475C46.4657 28.1308 48.1368 27.1818 48.2818 25.6064L48.4353 23.9292C48.5062 23.1761 48.3566 22.4187 48.0048 21.7491C47.4906 20.7655 47.5545 19.5801 48.167 18.6535Z" fill="url(#paint5_linear_171_4137)"/>
<path d="M39.8271 21.5647C39.8271 18.9118 42.1735 16.7612 45.0678 16.7612C46.4061 16.7612 47.6265 17.2217 48.5527 17.9783C48.4382 18.2111 48.3093 18.4366 48.1667 18.6533C47.5536 19.5799 47.4896 20.7653 48.0053 21.7495C48.356 22.4193 48.5054 23.1763 48.4357 23.9292L48.3062 25.3398C47.4146 25.9832 46.2906 26.3682 45.0678 26.3682C42.1734 26.3681 39.8271 24.2175 39.8271 21.5647Z" fill="url(#paint6_linear_171_4137)"/>
<path d="M42.8995 24.0594C45.1469 24.0594 46.9689 22.9986 46.9689 21.69C46.9689 20.3814 45.1469 19.3206 42.8995 19.3206C40.652 19.3206 38.8301 20.3814 38.8301 21.69C38.8301 22.9986 40.652 24.0594 42.8995 24.0594Z" fill="url(#paint7_linear_171_4137)"/>
<path d="M41.2615 21.6434C41.2872 23.4443 39.8478 24.925 38.0466 24.9507C36.2453 24.9764 34.7643 23.5373 34.7386 21.7364C34.7129 19.9355 36.1523 18.4548 37.9536 18.429C39.7548 18.4034 41.2359 19.8425 41.2615 21.6434Z" fill="url(#paint8_linear_171_4137)"/>
<path d="M55.8768 55.54H20.1229C18.9693 55.54 18.0342 54.6049 18.0342 53.4513V31.6756C18.0342 30.522 18.9693 29.5869 20.1229 29.5869H55.8768C57.0303 29.5869 57.9655 30.522 57.9655 31.6756V53.4512C57.9655 54.6049 57.0303 55.54 55.8768 55.54Z" fill="url(#paint9_linear_171_4137)"/>
<path d="M55.8768 29.5869H20.1229C18.9693 29.5869 18.0342 30.522 18.0342 31.6756V33.8678C18.0342 33.8678 29.7865 46.2391 38.9939 55.5399H55.8768C57.0303 55.5399 57.9655 54.6048 57.9655 53.4512V31.6755C57.9655 30.522 57.0303 29.5869 55.8768 29.5869Z" fill="url(#paint10_linear_171_4137)"/>
<path d="M38 29.5869H51.2575V55.5399H38V29.5869Z" fill="url(#paint11_linear_171_4137)"/>
<path d="M18.0342 45.0432V53.4513C18.0342 54.6048 18.9693 55.54 20.1229 55.54H55.8768C57.0303 55.54 57.9655 54.6048 57.9655 53.4513V45.0432H18.0342Z" fill="url(#paint12_linear_171_4137)"/>
<path d="M41.1135 56H34.8855C34.2616 56 33.7559 55.4943 33.7559 54.8703V30.7166C33.7559 30.0927 34.2616 29.5869 34.8855 29.5869H41.1135C41.7375 29.5869 42.2432 30.0927 42.2432 30.7166V54.8703C42.2432 55.4943 41.7375 56 41.1135 56Z" fill="url(#paint13_linear_171_4137)"/>
<path d="M33.7559 30.7166V50.2046C35.5286 52.0229 37.304 53.8331 38.9937 55.5399H42.022C42.1657 55.3463 42.2433 55.1115 42.2433 54.8703V30.7166C42.2433 30.0927 41.7375 29.5869 41.1136 29.5869H34.8856C34.2616 29.5869 33.7559 30.0927 33.7559 30.7166Z" fill="url(#paint14_linear_171_4137)"/>
<path d="M57.0969 34H18.9031C17.2998 34 16 32.7002 16 31.0969V26.9266C16 25.3232 17.2998 24.0234 18.9031 24.0234H57.0969C58.7002 24.0234 60 25.3232 60 26.9266V31.0969C60 32.7002 58.7002 34 57.0969 34Z" fill="url(#paint15_linear_171_4137)"/>
<path d="M57.097 24.0234H31.4336L28.2275 27.2295L34.9982 34H57.097C58.7003 34 60.0001 32.7002 60.0001 31.0969V26.9266C60.0001 25.3232 58.7003 24.0234 57.097 24.0234Z" fill="url(#paint16_linear_171_4137)"/>
<path d="M38 24.0234H51.2575V34H38V24.0234Z" fill="url(#paint17_linear_171_4137)"/>
<path d="M55.2696 34H38V26.4993H47.7689L55.2696 34Z" fill="url(#paint18_linear_171_4137)"/>
<path d="M41.6731 34.5204H34.3261C34.1749 34.5204 34.0298 34.4603 33.9229 34.3534C33.8159 34.2465 33.7559 34.1014 33.7559 33.9502V24.0734C33.7559 23.9222 33.8159 23.7772 33.9229 23.6702C34.0298 23.5633 34.1749 23.5032 34.3261 23.5032H41.6731C41.8243 23.5032 41.9694 23.5633 42.0763 23.6702C42.1833 23.7772 42.2434 23.9222 42.2434 24.0734V33.9502C42.2434 34.1014 42.1833 34.2464 42.0763 34.3534C41.9694 34.4603 41.8243 34.5204 41.6731 34.5204Z" fill="url(#paint19_linear_171_4137)"/>
<path d="M42.2435 24.0732V33.9499C42.2435 34.1012 42.1835 34.2462 42.0765 34.3532C41.9696 34.4601 41.8245 34.5202 41.6733 34.5202H35.5176L33.7559 32.7585V24.0732C33.7559 24.0559 33.7567 24.0396 33.7584 24.0232C33.7709 23.8812 33.8361 23.749 33.9411 23.6527C34.0462 23.5564 34.1836 23.5029 34.3261 23.5029H41.6733C41.9709 23.5029 42.2159 23.7316 42.241 24.0232C42.2427 24.0396 42.2435 24.0559 42.2435 24.0732Z" fill="url(#paint20_linear_171_4137)"/>
<path d="M37.9996 23.5031L37.9314 23.4577C35.604 21.9117 32.5095 22.2208 30.5338 24.1964L28.231 26.4992C27.9044 26.8258 28.1358 27.3843 28.5976 27.3843H28.8645C29.7464 27.3843 30.4613 28.0992 30.4613 28.9811C30.4613 29.443 31.0198 29.6743 31.3464 29.3476L36.5192 24.1748C36.915 23.779 37.4411 23.5403 37.9996 23.5031Z" fill="url(#paint21_linear_171_4137)"/>
<path d="M38 23.5031L38.0682 23.4577C40.3956 21.9117 43.4902 22.2208 45.4659 24.1964L47.7686 26.4992C48.0952 26.8258 47.8639 27.3843 47.402 27.3843H47.1351C46.2532 27.3843 45.5383 28.0992 45.5383 28.9811C45.5383 29.443 44.9799 29.6743 44.6532 29.3476L39.4804 24.1748C39.0846 23.779 38.5585 23.5403 38 23.5031Z" fill="url(#paint22_linear_171_4137)"/>
</g>
<path fill-rule="evenodd" clip-rule="evenodd" d="M0.0296188 48.265L14.5115 3.84512L15.4628 4.15493L1.08539 48.2544L36.6183 66.9976L61.6374 66.5073L75.0408 21.3578L76 21.6422L62.5134 67.0721C62.439 67.3226 62.211 67.4962 61.9496 67.5014L36.5346 67.9994C36.433 68.0014 36.3325 67.9776 36.2426 67.9302L0.320202 48.9815C0.0617556 48.8452 -0.0609111 48.5427 0.0296188 48.265Z" fill="#FCC055"/>
<path fill-rule="evenodd" clip-rule="evenodd" d="M39.8968 0.00970221C40.0315 -0.00914606 40.1687 0.0182838 40.2857 0.0874963L75.5125 20.9144C76.0116 21.2095 75.8436 21.9702 75.2666 22.0279L50.5879 24.4944C50.465 24.5067 50.3412 24.4807 50.2335 24.4201L14.9994 4.5808C14.499 4.29907 14.642 3.54343 15.2108 3.46385L39.8968 0.00970221ZM39.8969 1.01945L16.5217 4.29018L50.6143 23.4868L73.9529 21.1542L39.8969 1.01945Z" fill="#FCC055"/>
<path fill-rule="evenodd" clip-rule="evenodd" d="M36.0227 67.3468L50.0304 23.8468L50.9829 24.1532L36.9752 67.6532L36.0227 67.3468Z" fill="#FCC055"/>
<defs>
<linearGradient id="paint0_linear_171_4137" x1="28.4498" y1="17.9238" x2="36.0661" y2="25.54" gradientUnits="userSpaceOnUse">
<stop stop-color="#FEE45A"/>
<stop offset="1" stop-color="#FEA613"/>
</linearGradient>
<linearGradient id="paint1_linear_171_4137" x1="31.7371" y1="20.434" x2="32.5423" y2="24" gradientUnits="userSpaceOnUse">
<stop stop-color="#FEA613" stop-opacity="0"/>
<stop offset="1" stop-color="#E94444"/>
</linearGradient>
<linearGradient id="paint2_linear_171_4137" x1="32.7278" y1="20.0817" x2="39.3134" y2="14.6401" gradientUnits="userSpaceOnUse">
<stop stop-color="#FEA613" stop-opacity="0"/>
<stop offset="1" stop-color="#E94444"/>
</linearGradient>
<linearGradient id="paint3_linear_171_4137" x1="33.0397" y1="22.0034" x2="34.091" y2="16.5927" gradientUnits="userSpaceOnUse">
<stop stop-color="#FEA613" stop-opacity="0"/>
<stop offset="1" stop-color="#E94444"/>
</linearGradient>
<linearGradient id="paint4_linear_171_4137" x1="43.5865" y1="18.1337" x2="50.4368" y2="24.9841" gradientUnits="userSpaceOnUse">
<stop stop-color="#FEE45A"/>
<stop offset="1" stop-color="#FEA613"/>
</linearGradient>
<linearGradient id="paint5_linear_171_4137" x1="44.5282" y1="20.027" x2="43.3778" y2="23.7081" gradientUnits="userSpaceOnUse">
<stop stop-color="#FEA613" stop-opacity="0"/>
<stop offset="1" stop-color="#E94444"/>
</linearGradient>
<linearGradient id="paint6_linear_171_4137" x1="43.2722" y1="20.0817" x2="36.6866" y2="14.6401" gradientUnits="userSpaceOnUse">
<stop stop-color="#FEA613" stop-opacity="0"/>
<stop offset="1" stop-color="#E94444"/>
</linearGradient>
<linearGradient id="paint7_linear_171_4137" x1="42.9604" y1="22.0034" x2="41.9092" y2="16.5927" gradientUnits="userSpaceOnUse">
<stop stop-color="#FEA613" stop-opacity="0"/>
<stop offset="1" stop-color="#E94444"/>
</linearGradient>
<linearGradient id="paint8_linear_171_4137" x1="36.9299" y1="20.187" x2="39.9828" y2="24.468" gradientUnits="userSpaceOnUse">
<stop stop-color="#FEE45A"/>
<stop offset="1" stop-color="#FEA613"/>
</linearGradient>
<linearGradient id="paint9_linear_171_4137" x1="33.4065" y1="33.0043" x2="46.1751" y2="59.5769" gradientUnits="userSpaceOnUse">
<stop stop-color="#D9B1EE"/>
<stop offset="1" stop-color="#814AA0"/>
</linearGradient>
<linearGradient id="paint10_linear_171_4137" x1="37.9998" y1="47.1138" x2="37.9998" y2="32.1524" gradientUnits="userSpaceOnUse">
<stop stop-color="#5B3374" stop-opacity="0"/>
<stop offset="1" stop-color="#5B3374"/>
</linearGradient>
<linearGradient id="paint11_linear_171_4137" x1="47.749" y1="42.5634" x2="41.5776" y2="42.5634" gradientUnits="userSpaceOnUse">
<stop stop-color="#5B3374" stop-opacity="0"/>
<stop offset="1" stop-color="#5B3374"/>
</linearGradient>
<linearGradient id="paint12_linear_171_4137" x1="37.9998" y1="51.0537" x2="37.9998" y2="55.0798" gradientUnits="userSpaceOnUse">
<stop stop-color="#5B3374" stop-opacity="0"/>
<stop offset="1" stop-color="#5B3374"/>
</linearGradient>
<linearGradient id="paint13_linear_171_4137" x1="33.7559" y1="42.7935" x2="42.2432" y2="42.7935" gradientUnits="userSpaceOnUse">
<stop stop-color="#FEE45A"/>
<stop offset="1" stop-color="#FEA613"/>
</linearGradient>
<linearGradient id="paint14_linear_171_4137" x1="37.9995" y1="41.3909" x2="37.9995" y2="32.7932" gradientUnits="userSpaceOnUse">
<stop stop-color="#FEA613" stop-opacity="0"/>
<stop offset="1" stop-color="#E94444"/>
</linearGradient>
<linearGradient id="paint15_linear_171_4137" x1="38" y1="24.4236" x2="38" y2="34.6971" gradientUnits="userSpaceOnUse">
<stop stop-color="#D9B1EE"/>
<stop offset="1" stop-color="#814AA0"/>
</linearGradient>
<linearGradient id="paint16_linear_171_4137" x1="44.6891" y1="27.5126" x2="38.4774" y2="18.1086" gradientUnits="userSpaceOnUse">
<stop stop-color="#5B3374" stop-opacity="0"/>
<stop offset="1" stop-color="#5B3374"/>
</linearGradient>
<linearGradient id="paint17_linear_171_4137" x1="47.749" y1="29.0117" x2="41.5776" y2="29.0117" gradientUnits="userSpaceOnUse">
<stop stop-color="#5B3374" stop-opacity="0"/>
<stop offset="1" stop-color="#5B3374"/>
</linearGradient>
<linearGradient id="paint18_linear_171_4137" x1="47.043" y1="35.2642" x2="44.3685" y2="26.9818" gradientUnits="userSpaceOnUse">
<stop stop-color="#5B3374" stop-opacity="0"/>
<stop offset="1" stop-color="#5B3374"/>
</linearGradient>
<linearGradient id="paint19_linear_171_4137" x1="35.8228" y1="27.4155" x2="40.9993" y2="31.2115" gradientUnits="userSpaceOnUse">
<stop stop-color="#FEE45A"/>
<stop offset="1" stop-color="#FEA613"/>
</linearGradient>
<linearGradient id="paint20_linear_171_4137" x1="39.8387" y1="32.249" x2="36.2152" y2="24.5706" gradientUnits="userSpaceOnUse">
<stop stop-color="#FEA613" stop-opacity="0"/>
<stop offset="1" stop-color="#E94444"/>
</linearGradient>
<linearGradient id="paint21_linear_171_4137" x1="31.8048" y1="24.0579" x2="33.9634" y2="26.2165" gradientUnits="userSpaceOnUse">
<stop stop-color="#FEE45A"/>
<stop offset="1" stop-color="#FEA613"/>
</linearGradient>
<linearGradient id="paint22_linear_171_4137" x1="44.1949" y1="24.0579" x2="42.0363" y2="26.2165" gradientUnits="userSpaceOnUse">
<stop stop-color="#FEE45A"/>
<stop offset="1" stop-color="#FEA613"/>
</linearGradient>
<clipPath id="clip0_171_4137">
<rect width="44" height="44" fill="white" transform="translate(16 12)"/>
</clipPath>
</defs>
</svg>
