<svg width="77" height="68" viewBox="0 0 77 68" fill="none" xmlns="http://www.w3.org/2000/svg">
<path fill-rule="evenodd" clip-rule="evenodd" d="M62.0304 67L25.4906 47.0278L25.9602 46.1493L62.5 66.1215L62.0304 67Z" fill="#FCC055"/>
<path fill-rule="evenodd" clip-rule="evenodd" d="M62.0304 67L25.4906 47.0278L25.9602 46.1493L62.5 66.1215L62.0304 67Z" fill="black" fill-opacity="0.2"/>
<path fill-rule="evenodd" clip-rule="evenodd" d="M25.3589 46.111L40.0689 0L41.0088 0.306576L26.2161 46.677C26.1412 46.9117 25.9318 47.076 25.6883 47.0911L1.56035 48.5849L1.5 47.5881L25.3589 46.111Z" fill="#FCC055"/>
<path fill-rule="evenodd" clip-rule="evenodd" d="M25.3589 46.111L40.0689 0L41.0088 0.306576L26.2161 46.677C26.1412 46.9117 25.9318 47.076 25.6883 47.0911L1.56035 48.5849L1.5 47.5881L25.3589 46.111Z" fill="black" fill-opacity="0.2"/>
<g clip-path="url(#clip0_147_2613)">
<path d="M22.8851 14.7499L22.8806 53.2472C22.8804 54.7593 24.1175 55.9967 25.6296 55.9969L52.3651 56C53.8777 56.0002 55.1155 54.7627 55.1157 53.2501L55.1193 22.1309C55.1194 21.2866 54.7841 20.4769 54.1872 19.8798L47.2439 12.9349C46.647 12.3378 45.8373 12.0023 44.993 12.0022L25.6356 12C24.123 11.9998 22.8853 13.2373 22.8851 14.7499Z" fill="url(#paint0_linear_147_2613)"/>
<path d="M36.1534 41.472H47.7901C48.0005 41.472 48.2023 41.3884 48.3511 41.2396C48.4998 41.0909 48.5834 40.8891 48.5834 40.6787V38.7441C48.5834 38.5337 48.4998 38.3319 48.3511 38.1831C48.2023 38.0344 48.0005 37.9508 47.7901 37.9508H36.1534C35.943 37.9508 35.7412 38.0344 35.5925 38.1831C35.4437 38.3319 35.3601 38.5337 35.3601 38.7441V40.6787C35.3601 40.8891 35.4437 41.0909 35.5925 41.2396C35.7412 41.3884 35.943 41.472 36.1534 41.472ZM36.1534 33.2272H47.7901C48.0005 33.2272 48.2023 33.1436 48.3511 32.9948C48.4998 32.846 48.5834 32.6442 48.5834 32.4338V30.4993C48.5834 30.2889 48.4998 30.0871 48.3511 29.9383C48.2023 29.7895 48.0005 29.7059 47.7901 29.7059H36.1534C35.943 29.7059 35.7412 29.7895 35.5925 29.9383C35.4437 30.0871 35.3601 30.2889 35.3601 30.4993V32.4338C35.3601 32.6442 35.4437 32.846 35.5925 32.9948C35.7412 33.1436 35.943 33.2272 36.1534 33.2272ZM36.1534 49.7168H47.7901C47.8943 49.7168 47.9974 49.6963 48.0937 49.6565C48.1899 49.6166 48.2774 49.5581 48.3511 49.4845C48.4247 49.4108 48.4832 49.3234 48.523 49.2271C48.5629 49.1309 48.5834 49.0277 48.5834 48.9235V46.9889C48.5834 46.8848 48.5629 46.7816 48.523 46.6854C48.4832 46.5891 48.4247 46.5016 48.3511 46.428C48.2774 46.3543 48.1899 46.2959 48.0937 46.256C47.9974 46.2161 47.8943 46.1956 47.7901 46.1956H36.1534C36.0493 46.1956 35.9461 46.2161 35.8498 46.256C35.7536 46.2959 35.6661 46.3543 35.5925 46.428C35.5188 46.5016 35.4604 46.5891 35.4205 46.6854C35.3806 46.7816 35.3601 46.8848 35.3601 46.9889V48.9235C35.3601 49.0277 35.3806 49.1309 35.4205 49.2271C35.4604 49.3234 35.5188 49.4108 35.5925 49.4845C35.6661 49.5581 35.7536 49.6166 35.8498 49.6565C35.9461 49.6963 36.0493 49.7168 36.1534 49.7168Z" fill="#EBEFF0"/>
<path d="M31.2006 33.2494C32.1853 33.2494 32.9835 32.4512 32.9835 31.4665C32.9835 30.4818 32.1853 29.6836 31.2006 29.6836C30.216 29.6836 29.4177 30.4818 29.4177 31.4665C29.4177 32.4512 30.216 33.2494 31.2006 33.2494Z" fill="#EBEFF0"/>
<path d="M31.2006 41.4943C32.1853 41.4943 32.9835 40.696 32.9835 39.7114C32.9835 38.7267 32.1853 37.9285 31.2006 37.9285C30.216 37.9285 29.4177 38.7267 29.4177 39.7114C29.4177 40.696 30.216 41.4943 31.2006 41.4943Z" fill="#EBEFF0"/>
<path d="M31.2006 49.739C32.1853 49.739 32.9835 48.9408 32.9835 47.9561C32.9835 46.9715 32.1853 46.1732 31.2006 46.1732C30.216 46.1732 29.4177 46.9715 29.4177 47.9561C29.4177 48.9408 30.216 49.739 31.2006 49.739Z" fill="#EBEFF0"/>
<path d="M47.2414 12.934C46.8359 12.5285 46.3284 12.2401 45.7725 12.0992V21.0644L55.1179 30.4099V22.129C55.1179 21.2847 54.7825 20.4749 54.1855 19.8779L47.2414 12.934Z" fill="url(#paint1_linear_147_2613)"/>
<path d="M55.0235 21.3567C55.0337 21.401 55.0431 21.4439 55.0516 21.4854H46.6277C46.0312 21.4854 45.5476 21.0019 45.5476 20.4054V12.0516C45.6167 12.064 45.6855 12.0777 45.754 12.0929C46.3819 12.2318 46.9545 12.5547 47.4093 13.0094L54.1085 19.7086C54.5619 20.1614 54.8789 20.7325 55.0235 21.3567Z" fill="url(#paint2_linear_147_2613)"/>
<path d="M55.1179 50.5809V53.2483C55.1179 54.7609 53.8803 55.9985 52.3676 55.9985H25.6322C24.12 55.9985 22.8828 54.7612 22.8828 53.2491V50.5809H55.1179Z" fill="url(#paint3_linear_147_2613)"/>
</g>
<path fill-rule="evenodd" clip-rule="evenodd" d="M0.529619 48.265L15.0115 3.84512L15.9628 4.15493L1.58539 48.2544L37.1183 66.9976L62.1374 66.5073L75.5408 21.3578L76.5 21.6422L63.0134 67.0721C62.939 67.3226 62.711 67.4962 62.4496 67.5014L37.0346 67.9994C36.933 68.0014 36.8325 67.9776 36.7426 67.9302L0.820202 48.9815C0.561756 48.8452 0.439089 48.5427 0.529619 48.265Z" fill="#FCC055"/>
<path fill-rule="evenodd" clip-rule="evenodd" d="M40.3968 0.00970221C40.5315 -0.00914606 40.6687 0.0182838 40.7857 0.0874963L76.0125 20.9144C76.5116 21.2095 76.3436 21.9702 75.7666 22.0279L51.0879 24.4944C50.965 24.5067 50.8412 24.4807 50.7335 24.4201L15.4994 4.5808C14.999 4.29907 15.142 3.54343 15.7108 3.46385L40.3968 0.00970221ZM40.3969 1.01945L17.0217 4.29018L51.1143 23.4868L74.4529 21.1542L40.3969 1.01945Z" fill="#FCC055"/>
<path fill-rule="evenodd" clip-rule="evenodd" d="M36.5227 67.3468L50.5304 23.8468L51.4829 24.1532L37.4752 67.6532L36.5227 67.3468Z" fill="#FCC055"/>
<defs>
<linearGradient id="paint0_linear_147_2613" x1="15.6932" y1="14.2893" x2="46.3448" y2="44.9408" gradientUnits="userSpaceOnUse">
<stop stop-color="#B8A3DC"/>
<stop offset="1" stop-color="#7049BD"/>
</linearGradient>
<linearGradient id="paint1_linear_147_2613" x1="52.3811" y1="26.9888" x2="49.0597" y2="17.2836" gradientUnits="userSpaceOnUse">
<stop stop-color="#5531AA" stop-opacity="0"/>
<stop offset="1" stop-color="#5531AA"/>
</linearGradient>
<linearGradient id="paint2_linear_147_2613" x1="46.6154" y1="17.0679" x2="50.4734" y2="20.926" gradientUnits="userSpaceOnUse">
<stop stop-color="#B8A3DC"/>
<stop offset="1" stop-color="#7049BD"/>
</linearGradient>
<linearGradient id="paint3_linear_147_2613" x1="39.0003" y1="52.0043" x2="39.0003" y2="56.2822" gradientUnits="userSpaceOnUse">
<stop stop-color="#5531AA" stop-opacity="0"/>
<stop offset="1" stop-color="#5531AA"/>
</linearGradient>
<clipPath id="clip0_147_2613">
<rect width="44" height="44" fill="white" transform="translate(17 12)"/>
</clipPath>
</defs>
</svg>
