<svg width="76" height="68" viewBox="0 0 76 68" fill="none" xmlns="http://www.w3.org/2000/svg">
<path fill-rule="evenodd" clip-rule="evenodd" d="M61.5304 67L24.9906 47.0278L25.4602 46.1493L62 66.1215L61.5304 67Z" fill="#FCC055"/>
<path fill-rule="evenodd" clip-rule="evenodd" d="M61.5304 67L24.9906 47.0278L25.4602 46.1493L62 66.1215L61.5304 67Z" fill="black" fill-opacity="0.2"/>
<path fill-rule="evenodd" clip-rule="evenodd" d="M24.8589 46.111L39.5689 0L40.5088 0.306576L25.7161 46.677C25.6412 46.9117 25.4318 47.076 25.1883 47.0911L1.06035 48.5849L1 47.5881L24.8589 46.111Z" fill="#FCC055"/>
<path fill-rule="evenodd" clip-rule="evenodd" d="M24.8589 46.111L39.5689 0L40.5088 0.306576L25.7161 46.677C25.6412 46.9117 25.4318 47.076 25.1883 47.0911L1.06035 48.5849L1 47.5881L24.8589 46.111Z" fill="black" fill-opacity="0.2"/>
<g clip-path="url(#clip0_218_558)">
<path d="M58.5039 29.8753L52.64 20.8671C52.4987 20.6499 52.3141 20.4641 52.0979 20.3213C51.8816 20.1786 51.6383 20.0818 51.3831 20.0371L48.2835 19.4941C41.6503 18.3321 34.8656 18.3321 28.2324 19.4941L25.1329 20.0371C24.8776 20.0818 24.6343 20.1786 24.4181 20.3214C24.2018 20.4641 24.0173 20.6499 23.8759 20.8671L18.0118 29.8753C17.7947 30.209 17.6885 30.6027 17.7084 31.0004C17.7284 31.398 17.8735 31.7791 18.123 32.0894L36.7861 55.2947C37.5422 56.2348 38.9736 56.2348 39.7296 55.2947L58.3928 32.0893C58.6423 31.7791 58.7874 31.3979 58.8074 31.0003C58.8273 30.6027 58.7211 30.209 58.5039 29.8753Z" fill="url(#paint0_linear_218_558)"/>
<path d="M58.5038 29.8754L52.6398 20.867C52.4985 20.6498 52.3139 20.4641 52.0977 20.3213C51.8815 20.1786 51.6382 20.0818 51.383 20.0371L48.2833 19.4941C41.6501 18.3321 34.8654 18.3321 28.2322 19.4941L25.1326 20.0371C24.8774 20.0818 24.6341 20.1786 24.4179 20.3214C24.2016 20.4641 24.0171 20.6498 23.8757 20.867L18.0117 29.8754C17.7905 30.2154 17.6848 30.6177 17.7103 31.0226H58.8053C58.8308 30.6177 58.7251 30.2154 58.5038 29.8754Z" fill="url(#paint1_linear_218_558)"/>
<path d="M52.1787 20.3808C51.9456 20.2084 51.6749 20.0883 51.3833 20.0371L48.2836 19.4941C41.6504 18.3321 34.8657 18.3321 28.2325 19.4941L25.1329 20.0371C24.8413 20.0882 24.5706 20.2083 24.3374 20.3808L25.0434 31.0227L37.635 55.894C38.0386 56.0339 38.4776 56.0339 38.8812 55.894L51.4727 31.0227L52.1787 20.3808Z" fill="url(#paint2_linear_218_558)"/>
<path d="M25.0435 31.0227L37.635 55.894C38.0387 56.0339 38.4777 56.0339 38.8813 55.894L51.4729 31.0227C51.4729 31.0227 40.3698 18.6226 38.2581 18.6226C36.1466 18.6226 25.0435 31.0227 25.0435 31.0227Z" fill="url(#paint3_linear_218_558)"/>
<path d="M25.0431 31.0224L37.6347 55.8932C37.3138 55.7829 37.0185 55.5835 36.786 55.2946L18.1229 32.0894C17.8396 31.7371 17.6924 31.2946 17.7082 30.8428C17.7062 30.9026 17.7071 30.9625 17.7108 31.0223H25.0431V31.0224Z" fill="url(#paint4_linear_218_558)"/>
<path d="M51.474 31.0224L38.8823 55.8931C39.2033 55.7828 39.4986 55.5834 39.7311 55.2945L58.3942 32.0894C58.6775 31.7371 58.8247 31.2946 58.8089 30.8428C58.8109 30.9026 58.81 30.9625 58.8063 31.0223H51.474V31.0224Z" fill="url(#paint5_linear_218_558)"/>
<path d="M38.2577 18.6226C36.1464 18.6226 25.0426 31.0225 25.0426 31.0225L24.3369 20.3814C24.5716 20.2063 24.844 20.0884 25.1323 20.037L28.232 19.4945C31.5424 18.9143 34.8969 18.6226 38.2577 18.6226Z" fill="url(#paint6_linear_218_558)"/>
<path d="M39.7295 55.2948L58.3926 32.0893C58.6421 31.7791 58.7872 31.3979 58.8072 31.0003C58.8271 30.6027 58.7209 30.2089 58.5038 29.8753L52.6399 20.8671C52.4985 20.6499 52.3139 20.4642 52.0977 20.3214C51.8815 20.1786 51.6382 20.0818 51.3829 20.0371L48.2833 19.4941C44.973 18.9142 41.6186 18.6225 38.2578 18.6226V55.9998C38.8046 55.9998 39.3515 55.7648 39.7295 55.2948Z" fill="url(#paint7_linear_218_558)"/>
<path d="M53.8771 37.7041L34.8937 18.7207L34.8926 18.7208C34.6144 18.7369 34.3362 18.755 34.0582 18.7752H34.0577C33.5094 18.815 32.9616 18.8625 32.4146 18.9178L32.3437 18.9251C32.1021 18.9498 31.8607 18.9762 31.6193 19.0039L31.5153 19.0157C30.9958 19.0764 30.4771 19.1441 29.9593 19.2188C29.8977 19.2277 29.8361 19.2369 29.7745 19.246C29.5794 19.2748 29.3843 19.3046 29.1893 19.3355C29.1206 19.3464 29.0517 19.3571 28.983 19.3682C28.7325 19.4085 28.4824 19.4504 28.2325 19.4941L27.5286 19.6174L27.084 19.6953C27.2558 19.8514 27.4243 20.0112 27.5892 20.1747L27.5673 20.1786C27.681 20.2817 27.7932 20.3865 27.9039 20.4929C27.9567 20.548 28.0086 20.6042 28.0606 20.6601L28.0505 20.6619C28.0825 20.6908 28.1133 20.721 28.1451 20.7501C28.7605 21.4205 29.317 22.1427 29.8084 22.9086L49.773 42.8073L53.8771 37.7041Z" fill="url(#paint8_linear_218_558)"/>
<path d="M48.4812 44.4135L27.0594 22.9033C26.9238 22.6917 26.6099 22.6917 26.4744 22.9033C25.8708 23.8448 25.0752 24.6481 24.1395 25.2606C23.932 25.3963 23.932 25.7059 24.1395 25.8416L45.9395 47.5737L48.4812 44.4135Z" fill="url(#paint9_linear_218_558)"/>
<path d="M58.227 32.2964L55.6409 35.5126L51.3607 31.2463L47.8259 27.7225C47.6179 27.5861 47.6179 27.2765 47.8259 27.1412C48.7616 26.5289 49.5571 25.7256 50.1602 24.784C50.2966 24.572 50.6101 24.572 50.7455 24.784L56.9578 31.0223L58.227 32.2964Z" fill="url(#paint10_linear_218_558)"/>
<path d="M35.6482 18.1941C33.7768 19.4192 32.1855 21.0258 30.9783 22.9088C30.7071 23.332 30.0794 23.332 29.8082 22.9088C28.6011 21.0258 27.0097 19.4192 25.1384 18.1941C24.7234 17.9226 24.7234 17.3035 25.1384 17.032C27.0097 15.807 28.6011 14.2004 29.8082 12.3174C30.0793 11.8942 30.7071 11.8942 30.9783 12.3174C32.1854 14.2004 33.7768 15.807 35.6482 17.032C36.0632 17.3035 36.0632 17.9226 35.6482 18.1941Z" fill="url(#paint11_linear_218_558)"/>
<path d="M29.3943 25.8415C28.4586 26.4541 27.663 27.2574 27.0594 28.1989C26.9238 28.4104 26.6099 28.4104 26.4744 28.1989C25.8708 27.2574 25.0752 26.4541 24.1395 25.8416C23.932 25.7058 23.932 25.3964 24.1395 25.2606C25.0752 24.6481 25.8708 23.8448 26.4744 22.9033C26.61 22.6917 26.9238 22.6917 27.0594 22.9033C27.663 23.8447 28.4586 24.6481 29.3943 25.2606C29.6018 25.3962 29.6018 25.7057 29.3943 25.8415Z" fill="url(#paint12_linear_218_558)"/>
<path d="M57.1629 36.5466C56.2272 37.1592 55.4315 37.9625 54.8279 38.904C54.6923 39.1155 54.3784 39.1155 54.2429 38.904C53.6394 37.9625 52.8437 37.1592 51.9081 36.5467C51.7006 36.4109 51.7006 36.1014 51.9081 35.9656C52.8437 35.3531 53.6394 34.5498 54.2429 33.6084C54.3785 33.3968 54.6924 33.3968 54.8279 33.6084C55.4315 34.5498 56.2272 35.3531 57.1629 35.9656C57.3704 36.1013 57.3704 36.4108 57.1629 36.5466Z" fill="url(#paint13_linear_218_558)"/>
<path d="M22.6009 39.3533C21.6652 39.9658 20.8695 40.7691 20.2659 41.7106C20.1303 41.9222 19.8164 41.9222 19.6809 41.7106C19.0774 40.7691 18.2817 39.9658 17.346 39.3533C17.1386 39.2175 17.1386 38.9081 17.346 38.7723C18.2817 38.1598 19.0773 37.3565 19.6809 36.415C19.8165 36.2035 20.1304 36.2035 20.2659 36.415C20.8695 37.3565 21.6652 38.1598 22.6009 38.7723C22.8083 38.908 22.8083 39.2175 22.6009 39.3533Z" fill="url(#paint14_linear_218_558)"/>
<path d="M53.0803 27.7219C52.1447 28.3345 51.349 29.1378 50.7454 30.0793C50.6098 30.2908 50.2959 30.2908 50.1604 30.0793C49.5569 29.1378 48.7612 28.3345 47.8255 27.722C47.618 27.5862 47.618 27.2767 47.8255 27.1409C48.7612 26.5284 49.5569 25.7251 50.1604 24.7837C50.296 24.5721 50.6099 24.5721 50.7454 24.7837C51.349 25.7251 52.1447 26.5284 53.0803 27.1409C53.2878 27.2766 53.2878 27.5861 53.0803 27.7219Z" fill="url(#paint15_linear_218_558)"/>
<path d="M58.8072 30.9863C58.8072 30.9983 58.8072 31.0102 58.8062 31.0221H58.8052C58.8062 31.0102 58.8072 30.9983 58.8072 30.9863Z" fill="url(#paint16_linear_218_558)"/>
</g>
<path fill-rule="evenodd" clip-rule="evenodd" d="M0.0296188 48.265L14.5115 3.84512L15.4628 4.15493L1.08539 48.2544L36.6183 66.9976L61.6374 66.5073L75.0408 21.3578L76 21.6422L62.5134 67.0721C62.439 67.3226 62.211 67.4962 61.9496 67.5014L36.5346 67.9994C36.433 68.0014 36.3325 67.9776 36.2426 67.9302L0.320202 48.9815C0.0617556 48.8452 -0.0609111 48.5427 0.0296188 48.265Z" fill="#FCC055"/>
<path fill-rule="evenodd" clip-rule="evenodd" d="M39.8968 0.00970221C40.0315 -0.00914606 40.1687 0.0182838 40.2857 0.0874963L75.5125 20.9144C76.0116 21.2095 75.8436 21.9702 75.2666 22.0279L50.5879 24.4944C50.465 24.5067 50.3412 24.4807 50.2335 24.4201L14.9994 4.5808C14.499 4.29907 14.642 3.54343 15.2108 3.46385L39.8968 0.00970221ZM39.8969 1.01945L16.5217 4.29018L50.6143 23.4868L73.9529 21.1542L39.8969 1.01945Z" fill="#FCC055"/>
<path fill-rule="evenodd" clip-rule="evenodd" d="M36.0227 67.3468L50.0304 23.8468L50.9829 24.1532L36.9752 67.6532L36.0227 67.3468Z" fill="#FCC055"/>
<defs>
<linearGradient id="paint0_linear_218_558" x1="30.7554" y1="23.3298" x2="49.5678" y2="43.1874" gradientUnits="userSpaceOnUse">
<stop stop-color="#D4F7FF"/>
<stop offset="1" stop-color="#A2E3E9"/>
</linearGradient>
<linearGradient id="paint1_linear_218_558" x1="36.3054" y1="21.1469" x2="40.287" y2="40.9556" gradientUnits="userSpaceOnUse">
<stop stop-color="#A2E3E9" stop-opacity="0"/>
<stop offset="1" stop-color="#518CD2"/>
</linearGradient>
<linearGradient id="paint2_linear_218_558" x1="34.415" y1="33.0151" x2="52.8303" y2="41.9739" gradientUnits="userSpaceOnUse">
<stop stop-color="#A2E3E9" stop-opacity="0"/>
<stop offset="1" stop-color="#518CD2"/>
</linearGradient>
<linearGradient id="paint3_linear_218_558" x1="42.3765" y1="35.186" x2="58.6018" y2="26.6254" gradientUnits="userSpaceOnUse">
<stop stop-color="#A2E3E9" stop-opacity="0"/>
<stop offset="1" stop-color="#518CD2"/>
</linearGradient>
<linearGradient id="paint4_linear_218_558" x1="22.5241" y1="34.3065" x2="39.2043" y2="51.9134" gradientUnits="userSpaceOnUse">
<stop stop-color="#A2E3E9" stop-opacity="0"/>
<stop offset="1" stop-color="#518CD2"/>
</linearGradient>
<linearGradient id="paint5_linear_218_558" x1="43.7982" y1="38.1676" x2="50.3679" y2="44.9364" gradientUnits="userSpaceOnUse">
<stop stop-color="#A2E3E9" stop-opacity="0"/>
<stop offset="1" stop-color="#518CD2"/>
</linearGradient>
<linearGradient id="paint6_linear_218_558" x1="28.7434" y1="23.4084" x2="36.1894" y2="27.0308" gradientUnits="userSpaceOnUse">
<stop stop-color="#A2E3E9" stop-opacity="0"/>
<stop offset="1" stop-color="#518CD2"/>
</linearGradient>
<linearGradient id="paint7_linear_218_558" x1="44.5741" y1="34.9828" x2="29.3442" y2="40.7562" gradientUnits="userSpaceOnUse">
<stop stop-color="#A2E3E9" stop-opacity="0"/>
<stop offset="1" stop-color="#518CD2"/>
</linearGradient>
<linearGradient id="paint8_linear_218_558" x1="40.2128" y1="28.5077" x2="28.666" y2="15.7664" gradientUnits="userSpaceOnUse">
<stop stop-color="#A2E3E9" stop-opacity="0"/>
<stop offset="1" stop-color="#518CD2"/>
</linearGradient>
<linearGradient id="paint9_linear_218_558" x1="35.2687" y1="34.0412" x2="23.3428" y2="22.1153" gradientUnits="userSpaceOnUse">
<stop stop-color="#A2E3E9" stop-opacity="0"/>
<stop offset="1" stop-color="#518CD2"/>
</linearGradient>
<linearGradient id="paint10_linear_218_558" x1="56.7977" y1="33.7646" x2="49.899" y2="26.8659" gradientUnits="userSpaceOnUse">
<stop stop-color="#A2E3E9" stop-opacity="0"/>
<stop offset="1" stop-color="#518CD2"/>
</linearGradient>
<linearGradient id="paint11_linear_218_558" x1="24.8927" y1="10.7" x2="32.9816" y2="20.8659" gradientUnits="userSpaceOnUse">
<stop stop-color="#FFE548"/>
<stop offset="0.176" stop-color="#FFDE50"/>
<stop offset="0.445" stop-color="#FFCA65"/>
<stop offset="0.771" stop-color="#FFAA87"/>
<stop offset="1" stop-color="#FF90A4"/>
</linearGradient>
<linearGradient id="paint12_linear_218_558" x1="24.0166" y1="22.0945" x2="28.061" y2="27.1774" gradientUnits="userSpaceOnUse">
<stop stop-color="#FFE548"/>
<stop offset="0.176" stop-color="#FFDE50"/>
<stop offset="0.445" stop-color="#FFCA65"/>
<stop offset="0.771" stop-color="#FFAA87"/>
<stop offset="1" stop-color="#FF90A4"/>
</linearGradient>
<linearGradient id="paint13_linear_218_558" x1="51.785" y1="32.7995" x2="55.8295" y2="37.8825" gradientUnits="userSpaceOnUse">
<stop stop-color="#FFE548"/>
<stop offset="0.176" stop-color="#FFDE50"/>
<stop offset="0.445" stop-color="#FFCA65"/>
<stop offset="0.771" stop-color="#FFAA87"/>
<stop offset="1" stop-color="#FF90A4"/>
</linearGradient>
<linearGradient id="paint14_linear_218_558" x1="17.2231" y1="35.6063" x2="21.2676" y2="40.6891" gradientUnits="userSpaceOnUse">
<stop stop-color="#FFE548"/>
<stop offset="0.176" stop-color="#FFDE50"/>
<stop offset="0.445" stop-color="#FFCA65"/>
<stop offset="0.771" stop-color="#FFAA87"/>
<stop offset="1" stop-color="#FF90A4"/>
</linearGradient>
<linearGradient id="paint15_linear_218_558" x1="47.7026" y1="23.9748" x2="51.7471" y2="29.0578" gradientUnits="userSpaceOnUse">
<stop stop-color="#FFE548"/>
<stop offset="0.176" stop-color="#FFDE50"/>
<stop offset="0.445" stop-color="#FFCA65"/>
<stop offset="0.771" stop-color="#FFAA87"/>
<stop offset="1" stop-color="#FF90A4"/>
</linearGradient>
<linearGradient id="paint16_linear_218_558" x1="58.7973" y1="30.9951" x2="58.8151" y2="31.0134" gradientUnits="userSpaceOnUse">
<stop stop-color="#A2E3E9" stop-opacity="0"/>
<stop offset="1" stop-color="#518CD2"/>
</linearGradient>
<clipPath id="clip0_218_558">
<rect width="44" height="44" fill="white" transform="translate(16 12)"/>
</clipPath>
</defs>
</svg>
