<svg width="76" height="68" viewBox="0 0 76 68" fill="none" xmlns="http://www.w3.org/2000/svg">
<path fill-rule="evenodd" clip-rule="evenodd" d="M61.5304 67L24.9906 47.0278L25.4602 46.1493L62 66.1215L61.5304 67Z" fill="#FCC055"/>
<path fill-rule="evenodd" clip-rule="evenodd" d="M61.5304 67L24.9906 47.0278L25.4602 46.1493L62 66.1215L61.5304 67Z" fill="black" fill-opacity="0.2"/>
<path fill-rule="evenodd" clip-rule="evenodd" d="M24.8589 46.111L39.5689 0L40.5088 0.306576L25.7161 46.677C25.6412 46.9117 25.4318 47.076 25.1883 47.0911L1.06035 48.5849L1 47.5881L24.8589 46.111Z" fill="#FCC055"/>
<path fill-rule="evenodd" clip-rule="evenodd" d="M24.8589 46.111L39.5689 0L40.5088 0.306576L25.7161 46.677C25.6412 46.9117 25.4318 47.076 25.1883 47.0911L1.06035 48.5849L1 47.5881L24.8589 46.111Z" fill="black" fill-opacity="0.2"/>
<g clip-path="url(#clip0_146_1929)">
<path d="M25.5562 49.9298C25.5582 50.7897 31.1373 51.49 38.0132 51.4854C44.889 51.4807 50.4674 50.7721 50.4671 49.9111C50.4666 49.0442 44.886 48.3435 38.0102 48.3482C31.1358 48.3531 25.556 49.0614 25.5562 49.9298Z" fill="#DBA660"/>
<path d="M33.9075 49.8979C33.9086 50.5449 35.7454 50.9484 38.0104 50.9472C40.2738 50.9456 42.111 50.5399 42.1117 49.8918C42.1104 49.2388 40.2728 48.7097 38.0079 48.7109C35.7444 48.7124 33.9065 49.2435 33.9075 49.8979Z" fill="#8A4852"/>
<path d="M29.8924 43.5152C29.8942 46.8072 33.5289 49.4683 38.0109 49.4648C42.4929 49.4613 46.124 46.795 46.1222 43.503C46.1202 40.9862 43.9892 38.0528 40.9796 36.3051C39.1968 35.2719 39.1624 32.747 40.9763 31.6896C43.9833 29.9383 46.1089 27.0021 46.1069 24.4853C46.1055 21.1919 42.4708 18.5308 37.9888 18.5343C33.5053 18.5375 29.8757 21.2041 29.8774 24.4961C29.8791 27.0143 32.0101 29.9477 35.02 31.6939C36.8026 32.7286 36.8369 35.2535 35.0234 36.3095C32.0164 38.0607 29.8907 40.997 29.8924 43.5152Z" fill="#E9E7FC"/>
<path d="M44.6828 26.6922C45.9345 24.0182 40.5046 24.2953 37.8445 26.424C36.3691 27.6045 34.1474 27.9735 31.3071 26.701C36.4397 29.6112 41.2082 30.9488 44.6828 26.6922Z" fill="#F3A250"/>
<path d="M44.6828 26.6923C43.9472 28.6859 42.3866 29.7971 40.4745 30.9109C38.378 32.1313 38.7119 34.1614 38.6766 34.3018C38.6773 35.5277 37.3243 35.5284 37.325 34.3029C37.2777 34.1159 37.6609 32.1558 35.5222 30.9131C33.6079 29.8025 32.0457 28.6938 31.3072 26.7011C29.9596 23.6432 35.4171 24.6374 37.9617 26.3332C39.5874 27.4151 41.7429 28.0144 44.6828 26.6923Z" fill="#F9CF6B"/>
<path d="M34.5273 49.7146C34.5277 50.1813 36.0879 50.436 38.0125 50.4353C39.9357 50.4343 41.4967 50.1767 41.4966 49.7086L41.3165 48.9478C40.3083 49.2812 39.1883 49.4646 38.0109 49.4648C36.8335 49.465 35.7158 49.2855 34.7062 48.9527L34.5273 49.7146Z" fill="#DEDFFB"/>
<path d="M37.0448 37.3122C37.0451 37.5535 37.1458 37.7849 37.325 37.9559C37.5041 38.1269 37.7472 38.2235 38.001 38.2246C38.2549 38.2244 38.4983 38.1286 38.6781 37.9583C38.858 37.788 38.9596 37.5569 38.9608 37.3155C38.9614 36.8579 38.4007 36.5455 38.0925 35.9915C38.0847 35.9757 38.0724 35.9624 38.0569 35.953C38.0414 35.9436 38.0235 35.9386 38.0051 35.9385C37.9868 35.9385 37.9688 35.9433 37.9532 35.9525C37.9377 35.9618 37.9252 35.975 37.9172 35.9907C37.607 36.5453 37.0455 36.8545 37.0448 37.3122ZM37.8199 40.4422C37.8393 40.4121 37.8664 40.3873 37.8988 40.3701C37.9311 40.3528 37.9676 40.3438 38.0047 40.3437C38.0417 40.3437 38.0782 40.3527 38.1106 40.3699C38.143 40.387 38.1702 40.4118 38.1896 40.4418C39.2657 42.0864 42.7317 41.9068 44.1706 43.6427L44.1719 45.1847C39.3635 45.6848 33.5959 45.6321 31.6218 43.2687C32.4613 41.5344 36.5808 42.3006 37.8199 40.4422Z" fill="#F3A250"/>
<path d="M41.5241 42.6243C39.1452 42.9741 36.2309 44.653 31.6221 43.2688C31.2616 44.2471 31.1042 45.139 31.7669 45.9627C32.9967 47.4989 35.3419 48.5524 38.0093 48.5502C40.5276 48.5482 42.7541 47.622 44.029 46.2317C44.7891 45.4009 44.7643 44.1243 43.9312 43.3598C43.6162 43.0699 43.2352 42.8528 42.8177 42.7255C42.4002 42.5982 41.9577 42.5626 41.5241 42.6243Z" fill="#F9CF6B"/>
<path d="M26.4695 47.4929C26.4696 47.778 27.4247 48.0094 28.6021 48.0093C29.778 48.0088 30.7324 47.7749 30.7324 47.4899C30.733 47.2021 29.7782 46.9692 28.6005 46.9708C27.4245 46.9713 26.4687 47.2048 26.4695 47.4929Z" fill="#BF7D5A"/>
<path d="M27.4532 47.491C27.4545 47.6552 27.9675 47.7894 28.6013 47.789C29.2351 47.7886 29.7489 47.6542 29.7491 47.4903C29.7482 47.3247 29.2337 47.1903 28.6014 47.1909C27.9676 47.1913 27.4523 47.3255 27.4532 47.491Z" fill="#8A4852"/>
<path d="M30.7325 47.4899C30.7325 47.7749 29.7781 48.0088 28.6022 48.0092C27.4248 48.0094 26.4697 47.7779 26.4681 47.4926L26.4714 49.7054C26.4714 49.9905 27.4262 50.2233 28.6039 50.2218C29.7799 50.2213 30.7343 49.9874 30.7342 49.7024L30.7325 47.4899Z" fill="#AA6256"/>
<path d="M53 53.9392C53.0011 54.9732 46.2892 55.9923 38.0165 55.999C29.7442 56.0043 23.0306 54.994 23.0295 53.9601L25.5561 49.9298C25.5582 50.7897 31.1373 51.49 38.0132 51.4854C44.889 51.4807 50.4674 50.7721 50.4671 49.9111L53 53.9392Z" fill="#BF7D5A"/>
<path d="M44.3897 51.2593C45.781 51.1528 46.9945 51.0153 47.9652 50.8528L49.2159 55.264C48.0203 55.4524 46.5926 55.6164 44.9861 55.7405L44.3897 51.2593ZM35.6769 51.4586C37.1686 51.494 38.661 51.4949 40.1528 51.4612L40.1562 55.9748C38.6644 56.0092 37.172 56.0084 35.6803 55.9722L35.6769 51.4586ZM31.3139 55.7692C30.0274 55.676 28.855 55.559 27.8127 55.4232L28.4619 50.9294C29.363 51.064 30.455 51.1791 31.669 51.2707L31.3139 55.7692Z" fill="#AA6256"/>
<path d="M27.6939 20.2316L27.7144 47.489C27.7147 47.5762 28.1112 47.6627 28.6021 47.6623C29.0915 47.6616 29.4732 47.5751 29.473 47.488L29.454 20.2308C29.4536 20.3341 29.0719 20.4205 28.5828 20.4198C28.0931 20.4219 27.6954 20.3338 27.6936 20.233L27.6939 20.2316Z" fill="#DBA660"/>
<path d="M26.4485 18.3097L26.4502 20.5222C26.4499 20.8086 27.4026 21.044 28.5788 21.0421C29.7595 21.0412 30.7109 20.8067 30.7112 20.5203L30.7098 18.3063C30.7101 18.0199 29.7565 17.7887 28.5755 17.7911C27.3999 17.7902 26.4487 18.0233 26.4481 18.3111L26.4485 18.3097Z" fill="#AA6256"/>
<path d="M49.551 47.4771C49.5514 47.7607 48.597 47.9946 47.4192 47.9961C46.2433 47.9966 45.2885 47.7637 45.2881 47.4801C45.2873 47.192 46.2417 46.9581 47.4191 46.958C48.5953 46.9561 49.5501 47.189 49.551 47.4771Z" fill="#BF7D5A"/>
<path d="M46.2738 47.4786C46.274 47.6411 46.7881 47.7769 47.4207 47.7749C48.0542 47.7759 48.5695 47.6418 48.5686 47.4762C48.5676 47.3106 48.0544 47.1779 47.4209 47.1768C46.7867 47.1786 46.2729 47.313 46.2738 47.4786Z" fill="#8A4852"/>
<path d="M45.2886 47.4802C45.289 47.7638 46.2423 47.9964 47.42 47.9948C48.5974 47.9946 49.5518 47.7608 49.5518 47.4757L49.5532 49.6897C49.5533 49.9747 48.5989 50.2085 47.4214 50.2087C46.2452 50.2106 45.2904 49.9777 45.2904 49.6927L45.2886 47.4802Z" fill="#AA6256"/>
<path d="M46.5161 20.2194L46.537 47.4754C46.5369 47.5773 46.9414 47.6492 47.4184 47.6488C47.9141 47.648 48.2988 47.5754 48.2988 47.4735L48.278 20.2175C48.2776 20.3208 47.893 20.4066 47.3973 20.4075C46.9203 20.4078 46.5161 20.3213 46.5161 20.2194Z" fill="#DBA660"/>
<path d="M49.529 18.2935L49.5304 20.5074C49.5301 20.7938 48.5787 21.0283 47.401 21.0299C46.2206 21.0294 45.2691 20.7958 45.2679 20.509L45.2676 18.2968C45.2664 18.0101 46.219 17.7773 47.3994 17.7778C48.5757 17.7759 49.5278 18.0067 49.529 18.2935Z" fill="#AA6256"/>
<path d="M25.749 18.3792C24.3824 17.5901 23 15.5941 23 14.0598C22.9989 13.0259 29.7107 12.0067 37.9834 12C46.2561 11.9933 52.9693 13.005 52.9704 14.039C52.9719 15.5736 51.7118 17.4764 50.346 18.2661C50.3451 17.4079 44.8627 16.509 37.9868 16.5137C31.111 16.5183 25.7484 17.5196 25.749 18.3792Z" fill="#BF7D5A"/>
<path d="M52.968 14.022C52.8923 15.0519 46.2111 16.0596 37.9869 16.0646C29.7628 16.0695 23.0788 15.0727 23.0005 14.0435C23.0764 13.0122 29.76 12.0079 37.9827 12.0026C46.2053 11.9974 52.89 12.9914 52.968 14.022Z" fill="#DBA660"/>
<path d="M51.7149 14.0141C51.6454 14.6776 45.5258 15.3348 37.9867 15.3396C30.4476 15.3445 24.3188 14.7047 24.2483 14.0418C24.3189 13.3801 30.444 12.7328 37.9849 12.7269C45.5258 12.721 51.6444 13.3513 51.716 14.0159L51.7149 14.0141Z" fill="#AA6256"/>
<path d="M24.2524 14.044C24.2713 14.2399 24.8442 14.4514 25.8359 14.6181C28.0499 14.1811 32.7697 13.8443 38.221 13.8404C43.4713 13.8392 48.0433 14.1349 50.3486 14.5614C51.1963 14.3867 51.6916 14.2042 51.7161 14.0158C51.6589 13.3557 45.5209 12.7154 37.982 12.7262C30.4415 12.7367 24.3196 13.3772 24.2524 14.044Z" fill="#BF7D5A"/>
<path opacity="0.13" d="M29.8913 43.5134C29.8942 46.8071 33.5289 49.4682 38.0109 49.4647C39.9698 49.4637 41.7679 48.9568 43.1682 48.1049C38.107 49.2483 32.6986 46.4981 32.6969 42.4116C32.6937 39.8931 34.8205 36.9585 37.8276 35.2072C39.6143 34.1664 39.6336 31.6378 37.8239 30.5931C34.8143 28.8455 32.6833 25.9121 32.6819 23.3925C32.6801 21.5403 33.8296 19.8833 35.6375 18.7908C32.3033 19.5278 29.8753 21.8035 29.8774 24.496C29.8795 27.0128 32.0101 29.9476 35.0182 31.6949C36.8021 32.7239 36.8387 35.2523 35.0216 36.3105C32.016 38.062 29.8893 40.9966 29.8913 43.5134Z" fill="#55697C"/>
<path d="M50.444 18.0693C50.4434 17.2097 44.8628 16.509 37.987 16.5136C31.1111 16.5183 25.5328 17.2269 25.5331 18.0879C25.5335 18.9548 31.1141 19.6555 37.99 19.6508C44.8658 19.6462 50.4442 18.9376 50.444 18.0693Z" fill="#BF7D5A"/>
<path opacity="0.8" d="M42.7025 39.8503C43.5227 40.7597 43.9672 41.6343 44.3731 41.3063C44.7724 40.9798 44.4424 39.9576 43.6222 39.0481C42.8009 38.1369 41.8351 37.8368 41.4358 38.1633C41.031 38.4931 41.8796 38.9388 42.7025 39.8503ZM39.9632 37.2267C39.8416 37.4526 39.992 37.7525 40.294 37.8991C40.5948 38.044 40.9334 37.9826 41.0565 37.757C41.1741 37.5347 41.0279 37.2372 40.7274 37.0909C40.4269 36.9446 40.0823 37.0047 39.9632 37.2267Z" fill="white"/>
<path d="M34.3431 27.2669C33.6097 26.7993 32.9255 26.3816 32.889 26.4258C32.8621 26.4689 33.4964 26.9486 34.1945 27.4681C34.2098 27.4797 34.2212 27.4953 34.2275 27.5129C34.2338 27.5306 34.2346 27.5495 34.23 27.5676C34.2254 27.5857 34.2154 27.6022 34.2013 27.6151C34.1873 27.628 34.1696 27.6368 34.1504 27.6406C33.7112 27.727 33.3537 27.8096 33.356 27.8337C33.3599 27.864 33.7318 27.8272 34.1775 27.7732C34.2593 27.762 34.3228 27.8579 34.2728 27.9273C33.7822 28.6321 33.352 29.2904 33.3893 29.3173C33.4358 29.352 33.9404 28.7416 34.4858 28.0688C34.5357 28.0067 34.6478 28.0329 34.6672 28.1107C34.7564 28.522 34.8447 28.8696 34.8689 28.8657C34.9008 28.862 34.8634 28.5161 34.8052 28.0846C34.7947 28.0086 34.8958 27.9468 34.9688 27.9944C35.7006 28.4618 36.3944 28.8784 36.4228 28.8356C36.4498 28.7924 35.8141 28.3051 35.1173 27.7933C35.0525 27.737 35.0718 27.6391 35.1614 27.6208C35.6006 27.5344 35.9584 27.4503 35.9545 27.42C35.9522 27.3959 35.5786 27.4338 35.133 27.4805C35.1139 27.4827 35.0945 27.4797 35.0771 27.4717C35.0598 27.4637 35.0452 27.4512 35.0352 27.4356C35.0252 27.4199 35.0201 27.4019 35.0206 27.3836C35.0211 27.3653 35.0271 27.3475 35.0379 27.3324C35.53 26.6278 35.9598 25.9709 35.9148 25.9439C35.8761 25.9093 35.3634 26.521 34.8264 27.1911C34.8138 27.2051 34.7974 27.2155 34.779 27.2211C34.7606 27.2268 34.7409 27.2274 34.7221 27.2231C34.7033 27.2188 34.6862 27.2095 34.6725 27.1965C34.6589 27.1835 34.6494 27.1671 34.6449 27.1492C34.5554 26.7393 34.4672 26.3918 34.4433 26.3942C34.4096 26.3991 34.4487 26.7439 34.5056 27.1676C34.5172 27.2527 34.4164 27.3131 34.3431 27.2669Z" fill="white"/>
</g>
<path fill-rule="evenodd" clip-rule="evenodd" d="M0.0296188 48.265L14.5115 3.84512L15.4628 4.15493L1.08539 48.2544L36.6183 66.9976L61.6374 66.5073L75.0408 21.3578L76 21.6422L62.5134 67.0721C62.439 67.3226 62.211 67.4962 61.9496 67.5014L36.5346 67.9994C36.433 68.0014 36.3325 67.9776 36.2426 67.9302L0.320202 48.9815C0.0617556 48.8452 -0.0609111 48.5427 0.0296188 48.265Z" fill="#FCC055"/>
<path fill-rule="evenodd" clip-rule="evenodd" d="M39.8968 0.00970221C40.0315 -0.00914606 40.1687 0.0182838 40.2857 0.0874963L75.5125 20.9144C76.0116 21.2095 75.8436 21.9702 75.2666 22.0279L50.5879 24.4944C50.465 24.5067 50.3412 24.4807 50.2335 24.4201L14.9994 4.5808C14.499 4.29907 14.642 3.54343 15.2108 3.46385L39.8968 0.00970221ZM39.8969 1.01945L16.5217 4.29018L50.6143 23.4868L73.9529 21.1542L39.8969 1.01945Z" fill="#FCC055"/>
<path fill-rule="evenodd" clip-rule="evenodd" d="M36.0227 67.3468L50.0304 23.8468L50.9829 24.1532L36.9752 67.6532L36.0227 67.3468Z" fill="#FCC055"/>
<defs>
<clipPath id="clip0_146_1929">
<rect width="44" height="44" fill="white" transform="translate(16 12)"/>
</clipPath>
</defs>
</svg>
