<svg width="77" height="68" viewBox="0 0 77 68" fill="none" xmlns="http://www.w3.org/2000/svg">
<path fill-rule="evenodd" clip-rule="evenodd" d="M62.0304 67L25.4906 47.0278L25.9602 46.1493L62.5 66.1215L62.0304 67Z" fill="#FCC055"/>
<path fill-rule="evenodd" clip-rule="evenodd" d="M62.0304 67L25.4906 47.0278L25.9602 46.1493L62.5 66.1215L62.0304 67Z" fill="black" fill-opacity="0.2"/>
<path fill-rule="evenodd" clip-rule="evenodd" d="M25.3589 46.111L40.0689 0L41.0088 0.306576L26.2161 46.677C26.1412 46.9117 25.9318 47.076 25.6883 47.0911L1.56035 48.5849L1.5 47.5881L25.3589 46.111Z" fill="#FCC055"/>
<path fill-rule="evenodd" clip-rule="evenodd" d="M25.3589 46.111L40.0689 0L41.0088 0.306576L26.2161 46.677C26.1412 46.9117 25.9318 47.076 25.6883 47.0911L1.56035 48.5849L1.5 47.5881L25.3589 46.111Z" fill="black" fill-opacity="0.2"/>
<g clip-path="url(#clip0_218_864)">
<path d="M21.3017 35.8392C16.2679 30.8055 16.2679 22.644 21.3017 17.6102C26.3355 12.5764 34.497 12.5764 39.5308 17.6102C44.5646 22.644 26.3356 40.873 21.3017 35.8392Z" fill="url(#paint0_linear_218_864)"/>
<path d="M21.3014 35.8392C16.2676 30.8054 34.4967 12.5763 39.5304 17.6101C44.5642 22.6439 26.3353 40.873 21.3014 35.8392Z" fill="url(#paint1_linear_218_864)"/>
<path d="M21.3014 35.8392C16.2676 30.8054 34.4967 12.5763 39.5304 17.6101C44.5642 22.6439 26.3353 40.873 21.3014 35.8392Z" fill="url(#paint2_linear_218_864)"/>
<path d="M21.3017 17.6101C16.2679 22.6439 16.2679 30.8053 21.3017 35.8391C23.8275 38.3649 29.6754 35.0336 34.2398 30.4515L21.3507 17.5624C21.3345 17.5784 21.3179 17.5939 21.3017 17.6101Z" fill="url(#paint3_linear_218_864)"/>
<path d="M38.5 18.1093C40.187 18.1093 41.5546 16.7417 41.5546 15.0546C41.5546 13.3676 40.187 12 38.5 12C36.8129 12 35.4453 13.3676 35.4453 15.0546C35.4453 16.7417 36.8129 18.1093 38.5 18.1093Z" fill="url(#paint4_linear_218_864)"/>
<path d="M35.4453 15.0546C35.4453 16.7416 36.8129 18.1093 38.5 18.1093C40.187 18.1093 41.5546 16.7416 41.5546 15.0546C41.5546 14.6892 41.4902 14.3389 41.3726 14.0142H35.6272C35.5066 14.3478 35.445 14.6999 35.4453 15.0546Z" fill="url(#paint5_linear_218_864)"/>
<path d="M36.3403 17.2147C37.5332 18.4076 39.4673 18.4076 40.6603 17.2147C41.8532 16.0218 41.8532 14.0877 40.6603 12.8947C40.4097 12.6436 40.1172 12.4382 39.7959 12.2877L35.7334 16.3502C35.8838 16.6715 36.0892 16.9641 36.3403 17.2147Z" fill="url(#paint6_linear_218_864)"/>
<path d="M45.8771 46.6438C44.6923 46.2575 43.4113 46.2865 42.2451 46.726C42.116 46.7748 41.9887 46.6475 42.0375 46.5184C42.478 45.3529 42.5052 44.067 42.1198 42.8864C42.0788 42.7608 42.1975 42.642 42.3232 42.683C43.508 43.0693 44.7891 43.0403 45.9552 42.6008C46.0843 42.5519 46.2116 42.6793 46.1628 42.8084C45.7223 43.9739 45.6951 45.2597 46.0805 46.4404C46.1215 46.566 46.0028 46.6848 45.8771 46.6438Z" fill="url(#paint7_linear_218_864)"/>
<path d="M32.4484 54.008C31.2678 53.6226 29.9819 53.6498 28.8164 54.0903C28.6873 54.1391 28.56 54.0117 28.6088 53.8826C29.0493 52.7172 29.0765 51.4313 28.6911 50.2507C28.6501 50.125 28.7687 50.0063 28.8945 50.0473C30.0793 50.4335 31.3603 50.4045 32.5264 49.965C32.6556 49.9162 32.7829 50.0436 32.7341 50.1726C32.2936 51.3381 32.2664 52.624 32.6518 53.8046C32.6928 53.9303 32.5741 54.049 32.4484 54.008Z" fill="url(#paint8_linear_218_864)"/>
<path d="M19.2208 43.786C18.6561 42.675 17.7297 41.7897 16.5944 41.2759C16.4685 41.2191 16.4685 41.0391 16.5944 40.9823C17.73 40.4696 18.6584 39.5796 19.2208 38.4722C19.2806 38.3543 19.4486 38.3543 19.5084 38.4722C20.0731 39.5832 20.9995 40.4685 22.1348 40.9823C22.2606 41.0391 22.2606 41.2191 22.1348 41.2759C20.9992 41.7886 20.0708 42.6786 19.5084 43.786C19.4485 43.9038 19.2806 43.9038 19.2208 43.786Z" fill="url(#paint9_linear_218_864)"/>
<path d="M60.4115 52.1715C59.3005 52.7361 58.4152 53.6625 57.9014 54.7979C57.8446 54.9237 57.6646 54.9237 57.6078 54.7979C57.0951 53.6623 56.2051 52.7339 55.0977 52.1715C54.9798 52.1116 54.9798 51.9437 55.0977 51.8839C56.2087 51.3192 57.094 50.3928 57.6078 49.2574C57.6646 49.1316 57.8446 49.1316 57.9014 49.2574C58.4141 50.3931 59.3041 51.3215 60.4115 51.8839C60.5294 51.9437 60.5294 52.1116 60.4115 52.1715Z" fill="url(#paint10_linear_218_864)"/>
<path d="M34.7425 24.3583C33.6316 24.9229 32.7462 25.8493 32.2325 26.9847C32.1757 27.1105 31.9956 27.1105 31.9388 26.9847C31.4261 25.849 30.5362 24.9206 29.4288 24.3583C29.3109 24.2985 29.3109 24.1304 29.4288 24.0706C30.5397 23.506 31.4251 22.5796 31.9388 21.4442C31.9956 21.3184 32.1757 21.3184 32.2325 21.4442C32.7452 22.5799 33.6351 23.5083 34.7425 24.0706C34.8604 24.1304 34.8604 24.2984 34.7425 24.3583Z" fill="url(#paint11_linear_218_864)"/>
<path d="M38.8373 48.8932H36.4332C36.2508 48.8932 36.0759 48.8207 35.947 48.6917C35.818 48.5628 35.7456 48.3879 35.7456 48.2055V44.9212C35.7456 43.5161 35.1984 42.1952 34.2049 41.2017C32.4975 39.4943 31.5571 37.2241 31.5571 34.8096V31.2314C31.5571 31.1411 31.5749 31.0516 31.6095 30.9682C31.644 30.8848 31.6947 30.809 31.7585 30.7451C31.8224 30.6813 31.8982 30.6306 31.9816 30.596C32.0651 30.5615 32.1545 30.5437 32.2448 30.5437H34.6489C34.8313 30.5437 35.0062 30.6162 35.1352 30.7451C35.2641 30.8741 35.3366 31.049 35.3366 31.2314V34.8096C35.3366 36.2146 35.8837 37.5356 36.8773 38.5291C38.5847 40.2365 39.525 42.5066 39.525 44.9212V48.2055C39.525 48.3879 39.4525 48.5628 39.3236 48.6917C39.1946 48.8207 39.0197 48.8932 38.8373 48.8932Z" fill="url(#paint12_linear_218_864)"/>
<path d="M34.2051 41.2017C35.1986 42.1952 35.7458 43.5161 35.7458 44.9212V48.2055C35.7458 48.3879 35.8182 48.5628 35.9472 48.6917C36.0761 48.8207 36.2511 48.8932 36.4334 48.8932H38.8375C39.0199 48.8932 39.1948 48.8207 39.3238 48.6917C39.4528 48.5628 39.5252 48.3879 39.5252 48.2055C39.5252 47.1275 39.097 46.0936 38.3347 45.3314L34.2051 41.2017Z" fill="url(#paint13_linear_218_864)"/>
<path d="M34.2051 41.2017C35.1986 42.1952 35.7458 43.5161 35.7458 44.9212V48.2055C35.7458 48.3879 35.8182 48.5628 35.9472 48.6917C36.0761 48.8207 36.2511 48.8932 36.4334 48.8932H38.8375C39.0199 48.8932 39.1948 48.8207 39.3238 48.6917C39.4528 48.5628 39.5252 48.3879 39.5252 48.2055C39.5252 47.1275 39.097 46.0936 38.3347 45.3314L34.2051 41.2017Z" fill="url(#paint14_linear_218_864)"/>
<path d="M39.5253 48.2055C39.5253 47.1275 39.0971 46.0936 38.3348 45.3314L34.2051 41.2017" fill="url(#paint15_linear_218_864)"/>
<path d="M36.8773 38.5291C35.8837 37.5356 35.3366 36.2146 35.3366 34.8096V31.2314C35.3366 31.049 35.2641 30.8741 35.1352 30.7451C35.0062 30.6162 34.8313 30.5437 34.6489 30.5437H32.2448C32.0624 30.5437 31.8875 30.6162 31.7585 30.7451C31.6296 30.8741 31.5571 31.049 31.5571 31.2314V31.82C31.5571 32.7092 31.9104 33.5621 32.5392 34.1909L36.8773 38.5291Z" fill="url(#paint16_linear_218_864)"/>
<path d="M60.2985 45.1457L58.5985 46.8456C58.4696 46.9745 58.2946 47.047 58.1122 47.047C57.9299 47.047 57.7549 46.9745 57.626 46.8456L55.3037 44.5233C54.3102 43.5298 52.9892 42.9826 51.5841 42.9826C49.1695 42.9826 46.8994 42.0423 45.192 40.335L42.6618 37.8048C42.5329 37.6758 42.4604 37.5009 42.4604 37.3185C42.4604 37.1361 42.5329 36.9612 42.6618 36.8322L44.3618 35.1323C44.4908 35.0034 44.6657 34.9309 44.8481 34.9309C45.0304 34.9309 45.2054 35.0034 45.3343 35.1323L47.8645 37.6625C48.858 38.656 50.179 39.2032 51.5841 39.2032C53.9987 39.2033 56.2688 40.1435 57.9762 41.8509L60.2985 44.1732C60.3623 44.237 60.413 44.3128 60.4475 44.3963C60.4821 44.4797 60.4999 44.5691 60.4999 44.6594C60.4999 44.7497 60.4821 44.8391 60.4475 44.9226C60.413 45.006 60.3623 45.0818 60.2985 45.1457Z" fill="url(#paint17_linear_218_864)"/>
<path d="M51.5845 42.9827C52.9896 42.9827 54.3105 43.5298 55.304 44.5234L57.6263 46.8456C57.7553 46.9746 57.9302 47.047 58.1126 47.047C58.295 47.047 58.4699 46.9746 58.5989 46.8456L60.2988 45.1457C60.4277 45.0167 60.5002 44.8418 60.5002 44.6594C60.5002 44.4771 60.4277 44.3021 60.2988 44.1732C59.5365 43.4109 58.5027 42.9827 57.4247 42.9827H51.5845Z" fill="url(#paint18_linear_218_864)"/>
<path d="M51.5845 42.9827C52.9896 42.9827 54.3105 43.5298 55.304 44.5234L57.6263 46.8456C57.7553 46.9746 57.9302 47.047 58.1126 47.047C58.295 47.047 58.4699 46.9746 58.5989 46.8456L60.2988 45.1457C60.4277 45.0167 60.5002 44.8418 60.5002 44.6594C60.5002 44.4771 60.4277 44.3021 60.2988 44.1732C59.5365 43.4109 58.5027 42.9827 57.4247 42.9827H51.5845Z" fill="url(#paint19_linear_218_864)"/>
<path d="M60.2988 44.1732C59.5365 43.4109 58.5027 42.9827 57.4247 42.9827H51.5845" fill="url(#paint20_linear_218_864)"/>
<path d="M51.5841 39.2032C50.179 39.2033 48.858 38.656 47.8645 37.6625L45.3343 35.1323C45.2054 35.0034 45.0304 34.9309 44.8481 34.9309C44.6657 34.9309 44.4908 35.0034 44.3618 35.1323L42.6618 36.8322C42.5329 36.9612 42.4604 37.1361 42.4604 37.3185C42.4604 37.5009 42.5329 37.6758 42.6618 37.8048L43.078 38.221C43.7069 38.8498 44.5597 39.2031 45.449 39.2031L51.5841 39.2032Z" fill="url(#paint21_linear_218_864)"/>
<path d="M26.253 43.6671L25.4588 42.8729C25.3248 42.7389 25.143 42.6636 24.9534 42.6636C24.7639 42.6636 24.5821 42.7389 24.448 42.8729L22.6864 44.6346C22.5524 44.7686 22.4771 44.9504 22.4771 45.1399C22.4771 45.3295 22.5524 45.5113 22.6864 45.6453L23.3795 46.3384C25.7799 48.7388 29.6717 48.7388 32.0721 46.3384L32.7652 45.6453C32.8993 45.5113 32.9746 45.3295 32.9746 45.1399C32.9746 44.9504 32.8993 44.7686 32.7652 44.6346L31.0036 42.8729C30.8696 42.7389 30.6878 42.6636 30.4982 42.6636C30.3086 42.6636 30.1268 42.7389 29.9928 42.8729L29.1987 43.6671C28.3852 44.4806 27.0664 44.4806 26.253 43.6671Z" fill="url(#paint22_linear_218_864)"/>
<path d="M32.0721 46.3384L32.7652 45.6453C32.8992 45.5113 32.9745 45.3295 32.9745 45.1399C32.9745 44.9504 32.8992 44.7686 32.7652 44.6346L31.0036 42.8729C30.8695 42.7389 30.6877 42.6636 30.4982 42.6636C30.3086 42.6636 30.1268 42.7389 29.9928 42.8729L29.1986 43.6671C28.3852 44.4805 27.0663 44.4805 26.2529 43.6671L28.9159 46.33C29.78 47.1941 31.1881 47.2159 32.0554 46.355L32.0721 46.3384Z" fill="url(#paint23_linear_218_864)"/>
<path d="M42.7093 31.6326H43.8324C44.022 31.6326 44.2038 31.5573 44.3378 31.4233C44.4719 31.2892 44.5472 31.1074 44.5472 30.9179V28.4265C44.5472 28.237 44.4719 28.0552 44.3378 27.9211C44.2038 27.7871 44.022 27.7118 43.8324 27.7118H42.8522C39.4575 27.7118 36.7056 30.4638 36.7056 33.8585V34.8387C36.7056 35.0282 36.7809 35.21 36.9149 35.3441C37.0489 35.4781 37.2307 35.5534 37.4203 35.5534H39.9116C40.1012 35.5534 40.283 35.4781 40.417 35.3441C40.5511 35.21 40.6264 35.0282 40.6264 34.8387V33.7156C40.6265 32.5652 41.559 31.6326 42.7093 31.6326Z" fill="url(#paint24_linear_218_864)"/>
<path d="M42.7093 31.6326H43.8324C44.022 31.6326 44.2038 31.5573 44.3378 31.4233C44.4719 31.2892 44.5472 31.1074 44.5472 30.9179V28.4265C44.5472 28.237 44.4719 28.0552 44.3378 27.9211C44.2038 27.7871 44.022 27.7118 43.8324 27.7118H42.8522C39.4575 27.7118 36.7056 30.4638 36.7056 33.8585V34.8387C36.7056 35.0282 36.7809 35.21 36.9149 35.3441C37.0489 35.4781 37.2307 35.5534 37.4203 35.5534H39.9116C40.1012 35.5534 40.283 35.4781 40.417 35.3441C40.5511 35.21 40.6264 35.0282 40.6264 34.8387V33.7156C40.6265 32.5652 41.559 31.6326 42.7093 31.6326Z" fill="url(#paint25_linear_218_864)"/>
<path d="M36.7056 33.8584V34.8386C36.7056 35.0282 36.7809 35.21 36.9149 35.344C37.049 35.4781 37.2307 35.5534 37.4203 35.5534H39.9116C40.1012 35.5534 40.283 35.4781 40.417 35.344C40.5511 35.21 40.6264 35.0282 40.6264 34.8386V33.7155C40.6264 32.5652 41.559 31.6326 42.7093 31.6326H38.9434C37.7213 31.6326 36.7103 32.6129 36.7057 33.8349L36.7056 33.8584Z" fill="url(#paint26_linear_218_864)"/>
<path d="M48.7704 54.1621V55.2852C48.7704 55.4748 48.8457 55.6566 48.9798 55.7906C49.1138 55.9246 49.2956 55.9999 49.4852 55.9999H51.9765C52.1661 55.9999 52.3479 55.9246 52.4819 55.7906C52.6159 55.6566 52.6912 55.4748 52.6912 55.2852V54.305C52.6912 50.9103 49.9393 48.1583 46.5446 48.1583H45.5644C45.3748 48.1583 45.193 48.2336 45.059 48.3677C44.9249 48.5017 44.8496 48.6835 44.8496 48.8731V51.3644C44.8496 51.554 44.9249 51.7358 45.059 51.8698C45.193 52.0038 45.3748 52.0791 45.5644 52.0791H46.6875C47.8378 52.0791 48.7704 53.0117 48.7704 54.1621Z" fill="url(#paint27_linear_218_864)"/>
<path d="M46.5446 48.1584H45.5644C45.4705 48.1584 45.3776 48.1769 45.2908 48.2129C45.2041 48.2488 45.1253 48.3014 45.059 48.3678C44.9926 48.4342 44.9399 48.513 44.904 48.5997C44.8681 48.6864 44.8496 48.7793 44.8496 48.8732V51.3645C44.8496 51.4584 44.8681 51.5513 44.904 51.638C44.9399 51.7248 44.9926 51.8035 45.059 51.8699C45.1253 51.9363 45.2041 51.9889 45.2908 52.0249C45.3776 52.0608 45.4705 52.0793 45.5644 52.0793H46.6875C47.8378 52.0793 48.7704 53.0119 48.7704 54.1622V50.3963C48.7704 49.1741 47.7901 48.1632 46.5681 48.1585L46.5446 48.1584Z" fill="url(#paint28_linear_218_864)"/>
<path d="M55.0041 35.8392C60.0379 30.8055 60.0379 22.644 55.0041 17.6102C49.9703 12.5764 41.8088 12.5764 36.775 17.6102C31.7412 22.644 49.9702 40.873 55.0041 35.8392Z" fill="url(#paint29_linear_218_864)"/>
<path d="M55.004 17.6101C60.0378 22.6439 60.0378 30.8053 55.004 35.8391C52.4782 38.3649 46.6303 35.0336 42.0659 30.4515L54.955 17.5624C54.9712 17.5784 54.9878 17.5939 55.004 17.6101Z" fill="url(#paint30_linear_218_864)"/>
</g>
<path fill-rule="evenodd" clip-rule="evenodd" d="M0.529619 48.265L15.0115 3.84512L15.9628 4.15493L1.58539 48.2544L37.1183 66.9976L62.1374 66.5073L75.5408 21.3578L76.5 21.6422L63.0134 67.0721C62.939 67.3226 62.711 67.4962 62.4496 67.5014L37.0346 67.9994C36.933 68.0014 36.8325 67.9776 36.7426 67.9302L0.820202 48.9815C0.561756 48.8452 0.439089 48.5427 0.529619 48.265Z" fill="#FCC055"/>
<path fill-rule="evenodd" clip-rule="evenodd" d="M40.3968 0.00970221C40.5315 -0.00914606 40.6687 0.0182838 40.7857 0.0874963L76.0125 20.9144C76.5116 21.2095 76.3436 21.9702 75.7666 22.0279L51.0879 24.4944C50.965 24.5067 50.8412 24.4807 50.7335 24.4201L15.4994 4.5808C14.999 4.29907 15.142 3.54343 15.7108 3.46385L40.3968 0.00970221ZM40.3969 1.01945L17.0217 4.29018L51.1143 23.4868L74.4529 21.1542L40.3969 1.01945Z" fill="#FCC055"/>
<path fill-rule="evenodd" clip-rule="evenodd" d="M36.5227 67.3468L50.5304 23.8468L51.4829 24.1532L37.4752 67.6532L36.5227 67.3468Z" fill="#FCC055"/>
<defs>
<linearGradient id="paint0_linear_218_864" x1="25.3769" y1="16.3002" x2="28.0867" y2="22.3355" gradientUnits="userSpaceOnUse">
<stop stop-color="#C8EFFE"/>
<stop offset="1" stop-color="#62DBFB"/>
</linearGradient>
<linearGradient id="paint1_linear_218_864" x1="34.4593" y1="30.7633" x2="25.957" y2="22.2611" gradientUnits="userSpaceOnUse">
<stop stop-color="#07B2CD" stop-opacity="0"/>
<stop offset="0.455" stop-color="#05A5CE" stop-opacity="0.455"/>
<stop offset="1" stop-color="#0290CF"/>
</linearGradient>
<linearGradient id="paint2_linear_218_864" x1="30.3384" y1="30.1098" x2="30.6463" y2="16.7459" gradientUnits="userSpaceOnUse">
<stop stop-color="#07B2CD" stop-opacity="0"/>
<stop offset="0.455" stop-color="#05A5CE" stop-opacity="0.455"/>
<stop offset="1" stop-color="#0290CF"/>
</linearGradient>
<linearGradient id="paint3_linear_218_864" x1="23.4856" y1="27.0004" x2="17.5735" y2="29.7102" gradientUnits="userSpaceOnUse">
<stop stop-color="#07B2CD" stop-opacity="0"/>
<stop offset="0.455" stop-color="#05A5CE" stop-opacity="0.455"/>
<stop offset="1" stop-color="#0290CF"/>
</linearGradient>
<linearGradient id="paint4_linear_218_864" x1="37.3032" y1="13.8579" x2="39.1169" y2="15.6716" gradientUnits="userSpaceOnUse">
<stop stop-color="#FEF0AE"/>
<stop offset="1" stop-color="#FAC600"/>
</linearGradient>
<linearGradient id="paint5_linear_218_864" x1="38.5066" y1="15.0823" x2="38.9967" y2="17.104" gradientUnits="userSpaceOnUse">
<stop stop-color="#FEA613" stop-opacity="0"/>
<stop offset="0.203" stop-color="#FDA215" stop-opacity="0.203"/>
<stop offset="0.405" stop-color="#FB961B" stop-opacity="0.405"/>
<stop offset="0.607" stop-color="#F68225" stop-opacity="0.607"/>
<stop offset="0.807" stop-color="#F06633" stop-opacity="0.807"/>
<stop offset="1" stop-color="#E94444"/>
</linearGradient>
<linearGradient id="paint6_linear_218_864" x1="38.6464" y1="15.2083" x2="40.2392" y2="16.8828" gradientUnits="userSpaceOnUse">
<stop stop-color="#FEA613" stop-opacity="0"/>
<stop offset="0.203" stop-color="#FDA215" stop-opacity="0.203"/>
<stop offset="0.405" stop-color="#FB961B" stop-opacity="0.405"/>
<stop offset="0.607" stop-color="#F68225" stop-opacity="0.607"/>
<stop offset="0.807" stop-color="#F06633" stop-opacity="0.807"/>
<stop offset="1" stop-color="#E94444"/>
</linearGradient>
<linearGradient id="paint7_linear_218_864" x1="42.9743" y1="43.5376" x2="45.4256" y2="45.9888" gradientUnits="userSpaceOnUse">
<stop stop-color="#EAF9FA"/>
<stop offset="1" stop-color="#B4D2E2"/>
</linearGradient>
<linearGradient id="paint8_linear_218_864" x1="29.6068" y1="50.9629" x2="31.6611" y2="53.0173" gradientUnits="userSpaceOnUse">
<stop stop-color="#C8EFFE"/>
<stop offset="1" stop-color="#62DBFB"/>
</linearGradient>
<linearGradient id="paint9_linear_218_864" x1="18.3231" y1="40.0877" x2="21.469" y2="43.2336" gradientUnits="userSpaceOnUse">
<stop stop-color="#FD4755"/>
<stop offset="1" stop-color="#A72B2B"/>
</linearGradient>
<linearGradient id="paint10_linear_218_864" x1="56.6873" y1="50.9603" x2="59.6336" y2="53.9066" gradientUnits="userSpaceOnUse">
<stop stop-color="#FD4755"/>
<stop offset="1" stop-color="#A72B2B"/>
</linearGradient>
<linearGradient id="paint11_linear_218_864" x1="31.0183" y1="23.1471" x2="33.9646" y2="26.0934" gradientUnits="userSpaceOnUse">
<stop stop-color="#8BC727"/>
<stop offset="0.132" stop-color="#83C528"/>
<stop offset="0.343" stop-color="#6BBD2B"/>
<stop offset="0.607" stop-color="#45B131"/>
<stop offset="0.911" stop-color="#11A038"/>
<stop offset="1" stop-color="#009B3A"/>
</linearGradient>
<linearGradient id="paint12_linear_218_864" x1="31.5571" y1="39.7185" x2="39.525" y2="39.7185" gradientUnits="userSpaceOnUse">
<stop stop-color="#FDB4BA"/>
<stop offset="1" stop-color="#FE5694"/>
</linearGradient>
<linearGradient id="paint13_linear_218_864" x1="34.8842" y1="46.7806" x2="37.5296" y2="44.2005" gradientUnits="userSpaceOnUse">
<stop stop-color="#FD3581" stop-opacity="0"/>
<stop offset="0.281" stop-color="#FA317D" stop-opacity="0.282"/>
<stop offset="0.56" stop-color="#F02571" stop-opacity="0.56"/>
<stop offset="0.838" stop-color="#DF115E" stop-opacity="0.838"/>
<stop offset="1" stop-color="#D2024E"/>
</linearGradient>
<linearGradient id="paint14_linear_218_864" x1="36.8652" y1="47.7973" x2="36.8652" y2="48.9747" gradientUnits="userSpaceOnUse">
<stop stop-color="#FD3581" stop-opacity="0"/>
<stop offset="0.281" stop-color="#FA317D" stop-opacity="0.282"/>
<stop offset="0.56" stop-color="#F02571" stop-opacity="0.56"/>
<stop offset="0.838" stop-color="#DF115E" stop-opacity="0.838"/>
<stop offset="1" stop-color="#D2024E"/>
</linearGradient>
<linearGradient id="paint15_linear_218_864" x1="36.8653" y1="47.2094" x2="36.8653" y2="48.7173" gradientUnits="userSpaceOnUse">
<stop stop-color="#FD3581" stop-opacity="0"/>
<stop offset="0.281" stop-color="#FA317D" stop-opacity="0.282"/>
<stop offset="0.56" stop-color="#F02571" stop-opacity="0.56"/>
<stop offset="0.838" stop-color="#DF115E" stop-opacity="0.838"/>
<stop offset="1" stop-color="#D2024E"/>
</linearGradient>
<linearGradient id="paint16_linear_218_864" x1="35.7608" y1="32.186" x2="33.2788" y2="36.3661" gradientUnits="userSpaceOnUse">
<stop stop-color="#FD3581" stop-opacity="0"/>
<stop offset="0.281" stop-color="#FA317D" stop-opacity="0.282"/>
<stop offset="0.56" stop-color="#F02571" stop-opacity="0.56"/>
<stop offset="0.838" stop-color="#DF115E" stop-opacity="0.838"/>
<stop offset="1" stop-color="#D2024E"/>
</linearGradient>
<linearGradient id="paint17_linear_218_864" x1="48.6562" y1="43.8073" x2="54.2904" y2="38.1731" gradientUnits="userSpaceOnUse">
<stop stop-color="#8BC727"/>
<stop offset="0.132" stop-color="#83C528"/>
<stop offset="0.343" stop-color="#6BBD2B"/>
<stop offset="0.607" stop-color="#45B131"/>
<stop offset="0.911" stop-color="#11A038"/>
<stop offset="1" stop-color="#009B3A"/>
</linearGradient>
<linearGradient id="paint18_linear_218_864" x1="56.0027" y1="46.4484" x2="56.0488" y2="42.7535" gradientUnits="userSpaceOnUse">
<stop stop-color="#026841" stop-opacity="0"/>
<stop offset="0.238" stop-color="#026441" stop-opacity="0.238"/>
<stop offset="0.474" stop-color="#015840" stop-opacity="0.475"/>
<stop offset="0.711" stop-color="#01443F" stop-opacity="0.711"/>
<stop offset="0.946" stop-color="#00283D" stop-opacity="0.946"/>
<stop offset="1" stop-color="#00213D"/>
</linearGradient>
<linearGradient id="paint19_linear_218_864" x1="58.1223" y1="45.7666" x2="58.955" y2="46.5993" gradientUnits="userSpaceOnUse">
<stop stop-color="#026841" stop-opacity="0"/>
<stop offset="0.238" stop-color="#026441" stop-opacity="0.238"/>
<stop offset="0.474" stop-color="#015840" stop-opacity="0.475"/>
<stop offset="0.711" stop-color="#01443F" stop-opacity="0.711"/>
<stop offset="0.946" stop-color="#00283D" stop-opacity="0.946"/>
<stop offset="1" stop-color="#00213D"/>
</linearGradient>
<linearGradient id="paint20_linear_218_864" x1="57.7067" y1="45.351" x2="58.773" y2="46.4173" gradientUnits="userSpaceOnUse">
<stop stop-color="#026841" stop-opacity="0"/>
<stop offset="0.238" stop-color="#026441" stop-opacity="0.238"/>
<stop offset="0.474" stop-color="#015840" stop-opacity="0.475"/>
<stop offset="0.711" stop-color="#01443F" stop-opacity="0.711"/>
<stop offset="0.946" stop-color="#00283D" stop-opacity="0.946"/>
<stop offset="1" stop-color="#00213D"/>
</linearGradient>
<linearGradient id="paint21_linear_218_864" x1="46.3024" y1="35.5085" x2="47.5033" y2="40.2194" gradientUnits="userSpaceOnUse">
<stop stop-color="#026841" stop-opacity="0"/>
<stop offset="0.238" stop-color="#026441" stop-opacity="0.238"/>
<stop offset="0.474" stop-color="#015840" stop-opacity="0.475"/>
<stop offset="0.711" stop-color="#01443F" stop-opacity="0.711"/>
<stop offset="0.946" stop-color="#00283D" stop-opacity="0.946"/>
<stop offset="1" stop-color="#00213D"/>
</linearGradient>
<linearGradient id="paint22_linear_218_864" x1="27.2069" y1="43.4115" x2="28.4199" y2="47.5124" gradientUnits="userSpaceOnUse">
<stop stop-color="#FEF0AE"/>
<stop offset="1" stop-color="#FAC600"/>
</linearGradient>
<linearGradient id="paint23_linear_218_864" x1="30.413" y1="42.6783" x2="28.5358" y2="46.8658" gradientUnits="userSpaceOnUse">
<stop stop-color="#FEA613" stop-opacity="0"/>
<stop offset="0.203" stop-color="#FDA215" stop-opacity="0.203"/>
<stop offset="0.405" stop-color="#FB961B" stop-opacity="0.405"/>
<stop offset="0.607" stop-color="#F68225" stop-opacity="0.607"/>
<stop offset="0.807" stop-color="#F06633" stop-opacity="0.807"/>
<stop offset="1" stop-color="#E94444"/>
</linearGradient>
<linearGradient id="paint24_linear_218_864" x1="39.0373" y1="30.0503" x2="41.9397" y2="32.9527" gradientUnits="userSpaceOnUse">
<stop stop-color="#FEF0AE"/>
<stop offset="1" stop-color="#FAC600"/>
</linearGradient>
<linearGradient id="paint25_linear_218_864" x1="38.8991" y1="32.8801" x2="42.5136" y2="29.8782" gradientUnits="userSpaceOnUse">
<stop stop-color="#FEA613" stop-opacity="0"/>
<stop offset="0.203" stop-color="#FDA215" stop-opacity="0.203"/>
<stop offset="0.405" stop-color="#FB961B" stop-opacity="0.405"/>
<stop offset="0.607" stop-color="#F68225" stop-opacity="0.607"/>
<stop offset="0.807" stop-color="#F06633" stop-opacity="0.807"/>
<stop offset="1" stop-color="#E94444"/>
</linearGradient>
<linearGradient id="paint26_linear_218_864" x1="40.4603" y1="35.2782" x2="38.8267" y2="30.9898" gradientUnits="userSpaceOnUse">
<stop stop-color="#FEA613" stop-opacity="0"/>
<stop offset="0.203" stop-color="#FDA215" stop-opacity="0.203"/>
<stop offset="0.405" stop-color="#FB961B" stop-opacity="0.405"/>
<stop offset="0.607" stop-color="#F68225" stop-opacity="0.607"/>
<stop offset="0.807" stop-color="#F06633" stop-opacity="0.807"/>
<stop offset="1" stop-color="#E94444"/>
</linearGradient>
<linearGradient id="paint27_linear_218_864" x1="50.3768" y1="50.5323" x2="47.4744" y2="53.4347" gradientUnits="userSpaceOnUse">
<stop stop-color="#FDB4BA"/>
<stop offset="1" stop-color="#FE5694"/>
</linearGradient>
<linearGradient id="paint28_linear_218_864" x1="45.1248" y1="51.9131" x2="49.4131" y2="50.2795" gradientUnits="userSpaceOnUse">
<stop stop-color="#FD3581" stop-opacity="0"/>
<stop offset="0.281" stop-color="#FA317D" stop-opacity="0.282"/>
<stop offset="0.56" stop-color="#F02571" stop-opacity="0.56"/>
<stop offset="0.838" stop-color="#DF115E" stop-opacity="0.838"/>
<stop offset="1" stop-color="#D2024E"/>
</linearGradient>
<linearGradient id="paint29_linear_218_864" x1="50.9373" y1="16.3036" x2="48.2276" y2="22.3389" gradientUnits="userSpaceOnUse">
<stop stop-color="#C8EFFE"/>
<stop offset="1" stop-color="#62DBFB"/>
</linearGradient>
<linearGradient id="paint30_linear_218_864" x1="52.8286" y1="27.0037" x2="58.7407" y2="29.7135" gradientUnits="userSpaceOnUse">
<stop stop-color="#07B2CD" stop-opacity="0"/>
<stop offset="0.455" stop-color="#05A5CE" stop-opacity="0.455"/>
<stop offset="1" stop-color="#0290CF"/>
</linearGradient>
<clipPath id="clip0_218_864">
<rect width="44" height="44" fill="white" transform="translate(16.5 12)"/>
</clipPath>
</defs>
</svg>
