<svg width="32" height="44" viewBox="0 0 32 44" fill="none" xmlns="http://www.w3.org/2000/svg">
<g filter="url(#filter0_d_218_656)">
<path d="M24 19.9998C24 20.3295 23.9039 20.6588 23.7278 20.9058L15.7281 33.2587C15.4401 33.7035 14.96 34 14.4001 34L9.60018 34C8.72014 34 8 33.2587 8 32.3527C8 32.0234 8.09607 31.6941 8.27217 31.4471L15.6801 19.9998L8.27217 8.55288C8.09608 8.3059 8 7.97662 8 7.64695C8 6.74133 8.72014 6 9.60018 6L14.4001 6C14.96 6 15.4401 6.29647 15.7281 6.74133L23.7278 19.0942C23.9039 19.3412 24 19.6705 24 19.9998Z" fill="white"/>
</g>
<defs>
<filter id="filter0_d_218_656" x="0" y="0" width="32" height="44" filterUnits="userSpaceOnUse" color-interpolation-filters="sRGB">
<feFlood flood-opacity="0" result="BackgroundImageFix"/>
<feColorMatrix in="SourceAlpha" type="matrix" values="0 0 0 0 0 0 0 0 0 0 0 0 0 0 0 0 0 0 127 0" result="hardAlpha"/>
<feOffset dy="2"/>
<feGaussianBlur stdDeviation="4"/>
<feComposite in2="hardAlpha" operator="out"/>
<feColorMatrix type="matrix" values="0 0 0 0 0 0 0 0 0 0 0 0 0 0 0 0 0 0 0.12 0"/>
<feBlend mode="normal" in2="BackgroundImageFix" result="effect1_dropShadow_218_656"/>
<feBlend mode="normal" in="SourceGraphic" in2="effect1_dropShadow_218_656" result="shape"/>
</filter>
</defs>
</svg>
