<svg width="44" height="44" viewBox="0 0 44 44" fill="none" xmlns="http://www.w3.org/2000/svg">
<path d="M22 41.3359C32.6789 41.3359 41.3359 32.6789 41.3359 22C41.3359 11.3211 32.6789 2.66406 22 2.66406C11.3211 2.66406 2.66406 11.3211 2.66406 22C2.66406 32.6789 11.3211 41.3359 22 41.3359Z" fill="#4CAF50"/>
<path d="M21.9914 11.8252C17.6344 11.8252 11.2578 14.3432 11.2578 20.5049C11.2578 27.2252 18.1844 28.815 20.5305 29.2963C21.8883 29.5713 19.8687 32.39 21.4758 32.1494C22.9969 31.9174 31.5906 26.7697 32.6219 21.3986C33.6359 16.1393 28.1703 11.8252 21.9914 11.8252ZM17.9609 23.1002C17.8836 23.1775 17.7633 23.2205 17.6086 23.2205H15.5719C15.3656 23.2205 15.2195 23.1689 15.1336 23.0658C15.0477 22.9627 14.9961 22.7908 14.9961 22.5588V18.4596C14.9961 18.2447 15.0391 18.0814 15.125 17.9697C15.2109 17.858 15.3227 17.8064 15.4602 17.8064C15.5977 17.8064 15.718 17.858 15.8039 17.9697C15.8898 18.0814 15.9328 18.2447 15.9328 18.4596V22.3354H17.6086C17.7633 22.3354 17.875 22.3783 17.9609 22.4643C18.0383 22.5502 18.0812 22.6533 18.0812 22.7822C18.0812 22.9111 18.0383 23.0228 17.9609 23.1002ZM19.8945 22.6533C19.8945 22.8768 19.8516 23.04 19.7656 23.1518C19.6797 23.2635 19.568 23.315 19.4219 23.315C19.2844 23.315 19.1727 23.2635 19.0867 23.1518C19.0008 23.04 18.9578 22.8768 18.9578 22.6619V18.4682C18.9578 18.2533 19.0008 18.09 19.0867 17.9783C19.1727 17.8666 19.2844 17.815 19.4219 17.815C19.5594 17.815 19.6797 17.8666 19.7656 17.9783C19.8516 18.09 19.8945 18.2533 19.8945 18.4682V22.6533ZM24.8359 22.6104C24.8359 23.0744 24.6641 23.315 24.3289 23.315C24.243 23.315 24.1656 23.2978 24.1055 23.2721C24.0367 23.2463 23.9766 23.2033 23.9164 23.1432C23.8562 23.083 23.8047 23.0143 23.7531 22.9283C23.7016 22.851 23.65 22.765 23.5984 22.6791L21.8367 19.5768V22.6963C21.8367 22.9025 21.7937 23.0572 21.7164 23.1604C21.6305 23.2635 21.5273 23.315 21.3984 23.315C21.2695 23.315 21.1578 23.2635 21.0805 23.1604C21.0031 23.0572 20.9602 22.9025 20.9602 22.7049V18.5971C20.9602 18.4252 20.9773 18.2877 21.0117 18.1846C21.0547 18.0729 21.1148 17.9869 21.2094 17.9182C21.3039 17.8494 21.3984 17.815 21.5102 17.815C21.5961 17.815 21.6648 17.8322 21.725 17.858C21.7852 17.8924 21.8367 17.9354 21.8797 17.9869C21.9227 18.0385 21.9742 18.1072 22.0172 18.1932C22.0602 18.2791 22.1117 18.365 22.1633 18.4596L23.968 21.5963V18.4252C23.968 18.2189 24.0023 18.0643 24.0797 17.9611C24.157 17.858 24.2602 17.8064 24.3891 17.8064C24.5266 17.8064 24.6297 17.858 24.707 17.9611C24.7844 18.0643 24.8273 18.2189 24.8273 18.4252V22.6104H24.8359ZM29.1414 23.1002C29.0641 23.1775 28.9523 23.2205 28.8063 23.2205H26.443C26.2367 23.2205 26.0906 23.1689 26.0047 23.0658C25.9188 22.9627 25.8672 22.7908 25.8672 22.5588V18.5541C25.8672 18.3994 25.8844 18.2705 25.9273 18.176C25.9703 18.0814 26.0305 18.0041 26.1164 17.9611C26.2023 17.9182 26.3141 17.8924 26.443 17.8924H28.7289C28.875 17.8924 28.9867 17.9268 29.0641 18.0041C29.1414 18.0814 29.1758 18.1846 29.1758 18.3049C29.1758 18.4338 29.1414 18.5283 29.0641 18.6057C28.9867 18.683 28.8836 18.7174 28.7289 18.7174H26.8039V20.0236H28.6602C28.8063 20.0236 28.9094 20.058 28.9781 20.1354C29.0469 20.2127 29.0812 20.3072 29.0812 20.4275C29.0812 20.5479 29.0469 20.651 28.9781 20.7197C28.9094 20.7971 28.7977 20.8314 28.6516 20.8314H26.7953V22.3439H28.7891C28.9352 22.3439 29.0469 22.3869 29.1242 22.4643C29.2016 22.5416 29.2359 22.6447 29.2359 22.7822C29.2531 22.9197 29.2102 23.0228 29.1414 23.1002Z" fill="white"/>
</svg>
