<svg width="44" height="44" viewBox="0 0 44 44" fill="none" xmlns="http://www.w3.org/2000/svg">
<path d="M22 41.3359C32.6789 41.3359 41.3359 32.6789 41.3359 22C41.3359 11.3211 32.6789 2.66406 22 2.66406C11.3211 2.66406 2.66406 11.3211 2.66406 22C2.66406 32.6789 11.3211 41.3359 22 41.3359Z" fill="#4CAF50"/>
<path d="M22 11.2578C16.0789 11.2578 11.2578 16.0789 11.2578 22C11.2578 24.243 11.9453 26.3914 13.243 28.2133L13.3375 28.3508L12.1258 31.943L15.5547 30.5938L15.7008 30.6969C17.5398 32.0289 19.7141 32.7336 21.9914 32.7336C27.9125 32.7336 32.7336 27.9125 32.7336 21.9914C32.7336 16.0703 27.9211 11.2578 22 11.2578ZM19.5852 19.1297C19.5164 19.3102 19.3016 19.5336 19.0867 19.757C18.7344 20.118 18.3391 20.5219 18.3648 21.0289C18.3734 21.1406 18.3906 21.4414 19.568 22.6531C20.307 23.4094 21.132 24.1313 21.8281 24.6297C22.9969 25.4719 23.4953 25.4719 23.7703 25.3945C24.2688 25.257 24.5266 24.8445 24.75 24.4836C24.9563 24.1484 25.1023 23.9336 25.3172 23.8992C25.85 23.8047 27.6891 24.5266 28.2906 25.1625C28.3164 25.1969 28.3336 25.2398 28.325 25.2828C28.2477 25.7984 27.9555 27.0617 26.95 27.6633C26.2367 28.093 25.2828 28.093 24.1055 27.6805C19.6969 26.1164 16.7492 23.4094 15.8039 20.0492C15.2969 18.2445 15.8469 17.2477 16.3969 16.732C16.9211 16.2336 17.5398 16.0961 17.7891 16.0961C17.832 16.0961 17.8578 16.0961 17.875 16.1047C18.0125 16.1562 18.4508 16.6461 18.9406 17.5141C19.4305 18.3734 19.6109 18.9922 19.5852 19.1297Z" fill="white"/>
</svg>
