<svg width="44" height="44" viewBox="0 0 44 44" fill="none" xmlns="http://www.w3.org/2000/svg">
<path d="M22 41.3354C32.6789 41.3354 41.3359 32.6785 41.3359 21.9995C41.3359 11.3206 32.6789 2.66357 22 2.66357C11.3211 2.66357 2.66406 11.3206 2.66406 21.9995C2.66406 32.6785 11.3211 41.3354 22 41.3354Z" fill="black"/>
<path d="M31.4188 16.6972C31.4017 16.6972 29.5024 16.6628 27.8868 15.4769C26.4774 14.4456 25.9876 12.2026 25.9103 11.369V11.2573H22.4728V26.0729C22.4728 27.8519 21.0204 29.3042 19.2415 29.3042C17.4626 29.3042 16.0103 27.8519 16.0103 26.0729C16.0103 24.294 17.4626 22.8417 19.2415 22.8417H20.3243V19.4042H19.2415C15.5634 19.4042 12.5728 22.3948 12.5728 26.0729C12.5728 29.7511 15.5634 32.7417 19.2415 32.7417C22.9196 32.7417 25.9103 29.7511 25.9103 26.0729V18.2784C28.4024 20.0745 31.1009 20.1261 31.4103 20.1261V16.6886H31.4188V16.6972Z" fill="white"/>
</svg>
