<svg width="44" height="44" viewBox="0 0 44 44" fill="none" xmlns="http://www.w3.org/2000/svg">
<g filter="url(#filter0_b_218_651)">
<circle cx="22" cy="22" r="22" fill="white" fill-opacity="0.25"/>
<circle cx="22" cy="22" r="21.25" stroke="white" stroke-opacity="0.5" stroke-width="1.5"/>
</g>
<path fill-rule="evenodd" clip-rule="evenodd" d="M12.3605 31.7877C12.6681 32.1185 13.1938 31.9976 13.4032 31.8603C19.2901 28.001 22.2333 24.0036 22.2331 19.8677C22.2331 18.4565 21.6839 17.1439 20.5846 15.9311C19.4603 14.6436 18.1693 14 16.7125 14C15.0771 14 13.716 14.495 12.6294 15.4855C11.5433 16.4754 11 17.7631 11 19.3478C11 22.0374 12.6778 23.9148 16.0323 24.9798C16.167 25.0226 16.4263 25.1569 16.3247 25.3685C15.8804 26.2939 15.2075 27.2221 14.2973 28.1494C13.8331 28.5992 13.0892 29.2351 12.0662 30.0571C11.851 30.23 11.5186 30.6468 11.7931 31.0964L12.3605 31.7877ZM25.1273 31.7877C25.4348 32.1185 25.9605 31.9976 26.1699 31.8603C32.0568 28.001 35 24.0036 35 19.8677C35 18.4565 34.4507 17.1439 33.3515 15.9311C32.2271 14.6436 30.9362 14 29.4793 14C27.844 14 26.483 14.495 25.3963 15.4855C24.3102 16.4754 23.7669 17.7631 23.7669 19.3478C23.7669 22.0374 25.4446 23.9148 28.7991 24.9798C28.9338 25.0226 29.1931 25.1569 29.0915 25.3685C28.6472 26.2939 27.9743 27.2221 27.064 28.1494C26.5998 28.5992 25.8558 29.2351 24.8329 30.0571C24.6177 30.23 24.2854 30.6468 24.5598 31.0964L25.1273 31.7877Z" fill="url(#paint0_linear_218_651)"/>
<defs>
<filter id="filter0_b_218_651" x="-42" y="-42" width="128" height="128" filterUnits="userSpaceOnUse" color-interpolation-filters="sRGB">
<feFlood flood-opacity="0" result="BackgroundImageFix"/>
<feGaussianBlur in="BackgroundImageFix" stdDeviation="21"/>
<feComposite in2="SourceAlpha" operator="in" result="effect1_backgroundBlur_218_651"/>
<feBlend mode="normal" in="SourceGraphic" in2="effect1_backgroundBlur_218_651" result="shape"/>
</filter>
<linearGradient id="paint0_linear_218_651" x1="11" y1="14" x2="35.0764" y2="31.8972" gradientUnits="userSpaceOnUse">
<stop offset="0.0989583" stop-color="#4EB1A1"/>
<stop offset="0.889215" stop-color="#326199"/>
</linearGradient>
</defs>
</svg>
