<svg width="24" height="24" viewBox="0 0 24 24" fill="none" xmlns="http://www.w3.org/2000/svg">
<g clip-path="url(#clip0_171_4089)">
<path d="M21.672 14.366C21.821 14.075 21.923 13.758 21.97 13.424C22.083 12.63 21.881 11.84 21.4 11.198C20.919 10.557 20.217 10.142 19.424 10.029C18.632 9.918 17.841 10.119 17.2 10.599C16.693 10.979 16.302 11.447 16 11.935C15.698 11.448 15.307 10.979 14.8 10.599C14.159 10.119 13.369 9.916 12.576 10.029C11.783 10.142 11.081 10.557 10.599 11.199C10.119 11.84 9.916 12.63 10.03 13.424C10.078 13.757 10.179 14.074 10.328 14.366C8.955 15 8 16.39 8 18V20C8 22.206 9.794 24 12 24H15V17C15 16.46 15.428 16.021 15.962 16.001C15.98 16.001 15.999 16.001 16.017 16.001C16.561 16.011 16.999 16.454 16.999 17.001V24.001H19.999C22.205 24.001 23.999 22.207 23.999 20.001V18.001C23.999 16.392 23.044 15.002 21.671 14.367L21.672 14.366ZM12.739 14C12.616 13.943 12.502 13.876 12.4 13.799C12.187 13.64 12.048 13.405 12.01 13.142C11.972 12.877 12.039 12.614 12.199 12.401C12.36 12.187 12.594 12.048 12.858 12.01C13.122 11.972 13.385 12.04 13.6 12.2C14.214 12.66 14.565 13.39 14.763 14H12.738H12.739ZM19.99 13.142C19.952 13.406 19.814 13.64 19.599 13.801C19.498 13.876 19.385 13.943 19.263 14H17.237C17.435 13.39 17.786 12.66 18.4 12.2C18.613 12.04 18.875 11.971 19.142 12.01C19.406 12.048 19.64 12.187 19.8 12.4C19.961 12.614 20.028 12.878 19.99 13.142ZM6 18V20C6 21.535 6.58 22.938 7.532 24H5C2.239 24 0 21.761 0 19V9C0 6.239 2.239 4 5 4H5.586L4.293 2.707C3.902 2.316 3.902 1.684 4.293 1.293C4.684 0.902 5.316 0.902 5.707 1.293L7 2.586V1C7 0.447 7.448 0 8 0C8.552 0 9 0.447 9 1V2.586L10.293 1.293C10.684 0.902 11.316 0.902 11.707 1.293C12.098 1.684 12.098 2.316 11.707 2.707L10.414 4H11.011C13.769 4 16.007 6.234 16.011 8.992L16 9C14.933 8.2 13.617 7.86 12.294 8.051C10.972 8.239 9.802 8.932 9 10C8.24 11.014 7.897 12.252 8.026 13.509C6.761 14.632 6 16.263 6 18Z" fill="url(#paint0_linear_171_4089)"/>
</g>
<defs>
<linearGradient id="paint0_linear_171_4089" x1="0" y1="0" x2="28.5167" y2="15.897" gradientUnits="userSpaceOnUse">
<stop offset="0.0989583" stop-color="#4EB1A1"/>
<stop offset="0.889215" stop-color="#326199"/>
</linearGradient>
<clipPath id="clip0_171_4089">
<rect width="24" height="24" fill="white"/>
</clipPath>
</defs>
</svg>
