<svg width="156" height="20" viewBox="0 0 156 20" fill="none" xmlns="http://www.w3.org/2000/svg">
<path d="M0 19.6739V1.00543H4.85839V19.6739H0Z" fill="url(#paint0_linear_218_1078)"/>
<path d="M17.5092 20C15.5007 20 13.7908 19.6558 12.3794 18.9674C10.9862 18.2609 9.92762 17.192 9.20384 15.7609C8.48006 14.3297 8.11816 12.5181 8.11816 10.3261C8.11816 7.10145 8.92337 4.69203 10.5338 3.09783C12.1623 1.48551 14.4874 0.679347 17.5092 0.679347C19.192 0.679347 20.6848 0.969202 21.9876 1.54891C23.2904 2.11051 24.3037 2.96196 25.0275 4.10326C25.7694 5.22645 26.1403 6.63043 26.1403 8.31522H21.3905C21.3905 7.51812 21.2277 6.83877 20.902 6.27717C20.5944 5.69746 20.151 5.25362 19.572 4.94565C19.0111 4.63768 18.3235 4.4837 17.5092 4.4837C16.4959 4.4837 15.6636 4.69203 15.0122 5.1087C14.3608 5.52536 13.8813 6.12319 13.5737 6.90217C13.2661 7.68116 13.1123 8.62319 13.1123 9.72826V10.9511C13.1123 12.0562 13.2661 13.0072 13.5737 13.8043C13.8813 14.5833 14.3517 15.1812 14.985 15.5978C15.6365 15.9964 16.4688 16.1957 17.4821 16.1957C18.3506 16.1957 19.0835 16.0507 19.6806 15.7609C20.2958 15.471 20.7572 15.0453 21.0648 14.4837C21.3905 13.904 21.5534 13.2156 21.5534 12.4185H26.1403C26.1403 14.1033 25.7785 15.5072 25.0547 16.6304C24.349 17.7536 23.3447 18.596 22.0419 19.1576C20.7572 19.7192 19.2463 20 17.5092 20Z" fill="url(#paint1_linear_218_1078)"/>
<path d="M28.989 19.6739V0H33.4402V6.90217H33.6302C33.9378 6.52174 34.3088 6.19565 34.743 5.92391C35.1954 5.63406 35.693 5.41667 36.2358 5.27174C36.7787 5.1087 37.3396 5.02717 37.9186 5.02717C38.95 5.02717 39.8186 5.21739 40.5242 5.59783C41.248 5.97826 41.7999 6.54891 42.1799 7.30978C42.5599 8.07065 42.7499 9.03986 42.7499 10.2174V19.6739H38.2986V10.8424C38.2986 10.4438 38.2443 10.1087 38.1358 9.83696C38.0453 9.5471 37.9096 9.30254 37.7286 9.10326C37.5477 8.90399 37.3215 8.75906 37.0501 8.66848C36.7787 8.5779 36.4711 8.53261 36.1273 8.53261C35.6025 8.53261 35.1411 8.65942 34.743 8.91304C34.3449 9.14855 34.0283 9.47464 33.7931 9.8913C33.5578 10.2899 33.4402 10.7609 33.4402 11.3043V19.6739H28.989Z" fill="url(#paint2_linear_218_1078)"/>
<path d="M46.4658 19.6739V1.00543H61.8552V4.80978H51.3241V8.31522H60.5252V12.038H51.3241V15.8696H62.0452V19.6739H46.4658Z" fill="url(#paint3_linear_218_1078)"/>
<path d="M73.9664 20C71.9579 20 70.2479 19.6558 68.8366 18.9674C67.4433 18.2609 66.3848 17.192 65.661 15.7609C64.9372 14.3297 64.5753 12.5181 64.5753 10.3261C64.5753 7.10145 65.3805 4.69203 66.9909 3.09783C68.6194 1.48551 70.9446 0.679347 73.9664 0.679347C75.6492 0.679347 77.142 0.969202 78.4448 1.54891C79.7476 2.11051 80.7609 2.96196 81.4847 4.10326C82.2265 5.22645 82.5975 6.63043 82.5975 8.31522H77.8477C77.8477 7.51812 77.6848 6.83877 77.3591 6.27717C77.0515 5.69746 76.6082 5.25362 76.0291 4.94565C75.4682 4.63768 74.7806 4.4837 73.9664 4.4837C72.9531 4.4837 72.1207 4.69203 71.4693 5.1087C70.8179 5.52536 70.3384 6.12319 70.0308 6.90217C69.7232 7.68116 69.5694 8.62319 69.5694 9.72826V10.9511C69.5694 12.0562 69.7232 13.0072 70.0308 13.8043C70.3384 14.5833 70.8089 15.1812 71.4422 15.5978C72.0936 15.9964 72.9259 16.1957 73.9392 16.1957C74.8078 16.1957 75.5406 16.0507 76.1377 15.7609C76.7529 15.471 77.2143 15.0453 77.5219 14.4837C77.8476 13.904 78.0105 13.2156 78.0105 12.4185H82.5975C82.5975 14.1033 82.2356 15.5072 81.5118 16.6304C80.8061 17.7536 79.8019 18.596 78.4991 19.1576C77.2143 19.7192 75.7034 20 73.9664 20Z" fill="url(#paint4_linear_218_1078)"/>
<path d="M90.2625 19.6739V18.5598C90.2625 17.7627 90.4163 17.029 90.7239 16.3587C91.0315 15.6884 91.4477 15.0634 91.9724 14.4837C92.4972 13.904 93.0762 13.3514 93.7095 12.8261C94.3609 12.2826 95.0123 11.7663 95.6637 11.2772C96.4056 10.7337 97.1022 10.2083 97.7536 9.70109C98.405 9.19384 98.9298 8.65942 99.3279 8.09783C99.744 7.53623 99.9521 6.91123 99.9521 6.22283C99.9521 5.86051 99.8616 5.5163 99.6807 5.19022C99.5179 4.84601 99.2464 4.56522 98.8664 4.34783C98.5046 4.13043 98.016 4.02174 97.4008 4.02174C96.7856 4.02174 96.2699 4.13949 95.8537 4.375C95.4375 4.59239 95.1209 4.90036 94.9037 5.29891C94.6866 5.69746 94.578 6.16848 94.578 6.71196V7.52717H90.4525C90.4344 7.41848 90.4163 7.30072 90.3982 7.17391C90.3982 7.02899 90.3982 6.86594 90.3982 6.68478C90.3982 5.38043 90.6968 4.28442 91.2939 3.39674C91.891 2.50906 92.7324 1.83877 93.8181 1.38587C94.9218 0.914855 96.2337 0.679347 97.7536 0.679347C98.9117 0.679347 99.9069 0.833333 100.739 1.1413C101.59 1.44928 102.286 1.86594 102.829 2.3913C103.372 2.91667 103.77 3.51449 104.023 4.18478C104.295 4.83696 104.431 5.5163 104.431 6.22283C104.431 7.07428 104.277 7.8442 103.969 8.53261C103.662 9.22101 103.236 9.87319 102.693 10.4891C102.151 11.087 101.517 11.6667 100.794 12.2283C100.07 12.7717 99.2917 13.3243 98.4593 13.8859C98.0432 14.1757 97.6632 14.4475 97.3194 14.7011C96.9937 14.9366 96.7313 15.1449 96.5323 15.3261C96.3332 15.5072 96.1885 15.6703 96.098 15.8152H104.593V19.6739H90.2625Z" fill="url(#paint5_linear_218_1078)"/>
<path d="M114.364 20C113.062 20 111.949 19.8098 111.026 19.4293C110.103 19.0308 109.352 18.442 108.773 17.663C108.194 16.8659 107.769 15.8605 107.498 14.6467C107.226 13.433 107.09 11.9928 107.09 10.3261C107.09 8.67754 107.226 7.24638 107.498 6.03261C107.769 4.81884 108.194 3.82246 108.773 3.04348C109.352 2.24638 110.103 1.65761 111.026 1.27717C111.949 0.878623 113.062 0.679347 114.364 0.679347C115.667 0.679347 116.771 0.878623 117.676 1.27717C118.599 1.65761 119.349 2.24638 119.929 3.04348C120.508 3.82246 120.933 4.81884 121.204 6.03261C121.476 7.24638 121.611 8.67754 121.611 10.3261C121.611 11.9928 121.476 13.433 121.204 14.6467C120.933 15.8605 120.508 16.8659 119.929 17.663C119.349 18.442 118.599 19.0308 117.676 19.4293C116.771 19.8098 115.667 20 114.364 20ZM114.364 16.7663C115.088 16.7663 115.649 16.5761 116.047 16.1957C116.463 15.7971 116.744 15.2083 116.889 14.4293C117.051 13.6322 117.133 12.6268 117.133 11.413V9.29348C117.133 8.06159 117.051 7.0471 116.889 6.25C116.744 5.4529 116.463 4.86413 116.047 4.4837C115.649 4.10326 115.088 3.91304 114.364 3.91304C113.641 3.91304 113.071 4.10326 112.655 4.4837C112.256 4.86413 111.976 5.4529 111.813 6.25C111.65 7.02899 111.569 8.03442 111.569 9.2663V11.3587C111.569 12.5906 111.65 13.6051 111.813 14.4022C111.976 15.1993 112.256 15.7971 112.655 16.1957C113.071 16.5761 113.641 16.7663 114.364 16.7663Z" fill="url(#paint6_linear_218_1078)"/>
<path d="M124.19 19.6739V18.5598C124.19 17.7627 124.344 17.029 124.651 16.3587C124.959 15.6884 125.375 15.0634 125.9 14.4837C126.424 13.904 127.003 13.3514 127.637 12.8261C128.288 12.2826 128.94 11.7663 129.591 11.2772C130.333 10.7337 131.03 10.2083 131.681 9.70109C132.332 9.19384 132.857 8.65942 133.255 8.09783C133.671 7.53623 133.879 6.91123 133.879 6.22283C133.879 5.86051 133.789 5.5163 133.608 5.19022C133.445 4.84601 133.174 4.56522 132.794 4.34783C132.432 4.13043 131.943 4.02174 131.328 4.02174C130.713 4.02174 130.197 4.13949 129.781 4.375C129.365 4.59239 129.048 4.90036 128.831 5.29891C128.614 5.69746 128.505 6.16848 128.505 6.71196V7.52717H124.38C124.362 7.41848 124.344 7.30072 124.325 7.17391C124.325 7.02899 124.325 6.86594 124.325 6.68478C124.325 5.38043 124.624 4.28442 125.221 3.39674C125.818 2.50906 126.66 1.83877 127.745 1.38587C128.849 0.914855 130.161 0.679347 131.681 0.679347C132.839 0.679347 133.834 0.833333 134.667 1.1413C135.517 1.44928 136.214 1.86594 136.756 2.3913C137.299 2.91667 137.697 3.51449 137.951 4.18478C138.222 4.83696 138.358 5.5163 138.358 6.22283C138.358 7.07428 138.204 7.8442 137.896 8.53261C137.589 9.22101 137.164 9.87319 136.621 10.4891C136.078 11.087 135.445 11.6667 134.721 12.2283C133.997 12.7717 133.219 13.3243 132.387 13.8859C131.97 14.1757 131.59 14.4475 131.247 14.7011C130.921 14.9366 130.659 15.1449 130.46 15.3261C130.26 15.5072 130.116 15.6703 130.025 15.8152H138.521V19.6739H124.19Z" fill="url(#paint7_linear_218_1078)"/>
<path d="M149.215 19.6739V15.7065H140.529V12.2554C141.181 11.2409 141.814 10.1268 142.429 8.91304C143.062 7.68116 143.66 6.36775 144.22 4.97283C144.781 3.5779 145.252 2.14674 145.632 0.679347H150.11C149.965 1.44022 149.721 2.26449 149.377 3.15217C149.034 4.02174 148.626 4.90942 148.156 5.81522C147.704 6.7029 147.215 7.56341 146.69 8.39674C146.184 9.21196 145.686 9.96377 145.198 10.6522C144.727 11.3225 144.293 11.8659 143.895 12.2826H149.215V8.0163C149.414 7.69022 149.622 7.30978 149.839 6.875C150.074 6.44022 150.3 5.98732 150.517 5.5163C150.753 5.04529 150.952 4.59239 151.114 4.15761C151.295 3.70471 151.44 3.28804 151.549 2.90761H153.53V12.2826H156V15.7065H153.53V19.6739H149.215Z" fill="url(#paint8_linear_218_1078)"/>
<defs>
<linearGradient id="paint0_linear_218_1078" x1="0" y1="0" x2="12.2034" y2="53.0674" gradientUnits="userSpaceOnUse">
<stop offset="0.1875" stop-color="#FCC055"/>
<stop offset="0.5" stop-color="#4EB1A1"/>
<stop offset="0.8125" stop-color="#326199"/>
</linearGradient>
<linearGradient id="paint1_linear_218_1078" x1="0" y1="0" x2="12.2034" y2="53.0674" gradientUnits="userSpaceOnUse">
<stop offset="0.1875" stop-color="#FCC055"/>
<stop offset="0.5" stop-color="#4EB1A1"/>
<stop offset="0.8125" stop-color="#326199"/>
</linearGradient>
<linearGradient id="paint2_linear_218_1078" x1="0" y1="0" x2="12.2034" y2="53.0674" gradientUnits="userSpaceOnUse">
<stop offset="0.1875" stop-color="#FCC055"/>
<stop offset="0.5" stop-color="#4EB1A1"/>
<stop offset="0.8125" stop-color="#326199"/>
</linearGradient>
<linearGradient id="paint3_linear_218_1078" x1="0" y1="0" x2="12.2034" y2="53.0674" gradientUnits="userSpaceOnUse">
<stop offset="0.1875" stop-color="#FCC055"/>
<stop offset="0.5" stop-color="#4EB1A1"/>
<stop offset="0.8125" stop-color="#326199"/>
</linearGradient>
<linearGradient id="paint4_linear_218_1078" x1="0" y1="0" x2="12.2034" y2="53.0674" gradientUnits="userSpaceOnUse">
<stop offset="0.1875" stop-color="#FCC055"/>
<stop offset="0.5" stop-color="#4EB1A1"/>
<stop offset="0.8125" stop-color="#326199"/>
</linearGradient>
<linearGradient id="paint5_linear_218_1078" x1="0" y1="0" x2="12.2034" y2="53.0674" gradientUnits="userSpaceOnUse">
<stop offset="0.1875" stop-color="#FCC055"/>
<stop offset="0.5" stop-color="#4EB1A1"/>
<stop offset="0.8125" stop-color="#326199"/>
</linearGradient>
<linearGradient id="paint6_linear_218_1078" x1="0" y1="0" x2="12.2034" y2="53.0674" gradientUnits="userSpaceOnUse">
<stop offset="0.1875" stop-color="#FCC055"/>
<stop offset="0.5" stop-color="#4EB1A1"/>
<stop offset="0.8125" stop-color="#326199"/>
</linearGradient>
<linearGradient id="paint7_linear_218_1078" x1="0" y1="0" x2="12.2034" y2="53.0674" gradientUnits="userSpaceOnUse">
<stop offset="0.1875" stop-color="#FCC055"/>
<stop offset="0.5" stop-color="#4EB1A1"/>
<stop offset="0.8125" stop-color="#326199"/>
</linearGradient>
<linearGradient id="paint8_linear_218_1078" x1="0" y1="0" x2="12.2034" y2="53.0674" gradientUnits="userSpaceOnUse">
<stop offset="0.1875" stop-color="#FCC055"/>
<stop offset="0.5" stop-color="#4EB1A1"/>
<stop offset="0.8125" stop-color="#326199"/>
</linearGradient>
</defs>
</svg>
