<svg width="564" height="564" viewBox="0 0 564 564" fill="none" xmlns="http://www.w3.org/2000/svg">
<path fill-rule="evenodd" clip-rule="evenodd" d="M275.967 0.0632548C277.973 0.0211545 279.984 0 282 0C284.016 0 286.027 0.0211537 288.032 0.0632523C289.137 0.0864309 290.013 1.00045 289.99 2.10478C289.967 3.20911 289.053 4.08555 287.949 4.06237C285.971 4.02086 283.988 4 282 4C280.012 4 278.029 4.02086 276.051 4.06237C274.947 4.08555 274.033 3.20911 274.01 2.10478C273.987 1.00046 274.863 0.0864339 275.967 0.0632548ZM299.91 2.55647C299.987 1.45462 300.943 0.624126 302.045 0.701516C306.059 0.983435 310.05 1.34937 314.016 1.79757C315.113 1.92161 315.903 2.91193 315.779 4.00951C315.655 5.1071 314.664 5.89631 313.567 5.77227C309.657 5.33041 305.722 4.96964 301.765 4.69169C300.663 4.6143 299.833 3.65833 299.91 2.55647ZM264.09 2.55648C264.167 3.65834 263.337 4.6143 262.235 4.69169C258.278 4.96965 254.343 5.33042 250.433 5.77228C249.336 5.89632 248.345 5.10711 248.221 4.00953C248.097 2.91194 248.886 1.92162 249.984 1.79758C253.95 1.34938 257.941 0.983444 261.955 0.701524C263.056 0.624133 264.012 1.45463 264.09 2.55648ZM325.616 5.3697C325.795 4.27965 326.823 3.54069 327.913 3.71919C331.881 4.36895 335.821 5.10154 339.732 5.91512C340.813 6.1401 341.507 7.19915 341.282 8.28056C341.057 9.36198 339.998 10.0562 338.917 9.83126C335.062 9.02928 331.178 8.30713 327.267 7.66661C326.177 7.48812 325.438 6.45975 325.616 5.3697ZM238.384 5.36972C238.562 6.45977 237.823 7.48813 236.733 7.66663C232.822 8.30715 228.938 9.0293 225.083 9.83128C224.002 10.0563 222.943 9.362 222.718 8.28058C222.493 7.19917 223.187 6.14012 224.268 5.91513C228.179 5.10155 232.119 4.36896 236.087 3.7192C237.177 3.5407 238.205 4.27966 238.384 5.36972ZM350.953 10.5465C351.232 9.47771 352.324 8.83733 353.393 9.11619C357.283 10.1311 361.14 11.227 364.963 12.402C366.019 12.7265 366.612 13.8455 366.287 14.9013C365.963 15.9571 364.844 16.55 363.788 16.2254C360.02 15.0673 356.218 13.987 352.383 12.9866C351.315 12.7078 350.674 11.6153 350.953 10.5465ZM213.047 10.5465C213.326 11.6153 212.685 12.7078 211.617 12.9866C207.782 13.9871 203.98 15.0673 200.212 16.2255C199.156 16.55 198.037 15.9572 197.713 14.9013C197.388 13.8455 197.981 12.7265 199.037 12.402C202.859 11.227 206.717 10.1311 210.607 9.11621C211.676 8.83735 212.768 9.47772 213.047 10.5465ZM375.705 18.0565C376.082 17.0183 377.229 16.4823 378.267 16.8593C382.045 18.2311 385.784 19.6812 389.484 21.2078C390.505 21.6291 390.992 22.7983 390.57 23.8194C390.149 24.8405 388.98 25.3267 387.959 24.9054C384.311 23.4006 380.625 21.9712 376.902 20.6191C375.864 20.242 375.328 19.0947 375.705 18.0565ZM188.295 18.0565C188.672 19.0947 188.136 20.242 187.098 20.6191C183.375 21.9712 179.689 23.4007 176.041 24.9054C175.02 25.3267 173.851 24.8405 173.43 23.8194C173.008 22.7984 173.495 21.6291 174.516 21.2078C178.216 19.6812 181.955 18.2311 185.733 16.8593C186.771 16.4823 187.918 17.0183 188.295 18.0565ZM399.654 27.836C400.125 26.8373 401.317 26.4101 402.316 26.882C405.947 28.5973 409.535 30.3879 413.079 32.2516C414.057 32.7658 414.433 33.9751 413.918 34.9527C413.404 35.9303 412.195 36.306 411.217 35.7919C407.724 33.9546 404.187 32.1896 400.608 30.4987C399.609 30.0268 399.182 28.8347 399.654 27.836ZM164.346 27.836C164.818 28.8347 164.391 30.0268 163.392 30.4987C159.813 32.1896 156.276 33.9546 152.783 35.7919C151.805 36.306 150.596 35.9303 150.082 34.9527C149.567 33.9751 149.943 32.7658 150.921 32.2516C154.465 30.3879 158.053 28.5973 161.684 26.882C162.683 26.4101 163.875 26.8373 164.346 27.836ZM422.591 39.7934C423.153 38.8426 424.379 38.5276 425.33 39.0898C428.785 41.1325 432.192 43.2469 435.55 45.4307C436.476 46.0329 436.738 47.2718 436.136 48.1977C435.534 49.1237 434.295 49.3861 433.369 48.7839C430.059 46.631 426.7 44.5466 423.294 42.5329C422.343 41.9707 422.028 40.7441 422.591 39.7934ZM141.409 39.7934C141.972 40.7441 141.657 41.9707 140.706 42.5329C137.3 44.5466 133.941 46.631 130.631 48.7839C129.705 49.3861 128.466 49.1237 127.864 48.1977C127.262 47.2718 127.524 46.0329 128.45 45.4307C131.808 43.2469 135.215 41.1325 138.67 39.0898C139.621 38.5276 140.847 38.8426 141.409 39.7934ZM119.675 53.8178C120.323 54.7128 120.122 55.9631 119.227 56.6105C116.023 58.9285 112.871 61.3132 109.771 63.7625C108.905 64.4474 107.647 64.3 106.962 63.4334C106.277 62.5668 106.424 61.309 107.291 60.6242C110.435 58.1398 113.633 55.721 116.883 53.3697C117.778 52.7223 119.028 52.9229 119.675 53.8178ZM444.325 53.8178C444.972 52.9229 446.222 52.7223 447.117 53.3697C450.367 55.721 453.565 58.1398 456.709 60.6242C457.576 61.3091 457.723 62.5668 457.038 63.4334C456.353 64.3 455.095 64.4474 454.229 63.7625C451.13 61.3132 447.977 58.9286 444.773 56.6105C443.878 55.9631 443.677 54.7128 444.325 53.8178ZM99.3244 69.7825C100.051 70.6142 99.9664 71.8776 99.1347 72.6046C96.1582 75.2061 93.2376 77.8701 90.3751 80.5945C89.575 81.3559 88.309 81.3246 87.5475 80.5245C86.786 79.7244 86.8173 78.4585 87.6175 77.697C90.5209 74.9336 93.4832 72.2316 96.5023 69.5928C97.334 68.8659 98.5975 68.9508 99.3244 69.7825ZM464.676 69.7825C465.403 68.9508 466.666 68.8659 467.498 69.5928C470.517 72.2316 473.479 74.9336 476.383 77.697C477.183 78.4585 477.214 79.7244 476.452 80.5245C475.691 81.3247 474.425 81.356 473.625 80.5945C470.762 77.8701 467.842 75.2061 464.865 72.6046C464.034 71.8777 463.949 70.6142 464.676 69.7825ZM80.5245 87.5475C81.3247 88.309 81.356 89.575 80.5945 90.3751C77.8701 93.2376 75.2061 96.1582 72.6046 99.1347C71.8777 99.9663 70.6142 100.051 69.7825 99.3244C68.9508 98.5975 68.8659 97.334 69.5928 96.5023C72.2316 93.4832 74.9336 90.5209 77.697 87.6174C78.4585 86.8173 79.7244 86.786 80.5245 87.5475ZM483.475 87.5475C484.276 86.786 485.542 86.8173 486.303 87.6175C489.066 90.5209 491.768 93.4832 494.407 96.5023C495.134 97.334 495.049 98.5975 494.217 99.3244C493.386 100.051 492.122 99.9664 491.395 99.1347C488.794 96.1582 486.13 93.2376 483.406 90.3751C482.644 89.575 482.675 88.309 483.475 87.5475ZM63.4334 106.962C64.3 107.647 64.4474 108.905 63.7625 109.771C61.3132 112.87 58.9286 116.023 56.6105 119.227C55.9631 120.122 54.7128 120.323 53.8178 119.675C52.9229 119.028 52.7223 117.778 53.3697 116.883C55.721 113.633 58.1398 110.435 60.6242 107.291C61.3091 106.424 62.5668 106.277 63.4334 106.962ZM500.567 106.962C501.433 106.277 502.691 106.424 503.376 107.291C505.86 110.435 508.279 113.633 510.63 116.883C511.278 117.778 511.077 119.028 510.182 119.675C509.287 120.323 508.037 120.122 507.389 119.227C505.071 116.023 502.687 112.871 500.237 109.771C499.553 108.905 499.7 107.647 500.567 106.962ZM48.1977 127.864C49.1237 128.466 49.3861 129.705 48.7839 130.631C46.631 133.941 44.5466 137.3 42.5329 140.706C41.9707 141.657 40.7441 141.972 39.7934 141.409C38.8426 140.847 38.5276 139.621 39.0898 138.67C41.1325 135.215 43.2469 131.808 45.4307 128.45C46.0329 127.524 47.2718 127.262 48.1977 127.864ZM515.802 127.864C516.728 127.262 517.967 127.524 518.569 128.45C520.753 131.808 522.867 135.215 524.91 138.67C525.472 139.621 525.157 140.847 524.207 141.409C523.256 141.972 522.029 141.657 521.467 140.706C519.453 137.3 517.369 133.941 515.216 130.631C514.614 129.705 514.876 128.466 515.802 127.864ZM529.047 150.082C530.025 149.567 531.234 149.943 531.748 150.921C533.612 154.465 535.403 158.053 537.118 161.684C537.59 162.683 537.163 163.875 536.164 164.346C535.165 164.818 533.973 164.391 533.501 163.392C531.81 159.813 530.045 156.276 528.208 152.783C527.694 151.805 528.07 150.596 529.047 150.082ZM34.9527 150.082C35.9303 150.596 36.306 151.805 35.7919 152.783C33.9546 156.276 32.1896 159.813 30.4987 163.392C30.0268 164.391 28.8347 164.818 27.836 164.346C26.8373 163.875 26.4101 162.683 26.882 161.684C28.5973 158.053 30.3879 154.465 32.2516 150.921C32.7658 149.943 33.9751 149.567 34.9527 150.082ZM540.181 173.43C541.202 173.008 542.371 173.495 542.792 174.516C544.319 178.216 545.769 181.955 547.141 185.733C547.518 186.771 546.982 187.918 545.943 188.295C544.905 188.672 543.758 188.136 543.381 187.098C542.029 183.375 540.599 179.689 539.095 176.041C538.673 175.02 539.159 173.851 540.181 173.43ZM23.8194 173.43C24.8405 173.851 25.3267 175.02 24.9054 176.041C23.4006 179.689 21.9712 183.375 20.6191 187.098C20.242 188.136 19.0947 188.672 18.0565 188.295C17.0183 187.918 16.4823 186.771 16.8593 185.733C18.2311 181.955 19.6812 178.216 21.2078 174.516C21.6291 173.495 22.7983 173.008 23.8194 173.43ZM549.099 197.713C550.154 197.388 551.273 197.981 551.598 199.037C552.773 202.859 553.869 206.717 554.884 210.607C555.163 211.676 554.522 212.768 553.453 213.047C552.385 213.326 551.292 212.685 551.013 211.617C550.013 207.782 548.933 203.98 547.775 200.212C547.45 199.156 548.043 198.037 549.099 197.713ZM14.9013 197.713C15.9571 198.037 16.55 199.156 16.2254 200.212C15.0673 203.98 13.987 207.782 12.9866 211.617C12.7078 212.685 11.6153 213.326 10.5465 213.047C9.47771 212.768 8.83733 211.676 9.11619 210.607C10.1311 206.717 11.227 202.86 12.402 199.037C12.7265 197.981 13.8455 197.388 14.9013 197.713ZM555.719 222.718C556.801 222.493 557.86 223.187 558.085 224.268C558.898 228.179 559.631 232.119 560.281 236.087C560.459 237.177 559.72 238.205 558.63 238.384C557.54 238.562 556.512 237.823 556.333 236.733C555.693 232.822 554.971 228.938 554.169 225.083C553.944 224.002 554.638 222.943 555.719 222.718ZM8.28056 222.718C9.36198 222.943 10.0562 224.002 9.83126 225.083C9.02928 228.938 8.30713 232.822 7.66661 236.733C7.48812 237.823 6.45975 238.562 5.3697 238.384C4.27965 238.205 3.54069 237.177 3.71919 236.087C4.36895 232.119 5.10154 228.179 5.91512 224.268C6.1401 223.187 7.19915 222.493 8.28056 222.718ZM559.99 248.221C561.088 248.097 562.078 248.886 562.202 249.984C562.651 253.95 563.017 257.941 563.298 261.955C563.376 263.056 562.545 264.012 561.444 264.09C560.342 264.167 559.386 263.337 559.308 262.235C559.03 258.278 558.67 254.343 558.228 250.433C558.104 249.336 558.893 248.345 559.99 248.221ZM4.00951 248.221C5.1071 248.345 5.89631 249.336 5.77227 250.433C5.33041 254.343 4.96964 258.278 4.69169 262.235C4.6143 263.337 3.65833 264.167 2.55647 264.09C1.45462 264.013 0.624126 263.057 0.701516 261.955C0.983435 257.941 1.34937 253.95 1.79757 249.984C1.92161 248.887 2.91193 248.097 4.00951 248.221ZM561.895 274.01C563 273.987 563.914 274.863 563.937 275.967C563.979 277.973 564 279.984 564 282C564 284.016 563.979 286.027 563.937 288.032C563.914 289.137 563 290.013 561.895 289.99C560.791 289.967 559.914 289.053 559.938 287.949C559.979 285.971 560 283.988 560 282C560 280.012 559.979 278.029 559.938 276.051C559.914 274.947 560.791 274.033 561.895 274.01ZM2.10478 274.01C3.20911 274.033 4.08555 274.947 4.06237 276.051C4.02086 278.029 4 280.012 4 282C4 283.988 4.02086 285.971 4.06237 287.949C4.08555 289.053 3.20911 289.967 2.10478 289.99C1.00046 290.013 0.0864339 289.137 0.0632548 288.033C0.0211545 286.027 0 284.016 0 282C0 279.984 0.0211537 277.973 0.0632523 275.968C0.0864309 274.863 1.00045 273.987 2.10478 274.01ZM561.444 299.91C562.545 299.987 563.376 300.943 563.298 302.045C563.017 306.059 562.651 310.05 562.202 314.016C562.078 315.113 561.088 315.903 559.99 315.779C558.893 315.655 558.104 314.664 558.228 313.567C558.67 309.657 559.03 305.722 559.308 301.765C559.386 300.663 560.342 299.833 561.444 299.91ZM2.55648 299.91C3.65834 299.833 4.6143 300.663 4.69169 301.765C4.96965 305.722 5.33042 309.657 5.77228 313.567C5.89632 314.664 5.10711 315.655 4.00953 315.779C2.91194 315.903 1.92162 315.113 1.79758 314.016C1.34938 310.05 0.983444 306.059 0.701524 302.045C0.624133 300.944 1.45463 299.988 2.55648 299.91ZM558.63 325.616C559.72 325.795 560.459 326.823 560.281 327.913C559.631 331.881 558.898 335.821 558.085 339.732C557.86 340.813 556.801 341.507 555.719 341.282C554.638 341.057 553.944 339.998 554.169 338.917C554.971 335.062 555.693 331.178 556.333 327.267C556.512 326.177 557.54 325.438 558.63 325.616ZM5.36972 325.616C6.45977 325.438 7.48813 326.177 7.66663 327.267C8.30715 331.178 9.0293 335.062 9.83128 338.917C10.0563 339.998 9.362 341.057 8.28058 341.282C7.19917 341.507 6.14012 340.813 5.91513 339.732C5.10155 335.821 4.36896 331.881 3.7192 327.913C3.5407 326.823 4.27966 325.795 5.36972 325.616ZM553.453 350.953C554.522 351.232 555.163 352.324 554.884 353.393C553.869 357.283 552.773 361.14 551.598 364.963C551.273 366.019 550.154 366.612 549.099 366.287C548.043 365.963 547.45 364.844 547.775 363.788C548.933 360.02 550.013 356.218 551.013 352.383C551.292 351.315 552.385 350.674 553.453 350.953ZM10.5465 350.953C11.6153 350.674 12.7078 351.315 12.9866 352.383C13.9871 356.218 15.0673 360.02 16.2255 363.788C16.55 364.844 15.9572 365.963 14.9013 366.287C13.8455 366.612 12.7265 366.019 12.402 364.963C11.227 361.141 10.1311 357.283 9.11621 353.393C8.83735 352.324 9.47772 351.232 10.5465 350.953ZM545.943 375.705C546.982 376.082 547.518 377.229 547.141 378.267C545.769 382.045 544.319 385.784 542.792 389.484C542.371 390.505 541.202 390.992 540.181 390.57C539.159 390.149 538.673 388.98 539.095 387.959C540.599 384.311 542.029 380.625 543.381 376.902C543.758 375.864 544.905 375.328 545.943 375.705ZM18.0565 375.705C19.0947 375.328 20.242 375.864 20.6191 376.902C21.9712 380.625 23.4007 384.311 24.9054 387.959C25.3267 388.98 24.8405 390.149 23.8194 390.57C22.7984 390.992 21.6291 390.505 21.2078 389.484C19.6812 385.784 18.2311 382.045 16.8593 378.267C16.4823 377.229 17.0183 376.082 18.0565 375.705ZM536.164 399.654C537.163 400.125 537.59 401.317 537.118 402.316C535.403 405.947 533.612 409.535 531.748 413.079C531.234 414.057 530.025 414.433 529.047 413.918C528.07 413.404 527.694 412.195 528.208 411.217C530.045 407.724 531.81 404.187 533.501 400.608C533.973 399.609 535.165 399.182 536.164 399.654ZM27.836 399.654C28.8347 399.182 30.0268 399.609 30.4987 400.608C32.1896 404.187 33.9546 407.724 35.7919 411.217C36.306 412.195 35.9303 413.404 34.9527 413.918C33.9751 414.433 32.7658 414.057 32.2516 413.079C30.3879 409.535 28.5973 405.947 26.882 402.316C26.4101 401.317 26.8373 400.125 27.836 399.654ZM524.207 422.591C525.157 423.153 525.472 424.379 524.91 425.33C522.867 428.785 520.753 432.192 518.569 435.55C517.967 436.476 516.728 436.738 515.802 436.136C514.876 435.534 514.614 434.295 515.216 433.369C517.369 430.059 519.453 426.7 521.467 423.294C522.029 422.343 523.256 422.028 524.207 422.591ZM39.7934 422.591C40.7441 422.028 41.9707 422.343 42.5329 423.294C44.5466 426.7 46.631 430.059 48.7839 433.369C49.3861 434.295 49.1237 435.534 48.1977 436.136C47.2718 436.738 46.0329 436.476 45.4307 435.55C43.2469 432.192 41.1325 428.785 39.0898 425.33C38.5276 424.379 38.8426 423.153 39.7934 422.591ZM53.8178 444.325C54.7128 443.677 55.9631 443.878 56.6105 444.773C58.9285 447.977 61.3132 451.129 63.7625 454.229C64.4474 455.095 64.3 456.353 63.4334 457.038C62.5668 457.723 61.309 457.576 60.6242 456.709C58.1398 453.565 55.721 450.367 53.3697 447.117C52.7223 446.222 52.9229 444.972 53.8178 444.325ZM510.182 444.325C511.077 444.972 511.278 446.222 510.63 447.117C508.279 450.367 505.86 453.565 503.376 456.709C502.691 457.576 501.433 457.723 500.567 457.038C499.7 456.353 499.553 455.095 500.237 454.229C502.687 451.13 505.071 447.977 507.389 444.773C508.037 443.878 509.287 443.677 510.182 444.325ZM69.7825 464.676C70.6142 463.949 71.8776 464.034 72.6046 464.865C75.2061 467.842 77.8701 470.762 80.5945 473.625C81.3559 474.425 81.3246 475.691 80.5245 476.452C79.7244 477.214 78.4585 477.183 77.697 476.383C74.9336 473.479 72.2316 470.517 69.5928 467.498C68.8659 466.666 68.9508 465.403 69.7825 464.676ZM494.217 464.676C495.049 465.403 495.134 466.666 494.407 467.498C491.768 470.517 489.066 473.479 486.303 476.383C485.542 477.183 484.276 477.214 483.475 476.452C482.675 475.691 482.644 474.425 483.406 473.625C486.13 470.762 488.794 467.842 491.395 464.865C492.122 464.034 493.386 463.949 494.217 464.676ZM87.5475 483.475C88.309 482.675 89.575 482.644 90.3751 483.406C93.2376 486.13 96.1582 488.794 99.1347 491.395C99.9663 492.122 100.051 493.386 99.3244 494.217C98.5975 495.049 97.334 495.134 96.5023 494.407C93.4832 491.768 90.5209 489.066 87.6174 486.303C86.8173 485.542 86.786 484.276 87.5475 483.475ZM476.452 483.475C477.214 484.276 477.183 485.542 476.383 486.303C473.479 489.066 470.517 491.768 467.498 494.407C466.666 495.134 465.403 495.049 464.676 494.217C463.949 493.386 464.034 492.122 464.865 491.395C467.842 488.794 470.762 486.13 473.625 483.406C474.425 482.644 475.691 482.675 476.452 483.475ZM106.962 500.567C107.647 499.7 108.905 499.553 109.771 500.237C112.87 502.687 116.023 505.071 119.227 507.389C120.122 508.037 120.323 509.287 119.675 510.182C119.028 511.077 117.778 511.278 116.883 510.63C113.633 508.279 110.435 505.86 107.291 503.376C106.424 502.691 106.277 501.433 106.962 500.567ZM457.038 500.567C457.723 501.433 457.576 502.691 456.709 503.376C453.565 505.86 450.367 508.279 447.117 510.63C446.222 511.278 444.972 511.077 444.325 510.182C443.677 509.287 443.878 508.037 444.773 507.389C447.977 505.071 451.129 502.687 454.229 500.237C455.095 499.553 456.353 499.7 457.038 500.567ZM127.864 515.802C128.466 514.876 129.705 514.614 130.631 515.216C133.941 517.369 137.3 519.453 140.706 521.467C141.657 522.029 141.972 523.256 141.409 524.207C140.847 525.157 139.621 525.472 138.67 524.91C135.215 522.867 131.808 520.753 128.45 518.569C127.524 517.967 127.262 516.728 127.864 515.802ZM436.136 515.802C436.738 516.728 436.476 517.967 435.55 518.569C432.192 520.753 428.785 522.867 425.33 524.91C424.379 525.472 423.153 525.157 422.591 524.207C422.028 523.256 422.343 522.029 423.294 521.467C426.7 519.453 430.059 517.369 433.369 515.216C434.295 514.614 435.534 514.876 436.136 515.802ZM150.082 529.047C150.596 528.07 151.805 527.694 152.783 528.208C156.276 530.045 159.813 531.81 163.392 533.501C164.391 533.973 164.818 535.165 164.346 536.164C163.875 537.163 162.683 537.59 161.684 537.118C158.053 535.403 154.465 533.612 150.921 531.748C149.943 531.234 149.567 530.025 150.082 529.047ZM413.918 529.047C414.433 530.025 414.057 531.234 413.079 531.748C409.535 533.612 405.947 535.403 402.316 537.118C401.317 537.59 400.125 537.163 399.654 536.164C399.182 535.165 399.609 533.973 400.608 533.501C404.187 531.81 407.724 530.045 411.217 528.208C412.195 527.694 413.404 528.07 413.918 529.047ZM173.43 540.181C173.851 539.159 175.02 538.673 176.041 539.095C179.689 540.599 183.375 542.029 187.098 543.381C188.136 543.758 188.672 544.905 188.295 545.943C187.918 546.982 186.771 547.518 185.733 547.141C181.955 545.769 178.216 544.319 174.516 542.792C173.495 542.371 173.008 541.202 173.43 540.181ZM390.57 540.181C390.992 541.202 390.505 542.371 389.484 542.792C385.784 544.319 382.045 545.769 378.267 547.141C377.229 547.518 376.082 546.982 375.705 545.943C375.328 544.905 375.864 543.758 376.902 543.381C380.625 542.029 384.311 540.599 387.959 539.095C388.98 538.673 390.149 539.159 390.57 540.181ZM197.713 549.099C198.037 548.043 199.156 547.45 200.212 547.775C203.98 548.933 207.782 550.013 211.617 551.013C212.685 551.292 213.326 552.385 213.047 553.453C212.768 554.522 211.676 555.163 210.607 554.884C206.717 553.869 202.86 552.773 199.037 551.598C197.981 551.273 197.388 550.154 197.713 549.099ZM366.287 549.099C366.612 550.154 366.019 551.273 364.963 551.598C361.141 552.773 357.283 553.869 353.393 554.884C352.324 555.163 351.232 554.522 350.953 553.453C350.674 552.385 351.315 551.292 352.383 551.013C356.218 550.013 360.02 548.933 363.788 547.775C364.844 547.45 365.963 548.043 366.287 549.099ZM222.718 555.719C222.943 554.638 224.002 553.944 225.083 554.169C228.938 554.971 232.822 555.693 236.733 556.333C237.823 556.512 238.562 557.54 238.384 558.63C238.205 559.72 237.177 560.459 236.087 560.281C232.119 559.631 228.179 558.898 224.268 558.085C223.187 557.86 222.493 556.801 222.718 555.719ZM341.282 555.719C341.507 556.801 340.813 557.86 339.732 558.085C335.821 558.898 331.881 559.631 327.913 560.281C326.823 560.459 325.795 559.72 325.616 558.63C325.438 557.54 326.177 556.512 327.267 556.333C331.178 555.693 335.062 554.971 338.917 554.169C339.998 553.944 341.057 554.638 341.282 555.719ZM248.221 559.99C248.345 558.893 249.336 558.104 250.433 558.228C254.343 558.67 258.278 559.03 262.235 559.308C263.337 559.386 264.167 560.342 264.09 561.444C264.013 562.545 263.057 563.376 261.955 563.298C257.941 563.017 253.95 562.651 249.984 562.202C248.887 562.078 248.097 561.088 248.221 559.99ZM315.779 559.99C315.903 561.088 315.113 562.078 314.016 562.202C310.05 562.651 306.059 563.017 302.045 563.298C300.944 563.376 299.988 562.545 299.91 561.444C299.833 560.342 300.663 559.386 301.765 559.308C305.722 559.03 309.657 558.67 313.567 558.228C314.664 558.104 315.655 558.893 315.779 559.99ZM274.01 561.895C274.033 560.791 274.947 559.914 276.051 559.938C278.029 559.979 280.012 560 282 560C283.988 560 285.971 559.979 287.949 559.938C289.053 559.914 289.967 560.791 289.99 561.895C290.013 563 289.137 563.914 288.033 563.937C286.027 563.979 284.016 564 282 564C279.984 564 277.973 563.979 275.968 563.937C274.863 563.914 273.987 563 274.01 561.895Z" fill="white"/>
</svg>
