<svg width="395" height="533" viewBox="0 0 395 533" fill="none" xmlns="http://www.w3.org/2000/svg">
<path d="M368.777 197.683C365.875 192.296 360.19 188.634 353.648 188.634C344.67 188.634 151.826 188.634 135.348 188.634L114.091 152.949H102.158L102.143 152.919C99.9203 148.666 95.5212 146 90.7262 146H12.8854C5.76893 146.001 0 151.776 0 158.9V210.582L9.14309 221.748V437.997C11.5417 439.271 14.2753 440 17.1802 440H386V197.683H368.777Z" fill="#FEA613"/>
<path d="M385.966 440V268.965L395 257.78C395 229.557 395 208.758 395 206.173C395 196.688 387.4 189 378.025 189H354C363.376 189 370.975 196.688 370.975 206.173V440H385.966Z" fill="#FE9901"/>
<path d="M102.332 152.978L120.863 189H145L126.469 152.978C124.262 148.689 119.896 146 115.136 146H91C95.759 146.001 100.126 148.689 102.332 152.978V152.978Z" fill="#FE9901"/>
<path d="M138.404 240.513L117.962 203.367H101.228C98.8299 200.028 94.9444 198 90.7555 198H12.8893C5.7707 198 0 203.759 0 210.862V444.85C0 454.322 7.69375 462 17.1855 462H353.757C358.061 462 361.987 460.409 365.002 457.799H380V244.926H365.236C362.192 242.192 358.176 240.514 353.758 240.514L138.404 240.513Z" fill="#FEC165"/>
<path d="M378.025 240H354C363.375 240 370.975 247.695 370.975 257.189V444.811C370.975 454.305 363.376 462 354 462H378.025C387.4 462 395 454.305 395 444.811V257.189C395 247.695 387.4 240 378.025 240V240Z" fill="#FDB441"/>
<path d="M102.333 204.816L120.864 240H145L126.469 204.816C124.263 200.626 119.896 198 115.136 198H91C95.7597 198.001 100.126 200.626 102.333 204.816Z" fill="#FDB441"/>
<path d="M330.465 531L346.728 527.132L359 505.676L213.057 358L185.162 385.999C184.946 386.216 184.946 386.567 185.162 386.784C335.503 537.683 325.663 528.519 330.465 531V531Z" fill="#60B7FF"/>
<path d="M358.899 491.832L218.488 352.162C218.27 351.946 217.917 351.946 217.7 352.162L207 362.805L336.711 491.832C346.18 501.25 346.18 516.52 336.711 525.939C334.886 527.755 332.84 529.217 330.661 530.333C339.782 535.003 351.256 533.541 358.899 525.939C368.367 516.52 368.367 501.25 358.899 491.832V491.832Z" fill="#26A6FE"/>
<path d="M138.875 306.649C100.375 345.166 100.375 407.615 138.875 446.132C157.722 464.987 182.301 474.605 207 475C231.699 474.605 256.279 464.986 275.125 446.132C313.625 407.615 313.625 345.166 275.125 306.649C237.172 268.68 177.286 268.221 138.875 306.649Z" fill="#0055A3"/>
<path d="M278.286 305.992C256.35 283.839 226.605 274.385 198 277.618C278.811 286.751 314.709 387.077 256.356 446.008C240.007 462.519 219.32 471.973 198 474.382C226.605 477.615 256.35 468.161 278.286 446.008C316.571 407.343 316.571 344.656 278.286 305.992Z" fill="#004281"/>
<path d="M160.762 327.682C134.413 354.264 134.413 397.517 160.762 424.101C173.535 436.988 190.192 443.608 206.968 444C266.214 442.616 295.095 369.975 253.174 327.682C227.424 301.703 187.034 301.177 160.762 327.682V327.682Z" fill="#D8ECFE"/>
<path d="M257.117 327.882C241.05 311.802 218.879 305.486 198 308.897C252.44 317.793 274.118 385.006 235.038 424.118C224.595 434.569 211.57 440.886 198 443.103C218.879 446.514 241.05 440.198 257.117 424.118C283.627 397.586 283.628 354.415 257.117 327.882Z" fill="#B3DAFE"/>
</svg>
