<svg width="58" height="115" viewBox="0 0 58 115" fill="none" xmlns="http://www.w3.org/2000/svg">
<path fill-rule="evenodd" clip-rule="evenodd" d="M0.500122 57.5001C0.500122 73.2842 13.26 86.0798 29.0001 86.0798H35.8559L57.5001 114.959V0.0414429L35.8559 28.9204H29.0001C13.26 28.9204 0.500122 41.716 0.500122 57.5001ZM8.3949 57.5C8.3949 46.1571 17.6168 36.9559 29 36.9559C40.3831 36.9559 49.605 46.1571 49.605 57.5C49.605 68.8429 40.3831 78.0441 29 78.0441C17.6168 78.0441 8.3949 68.8429 8.3949 57.5ZM29 34.4559C16.2427 34.4559 5.8949 44.7698 5.8949 57.5C5.8949 70.2302 16.2427 80.5441 29 80.5441C41.7573 80.5441 52.105 70.2302 52.105 57.5C52.105 44.7698 41.7573 34.4559 29 34.4559ZM28.1173 47.8972L19.3753 56.6149C18.8865 57.1024 18.8854 57.8938 19.3728 58.3826C19.8603 58.8715 20.6517 58.8726 21.1406 58.3851L27.75 51.7942V66.2177C27.75 66.908 28.3096 67.4677 29 67.4677C29.6903 67.4677 30.25 66.908 30.25 66.2177V51.7942L36.8594 58.3851C37.3482 58.8726 38.1396 58.8715 38.6271 58.3826C39.1146 57.8938 39.1135 57.1024 38.6246 56.6149L29.8826 47.8972C29.3948 47.4107 28.6052 47.4107 28.1173 47.8972Z" fill="#4B92E3"/>
</svg>
