<svg width="52" height="75" viewBox="0 0 52 75" fill="none" xmlns="http://www.w3.org/2000/svg">
<path d="M0.644 59.8699H4.2C5.41333 59.8699 6.314 60.1546 6.902 60.7239C7.49 61.2839 7.784 62.1566 7.784 63.3419V66.1979C7.784 67.3833 7.49 68.2606 6.902 68.8299C6.314 69.3899 5.41333 69.6699 4.2 69.6699H0.644V67.8919H1.568V61.6339H0.644V59.8699ZM4.2 67.9059C4.844 67.9059 5.292 67.7566 5.544 67.4579C5.80533 67.1499 5.936 66.6739 5.936 66.0299V63.3419C5.936 62.7819 5.80533 62.3573 5.544 62.0679C5.292 61.7786 4.844 61.6339 4.2 61.6339H3.416V67.9059H4.2ZM12.3103 62.2079C12.0769 62.1053 11.8856 61.9466 11.7363 61.7319C11.5963 61.5079 11.5263 61.2606 11.5263 60.9899C11.5263 60.8126 11.5589 60.6446 11.6243 60.4859C11.6989 60.3179 11.7969 60.1779 11.9183 60.0659C12.0396 59.9446 12.1796 59.8513 12.3383 59.7859C12.4969 59.7113 12.6696 59.6739 12.8563 59.6739C13.0336 59.6739 13.2016 59.7113 13.3603 59.7859C13.5283 59.8513 13.6683 59.9446 13.7803 60.0659C13.9016 60.1779 13.9949 60.3179 14.0603 60.4859C14.1349 60.6446 14.1723 60.8126 14.1723 60.9899C14.1723 61.2606 14.0976 61.5079 13.9483 61.7319C13.8083 61.9466 13.6263 62.1053 13.4023 62.2079V63.9579H12.3103V62.2079ZM17.7885 59.8699H21.3445C22.5579 59.8699 23.4585 60.1546 24.0465 60.7239C24.6345 61.2839 24.9285 62.1566 24.9285 63.3419V66.1979C24.9285 67.3833 24.6345 68.2606 24.0465 68.8299C23.4585 69.3899 22.5579 69.6699 21.3445 69.6699H17.7885V67.8919H18.7125V61.6339H17.7885V59.8699ZM21.3445 67.9059C21.9885 67.9059 22.4365 67.7566 22.6885 67.4579C22.9499 67.1499 23.0805 66.6739 23.0805 66.0299V63.3419C23.0805 62.7819 22.9499 62.3573 22.6885 62.0679C22.4365 61.7786 21.9885 61.6339 21.3445 61.6339H20.5605V67.9059H21.3445ZM26.9348 67.9899H29.2868V64.4059H27.1028V62.7259H31.0508V67.9899H33.0668V69.6699H26.9348V67.9899ZM31.4848 60.6679C31.4848 60.8546 31.4475 61.0319 31.3728 61.1999C31.3075 61.3586 31.2141 61.4986 31.0928 61.6199C30.9715 61.7319 30.8268 61.8253 30.6588 61.8999C30.5001 61.9653 30.3321 61.9979 30.1548 61.9979C29.9681 61.9979 29.7955 61.9653 29.6368 61.8999C29.4781 61.8253 29.3381 61.7319 29.2168 61.6199C29.0955 61.4986 28.9975 61.3586 28.9228 61.1999C28.8575 61.0319 28.8248 60.8546 28.8248 60.6679C28.8248 60.4813 28.8575 60.3086 28.9228 60.1499C28.9975 59.9819 29.0955 59.8419 29.2168 59.7299C29.3381 59.6086 29.4781 59.5153 29.6368 59.4499C29.7955 59.3753 29.9681 59.3379 30.1548 59.3379C30.3321 59.3379 30.5001 59.3753 30.6588 59.4499C30.8268 59.5153 30.9715 59.6086 31.0928 59.7299C31.2141 59.8419 31.3075 59.9819 31.3728 60.1499C31.4475 60.3086 31.4848 60.4813 31.4848 60.6679ZM34.8911 62.7259H36.7951L38.4331 68.8299H38.6851L40.3231 62.7259H42.2271L40.2391 69.6699H36.8791L34.8911 62.7259ZM45.5073 66.7719C45.5167 66.9773 45.5633 67.1686 45.6473 67.3459C45.7407 67.5139 45.862 67.6633 46.0113 67.7939C46.17 67.9153 46.3473 68.0133 46.5433 68.0879C46.7487 68.1533 46.9633 68.1859 47.1873 68.1859C47.626 68.1859 47.962 68.1113 48.1953 67.9619C48.4287 67.8033 48.5967 67.6166 48.6993 67.4019L50.2113 68.2419C50.1273 68.4193 50.0107 68.6059 49.8613 68.8019C49.712 68.9886 49.516 69.1613 49.2733 69.3199C49.04 69.4786 48.7507 69.6093 48.4053 69.7119C48.0693 69.8146 47.6727 69.8659 47.2153 69.8659C46.6927 69.8659 46.2167 69.7819 45.7873 69.6139C45.358 69.4459 44.9847 69.2033 44.6673 68.8859C44.3593 68.5686 44.1167 68.1813 43.9393 67.7239C43.7713 67.2666 43.6873 66.7486 43.6873 66.1699V66.0859C43.6873 65.5539 43.776 65.0686 43.9533 64.6299C44.14 64.1913 44.392 63.8179 44.7093 63.5099C45.0267 63.2019 45.3953 62.9639 45.8153 62.7959C46.2447 62.6186 46.702 62.5299 47.1873 62.5299C47.7847 62.5299 48.298 62.6373 48.7273 62.8519C49.1567 63.0573 49.5113 63.3233 49.7913 63.6499C50.0713 63.9673 50.2767 64.3219 50.4073 64.7139C50.538 65.0966 50.6033 65.4699 50.6033 65.8339V66.7719H45.5073ZM47.1733 64.1259C46.7253 64.1259 46.3613 64.2426 46.0813 64.4759C45.8013 64.6999 45.6193 64.9613 45.5353 65.2599H48.8113C48.7553 64.9333 48.578 64.6626 48.2793 64.4479C47.99 64.2333 47.6213 64.1259 47.1733 64.1259Z" fill="#172554"/>
<path d="M44.0831 35.6065V35.424C44.0831 34.5699 43.7438 33.7508 43.1398 33.1468C42.5359 32.5429 41.7168 32.2036 40.8627 32.2036H10.8058C9.95173 32.2036 9.13261 32.5429 8.52868 33.1468C7.92474 33.7508 7.58545 34.5699 7.58545 35.424V35.6065L8.93801 42.3156C10.3078 45.6725 12.6465 48.5453 15.6558 50.5676C18.6651 52.5898 22.2086 53.6698 25.8343 53.6698C29.4599 53.6698 33.0034 52.5898 36.0127 50.5676C39.022 48.5453 41.3607 45.6725 42.7305 42.3156L44.0831 35.6065Z" fill="#DBEAFE"/>
<path d="M6.51207 8.58789V23.6163H5.43861C3.06627 23.6163 1.14478 20.2564 1.14478 16.1021C1.14478 11.9478 3.06627 8.58789 5.43861 8.58789H6.51207ZM45.1566 8.58789V23.6163H46.23C48.6024 23.6163 50.5239 20.2564 50.5239 16.1021C50.5239 11.9478 48.6024 8.58789 46.23 8.58789H45.1566Z" fill="#0284C7"/>
<path d="M5.43854 15.0284V23.6161C5.43854 25.8937 6.34331 28.078 7.95381 29.6885C9.56431 31.299 11.7486 32.2038 14.0262 32.2038H37.6423C39.9199 32.2038 42.1042 31.299 43.7147 29.6885C45.3252 28.078 46.23 25.8937 46.23 23.6161V8.58767C46.23 6.31008 45.3252 4.12577 43.7147 2.51527C42.1042 0.90477 39.9199 0 37.6423 0H16.1731L5.43854 15.0284Z" fill="#EFF6FF"/>
<path d="M46.2299 15.0284V23.6161C46.2299 25.8937 45.3251 28.078 43.7146 29.6885C42.1041 31.299 39.9198 32.2038 37.6422 32.2038H14.0261C11.7486 32.2038 9.56425 31.299 7.95375 29.6885C6.34325 28.078 5.43848 25.8937 5.43848 23.6161V8.58767C5.43848 6.31008 6.34325 4.12577 7.95375 2.51527C9.56425 0.90477 11.7486 0 14.0261 0H35.4953L46.2299 15.0284Z" fill="#EFF6FF"/>
<path d="M41.9359 15.0286V23.6163C41.9359 24.7551 41.4836 25.8473 40.6783 26.6525C39.8731 27.4578 38.7809 27.9102 37.6421 27.9102H14.026C12.8872 27.9102 11.7951 27.4578 10.9898 26.6525C10.1846 25.8473 9.73218 24.7551 9.73218 23.6163V12.8817C9.73218 11.7429 10.1846 10.6508 10.9898 9.84553C11.7951 9.04028 12.8872 8.58789 14.026 8.58789H35.4952L41.9359 15.0286Z" fill="#172554"/>
<path d="M9.73226 15.0286V23.6163C9.73226 24.7551 10.1847 25.8473 10.9899 26.6525C11.7952 27.4578 12.8873 27.9102 14.0261 27.9102H37.6422C38.781 27.9102 39.8731 27.4578 40.6784 26.6525C41.4837 25.8473 41.936 24.7551 41.936 23.6163V12.8817C41.936 11.7429 41.4837 10.6508 40.6784 9.84553C39.8731 9.04028 38.781 8.58789 37.6422 8.58789H16.173L9.73226 15.0286Z" fill="#172554"/>
<path d="M16.7098 18.2486C18.1919 18.2486 19.3934 17.0471 19.3934 15.565C19.3934 14.0829 18.1919 12.8813 16.7098 12.8813C15.2276 12.8813 14.0261 14.0829 14.0261 15.565C14.0261 17.0471 15.2276 18.2486 16.7098 18.2486Z" fill="#7DD3FC"/>
<path d="M34.9502 18.2486C36.4324 18.2486 37.6339 17.0471 37.6339 15.565C37.6339 14.0829 36.4324 12.8813 34.9502 12.8813C33.4681 12.8813 32.2666 14.0829 32.2666 15.565C32.2666 17.0471 33.4681 18.2486 34.9502 18.2486Z" fill="#7DD3FC"/>
<path d="M37.5885 15.0283C37.6229 15.2051 37.6408 15.3848 37.6422 15.565C37.6422 16.0958 37.4848 16.6146 37.1899 17.0559C36.895 17.4973 36.4759 17.8412 35.9855 18.0444C35.4952 18.2475 34.9556 18.3006 34.435 18.1971C33.9144 18.0935 33.4362 17.8379 33.0609 17.4626C32.6856 17.0873 32.43 16.6091 32.3265 16.0885C32.2229 15.568 32.2761 15.0284 32.4792 14.538C32.6823 14.0476 33.0263 13.6285 33.4676 13.3336C33.9089 13.0387 34.4278 12.8813 34.9585 12.8813C35.1387 12.8827 35.3184 12.9007 35.4953 12.935M23.6872 19.3221H27.9811C28.2658 19.3221 28.5388 19.4352 28.7401 19.6365C28.9414 19.8378 29.0545 20.1109 29.0545 20.3956C29.0545 21.2497 28.7152 22.0688 28.1113 22.6727C27.5074 23.2766 26.6882 23.6159 25.8341 23.6159C24.98 23.6159 24.1609 23.2766 23.557 22.6727C22.9531 22.0688 22.6138 21.2497 22.6138 20.3956C22.6138 20.1109 22.7269 19.8378 22.9282 19.6365C23.1295 19.4352 23.4025 19.3221 23.6872 19.3221Z" fill="#7DD3FC"/>
<path d="M37.5885 15.0283C37.6229 15.2051 37.6408 15.3848 37.6422 15.565C37.6422 16.0958 37.4848 16.6146 37.1899 17.0559C36.895 17.4973 36.4759 17.8412 35.9855 18.0444C35.4952 18.2475 34.9556 18.3006 34.435 18.1971C33.9144 18.0935 33.4362 17.8379 33.0609 17.4626C32.6856 17.0873 32.43 16.6091 32.3265 16.0885C32.2229 15.568 32.2761 15.0284 32.4792 14.538C32.6823 14.0476 33.0263 13.6285 33.4676 13.3336C33.9089 13.0387 34.4278 12.8813 34.9585 12.8813C35.1387 12.8827 35.3184 12.9007 35.4953 12.935M23.6872 19.3221H27.9811C28.2658 19.3221 28.5388 19.4352 28.7401 19.6365C28.9414 19.8378 29.0545 20.1109 29.0545 20.3956C29.0545 21.2497 28.7152 22.0688 28.1113 22.6727C27.5074 23.2766 26.6882 23.6159 25.8341 23.6159C24.98 23.6159 24.1609 23.2766 23.557 22.6727C22.9531 22.0688 22.6138 21.2497 22.6138 20.3956C22.6138 20.1109 22.7269 19.8378 22.9282 19.6365C23.1295 19.4352 23.4025 19.3221 23.6872 19.3221Z" fill="#7DD3FC"/>
<path d="M9.0635 41.9454C7.63043 46.0364 4.22327 50.9893 2.378 50.4064C0.532723 49.8235 0.944931 43.9184 2.378 39.8285C3.81107 35.7387 5.739 35.013 7.58535 35.6034C9.4317 36.1938 10.5084 37.8555 9.0635 41.9454ZM42.6048 41.9454C44.0379 46.0364 47.445 50.9861 49.2892 50.4064C51.1334 49.8267 50.7234 43.9184 49.2892 39.8285C47.8551 35.7387 45.9293 35.013 44.0829 35.6034C42.2366 36.1938 41.1599 37.8555 42.6048 41.9454Z" fill="#EFF6FF"/>
<path d="M25.8341 46.159C28.2055 46.159 30.128 44.2365 30.128 41.8651C30.128 39.4937 28.2055 37.5713 25.8341 37.5713C23.4627 37.5713 21.5403 39.4937 21.5403 41.8651C21.5403 44.2365 23.4627 46.159 25.8341 46.159Z" fill="#172554"/>
</svg>
