<svg width="76" height="68" viewBox="0 0 76 68" fill="none" xmlns="http://www.w3.org/2000/svg">
<path fill-rule="evenodd" clip-rule="evenodd" d="M61.5304 67L24.9906 47.0278L25.4602 46.1493L62 66.1215L61.5304 67Z" fill="#FCC055"/>
<path fill-rule="evenodd" clip-rule="evenodd" d="M61.5304 67L24.9906 47.0278L25.4602 46.1493L62 66.1215L61.5304 67Z" fill="black" fill-opacity="0.2"/>
<path fill-rule="evenodd" clip-rule="evenodd" d="M24.8589 46.111L39.5689 0L40.5088 0.306576L25.7161 46.677C25.6412 46.9117 25.4318 47.076 25.1883 47.0911L1.06035 48.5849L1 47.5881L24.8589 46.111Z" fill="#FCC055"/>
<path fill-rule="evenodd" clip-rule="evenodd" d="M24.8589 46.111L39.5689 0L40.5088 0.306576L25.7161 46.677C25.6412 46.9117 25.4318 47.076 25.1883 47.0911L1.06035 48.5849L1 47.5881L24.8589 46.111Z" fill="black" fill-opacity="0.2"/>
<g clip-path="url(#clip0_218_457)">
<path d="M38.0002 34.7558C44.3807 34.7558 49.5531 29.5834 49.5531 23.2028C49.5531 16.8223 44.3807 11.6499 38.0002 11.6499C31.6197 11.6499 26.4473 16.8223 26.4473 23.2028C26.4473 29.5834 31.6197 34.7558 38.0002 34.7558Z" fill="url(#paint0_linear_218_457)"/>
<path d="M49.5177 24.1078C49.3153 26.7274 48.2387 29.102 46.5787 30.941C45.7334 31.8776 44.7413 32.6701 43.6412 33.2876L36.6306 26.2763L34.4112 24.0569C33.3273 23.0812 32.7798 21.6676 32.7798 20.0943C32.7798 17.1501 35.0322 14.8984 37.9764 14.8984C39.5497 14.8984 40.9632 15.4452 41.939 16.5291L49.5177 24.1078Z" fill="url(#paint1_linear_218_457)"/>
<path d="M46.5785 30.9413C45.7333 31.8779 44.7411 32.6705 43.641 33.2879C41.9728 34.2232 40.0485 34.756 37.9999 34.756C37.3141 34.756 36.6422 34.6964 35.9895 34.5816L31.4699 30.062C31.1189 29.8596 31.1344 29.3636 31.4346 29.0303L31.4435 29.0215C32.7989 27.5159 34.5657 26.563 36.6306 26.2767C37.0662 26.2164 37.5151 26.1855 37.9757 26.1855C40.5203 26.1855 42.8147 27.1098 44.4476 28.8104L46.5785 30.9413Z" fill="url(#paint2_linear_218_457)"/>
<path d="M37.9818 25.426C40.926 25.426 43.3127 23.0393 43.3127 20.0951C43.3127 17.1509 40.926 14.7642 37.9818 14.7642C35.0376 14.7642 32.6509 17.1509 32.6509 20.0951C32.6509 23.0393 35.0376 25.426 37.9818 25.426Z" fill="url(#paint3_linear_218_457)"/>
<path d="M44.694 29.0707C44.661 29.0336 44.6279 28.9968 44.5943 28.9603C42.9543 27.1716 40.5996 26.0513 37.9814 26.0513C35.3347 26.0513 32.9555 27.1975 31.3143 29.0211L31.306 29.0303C30.9373 29.4396 31.2003 30.0944 31.7484 30.149C33.3818 30.3117 35.6869 30.4129 38.2426 30.4129C40.5514 30.4129 42.6558 30.3303 44.2453 30.1941C44.8001 30.1466 45.0638 29.487 44.694 29.0707Z" fill="url(#paint4_linear_218_457)"/>
<path d="M25.5529 56.3505C31.9335 56.3505 37.1059 51.1781 37.1059 44.7976C37.1059 38.4171 31.9335 33.2446 25.5529 33.2446C19.1724 33.2446 14 38.4171 14 44.7976C14 51.1781 19.1724 56.3505 25.5529 56.3505Z" fill="url(#paint5_linear_218_457)"/>
<path d="M37.0709 45.7024C36.8685 48.3221 35.7919 50.6966 34.1319 52.5356C33.2867 53.4722 32.2945 54.2648 31.1944 54.8822L24.1837 47.871L21.9644 45.6517C20.8805 44.6759 20.333 43.2623 20.333 41.689C20.333 38.7448 22.5854 36.4932 25.5296 36.4932C27.1029 36.4932 28.5164 37.0399 29.4923 38.1238L37.0709 45.7024Z" fill="url(#paint6_linear_218_457)"/>
<path d="M34.1317 52.5355C33.2865 53.4721 32.2944 54.2647 31.1942 54.8822C29.526 55.8174 27.6018 56.3502 25.5531 56.3502C24.8673 56.3502 24.1955 56.2907 23.5428 56.1758L19.0231 51.6562C18.6722 51.4539 18.6876 50.9579 18.9878 50.6246L18.9967 50.6157C20.3522 49.1101 22.1189 48.1572 24.1838 47.871C24.6195 47.8107 25.0683 47.7798 25.5289 47.7798C28.0735 47.7798 30.3679 48.704 32.0008 50.4046L34.1317 52.5355Z" fill="url(#paint7_linear_218_457)"/>
<path d="M25.535 47.0202C28.4792 47.0202 30.8659 44.6335 30.8659 41.6893C30.8659 38.7451 28.4792 36.3584 25.535 36.3584C22.5908 36.3584 20.2041 38.7451 20.2041 41.6893C20.2041 44.6335 22.5908 47.0202 25.535 47.0202Z" fill="url(#paint8_linear_218_457)"/>
<path d="M32.2467 50.6649C32.2137 50.6278 32.1806 50.591 32.147 50.5545C30.507 48.7659 28.1524 47.6455 25.5341 47.6455C22.8874 47.6455 20.5082 48.7918 18.867 50.6153L18.8587 50.6245C18.4901 51.0338 18.753 51.6886 19.3012 51.7432C20.9345 51.9059 23.2396 52.0071 25.7953 52.0071C28.1041 52.0071 30.2086 51.9246 31.798 51.7884C32.3528 51.7408 32.6166 51.0813 32.2467 50.6649Z" fill="url(#paint9_linear_218_457)"/>
<path d="M50.447 56.3505C56.8275 56.3505 61.9999 51.1781 61.9999 44.7976C61.9999 38.4171 56.8275 33.2446 50.447 33.2446C44.0665 33.2446 38.894 38.4171 38.894 44.7976C38.894 51.1781 44.0665 56.3505 50.447 56.3505Z" fill="url(#paint10_linear_218_457)"/>
<path d="M61.9649 45.7025C61.7626 48.3222 60.686 50.6967 59.0259 52.5357C58.1807 53.4723 57.1885 54.2649 56.0884 54.8823L49.0779 47.871L46.8585 45.6517C45.7745 44.6759 45.2271 43.2623 45.2271 41.689C45.2271 38.7448 47.4795 36.4932 50.4237 36.4932C51.9969 36.4932 53.4105 37.0399 54.3863 38.1238L61.9649 45.7025Z" fill="url(#paint11_linear_218_457)"/>
<path d="M59.0258 52.5355C58.1806 53.4721 57.1884 54.2647 56.0883 54.8822C54.4201 55.8174 52.4958 56.3502 50.4472 56.3502C49.7613 56.3502 49.0895 56.2907 48.4368 56.1758L43.9172 51.6562C43.5662 51.4539 43.5816 50.9579 43.8819 50.6246L43.8907 50.6157C45.2462 49.1101 47.013 48.1572 49.0778 47.871C49.5135 47.8107 49.9624 47.7798 50.423 47.7798C52.9675 47.7798 55.2619 48.704 56.8949 50.4046L59.0258 52.5355Z" fill="url(#paint12_linear_218_457)"/>
<path d="M50.4291 47.0202C53.3733 47.0202 55.76 44.6335 55.76 41.6893C55.76 38.7451 53.3733 36.3584 50.4291 36.3584C47.4849 36.3584 45.0981 38.7451 45.0981 41.6893C45.0981 44.6335 47.4849 47.0202 50.4291 47.0202Z" fill="url(#paint13_linear_218_457)"/>
<path d="M57.1407 50.6649C57.1078 50.6278 57.0747 50.591 57.0411 50.5545C55.4011 48.7659 53.0464 47.6455 50.4282 47.6455C47.7815 47.6455 45.4023 48.7918 43.7611 50.6153L43.7528 50.6245C43.3841 51.0338 43.6471 51.6886 44.1952 51.7432C45.8285 51.9059 48.1337 52.0071 50.6893 52.0071C52.9981 52.0071 55.1026 51.9246 56.6921 51.7884C57.2469 51.7408 57.5106 51.0813 57.1407 50.6649Z" fill="url(#paint14_linear_218_457)"/>
</g>
<path fill-rule="evenodd" clip-rule="evenodd" d="M0.0296188 48.265L14.5115 3.84512L15.4628 4.15493L1.08539 48.2544L36.6183 66.9976L61.6374 66.5073L75.0408 21.3578L76 21.6422L62.5134 67.0721C62.439 67.3226 62.211 67.4962 61.9496 67.5014L36.5346 67.9994C36.433 68.0014 36.3325 67.9776 36.2426 67.9302L0.320202 48.9815C0.0617556 48.8452 -0.0609111 48.5427 0.0296188 48.265Z" fill="#FCC055"/>
<path fill-rule="evenodd" clip-rule="evenodd" d="M39.8968 0.00970221C40.0315 -0.00914606 40.1687 0.0182838 40.2857 0.0874963L75.5125 20.9144C76.0116 21.2095 75.8436 21.9702 75.2666 22.0279L50.5879 24.4944C50.465 24.5067 50.3412 24.4807 50.2335 24.4201L14.9994 4.5808C14.499 4.29907 14.642 3.54343 15.2108 3.46385L39.8968 0.00970221ZM39.8969 1.01945L16.5217 4.29018L50.6143 23.4868L73.9529 21.1542L39.8969 1.01945Z" fill="#FCC055"/>
<path fill-rule="evenodd" clip-rule="evenodd" d="M36.0227 67.3468L50.0304 23.8468L50.9829 24.1532L36.9752 67.6532L36.0227 67.3468Z" fill="#FCC055"/>
<defs>
<linearGradient id="paint0_linear_218_457" x1="33.2888" y1="18.4915" x2="44.93" y2="30.1327" gradientUnits="userSpaceOnUse">
<stop stop-color="#7ACBFF"/>
<stop offset="1" stop-color="#45A2E0"/>
</linearGradient>
<linearGradient id="paint1_linear_218_457" x1="44.9221" y1="27.0401" x2="36.0341" y2="18.152" gradientUnits="userSpaceOnUse">
<stop stop-color="#2F73A0" stop-opacity="0"/>
<stop offset="1" stop-color="#2F73A0"/>
</linearGradient>
<linearGradient id="paint2_linear_218_457" x1="39.7732" y1="34.3147" x2="37.8599" y2="25.5824" gradientUnits="userSpaceOnUse">
<stop stop-color="#2F73A0" stop-opacity="0"/>
<stop offset="1" stop-color="#2F73A0"/>
</linearGradient>
<linearGradient id="paint3_linear_218_457" x1="35.2974" y1="20.0951" x2="39.9553" y2="20.0951" gradientUnits="userSpaceOnUse">
<stop stop-color="#EDF5FF"/>
<stop offset="1" stop-color="#C7E9FF"/>
</linearGradient>
<linearGradient id="paint4_linear_218_457" x1="35.2976" y1="28.2321" x2="39.9556" y2="28.2321" gradientUnits="userSpaceOnUse">
<stop stop-color="#EDF5FF"/>
<stop offset="1" stop-color="#C7E9FF"/>
</linearGradient>
<linearGradient id="paint5_linear_218_457" x1="20.8416" y1="40.0861" x2="32.4828" y2="51.7274" gradientUnits="userSpaceOnUse">
<stop stop-color="#E4E08E"/>
<stop offset="1" stop-color="#6FA953"/>
</linearGradient>
<linearGradient id="paint6_linear_218_457" x1="32.4753" y1="48.6347" x2="23.5872" y2="39.7466" gradientUnits="userSpaceOnUse">
<stop stop-color="#43765A" stop-opacity="0"/>
<stop offset="1" stop-color="#43765A"/>
</linearGradient>
<linearGradient id="paint7_linear_218_457" x1="27.3263" y1="55.9089" x2="25.4131" y2="47.1767" gradientUnits="userSpaceOnUse">
<stop stop-color="#43765A" stop-opacity="0"/>
<stop offset="1" stop-color="#43765A"/>
</linearGradient>
<linearGradient id="paint8_linear_218_457" x1="22.8506" y1="41.6893" x2="27.5086" y2="41.6893" gradientUnits="userSpaceOnUse">
<stop stop-color="#EDF5FF"/>
<stop offset="1" stop-color="#C7E9FF"/>
</linearGradient>
<linearGradient id="paint9_linear_218_457" x1="22.8504" y1="49.8263" x2="27.5083" y2="49.8263" gradientUnits="userSpaceOnUse">
<stop stop-color="#EDF5FF"/>
<stop offset="1" stop-color="#C7E9FF"/>
</linearGradient>
<linearGradient id="paint10_linear_218_457" x1="45.7355" y1="40.0861" x2="57.3768" y2="51.7274" gradientUnits="userSpaceOnUse">
<stop stop-color="#FF755C"/>
<stop offset="1" stop-color="#FF4181"/>
</linearGradient>
<linearGradient id="paint11_linear_218_457" x1="57.3694" y1="48.6348" x2="48.4814" y2="39.7467" gradientUnits="userSpaceOnUse">
<stop stop-color="#843561" stop-opacity="0"/>
<stop offset="1" stop-color="#3A2F4D"/>
</linearGradient>
<linearGradient id="paint12_linear_218_457" x1="52.2203" y1="55.9089" x2="50.3071" y2="47.1767" gradientUnits="userSpaceOnUse">
<stop stop-color="#843561" stop-opacity="0"/>
<stop offset="1" stop-color="#3A2F4D"/>
</linearGradient>
<linearGradient id="paint13_linear_218_457" x1="47.7446" y1="41.6893" x2="52.4026" y2="41.6893" gradientUnits="userSpaceOnUse">
<stop stop-color="#EDF5FF"/>
<stop offset="1" stop-color="#C7E9FF"/>
</linearGradient>
<linearGradient id="paint14_linear_218_457" x1="47.7444" y1="49.8263" x2="52.4024" y2="49.8263" gradientUnits="userSpaceOnUse">
<stop stop-color="#EDF5FF"/>
<stop offset="1" stop-color="#C7E9FF"/>
</linearGradient>
<clipPath id="clip0_218_457">
<rect width="48" height="48" fill="white" transform="translate(14 10)"/>
</clipPath>
</defs>
</svg>
