<svg width="77" height="68" viewBox="0 0 77 68" fill="none" xmlns="http://www.w3.org/2000/svg">
<path fill-rule="evenodd" clip-rule="evenodd" d="M62.0304 67L25.4906 47.0278L25.9602 46.1493L62.5 66.1215L62.0304 67Z" fill="#FCC055"/>
<path fill-rule="evenodd" clip-rule="evenodd" d="M62.0304 67L25.4906 47.0278L25.9602 46.1493L62.5 66.1215L62.0304 67Z" fill="black" fill-opacity="0.2"/>
<path fill-rule="evenodd" clip-rule="evenodd" d="M25.3589 46.111L40.0689 0L41.0088 0.306576L26.2161 46.677C26.1412 46.9117 25.9318 47.076 25.6883 47.0911L1.56035 48.5849L1.5 47.5881L25.3589 46.111Z" fill="#FCC055"/>
<path fill-rule="evenodd" clip-rule="evenodd" d="M25.3589 46.111L40.0689 0L41.0088 0.306576L26.2161 46.677C26.1412 46.9117 25.9318 47.076 25.6883 47.0911L1.56035 48.5849L1.5 47.5881L25.3589 46.111Z" fill="black" fill-opacity="0.2"/>
<g clip-path="url(#clip0_218_660)">
<path d="M49.4084 22.0242H52.9987C56.8653 22.0242 59.9998 25.1587 59.9998 29.0253C59.9998 32.8918 56.8653 36.0264 52.9987 36.0264H49.4084C49.0013 36.0264 48.6029 35.9896 48.2148 35.9229L46.1006 36.9731C45.575 37.2342 44.9699 36.8059 45.0415 36.2234L45.2354 34.6468C43.5193 33.3708 42.4072 31.3281 42.4072 29.0253C42.4072 25.1586 45.5418 22.0242 49.4084 22.0242Z" fill="url(#paint0_linear_218_660)"/>
<path d="M45.329 23.3372C43.5604 24.6079 42.4072 26.6812 42.4072 29.0253C42.4072 31.3282 43.5193 33.3709 45.2354 34.6469L45.0415 36.2235C44.9699 36.806 45.5749 37.2343 46.1006 36.9732L48.2148 35.923C48.609 35.9913 49.0083 36.0259 49.4084 36.0264H52.9987C54.4253 36.0264 55.7514 35.5988 56.858 34.8661L45.329 23.3372Z" fill="url(#paint1_linear_218_660)"/>
<path d="M58.1731 33.7412H52.4388L48.2148 35.923C48.6091 35.9913 49.0084 36.026 49.4085 36.0265H52.9988C55.0487 36.0265 56.8927 35.1452 58.1731 33.7412Z" fill="url(#paint2_linear_218_660)"/>
<path d="M33.6566 12H27.6713C21.2254 12 16 17.2254 16 23.6713C16 30.1172 21.2254 35.3426 27.6713 35.3426H33.6566C34.3353 35.3426 34.9995 35.2814 35.6464 35.1702L39.1709 36.921C40.0471 37.3563 41.0558 36.6422 40.9364 35.6711L40.6132 33.0429C43.474 30.9158 45.3279 27.5103 45.3279 23.6714C45.328 17.2255 40.1025 12 33.6566 12Z" fill="url(#paint3_linear_218_660)"/>
<path d="M19.8804 32.3608C21.9465 34.2146 24.6771 35.3427 27.6714 35.3427H33.6567C34.3354 35.3427 34.9995 35.2815 35.6465 35.1703L31.385 32.3608H19.8804Z" fill="url(#paint4_linear_218_660)"/>
<path d="M46.8364 55.9999H51.2986C56.1041 55.9999 59.9998 52.1042 59.9998 47.2987C59.9998 42.4931 56.1042 38.5975 51.2986 38.5975H46.8364C46.3304 38.5975 45.8353 38.6431 45.3529 38.726L42.7253 37.4208C42.072 37.0963 41.3202 37.6286 41.4092 38.3525L41.6502 40.312C39.5174 41.8978 38.1353 44.4367 38.1353 47.2987C38.1351 52.1042 42.0308 55.9999 46.8364 55.9999Z" fill="url(#paint5_linear_218_660)"/>
<path d="M38.418 49.5063C39.395 53.2428 42.7936 56.0001 46.8364 56.0001H51.2986C55.3413 56.0001 58.7398 53.2428 59.717 49.5063H38.418Z" fill="url(#paint6_linear_218_660)"/>
<path d="M40.3 41.5571C38.9529 43.0893 38.1353 45.0981 38.1353 47.2986C38.1353 52.1042 42.031 55.9998 46.8366 55.9998H51.2988C52.3291 55.9998 53.3173 55.8203 54.2345 55.4916L40.3 41.5571Z" fill="url(#paint7_linear_218_660)"/>
<path d="M34.4151 52.3507H30.8248C26.9583 52.3507 23.8237 49.2162 23.8237 45.3496C23.8237 41.483 26.9583 38.3485 30.8248 38.3485H34.4151C34.8223 38.3485 35.2207 38.3853 35.6087 38.452L37.723 37.4017C38.2486 37.1407 38.8536 37.5689 38.782 38.1515L38.5881 39.7281C40.3042 41.0041 41.4163 43.0468 41.4163 45.3496C41.4162 49.2163 38.2817 52.3507 34.4151 52.3507Z" fill="url(#paint8_linear_218_660)"/>
<path d="M23.9482 46.6616C24.5627 49.9008 27.4068 52.3506 30.8248 52.3506H34.4151C37.833 52.3506 40.6772 49.9008 41.2916 46.6616H23.9482Z" fill="url(#paint9_linear_218_660)"/>
<path d="M29.179 46.8154C29.8611 46.8154 30.4141 46.2625 30.4141 45.5803C30.4141 44.8982 29.8611 44.3452 29.179 44.3452C28.4968 44.3452 27.9438 44.8982 27.9438 45.5803C27.9438 46.2625 28.4968 46.8154 29.179 46.8154Z" fill="url(#paint10_linear_218_660)"/>
<path d="M32.6199 46.8154C33.302 46.8154 33.855 46.2625 33.855 45.5803C33.855 44.8982 33.302 44.3452 32.6199 44.3452C31.9377 44.3452 31.3848 44.8982 31.3848 45.5803C31.3848 46.2625 31.9377 46.8154 32.6199 46.8154Z" fill="url(#paint11_linear_218_660)"/>
<path d="M36.0613 46.8154C36.7434 46.8154 37.2964 46.2625 37.2964 45.5803C37.2964 44.8982 36.7434 44.3452 36.0613 44.3452C35.3791 44.3452 34.8262 44.8982 34.8262 45.5803C34.8262 46.2625 35.3791 46.8154 36.0613 46.8154Z" fill="url(#paint12_linear_218_660)"/>
<path d="M24.3096 26.5857C25.5692 26.5857 26.5903 25.5645 26.5903 24.3049C26.5903 23.0453 25.5692 22.0242 24.3096 22.0242C23.0499 22.0242 22.0288 23.0453 22.0288 24.3049C22.0288 25.5645 23.0499 26.5857 24.3096 26.5857Z" fill="url(#paint13_linear_218_660)"/>
<path d="M30.6641 26.5857C31.9237 26.5857 32.9448 25.5645 32.9448 24.3049C32.9448 23.0453 31.9237 22.0242 30.6641 22.0242C29.4044 22.0242 28.3833 23.0453 28.3833 24.3049C28.3833 25.5645 29.4044 26.5857 30.6641 26.5857Z" fill="url(#paint14_linear_218_660)"/>
<path d="M37.0185 26.5857C38.2782 26.5857 39.2993 25.5645 39.2993 24.3049C39.2993 23.0453 38.2782 22.0242 37.0185 22.0242C35.7589 22.0242 34.7378 23.0453 34.7378 24.3049C34.7378 25.5645 35.7589 26.5857 37.0185 26.5857Z" fill="url(#paint15_linear_218_660)"/>
<path d="M44.3913 48.3402C45.3182 48.3402 46.0697 47.5887 46.0697 46.6618C46.0697 45.7348 45.3182 44.9834 44.3913 44.9834C43.4643 44.9834 42.7129 45.7348 42.7129 46.6618C42.7129 47.5887 43.4643 48.3402 44.3913 48.3402Z" fill="url(#paint16_linear_218_660)"/>
<path d="M49.0675 48.3402C49.9945 48.3402 50.7459 47.5887 50.7459 46.6618C50.7459 45.7348 49.9945 44.9834 49.0675 44.9834C48.1406 44.9834 47.3892 45.7348 47.3892 46.6618C47.3892 47.5887 48.1406 48.3402 49.0675 48.3402Z" fill="url(#paint17_linear_218_660)"/>
<path d="M53.7438 48.3402C54.6708 48.3402 55.4222 47.5887 55.4222 46.6618C55.4222 45.7348 54.6708 44.9834 53.7438 44.9834C52.8169 44.9834 52.0654 45.7348 52.0654 46.6618C52.0654 47.5887 52.8169 48.3402 53.7438 48.3402Z" fill="url(#paint18_linear_218_660)"/>
<path d="M43.8258 45.0833C43.1776 45.3156 42.7129 45.9337 42.7129 46.6619C42.7129 47.5888 43.4643 48.3403 44.3913 48.3403C45.1195 48.3403 45.7376 47.8757 45.9699 47.2273L43.8258 45.0833Z" fill="url(#paint19_linear_218_660)"/>
<path d="M47.7625 30.1943C48.4446 30.1943 48.9976 29.6414 48.9976 28.9592C48.9976 28.2771 48.4446 27.7241 47.7625 27.7241C47.0803 27.7241 46.5273 28.2771 46.5273 28.9592C46.5273 29.6414 47.0803 30.1943 47.7625 30.1943Z" fill="url(#paint20_linear_218_660)"/>
<path d="M47.7625 30.1943C48.4446 30.1943 48.9976 29.6414 48.9976 28.9592C48.9976 28.2771 48.4446 27.7241 47.7625 27.7241C47.0803 27.7241 46.5273 28.2771 46.5273 28.9592C46.5273 29.6414 47.0803 30.1943 47.7625 30.1943Z" fill="url(#paint21_linear_218_660)"/>
<path d="M51.2039 30.1943C51.886 30.1943 52.439 29.6414 52.439 28.9592C52.439 28.2771 51.886 27.7241 51.2039 27.7241C50.5217 27.7241 49.9688 28.2771 49.9688 28.9592C49.9688 29.6414 50.5217 30.1943 51.2039 30.1943Z" fill="url(#paint22_linear_218_660)"/>
<path d="M54.6448 30.1943C55.3269 30.1943 55.8799 29.6414 55.8799 28.9592C55.8799 28.2771 55.3269 27.7241 54.6448 27.7241C53.9626 27.7241 53.4097 28.2771 53.4097 28.9592C53.4097 29.6414 53.9626 30.1943 54.6448 30.1943Z" fill="url(#paint23_linear_218_660)"/>
<path d="M50.2144 28.2222C50.0549 28.4348 49.9687 28.6934 49.9688 28.9591C49.9688 29.6412 50.5217 30.1942 51.2039 30.1942C51.4805 30.1942 51.735 30.1022 51.9408 29.9486L50.2144 28.2222Z" fill="url(#paint24_linear_218_660)"/>
</g>
<path fill-rule="evenodd" clip-rule="evenodd" d="M0.529619 48.265L15.0115 3.84512L15.9628 4.15493L1.58539 48.2544L37.1183 66.9976L62.1374 66.5073L75.5408 21.3578L76.5 21.6422L63.0134 67.0721C62.939 67.3226 62.711 67.4962 62.4496 67.5014L37.0346 67.9994C36.933 68.0014 36.8325 67.9776 36.7426 67.9302L0.820202 48.9815C0.561756 48.8452 0.439089 48.5427 0.529619 48.265Z" fill="#FCC055"/>
<path fill-rule="evenodd" clip-rule="evenodd" d="M40.3968 0.00970221C40.5315 -0.00914606 40.6687 0.0182838 40.7857 0.0874963L76.0125 20.9144C76.5116 21.2095 76.3436 21.9702 75.7666 22.0279L51.0879 24.4944C50.965 24.5067 50.8412 24.4807 50.7335 24.4201L15.4994 4.5808C14.999 4.29907 15.142 3.54343 15.7108 3.46385L40.3968 0.00970221ZM40.3969 1.01945L17.0217 4.29018L51.1143 23.4868L74.4529 21.1542L40.3969 1.01945Z" fill="#FCC055"/>
<path fill-rule="evenodd" clip-rule="evenodd" d="M36.5227 67.3468L50.5304 23.8468L51.4829 24.1532L37.4752 67.6532L36.5227 67.3468Z" fill="#FCC055"/>
<defs>
<linearGradient id="paint0_linear_218_660" x1="51.2035" y1="22.8978" x2="51.2035" y2="37.5388" gradientUnits="userSpaceOnUse">
<stop stop-color="#BCE097"/>
<stop offset="1" stop-color="#7DC03A"/>
</linearGradient>
<linearGradient id="paint1_linear_218_660" x1="50.7361" y1="32.4012" x2="42.4106" y2="28.907" gradientUnits="userSpaceOnUse">
<stop stop-color="#8CC951" stop-opacity="0"/>
<stop offset="1" stop-color="#3E6E66"/>
</linearGradient>
<linearGradient id="paint2_linear_218_660" x1="53.194" y1="34.2013" x2="53.194" y2="37.3073" gradientUnits="userSpaceOnUse">
<stop stop-color="#8CC951" stop-opacity="0"/>
<stop offset="1" stop-color="#3E6E66"/>
</linearGradient>
<linearGradient id="paint3_linear_218_660" x1="28.4008" y1="18.1424" x2="37.4815" y2="40.3268" gradientUnits="userSpaceOnUse">
<stop stop-color="#76CCF8"/>
<stop offset="0.833" stop-color="#518EF8"/>
<stop offset="1" stop-color="#4981F8"/>
</linearGradient>
<linearGradient id="paint4_linear_218_660" x1="27.7634" y1="33.3961" x2="27.7634" y2="36.0763" gradientUnits="userSpaceOnUse">
<stop stop-color="#4071F7" stop-opacity="0"/>
<stop offset="1" stop-color="#30569F"/>
</linearGradient>
<linearGradient id="paint5_linear_218_660" x1="49.0674" y1="38.8081" x2="49.0674" y2="60.0971" gradientUnits="userSpaceOnUse">
<stop stop-color="#F7E07D"/>
<stop offset="0.289" stop-color="#F3CF6F"/>
<stop offset="0.862" stop-color="#E9A24B"/>
<stop offset="1" stop-color="#E69642"/>
</linearGradient>
<linearGradient id="paint6_linear_218_660" x1="49.0674" y1="50.7373" x2="49.0674" y2="56.1114" gradientUnits="userSpaceOnUse">
<stop stop-color="#D52C1C" stop-opacity="0"/>
<stop offset="0.28" stop-color="#D12C1E" stop-opacity="0.28"/>
<stop offset="0.574" stop-color="#C42C23" stop-opacity="0.574"/>
<stop offset="0.872" stop-color="#AF2B2C" stop-opacity="0.872"/>
<stop offset="1" stop-color="#A42B31"/>
</linearGradient>
<linearGradient id="paint7_linear_218_660" x1="51.4648" y1="51.2338" x2="37.4021" y2="47.1789" gradientUnits="userSpaceOnUse">
<stop stop-color="#D52C1C" stop-opacity="0"/>
<stop offset="0.28" stop-color="#D12C1E" stop-opacity="0.28"/>
<stop offset="0.574" stop-color="#C42C23" stop-opacity="0.574"/>
<stop offset="0.872" stop-color="#AF2B2C" stop-opacity="0.872"/>
<stop offset="1" stop-color="#A42B31"/>
</linearGradient>
<linearGradient id="paint8_linear_218_660" x1="32.6199" y1="38.09" x2="32.6199" y2="52.9721" gradientUnits="userSpaceOnUse">
<stop stop-color="#DC4955"/>
<stop offset="1" stop-color="#C4237C"/>
</linearGradient>
<linearGradient id="paint9_linear_218_660" x1="32.62" y1="48.1489" x2="32.62" y2="52.0399" gradientUnits="userSpaceOnUse">
<stop stop-color="#8A1958" stop-opacity="0"/>
<stop offset="1" stop-color="#8A1958"/>
</linearGradient>
<linearGradient id="paint10_linear_218_660" x1="28.4963" y1="44.8977" x2="30.2496" y2="46.651" gradientUnits="userSpaceOnUse">
<stop stop-color="#EEF4FF"/>
<stop offset="1" stop-color="#CFE7FD"/>
</linearGradient>
<linearGradient id="paint11_linear_218_660" x1="31.9373" y1="44.8977" x2="33.6905" y2="46.651" gradientUnits="userSpaceOnUse">
<stop stop-color="#EEF4FF"/>
<stop offset="1" stop-color="#CFE7FD"/>
</linearGradient>
<linearGradient id="paint12_linear_218_660" x1="35.3787" y1="44.8977" x2="37.1319" y2="46.651" gradientUnits="userSpaceOnUse">
<stop stop-color="#EEF4FF"/>
<stop offset="1" stop-color="#CFE7FD"/>
</linearGradient>
<linearGradient id="paint13_linear_218_660" x1="23.0489" y1="23.0444" x2="26.2867" y2="26.2821" gradientUnits="userSpaceOnUse">
<stop stop-color="#EEF4FF"/>
<stop offset="1" stop-color="#CFE7FD"/>
</linearGradient>
<linearGradient id="paint14_linear_218_660" x1="29.4035" y1="23.0444" x2="32.6412" y2="26.2821" gradientUnits="userSpaceOnUse">
<stop stop-color="#EEF4FF"/>
<stop offset="1" stop-color="#CFE7FD"/>
</linearGradient>
<linearGradient id="paint15_linear_218_660" x1="35.758" y1="23.0444" x2="38.9957" y2="26.2821" gradientUnits="userSpaceOnUse">
<stop stop-color="#EEF4FF"/>
<stop offset="1" stop-color="#CFE7FD"/>
</linearGradient>
<linearGradient id="paint16_linear_218_660" x1="43.4636" y1="45.7342" x2="45.8462" y2="48.1167" gradientUnits="userSpaceOnUse">
<stop stop-color="#EEF4FF"/>
<stop offset="1" stop-color="#CFE7FD"/>
</linearGradient>
<linearGradient id="paint17_linear_218_660" x1="48.1399" y1="45.7342" x2="50.5225" y2="48.1167" gradientUnits="userSpaceOnUse">
<stop stop-color="#EEF4FF"/>
<stop offset="1" stop-color="#CFE7FD"/>
</linearGradient>
<linearGradient id="paint18_linear_218_660" x1="52.8162" y1="45.7342" x2="55.1988" y2="48.1167" gradientUnits="userSpaceOnUse">
<stop stop-color="#EEF4FF"/>
<stop offset="1" stop-color="#CFE7FD"/>
</linearGradient>
<linearGradient id="paint19_linear_218_660" x1="46.1932" y1="49.144" x2="41.5344" y2="44.4852" gradientUnits="userSpaceOnUse">
<stop stop-color="#8AAADC" stop-opacity="0"/>
<stop offset="1" stop-color="#8AAADC"/>
</linearGradient>
<linearGradient id="paint20_linear_218_660" x1="47.0798" y1="28.2766" x2="48.8332" y2="30.0299" gradientUnits="userSpaceOnUse">
<stop stop-color="#EEF4FF"/>
<stop offset="1" stop-color="#CFE7FD"/>
</linearGradient>
<linearGradient id="paint21_linear_218_660" x1="51.3546" y1="32.5513" x2="45.7649" y2="26.9617" gradientUnits="userSpaceOnUse">
<stop stop-color="#8AAADC" stop-opacity="0"/>
<stop offset="1" stop-color="#8AAADC"/>
</linearGradient>
<linearGradient id="paint22_linear_218_660" x1="50.5213" y1="28.2766" x2="52.2745" y2="30.0299" gradientUnits="userSpaceOnUse">
<stop stop-color="#EEF4FF"/>
<stop offset="1" stop-color="#CFE7FD"/>
</linearGradient>
<linearGradient id="paint23_linear_218_660" x1="53.9621" y1="28.2766" x2="55.7154" y2="30.0299" gradientUnits="userSpaceOnUse">
<stop stop-color="#EEF4FF"/>
<stop offset="1" stop-color="#CFE7FD"/>
</linearGradient>
<linearGradient id="paint24_linear_218_660" x1="52.5754" y1="31.3304" x2="48.975" y2="27.73" gradientUnits="userSpaceOnUse">
<stop stop-color="#8AAADC" stop-opacity="0"/>
<stop offset="1" stop-color="#8AAADC"/>
</linearGradient>
<clipPath id="clip0_218_660">
<rect width="44" height="44" fill="white" transform="translate(16 12)"/>
</clipPath>
</defs>
</svg>
