<svg width="32" height="44" viewBox="0 0 32 44" fill="none" xmlns="http://www.w3.org/2000/svg">
<g filter="url(#filter0_d_218_657)">
<path d="M8 20.0002C8 19.6705 8.09607 19.3412 8.27217 19.0942L16.2719 6.74133C16.5599 6.29647 17.04 6 17.5999 6L22.3998 6C23.2799 6 24 6.74133 24 7.64726C24 7.97662 23.9039 8.3059 23.7278 8.55288L16.3199 20.0002L23.7278 31.4471C23.9039 31.6941 24 32.0234 24 32.3531C24 33.2587 23.2799 34 22.3998 34L17.5999 34C17.04 34 16.5599 33.7035 16.2719 33.2587L8.27217 20.9058C8.09607 20.6588 8 20.3295 8 20.0002Z" fill="white"/>
</g>
<defs>
<filter id="filter0_d_218_657" x="0" y="0" width="32" height="44" filterUnits="userSpaceOnUse" color-interpolation-filters="sRGB">
<feFlood flood-opacity="0" result="BackgroundImageFix"/>
<feColorMatrix in="SourceAlpha" type="matrix" values="0 0 0 0 0 0 0 0 0 0 0 0 0 0 0 0 0 0 127 0" result="hardAlpha"/>
<feOffset dy="2"/>
<feGaussianBlur stdDeviation="4"/>
<feComposite in2="hardAlpha" operator="out"/>
<feColorMatrix type="matrix" values="0 0 0 0 0 0 0 0 0 0 0 0 0 0 0 0 0 0 0.12 0"/>
<feBlend mode="normal" in2="BackgroundImageFix" result="effect1_dropShadow_218_657"/>
<feBlend mode="normal" in="SourceGraphic" in2="effect1_dropShadow_218_657" result="shape"/>
</filter>
</defs>
</svg>
