<svg width="44" height="44" viewBox="0 0 44 44" fill="none" xmlns="http://www.w3.org/2000/svg">
<path d="M22 41.3354C32.6789 41.3354 41.3359 32.6785 41.3359 21.9995C41.3359 11.3206 32.6789 2.66357 22 2.66357C11.3211 2.66357 2.66406 11.3206 2.66406 21.9995C2.66406 32.6785 11.3211 41.3354 22 41.3354Z" fill="url(#paint0_linear_218_386)"/>
<path d="M26.108 11.2573H17.901C14.24 11.2573 11.2666 14.2308 11.2666 17.8917V26.0987C11.2666 29.7597 14.24 32.7331 17.901 32.7331H26.108C29.7689 32.7331 32.7424 29.7597 32.7424 26.0987V17.8917C32.7424 14.2308 29.7689 11.2573 26.108 11.2573ZM30.3447 26.1073C30.3447 28.4448 28.4455 30.3526 26.0994 30.3526H17.8924C15.5549 30.3526 13.6471 28.4534 13.6471 26.1073V17.9003C13.6471 15.5628 15.5463 13.655 17.8924 13.655H26.0994C28.4369 13.655 30.3447 15.5542 30.3447 17.9003V26.1073Z" fill="white"/>
<path d="M22.0002 16.5083C18.9752 16.5083 16.5088 18.9747 16.5088 21.9997C16.5088 25.0247 18.9752 27.4911 22.0002 27.4911C25.0252 27.4911 27.4916 25.0247 27.4916 21.9997C27.4916 18.9747 25.0252 16.5083 22.0002 16.5083ZM22.0002 25.3341C20.1611 25.3341 18.6658 23.8388 18.6658 21.9997C18.6658 20.1606 20.1611 18.6653 22.0002 18.6653C23.8393 18.6653 25.3346 20.1606 25.3346 21.9997C25.3346 23.8388 23.8393 25.3341 22.0002 25.3341Z" fill="white"/>
<path d="M27.9107 17.1102C28.4166 17.0278 28.76 16.5508 28.6776 16.0449C28.5952 15.539 28.1183 15.1957 27.6123 15.2781C27.1064 15.3605 26.7631 15.8374 26.8455 16.3433C26.9279 16.8492 27.4048 17.1926 27.9107 17.1102Z" fill="white"/>
<defs>
<linearGradient id="paint0_linear_218_386" x1="7.2771" y1="36.7224" x2="34.7556" y2="9.24389" gradientUnits="userSpaceOnUse">
<stop stop-color="#FEE411"/>
<stop offset="0.052" stop-color="#FEDB16"/>
<stop offset="0.138" stop-color="#FEC125"/>
<stop offset="0.248" stop-color="#FE983D"/>
<stop offset="0.376" stop-color="#FE5F5E"/>
<stop offset="0.5" stop-color="#FE2181"/>
<stop offset="1" stop-color="#9000DC"/>
</linearGradient>
</defs>
</svg>
