<svg width="44" height="44" viewBox="0 0 44 44" fill="none" xmlns="http://www.w3.org/2000/svg">
<path d="M22 41.3354C32.6789 41.3354 41.3359 32.6785 41.3359 21.9995C41.3359 11.3206 32.6789 2.66357 22 2.66357C11.3211 2.66357 2.66406 11.3206 2.66406 21.9995C2.66406 32.6785 11.3211 41.3354 22 41.3354Z" fill="#4CAF50"/>
<path d="M21.9914 11.8247C17.6344 11.8247 11.2578 14.3427 11.2578 20.5044C11.2578 27.2247 18.1844 28.8146 20.5305 29.2958C21.8883 29.5708 19.8687 32.3896 21.4758 32.1489C22.9969 31.9169 31.5906 26.7692 32.6219 21.3981C33.6359 16.1388 28.1703 11.8247 21.9914 11.8247ZM17.9609 23.0997C17.8836 23.177 17.7633 23.22 17.6086 23.22H15.5719C15.3656 23.22 15.2195 23.1685 15.1336 23.0653C15.0477 22.9622 14.9961 22.7903 14.9961 22.5583V18.4591C14.9961 18.2442 15.0391 18.081 15.125 17.9692C15.2109 17.8575 15.3227 17.806 15.4602 17.806C15.5977 17.806 15.718 17.8575 15.8039 17.9692C15.8898 18.081 15.9328 18.2442 15.9328 18.4591V22.3349H17.6086C17.7633 22.3349 17.875 22.3778 17.9609 22.4638C18.0383 22.5497 18.0812 22.6528 18.0812 22.7817C18.0812 22.9106 18.0383 23.0224 17.9609 23.0997ZM19.8945 22.6528C19.8945 22.8763 19.8516 23.0395 19.7656 23.1513C19.6797 23.263 19.568 23.3145 19.4219 23.3145C19.2844 23.3145 19.1727 23.263 19.0867 23.1513C19.0008 23.0395 18.9578 22.8763 18.9578 22.6614V18.4677C18.9578 18.2528 19.0008 18.0896 19.0867 17.9778C19.1727 17.8661 19.2844 17.8146 19.4219 17.8146C19.5594 17.8146 19.6797 17.8661 19.7656 17.9778C19.8516 18.0896 19.8945 18.2528 19.8945 18.4677V22.6528ZM24.8359 22.6099C24.8359 23.0739 24.6641 23.3145 24.3289 23.3145C24.243 23.3145 24.1656 23.2974 24.1055 23.2716C24.0367 23.2458 23.9766 23.2028 23.9164 23.1427C23.8562 23.0825 23.8047 23.0138 23.7531 22.9278C23.7016 22.8505 23.65 22.7645 23.5984 22.6786L21.8367 19.5763V22.6958C21.8367 22.9021 21.7937 23.0567 21.7164 23.1599C21.6305 23.263 21.5273 23.3145 21.3984 23.3145C21.2695 23.3145 21.1578 23.263 21.0805 23.1599C21.0031 23.0567 20.9602 22.9021 20.9602 22.7044V18.5966C20.9602 18.4247 20.9773 18.2872 21.0117 18.1841C21.0547 18.0724 21.1148 17.9864 21.2094 17.9177C21.3039 17.8489 21.3984 17.8146 21.5102 17.8146C21.5961 17.8146 21.6648 17.8317 21.725 17.8575C21.7852 17.8919 21.8367 17.9349 21.8797 17.9864C21.9227 18.038 21.9742 18.1067 22.0172 18.1927C22.0602 18.2786 22.1117 18.3646 22.1633 18.4591L23.968 21.5958V18.4247C23.968 18.2185 24.0023 18.0638 24.0797 17.9606C24.157 17.8575 24.2602 17.806 24.3891 17.806C24.5266 17.806 24.6297 17.8575 24.707 17.9606C24.7844 18.0638 24.8273 18.2185 24.8273 18.4247V22.6099H24.8359ZM29.1414 23.0997C29.0641 23.177 28.9523 23.22 28.8063 23.22H26.443C26.2367 23.22 26.0906 23.1685 26.0047 23.0653C25.9188 22.9622 25.8672 22.7903 25.8672 22.5583V18.5536C25.8672 18.3989 25.8844 18.27 25.9273 18.1755C25.9703 18.081 26.0305 18.0036 26.1164 17.9606C26.2023 17.9177 26.3141 17.8919 26.443 17.8919H28.7289C28.875 17.8919 28.9867 17.9263 29.0641 18.0036C29.1414 18.081 29.1758 18.1841 29.1758 18.3044C29.1758 18.4333 29.1414 18.5278 29.0641 18.6052C28.9867 18.6825 28.8836 18.7169 28.7289 18.7169H26.8039V20.0231H28.6602C28.8062 20.0231 28.9094 20.0575 28.9781 20.1349C29.0469 20.2122 29.0812 20.3067 29.0812 20.427C29.0812 20.5474 29.0469 20.6505 28.9781 20.7192C28.9094 20.7966 28.7977 20.831 28.6516 20.831H26.7953V22.3435H28.7891C28.9352 22.3435 29.0469 22.3864 29.1242 22.4638C29.2016 22.5411 29.2359 22.6442 29.2359 22.7817C29.2531 22.9192 29.2102 23.0224 29.1414 23.0997Z" fill="white"/>
</svg>
