<svg width="106" height="96" viewBox="0 0 106 96" fill="none" xmlns="http://www.w3.org/2000/svg">
<path fill-rule="evenodd" clip-rule="evenodd" d="M24.2794 0.0716913C24.7626 0.0361345 25.167 0.424089 25.167 0.907867V21.5068C25.167 21.9771 24.785 22.3585 24.3139 22.3585H1.26659C0.746128 22.3585 0.346072 21.8964 0.441008 21.3854C2.58651 9.83892 12.3181 0.951798 24.2794 0.0716913Z" fill="#AB63FA"/>
<path fill-rule="evenodd" clip-rule="evenodd" d="M0.424653 25.6105C0.1934 25.6105 0.00390031 25.7945 0.00147373 26.0255C0.000492058 26.1188 0 26.2122 0 26.3059C0 40.7721 11.7459 52.4992 26.2353 52.4992C26.8052 52.4992 27.3708 52.4811 27.9315 52.4453C28.1538 52.4311 28.3248 52.246 28.3248 52.0237V47.7565C28.3248 47.505 28.1075 47.3084 27.856 47.3276C27.3211 47.3681 26.7807 47.3887 26.2353 47.3887C14.5729 47.3887 5.11871 37.9496 5.11871 26.3059C5.11871 26.2205 5.11922 26.1354 5.12023 26.0504C5.12311 25.8098 4.93036 25.6105 4.68938 25.6105H0.424653ZM28.7104 5.3665C28.4925 5.3411 28.3248 5.15812 28.3248 4.93905V0.655327C28.3248 0.406935 28.5383 0.211056 28.7859 0.234911C41.7073 1.47954 51.8882 12.0823 52.4463 25.1722C52.4566 25.4116 52.2635 25.6105 52.0236 25.6105H47.7535C47.5234 25.6105 47.3351 25.4269 47.3231 25.1974C46.7887 14.8943 38.8453 6.54784 28.7104 5.3665Z" fill="#AB63FA"/>
<path d="M16.026 68.1089L20.1499 54.4467H24.3239L17.988 72.6129H14.0765L7.76556 54.4467H11.927L16.026 68.1089ZM30.0349 72.6129H26.2859V54.4467H30.0349V72.6129ZM37.4956 69.606H46.6682V72.6129H32.8092V70.4171L41.8071 57.4786H32.8218V54.4467H46.4683V56.5927L37.4956 69.606ZM62.8143 54.4467V66.412C62.8143 68.3999 62.1894 69.9721 60.9398 71.1281C59.6983 72.2844 57.9989 72.8625 55.8409 72.8625C53.7164 72.8625 52.0294 72.301 50.7798 71.1781C49.5299 70.0551 48.8927 68.5122 48.8677 66.5491V54.4467H52.6167V66.4369C52.6167 67.6263 52.9 68.4956 53.4667 69.0445C54.0414 69.5852 54.8329 69.8556 55.8409 69.8556C57.9487 69.8556 59.0194 68.7492 59.0527 66.5367V54.4467H62.8143ZM75.886 68.8699H69.3125L68.0629 72.6129H64.0765L70.8496 54.4467H74.3237L81.1346 72.6129H77.1482L75.886 68.8699ZM70.3247 65.8381H74.8738L72.5868 59.0381L70.3247 65.8381ZM86.5832 69.606H94.5437V72.6129H82.8342V54.4467H86.5832V69.606ZM96.6558 70.8413C96.6558 70.2672 96.8473 69.8015 97.2306 69.4438C97.6222 69.0862 98.1095 68.9074 98.6926 68.9074C99.2842 68.9074 99.7716 69.0862 100.155 69.4438C100.546 69.8015 100.742 70.2672 100.742 70.8413C100.742 71.4068 100.55 71.8685 100.167 72.2262C99.784 72.5754 99.2926 72.7503 98.6926 72.7503C98.1012 72.7503 97.6138 72.5754 97.2306 72.2262C96.8473 71.8685 96.6558 71.4068 96.6558 70.8413Z" fill="#636EFA"/>
<path d="M52.1801 53.0226H47.1815L37.4506 37.0855V53.0226H32.4518V28.8009H37.4506L47.1981 44.7713V28.8009H52.1801V53.0226ZM61.8611 53.0226H56.8623V28.8009H61.8611V53.0226ZM85.5552 44.9542C85.3662 47.5606 84.3999 49.6122 82.6559 51.1096C80.923 52.6068 78.6347 53.3552 75.7908 53.3552C72.6806 53.3552 70.2313 52.3129 68.4427 50.2278C66.6655 48.1317 65.7767 45.2593 65.7767 41.6104V40.1299C65.7767 37.801 66.1877 35.7491 67.0099 33.9747C67.8319 32.2003 69.0036 30.8415 70.5256 29.8988C72.0584 28.9451 73.8359 28.4681 75.8576 28.4681C78.6569 28.4681 80.9119 29.2168 82.6226 30.714C84.3331 32.2113 85.3219 34.3128 85.5885 37.0191H80.5896C80.4674 35.4552 80.0287 34.3239 79.2735 33.6253C78.5291 32.9155 77.3904 32.5606 75.8576 32.5606C74.1912 32.5606 72.9416 33.1596 72.1086 34.3573C71.2866 35.544 70.8643 37.3906 70.8421 39.8969V41.7269C70.8421 44.3443 71.2365 46.2574 72.0252 47.4662C72.825 48.6751 74.0803 49.2796 75.7908 49.2796C77.335 49.2796 78.4848 48.9302 79.24 48.2315C80.0065 47.5218 80.4452 46.4292 80.5564 44.9542H85.5552ZM103.434 42.5254H93.8364V49.0134H105.1V53.0226H88.8376V28.8009H105.067V32.8433H93.8364V38.6161H103.434V42.5254Z" fill="#636EFA"/>
<path d="M24.293 89.8945C24.293 90.8789 24.0723 91.6621 23.6309 92.2441C23.1934 92.8262 22.5898 93.1172 21.8203 93.1172C21.0781 93.1172 20.5 92.8496 20.0859 92.3145L20.0156 93H18.7266V84H20.1504V87.2695C20.5605 86.7852 21.1133 86.543 21.8086 86.543C22.582 86.543 23.1895 86.8301 23.6309 87.4043C24.0723 87.9785 24.293 88.7812 24.293 89.8125V89.8945ZM22.8691 89.7715C22.8691 89.084 22.748 88.5684 22.5059 88.2246C22.2637 87.8809 21.9121 87.709 21.4512 87.709C20.834 87.709 20.4004 87.9785 20.1504 88.5176V91.1309C20.4043 91.6816 20.8418 91.957 21.4629 91.957C21.9082 91.957 22.252 91.791 22.4941 91.459C22.7363 91.127 22.8613 90.625 22.8691 89.9531V89.7715ZM27.6387 90.9609L28.9277 86.6602H30.4453L27.9258 93.9609C27.5391 95.0273 26.8828 95.5605 25.957 95.5605C25.75 95.5605 25.5215 95.5254 25.2715 95.4551V94.3535L25.541 94.3711C25.9004 94.3711 26.1699 94.3047 26.3496 94.1719C26.5332 94.043 26.6777 93.8242 26.7832 93.5156L26.9883 92.9707L24.7617 86.6602H26.2969L27.6387 90.9609ZM39.1699 91.0137H35.8652L35.1738 93H33.6328L36.8555 84.4688H38.1855L41.4141 93H39.8672L39.1699 91.0137ZM36.2812 89.8184H38.7539L37.5176 86.2793L36.2812 89.8184ZM43.7637 93H42.3398V84H43.7637V93ZM49.1074 93C49.0449 92.8789 48.9902 92.6816 48.9434 92.4082C48.4902 92.8809 47.9355 93.1172 47.2793 93.1172C46.6426 93.1172 46.123 92.9355 45.7207 92.5723C45.3184 92.209 45.1172 91.7598 45.1172 91.2246C45.1172 90.5488 45.3672 90.0312 45.8672 89.6719C46.3711 89.3086 47.0898 89.127 48.0234 89.127H48.8965V88.7109C48.8965 88.3828 48.8047 88.1211 48.6211 87.9258C48.4375 87.7266 48.1582 87.627 47.7832 87.627C47.459 87.627 47.1934 87.709 46.9863 87.873C46.7793 88.0332 46.6758 88.2383 46.6758 88.4883H45.252C45.252 88.1406 45.3672 87.8164 45.5977 87.5156C45.8281 87.2109 46.1406 86.9727 46.5352 86.8008C46.9336 86.6289 47.377 86.543 47.8652 86.543C48.6074 86.543 49.1992 86.7305 49.6406 87.1055C50.082 87.4766 50.3086 88 50.3203 88.6758V91.5352C50.3203 92.1055 50.4004 92.5605 50.5605 92.9004V93H49.1074ZM47.543 91.9746C47.8242 91.9746 48.0879 91.9062 48.334 91.7695C48.584 91.6328 48.7715 91.4492 48.8965 91.2188V90.0234H48.1289C47.6016 90.0234 47.2051 90.1152 46.9395 90.2988C46.6738 90.4824 46.541 90.7422 46.541 91.0781C46.541 91.3516 46.6309 91.5703 46.8105 91.7344C46.9941 91.8945 47.2383 91.9746 47.543 91.9746ZM53.1504 86.6602L53.1914 87.3223C53.6367 86.8027 54.2461 86.543 55.0195 86.543C55.8672 86.543 56.4473 86.8672 56.7598 87.5156C57.2207 86.8672 57.8691 86.543 58.7051 86.543C59.4043 86.543 59.9238 86.7363 60.2637 87.123C60.6074 87.5098 60.7832 88.0801 60.791 88.834V93H59.3672V88.875C59.3672 88.4727 59.2793 88.1777 59.1035 87.9902C58.9277 87.8027 58.6367 87.709 58.2305 87.709C57.9062 87.709 57.6406 87.7969 57.4336 87.9727C57.2305 88.1445 57.0879 88.3711 57.0059 88.6523L57.0117 93H55.5879V88.8281C55.5684 88.082 55.1875 87.709 54.4453 87.709C53.875 87.709 53.4707 87.9414 53.2324 88.4062V93H51.8086V86.6602H53.1504ZM65.0449 93.1172C64.1426 93.1172 63.4102 92.834 62.8477 92.2676C62.2891 91.6973 62.0098 90.9395 62.0098 89.9941V89.8184C62.0098 89.1855 62.1309 88.6211 62.373 88.125C62.6191 87.625 62.9629 87.2363 63.4043 86.959C63.8457 86.6816 64.3379 86.543 64.8809 86.543C65.7441 86.543 66.4102 86.8184 66.8789 87.3691C67.3516 87.9199 67.5879 88.6992 67.5879 89.707V90.2812H63.4453C63.4883 90.8047 63.6621 91.2188 63.9668 91.5234C64.2754 91.8281 64.6621 91.9805 65.127 91.9805C65.7793 91.9805 66.3105 91.7168 66.7207 91.1895L67.4883 91.9219C67.2344 92.3008 66.8945 92.5957 66.4688 92.8066C66.0469 93.0137 65.5723 93.1172 65.0449 93.1172ZM64.875 87.6855C64.4844 87.6855 64.168 87.8223 63.9258 88.0957C63.6875 88.3691 63.5352 88.75 63.4688 89.2383H66.1816V89.1328C66.1504 88.6562 66.0234 88.2969 65.8008 88.0547C65.5781 87.8086 65.2695 87.6855 64.875 87.6855ZM70.1016 87.3516C70.5664 86.8125 71.1543 86.543 71.8652 86.543C73.2168 86.543 73.9023 87.3145 73.9219 88.8574V93H72.498V88.9102C72.498 88.4727 72.4023 88.1641 72.2109 87.9844C72.0234 87.8008 71.7461 87.709 71.3789 87.709C70.8086 87.709 70.3828 87.9629 70.1016 88.4707V93H68.6777V84H70.1016V87.3516ZM79.1543 93C79.0918 92.8789 79.0371 92.6816 78.9902 92.4082C78.5371 92.8809 77.9824 93.1172 77.3262 93.1172C76.6895 93.1172 76.1699 92.9355 75.7676 92.5723C75.3652 92.209 75.1641 91.7598 75.1641 91.2246C75.1641 90.5488 75.4141 90.0312 75.9141 89.6719C76.418 89.3086 77.1367 89.127 78.0703 89.127H78.9434V88.7109C78.9434 88.3828 78.8516 88.1211 78.668 87.9258C78.4844 87.7266 78.2051 87.627 77.8301 87.627C77.5059 87.627 77.2402 87.709 77.0332 87.873C76.8262 88.0332 76.7227 88.2383 76.7227 88.4883H75.2988C75.2988 88.1406 75.4141 87.8164 75.6445 87.5156C75.875 87.2109 76.1875 86.9727 76.582 86.8008C76.9805 86.6289 77.4238 86.543 77.9121 86.543C78.6543 86.543 79.2461 86.7305 79.6875 87.1055C80.1289 87.4766 80.3555 88 80.3672 88.6758V91.5352C80.3672 92.1055 80.4473 92.5605 80.6074 92.9004V93H79.1543ZM77.5898 91.9746C77.8711 91.9746 78.1348 91.9062 78.3809 91.7695C78.6309 91.6328 78.8184 91.4492 78.9434 91.2188V90.0234H78.1758C77.6484 90.0234 77.252 90.1152 76.9863 90.2988C76.7207 90.4824 76.5879 90.7422 76.5879 91.0781C76.5879 91.3516 76.6777 91.5703 76.8574 91.7344C77.041 91.8945 77.2852 91.9746 77.5898 91.9746ZM83.1797 86.6602L83.2207 87.3926C83.6895 86.8262 84.3047 86.543 85.0664 86.543C86.3867 86.543 87.0586 87.2988 87.082 88.8105V93H85.6582V88.8926C85.6582 88.4902 85.5703 88.1934 85.3945 88.002C85.2227 87.8066 84.9395 87.709 84.5449 87.709C83.9707 87.709 83.543 87.9688 83.2617 88.4883V93H81.8379V86.6602H83.1797Z" fill="#636363"/>
</svg>
