<svg width="197" height="180" viewBox="0 0 197 180" fill="none" xmlns="http://www.w3.org/2000/svg">
<path fill-rule="evenodd" clip-rule="evenodd" d="M45.1229 0.133236C46.0211 0.0671535 46.7726 0.788163 46.7726 1.68726V39.9701C46.7726 40.8443 46.0627 41.5531 45.1871 41.5531H2.35391C1.38664 41.5531 0.643142 40.6943 0.819578 39.7445C4.80697 18.2855 22.893 1.76891 45.1229 0.133236Z" fill="#AB63FA"/>
<path fill-rule="evenodd" clip-rule="evenodd" d="M0.789213 47.5968C0.359432 47.5968 0.00724869 47.9388 0.00273891 48.3681C0.000914484 48.5415 0 48.7152 0 48.8893C0 75.7745 21.8297 97.5693 48.7581 97.5693C49.8172 97.5693 50.8684 97.5357 51.9105 97.4692C52.3235 97.4427 52.6414 97.0988 52.6414 96.6856V88.7549C52.6414 88.2876 52.2375 87.9223 51.7702 87.9579C50.7761 88.0331 49.7716 88.0715 48.7581 88.0715C27.0837 88.0715 9.51308 70.529 9.51308 48.8893C9.51308 48.7306 9.51403 48.5723 9.51589 48.4144C9.52124 47.9672 9.16304 47.5968 8.71517 47.5968H0.789213ZM53.3581 9.9736C52.953 9.92638 52.6414 9.58632 52.6414 9.17918V1.21792C52.6414 0.756288 53.0382 0.39225 53.4984 0.436583C77.5126 2.74972 96.4337 22.4548 97.471 46.7824C97.49 47.2272 97.1313 47.5968 96.6854 47.5968H88.7495C88.3218 47.5968 87.9718 47.2557 87.9496 46.8291C86.9563 27.681 72.1936 12.1691 53.3581 9.9736Z" fill="#AB63FA"/>
<path d="M29.7841 126.58L37.4485 101.189H45.2058L33.4305 134.95H26.161L14.4322 101.189H22.1662L29.7841 126.58ZM55.8196 134.95H48.852V101.189H55.8196V134.95ZM69.6853 129.362H86.7323V134.95H60.9757V130.87L77.6981 106.823H60.9991V101.189H86.3609V105.177L69.6853 129.362ZM116.74 101.189V123.426C116.74 127.121 115.578 130.042 113.256 132.191C110.949 134.34 107.79 135.414 103.78 135.414C99.8314 135.414 96.6961 134.371 94.3737 132.284C92.0509 130.197 90.8665 127.329 90.8202 123.681V101.189H97.7877V123.472C97.7877 125.683 98.3141 127.298 99.3673 128.319C100.436 129.323 101.906 129.826 103.78 129.826C107.697 129.826 109.687 127.77 109.749 123.658V101.189H116.74ZM141.033 127.994H128.817L126.494 134.95H119.086L131.673 101.189H138.13L150.788 134.95H143.379L141.033 127.994ZM130.698 122.359H139.152L134.902 109.722L130.698 122.359ZM160.914 129.362H175.709V134.95H153.947V101.189H160.914V129.362ZM179.634 131.658C179.634 130.591 179.99 129.725 180.702 129.061C181.43 128.396 182.336 128.064 183.419 128.064C184.519 128.064 185.425 128.396 186.137 129.061C186.865 129.725 187.228 130.591 187.228 131.658C187.228 132.709 186.872 133.567 186.16 134.232C185.448 134.881 184.534 135.206 183.419 135.206C182.32 135.206 181.414 134.881 180.702 134.232C179.99 133.567 179.634 132.709 179.634 131.658Z" fill="#636EFA"/>
<path d="M96.9763 98.5421H87.6864L69.6016 68.923V98.5421H60.3113V53.5263H69.6016L87.7173 83.207V53.5263H96.9763V98.5421ZM114.968 98.5421H105.678V53.5263H114.968V98.5421ZM159.004 83.5469C158.652 88.3908 156.856 92.2038 153.615 94.9867C150.395 97.7692 146.142 99.1602 140.857 99.1602C135.076 99.1602 130.524 97.223 127.2 93.3479C123.897 89.4522 122.245 84.114 122.245 77.3326V74.581C122.245 70.2527 123.009 66.4394 124.537 63.1416C126.065 59.8439 128.243 57.3187 131.071 55.5667C133.92 53.7942 137.223 52.9077 140.981 52.9077C146.183 52.9077 150.374 54.2991 153.553 57.0816C156.732 59.8645 158.57 63.7701 159.065 68.7996H149.775C149.548 65.8932 148.733 63.7907 147.329 62.4922C145.946 61.1732 143.829 60.5135 140.981 60.5135C137.884 60.5135 135.561 61.6267 134.013 63.8528C132.485 66.0583 131.701 69.4901 131.659 74.148V77.5491C131.659 82.4135 132.392 85.9689 133.858 88.2155C135.345 90.4622 137.678 91.5857 140.857 91.5857C143.726 91.5857 145.863 90.9363 147.267 89.6378C148.691 88.3188 149.507 86.2883 149.713 83.5469H159.004ZM192.231 79.0331H174.394V91.091H195.328V98.5421H165.104V53.5263H195.266V61.0391H174.394V71.7677H192.231V79.0331Z" fill="#636EFA"/>
<path d="M35.5859 167.789C35.5859 169.758 35.1445 171.324 34.2617 172.488C33.3867 173.652 32.1797 174.234 30.6406 174.234C29.1562 174.234 28 173.699 27.1719 172.629L27.0312 174H24.4531V156H27.3008V162.539C28.1211 161.57 29.2266 161.086 30.6172 161.086C32.1641 161.086 33.3789 161.66 34.2617 162.809C35.1445 163.957 35.5859 165.562 35.5859 167.625V167.789ZM32.7383 167.543C32.7383 166.168 32.4961 165.137 32.0117 164.449C31.5273 163.762 30.8242 163.418 29.9023 163.418C28.668 163.418 27.8008 163.957 27.3008 165.035V170.262C27.8086 171.363 28.6836 171.914 29.9258 171.914C30.8164 171.914 31.5039 171.582 31.9883 170.918C32.4727 170.254 32.7227 169.25 32.7383 167.906V167.543ZM42.2773 169.922L44.8555 161.32H47.8906L42.8516 175.922C42.0781 178.055 40.7656 179.121 38.9141 179.121C38.5 179.121 38.043 179.051 37.543 178.91V176.707L38.082 176.742C38.8008 176.742 39.3398 176.609 39.6992 176.344C40.0664 176.086 40.3555 175.648 40.5664 175.031L40.9766 173.941L36.5234 161.32H39.5938L42.2773 169.922ZM65.3398 170.027H58.7305L57.3477 174H54.2656L60.7109 156.938H63.3711L69.8281 174H66.7344L65.3398 170.027ZM59.5625 167.637H64.5078L62.0352 160.559L59.5625 167.637ZM74.5273 174H71.6797V156H74.5273V174ZM85.2148 174C85.0898 173.758 84.9805 173.363 84.8867 172.816C83.9805 173.762 82.8711 174.234 81.5586 174.234C80.2852 174.234 79.2461 173.871 78.4414 173.145C77.6367 172.418 77.2344 171.52 77.2344 170.449C77.2344 169.098 77.7344 168.062 78.7344 167.344C79.7422 166.617 81.1797 166.254 83.0469 166.254H84.793V165.422C84.793 164.766 84.6094 164.242 84.2422 163.852C83.875 163.453 83.3164 163.254 82.5664 163.254C81.918 163.254 81.3867 163.418 80.9727 163.746C80.5586 164.066 80.3516 164.477 80.3516 164.977H77.5039C77.5039 164.281 77.7344 163.633 78.1953 163.031C78.6562 162.422 79.2812 161.945 80.0703 161.602C80.8672 161.258 81.7539 161.086 82.7305 161.086C84.2148 161.086 85.3984 161.461 86.2812 162.211C87.1641 162.953 87.6172 164 87.6406 165.352V171.07C87.6406 172.211 87.8008 173.121 88.1211 173.801V174H85.2148ZM82.0859 171.949C82.6484 171.949 83.1758 171.812 83.668 171.539C84.168 171.266 84.543 170.898 84.793 170.438V168.047H83.2578C82.2031 168.047 81.4102 168.23 80.8789 168.598C80.3477 168.965 80.082 169.484 80.082 170.156C80.082 170.703 80.2617 171.141 80.6211 171.469C80.9883 171.789 81.4766 171.949 82.0859 171.949ZM93.3008 161.32L93.3828 162.645C94.2734 161.605 95.4922 161.086 97.0391 161.086C98.7344 161.086 99.8945 161.734 100.52 163.031C101.441 161.734 102.738 161.086 104.41 161.086C105.809 161.086 106.848 161.473 107.527 162.246C108.215 163.02 108.566 164.16 108.582 165.668V174H105.734V165.75C105.734 164.945 105.559 164.355 105.207 163.98C104.855 163.605 104.273 163.418 103.461 163.418C102.812 163.418 102.281 163.594 101.867 163.945C101.461 164.289 101.176 164.742 101.012 165.305L101.023 174H98.1758V165.656C98.1367 164.164 97.375 163.418 95.8906 163.418C94.75 163.418 93.9414 163.883 93.4648 164.812V174H90.6172V161.32H93.3008ZM117.09 174.234C115.285 174.234 113.82 173.668 112.695 172.535C111.578 171.395 111.02 169.879 111.02 167.988V167.637C111.02 166.371 111.262 165.242 111.746 164.25C112.238 163.25 112.926 162.473 113.809 161.918C114.691 161.363 115.676 161.086 116.762 161.086C118.488 161.086 119.82 161.637 120.758 162.738C121.703 163.84 122.176 165.398 122.176 167.414V168.562H113.891C113.977 169.609 114.324 170.438 114.934 171.047C115.551 171.656 116.324 171.961 117.254 171.961C118.559 171.961 119.621 171.434 120.441 170.379L121.977 171.844C121.469 172.602 120.789 173.191 119.938 173.613C119.094 174.027 118.145 174.234 117.09 174.234ZM116.75 163.371C115.969 163.371 115.336 163.645 114.852 164.191C114.375 164.738 114.07 165.5 113.938 166.477H119.363V166.266C119.301 165.312 119.047 164.594 118.602 164.109C118.156 163.617 117.539 163.371 116.75 163.371ZM127.203 162.703C128.133 161.625 129.309 161.086 130.73 161.086C133.434 161.086 134.805 162.629 134.844 165.715V174H131.996V165.82C131.996 164.945 131.805 164.328 131.422 163.969C131.047 163.602 130.492 163.418 129.758 163.418C128.617 163.418 127.766 163.926 127.203 164.941V174H124.355V156H127.203V162.703ZM145.309 174C145.184 173.758 145.074 173.363 144.98 172.816C144.074 173.762 142.965 174.234 141.652 174.234C140.379 174.234 139.34 173.871 138.535 173.145C137.73 172.418 137.328 171.52 137.328 170.449C137.328 169.098 137.828 168.062 138.828 167.344C139.836 166.617 141.273 166.254 143.141 166.254H144.887V165.422C144.887 164.766 144.703 164.242 144.336 163.852C143.969 163.453 143.41 163.254 142.66 163.254C142.012 163.254 141.48 163.418 141.066 163.746C140.652 164.066 140.445 164.477 140.445 164.977H137.598C137.598 164.281 137.828 163.633 138.289 163.031C138.75 162.422 139.375 161.945 140.164 161.602C140.961 161.258 141.848 161.086 142.824 161.086C144.309 161.086 145.492 161.461 146.375 162.211C147.258 162.953 147.711 164 147.734 165.352V171.07C147.734 172.211 147.895 173.121 148.215 173.801V174H145.309ZM142.18 171.949C142.742 171.949 143.27 171.812 143.762 171.539C144.262 171.266 144.637 170.898 144.887 170.438V168.047H143.352C142.297 168.047 141.504 168.23 140.973 168.598C140.441 168.965 140.176 169.484 140.176 170.156C140.176 170.703 140.355 171.141 140.715 171.469C141.082 171.789 141.57 171.949 142.18 171.949ZM153.359 161.32L153.441 162.785C154.379 161.652 155.609 161.086 157.133 161.086C159.773 161.086 161.117 162.598 161.164 165.621V174H158.316V165.785C158.316 164.98 158.141 164.387 157.789 164.004C157.445 163.613 156.879 163.418 156.09 163.418C154.941 163.418 154.086 163.938 153.523 164.977V174H150.676V161.32H153.359Z" fill="#636363"/>
</svg>
