<svg width="163" height="148" viewBox="0 0 163 148" fill="none" xmlns="http://www.w3.org/2000/svg">
<path fill-rule="evenodd" clip-rule="evenodd" d="M37.3352 0.110232C38.0784 0.0555546 38.7002 0.652126 38.7002 1.39605V33.0717C38.7002 33.795 38.1128 34.3815 37.3883 34.3815H1.94765C1.14732 34.3815 0.532138 33.6709 0.678123 32.8851C3.97734 15.1297 18.9419 1.4636 37.3352 0.110232Z" fill="#AB63FA"/>
<path fill-rule="evenodd" clip-rule="evenodd" d="M0.653004 39.3822C0.297398 39.3822 0.00599765 39.6651 0.00226621 40.0203C0.000756655 40.1638 0 40.3075 0 40.4516C0 62.6967 18.0621 80.7299 40.343 80.7299C41.2193 80.7299 42.0891 80.7021 42.9513 80.6471C43.2931 80.6252 43.5561 80.3406 43.5561 79.9988V73.4368C43.5561 73.0501 43.2219 72.7479 42.8352 72.7774C42.0127 72.8396 41.1816 72.8713 40.343 72.8713C22.4093 72.8713 7.87123 58.3565 7.87123 40.4516C7.87123 40.3203 7.87201 40.1893 7.87356 40.0587C7.87798 39.6886 7.5816 39.3822 7.21103 39.3822H0.653004ZM44.1491 8.25228C43.8139 8.21321 43.5561 7.93184 43.5561 7.59497V1.00773C43.5561 0.625772 43.8844 0.324563 44.2652 0.361244C64.1348 2.27516 79.7903 18.5794 80.6486 38.7083C80.6643 39.0763 80.3675 39.3822 79.9986 39.3822H73.4323C73.0784 39.3822 72.7888 39.0999 72.7705 38.7469C71.9486 22.9036 59.7338 10.0689 44.1491 8.25228Z" fill="#AB63FA"/>
<path d="M24.6437 104.733L30.9853 83.7247H37.4037L27.6607 111.66H21.6459L11.9414 83.7247H18.3406L24.6437 104.733ZM46.1857 111.66H40.4207V83.7247H46.1857V111.66ZM57.6584 107.036H71.7633V111.66H50.4519V108.283L64.2882 88.3869H50.4713V83.7247H71.456V87.0247L57.6584 107.036ZM96.5918 83.7247V102.124C96.5918 105.181 95.6308 107.599 93.7092 109.376C91.8001 111.154 89.1869 112.043 85.8685 112.043C82.6016 112.043 80.0074 111.18 78.0858 109.453C76.164 107.726 75.184 105.354 75.1456 102.335V83.7247H80.9106V102.162C80.9106 103.991 81.3462 105.328 82.2176 106.172C83.1015 107.004 84.3185 107.419 85.8685 107.419C89.1098 107.419 90.7562 105.718 90.8074 102.316V83.7247H96.5918ZM116.693 105.904H106.584L104.663 111.66H98.5327L108.948 83.7247H114.29L124.764 111.66H118.633L116.693 105.904ZM108.141 101.242H115.136L111.619 90.7851L108.141 101.242ZM133.142 107.036H145.383V111.66H127.377V83.7247H133.142V107.036ZM148.631 108.935C148.631 108.052 148.926 107.336 149.515 106.786C150.117 106.236 150.866 105.961 151.763 105.961C152.673 105.961 153.422 106.236 154.012 106.786C154.614 107.336 154.915 108.052 154.915 108.935C154.915 109.805 154.62 110.515 154.031 111.065C153.441 111.602 152.686 111.871 151.763 111.871C150.854 111.871 150.104 111.602 149.515 111.065C148.926 110.515 148.631 109.805 148.631 108.935Z" fill="#636EFA"/>
<path d="M80.2393 81.5348H72.5527L57.5892 57.0277V81.5348H49.9023V44.2882H57.5892L72.5783 68.8464V44.2882H80.2393V81.5348ZM95.1261 81.5348H87.4392V44.2882H95.1261V81.5348ZM131.561 69.1277C131.271 73.1356 129.785 76.2905 127.103 78.593C124.438 80.8953 120.919 82.0463 116.546 82.0463C111.764 82.0463 107.997 80.4434 105.247 77.2371C102.514 74.0138 101.147 69.5969 101.147 63.9858V61.7091C101.147 58.1279 101.779 54.9727 103.044 52.2441C104.308 49.5155 106.109 47.4261 108.45 45.9765C110.807 44.5099 113.54 43.7764 116.649 43.7764C120.954 43.7764 124.421 44.9277 127.052 47.23C129.682 49.5325 131.203 52.7641 131.612 56.9255H123.926C123.738 54.5208 123.063 52.7811 121.902 51.7068C120.757 50.6154 119.006 50.0695 116.649 50.0695C114.087 50.0695 112.165 50.9906 110.884 52.8325C109.62 54.6573 108.971 57.4969 108.936 61.3509V64.165C108.936 68.1899 109.543 71.1316 110.756 72.9905C111.986 74.8494 113.916 75.779 116.546 75.779C118.921 75.779 120.689 75.2417 121.85 74.1673C123.029 73.076 123.704 71.3959 123.874 69.1277H131.561ZM159.054 65.3929H144.296V75.3697H161.616V81.5348H136.609V44.2882H161.565V50.5044H144.296V59.3813H159.054V65.3929Z" fill="#636EFA"/>
<path d="M37.4395 138.436C37.4395 139.913 37.1084 141.087 36.4463 141.961C35.79 142.834 34.8848 143.27 33.7305 143.27C32.6172 143.27 31.75 142.869 31.1289 142.066L31.0234 143.094H29.0898V129.594H31.2256V134.499C31.8408 133.772 32.6699 133.409 33.7129 133.409C34.873 133.409 35.7842 133.839 36.4463 134.701C37.1084 135.562 37.4395 136.766 37.4395 138.313V138.436ZM35.3037 138.252C35.3037 137.22 35.1221 136.447 34.7588 135.931C34.3955 135.416 33.8682 135.158 33.1768 135.158C32.251 135.158 31.6006 135.562 31.2256 136.371V140.291C31.6064 141.117 32.2627 141.53 33.1943 141.53C33.8623 141.53 34.3779 141.281 34.7412 140.783C35.1045 140.285 35.292 139.532 35.3037 138.524V138.252ZM42.458 140.036L44.3916 133.585H46.668L42.8887 144.536C42.3086 146.135 41.3242 146.935 39.9355 146.935C39.625 146.935 39.2822 146.882 38.9072 146.777V145.125L39.3115 145.151C39.8506 145.151 40.2549 145.051 40.5244 144.852C40.7998 144.659 41.0166 144.331 41.1748 143.868L41.4824 143.05L38.1426 133.585H40.4453L42.458 140.036ZM59.7549 140.115H54.7979L53.7607 143.094H51.4492L56.2832 130.297H58.2783L63.1211 143.094H60.8008L59.7549 140.115ZM55.4219 138.322H59.1309L57.2764 133.013L55.4219 138.322ZM66.6455 143.094H64.5098V129.594H66.6455V143.094ZM74.6611 143.094C74.5674 142.913 74.4854 142.617 74.415 142.207C73.7354 142.916 72.9033 143.27 71.9189 143.27C70.9639 143.27 70.1846 142.998 69.5811 142.453C68.9775 141.908 68.6758 141.234 68.6758 140.431C68.6758 139.418 69.0508 138.641 69.8008 138.102C70.5566 137.557 71.6348 137.285 73.0352 137.285H74.3447V136.661C74.3447 136.169 74.207 135.776 73.9316 135.483C73.6562 135.184 73.2373 135.035 72.6748 135.035C72.1885 135.035 71.79 135.158 71.4795 135.404C71.1689 135.644 71.0137 135.952 71.0137 136.327H68.8779C68.8779 135.805 69.0508 135.319 69.3965 134.868C69.7422 134.411 70.2109 134.053 70.8027 133.796C71.4004 133.538 72.0654 133.409 72.7979 133.409C73.9111 133.409 74.7988 133.69 75.4609 134.253C76.123 134.809 76.4629 135.594 76.4805 136.608V140.897C76.4805 141.753 76.6006 142.435 76.8408 142.945V143.094H74.6611ZM72.3145 141.556C72.7363 141.556 73.1318 141.454 73.501 141.249C73.876 141.044 74.1572 140.768 74.3447 140.422V138.629H73.1934C72.4023 138.629 71.8076 138.767 71.4092 139.043C71.0107 139.318 70.8115 139.708 70.8115 140.212C70.8115 140.622 70.9463 140.95 71.2158 141.196C71.4912 141.436 71.8574 141.556 72.3145 141.556ZM80.7256 133.585L80.7871 134.578C81.4551 133.798 82.3691 133.409 83.5293 133.409C84.8008 133.409 85.6709 133.895 86.1396 134.868C86.8311 133.895 87.8037 133.409 89.0576 133.409C90.1064 133.409 90.8857 133.699 91.3955 134.279C91.9111 134.859 92.1748 135.714 92.1865 136.845V143.094H90.0508V136.907C90.0508 136.303 89.9189 135.861 89.6553 135.58C89.3916 135.298 88.9551 135.158 88.3457 135.158C87.8594 135.158 87.4609 135.29 87.1504 135.553C86.8457 135.811 86.6318 136.151 86.5088 136.573L86.5176 143.094H84.3818V136.837C84.3525 135.717 83.7812 135.158 82.668 135.158C81.8125 135.158 81.2061 135.506 80.8486 136.204V143.094H78.7129V133.585H80.7256ZM98.5674 143.27C97.2139 143.27 96.1152 142.845 95.2715 141.996C94.4336 141.14 94.0146 140.004 94.0146 138.586V138.322C94.0146 137.373 94.1963 136.526 94.5596 135.782C94.9287 135.032 95.4443 134.449 96.1064 134.033C96.7686 133.617 97.5068 133.409 98.3213 133.409C99.6162 133.409 100.615 133.822 101.318 134.648C102.027 135.474 102.382 136.643 102.382 138.155V139.016H96.168C96.2324 139.801 96.4932 140.422 96.9502 140.879C97.4131 141.337 97.9932 141.565 98.6904 141.565C99.6689 141.565 100.466 141.17 101.081 140.379L102.232 141.477C101.852 142.046 101.342 142.488 100.703 142.804C100.07 143.115 99.3584 143.27 98.5674 143.27ZM98.3125 135.123C97.7266 135.123 97.252 135.328 96.8887 135.738C96.5312 136.148 96.3027 136.719 96.2031 137.452H100.272V137.294C100.226 136.579 100.035 136.04 99.7012 135.676C99.3672 135.307 98.9043 135.123 98.3125 135.123ZM106.152 134.622C106.85 133.813 107.731 133.409 108.798 133.409C110.825 133.409 111.854 134.566 111.883 136.88V143.094H109.747V136.96C109.747 136.303 109.604 135.84 109.316 135.571C109.035 135.296 108.619 135.158 108.068 135.158C107.213 135.158 106.574 135.539 106.152 136.3V143.094H104.017V129.594H106.152V134.622ZM119.731 143.094C119.638 142.913 119.556 142.617 119.485 142.207C118.806 142.916 117.974 143.27 116.989 143.27C116.034 143.27 115.255 142.998 114.651 142.453C114.048 141.908 113.746 141.234 113.746 140.431C113.746 139.418 114.121 138.641 114.871 138.102C115.627 137.557 116.705 137.285 118.105 137.285H119.415V136.661C119.415 136.169 119.277 135.776 119.002 135.483C118.727 135.184 118.308 135.035 117.745 135.035C117.259 135.035 116.86 135.158 116.55 135.404C116.239 135.644 116.084 135.952 116.084 136.327H113.948C113.948 135.805 114.121 135.319 114.467 134.868C114.812 134.411 115.281 134.053 115.873 133.796C116.471 133.538 117.136 133.409 117.868 133.409C118.981 133.409 119.869 133.69 120.531 134.253C121.193 134.809 121.533 135.594 121.551 136.608V140.897C121.551 141.753 121.671 142.435 121.911 142.945V143.094H119.731ZM117.385 141.556C117.807 141.556 118.202 141.454 118.571 141.249C118.946 141.044 119.228 140.768 119.415 140.422V138.629H118.264C117.473 138.629 116.878 138.767 116.479 139.043C116.081 139.318 115.882 139.708 115.882 140.212C115.882 140.622 116.017 140.95 116.286 141.196C116.562 141.436 116.928 141.556 117.385 141.556ZM125.77 133.585L125.831 134.683C126.534 133.834 127.457 133.409 128.6 133.409C130.58 133.409 131.588 134.543 131.623 136.81V143.094H129.487V136.933C129.487 136.33 129.355 135.884 129.092 135.597C128.834 135.304 128.409 135.158 127.817 135.158C126.956 135.158 126.314 135.547 125.893 136.327V143.094H123.757V133.585H125.77Z" fill="#636363"/>
</svg>
