<svg width="48" height="48" viewBox="0 0 48 48" fill="none" xmlns="http://www.w3.org/2000/svg">
<circle cx="24" cy="24" r="24" fill="#F1F5F9"/>
<path fill-rule="evenodd" clip-rule="evenodd" d="M24.4686 26.616L29.1685 13.7029C29.2587 13.455 29.423 13.2408 29.6391 13.0894C29.8552 12.9381 30.1126 12.8569 30.3765 12.8569H34.6624C34.7895 12.857 34.9138 12.8947 35.0195 12.9653C35.1252 13.036 35.2075 13.1363 35.2562 13.2538C35.3048 13.3712 35.3176 13.5005 35.2928 13.6252C35.268 13.7499 35.2068 13.8644 35.1169 13.9543L33.6428 15.4284V30.8569L35.1169 32.331C35.2068 32.4209 35.268 32.5354 35.2928 32.6601C35.3176 32.7848 35.3048 32.914 35.2562 33.0315C35.2075 33.1489 35.1252 33.2493 35.0195 33.32C34.9138 33.3906 34.7895 33.4283 34.6624 33.4284H27.4804C27.3533 33.4283 27.229 33.3906 27.1233 33.32C27.0176 33.2493 26.9352 33.1489 26.8866 33.0315C26.838 32.914 26.8252 32.7848 26.85 32.6601C26.8748 32.5354 26.936 32.4209 27.0259 32.331L28.5 30.8569V19.2984L23.5757 32.8286C23.5115 33.0043 23.3949 33.1561 23.2416 33.2634C23.0884 33.3707 22.9058 33.4282 22.7188 33.4284C22.5259 33.4285 22.3364 33.373 22.1743 33.2686C22.0122 33.1641 21.8836 33.0152 21.804 32.8395L15.6428 19.2855V28.2855L18.2425 32.4448C18.3034 32.5421 18.337 32.6539 18.34 32.7686C18.343 32.8833 18.3153 32.9968 18.2597 33.0971C18.204 33.1975 18.1226 33.2812 18.0237 33.3394C17.9248 33.3976 17.8121 33.4284 17.6974 33.4284H11.7857C11.6663 33.4284 11.5493 33.3951 11.4477 33.3324C11.3462 33.2696 11.2641 33.1798 11.2107 33.073C11.1573 32.9662 11.1347 32.8467 11.1454 32.7278C11.1561 32.6089 11.1998 32.4953 11.2714 32.3998L14.3571 28.2855V16.7141L12.0216 13.9112C11.9434 13.8174 11.8936 13.7032 11.878 13.582C11.8624 13.4609 11.8816 13.3378 11.9334 13.2272C11.9852 13.1165 12.0674 13.023 12.1705 12.9574C12.2736 12.8918 12.3932 12.857 12.5153 12.8569H17.3863C17.6331 12.8569 17.8748 12.9279 18.0824 13.0615C18.29 13.1951 18.4547 13.3856 18.5569 13.6104L24.4686 26.616Z" fill="#94A3B8"/>
</svg>
