<svg width="48" height="48" viewBox="0 0 48 48" fill="none" xmlns="http://www.w3.org/2000/svg">
<circle cx="24" cy="24" r="24" fill="#F1F5F9"/>
<path d="M16.7143 29.357C18.0001 29.357 20.2456 29.357 20.2456 27.1944C20.2456 25.7872 19.2858 24.857 16.7143 24.857H14.1429V29.357H16.7143ZM16.7143 22.2772C19.0389 22.2772 19.694 21.3071 19.694 20.0291C19.694 18.7511 19.2858 17.7856 16.7143 17.7856H14.1429V22.2856L16.7143 22.2772ZM16.7143 14.5713C20.5715 14.5713 23.1429 15.857 23.1429 19.3413C23.2182 20.1755 23.0161 21.0113 22.5679 21.719C22.1197 22.4266 21.4505 22.9665 20.6641 23.255C22.7071 23.6851 23.8141 25.7519 23.8141 27.3481C23.8141 32.3399 19.2858 32.5713 16.7143 32.5713H11.5715C11.2306 32.5713 10.9037 32.4359 10.6626 32.1949C10.4215 31.954 10.2859 31.6271 10.2858 31.2862V15.857C10.2858 15.5161 10.4211 15.1892 10.6621 14.9481C10.9031 14.707 11.23 14.5715 11.5708 14.5713H11.5715H16.7143ZM31.0674 22.2856C30.3586 22.2615 29.6688 22.5181 29.148 22.9995C28.6272 23.481 28.3174 24.1484 28.2858 24.857H33.7738C33.7814 24.5056 33.7155 24.1566 33.5803 23.8322C33.4452 23.5078 33.2438 23.2152 32.989 22.9731C32.7342 22.731 32.4317 22.5448 32.1008 22.4264C31.7699 22.3081 31.4179 22.2601 31.0674 22.2856ZM31.3837 29.9999C31.8051 30.0453 32.231 29.9816 32.6207 29.8148C33.0103 29.6481 33.3505 29.384 33.6086 29.0478C33.6515 28.9576 33.7191 28.8814 33.8035 28.828C33.8879 28.7747 33.9857 28.7463 34.0856 28.7463C34.6224 28.7141 35.7352 28.7141 36.4963 28.7141C36.5994 28.7141 36.701 28.7388 36.7925 28.7863C36.884 28.8337 36.9628 28.9025 37.0222 28.9867C37.0815 29.071 37.1198 29.1683 37.1337 29.2705C37.1475 29.3726 37.1366 29.4766 37.1019 29.5736C36.6072 30.6329 35.813 31.5241 34.8175 32.137C33.8219 32.7499 32.6686 33.0578 31.5001 33.0226C27.9663 33.0226 24.9191 30.8015 24.9191 26.1067C24.9191 22.9098 27.2836 19.7141 31.0674 19.7141C35.4787 19.7141 37.3828 23.1374 37.3198 26.5323C37.315 26.6989 37.2454 26.8571 37.1259 26.9733C37.0063 27.0894 36.8462 27.1545 36.6796 27.1546C34.6597 27.1571 28.2858 27.1571 28.2858 27.1571C28.2883 27.5517 28.3722 27.9415 28.5321 28.3022C28.6921 28.6628 28.9247 28.9867 29.2154 29.2534C29.5061 29.5202 29.8487 29.7242 30.2218 29.8526C30.5948 29.981 30.9904 30.0312 31.3837 29.9999ZM27.6429 15.857H34.7143C34.8848 15.857 35.0483 15.9247 35.1689 16.0453C35.2895 16.1659 35.3572 16.3294 35.3572 16.4999V17.1427C35.3572 17.3132 35.2895 17.4767 35.1689 17.5973C35.0483 17.7178 34.8848 17.7856 34.7143 17.7856H27.6429C27.4724 17.7856 27.3089 17.7178 27.1883 17.5973C27.0678 17.4767 27.0001 17.3132 27.0001 17.1427V16.4999C27.0001 16.3294 27.0678 16.1659 27.1883 16.0453C27.3089 15.9247 27.4724 15.857 27.6429 15.857Z" fill="#94A3B8"/>
</svg>
