<svg width="48" height="48" viewBox="0 0 48 48" fill="none" xmlns="http://www.w3.org/2000/svg">
<circle cx="24" cy="24" r="24" fill="#F1F5F9"/>
<path d="M16.6306 18.9038H14.3519C13.7226 18.9038 13.2125 19.4139 13.2125 20.0432V33.146C13.2125 33.7752 13.7226 34.2853 14.3519 34.2853H16.6306C17.2599 34.2853 17.77 33.7752 17.77 33.146V20.0432C17.77 19.4139 17.2599 18.9038 16.6306 18.9038Z" fill="#94A3B8"/>
<path d="M15.4913 16.6256C17.0644 16.6256 18.3397 15.3503 18.3397 13.7771C18.3397 12.204 17.0644 10.9287 15.4913 10.9287C13.9181 10.9287 12.6428 12.204 12.6428 13.7771C12.6428 15.3503 13.9181 16.6256 15.4913 16.6256Z" fill="#94A3B8"/>
<path fill-rule="evenodd" clip-rule="evenodd" d="M25.7456 20.9778C26.205 20.1747 26.8684 19.5073 27.6688 19.0431C28.4691 18.5789 29.3779 18.3344 30.3031 18.3345C33.2011 18.3345 36 20.0435 36 24.601V33.1463C36 33.4485 35.8799 33.7383 35.6662 33.952C35.4526 34.1657 35.1628 34.2857 34.8606 34.2857H32.5818C32.2797 34.2857 31.9899 34.1657 31.7762 33.952C31.5625 33.7383 31.4425 33.4485 31.4425 33.1463V25.1707C31.4425 24.4153 31.1424 23.6907 30.6082 23.1566C30.074 22.6224 29.3495 22.3223 28.594 22.3223C27.8386 22.3223 27.1141 22.6224 26.5799 23.1566C26.0457 23.6907 25.7456 24.4153 25.7456 25.1707V33.1463C25.7456 33.4485 25.6256 33.7383 25.4119 33.952C25.1982 34.1657 24.9084 34.2857 24.6062 34.2857H22.3275C22.0253 34.2857 21.7355 34.1657 21.5218 33.952C21.3082 33.7383 21.1881 33.4485 21.1881 33.1463V20.0435C21.1881 19.7414 21.3082 19.4515 21.5218 19.2379C21.7355 19.0242 22.0253 18.9042 22.3275 18.9042H24.6062C24.9084 18.9042 25.1982 19.0242 25.4119 19.2379C25.6256 19.4515 25.7456 19.7414 25.7456 20.0435V20.9778Z" fill="#94A3B8"/>
</svg>
