<svg width="48" height="48" viewBox="0 0 48 48" fill="none" xmlns="http://www.w3.org/2000/svg">
<circle cx="24" cy="24" r="24" fill="#F1F5F9"/>
<path fill-rule="evenodd" clip-rule="evenodd" d="M19.7395 36.2448C19.7394 36.4572 19.6867 36.6664 19.5861 36.8535C19.4855 37.0406 19.3401 37.1999 19.1628 37.317C18.9856 37.4342 18.7821 37.5056 18.5705 37.5249C18.359 37.5442 18.1459 37.5108 17.9504 37.4276C14.9654 36.1326 12.5176 33.8488 11.0191 30.9606C9.52062 28.0723 9.06287 24.756 9.72291 21.5699C10.3829 18.3837 12.1205 15.5222 14.6431 13.4669C17.1656 11.4117 20.3192 10.2882 23.573 10.2856C26.8269 10.2831 29.9822 11.4015 32.5081 13.4527C35.0339 15.5039 36.776 18.3627 37.4411 21.5478C38.1063 24.7329 37.6538 28.0499 36.1599 30.9405C34.666 33.8311 32.2219 36.1189 29.239 37.4186C29.045 37.5012 28.8336 37.5344 28.6236 37.5152C28.4137 37.4961 28.2117 37.4252 28.0359 37.3089C27.8601 37.1926 27.7158 37.0345 27.616 36.8488C27.5162 36.6631 27.464 36.4556 27.464 36.2448C27.4537 34.727 27.4537 32.8048 27.4537 32.8048C27.4538 32.2983 27.3541 31.7967 27.1603 31.3287C26.9665 30.8607 26.6824 30.4354 26.3242 30.0772C26.2437 29.997 26.1601 29.9208 26.0735 29.8483C26.0508 29.8291 26.0346 29.8033 26.027 29.7746C26.0193 29.7458 26.0207 29.7154 26.0308 29.6874C26.041 29.6594 26.0594 29.6352 26.0837 29.618C26.108 29.6008 26.137 29.5914 26.1667 29.5912L26.168 29.5905C27.0122 29.5905 27.8482 29.4243 28.6281 29.1012C29.4081 28.7781 30.1168 28.3046 30.7137 27.7077C31.3107 27.1107 31.7842 26.402 32.1073 25.6221C32.4303 24.8421 32.5966 24.0062 32.5966 23.162C32.5989 21.7664 32.1449 20.4083 31.3038 19.2945C31.5227 18.3166 31.5015 17.3002 31.2421 16.3323L31.1328 15.924C31.111 15.8425 31.0732 15.766 31.0218 15.6991C30.9704 15.6321 30.9063 15.5759 30.8332 15.5337C30.7601 15.4915 30.6794 15.4641 30.5956 15.4531C30.5119 15.4421 30.4269 15.4477 30.3453 15.4696L29.9371 15.5788C29.0361 15.8203 28.2011 16.2617 27.4942 16.8703C27.0581 16.779 26.6136 16.7331 26.168 16.7334H21.0252C20.5796 16.7331 20.1351 16.779 19.699 16.8703C18.9921 16.2617 18.1571 15.8203 17.2561 15.5788L16.8479 15.4696C16.6833 15.4256 16.5079 15.4487 16.3604 15.534C16.2129 15.6192 16.1052 15.7595 16.061 15.924L15.9517 16.3323C15.6924 17.3002 15.6712 18.3166 15.89 19.2945C15.0487 20.4082 14.5945 21.7663 14.5966 23.162C14.5966 24.8669 15.2739 26.5021 16.4795 27.7077C17.6851 28.9133 19.3202 29.5905 21.0252 29.5905H21.0265C21.0562 29.5909 21.085 29.6004 21.1092 29.6176C21.1334 29.6349 21.1518 29.6591 21.1619 29.687C21.1719 29.715 21.1732 29.7454 21.1656 29.7741C21.1579 29.8028 21.1417 29.8285 21.119 29.8477C21.0333 29.9206 20.95 29.997 20.869 30.0772C20.3027 30.6436 19.9268 31.3722 19.7935 32.162H19.0966C18.4978 32.162 17.9072 32.0226 17.3716 31.7548C16.836 31.487 16.3702 31.0982 16.0109 30.6191C15.7714 30.2997 15.4609 30.0404 15.1038 29.8619C14.7467 29.6834 14.353 29.5905 13.9537 29.5905C13.7832 29.5905 13.6197 29.6583 13.4992 29.7788C13.3786 29.8994 13.3109 30.0629 13.3109 30.2334C13.3109 30.4039 13.3786 30.5674 13.4992 30.688C13.6197 30.8085 13.7832 30.8763 13.9537 30.8763C14.1497 30.8763 14.3424 30.927 14.5129 31.0236C14.6835 31.1201 14.8262 31.2592 14.927 31.4272L15.0267 31.5937C15.4837 32.3553 16.1301 32.9856 16.9031 33.4232C17.676 33.8608 18.5491 34.0907 19.4373 34.0905H19.7395V36.2448Z" fill="#94A3B8"/>
</svg>
