<svg width="48" height="48" viewBox="0 0 48 48" fill="none" xmlns="http://www.w3.org/2000/svg">
<circle cx="24" cy="24" r="24" fill="#F1F5F9"/>
<path d="M23.8367 10.2859C22.7058 10.2911 21.6257 10.3865 20.6753 10.5528C17.8757 11.042 17.3674 12.0659 17.3674 13.9542V16.4481H23.9833V17.2794H17.3674H14.8845C12.9617 17.2794 11.2781 18.4225 10.7515 20.597C10.1441 23.0894 10.1171 24.6448 10.7515 27.2473C11.2218 29.1846 12.3449 30.5649 14.2676 30.5649H16.5423V27.5753C16.5423 25.4154 18.4317 23.5103 20.6753 23.5103H27.2835C29.123 23.5103 30.5914 22.0123 30.5914 20.1851V13.9542C30.5914 12.1809 29.0789 10.8488 27.2835 10.5528C26.147 10.3657 24.9677 10.2807 23.8367 10.2859ZM20.2589 12.2917C20.9423 12.2917 21.5004 12.8526 21.5004 13.5424C21.5004 14.2297 20.9423 14.7855 20.2589 14.7855C19.5731 14.7855 19.0175 14.2297 19.0175 13.5424C19.0175 12.8526 19.5731 12.2917 20.2589 12.2917Z" fill="#94A3B8"/>
<path d="M31.4164 17.2798V20.1855C31.4164 22.4383 29.4854 24.3343 27.2834 24.3343H20.6752C18.8652 24.3343 17.3673 25.8666 17.3673 27.6595V33.8904C17.3673 35.6638 18.9264 36.7068 20.6752 37.2156C22.7695 37.8246 24.7777 37.9347 27.2834 37.2156C28.949 36.7386 30.5913 35.7787 30.5913 33.8904V31.3965H23.9832V30.5652H30.5913H33.8993C35.822 30.5652 36.5385 29.2387 37.2072 27.2477C37.8979 25.1979 37.8685 23.2268 37.2072 20.5973C36.732 18.7041 35.8245 17.2798 33.8993 17.2798H31.4164ZM27.6998 33.0591C28.3856 33.0591 28.9412 33.6149 28.9412 34.3023C28.9412 34.992 28.3856 35.553 27.6998 35.553C27.0164 35.553 26.4584 34.992 26.4584 34.3023C26.4584 33.6149 27.0164 33.0591 27.6998 33.0591Z" fill="#94A3B8"/>
</svg>
