<svg width="48" height="48" viewBox="0 0 48 48" fill="none" xmlns="http://www.w3.org/2000/svg">
<circle cx="24" cy="24" r="24" fill="#F1F5F9"/>
<ellipse cx="32.3999" cy="34.7606" rx="2.59999" ry="2.64" fill="#94A3B8"/>
<path d="M18.3718 35.4297C19.7356 33.062 23.0561 31.1426 25.7885 31.1426V31.1426L24.6534 33.1132C23.2897 35.4809 19.9692 37.4004 17.2368 37.4004V37.4004L18.3718 35.4297Z" fill="#94A3B8"/>
<path d="M25.5834 22.9117C26.9465 20.545 30.2656 18.6265 32.9967 18.6265V18.6265L31.8606 20.599C30.4975 22.9657 27.1785 24.8842 24.4473 24.8842V24.8842L25.5834 22.9117Z" fill="#94A3B8"/>
<path d="M21.9779 29.1738C23.3424 26.8048 26.6647 24.8843 29.3986 24.8843V24.8843L28.265 26.8525C26.9005 29.2216 23.5782 31.1421 20.8443 31.1421V31.1421L21.9779 29.1738Z" fill="#94A3B8"/>
<path d="M13 15.3022H17.237V37.4V37.4C14.897 37.4 13 35.5031 13 33.163L13 15.3022Z" fill="#94A3B8"/>
<path d="M13 15.3022C13 12.9262 14.9262 11 17.3022 11H30.6533C33.0293 11 34.9555 12.9262 34.9555 15.3022V15.3022H13V15.3022Z" fill="#94A3B8"/>
</svg>
