<svg width="48" height="48" viewBox="0 0 48 48" fill="none" xmlns="http://www.w3.org/2000/svg">
<circle cx="24" cy="24" r="24" fill="#F1F5F9"/>
<path d="M24.1072 10.2856C21.3736 10.2856 18.7013 11.0963 16.4284 12.615C14.1555 14.1337 12.384 16.2923 11.3379 18.8178C10.2918 21.3434 10.018 24.1224 10.5513 26.8035C11.0847 29.4846 12.401 31.9473 14.334 33.8803C16.2669 35.8133 18.7297 37.1296 21.4108 37.6629C24.0919 38.1962 26.8709 37.9225 29.3964 36.8764C31.922 35.8303 34.0806 34.0588 35.5993 31.7858C37.118 29.5129 37.9286 26.8407 37.9286 24.1071C37.9245 20.4427 36.4671 16.9295 33.8759 14.3384C31.2848 11.7472 27.7716 10.2897 24.1072 10.2856ZM22.5303 13.0236C23.053 12.9536 23.5798 12.9188 24.1072 12.9194C26.6123 12.9192 29.0451 13.759 31.0166 15.3044C31.0556 15.3354 31.0879 15.3741 31.1114 15.418C31.135 15.4619 31.1493 15.5101 31.1536 15.5598C31.1579 15.6094 31.152 15.6594 31.1363 15.7067C31.1206 15.754 31.0954 15.7976 31.0623 15.8348C29.6896 17.2831 28.0132 18.4093 26.1534 19.1326C26.0701 19.1662 25.9774 19.1684 25.8926 19.1387C25.8078 19.109 25.7367 19.0495 25.6925 18.9713C24.6485 17.1227 23.5122 15.3277 22.2879 13.5931C22.252 13.5425 22.2296 13.4836 22.2229 13.4218C22.2162 13.3601 22.2255 13.2977 22.2498 13.2406C22.2741 13.1835 22.3127 13.1335 22.3618 13.0955C22.4109 13.0575 22.4689 13.0328 22.5303 13.0236ZM13.3509 20.95C13.7764 19.527 14.478 18.2018 15.4156 17.05C16.3533 15.8983 17.5087 14.9425 18.8158 14.2373C18.8942 14.1948 18.9855 14.1825 19.0723 14.2028C19.1592 14.223 19.2356 14.2744 19.2871 14.3472C20.5136 16.087 21.667 17.8772 22.7443 19.7131C22.7729 19.7628 22.7896 19.8183 22.793 19.8755C22.7964 19.9326 22.7865 19.9898 22.7641 20.0424C22.7416 20.0951 22.7073 20.1419 22.6637 20.179C22.6201 20.2161 22.5685 20.2426 22.5129 20.2564C19.6254 20.938 16.6764 21.3261 13.7109 21.4148C13.6537 21.4163 13.5969 21.4043 13.5452 21.3798C13.4934 21.3552 13.4482 21.3189 13.4131 21.2736C13.3781 21.2284 13.3542 21.1755 13.3434 21.1192C13.3326 21.063 13.3351 21.005 13.3509 20.95ZM15.1741 30.9021C13.768 29.0448 12.9723 26.7973 12.8964 24.469C12.8952 24.4204 12.9037 24.372 12.9213 24.3266C12.9389 24.2812 12.9653 24.2398 12.999 24.2047C13.0328 24.1697 13.0731 24.1416 13.1177 24.1222C13.1623 24.1028 13.2103 24.0924 13.259 24.0916C16.8743 24.0383 20.469 23.5362 23.9606 22.597C24.0414 22.573 24.1281 22.5782 24.2055 22.6115C24.283 22.6449 24.3462 22.7044 24.3843 22.7796C24.4974 23.0078 24.6125 23.2482 24.7327 23.5066C24.7544 23.5533 24.766 23.6039 24.7669 23.6554C24.7677 23.7068 24.7577 23.7578 24.7375 23.8051C24.7173 23.8524 24.6874 23.8949 24.6497 23.9299C24.612 23.9648 24.5673 23.9915 24.5186 24.0081C20.9461 25.3133 17.8794 27.7175 15.7591 30.8751C15.7278 30.923 15.6857 30.9628 15.636 30.9913C15.5863 31.0197 15.5306 31.0359 15.4735 31.0385C15.4163 31.0412 15.3594 31.0302 15.3073 31.0064C15.2552 30.9827 15.2096 30.9469 15.1741 30.9021ZM27.9676 34.6371C26.2795 35.2572 24.4669 35.4615 22.6831 35.2325C20.8994 35.0036 19.1971 34.3482 17.7204 33.3218C17.6446 33.2679 17.592 33.1873 17.5731 33.0962C17.5543 33.0051 17.5706 32.9102 17.6188 32.8306C19.5308 29.9153 22.339 27.7009 25.6198 26.5216C25.7125 26.4874 25.8148 26.4911 25.9048 26.5319C25.9947 26.5727 26.0649 26.6473 26.1001 26.7396C26.9986 29.173 27.7003 31.6747 28.1983 34.2205C28.215 34.306 28.201 34.3946 28.1588 34.4708C28.1166 34.547 28.0489 34.6059 27.9676 34.6371ZM35.0371 26.5216C34.5043 28.9656 33.1639 31.1588 31.232 32.7477C31.1834 32.7867 31.1256 32.8124 31.0641 32.8226C31.0027 32.8327 30.9396 32.8269 30.8811 32.8057C30.8225 32.7844 30.7704 32.7485 30.7298 32.7013C30.6891 32.6541 30.6613 32.5973 30.6489 32.5362C30.1962 30.3729 29.6063 28.2405 28.883 26.152C28.8647 26.0999 28.8583 26.0444 28.8644 25.9895C28.8705 25.9346 28.8888 25.8818 28.9181 25.835C28.9474 25.7882 28.9868 25.7486 29.0335 25.7191C29.0801 25.6896 29.1329 25.671 29.1877 25.6647C31.0587 25.4989 32.9442 25.6427 34.7683 26.0903C34.8603 26.1133 34.9397 26.1712 34.9898 26.2517C35.04 26.3321 35.0569 26.4289 35.0371 26.5216ZM34.8423 23.5369C32.6066 23.1605 30.3324 23.0682 28.0736 23.2624C27.9969 23.2707 27.9195 23.2536 27.8533 23.2138C27.7871 23.174 27.7358 23.1136 27.7072 23.0419C27.544 22.6476 27.3719 22.257 27.191 21.8706C27.171 21.8265 27.1599 21.7788 27.1584 21.7304C27.1569 21.682 27.1651 21.6337 27.1824 21.5885C27.1996 21.5432 27.2257 21.5019 27.2591 21.4667C27.2924 21.4316 27.3325 21.4035 27.3768 21.3839C29.3876 20.5128 31.2055 19.2514 32.7253 17.6727C32.762 17.633 32.8071 17.602 32.8572 17.582C32.9074 17.5619 32.9614 17.5533 33.0153 17.5568C33.0693 17.5603 33.1217 17.5759 33.1689 17.6023C33.216 17.6286 33.2567 17.6652 33.2878 17.7094C34.4116 19.3197 35.0938 21.1964 35.2666 23.1524C35.2706 23.2075 35.262 23.2627 35.2415 23.314C35.221 23.3652 35.1891 23.4111 35.1482 23.4481C35.1073 23.4852 35.0585 23.5125 35.0055 23.5278C34.9525 23.5432 34.8967 23.5463 34.8423 23.5369Z" fill="#94A3B8"/>
</svg>
