<svg width="48" height="48" viewBox="0 0 48 48" fill="none" xmlns="http://www.w3.org/2000/svg">
<circle cx="24" cy="24" r="24" fill="#F1F5F9"/>
<path d="M31.2917 18.1667C32.0971 18.1667 32.75 17.5137 32.75 16.7083C32.75 15.9029 32.0971 15.25 31.2917 15.25C30.4863 15.25 29.8334 15.9029 29.8334 16.7083C29.8334 17.5137 30.4863 18.1667 31.2917 18.1667Z" fill="#94A3B8"/>
<path fill-rule="evenodd" clip-rule="evenodd" d="M24.0001 19.3333C24.9231 19.3333 25.8254 19.607 26.5928 20.1198C27.3602 20.6326 27.9584 21.3614 28.3116 22.2141C28.6648 23.0669 28.7572 24.0052 28.5771 24.9104C28.3971 25.8157 27.9526 26.6472 27.3 27.2998C26.6473 27.9525 25.8158 28.3969 24.9105 28.577C24.0053 28.7571 23.067 28.6646 22.2143 28.3114C21.3615 27.9582 20.6327 27.3601 20.1199 26.5927C19.6072 25.8252 19.3335 24.923 19.3335 24C19.3341 22.7625 19.8259 21.5759 20.701 20.7009C21.576 19.8258 22.7626 19.334 24.0001 19.3333ZM24.0001 17C25.3846 17 26.738 17.4105 27.8891 18.1797C29.0403 18.9489 29.9375 20.0421 30.4673 21.3212C30.9971 22.6003 31.1357 24.0078 30.8656 25.3656C30.5955 26.7235 29.9288 27.9708 28.9499 28.9497C27.9709 29.9287 26.7236 30.5954 25.3658 30.8655C24.0079 31.1356 22.6004 30.997 21.3213 30.4672C20.0423 29.9373 18.949 29.0401 18.1798 27.889C17.4107 26.7378 17.0001 25.3845 17.0001 24C17.001 22.1438 17.7388 20.3638 19.0514 19.0513C20.364 17.7387 22.1439 17.0009 24.0001 17Z" fill="#94A3B8"/>
<path fill-rule="evenodd" clip-rule="evenodd" d="M35.6667 18.1667C35.6667 16.6196 35.0521 15.1358 33.9581 14.0419C32.8642 12.9479 31.3804 12.3333 29.8333 12.3333H18.1667C16.6196 12.3333 15.1358 12.9479 14.0419 14.0419C12.9479 15.1358 12.3333 16.6196 12.3333 18.1667V29.8333C12.3333 31.3804 12.9479 32.8642 14.0419 33.9581C15.1358 35.0521 16.6196 35.6667 18.1667 35.6667H29.8333C31.3804 35.6667 32.8642 35.0521 33.9581 33.9581C35.0521 32.8642 35.6667 31.3804 35.6667 29.8333V18.1667ZM38 18.1667C38 16.0007 37.1396 13.9235 35.608 12.392C34.0765 10.8604 31.9993 10 29.8333 10H18.1667C16.0007 10 13.9235 10.8604 12.392 12.392C10.8604 13.9235 10 16.0007 10 18.1667V29.8333C10 31.9993 10.8604 34.0765 12.392 35.608C13.9235 37.1396 16.0007 38 18.1667 38H29.8333C31.9993 38 34.0765 37.1396 35.608 35.608C37.1396 34.0765 38 31.9993 38 29.8333V18.1667Z" fill="#94A3B8"/>
</svg>
