<svg width="26" height="25" viewBox="0 0 26 25" fill="none" xmlns="http://www.w3.org/2000/svg">
<path d="M10.5864 13.6577C11.1047 14.3224 11.7659 14.8723 12.5252 15.2703C13.2845 15.6683 14.1242 15.9049 14.9872 15.9642C15.8503 16.0235 16.7165 15.904 17.5272 15.6139C18.3379 15.3238 19.074 14.8699 19.6858 14.2828L23.3062 10.8098C24.4054 9.71805 25.0136 8.25588 24.9998 6.73816C24.9861 5.22045 24.3515 3.76863 23.2327 2.6954C22.1139 1.62217 20.6005 1.01341 19.0184 1.00022C17.4363 0.98703 15.9121 1.57047 14.774 2.62489L12.6983 4.60454M15.4137 11.3423C14.8954 10.6776 14.2342 10.1277 13.4748 9.72971C12.7155 9.33175 11.8759 9.09509 11.0128 9.0358C10.1498 8.97651 9.28355 9.09596 8.47286 9.38606C7.66218 9.67616 6.92601 10.1301 6.3143 10.7172L2.69386 14.1902C1.59471 15.2819 0.986511 16.7441 1.00026 18.2618C1.01401 19.7796 1.6486 21.2314 2.76737 22.3046C3.88613 23.3778 5.39954 23.9866 6.98165 23.9998C8.56376 24.013 10.088 23.4295 11.226 22.3751L13.2897 20.3955" stroke="#F7F9F9" stroke-width="2" stroke-linecap="round" stroke-linejoin="round"/>
</svg>
