<svg width="64" height="64" viewBox="0 0 64 64" fill="none" xmlns="http://www.w3.org/2000/svg">
<g clip-path="url(#clip0_412_13605)">
<path d="M52 0H12C5.37258 0 0 5.37258 0 12V52C0 58.6274 5.37258 64 12 64H52C58.6274 64 64 58.6274 64 52V12C64 5.37258 58.6274 0 52 0Z" fill="#7DD3FC"/>
<path d="M14.4479 47.5109H16.921C17.7649 47.5109 18.3913 47.7089 18.8002 48.1048C19.2092 48.4943 19.4137 49.1012 19.4137 49.9256V51.9119C19.4137 52.7363 19.2092 53.3465 18.8002 53.7425C18.3913 54.1319 17.7649 54.3267 16.921 54.3267H14.4479V53.0901H15.0905V48.7377H14.4479V47.5109ZM16.921 53.0998C17.3689 53.0998 17.6805 52.996 17.8558 52.7882C18.0375 52.574 18.1284 52.243 18.1284 51.7951V49.9256C18.1284 49.5362 18.0375 49.2408 17.8558 49.0396C17.6805 48.8384 17.3689 48.7377 16.921 48.7377H16.3758V53.0998H16.921ZM22.5616 49.1369C22.3993 49.0655 22.2663 48.9552 22.1624 48.8059C22.065 48.6501 22.0164 48.4781 22.0164 48.2898C22.0164 48.1665 22.0391 48.0497 22.0845 47.9393C22.1364 47.8225 22.2046 47.7251 22.289 47.6472C22.3734 47.5628 22.4707 47.4979 22.5811 47.4525C22.6914 47.4006 22.8115 47.3746 22.9413 47.3746C23.0647 47.3746 23.1815 47.4006 23.2919 47.4525C23.4087 47.4979 23.5061 47.5628 23.584 47.6472C23.6684 47.7251 23.7333 47.8225 23.7787 47.9393C23.8306 48.0497 23.8566 48.1665 23.8566 48.2898C23.8566 48.4781 23.8047 48.6501 23.7008 48.8059C23.6034 48.9552 23.4769 49.0655 23.3211 49.1369V50.354H22.5616V49.1369ZM26.3717 47.5109H28.8448C29.6887 47.5109 30.3151 47.7089 30.724 48.1048C31.133 48.4943 31.3374 49.1012 31.3374 49.9256V51.9119C31.3374 52.7363 31.133 53.3465 30.724 53.7425C30.3151 54.1319 29.6887 54.3267 28.8448 54.3267H26.3717V53.0901H27.0143V48.7377H26.3717V47.5109ZM28.8448 53.0998C29.2927 53.0998 29.6043 52.996 29.7795 52.7882C29.9613 52.574 30.0522 52.243 30.0522 51.7951V49.9256C30.0522 49.5362 29.9613 49.2408 29.7795 49.0396C29.6043 48.8384 29.2927 48.7377 28.8448 48.7377H28.2996V53.0998H28.8448ZM32.7328 53.1582H34.3685V50.6656H32.8496V49.4972H35.5954V53.1582H36.9975V54.3267H32.7328V53.1582ZM35.8972 48.0659C35.8972 48.1957 35.8713 48.3191 35.8193 48.4359C35.7739 48.5462 35.709 48.6436 35.6246 48.728C35.5402 48.8059 35.4396 48.8708 35.3227 48.9227C35.2124 48.9682 35.0956 48.9909 34.9722 48.9909C34.8424 48.9909 34.7223 48.9682 34.612 48.9227C34.5016 48.8708 34.4042 48.8059 34.3199 48.728C34.2355 48.6436 34.1673 48.5462 34.1154 48.4359C34.0699 48.3191 34.0472 48.1957 34.0472 48.0659C34.0472 47.9361 34.0699 47.816 34.1154 47.7056C34.1673 47.5888 34.2355 47.4914 34.3199 47.4135C34.4042 47.3291 34.5016 47.2642 34.612 47.2188C34.7223 47.1669 34.8424 47.1409 34.9722 47.1409C35.0956 47.1409 35.2124 47.1669 35.3227 47.2188C35.4396 47.2642 35.5402 47.3291 35.6246 47.4135C35.709 47.4914 35.7739 47.5888 35.8193 47.7056C35.8713 47.816 35.8972 47.9361 35.8972 48.0659ZM38.2662 49.4972H39.5904L40.7296 53.7425H40.9049L42.0441 49.4972H43.3683L41.9857 54.3267H39.6489L38.2662 49.4972ZM45.6497 52.3111C45.6562 52.4539 45.6886 52.587 45.7471 52.7104C45.812 52.8272 45.8964 52.9311 46.0002 53.0219C46.1106 53.1063 46.2339 53.1745 46.3702 53.2264C46.513 53.2718 46.6623 53.2946 46.8181 53.2946C47.1232 53.2946 47.3569 53.2426 47.5192 53.1388C47.6814 53.0284 47.7983 52.8986 47.8697 52.7493L48.9213 53.3335C48.8628 53.4568 48.7817 53.5867 48.6778 53.723C48.574 53.8528 48.4377 53.9729 48.2689 54.0832C48.1066 54.1936 47.9054 54.2845 47.6652 54.3559C47.4315 54.4273 47.1556 54.463 46.8376 54.463C46.4741 54.463 46.143 54.4046 45.8444 54.2877C45.5458 54.1709 45.2862 54.0021 45.0655 53.7814C44.8513 53.5607 44.6825 53.2913 44.5592 52.9732C44.4423 52.6552 44.3839 52.2949 44.3839 51.8925V51.834C44.3839 51.464 44.4456 51.1265 44.5689 50.8214C44.6987 50.5163 44.874 50.2567 45.0947 50.0425C45.3154 49.8283 45.5718 49.6627 45.8639 49.5459C46.1625 49.4226 46.4806 49.3609 46.8181 49.3609C47.2335 49.3609 47.5906 49.4355 47.8892 49.5848C48.1877 49.7276 48.4344 49.9126 48.6291 50.1398C48.8239 50.3605 48.9667 50.6072 49.0576 50.8798C49.1484 51.146 49.1939 51.4056 49.1939 51.6588V52.3111H45.6497ZM46.8084 50.4709C46.4968 50.4709 46.2436 50.552 46.0489 50.7143C45.8542 50.8701 45.7276 51.0519 45.6692 51.2596H47.9476C47.9086 51.0324 47.7853 50.8441 47.5776 50.6948C47.3763 50.5455 47.1199 50.4709 46.8084 50.4709Z" fill="#172554"/>
<path d="M44.6592 30.7641V30.6372C44.6592 30.0432 44.4232 29.4735 44.0032 29.0535C43.5832 28.6334 43.0135 28.3975 42.4195 28.3975H21.5154C20.9213 28.3975 20.3517 28.6334 19.9316 29.0535C19.5116 29.4735 19.2756 30.0432 19.2756 30.6372V30.7641L20.2163 35.4302C21.169 37.7649 22.7955 39.7629 24.8885 41.1693C26.9814 42.5758 29.4458 43.3269 31.9674 43.3269C34.489 43.3269 36.9534 42.5758 39.0464 41.1693C41.1393 39.7629 42.7658 37.7649 43.7185 35.4302L44.6592 30.7641Z" fill="#DBEAFE"/>
<path d="M18.5288 11.9736V22.4257H17.7822C16.1323 22.4257 14.7959 20.0889 14.7959 17.1997C14.7959 14.3104 16.1323 11.9736 17.7822 11.9736H18.5288ZM45.4055 11.9736V22.4257H46.1521C47.802 22.4257 49.1384 20.0889 49.1384 17.1997C49.1384 14.3104 47.802 11.9736 46.1521 11.9736H45.4055Z" fill="#0284C7"/>
<path d="M17.7825 16.4521V22.4247C17.7825 24.0087 18.4117 25.5278 19.5318 26.6479C20.6519 27.768 22.1711 28.3973 23.7551 28.3973H40.1797C41.7638 28.3973 43.2829 27.768 44.403 26.6479C45.5231 25.5278 46.1523 24.0087 46.1523 22.4247V11.9726C46.1523 10.3886 45.5231 8.86941 44.403 7.74933C43.2829 6.62925 41.7638 6 40.1797 6H25.2482L17.7825 16.4521Z" fill="#EFF6FF"/>
<path d="M46.1521 16.4521V22.4247C46.1521 24.0087 45.5228 25.5278 44.4027 26.6479C43.2827 27.768 41.7635 28.3973 40.1795 28.3973H23.7548C22.1708 28.3973 20.6516 27.768 19.5316 26.6479C18.4115 25.5278 17.7822 24.0087 17.7822 22.4247V11.9726C17.7822 10.3886 18.4115 8.86941 19.5316 7.74933C20.6516 6.62925 22.1708 6 23.7548 6H38.6863L46.1521 16.4521Z" fill="#EFF6FF"/>
<path d="M43.1658 16.4531V22.4257C43.1658 23.2177 42.8512 23.9773 42.2911 24.5373C41.7311 25.0974 40.9715 25.412 40.1795 25.412H23.7549C22.9628 25.412 22.2033 25.0974 21.6432 24.5373C21.0832 23.9773 20.7686 23.2177 20.7686 22.4257V14.9599C20.7686 14.1679 21.0832 13.4083 21.6432 12.8483C22.2033 12.2883 22.9628 11.9736 23.7549 11.9736H38.6864L43.1658 16.4531Z" fill="#172554"/>
<path d="M20.7688 16.4531V22.4257C20.7688 23.2177 21.0834 23.9773 21.6434 24.5373C22.2035 25.0974 22.963 25.412 23.7551 25.412H40.1797C40.9717 25.412 41.7313 25.0974 42.2913 24.5373C42.8514 23.9773 43.166 23.2177 43.166 22.4257V14.9599C43.166 14.1679 42.8514 13.4083 42.2913 12.8483C41.7313 12.2883 40.9717 11.9736 40.1797 11.9736H25.2482L20.7688 16.4531Z" fill="#172554"/>
<path d="M25.6221 18.6914C26.6529 18.6914 27.4885 17.8557 27.4885 16.8249C27.4885 15.7941 26.6529 14.9585 25.6221 14.9585C24.5912 14.9585 23.7556 15.7941 23.7556 16.8249C23.7556 17.8557 24.5912 18.6914 25.6221 18.6914Z" fill="#7DD3FC"/>
<path d="M38.3074 18.6914C39.3382 18.6914 40.1738 17.8557 40.1738 16.8249C40.1738 15.7941 39.3382 14.9585 38.3074 14.9585C37.2766 14.9585 36.4409 15.7941 36.4409 16.8249C36.4409 17.8557 37.2766 18.6914 38.3074 18.6914Z" fill="#7DD3FC"/>
<path d="M40.1425 16.4516C40.1664 16.5747 40.1789 16.6996 40.1798 16.8249C40.1798 17.1941 40.0704 17.5549 39.8653 17.8619C39.6602 18.1688 39.3687 18.408 39.0277 18.5493C38.6866 18.6906 38.3113 18.7275 37.9493 18.6555C37.5872 18.5835 37.2547 18.4057 36.9936 18.1447C36.7326 17.8837 36.5548 17.5511 36.4828 17.1891C36.4108 16.827 36.4478 16.4517 36.589 16.1107C36.7303 15.7696 36.9695 15.4781 37.2765 15.273C37.5834 15.068 37.9443 14.9585 38.3134 14.9585C38.4387 14.9595 38.5637 14.9719 38.6867 14.9958M30.4744 19.4379H33.4607C33.6587 19.4379 33.8486 19.5166 33.9886 19.6566C34.1286 19.7966 34.2072 19.9865 34.2072 20.1845C34.2072 20.7785 33.9713 21.3482 33.5512 21.7682C33.1312 22.1883 32.5615 22.4242 31.9675 22.4242C31.3735 22.4242 30.8038 22.1883 30.3838 21.7682C29.9638 21.3482 29.7278 20.7785 29.7278 20.1845C29.7278 19.9865 29.8064 19.7966 29.9464 19.6566C30.0865 19.5166 30.2764 19.4379 30.4744 19.4379Z" fill="#7DD3FC"/>
<path d="M40.1425 16.4516C40.1664 16.5747 40.1789 16.6996 40.1798 16.8249C40.1798 17.1941 40.0704 17.5549 39.8653 17.8619C39.6602 18.1688 39.3687 18.408 39.0277 18.5493C38.6866 18.6906 38.3113 18.7275 37.9493 18.6555C37.5872 18.5835 37.2547 18.4057 36.9936 18.1447C36.7326 17.8837 36.5548 17.5511 36.4828 17.1891C36.4108 16.827 36.4478 16.4517 36.589 16.1107C36.7303 15.7696 36.9695 15.4781 37.2765 15.273C37.5834 15.068 37.9443 14.9585 38.3134 14.9585C38.4387 14.9595 38.5637 14.9719 38.6867 14.9958M30.4744 19.4379H33.4607C33.6587 19.4379 33.8486 19.5166 33.9886 19.6566C34.1286 19.7966 34.2072 19.9865 34.2072 20.1845C34.2072 20.7785 33.9713 21.3482 33.5512 21.7682C33.1312 22.1883 32.5615 22.4242 31.9675 22.4242C31.3735 22.4242 30.8038 22.1883 30.3838 21.7682C29.9638 21.3482 29.7278 20.7785 29.7278 20.1845C29.7278 19.9865 29.8064 19.7966 29.9464 19.6566C30.0865 19.5166 30.2764 19.4379 30.4744 19.4379Z" fill="#7DD3FC"/>
<path d="M20.3037 35.1732C19.307 38.0184 16.9374 41.4631 15.654 41.0577C14.3707 40.6523 14.6573 36.5454 15.654 33.701C16.6507 30.8565 17.9916 30.3518 19.2757 30.7624C20.5598 31.1731 21.3086 32.3288 20.3037 35.1732ZM43.6312 35.1732C44.6279 38.0184 46.9975 41.4609 48.2801 41.0577C49.5627 40.6546 49.2775 36.5454 48.2801 33.701C47.2827 30.8565 45.9433 30.3518 44.6592 30.7624C43.3751 31.1731 42.6263 32.3288 43.6312 35.1732Z" fill="#EFF6FF"/>
<path d="M31.967 38.103C33.6163 38.103 34.9533 36.766 34.9533 35.1167C34.9533 33.4674 33.6163 32.1304 31.967 32.1304C30.3177 32.1304 28.9807 33.4674 28.9807 35.1167C28.9807 36.766 30.3177 38.103 31.967 38.103Z" fill="#172554"/>
</g>
<defs>
<clipPath id="clip0_412_13605">
<rect width="64" height="64" fill="white"/>
</clipPath>
</defs>
</svg>
