<svg width="64" height="64" viewBox="0 0 64 64" fill="none" xmlns="http://www.w3.org/2000/svg">
<rect width="64" height="64" rx="12" fill="#E15371"/>
<path fill-rule="evenodd" clip-rule="evenodd" d="M21.4336 31.9922L21.3828 32.2565C21.1244 33.5844 21.1004 34.9491 21.3116 36.3102L17.6831 42.7151L21.6902 43.6215V50.2597H27.0089V55.0002H39.7739V47.6604C43.497 45.0521 45.6234 40.8584 45.6203 36.3844L45.6214 34.463C45.6214 33.7387 45.5538 32.9945 45.4177 32.2613L45.3691 31.9922H21.4336ZM44.5597 34.4582C44.5597 33.9389 44.5209 33.4048 44.4437 32.8781H22.353C22.1812 33.9315 22.1924 35.1646 22.3902 36.317L22.4205 36.5051L19.3069 42.0024L22.754 42.7815V49.2064H28.0728V53.9468H38.7103V47.1105L38.9443 46.9525C42.4616 44.5543 44.5641 40.603 44.5609 36.3834L44.5597 34.4582Z" fill="#863244" stroke="#863244" stroke-width="1.5"/>
<path d="M28.7761 37.5797C27.8248 37.5797 27.0505 37.0866 27.0505 36.1006H25.9001C25.9001 37.5797 27.1903 38.5657 28.7761 38.5657C30.362 38.5657 31.6521 37.5797 31.6521 36.1006H30.5017C30.5016 37.0866 29.7275 37.5797 28.7761 37.5797Z" fill="#863244" stroke="#863244" stroke-width="1.5"/>
<path d="M23.7354 19.088H25.7233C25.9114 19.088 26.0054 19.185 26.0054 19.3791V27.7089C26.0054 27.903 25.9114 28 25.7233 28H24.6219C24.4339 28 24.3398 27.903 24.3398 27.7089V21.1393H24.2861L22.9161 25.7824C22.8623 25.9672 22.7504 26.0596 22.5803 26.0596H21.452C21.2818 26.0596 21.1699 25.9672 21.1162 25.7824L19.7193 21.1254H19.6655V27.7089C19.6655 27.8198 19.6476 27.8984 19.6118 27.9446C19.576 27.9815 19.4999 28 19.3835 28H18.2821C18.094 28 18 27.903 18 27.7089V19.3791C18 19.185 18.094 19.088 18.2821 19.088H20.2834C20.4088 19.088 20.4938 19.1527 20.5386 19.2821L21.9624 24.1746H22.043L23.4802 19.2821C23.5071 19.1527 23.5921 19.088 23.7354 19.088Z" fill="white"/>
<path d="M29.519 19.3791V27.7089C29.519 27.903 29.4249 28 29.2369 28H28.0952C27.9071 28 27.8131 27.903 27.8131 27.7089V19.3791C27.8131 19.185 27.9071 19.088 28.0952 19.088H29.2369C29.4249 19.088 29.519 19.185 29.519 19.3791Z" fill="white"/>
<path d="M32.7238 28H31.609C31.4209 28 31.3269 27.903 31.3269 27.7089V19.3791C31.3269 19.185 31.4209 19.088 31.609 19.088H32.6164C32.8044 19.088 32.9298 19.1527 32.9925 19.2821L35.7057 24.535H35.7594V19.3791C35.7594 19.185 35.8534 19.088 36.0415 19.088H37.1563C37.3444 19.088 37.4384 19.185 37.4384 19.3791V27.7089C37.4384 27.903 37.3444 28 37.1563 28H36.1758C35.9788 28 35.8355 27.9076 35.746 27.7228L33.0596 22.5669H33.0059V27.7089C33.0059 27.903 32.9119 28 32.7238 28Z" fill="white"/>
<path d="M41.0376 26.4754H42.5017C42.7882 26.4754 42.9897 26.4153 43.1061 26.2952C43.2315 26.1659 43.2942 25.9533 43.2942 25.6577V21.4304C43.2942 21.1347 43.2315 20.9268 43.1061 20.8067C42.9897 20.6773 42.7882 20.6126 42.5017 20.6126H41.0376C40.9391 20.6126 40.8899 20.6634 40.8899 20.7651V26.3229C40.8899 26.4246 40.9391 26.4754 41.0376 26.4754ZM39.184 27.7089V19.3791C39.184 19.185 39.278 19.088 39.4661 19.088H42.7837C43.4822 19.088 44.024 19.2867 44.409 19.684C44.803 20.0721 45 20.6265 45 21.3472V25.7408C45 26.4615 44.803 27.0206 44.409 27.4179C44.024 27.806 43.4822 28 42.7837 28H39.4661C39.278 28 39.184 27.903 39.184 27.7089Z" fill="white"/>
<path d="M19.5715 16.912H18.2821C18.1209 16.912 18.0672 16.815 18.1209 16.6209L20.2431 8.29106C20.3058 8.09702 20.4401 8 20.6461 8H22.4325C22.6564 8 22.7907 8.09702 22.8355 8.29106L24.9577 16.6209C25.0114 16.815 24.9577 16.912 24.7965 16.912H23.5071C23.4086 16.912 23.3414 16.8935 23.3056 16.8565C23.2698 16.8103 23.2429 16.7318 23.225 16.6209L22.8489 15.0963H20.2297L19.8536 16.6209C19.8357 16.7318 19.8043 16.8103 19.7596 16.8565C19.7238 16.8935 19.6611 16.912 19.5715 16.912ZM21.5191 9.67706L20.5521 13.6826H22.54L21.5729 9.67706H21.5191Z" fill="white"/>
<path d="M28.8212 16.912H27.693C27.496 16.912 27.3975 16.815 27.3975 16.6209V9.67706C27.3975 9.57542 27.3482 9.5246 27.2497 9.5246H25.7185C25.5304 9.5246 25.4364 9.42758 25.4364 9.23354V8.29106C25.4364 8.09702 25.5304 8 25.7185 8H30.7957C30.9838 8 31.0778 8.09702 31.0778 8.29106V9.23354C31.0778 9.42758 30.9838 9.5246 30.7957 9.5246H29.2645C29.157 9.5246 29.1033 9.57542 29.1033 9.67706V16.6209C29.1033 16.815 29.0093 16.912 28.8212 16.912Z" fill="white"/>
<path d="M34.454 15.3874H35.4077C35.6942 15.3874 35.8957 15.3273 36.0121 15.2072C36.1375 15.0778 36.2001 14.8653 36.2001 14.5696V10.3423C36.2001 10.0467 36.1375 9.83876 36.0121 9.71864C35.8957 9.58928 35.6942 9.5246 35.4077 9.5246H34.454C34.1675 9.5246 33.966 9.58928 33.8496 9.71864C33.7332 9.83876 33.675 10.0467 33.675 10.3423V14.5696C33.675 14.8653 33.7332 15.0778 33.8496 15.2072C33.966 15.3273 34.1675 15.3874 34.454 15.3874ZM35.6897 16.912H34.1854C33.478 16.912 32.9317 16.7179 32.5467 16.3299C32.1616 15.9418 31.9691 15.3828 31.9691 14.6528V10.2592C31.9691 9.52922 32.1616 8.9702 32.5467 8.58212C32.9317 8.19404 33.478 8 34.1854 8H35.6897C36.3971 8 36.9434 8.19404 37.3284 8.58212C37.7135 8.9702 37.906 9.52922 37.906 10.2592V14.6528C37.906 15.3828 37.7135 15.9418 37.3284 16.3299C36.9434 16.7179 36.3971 16.912 35.6897 16.912Z" fill="white"/>
<path d="M39.2862 16.6209V15.7893C39.2862 15.4844 39.3444 15.258 39.4608 15.1102L43.0203 9.69092V9.63548H39.8101C39.622 9.63548 39.528 9.53846 39.528 9.34442V8.29106C39.528 8.09702 39.622 8 39.8101 8H44.5784C44.7575 8 44.847 8.09702 44.847 8.29106V9.48302C44.847 9.76022 44.7798 10.0005 44.6455 10.2037L41.301 15.2211V15.2765H44.7127C44.8918 15.2765 44.9813 15.3643 44.9813 15.5398V16.5932C44.9813 16.8057 44.8918 16.912 44.7127 16.912H39.5683C39.3802 16.912 39.2862 16.815 39.2862 16.6209Z" fill="white"/>
</svg>
