<svg width="64" height="64" viewBox="0 0 64 64" fill="none" xmlns="http://www.w3.org/2000/svg">
<rect width="64" height="64" rx="12" fill="#8A7FDF"/>
<path d="M49.2353 33.8884L52.3209 33.8884C52.5601 33.8884 52.7757 33.7443 52.8672 33.5233C52.9492 33.3255 52.9177 33.0989 52.7851 32.9308L52.2674 32.2746C51.899 31.8078 51.3435 31.5273 50.7492 31.5081L49.2746 31.4604C48.8857 31.4479 48.5143 31.6224 48.2759 31.9298C47.657 32.7277 48.2256 33.8884 49.2353 33.8884Z" fill="#DAC7FC"/>
<path d="M37.9554 45.1301L37.9554 33.4829C37.8791 32.7957 38.2302 31.4214 40.245 31.4214C42.2599 31.4214 47.7245 31.4214 50.205 31.4214C50.9682 31.4557 52.4946 31.9161 52.4946 33.4829" stroke="#FAFAFA" stroke-width="2" stroke-linecap="round"/>
<path d="M42.2326 44.8691L34.4619 44.8691C33.4682 44.8691 32.9146 46.0176 33.5337 46.7949C33.7588 47.0776 34.1005 47.2423 34.4619 47.2423L42.2326 47.2423C43.0539 47.2423 43.6268 46.4281 43.3495 45.655C43.1803 45.1836 42.7334 44.8691 42.2326 44.8691Z" fill="#DAC7FC"/>
<path d="M48.2417 33.1842L48.2417 45.3307C48.3181 46.0473 47.967 47.4805 45.9521 47.4805C43.9372 47.4805 38.4726 47.4805 35.9922 47.4805C35.229 47.4446 33.7025 46.9645 33.7025 45.3307" stroke="#FAFAFA" stroke-width="2" stroke-linecap="round"/>
<path d="M45.2213 47.4805C44.4804 47.4446 42.9986 46.9635 42.9986 45.3262" stroke="#FAFAFA" stroke-width="2" stroke-linecap="round"/>
<path d="M48.2596 44.5426L48.2596 33.3945C48.1918 32.7368 48.5039 31.4214 50.2949 31.4214" stroke="#FAFAFA" stroke-width="2" stroke-linecap="round"/>
<line x1="41.3712" y1="35.2251" x2="44.6249" y2="35.2251" stroke="#DAC7FC" stroke-width="2" stroke-linecap="round"/>
<line x1="41.3711" y1="37.9702" x2="44.6248" y2="37.9702" stroke="#DAC7FC" stroke-width="2" stroke-linecap="round"/>
<line x1="41.3712" y1="40.7153" x2="44.6249" y2="40.7153" stroke="#DAC7FC" stroke-width="2" stroke-linecap="round"/>
<path d="M16.6081 39.6494C16.8599 39.6494 17.0682 39.738 17.2328 39.9152C17.4072 40.082 17.4944 40.301 17.4944 40.572C17.4944 40.8327 17.4072 41.0516 17.2328 41.2288C17.0682 41.3956 16.8599 41.479 16.6081 41.479H11.8862C11.6343 41.479 11.4212 41.3904 11.2469 41.2132C11.0822 41.0255 10.9999 40.7962 10.9999 40.5251V31.4864C10.9999 31.2153 11.0871 30.9912 11.2614 30.814C11.4358 30.6263 11.6585 30.5325 11.9297 30.5325C12.1719 30.5325 12.3801 30.6263 12.5545 30.814C12.7288 30.9912 12.816 31.2153 12.816 31.4864V39.6494H16.6081ZM20.6548 40.5251C20.6548 40.7962 20.5725 41.0255 20.4078 41.2132C20.2431 41.3904 20.0349 41.479 19.783 41.479C19.5312 41.479 19.323 41.3904 19.1583 41.2132C18.9936 41.0255 18.9113 40.7962 18.9113 40.5251V34.0666C18.9113 33.7956 18.9936 33.5714 19.1583 33.3942C19.323 33.2066 19.5312 33.1127 19.783 33.1127C20.0349 33.1127 20.2431 33.2066 20.4078 33.3942C20.5725 33.5714 20.6548 33.7956 20.6548 34.0666V40.5251ZM19.7685 32.0963C19.4392 32.0963 19.2067 32.0389 19.0711 31.9242C18.9355 31.8096 18.8677 31.6063 18.8677 31.3144V31.0172C18.8677 30.7253 18.9404 30.522 19.0857 30.4074C19.2309 30.2927 19.4634 30.2354 19.783 30.2354C20.1221 30.2354 20.3594 30.2927 20.495 30.4074C20.6306 30.522 20.6984 30.7253 20.6984 31.0172V31.3144C20.6984 31.6167 20.6257 31.8252 20.4804 31.9399C20.3448 32.0441 20.1075 32.0963 19.7685 32.0963ZM21.9962 40.1811C21.9091 40.056 21.8655 39.8996 21.8655 39.7119C21.8655 39.4409 21.9914 39.2115 22.2432 39.0239C22.3788 38.93 22.5193 38.8831 22.6646 38.8831C22.868 38.8831 23.0617 38.9822 23.2457 39.1802C23.5363 39.5034 23.8366 39.7432 24.1465 39.8996C24.4662 40.056 24.8488 40.1342 25.2943 40.1342C26.0499 40.1029 26.4276 39.7953 26.4276 39.2115C26.4276 38.9092 26.2968 38.6798 26.0353 38.5234C25.7835 38.3671 25.3864 38.2107 24.8439 38.0543C24.2821 37.8875 23.8221 37.7207 23.4637 37.5539C23.115 37.3871 22.8099 37.1369 22.5483 36.8033C22.2965 36.4592 22.1706 36.0005 22.1706 35.4271C22.1706 34.9267 22.3014 34.4941 22.5629 34.1292C22.8341 33.7539 23.1828 33.4672 23.609 33.2691C24.0448 33.0606 24.5049 32.9564 24.9892 32.9564C25.4832 32.9564 25.9772 33.0554 26.4712 33.2535C26.9652 33.4516 27.3526 33.7435 27.6335 34.1292C27.7594 34.296 27.8224 34.4837 27.8224 34.6922C27.8224 34.9319 27.7304 35.13 27.5463 35.2864C27.4107 35.4011 27.2558 35.4584 27.0814 35.4584C26.8683 35.4584 26.694 35.3854 26.5584 35.2395C26.384 35.0101 26.1564 34.8277 25.8755 34.6922C25.6043 34.5566 25.2943 34.4889 24.9456 34.4889C24.2095 34.4889 23.8414 34.7756 23.8414 35.349C23.8414 35.5783 23.9092 35.766 24.0448 35.9119C24.1804 36.0474 24.35 36.1569 24.5534 36.2403C24.7665 36.3133 25.0619 36.4071 25.4396 36.5218C25.9627 36.6782 26.3985 36.8398 26.7472 37.0066C27.0959 37.1734 27.3914 37.4288 27.6335 37.7728C27.8757 38.1169 27.9967 38.5704 27.9967 39.1333C27.9967 39.6442 27.8563 40.0925 27.5754 40.4782C27.2945 40.8535 26.9313 41.1402 26.4857 41.3383C26.0499 41.5364 25.5995 41.6354 25.1345 41.6354C24.4952 41.6354 23.8995 41.5207 23.3474 41.2914C22.7953 41.062 22.3449 40.6919 21.9962 40.1811ZM33.2043 39.7119C33.3399 39.7119 33.461 39.7849 33.5675 39.9309C33.6837 40.0664 33.7419 40.2488 33.7419 40.4782C33.7419 40.7597 33.5966 40.9995 33.306 41.1975C33.0251 41.3852 32.7054 41.479 32.3471 41.479C31.7465 41.479 31.238 41.3435 30.8215 41.0724C30.4147 40.7909 30.2113 40.2019 30.2113 39.3053V34.9893H29.543C29.3105 34.9893 29.1168 34.9059 28.9618 34.7391C28.8068 34.5723 28.7293 34.3638 28.7293 34.1136C28.7293 33.8738 28.8068 33.6757 28.9618 33.5193C29.1168 33.3525 29.3105 33.2691 29.543 33.2691H30.2113V32.2683C30.2113 31.9972 30.2936 31.7731 30.4583 31.5959C30.6326 31.4082 30.8457 31.3144 31.0976 31.3144C31.3397 31.3144 31.5431 31.4082 31.7078 31.5959C31.8724 31.7731 31.9548 31.9972 31.9548 32.2683V33.2691H32.9863C33.2188 33.2691 33.4125 33.3525 33.5675 33.5193C33.7225 33.6861 33.8 33.8946 33.8 34.1448C33.8 34.3846 33.7225 34.5879 33.5675 34.7547C33.4125 34.9111 33.2188 34.9893 32.9863 34.9893H31.9548V39.2272C31.9548 39.4461 32.0081 39.6077 32.1146 39.7119C32.2211 39.8058 32.3664 39.8527 32.5505 39.8527C32.628 39.8527 32.7345 39.8318 32.8701 39.7901C32.9863 39.738 33.0977 39.7119 33.2043 39.7119Z" fill="white"/>
<path d="M18.9799 17.3166C19.2203 17.3166 19.4157 17.3957 19.566 17.5537C19.7162 17.7117 19.7914 17.9092 19.7914 18.1463V26.7833C19.7914 27.0401 19.7012 27.2574 19.5209 27.4352C19.3506 27.6031 19.1351 27.6871 18.8747 27.6871C18.7344 27.6871 18.5941 27.6673 18.4539 27.6278C18.3236 27.5784 18.2284 27.5142 18.1683 27.4352L12.653 20.5315V26.8574C12.653 27.0945 12.5728 27.292 12.4125 27.45C12.2622 27.608 12.0619 27.6871 11.8114 27.6871C11.5709 27.6871 11.3756 27.608 11.2253 27.45C11.075 27.292 10.9999 27.0945 10.9999 26.8574V18.2203C10.9999 17.9636 11.085 17.7512 11.2554 17.5833C11.4357 17.4055 11.6561 17.3166 11.9166 17.3166C12.0669 17.3166 12.2122 17.3463 12.3524 17.4055C12.5027 17.4648 12.6129 17.5438 12.683 17.6426L18.1533 24.5167V18.1463C18.1533 17.9092 18.2284 17.7117 18.3787 17.5537C18.539 17.3957 18.7394 17.3166 18.9799 17.3166ZM23.5988 26.7833C23.5988 27.0401 23.5137 27.2574 23.3433 27.4352C23.173 27.6031 22.9576 27.6871 22.6971 27.6871C22.4366 27.6871 22.2212 27.6031 22.0509 27.4352C21.8806 27.2574 21.7954 27.0401 21.7954 26.7833V20.6648C21.7954 20.408 21.8806 20.1957 22.0509 20.0278C22.2212 19.85 22.4366 19.7611 22.6971 19.7611C22.9576 19.7611 23.173 19.85 23.3433 20.0278C23.5137 20.1957 23.5988 20.408 23.5988 20.6648V26.7833ZM22.6821 18.7981C22.3415 18.7981 22.101 18.7438 21.9607 18.6352C21.8205 18.5265 21.7503 18.3339 21.7503 18.0574V17.7759C21.7503 17.4994 21.8255 17.3068 21.9758 17.1981C22.126 17.0895 22.3665 17.0352 22.6971 17.0352C23.0478 17.0352 23.2932 17.0895 23.4335 17.1981C23.5738 17.3068 23.6439 17.4994 23.6439 17.7759V18.0574C23.6439 18.3438 23.5688 18.5413 23.4185 18.65C23.2782 18.7487 23.0328 18.7981 22.6821 18.7981ZM28.9538 19.6129C29.8054 19.6129 30.4916 19.7463 31.0126 20.0129C31.5336 20.2697 31.7941 20.6154 31.7941 21.05C31.7941 21.2673 31.729 21.4599 31.5987 21.6278C31.4685 21.7858 31.2982 21.8648 31.0878 21.8648C30.9275 21.8648 30.7972 21.8451 30.697 21.8055C30.5968 21.7562 30.4967 21.6969 30.3965 21.6278C30.3063 21.5488 30.2161 21.4846 30.126 21.4352C30.0258 21.3858 29.8755 21.3413 29.6751 21.3018C29.4848 21.2623 29.3295 21.2426 29.2092 21.2426C28.4578 21.2426 27.8667 21.4747 27.4359 21.9389C27.0151 22.3932 26.8047 22.9907 26.8047 23.7315C26.8047 24.4426 27.0201 25.0352 27.4509 25.5093C27.8817 25.9735 28.4328 26.2056 29.104 26.2056C29.595 26.2056 29.9606 26.1463 30.2011 26.0278C30.2612 25.9982 30.3414 25.9488 30.4416 25.8796C30.5518 25.8006 30.6519 25.7414 30.7421 25.7019C30.8323 25.6624 30.9425 25.6426 31.0727 25.6426C31.3232 25.6426 31.5186 25.7216 31.6588 25.8796C31.8091 26.0377 31.8843 26.2401 31.8843 26.487C31.8843 26.7241 31.744 26.9463 31.4635 27.1537C31.1829 27.3611 30.8122 27.529 30.3514 27.6574C29.8905 27.7759 29.3996 27.8352 28.8786 27.8352C28.1072 27.8352 27.4259 27.6574 26.8348 27.3019C26.2537 26.9463 25.8028 26.4574 25.4822 25.8352C25.1616 25.2031 25.0013 24.5019 25.0013 23.7315C25.0013 22.9315 25.1666 22.2204 25.4973 21.5981C25.8379 20.9759 26.3088 20.492 26.9099 20.1463C27.511 19.7907 28.1923 19.6129 28.9538 19.6129ZM40.4 23.5389C40.39 23.7759 40.2948 23.9685 40.1145 24.1167C39.9341 24.2648 39.7237 24.3389 39.4833 24.3389H34.524C34.6442 24.9216 34.9197 25.3809 35.3505 25.7167C35.7813 26.0426 36.2672 26.2056 36.8083 26.2056C37.219 26.2056 37.5396 26.171 37.7701 26.1019C38.0005 26.0228 38.1808 25.9438 38.3111 25.8648C38.4513 25.7759 38.5465 25.7167 38.5966 25.687C38.7769 25.5982 38.9473 25.5537 39.1076 25.5537C39.318 25.5537 39.4983 25.6278 39.6486 25.7759C39.7989 25.9241 39.874 26.0969 39.874 26.2945C39.874 26.5611 39.7337 26.8031 39.4532 27.0204C39.1727 27.2475 38.797 27.4401 38.3261 27.5982C37.8552 27.7562 37.3793 27.8352 36.8984 27.8352C36.0568 27.8352 35.3205 27.6624 34.6893 27.3167C34.0681 26.971 33.5872 26.4969 33.2466 25.8945C32.9059 25.2821 32.7356 24.5957 32.7356 23.8352C32.7356 22.9858 32.9159 22.2401 33.2766 21.5981C33.6373 20.9562 34.1132 20.4673 34.7043 20.1315C35.2954 19.7858 35.9266 19.6129 36.5979 19.6129C37.2591 19.6129 37.8803 19.7907 38.4614 20.1463C39.0525 20.5018 39.5233 20.9809 39.874 21.5833C40.2247 22.1858 40.4 22.8376 40.4 23.5389ZM36.5979 21.2426C35.4357 21.2426 34.7494 21.7809 34.539 22.8574H38.4764V22.7537C38.4363 22.3389 38.2309 21.9833 37.8602 21.687C37.4895 21.3907 37.0687 21.2426 36.5979 21.2426Z" fill="white"/>
</svg>
