<svg width="64" height="64" viewBox="0 0 64 64" fill="none" xmlns="http://www.w3.org/2000/svg">
<rect x="1" y="1" width="62" height="62" rx="11" fill="#202020" stroke="#202020" stroke-width="2"/>
<path fill-rule="evenodd" clip-rule="evenodd" d="M19.0318 24.3043C19.0743 23.9017 18.9142 23.5046 18.6026 23.2344L15.4293 19.5499V19H25.2864L32.9053 35.0956L39.6033 19H49V19.5499L46.2857 22.0567C46.0519 22.2287 45.9358 22.5112 45.9839 22.7909V41.2105C45.9358 41.4888 46.0519 41.7713 46.2857 41.9433L48.9362 44.4501V45H35.6026V44.4501L38.3495 41.8819C38.6187 41.6226 38.6187 41.5462 38.6187 41.1491V26.2611L30.9843 44.94H29.9529L21.0633 26.2611V38.7801C20.9897 39.3055 21.171 39.8363 21.5549 40.2157L25.1263 44.3887V44.94H15V44.3887L18.5714 40.2157C18.9539 39.8349 19.1239 39.3014 19.0318 38.7801V24.3043Z" fill="white"/>
</svg>
