<svg width="64" height="64" viewBox="0 0 64 64" fill="none" xmlns="http://www.w3.org/2000/svg">
<rect width="64" height="64" rx="12" fill="#282F44"/>
<path d="M15.3331 52.977C14.8703 52.977 14.4405 52.9058 14.0437 52.7636C13.6536 52.6145 13.3495 52.4282 13.1313 52.2047C13.0321 52.0963 12.9891 51.9743 13.0023 51.8389C13.0222 51.6966 13.0883 51.5814 13.2007 51.4934C13.3329 51.385 13.4619 51.3409 13.5875 51.3612C13.7197 51.3748 13.8322 51.4324 13.9247 51.534C14.0371 51.6627 14.2157 51.7847 14.4603 51.8998C14.7116 52.0082 14.9893 52.0624 15.2934 52.0624C15.6769 52.0624 15.9679 51.9981 16.1662 51.8693C16.3712 51.7406 16.477 51.5746 16.4836 51.3714C16.4902 51.1682 16.3943 50.992 16.196 50.843C16.0042 50.694 15.6505 50.572 15.1347 50.4772C14.4669 50.3417 13.9809 50.1385 13.6768 49.8675C13.3792 49.5965 13.2305 49.2645 13.2305 48.8716C13.2305 48.5261 13.3296 48.2416 13.528 48.018C13.7264 47.7877 13.9809 47.6183 14.2917 47.5099C14.6025 47.3948 14.9265 47.3372 15.2637 47.3372C15.7001 47.3372 16.0869 47.4083 16.4241 47.5506C16.7613 47.6929 17.0291 47.8893 17.2275 48.14C17.32 48.2484 17.363 48.3635 17.3564 48.4855C17.3498 48.6006 17.2936 48.6989 17.1878 48.7802C17.082 48.8547 16.9564 48.8784 16.8109 48.8513C16.6654 48.8242 16.5431 48.7632 16.4439 48.6684C16.2786 48.5058 16.1001 48.394 15.9084 48.3331C15.7166 48.2721 15.4951 48.2416 15.2438 48.2416C14.9529 48.2416 14.705 48.2924 14.5 48.394C14.3016 48.4956 14.2024 48.6447 14.2024 48.8411C14.2024 48.9631 14.2322 49.0749 14.2917 49.1765C14.3578 49.2713 14.4834 49.3594 14.6686 49.4407C14.8537 49.5152 15.1248 49.5897 15.4819 49.6642C16.229 49.8133 16.7448 50.0267 17.0291 50.3044C17.32 50.5754 17.4655 50.9107 17.4655 51.3104C17.4655 51.6221 17.3829 51.9032 17.2176 52.1539C17.0589 52.4045 16.8208 52.6044 16.5034 52.7534C16.1927 52.9024 15.8026 52.977 15.3331 52.977Z" fill="#ECECEC"/>
<path d="M21.006 52.977C20.5233 52.977 20.0902 52.855 19.7067 52.6111C19.3232 52.3605 19.019 52.0252 18.7942 51.6051C18.576 51.1783 18.4669 50.6973 18.4669 50.1622C18.4669 49.627 18.5859 49.146 18.824 48.7192C19.0686 48.2924 19.3959 47.9571 19.8059 47.7132C20.2224 47.4625 20.6886 47.3372 21.2043 47.3372C21.7201 47.3372 22.1829 47.4625 22.5929 47.7132C23.0028 47.9571 23.3268 48.2924 23.5649 48.7192C23.8095 49.146 23.9318 49.627 23.9318 50.1622V52.4282C23.9318 52.5773 23.8822 52.7026 23.7831 52.8042C23.6905 52.8991 23.5715 52.9465 23.426 52.9465C23.2805 52.9465 23.1582 52.8991 23.059 52.8042C22.9665 52.7026 22.9202 52.5773 22.9202 52.4282V52.0522C22.6888 52.3368 22.4077 52.5637 22.0771 52.7331C21.7531 52.8957 21.3961 52.977 21.006 52.977ZM21.2043 52.0624C21.5416 52.0624 21.8424 51.9811 22.1069 51.8185C22.3714 51.6492 22.5797 51.4222 22.7317 51.1377C22.8838 50.8464 22.9599 50.5212 22.9599 50.1622C22.9599 49.7963 22.8838 49.4712 22.7317 49.1866C22.5797 48.8953 22.3714 48.6684 22.1069 48.5058C21.8424 48.3364 21.5416 48.2518 21.2043 48.2518C20.8737 48.2518 20.5729 48.3364 20.3018 48.5058C20.0373 48.6684 19.8257 48.8953 19.667 49.1866C19.5149 49.4712 19.4389 49.7963 19.4389 50.1622C19.4389 50.5212 19.5149 50.8464 19.667 51.1377C19.8257 51.4222 20.0373 51.6492 20.3018 51.8185C20.5729 51.9811 20.8737 52.0624 21.2043 52.0624Z" fill="#ECECEC"/>
<path d="M27.4112 52.9363C27.0806 52.9363 26.783 52.8516 26.5185 52.6823C26.2541 52.5061 26.0458 52.269 25.8937 51.971C25.7416 51.6729 25.6656 51.3375 25.6656 50.9649V48.455H25.2093C25.0705 48.455 24.9581 48.4143 24.8721 48.3331C24.7862 48.2518 24.7432 48.1501 24.7432 48.0282C24.7432 47.8927 24.7862 47.7843 24.8721 47.703C24.9581 47.6217 25.0705 47.5811 25.2093 47.5811H25.6656V46.1178C25.6656 45.9688 25.7119 45.8468 25.8044 45.752C25.897 45.6571 26.016 45.6097 26.1615 45.6097C26.3069 45.6097 26.426 45.6571 26.5185 45.752C26.6111 45.8468 26.6574 45.9688 26.6574 46.1178V47.5811H27.5004C27.6393 47.5811 27.7517 47.6217 27.8377 47.703C27.9236 47.7843 27.9666 47.8927 27.9666 48.0282C27.9666 48.1501 27.9236 48.2518 27.8377 48.3331C27.7517 48.4143 27.6393 48.455 27.5004 48.455H26.6574V50.9649C26.6574 51.2359 26.7301 51.4629 26.8756 51.6458C27.0211 51.8287 27.1996 51.9201 27.4112 51.9201H27.7484C27.8674 51.9201 27.9666 51.9676 28.0459 52.0624C28.1319 52.1573 28.1749 52.2792 28.1749 52.4282C28.1749 52.5773 28.1187 52.6992 28.0063 52.7941C27.9005 52.8889 27.7616 52.9363 27.5897 52.9363H27.4112Z" fill="#ECECEC"/>
<path d="M31.6995 52.9871C31.2432 52.9871 30.8333 52.8889 30.4696 52.6924C30.1126 52.4892 29.8282 52.1945 29.6166 51.8084C29.4117 51.4222 29.3092 50.948 29.3092 50.3857V47.8859C29.3092 47.7369 29.3555 47.615 29.448 47.5201C29.5472 47.4185 29.6695 47.3677 29.815 47.3677C29.9605 47.3677 30.0795 47.4185 30.1721 47.5201C30.2712 47.615 30.3208 47.7369 30.3208 47.8859V50.3857C30.3208 50.9616 30.4696 51.385 30.7671 51.6559C31.0713 51.9201 31.4482 52.0522 31.8978 52.0522C32.1821 52.0522 32.4334 51.9947 32.6516 51.8795C32.8764 51.7643 33.0549 51.6085 33.1872 51.4121C33.3194 51.2156 33.3855 50.9954 33.3855 50.7515V47.8859C33.3855 47.7301 33.4318 47.6048 33.5244 47.5099C33.6236 47.4151 33.7459 47.3677 33.8914 47.3677C34.0434 47.3677 34.1658 47.4151 34.2583 47.5099C34.3509 47.6048 34.3972 47.7301 34.3972 47.8859V52.4181C34.3972 52.5671 34.3509 52.6924 34.2583 52.7941C34.1658 52.8889 34.0434 52.9363 33.8914 52.9363C33.7459 52.9363 33.6236 52.8889 33.5244 52.7941C33.4318 52.6924 33.3855 52.5671 33.3855 52.4181V52.3063C33.1806 52.5163 32.9326 52.6823 32.6417 52.8042C32.3507 52.9262 32.0367 52.9871 31.6995 52.9871Z" fill="#ECECEC"/>
<path d="M36.6649 52.9363C36.5194 52.9363 36.4004 52.8923 36.3078 52.8042C36.2219 52.7094 36.1789 52.5874 36.1789 52.4384V45.4979C36.1789 45.3489 36.2219 45.2303 36.3078 45.1423C36.4004 45.0474 36.5194 45 36.6649 45C36.8104 45 36.9261 45.0474 37.012 45.1423C37.1046 45.2303 37.1509 45.3489 37.1509 45.4979V49.6338L39.561 47.4287C39.6602 47.3338 39.7693 47.2898 39.8883 47.2966C40.0139 47.3033 40.1197 47.3575 40.2057 47.4591C40.2982 47.5608 40.3412 47.6725 40.3346 47.7945C40.328 47.9164 40.2751 48.0248 40.1759 48.1197L38.351 49.7862L40.2751 52.2047C40.3611 52.3131 40.3974 52.4316 40.3842 52.5603C40.3776 52.6823 40.3181 52.7907 40.2057 52.8855C40.0999 52.9736 39.9809 53.0108 39.8486 52.9973C39.723 52.9905 39.6172 52.9329 39.5312 52.8245L37.6468 50.4365L37.1509 50.8836V52.4384C37.1509 52.5874 37.1046 52.7094 37.012 52.8042C36.9261 52.8923 36.8104 52.9363 36.6649 52.9363Z" fill="#ECECEC"/>
<path d="M43.115 52.9363C42.8241 52.9363 42.5662 52.855 42.3414 52.6924C42.1166 52.5299 41.9414 52.3097 41.8157 52.0319C41.6901 51.7474 41.6273 51.4222 41.6273 51.0564V45.5081C41.6273 45.359 41.6736 45.2371 41.7662 45.1423C41.8587 45.0474 41.9777 45 42.1232 45C42.2687 45 42.3877 45.0474 42.4803 45.1423C42.5728 45.2371 42.6191 45.359 42.6191 45.5081V51.0564C42.6191 51.3071 42.6654 51.5137 42.758 51.6763C42.8505 51.8389 42.9696 51.9201 43.115 51.9201H43.363C43.4952 51.9201 43.601 51.9676 43.6804 52.0624C43.7663 52.1573 43.8093 52.2792 43.8093 52.4282C43.8093 52.5773 43.7465 52.6992 43.6208 52.7941C43.4952 52.8889 43.3332 52.9363 43.1349 52.9363H43.115Z" fill="#ECECEC"/>
<path d="M45.4042 52.9363C45.2587 52.9363 45.1364 52.8889 45.0372 52.7941C44.9446 52.6924 44.8984 52.5671 44.8984 52.4181V47.8961C44.8984 47.7403 44.9446 47.615 45.0372 47.5201C45.1364 47.4253 45.2587 47.3778 45.4042 47.3778C45.5563 47.3778 45.6786 47.4253 45.7712 47.5201C45.8637 47.615 45.91 47.7403 45.91 47.8961V52.4181C45.91 52.5671 45.8637 52.6924 45.7712 52.7941C45.6786 52.8889 45.5563 52.9363 45.4042 52.9363ZM45.4042 46.4735C45.2257 46.4735 45.0703 46.4091 44.938 46.2804C44.8124 46.1449 44.7496 45.9857 44.7496 45.8028C44.7496 45.6199 44.8124 45.4641 44.938 45.3353C45.0703 45.1998 45.2257 45.1321 45.4042 45.1321C45.5827 45.1321 45.7348 45.1998 45.8604 45.3353C45.9927 45.4641 46.0588 45.6199 46.0588 45.8028C46.0588 45.9857 45.9927 46.1449 45.8604 46.2804C45.7348 46.4091 45.5827 46.4735 45.4042 46.4735Z" fill="#ECECEC"/>
<path d="M48.278 52.9363C48.1326 52.9363 48.0136 52.8923 47.921 52.8042C47.835 52.7094 47.7921 52.5874 47.7921 52.4384V45.4979C47.7921 45.3489 47.835 45.2303 47.921 45.1423C48.0136 45.0474 48.1326 45 48.278 45C48.4235 45 48.5392 45.0474 48.6252 45.1423C48.7178 45.2303 48.764 45.3489 48.764 45.4979V49.6338L51.1741 47.4287C51.2733 47.3338 51.3824 47.2898 51.5014 47.2966C51.6271 47.3033 51.7329 47.3575 51.8188 47.4591C51.9114 47.5608 51.9544 47.6725 51.9478 47.7945C51.9412 47.9164 51.8883 48.0248 51.7891 48.1197L49.9641 49.7862L51.8883 52.2047C51.9742 52.3131 52.0106 52.4316 51.9974 52.5603C51.9907 52.6823 51.9312 52.7907 51.8188 52.8855C51.713 52.9736 51.594 53.0108 51.4618 52.9973C51.3361 52.9905 51.2304 52.9329 51.1444 52.8245L49.2599 50.4365L48.764 50.8836V52.4384C48.764 52.5874 48.7178 52.7094 48.6252 52.8042C48.5392 52.8923 48.4235 52.9363 48.278 52.9363Z" fill="#ECECEC"/>
<path fill-rule="evenodd" clip-rule="evenodd" d="M26.625 9H30.375C35.1385 9 39 12.9606 39 17.8462V25.1538C39 30.0394 35.1385 34 30.375 34H26.625C21.8615 34 18 30.0394 18 25.1538V17.8462C18 12.9606 21.8615 9 26.625 9ZM26.625 13.4231C24.2433 13.4231 22.3125 15.4034 22.3125 17.8462V25.1538C22.3125 27.5966 24.2433 29.5769 26.625 29.5769H30.375C32.7567 29.5769 34.6875 27.5966 34.6875 25.1538V17.8462C34.6875 15.4034 32.7567 13.4231 30.375 13.4231H26.625Z" fill="#03B7F2"/>
<path fill-rule="evenodd" clip-rule="evenodd" d="M32.8772 17H37.1228C42.0256 17 46 20.9606 46 25.8462V33.1538C46 38.0394 42.0255 42 37.1228 42H32.8772C27.9744 42 24 38.0394 24 33.1538V25.8462C24 20.9606 27.9745 17 32.8772 17ZM32.8772 21.4231C30.4258 21.4231 28.4386 23.4034 28.4386 25.8462V33.1538C28.4386 35.5966 30.4258 37.5769 32.8772 37.5769H37.1228C39.5742 37.5769 41.5614 35.5966 41.5614 33.1538V25.8462C41.5614 23.4034 39.5742 21.4231 37.1228 21.4231H32.8772Z" fill="#E6AF2E"/>
</svg>
