<svg width="64" height="64" viewBox="0 0 64 64" fill="none" xmlns="http://www.w3.org/2000/svg">
<rect x="-0.000488281" width="64" height="64" rx="12" fill="#96BB7C"/>
<path d="M21.2251 46.6362C21.2251 46.5955 21.2158 46.57 21.2045 46.5795C21.1932 46.589 21.1697 46.5508 21.1524 46.4945C21.1342 46.4351 21.106 46.3921 21.0853 46.3921C21.0572 46.3921 21.055 46.3836 21.0745 46.3516C21.0936 46.3204 21.0929 46.3081 21.0718 46.2984C21.0502 46.2885 21.0512 46.2746 21.0762 46.2331C21.1006 46.1929 21.1018 46.1774 21.0816 46.1681C21.0669 46.1615 21.055 46.1433 21.055 46.1278C21.055 46.1123 21.0644 46.1075 21.076 46.1172C21.0881 46.1274 21.0916 46.1158 21.0844 46.09C21.0774 46.0653 21.0826 46.0452 21.096 46.0452C21.1137 46.0452 21.1141 46.0295 21.0975 45.9873C21.0792 45.9409 21.0813 45.9295 21.1083 45.9295C21.1353 45.9295 21.1366 45.9221 21.1151 45.8908C21.0876 45.8507 21.0341 45.8865 21.0411 45.9403C21.0428 45.9543 21.0331 45.9713 21.0194 45.9781C21.003 45.9864 20.9988 45.9687 21.0068 45.9266C21.0136 45.8914 21.0105 45.8695 20.9998 45.878C20.9892 45.8864 20.9614 45.8838 20.938 45.8721C20.9043 45.8552 20.9142 45.8465 20.9859 45.8298C21.0422 45.8167 21.0762 45.7934 21.0762 45.7679C21.0762 45.7455 21.0949 45.7271 21.1176 45.7271C21.1403 45.7271 21.172 45.7017 21.188 45.6706C21.2167 45.615 21.325 45.539 21.3601 45.5499C21.37 45.553 21.4322 45.537 21.4984 45.5143C21.5644 45.4916 21.6784 45.4639 21.7515 45.4526C21.8246 45.4414 21.8898 45.4205 21.8963 45.4062C21.9028 45.3919 21.9291 45.3798 21.9547 45.3795C21.9804 45.3791 22.0588 45.3404 22.1289 45.2934C22.1991 45.2464 22.2727 45.2077 22.2925 45.2073C22.3123 45.207 22.3344 45.1937 22.3416 45.1777C22.3488 45.1618 22.344 45.1488 22.3308 45.1488C22.3013 45.1488 22.3119 45.0195 22.3416 45.0167C22.3533 45.0156 22.4048 44.9984 22.4561 44.9784C22.5074 44.9585 22.5727 44.9501 22.6013 44.9598C22.6298 44.9696 22.6835 44.9648 22.7207 44.9492C22.7578 44.9336 22.8416 44.9067 22.9069 44.8893C23.086 44.8417 23.1816 44.8019 23.1816 44.775C23.1816 44.7471 22.0907 44.7666 21.8206 44.7993C21.6783 44.8165 21.624 44.8117 21.5654 44.7771C21.5244 44.7529 21.4862 44.7312 21.4803 44.7289C21.4745 44.7266 21.4417 44.709 21.4075 44.6898C21.3733 44.6707 21.3303 44.6629 21.3118 44.6727C21.2934 44.6825 21.0103 44.6952 20.6828 44.7008C20.3553 44.7066 20.0443 44.7242 19.9916 44.74C19.939 44.7559 19.7813 44.7839 19.6411 44.8024C19.501 44.8208 19.368 44.8493 19.3456 44.8656C19.3232 44.8819 19.2582 44.8891 19.201 44.8816C19.1439 44.8741 19.092 44.8794 19.0857 44.8933C19.0794 44.9071 19.0653 44.911 19.0545 44.9018C19.0436 44.8927 19.0346 44.899 19.0346 44.9158C19.0346 44.9326 19.0275 44.9438 19.0187 44.9407C18.9833 44.928 18.8007 44.9806 18.8007 45.0035C18.8007 45.0317 18.6401 45.0786 18.5793 45.0682C18.557 45.0643 18.5208 45.0874 18.4988 45.1194C18.4768 45.1515 18.4424 45.1793 18.4224 45.1812C18.4024 45.1831 18.3286 45.1874 18.2584 45.1908C18.1882 45.1942 18.0925 45.2121 18.0457 45.2304C17.999 45.2488 17.9245 45.2711 17.8803 45.2801C17.8362 45.289 17.8052 45.3077 17.8115 45.3217C17.8314 45.3652 17.7841 45.3766 17.4146 45.4175C17.395 45.4197 17.3806 45.4338 17.3827 45.4488C17.3848 45.4639 17.3673 45.4839 17.344 45.4932C17.3206 45.5026 17.2773 45.5326 17.2477 45.5599C17.2091 45.5956 17.1286 45.6148 16.9606 45.6282C16.8323 45.6384 16.7051 45.6454 16.6781 45.6437C16.6511 45.6421 16.5995 45.6614 16.5636 45.6866C16.5265 45.7127 16.4926 45.7211 16.4852 45.7061C16.4668 45.669 16.392 45.6335 16.4084 45.6696C16.4257 45.7076 16.405 45.7057 16.3484 45.664C16.2341 45.5798 15.693 45.6437 15.6366 45.7482C15.6191 45.7805 15.6172 45.8023 15.6313 45.8087C15.6434 45.8142 15.6533 45.8302 15.6533 45.8443C15.6533 45.8583 15.6399 45.8629 15.6235 45.8543C15.6072 45.8458 15.5875 45.8527 15.5797 45.8697C15.5591 45.915 15.6866 45.9085 15.7553 45.8606C15.787 45.8386 15.8559 45.8111 15.9085 45.7994C15.9611 45.7877 16.0209 45.7739 16.0414 45.7687C16.0619 45.7636 16.0786 45.7764 16.0786 45.7972C16.0786 45.824 16.1051 45.8323 16.169 45.8254C16.2389 45.818 16.2508 45.8226 16.2217 45.8455C16.201 45.8619 16.1889 45.8858 16.1947 45.8986C16.2073 45.9264 16.0884 45.9543 15.8582 45.9776C15.729 45.9908 15.6868 45.9856 15.6725 45.9548C15.659 45.926 15.6539 45.925 15.6536 45.9512C15.6531 46.0044 15.5253 45.9958 15.4795 45.9395C15.4581 45.9132 15.4406 45.9039 15.4406 45.919C15.4406 45.9356 15.3716 45.9385 15.2652 45.9265C15.1687 45.9155 15.0179 45.8994 14.9302 45.8906C14.8425 45.8819 14.7393 45.8596 14.7009 45.8411C14.6624 45.8226 14.6072 45.8137 14.5781 45.8212C14.549 45.8288 14.5191 45.8217 14.5117 45.8055C14.5035 45.7874 14.509 45.785 14.5262 45.7994C14.5435 45.814 14.5488 45.8114 14.5403 45.7927C14.5243 45.7575 14.4229 45.7256 14.3029 45.718C14.232 45.7135 14.2174 45.7023 14.2155 45.6505C14.2134 45.595 14.2281 45.586 14.3537 45.5663C14.431 45.5541 14.5182 45.5469 14.5474 45.5504L14.6006 45.5566L14.5441 45.5149C14.4463 45.4426 14.3509 45.4121 14.1646 45.3935C14.0652 45.3836 13.9216 45.3543 13.8456 45.3283C13.6708 45.2686 13.064 45.264 13.0375 45.3222C13.0284 45.3423 13.0097 45.3492 12.996 45.3376C12.9604 45.3078 12.5691 45.2977 12.5824 45.327C12.5948 45.3544 12.5917 45.3549 12.3135 45.3663C12.1171 45.3744 12.0342 45.3843 11.7402 45.4347C11.6062 45.4576 11.5278 45.4445 11.4512 45.3862C11.4191 45.3618 11.426 45.3479 11.5033 45.2815C11.5656 45.228 11.6418 45.1966 11.7567 45.1768C11.9528 45.1431 12.14 45.1007 12.2748 45.0593C12.3555 45.0345 12.3716 45.0192 12.3631 44.9753C12.3571 44.9437 12.3405 44.928 12.323 44.9371C12.3066 44.9457 12.2932 44.9382 12.2932 44.9206C12.2932 44.903 12.3099 44.8884 12.3304 44.8882C12.3622 44.8878 12.363 44.8837 12.3357 44.8597C12.3155 44.842 12.3133 44.8315 12.3297 44.8312C12.344 44.831 12.3501 44.8113 12.3433 44.7872C12.3348 44.757 12.356 44.7287 12.4132 44.6942L12.4952 44.6446L12.2874 44.6271C12.1731 44.6176 12.0224 44.611 11.9525 44.6126C11.8825 44.6142 11.8253 44.6139 11.8253 44.612C11.8253 44.61 11.8445 44.5783 11.8678 44.5416C11.8912 44.505 11.9104 44.4838 11.9104 44.4945C11.9104 44.5053 11.9319 44.4949 11.9582 44.4714C11.9846 44.4479 12.0771 44.4138 12.1638 44.3955C12.2505 44.3772 12.3594 44.344 12.4057 44.3218C12.452 44.2996 12.5246 44.281 12.567 44.2804C12.6854 44.2788 12.9838 44.1734 12.8975 44.1636C12.8868 44.1624 12.8589 44.1554 12.8355 44.1481C12.8121 44.1407 12.7813 44.1313 12.767 44.127C12.7183 44.1125 12.7152 44.0844 12.7601 44.065C12.7848 44.0543 12.8299 44.0141 12.8605 43.9756C12.8911 43.9371 12.9375 43.9056 12.9636 43.9056C12.9897 43.9056 13.0219 43.8877 13.0353 43.8658C13.0552 43.8331 13.0377 43.8227 12.9369 43.8071C12.8694 43.7966 12.7855 43.7818 12.7504 43.7741C12.6669 43.7557 12.3347 43.7584 12.3119 43.7776C12.2811 43.8034 12.038 43.8156 12.038 43.7913C12.038 43.7785 12.0523 43.7519 12.0699 43.7321C12.0874 43.7123 12.1018 43.6825 12.1018 43.6659C12.1018 43.6493 12.0955 43.6443 12.0878 43.6547C12.0801 43.6652 12.0609 43.6592 12.0452 43.6416C12.0294 43.6237 12.0167 43.6217 12.0167 43.637C12.0167 43.6522 12.0023 43.6646 11.9848 43.6646C11.9337 43.6646 11.9477 43.6337 12.0179 43.5914C12.0968 43.5439 12.0856 43.524 11.9583 43.4863C11.8422 43.4519 11.8201 43.3981 11.9033 43.3525C11.9895 43.3053 12.3941 43.244 12.6254 43.2432C12.7338 43.2427 12.848 43.2338 12.879 43.2232L12.9354 43.2039L12.8748 43.1365C12.8415 43.0995 12.798 43.0687 12.7783 43.0681C12.7278 43.0666 12.7125 43.0207 12.7395 42.952C12.7681 42.8794 12.9531 42.749 13.0274 42.749C13.0587 42.749 13.0769 42.7365 13.0694 42.7201C13.0622 42.7042 13.0387 42.6912 13.0172 42.6912C12.9812 42.6912 12.9412 42.619 12.9491 42.5683C12.9571 42.5168 12.6197 42.5744 12.5914 42.6294C12.5698 42.6714 12.0268 42.7812 11.9734 42.7543L11.9226 42.7287L11.9721 42.6928C11.9992 42.673 12.1759 42.6218 12.3647 42.579C12.7101 42.5007 12.7941 42.4454 12.5678 42.4454C12.4983 42.4454 12.4343 42.4289 12.4135 42.4056C12.3839 42.3725 12.3431 42.3716 12.1708 42.4002C11.8539 42.4528 11.6698 42.4889 11.6266 42.5069C11.598 42.5189 11.5894 42.5103 11.5947 42.4752C11.6025 42.4239 11.6683 42.3638 11.7714 42.3137C11.8602 42.2706 11.805 42.2326 11.6915 42.2587C11.6423 42.27 11.559 42.2884 11.5063 42.2996L11.4106 42.32L11.4903 42.2161C11.5342 42.1589 11.5701 42.1075 11.5701 42.1018C11.5701 42.0961 11.5108 42.0824 11.4382 42.0712C11.2667 42.0448 11.175 41.9795 11.1762 41.8845C11.1768 41.8345 11.3144 41.7673 11.4424 41.7546C11.4951 41.7493 11.6148 41.7244 11.7083 41.6991C11.8019 41.6738 11.9455 41.6473 12.0274 41.6402C12.1092 41.633 12.2337 41.6134 12.3038 41.5967C12.7396 41.4926 12.8377 41.467 12.8565 41.4524C12.868 41.4434 12.8345 41.4218 12.782 41.4045C12.7292 41.387 12.6866 41.3559 12.6866 41.3349C12.6866 41.2863 12.901 41.1806 13.0955 41.1333C13.1901 41.1103 13.2601 41.0761 13.283 41.0416C13.3036 41.0108 13.3748 40.972 13.4452 40.9531C13.605 40.9104 13.6007 40.8698 13.427 40.7826C13.3898 40.7639 13.3637 40.7336 13.3689 40.7151C13.3809 40.6733 13.4795 40.6095 13.5321 40.6095C13.5539 40.6095 13.5658 40.5964 13.5585 40.5805C13.5513 40.5646 13.4742 40.5516 13.3871 40.5516C13.2438 40.5516 13.1862 40.522 13.2555 40.484C13.3174 40.45 13.0071 40.4684 12.8538 40.5078C12.6629 40.5569 12.559 40.5363 12.559 40.4496C12.559 40.4095 12.6145 40.357 12.7677 40.2521C12.9121 40.1533 12.9678 40.1016 12.9485 40.0847C12.9118 40.0524 12.948 40.0194 13.0907 39.9553C13.292 39.8649 13.4517 39.7134 13.4307 39.6327C13.4164 39.5775 13.4949 39.5475 13.8191 39.4839C13.9802 39.4522 14.1416 39.4063 14.1777 39.3818C14.2138 39.3573 14.2902 39.3297 14.3475 39.3203C14.5055 39.2946 14.8079 39.1906 14.8552 39.1458C14.8783 39.1239 14.9261 39.105 14.9615 39.1039C14.997 39.1028 15.0451 39.0907 15.0685 39.077C15.1023 39.0572 15.0937 39.0513 15.0259 39.0479C14.8446 39.0389 14.7485 39.0146 14.7244 38.9717C14.708 38.9426 14.6824 38.9336 14.65 38.9457C14.6075 38.9616 14.6058 38.9597 14.6382 38.9321C14.6589 38.9145 14.6924 38.9038 14.7126 38.9083C14.7329 38.9129 14.7623 38.9056 14.7781 38.8922C14.795 38.8778 14.8281 38.8834 14.8591 38.906C14.9 38.9357 14.9204 38.9366 14.9518 38.91C14.9773 38.8884 14.9968 38.8862 15.0049 38.9041C15.012 38.9197 15.0723 38.9329 15.1388 38.9335C15.2054 38.934 15.2838 38.9531 15.313 38.9758C15.3767 39.0253 15.3981 39.029 15.3981 38.9903C15.3981 38.9744 15.3832 38.9614 15.3649 38.9614C15.3467 38.9614 15.337 38.9498 15.3434 38.9358C15.3498 38.9217 15.335 38.903 15.3105 38.8943C15.286 38.8856 15.2702 38.8613 15.2752 38.8404C15.2846 38.8018 15.3799 38.7792 15.6746 38.7455C15.9408 38.7152 16.0148 38.6988 16.0148 38.6705C16.0148 38.6555 16.0005 38.6433 15.9829 38.6433C15.9652 38.6433 15.951 38.6176 15.951 38.5855C15.951 38.5431 15.9652 38.5277 16.0042 38.5277C16.0653 38.5277 16.0758 38.4832 16.0193 38.4631C15.9984 38.4556 15.8907 38.4565 15.7801 38.465C15.4577 38.4897 15.3288 38.4815 15.2614 38.4319C15.2271 38.4067 15.193 38.3912 15.1855 38.3975C15.178 38.4038 15.1758 38.3723 15.1806 38.3276C15.1912 38.2299 15.1613 38.2147 14.9429 38.2065C14.8122 38.2016 14.8021 38.1972 14.8475 38.1652C14.9222 38.1126 15.1963 38.037 15.3597 38.024C15.4433 38.0173 15.5222 37.9936 15.5505 37.9666C15.611 37.9091 15.6474 37.9083 15.6882 37.9638C15.7066 37.9889 15.7578 38.007 15.809 38.0066C15.9666 38.0055 16.5547 37.9242 16.6345 37.8924C16.7091 37.8628 16.7114 37.858 16.6956 37.7632C16.6857 37.7035 16.6879 37.653 16.7013 37.6348C16.7165 37.6142 16.7158 37.5926 16.6992 37.5654C16.6484 37.4822 16.713 37.4649 17.0234 37.4789C17.2645 37.4899 17.3397 37.4839 17.3887 37.45C17.4405 37.4141 17.6739 37.3646 17.8331 37.3557C17.8565 37.3544 17.9235 37.3417 17.9819 37.3275L18.0883 37.3016L17.9926 37.2806C17.94 37.269 17.782 37.2662 17.6417 37.2743C17.5014 37.2824 17.3004 37.2873 17.1951 37.2852C17.0898 37.2831 16.8841 37.3026 16.7379 37.3285C16.4486 37.3797 16.1503 37.4155 16.0218 37.4145C15.977 37.4141 15.9344 37.4252 15.927 37.4391C15.9197 37.453 15.8838 37.466 15.8473 37.468C15.8107 37.4701 15.7809 37.4825 15.7809 37.4957C15.7809 37.5088 15.7593 37.5114 15.733 37.5013C15.6956 37.487 15.6921 37.4896 15.7171 37.5134C15.7446 37.5395 15.7439 37.5438 15.7118 37.5442C15.6913 37.5444 15.6746 37.5591 15.6746 37.5768C15.6746 37.5966 15.6543 37.5911 15.6221 37.5624C15.5639 37.5105 15.5384 37.5024 15.5561 37.5413C15.5625 37.5554 15.5487 37.5737 15.5255 37.582C15.5012 37.5906 15.4832 37.5827 15.4831 37.5636C15.4831 37.5442 15.4496 37.5302 15.4034 37.5302C15.3527 37.5302 15.3255 37.5428 15.3286 37.5649C15.3321 37.5888 15.3091 37.5954 15.2551 37.586C15.1666 37.5706 15.0793 37.5032 15.0788 37.45C15.0785 37.4272 15.071 37.43 15.0578 37.4579C15.0418 37.4915 15.0371 37.483 15.0369 37.4198C15.0364 37.3155 15.0715 37.2266 15.113 37.2266C15.1308 37.2266 15.1395 37.2136 15.1323 37.1977C15.125 37.1817 15.1364 37.1677 15.1576 37.1665C15.2276 37.1625 15.2722 37.145 15.3196 37.1028C15.362 37.0649 15.4619 37.0795 15.4619 37.1235C15.4619 37.1315 15.4491 37.1313 15.4334 37.1231C15.4177 37.1149 15.3914 37.1309 15.3749 37.1585C15.3491 37.2018 15.3491 37.2053 15.3751 37.184C15.3984 37.1649 15.4019 37.1715 15.3904 37.2122C15.3814 37.244 15.3864 37.2748 15.4027 37.2888C15.4434 37.3239 15.4777 37.3173 15.4406 37.2815C15.4166 37.2583 15.429 37.2545 15.4904 37.2661C15.5356 37.2747 15.5895 37.2668 15.611 37.2486C15.6404 37.2236 15.6574 37.2241 15.681 37.2507C15.7061 37.279 15.7153 37.2759 15.7286 37.2345C15.7377 37.2063 15.7436 37.1734 15.7417 37.1615C15.7399 37.1496 15.7519 37.1398 15.7685 37.1398C15.7851 37.1398 15.8023 37.1249 15.8067 37.1067C15.8112 37.0885 15.8429 37.0696 15.8772 37.0646C15.9115 37.0596 15.9503 37.0357 15.9634 37.0114C15.9765 36.9871 15.9949 36.9768 16.0044 36.9884C16.0139 37.0001 16.0156 36.9869 16.0082 36.9591C15.9918 36.8968 16.0325 36.891 16.05 36.9531C16.0612 36.9926 16.0672 36.9921 16.1025 36.9486C16.1402 36.9022 16.1425 36.9026 16.1427 36.9546C16.143 37.0008 16.1464 37.0026 16.1637 36.9663C16.1944 36.9017 16.1901 36.8876 16.1331 36.8681C16.097 36.8558 16.0823 36.832 16.0846 36.7896C16.0884 36.7221 16.1625 36.6716 16.2478 36.6784C16.3274 36.6848 16.3976 36.6475 16.3976 36.599C16.3976 36.5678 16.4188 36.5586 16.4774 36.5645C16.5631 36.573 16.7073 36.5404 16.7592 36.5009C16.7849 36.4812 16.7829 36.4761 16.7485 36.4743C16.7251 36.4731 16.6582 36.466 16.5997 36.4585C16.4188 36.4355 16.1783 36.4362 16.0915 36.46C16.0319 36.4764 16.0129 36.4736 16.0235 36.4502C16.0326 36.4301 16.0269 36.4236 16.0084 36.4332C15.991 36.4423 15.9627 36.4159 15.9403 36.3693C15.9129 36.3124 15.9093 36.2865 15.9276 36.2782C15.9448 36.2704 15.9407 36.2531 15.915 36.2257C15.88 36.1884 15.8823 36.1861 15.9404 36.1999C15.9755 36.2081 15.9922 36.2073 15.9776 36.1979C15.9237 36.1634 15.9534 36.1278 16.0361 36.1278C16.0898 36.1278 16.1213 36.1411 16.1215 36.164C16.1217 36.1906 16.1267 36.1897 16.1401 36.1609C16.1516 36.1362 16.1633 36.1326 16.1718 36.1511C16.186 36.1825 16.2131 36.18 16.2796 36.1413C16.3024 36.1281 16.3525 36.1164 16.3909 36.1153C16.479 36.1128 16.5077 36.0411 16.4205 36.0411C16.386 36.0411 16.3543 36.0223 16.3474 35.9977C16.3392 35.9685 16.3484 35.9543 16.376 35.9543C16.3984 35.9543 16.4244 35.9381 16.4338 35.9182C16.4582 35.8664 16.5448 35.805 16.5672 35.8237C16.5776 35.8325 16.5921 35.8264 16.5995 35.8102C16.6068 35.7941 16.6392 35.7809 16.6715 35.7809C16.7037 35.7809 16.7822 35.7597 16.8457 35.7339C16.9459 35.6931 16.955 35.6838 16.914 35.6629C16.888 35.6496 16.7105 35.6406 16.5194 35.6428C16.3283 35.6449 16.1595 35.6362 16.1442 35.6233C16.1284 35.61 16.1101 35.6137 16.1019 35.632C16.0848 35.6696 15.4237 35.6981 15.4072 35.6619C15.4015 35.6492 15.3819 35.6466 15.3637 35.656C15.3414 35.6677 15.3384 35.6797 15.3546 35.6933C15.3678 35.7044 15.3494 35.7134 15.3139 35.7134C15.2783 35.7134 15.2492 35.7009 15.2492 35.6858C15.2492 35.6706 15.2347 35.6746 15.2168 35.6947C15.199 35.7148 15.1776 35.722 15.1693 35.7107C15.161 35.6994 15.178 35.6656 15.207 35.6355L15.2599 35.5808L15.2067 35.5947C15.1601 35.6069 15.1588 35.6052 15.1961 35.5811C15.2574 35.5415 15.3582 35.5456 15.4173 35.5901C15.4749 35.6335 15.547 35.6192 15.547 35.5644C15.547 35.5391 15.589 35.5278 15.6852 35.5271C15.7719 35.5264 15.8234 35.5378 15.8234 35.5578C15.8234 35.5752 15.8354 35.5682 15.85 35.5421C15.8692 35.5079 15.9268 35.4896 16.0574 35.4762C16.1568 35.466 16.2985 35.4393 16.3723 35.4169C16.4462 35.3944 16.5371 35.3748 16.5744 35.3733C16.6117 35.3718 16.6901 35.3528 16.7485 35.331C16.8482 35.294 16.837 35.2925 16.5678 35.3073C16.4099 35.316 16.2663 35.3233 16.2488 35.3236C16.2312 35.3239 16.0111 35.3546 15.7596 35.3918C15.5082 35.4291 15.234 35.4636 15.1504 35.4684C15.0667 35.4733 15.0027 35.487 15.0081 35.499C15.0135 35.5109 14.9766 35.5207 14.9262 35.5208C14.8758 35.5208 14.7484 35.5397 14.6431 35.5628C14.4626 35.6023 14.038 35.643 14.0957 35.6153C14.1103 35.6082 14.117 35.5905 14.1103 35.576C14.1037 35.5615 14.1252 35.5489 14.1581 35.5482C14.1909 35.5474 14.2513 35.5221 14.2922 35.4919C14.3332 35.4617 14.3858 35.4249 14.4092 35.4101C14.4861 35.3613 15.7404 35.0792 16.0361 35.0442C16.1238 35.0338 16.3774 34.9995 16.5997 34.968C16.8219 34.9365 17.1152 34.8981 17.2515 34.8827C17.3878 34.8672 17.5453 34.8358 17.6016 34.8127C17.6755 34.7825 17.708 34.7798 17.7186 34.8031C17.732 34.8327 17.9557 34.8246 18.2266 34.7847C18.2675 34.7787 18.3967 34.7657 18.5137 34.7557C18.7235 34.7379 19.0433 34.6779 19.2223 34.6228C19.2728 34.6073 19.3231 34.6021 19.3341 34.6112C19.345 34.6205 19.4932 34.5993 19.6633 34.5643C19.9151 34.5124 19.9818 34.5072 20.0213 34.536C20.0612 34.5649 20.1122 34.5601 20.302 34.5092C20.618 34.4245 21.0303 34.3145 21.2358 34.26C21.3293 34.2351 21.4653 34.1963 21.5379 34.1738C21.6105 34.1512 21.7014 34.1329 21.7399 34.133C21.7784 34.133 21.853 34.1143 21.9057 34.0914C21.9943 34.0529 22.176 34.01 22.6606 33.9134C22.9096 33.8637 22.9597 33.8522 23.2136 33.787C23.3305 33.757 23.5219 33.7109 23.6389 33.6846C23.7559 33.6584 23.8803 33.6304 23.9154 33.6226C24.1637 33.5668 24.2109 33.5678 24.2603 33.6301C24.287 33.6638 24.3088 33.706 24.3088 33.7241C24.3088 33.7421 24.3159 33.7554 24.3247 33.7535C24.3335 33.7516 24.3626 33.7516 24.3893 33.7535C24.4299 33.7564 24.4344 33.7658 24.4166 33.8109C24.3906 33.8771 24.4114 33.9128 24.4504 33.8688C24.4942 33.8193 24.4842 33.8638 24.4338 33.9427C24.4073 33.9841 24.3542 34.0212 24.3053 34.0324C24.2338 34.0488 24.2257 34.0579 24.2486 34.0953C24.2829 34.1515 24.2539 34.155 25.6167 33.9308C25.7102 33.9154 25.8777 33.8966 25.9888 33.889C26.1 33.8814 26.3009 33.8614 26.4354 33.8447C26.57 33.8279 26.747 33.8091 26.8288 33.8028C26.9107 33.7965 27.0156 33.7779 27.0618 33.7614C27.1081 33.7449 27.2916 33.7306 27.4696 33.7297C27.6476 33.7287 27.8059 33.7221 27.8215 33.715C27.8597 33.6975 28.3581 33.662 28.4766 33.6683C28.5291 33.6711 28.5866 33.6914 28.6045 33.7134C28.6446 33.7628 28.7467 33.7677 29.2213 33.7433C29.4395 33.7321 29.6399 33.7066 29.7057 33.6817C29.7916 33.6492 29.934 33.6403 30.3118 33.6438C30.5834 33.6464 31.0354 33.6386 31.3161 33.6266C31.885 33.6023 31.8546 33.602 32.4432 33.6368C32.8243 33.6593 33.0442 33.6602 33.379 33.6407C33.4374 33.6374 33.4686 33.6286 33.4481 33.6214C33.4276 33.6141 33.4109 33.5945 33.4109 33.5779C33.4109 33.558 33.4706 33.5534 33.5863 33.5645C33.6828 33.5738 33.9723 33.5945 34.2296 33.6107C34.4869 33.6268 34.8171 33.6533 34.9633 33.6696C35.5507 33.7352 35.7747 33.7583 36.0798 33.7847C36.8428 33.851 37.245 33.8774 37.6642 33.8887C37.8571 33.8939 38.0964 33.9071 38.1958 33.9179C38.2952 33.9287 38.4436 33.9364 38.5255 33.935C38.6073 33.9336 38.77 33.9452 38.887 33.9608C39.004 33.9765 39.3828 33.995 39.7288 34.002C40.0748 34.009 40.4002 34.0274 40.4519 34.0429C40.5035 34.0584 40.6209 34.0782 40.7128 34.0868C40.8048 34.0954 40.91 34.1091 40.9468 34.1173C41.0725 34.1453 41.2689 34.1643 41.5559 34.1763C41.8088 34.1869 42.0544 34.2123 42.4172 34.2654C42.4757 34.2739 42.5571 34.2846 42.598 34.289C42.639 34.2935 42.7442 34.3054 42.8319 34.3156C42.9197 34.3259 43.068 34.3422 43.1615 34.3519C43.2551 34.3616 43.3364 34.3736 43.3423 34.3785C43.3482 34.3834 43.4074 34.3953 43.4739 34.4049C43.5404 34.4145 43.6089 34.4297 43.626 34.4386C43.6431 34.4476 43.7418 34.4587 43.8453 34.4635C44.1296 34.4765 44.1292 34.4764 44.1292 34.5231C44.1292 34.547 44.1393 34.5665 44.1517 34.5665C44.1641 34.5665 44.1673 34.5513 44.1589 34.5327C44.1484 34.5096 44.1553 34.505 44.1806 34.5182C44.201 34.5289 44.2388 34.5376 44.2646 34.5376C44.2963 34.5376 44.3126 34.5564 44.3148 34.5954C44.3186 34.6645 44.307 34.6678 44.2644 34.6099C44.2199 34.5493 44.1701 34.5539 44.185 34.6171C44.1924 34.6482 44.1901 34.6553 44.1791 34.6354C44.1668 34.6134 44.1069 34.6092 43.9909 34.6224C43.7914 34.6451 43.6407 34.6389 43.3636 34.5964C43.2525 34.5794 43.1089 34.5585 43.0446 34.5499C42.9803 34.5414 42.9165 34.5294 42.9028 34.5234C42.8891 34.5173 42.8724 34.532 42.8656 34.5562C42.8564 34.5886 42.8362 34.595 42.7877 34.5805C42.7116 34.5577 42.6626 34.5491 42.4597 34.5225C42.3779 34.5118 42.3052 34.4983 42.2982 34.4924C42.2833 34.4799 41.9988 34.4779 41.6091 34.4875C41.3618 34.4935 41.1875 34.4769 41.0574 34.4351C40.9841 34.4115 40.4714 34.4013 40.4714 34.4234C40.4714 34.4348 40.5359 34.4535 40.6149 34.465C40.6939 34.4765 40.7776 34.491 40.801 34.4973C40.9651 34.5413 41.4046 34.5906 41.758 34.6047C41.8398 34.608 41.917 34.6195 41.9293 34.6302C41.9499 34.6481 42.6011 34.7171 42.636 34.7051C42.6444 34.7023 42.7229 34.709 42.8106 34.7201C42.9463 34.7374 43.2926 34.772 43.3795 34.777C43.411 34.7788 43.4147 34.8161 43.3858 34.8404C43.3651 34.8577 43.2048 34.8618 43.0597 34.8485C43.0154 34.8445 42.9714 34.824 42.9619 34.8031C42.9491 34.7748 42.9125 34.7701 42.8192 34.7847C42.7502 34.7954 42.6873 34.8094 42.6795 34.8158C42.6716 34.8221 42.6507 34.8075 42.633 34.7834C42.6152 34.7593 42.5957 34.7507 42.5895 34.7643C42.5774 34.7907 42.1482 34.7795 42.0238 34.7495C41.9829 34.7396 41.9107 34.7288 41.8634 34.7255C41.8162 34.7223 41.7564 34.7042 41.7305 34.6854C41.6929 34.6581 41.6835 34.659 41.6835 34.6898C41.6835 34.7125 41.6551 34.7316 41.6144 34.736C41.4463 34.7544 41.2109 34.7527 41.0243 34.7316C40.89 34.7165 40.8327 34.7183 40.8535 34.7373C40.9373 34.8136 40.7801 34.8512 40.5352 34.8135C40.318 34.78 40.2792 34.7782 40.1853 34.7976C40.1369 34.8076 40.069 34.8054 40.0344 34.7929C39.9434 34.7597 39.47 34.7009 39.2592 34.6966C39.1597 34.6946 39.0162 34.684 38.9402 34.6732C38.8641 34.6623 38.711 34.6467 38.5999 34.6386C38.4888 34.6304 38.2256 34.6046 38.0151 34.5812C37.8045 34.5579 37.4914 34.53 37.3192 34.5193C37.0385 34.5019 37.0046 34.5049 36.9925 34.548C36.9809 34.5891 36.9439 34.596 36.742 34.5949C36.6117 34.5943 36.4621 34.6042 36.4094 34.6172L36.3137 34.6406L36.4732 34.6728C36.561 34.6906 36.6662 34.7047 36.7072 34.7043C36.7481 34.7038 36.9156 34.7237 37.0793 34.7483C37.2431 34.7729 37.5541 34.8076 37.7705 34.8253C37.9869 34.8431 38.1852 34.8638 38.2112 34.8715C38.2372 34.8791 38.4526 34.898 38.6897 34.9134C39.116 34.9413 39.4146 34.964 39.642 34.9858C39.7063 34.992 39.927 35.0103 40.1324 35.0263C40.3378 35.0425 40.5196 35.0614 40.5364 35.0685C40.5533 35.0756 40.5862 35.0912 40.6096 35.1033C40.633 35.1153 40.6889 35.1287 40.7339 35.1332C40.7788 35.1376 40.8267 35.1618 40.8403 35.187C40.8599 35.2235 40.9153 35.2344 41.1094 35.2403C41.2439 35.2445 41.3635 35.2558 41.3752 35.2656C41.3869 35.2754 41.4682 35.291 41.5559 35.3003C41.9753 35.345 42.3945 35.3812 42.5873 35.3895C42.7043 35.3945 42.9531 35.4214 43.1403 35.4491C43.3274 35.4769 43.5667 35.504 43.6719 35.5092C44.4005 35.5457 44.9824 35.5918 45.2882 35.637C45.3935 35.6526 45.578 35.6737 45.6982 35.6839C45.8185 35.6941 45.9219 35.7136 45.9281 35.7272C45.9343 35.7409 45.9077 35.753 45.869 35.7543C45.8303 35.7556 45.7716 35.7593 45.7386 35.7626C45.7056 35.7658 45.6744 35.7593 45.6693 35.7482C45.6642 35.737 45.6247 35.7411 45.5815 35.7573C45.5376 35.7738 45.4414 35.7784 45.3636 35.7677C45.2871 35.7573 44.8799 35.7436 44.4588 35.7373C44.0377 35.7311 43.5353 35.7176 43.3423 35.7074C42.9983 35.6891 42.9008 35.7002 43.1265 35.7321C43.1891 35.741 43.245 35.7545 43.2506 35.7622C43.2658 35.7828 43.188 35.8339 43.1235 35.8456C43.0484 35.8593 43.0246 35.8959 43.0889 35.899C43.1172 35.9004 43.2647 35.9137 43.4167 35.9285C43.5688 35.9433 43.8679 35.9631 44.0813 35.9725C44.4322 35.988 44.4694 35.9945 44.4694 36.0403C44.4694 36.1039 44.5551 36.1189 45.071 36.1459C45.2791 36.1569 45.4543 36.1768 45.4604 36.1902C45.4665 36.2036 45.5134 36.2146 45.5647 36.2146C45.7394 36.2146 45.6904 36.2944 45.4758 36.3595C45.4152 36.3778 45.3339 36.3904 45.295 36.3875C45.036 36.368 45.104 36.4249 45.3945 36.4709C45.5115 36.4894 45.6742 36.5108 45.7561 36.5185C45.838 36.5262 45.9863 36.5455 46.0859 36.5614C46.185 36.5772 46.386 36.5987 46.5325 36.6092C46.7122 36.6222 46.8049 36.6405 46.8194 36.6662C46.831 36.6872 46.9072 36.7125 46.9895 36.7229C47.0713 36.7333 47.148 36.7576 47.1596 36.777C47.1713 36.7965 47.2507 36.8211 47.3362 36.8318C47.4216 36.8426 47.5131 36.8705 47.5392 36.8938C47.5693 36.9206 47.6612 36.941 47.788 36.949C48.0612 36.9663 48.2751 36.9989 48.2872 37.025C48.2996 37.0524 48.1134 37.0916 48.0849 37.0676C48.0733 37.0577 48.0637 37.062 48.0637 37.077C48.0637 37.0921 48.097 37.113 48.1379 37.1234C48.2189 37.144 48.2342 37.18 48.1752 37.211C48.1058 37.2477 48.2029 37.3057 48.4216 37.358C48.6054 37.402 48.7213 37.4563 48.6367 37.4587C48.5572 37.461 48.68 37.512 48.8076 37.5297C48.8834 37.5403 48.9569 37.5615 48.9701 37.5768C48.9837 37.5922 49.0556 37.6179 49.1294 37.6341C49.3348 37.6792 49.3328 37.7153 49.123 37.7377C49.0447 37.7461 48.9733 37.7709 48.9516 37.7971C48.9215 37.8339 48.8846 37.8383 48.7494 37.8212C48.4753 37.7863 48.4212 37.7931 48.3798 37.8673C48.3598 37.9036 48.3473 37.9424 48.3526 37.9535C48.3574 37.9646 48.426 37.9828 48.505 37.994C48.5837 38.0051 48.6579 38.0244 48.6696 38.0369C48.6812 38.0494 48.7362 38.0688 48.7919 38.0801C48.9444 38.1109 48.9131 38.1518 48.737 38.1518C48.6511 38.1518 48.5737 38.1615 48.5648 38.1735C48.556 38.1854 48.4669 38.1951 48.3666 38.1951C48.2398 38.1951 48.1816 38.2061 48.1756 38.2313C48.1692 38.256 48.1921 38.2675 48.2478 38.2676C48.2928 38.2676 48.363 38.2797 48.4039 38.2943C48.4448 38.3089 48.5592 38.329 48.6583 38.3391C48.757 38.3492 48.8489 38.3695 48.8622 38.3844C48.8754 38.3993 48.8918 38.4039 48.8987 38.3946C48.9055 38.3854 48.9332 38.3886 48.9605 38.4018C48.9986 38.4204 48.9761 38.43 48.861 38.4443C48.7253 38.461 48.5708 38.5032 48.489 38.5457C48.4368 38.5728 48.5175 38.6024 48.7598 38.6454C48.8798 38.6667 48.9781 38.6917 48.9781 38.7012C48.9781 38.7106 49.0403 38.7129 49.1161 38.7064C49.2273 38.6968 49.2546 38.7027 49.2546 38.7367C49.2546 38.789 49.1872 38.8748 49.1462 38.8742C49.1214 38.8738 49.1218 38.8689 49.1483 38.8457C49.1751 38.8219 49.1743 38.8176 49.1422 38.8172C49.1214 38.817 49.0985 38.837 49.0917 38.8616C49.0808 38.8999 49.0423 38.9043 48.8317 38.8914C48.5676 38.8752 48.503 38.8944 48.5516 38.9741C48.633 39.1075 48.9649 39.2505 49.1932 39.2505C49.3312 39.2505 49.4034 39.2855 49.4034 39.3527C49.4034 39.3863 49.3693 39.3949 49.2385 39.3944C49.1479 39.394 49.0355 39.38 48.9885 39.3632C48.9416 39.3465 48.7213 39.3269 48.4986 39.3197C48.105 39.3069 48.0938 39.3082 48.0905 39.3647C48.0877 39.4203 48.1134 39.4604 48.1592 39.4704C48.1708 39.473 48.2627 39.4961 48.363 39.5218C48.6916 39.606 48.9837 39.6573 49.2823 39.6834C49.5591 39.7076 49.6534 39.7407 49.6249 39.8036C49.6185 39.8179 49.6037 39.822 49.5928 39.8126C49.5816 39.8032 49.5748 39.8128 49.578 39.8338C49.5816 39.855 49.5676 39.8703 49.5471 39.8681C49.5266 39.866 49.5146 39.8743 49.5202 39.8867C49.5258 39.899 49.4981 39.9174 49.4584 39.9276C49.3726 39.9495 49.3521 40.0016 49.3962 40.0869C49.4195 40.1324 49.4219 40.1595 49.4055 40.1868C49.3778 40.2317 49.3958 40.2625 49.4492 40.2625C49.4709 40.2625 49.4885 40.2679 49.4885 40.2746C49.4885 40.2812 49.4945 40.3091 49.5026 40.3367C49.5154 40.3826 49.501 40.3851 49.3268 40.3675C49.2229 40.357 49.1017 40.3406 49.0576 40.3311C48.9942 40.3175 48.9781 40.3231 48.9781 40.359C48.9781 40.3839 48.9625 40.4159 48.9436 40.4302C48.8951 40.4673 48.9243 40.6339 48.9853 40.6674C49.0291 40.6913 49.0291 40.6927 48.9885 40.6963C48.946 40.7002 48.946 40.7002 48.9885 40.7251C49.0299 40.7493 48.9721 40.7597 48.7546 40.7669C48.6639 40.7699 48.5953 40.8088 48.5953 40.8571C48.5953 40.883 48.5732 40.8987 48.5367 40.8989C48.5046 40.8992 48.4565 40.9073 48.43 40.9169C48.3847 40.9335 48.3839 40.937 48.4192 40.9734C48.44 40.9949 48.483 41.0128 48.5151 41.0133C48.5472 41.0138 48.6362 41.0597 48.7137 41.1154C48.7915 41.1715 48.885 41.2166 48.9235 41.2166C49.0523 41.2166 49.2534 41.2534 49.2433 41.2752C49.2381 41.2871 49.2498 41.295 49.2698 41.2929C49.2895 41.2907 49.3092 41.3113 49.3136 41.3387C49.3232 41.4023 49.1976 41.512 49.133 41.4965C49.1069 41.4903 49.0824 41.4994 49.078 41.5168C49.068 41.5577 48.8196 41.5692 48.7205 41.5334C48.6784 41.5182 48.4605 41.5023 48.2366 41.4979C47.8582 41.4906 47.7467 41.5054 47.8879 41.544C47.92 41.5528 47.9894 41.5732 48.0424 41.5894C48.095 41.6056 48.1784 41.6194 48.2282 41.6201C48.2779 41.6208 48.3189 41.6344 48.3189 41.6503C48.3189 41.6662 48.3337 41.6792 48.3522 41.6792C48.3702 41.6792 48.4047 41.6935 48.4288 41.711C48.4721 41.7424 48.4721 41.7431 48.4224 41.7769C48.3349 41.836 48.3622 41.8918 48.5086 41.9552C48.5837 41.9877 48.6499 42.0333 48.6555 42.0564C48.6607 42.0795 48.674 42.106 48.684 42.1152C48.7165 42.1442 48.6776 42.2334 48.6411 42.2142C48.6222 42.2045 48.613 42.2046 48.6202 42.2144C48.6274 42.2241 48.609 42.2649 48.5797 42.305C48.5407 42.3577 48.5006 42.3792 48.4348 42.3826C48.3851 42.3853 48.3477 42.3959 48.3526 42.4063C48.3574 42.4167 48.2695 42.4189 48.1575 42.4111C47.995 42.3997 47.9469 42.4057 47.9184 42.4407C47.8787 42.4894 47.67 42.5095 47.5609 42.475C47.5196 42.4619 47.4891 42.466 47.4798 42.4859C47.4722 42.5034 47.4429 42.5177 47.4152 42.5177C47.3514 42.5177 47.2981 42.5454 47.2981 42.5786C47.2981 42.5928 47.3117 42.6044 47.3286 42.6044C47.3458 42.6044 47.3679 42.6242 47.3775 42.6483C47.3887 42.6755 47.4718 42.7123 47.5966 42.7453C47.8422 42.8103 48.0231 42.9096 48.0063 42.9702C47.9995 42.9935 47.9806 43.0055 47.9637 42.9968C47.9473 42.9881 47.9389 42.9928 47.9457 43.0071C47.9521 43.0215 47.9324 43.0738 47.9015 43.1234C47.8606 43.1896 47.8345 43.2086 47.8032 43.195C47.7796 43.1847 47.7659 43.1883 47.7723 43.2028C47.7792 43.2173 47.7511 43.2305 47.7105 43.2321C47.6696 43.2336 47.5693 43.2573 47.487 43.2846L47.3378 43.3344L47.3855 43.4031C47.4116 43.4409 47.4417 43.4719 47.4525 43.4719C47.4634 43.4719 47.5051 43.493 47.5452 43.5189C47.615 43.5641 47.6171 43.5688 47.5858 43.6331C47.5657 43.6753 47.5613 43.7068 47.5749 43.7181C47.5866 43.728 47.5902 43.7496 47.5826 43.7661C47.5737 43.7854 47.5625 43.7821 47.5504 43.7569C47.5384 43.7314 47.5264 43.728 47.5159 43.7471C47.5071 43.7633 47.4714 43.7954 47.4361 43.8184L47.3723 43.8603L47.4397 43.8701C47.5123 43.8808 47.5517 43.955 47.4987 43.9825C47.4806 43.9918 47.461 43.9923 47.4545 43.9835C47.4481 43.9747 47.4108 43.9918 47.3719 44.0215C47.333 44.0513 47.2648 44.0849 47.2202 44.0962C47.1757 44.1076 47.1267 44.1343 47.1107 44.1557C47.0734 44.2065 47.0589 44.2054 46.8615 44.1367C46.6841 44.075 46.634 44.0807 46.5613 44.1712C46.52 44.2221 46.5036 44.2247 46.3924 44.1967C46.2468 44.1601 45.9721 44.1554 45.9878 44.1898C45.9938 44.2031 46.0685 44.2301 46.1537 44.2498C46.3712 44.3002 46.3956 44.3111 46.3599 44.341C46.2981 44.393 46.5754 44.5158 46.8458 44.5563C46.9193 44.5673 46.9835 44.5865 46.9891 44.5989C46.9951 44.6114 46.9795 44.6563 46.955 44.6987C46.9137 44.7699 46.9128 44.7797 46.9445 44.8272C46.9634 44.8556 46.9791 44.8858 46.9791 44.8945C46.9791 44.9302 46.6187 44.8788 46.5004 44.8262C46.3302 44.7505 45.9855 44.6953 45.9536 44.7386C45.9368 44.7615 45.9366 44.7811 45.9531 44.8081C45.9753 44.8446 46.0094 44.8601 46.2929 44.9635C46.3816 44.9957 46.4261 45.0265 46.4261 45.0554C46.4261 45.092 46.4008 45.0959 46.268 45.0795C46.1669 45.0671 46.1055 45.0708 46.0967 45.09C46.0895 45.1065 46.0947 45.1199 46.1091 45.1199C46.1236 45.1199 46.1304 45.1267 46.1244 45.1349C46.1099 45.1543 45.8088 45.0683 45.7789 45.0363C45.7553 45.0112 45.4448 44.9461 45.3786 44.9525C45.3581 44.9545 45.3414 44.9723 45.3414 44.9923C45.3414 45.0122 45.3364 45.046 45.3303 45.0674C45.3199 45.1045 45.5796 45.1793 46.0272 45.2683C46.0943 45.2816 46.1842 45.3123 46.2263 45.3363C46.2688 45.3604 46.3334 45.3802 46.3699 45.3803C46.4663 45.3806 46.6047 45.4378 46.5822 45.4682C46.5722 45.4823 46.4426 45.4975 46.2945 45.502C46.1465 45.5066 46.0272 45.5124 46.0291 45.5152C46.031 45.5178 46.0799 45.5453 46.1376 45.5762C46.2383 45.6299 46.2407 45.6338 46.1946 45.6672C46.1589 45.6935 46.1204 45.6944 46.0408 45.6713C45.9113 45.6335 45.8943 45.633 45.8943 45.667C45.8943 45.6816 45.9229 45.7021 45.9578 45.7126C46.0741 45.7473 46.0489 45.7849 45.9094 45.7849C45.8283 45.7849 45.7462 45.8033 45.7063 45.8303C45.6659 45.8577 45.6207 45.8676 45.5923 45.8554C45.5316 45.8292 44.5332 45.8192 44.5448 45.8449C44.5696 45.8993 44.2906 45.899 44.0525 45.8444C43.5705 45.7338 43.1603 45.6708 42.8957 45.667C42.7495 45.6649 42.5294 45.6453 42.4066 45.6234C42.2838 45.6016 42.065 45.5703 41.9204 45.5539C41.7758 45.5374 41.6513 45.519 41.6439 45.5129C41.6364 45.5068 41.5586 45.4935 41.4709 45.4833C41.3831 45.4732 41.2778 45.4594 41.2369 45.4527C41.1517 45.4387 40.7637 45.4093 40.482 45.3955C40.2782 45.3854 39.9685 45.3588 39.7589 45.3333C39.6887 45.3248 39.416 45.3122 39.1528 45.3055C38.8896 45.2987 38.5786 45.2825 38.4616 45.2695C38.3447 45.2564 38.0212 45.2471 37.7428 45.2486C37.3217 45.251 37.2332 45.2587 37.2164 45.2941C37.1993 45.3303 37.1934 45.3306 37.1772 45.2964C37.1644 45.2695 37.137 45.2617 37.0952 45.2731C37.0605 45.2826 37.0219 45.276 37.0091 45.2586C36.9963 45.2412 36.9542 45.2242 36.9156 45.2208C36.8769 45.2175 36.8262 45.207 36.8028 45.1976C36.6754 45.1463 36.5426 45.1314 36.4891 45.1624C36.4462 45.1872 36.339 45.1578 36.3538 45.1253C36.3592 45.1133 36.2568 45.1 36.126 45.0957C35.7741 45.0842 35.7375 45.0789 35.6977 45.034C35.6653 44.9974 35.6621 44.9991 35.6685 45.0491C35.6734 45.0873 35.6654 45.1021 35.6438 45.0952C35.6263 45.0895 35.5904 45.0846 35.5641 45.0843C35.5378 45.084 35.5162 45.0738 35.5162 45.0615C35.5162 45.0493 35.5008 45.0313 35.4819 45.0215C35.4571 45.0085 35.4512 45.016 35.4604 45.0488C35.4692 45.0799 35.465 45.0869 35.4469 45.0712C35.4324 45.0587 35.3296 45.0444 35.2185 45.0394C34.9848 45.0289 35.0195 45.029 33.9212 45.0343C33.4592 45.0365 33.022 45.0289 32.9497 45.0174C32.8774 45.0059 32.8022 45.0049 32.7824 45.0152C32.7463 45.0341 32.0516 45.0714 31.8381 45.0659C31.6712 45.0616 31.4819 45.195 31.5872 45.2427C31.6029 45.2499 31.592 45.2703 31.5606 45.2928C31.5314 45.3138 31.5022 45.3419 31.4957 45.3553C31.4722 45.4039 31.2916 45.4309 31.2403 45.3936C31.208 45.3701 31.1224 45.3616 30.9877 45.3687C30.8757 45.3746 30.5077 45.3862 30.1699 45.3946C29.8322 45.403 29.5326 45.4178 29.5042 45.4275C29.4758 45.4372 29.3551 45.4471 29.2359 45.4495C29.1168 45.452 29.0002 45.4686 28.9768 45.4865C28.9349 45.5184 28.7377 45.5709 28.7046 45.5589C28.664 45.544 28.5884 45.5478 28.5195 45.568C28.4786 45.5801 28.426 45.5878 28.4026 45.5851C28.3792 45.5824 28.3409 45.5779 28.3175 45.5751C28.2941 45.5723 28.184 45.5853 28.0729 45.604C27.9618 45.6227 27.8295 45.6377 27.7789 45.6373C27.7284 45.637 27.6757 45.6491 27.662 45.6641C27.6482 45.6792 27.6059 45.7005 27.5678 45.7115C27.5113 45.728 27.4987 45.7228 27.4987 45.6827C27.4987 45.6394 27.4811 45.6361 27.3445 45.6543C27.2598 45.6655 27.0373 45.6777 26.8501 45.6814C26.663 45.685 26.4583 45.7033 26.3953 45.722C26.3323 45.7407 26.2761 45.756 26.2704 45.756C26.2647 45.756 26.272 45.7755 26.2865 45.7993C26.3011 45.8232 26.3453 45.8427 26.3849 45.8427C26.4243 45.8427 26.4567 45.8481 26.4567 45.8548C26.4567 45.8615 26.4625 45.8875 26.4696 45.9126C26.4873 45.9754 26.4274 45.9723 26.3802 45.908C26.3534 45.8716 26.3407 45.8677 26.3343 45.8938C26.3294 45.9136 26.3167 45.9225 26.306 45.9134C26.2953 45.9045 26.2865 45.9076 26.2865 45.9205C26.2865 45.9334 26.265 45.9455 26.2387 45.9475C26.2124 45.9494 26.0664 45.9657 25.9144 45.9837C25.7623 46.0017 25.4561 46.0217 25.2339 46.028C25.0116 46.0344 24.8059 46.0468 24.7766 46.0554C24.6776 46.085 24.1328 46.1535 23.8409 46.1731C23.3 46.2095 22.8899 46.3147 22.8054 46.4387C22.7789 46.4775 22.7323 46.5089 22.6988 46.5104C22.4236 46.5225 22.0415 46.5615 21.8737 46.5945C21.8036 46.6083 21.6804 46.6276 21.6002 46.6373C21.5199 46.6471 21.4061 46.6674 21.3474 46.6826C21.2886 46.6977 21.2371 46.7101 21.2328 46.7101C21.2286 46.7101 21.2251 46.6768 21.2251 46.6361V46.6362ZM21.2251 46.3731C21.2251 46.3415 21.2157 46.3391 21.1834 46.3626C21.1585 46.3808 21.1466 46.4106 21.154 46.4366C21.1635 46.4703 21.173 46.4727 21.1957 46.4471C21.2119 46.4289 21.2251 46.3955 21.2251 46.3731ZM24.8085 45.9431C24.8917 45.9025 24.8896 45.9019 24.7128 45.916C24.308 45.9483 24.1812 45.9646 24.1812 45.9846C24.1812 46.0223 24.719 45.9867 24.8085 45.9431ZM14.9302 45.5939C14.9302 45.5876 14.9159 45.5826 14.8983 45.5826C14.8808 45.5826 14.8664 45.5952 14.8664 45.6105C14.8664 45.6259 14.8808 45.6311 14.8983 45.6219C14.9159 45.6128 14.9302 45.6002 14.9302 45.5939ZM16.4721 45.4958C16.4795 45.4795 16.4621 45.4669 16.432 45.4669C16.4028 45.4669 16.3729 45.4799 16.3657 45.4958C16.3583 45.5121 16.3757 45.5247 16.4057 45.5247C16.435 45.5247 16.4648 45.5117 16.4721 45.4958ZM15.4619 45.3479C15.4619 45.318 15.4364 45.3152 15.3892 45.3399C15.3358 45.3677 15.3501 45.4025 15.4087 45.3872C15.4379 45.3796 15.4619 45.3619 15.4619 45.3479ZM27.4953 45.3431C27.5678 45.3157 27.5778 45.3051 27.542 45.2936C27.4853 45.2753 26.8087 45.314 26.446 45.3562C26.3475 45.3677 27.1085 45.3957 27.2648 45.3863C27.3408 45.3818 27.4445 45.3624 27.4953 45.3431ZM28.2324 45.2542C28.2558 45.2467 28.2128 45.2415 28.1367 45.2429C27.9553 45.2459 27.8834 45.2725 27.9985 45.294C28.0453 45.3027 28.1075 45.3004 28.1367 45.2888C28.166 45.2773 28.209 45.2617 28.2324 45.2542ZM14.6608 45.2627C14.7046 45.2609 14.7043 45.2594 14.6551 45.2327C14.5971 45.2012 14.5474 45.2169 14.5474 45.2667C14.5474 45.2848 14.5625 45.2917 14.5811 45.282C14.5996 45.2724 14.6355 45.2637 14.6608 45.2627ZM28.5519 45.2301C28.5576 45.2224 28.5197 45.2139 28.4678 45.2112C28.4159 45.2085 28.3667 45.2209 28.3586 45.2386C28.3483 45.2614 28.3733 45.267 28.4427 45.2576C28.4971 45.2502 28.5462 45.2378 28.5519 45.2301ZM45.1819 44.8886C45.19 44.8707 45.1561 44.861 45.0928 44.8631C45.0019 44.8662 44.9976 44.869 45.0543 44.8886C45.1473 44.9208 45.1672 44.9208 45.1819 44.8886ZM12.4035 44.4641C12.3882 44.4557 12.3698 44.4567 12.3627 44.4664C12.3557 44.476 12.3682 44.4828 12.3906 44.4816C12.4154 44.4802 12.4205 44.4733 12.4035 44.4641ZM12.6547 44.426C12.6974 44.4074 12.6995 44.4027 12.6653 44.402C12.6419 44.4015 12.6037 44.4123 12.5803 44.426C12.5261 44.4577 12.582 44.4577 12.6547 44.426ZM12.94 44.4374C12.9586 44.4277 12.9737 44.3964 12.9737 44.3678C12.9737 44.3236 12.9603 44.3181 12.8833 44.3312C12.7856 44.3478 12.7218 44.3971 12.7981 44.3971C12.8231 44.3971 12.8495 44.4101 12.8567 44.426C12.8719 44.4593 12.8926 44.4621 12.94 44.4374ZM47.4895 43.9345C47.4895 43.9186 47.4726 43.9058 47.4521 43.906C47.4204 43.9064 47.4196 43.9105 47.4469 43.9345C47.487 43.9697 47.4895 43.9697 47.4895 43.9345ZM13.4668 42.7582C13.4515 42.7498 13.4331 42.7509 13.426 42.7605C13.419 42.7701 13.4315 42.7769 13.454 42.7757C13.4787 42.7743 13.4838 42.7674 13.4668 42.7582ZM13.2927 42.6738C13.2927 42.6267 13.2336 42.6214 13.1558 42.6616C13.0713 42.7053 13.0914 42.7361 13.197 42.7246C13.2612 42.7177 13.2927 42.701 13.2927 42.6738ZM13.6877 42.6947C13.6665 42.648 13.5904 42.6361 13.5904 42.6794C13.5904 42.7038 13.6123 42.7201 13.6448 42.7201C13.6748 42.7201 13.6941 42.7087 13.6877 42.6947ZM13.5266 42.6623C13.5504 42.6415 13.5381 42.6341 13.4788 42.6338C13.4349 42.6336 13.399 42.6464 13.399 42.6623C13.399 42.6991 13.4847 42.6991 13.5266 42.6623ZM48.9781 39.2794C48.9781 39.2635 48.9685 39.2505 48.9568 39.2505C48.9448 39.2505 48.9356 39.2635 48.9356 39.2794C48.9356 39.2953 48.9448 39.3083 48.9568 39.3083C48.9685 39.3083 48.9781 39.2953 48.9781 39.2794ZM49.1322 38.7398C49.1174 38.7318 49.0937 38.7318 49.0788 38.7398C49.0644 38.7479 49.0764 38.7544 49.1057 38.7544C49.1346 38.7544 49.1466 38.7479 49.1322 38.7398ZM48.8132 38.3916C48.7867 38.3847 48.7438 38.3847 48.7173 38.3916C48.6912 38.3985 48.7125 38.4042 48.7654 38.4042C48.818 38.4042 48.8393 38.3985 48.8132 38.3916ZM47.8297 38.1582C47.8297 38.1458 47.7507 38.1203 47.654 38.1014C47.5577 38.0825 47.4557 38.0581 47.4277 38.0471C47.3956 38.0346 47.3811 38.0379 47.3891 38.0556C47.3964 38.0714 47.4866 38.1008 47.5894 38.121C47.6921 38.1413 47.786 38.1619 47.7976 38.167C47.8093 38.172 47.8213 38.1772 47.8241 38.1784C47.8273 38.1797 47.8297 38.1706 47.8297 38.1582ZM16.8123 37.8916C16.8503 37.8694 16.8487 37.8665 16.7976 37.8647C16.7661 37.8636 16.7345 37.8757 16.7273 37.8916C16.7116 37.9261 16.7532 37.9261 16.8123 37.8916ZM47.6809 37.7222C47.6809 37.7085 47.5846 37.6825 47.4674 37.6644C47.203 37.6235 47.1552 37.6227 47.1825 37.6594C47.1937 37.6748 47.3081 37.699 47.4365 37.7132C47.5649 37.7274 47.6724 37.7408 47.6752 37.743C47.6784 37.7452 47.6809 37.7358 47.6809 37.7222ZM15.6192 37.376C15.6252 37.3627 15.6162 37.3519 15.5992 37.3519C15.5822 37.3519 15.5682 37.3627 15.5682 37.376C15.5682 37.3892 15.5772 37.4001 15.5882 37.4001C15.5992 37.4001 15.6132 37.3892 15.6192 37.376ZM18.4645 37.3225C18.4491 37.3141 18.4308 37.3151 18.4237 37.3247C18.4166 37.3343 18.4292 37.3412 18.4516 37.3399C18.4764 37.3385 18.4814 37.3317 18.4645 37.3225ZM15.1642 37.2844C15.1642 37.2685 15.1474 37.2557 15.1269 37.2559C15.0951 37.2563 15.0943 37.2604 15.1216 37.2844C15.1618 37.3197 15.1642 37.3197 15.1642 37.2844ZM15.2492 37.2393C15.2492 37.2323 15.2396 37.2266 15.228 37.2266C15.2162 37.2266 15.2067 37.2403 15.2067 37.2572C15.2067 37.274 15.2162 37.2798 15.228 37.2699C15.2396 37.2601 15.2492 37.2463 15.2492 37.2393ZM16.4614 37.038C16.4906 37.0269 16.5816 37.0069 16.6635 36.9937C16.7453 36.9804 16.8458 36.9558 16.8868 36.939C16.9277 36.9222 16.9612 36.9095 16.9612 36.9108C16.9612 36.9219 17.1068 36.86 17.1792 36.8183C17.2889 36.7548 17.2958 36.7061 17.1951 36.7061C17.1431 36.7061 17.1207 36.693 17.1207 36.6627C17.1207 36.6183 17.2159 36.6007 17.3738 36.616C17.4427 36.6226 17.6391 36.5728 17.684 36.5373C17.7176 36.5107 17.6103 36.4808 17.4703 36.4777C17.3792 36.4756 17.3016 36.496 17.2058 36.5471C17.1311 36.5869 17.0504 36.6196 17.0263 36.6198C16.9914 36.6202 16.9887 36.6257 17.0133 36.6468C17.0303 36.6615 17.0518 36.667 17.0612 36.6591C17.0705 36.6513 17.0782 36.6572 17.0782 36.6722C17.0782 36.6981 17.0316 36.7164 16.8691 36.7543C16.8303 36.7634 16.7932 36.7891 16.7869 36.8115C16.7775 36.8448 16.7694 36.8454 16.742 36.8153C16.7141 36.7844 16.7107 36.7858 16.7212 36.8239C16.7303 36.8573 16.7214 36.8682 16.6879 36.8647C16.6628 36.8621 16.6104 36.8717 16.5716 36.8861C16.5227 36.9043 16.4917 36.9018 16.4706 36.878C16.4535 36.8586 16.4402 36.8561 16.4402 36.8721C16.4402 36.904 16.2781 36.9953 16.2214 36.9953C16.2014 36.9953 16.185 37.0131 16.185 37.0348C16.185 37.0642 16.2134 37.0723 16.2966 37.0663C16.358 37.0618 16.4322 37.0491 16.4614 37.038ZM17.3362 35.9894C17.3209 35.9825 17.2982 35.9905 17.2859 36.0074C17.2701 36.0288 17.2784 36.0326 17.3138 36.02C17.3425 36.0098 17.3522 35.9966 17.3362 35.9894ZM43.0233 35.8749C43.0233 35.863 42.9942 35.8504 42.9587 35.847C42.9218 35.8435 42.8996 35.8528 42.9068 35.8687C42.9217 35.9013 43.0233 35.9067 43.0233 35.8749ZM17.3972 35.6927L17.4503 35.6905L17.4007 35.6635C17.3447 35.6329 17.2483 35.6564 17.2483 35.7007C17.2483 35.7168 17.2697 35.722 17.2961 35.7124C17.3224 35.7028 17.3679 35.6939 17.3972 35.6927ZM42.8532 35.699C42.8532 35.6857 42.8388 35.6749 42.8213 35.6749C42.8037 35.6749 42.7894 35.6857 42.7894 35.699C42.7894 35.7122 42.8037 35.7231 42.8213 35.7231C42.8388 35.7231 42.8532 35.7122 42.8532 35.699ZM42.9422 35.7033C42.9269 35.695 42.9086 35.696 42.9015 35.7056C42.8944 35.7152 42.9069 35.722 42.9294 35.7208C42.9542 35.7194 42.9592 35.7126 42.9422 35.7033ZM17.7627 35.6455C17.7473 35.6372 17.729 35.6382 17.7219 35.6478C17.7148 35.6574 17.7274 35.6642 17.7498 35.663C17.7746 35.6616 17.7796 35.6547 17.7627 35.6455ZM15.3768 35.6074C15.3768 35.5915 15.3672 35.5785 15.3556 35.5785C15.3438 35.5785 15.3343 35.5915 15.3343 35.6074C15.3343 35.6233 15.3438 35.6363 15.3556 35.6363C15.3672 35.6363 15.3768 35.6233 15.3768 35.6074ZM15.9298 35.5316C15.9298 35.4992 15.8898 35.5276 15.8784 35.5681C15.8672 35.6078 15.8703 35.6096 15.8973 35.579C15.9152 35.559 15.9298 35.5376 15.9298 35.5316ZM16.1424 35.5351C16.1424 35.5113 16.1387 35.4918 16.134 35.4918C16.1295 35.4918 16.1202 35.5113 16.1135 35.5351C16.1067 35.559 16.1105 35.5785 16.1218 35.5785C16.1332 35.5785 16.1424 35.559 16.1424 35.5351ZM43.9843 34.5468C43.969 34.5384 43.9506 34.5394 43.9435 34.5491C43.9365 34.5587 43.949 34.5655 43.9714 34.5643C43.9962 34.5629 44.0013 34.556 43.9843 34.5468ZM24.4035 33.9613C24.4103 33.9465 24.4071 33.9271 24.3964 33.9182C24.3858 33.9092 24.3715 33.9213 24.3648 33.9451C24.3516 33.9919 24.3836 34.0053 24.4035 33.9613ZM14.3093 46.3704C14.297 46.3506 14.2954 46.3339 14.3056 46.3334C14.3158 46.333 14.3062 46.3184 14.2844 46.3011C14.2282 46.2568 14.2779 46.2188 14.3879 46.222C14.4454 46.2236 14.4592 46.2305 14.4305 46.2432C14.3899 46.2611 14.3597 46.3347 14.3932 46.3339C14.4557 46.3324 14.5008 46.2946 14.4911 46.2519C14.4815 46.2103 14.4841 46.2107 14.5108 46.2548C14.5472 46.3147 14.709 46.3257 14.7229 46.2692C14.73 46.2405 14.7387 46.2407 14.765 46.2702C14.8064 46.3166 14.8308 46.4295 14.7956 46.4118C14.7819 46.405 14.7738 46.3818 14.7776 46.3604C14.7825 46.3332 14.7727 46.336 14.7451 46.3699C14.7137 46.4086 14.6681 46.4171 14.5187 46.4124C14.3998 46.4087 14.3234 46.3934 14.3093 46.3705V46.3704ZM14.0173 46.3067C13.989 46.2829 14.0026 46.2187 14.036 46.2187C14.0603 46.2187 14.0816 46.3003 14.0617 46.317C14.0528 46.3244 14.0329 46.3198 14.0173 46.3067ZM14.4673 46.0741C14.4437 46.0229 14.4462 46.0157 14.4888 46.0118C14.5152 46.0094 14.5511 46.0053 14.5687 46.0027C14.6254 45.9943 14.6361 46.0207 14.5987 46.0769C14.5514 46.1479 14.5007 46.1469 14.4673 46.0741ZM27.3499 45.8589C27.3499 45.8519 27.3594 45.8381 27.3711 45.8283C27.3828 45.8185 27.3924 45.8242 27.3924 45.841C27.3924 45.8579 27.3828 45.8717 27.3711 45.8717C27.3594 45.8717 27.3499 45.8659 27.3499 45.8589ZM27.5994 45.8392C27.6138 45.8194 27.631 45.8105 27.6375 45.8194C27.6441 45.8283 27.6323 45.8445 27.6113 45.8553C27.581 45.8711 27.5786 45.8677 27.5994 45.8392ZM16.185 45.7596C16.185 45.7456 16.1997 45.7175 16.2177 45.6972C16.2433 45.6684 16.2562 45.6679 16.276 45.6949C16.2959 45.7218 16.2945 45.7356 16.2698 45.7568C16.2297 45.7913 16.185 45.7927 16.185 45.7596ZM40.1949 45.4958C40.1949 45.4799 40.2087 45.4669 40.2255 45.4669C40.2424 45.4669 40.2621 45.4799 40.2693 45.4958C40.2765 45.5117 40.2628 45.5247 40.2386 45.5247C40.2146 45.5247 40.1949 45.5117 40.1949 45.4958ZM39.8333 45.4651C39.8333 45.4322 39.8905 45.4288 39.905 45.4609C39.9108 45.4735 39.897 45.4857 39.8744 45.488C39.8518 45.4903 39.8333 45.48 39.8333 45.4651ZM18.7432 45.4184C18.724 45.3506 18.7532 45.3407 18.8267 45.3899C18.8651 45.4156 18.8869 45.4386 18.8751 45.441C18.7855 45.4593 18.7532 45.4538 18.7432 45.4184ZM37.1325 45.3512C37.1325 45.3353 37.1367 45.3223 37.1419 45.3223C37.147 45.3223 37.1571 45.3353 37.1644 45.3512C37.1716 45.3671 37.1674 45.3802 37.155 45.3802C37.1426 45.3802 37.1325 45.3671 37.1325 45.3512ZM36.8259 45.3262C36.8167 45.306 36.815 45.2817 36.822 45.2722C36.841 45.2463 36.8618 45.2844 36.8515 45.3263C36.8443 45.3557 36.8393 45.3557 36.8259 45.3262V45.3262ZM36.9039 45.3321C36.8603 45.3082 36.8737 45.2687 36.9198 45.285C36.9432 45.2934 36.9623 45.3116 36.9623 45.3257C36.9623 45.3533 36.9458 45.3551 36.9039 45.3321ZM47.0994 45.1874C47.075 45.1541 47.0838 45.1199 47.1171 45.1199C47.1347 45.1199 47.1492 45.1394 47.1492 45.1633C47.1492 45.2084 47.1239 45.2206 47.0994 45.1874ZM20.7068 45.0103C20.7011 44.9977 20.7151 44.9854 20.7379 44.9831C20.7608 44.9808 20.7739 44.9911 20.7671 45.006C20.752 45.0392 20.721 45.0413 20.7068 45.0103ZM20.8985 44.9606C20.9052 44.9369 20.9264 44.9165 20.9456 44.9153C20.9648 44.9141 21.0236 44.9072 21.0762 44.9001C21.1453 44.8907 21.1631 44.8952 21.14 44.9163C21.1137 44.9404 21.1134 44.9457 21.1383 44.946C21.1548 44.9463 21.1624 44.9545 21.1552 44.9645C21.1479 44.9744 21.0844 44.9872 21.0141 44.9931C20.9077 45.0019 20.8884 44.9965 20.8985 44.9606ZM12.2196 44.8906C12.2039 44.856 12.2439 44.8217 12.2723 44.8456C12.296 44.8655 12.2804 44.9175 12.2506 44.9175C12.2403 44.9175 12.2264 44.9054 12.2196 44.8906ZM12.4208 44.1386C12.4208 44.1236 12.4302 44.1034 12.4418 44.0937C12.4538 44.0836 12.4574 44.0952 12.4501 44.1209C12.436 44.171 12.4208 44.1802 12.4208 44.1386ZM12.5767 44.1237C12.5767 44.1005 12.5848 44.0884 12.5948 44.0968C12.6047 44.1051 12.6074 44.1241 12.6006 44.1389C12.5834 44.1767 12.5767 44.1724 12.5767 44.1237ZM49.6374 40.3492C49.6197 40.3338 49.6149 40.3212 49.6265 40.3212C49.6382 40.3212 49.6623 40.3338 49.6799 40.3492C49.6972 40.3646 49.702 40.3772 49.6903 40.3772C49.6787 40.3772 49.6546 40.3646 49.6374 40.3492ZM14.6963 38.2035C14.6963 38.191 14.7154 38.1807 14.7388 38.1807C14.7622 38.1807 14.7814 38.1929 14.7814 38.2078C14.7814 38.2227 14.7622 38.233 14.7388 38.2306C14.7154 38.2282 14.6963 38.216 14.6963 38.2035ZM15.5868 37.7789L15.537 37.724L15.6643 37.701C15.7342 37.6883 15.8417 37.6773 15.9031 37.6764C15.9645 37.6754 16.0148 37.6659 16.0148 37.6551C16.0148 37.6325 16.1415 37.6774 16.1612 37.7069C16.1684 37.7176 16.1448 37.7188 16.1087 37.7095C16.0683 37.6991 16.0193 37.7097 15.9811 37.7371C15.947 37.7616 15.8689 37.7829 15.8075 37.7844C15.7461 37.786 15.6958 37.7977 15.6958 37.8105C15.6958 37.8519 15.638 37.8351 15.5868 37.7789ZM15.3188 37.7873C15.3258 37.7777 15.3442 37.7767 15.3595 37.7851C15.3765 37.7943 15.3715 37.8012 15.3467 37.8026C15.3243 37.8038 15.3117 37.797 15.3188 37.7874V37.7873ZM14.9319 37.388C14.931 37.3575 14.936 37.3404 14.9431 37.35C14.9501 37.3597 14.9509 37.3846 14.9448 37.4055C14.938 37.4285 14.9329 37.4217 14.9319 37.388ZM15.5127 37.145C15.5186 37.1319 15.5039 37.0984 15.48 37.0706C15.4372 37.0207 15.4386 37.0185 15.568 36.9353C15.724 36.835 15.7384 36.8328 15.7384 36.9085C15.7384 36.9441 15.7241 36.9665 15.7011 36.9668C15.671 36.9671 15.6696 36.9721 15.694 36.9931C15.7106 37.0074 15.7417 37.0144 15.7631 37.0088C15.7846 37.0032 15.8022 37.0119 15.8022 37.0281C15.8022 37.0443 15.7711 37.0552 15.733 37.0524C15.695 37.0496 15.6448 37.0488 15.6214 37.0506C15.586 37.0534 15.5842 37.0586 15.6108 37.082C15.638 37.1059 15.6372 37.1101 15.6054 37.1105C15.585 37.1107 15.5682 37.124 15.5682 37.1398C15.5682 37.1557 15.5533 37.1687 15.535 37.1687C15.5168 37.1687 15.5068 37.158 15.5127 37.145ZM15.7846 36.9117C15.7632 36.8937 15.7641 36.8817 15.7886 36.854C15.823 36.8151 15.8504 36.849 15.8268 36.9012C15.8183 36.9197 15.7998 36.9244 15.7846 36.9117ZM15.0472 35.6941C15.04 35.6783 15.0484 35.6653 15.0659 35.6653C15.0835 35.6653 15.1038 35.6783 15.111 35.6941C15.1182 35.7101 15.1098 35.7231 15.0922 35.7231C15.0747 35.7231 15.0544 35.7101 15.0472 35.6941ZM15.4828 35.5647C15.5134 35.5145 15.5257 35.5093 15.5257 35.5465C15.5257 35.5607 15.51 35.5805 15.4908 35.5905C15.4616 35.6057 15.4603 35.6015 15.4828 35.5647ZM45.5387 35.0981C45.5637 35.0642 45.6999 35.0376 45.7273 35.0613C45.7431 35.0749 45.7465 35.0876 45.7348 35.0894C45.6203 35.1072 45.529 35.1113 45.5387 35.0981ZM45.4096 35.0624C45.392 35.0472 45.4052 35.0388 45.4469 35.0388C45.4824 35.0388 45.5115 35.0496 45.5115 35.0629C45.5115 35.0937 45.4455 35.0934 45.4096 35.0624V35.0624ZM44.8629 35.0255C44.7718 34.9978 44.5508 34.9779 44.1379 34.9603C43.9964 34.9543 43.8603 34.9345 43.8353 34.9163C43.808 34.8965 43.7128 34.8864 43.5979 34.8912C43.4924 34.8956 43.4061 34.8962 43.4061 34.8926C43.4061 34.8826 43.5299 34.7978 43.5445 34.7978C43.5516 34.7978 43.5516 34.8108 43.5443 34.8267C43.5367 34.8436 43.5583 34.8557 43.5963 34.8557C43.632 34.8557 43.6613 34.8427 43.6613 34.8267C43.6613 34.8108 43.6715 34.7978 43.6838 34.7978C43.6962 34.7978 43.6992 34.8141 43.6904 34.834C43.6786 34.8607 43.6824 34.8625 43.7051 34.8408C43.7219 34.8247 43.7549 34.813 43.7783 34.8149C43.8017 34.8167 43.8716 34.8201 43.9337 34.8224C43.9958 34.8248 44.0422 34.8365 44.0367 34.8484C44.0313 34.8603 44.0858 34.8682 44.1578 34.8659C44.2298 34.8635 44.3054 34.8737 44.3259 34.8886C44.3507 34.9066 44.3631 34.905 44.3631 34.8839C44.3631 34.8665 44.3747 34.8619 44.3888 34.8738C44.403 34.8857 44.4962 34.899 44.5962 34.9033C44.6961 34.9076 44.7778 34.9128 44.7778 34.9146C44.7778 34.9165 44.8256 34.9223 44.8841 34.9274C44.9426 34.9326 44.9929 34.9397 44.9958 34.9432C45.0008 34.9492 45.0227 34.958 45.0596 34.9687C45.0765 34.9736 44.9767 35.0576 44.9586 35.0537C44.9527 35.0524 44.9097 35.0398 44.8629 35.0255ZM44.0016 34.881C44.0016 34.8671 43.983 34.8557 43.9603 34.8557C43.9376 34.8557 43.9138 34.8671 43.9075 34.881C43.9012 34.8949 43.9198 34.9062 43.9488 34.9062C43.9778 34.9062 44.0016 34.8949 44.0016 34.881ZM45.1391 34.7974C45.1318 34.7812 45.1169 34.7755 45.106 34.7846C45.0951 34.7938 45.0862 34.7882 45.0862 34.7723C45.0862 34.7163 45.1205 34.7155 45.1459 34.7708C45.16 34.8016 45.1673 34.8268 45.162 34.8268C45.1568 34.8268 45.1465 34.8136 45.1391 34.7974ZM44.6839 34.6846C44.6614 34.6541 44.6387 34.6352 44.6332 34.6426C44.6278 34.6499 44.5768 34.6604 44.5198 34.6657C44.4212 34.6749 44.2988 34.6154 44.3298 34.5732C44.3547 34.5394 44.5015 34.5473 44.5336 34.5842C44.5665 34.6219 44.6263 34.6231 44.6531 34.5866C44.6757 34.5559 44.7842 34.5627 44.7992 34.5957C44.8196 34.6406 44.7892 34.74 44.7551 34.74C44.7384 34.74 44.7063 34.7151 44.6839 34.6846V34.6846ZM44.9034 34.7066C44.8943 34.6867 44.8975 34.6811 44.9113 34.6927C44.924 34.7033 44.9404 34.6988 44.9477 34.6826C44.9675 34.6391 44.994 34.6471 44.994 34.6967C44.994 34.7476 44.9254 34.7551 44.9034 34.7066ZM20.04 34.4912C20.047 34.4816 20.0653 34.4806 20.0807 34.4889C20.0977 34.4982 20.0926 34.505 20.0679 34.5064C20.0454 34.5077 20.0329 34.5009 20.04 34.4912ZM24.33 33.6702C24.33 33.6543 24.3342 33.6413 24.3394 33.6413C24.3445 33.6413 24.3547 33.6543 24.3619 33.6702C24.3691 33.6861 24.3649 33.6991 24.3525 33.6991C24.3402 33.6991 24.33 33.6861 24.33 33.6702ZM24.8259 33.6731C24.7916 33.6388 24.7998 33.5896 24.8376 33.603C24.8617 33.6116 24.8772 33.5998 24.8794 33.5711C24.8813 33.5461 24.8846 33.5061 24.8865 33.4823C24.8885 33.4584 24.9076 33.4373 24.929 33.4353C24.9505 33.4333 24.9752 33.429 24.984 33.4257C24.9927 33.4224 25.0286 33.4092 25.0637 33.3964C25.1418 33.3679 25.1841 33.3253 25.1686 33.2911C25.1621 33.277 25.1758 33.2654 25.1989 33.2654C25.222 33.2654 25.2458 33.2817 25.2517 33.3016C25.2592 33.3267 25.2679 33.3282 25.2801 33.3067C25.3113 33.2516 25.3764 33.2344 25.4108 33.2722C25.4383 33.3025 25.4409 33.3017 25.4259 33.2677C25.412 33.2366 25.4166 33.2313 25.4448 33.2461C25.4652 33.2567 25.4948 33.2654 25.5106 33.2654C25.5264 33.2654 25.5451 33.2901 25.5522 33.3203C25.5604 33.3555 25.5786 33.3703 25.6032 33.3615C25.6575 33.3422 25.6519 33.2708 25.5972 33.2845C25.5539 33.2953 25.5539 33.2949 25.5954 33.268C25.6188 33.253 25.6703 33.2397 25.7099 33.2386C25.7495 33.2374 25.8404 33.2237 25.9119 33.2081C26.0973 33.1677 26.5633 33.0969 26.7757 33.0769C26.8751 33.0675 26.9995 33.0547 27.0521 33.0484C27.163 33.0351 27.3819 33.014 27.6689 32.9888C27.78 32.9791 27.9331 32.9639 28.0091 32.9552C28.1919 32.9341 28.4795 32.9326 28.5195 32.9524C28.5371 32.9611 28.5921 32.9782 28.6418 32.9904C28.6915 33.0026 28.7322 33.0222 28.7322 33.0339C28.7322 33.0456 28.7085 33.0873 28.6796 33.1267C28.6368 33.1848 28.6072 33.1976 28.52 33.1953C28.4564 33.1936 28.4159 33.2043 28.4202 33.2217C28.4242 33.2378 28.501 33.252 28.5911 33.2534C28.7325 33.2554 28.8267 33.2928 28.7946 33.3342C28.7802 33.3527 28.4983 33.3709 28.4983 33.3534C28.4984 33.3448 28.4338 33.3418 28.3548 33.3468C28.2758 33.3517 28.1563 33.344 28.0892 33.3295C28.0221 33.3151 27.9626 33.3094 27.9571 33.317C27.9515 33.3245 27.9059 33.3334 27.8558 33.3368C27.8056 33.3401 27.7381 33.3529 27.7058 33.3652C27.6709 33.3785 27.6361 33.3752 27.62 33.3571C27.6052 33.3403 27.5005 33.3236 27.3874 33.3199C27.2474 33.3154 27.1862 33.3033 27.1955 33.2821C27.203 33.265 27.1929 33.2689 27.1731 33.2908C27.1482 33.3182 27.11 33.3247 27.0505 33.3118C26.9936 33.2995 26.9686 33.3031 26.9774 33.3226C26.9924 33.3557 26.9897 33.3563 26.7969 33.3634C26.7209 33.3661 26.6372 33.3787 26.6108 33.3912C26.5846 33.4037 26.563 33.4033 26.563 33.3903C26.563 33.3773 26.5391 33.3666 26.5098 33.3666C26.4806 33.3666 26.4567 33.3764 26.4567 33.3883C26.4567 33.4002 26.4418 33.41 26.4235 33.41C26.4053 33.41 26.3954 33.399 26.4015 33.3856C26.4162 33.3531 26.1978 33.4008 26.1819 33.4335C26.1529 33.4934 25.7549 33.5541 25.7549 33.4986C25.7549 33.4817 25.7447 33.4678 25.7324 33.4678C25.72 33.4678 25.7154 33.48 25.7221 33.4948C25.7413 33.5371 25.6924 33.5631 25.6607 33.5274C25.6395 33.5035 25.6295 33.5049 25.6215 33.5332C25.6147 33.5575 25.5797 33.5687 25.5234 33.5644C25.4752 33.5607 25.4359 33.5699 25.4359 33.5847C25.4359 33.6326 25.3266 33.6012 25.3054 33.5472C25.2941 33.5186 25.2756 33.5029 25.2643 33.5124C25.253 33.5219 25.2487 33.5404 25.2546 33.5536C25.2606 33.5667 25.2515 33.5847 25.2344 33.5937C25.2173 33.6026 25.1976 33.5972 25.1906 33.5818C25.1827 33.5646 25.1555 33.5705 25.1207 33.5969C25.0553 33.6464 24.8519 33.6991 24.8259 33.6731ZM24.5214 33.5418C24.5214 33.491 24.5342 33.4836 24.5524 33.5237C24.5591 33.5385 24.5549 33.5587 24.543 33.5687C24.5311 33.5787 24.5214 33.5666 24.5214 33.5418ZM24.6016 33.4918C24.6139 33.4751 24.6366 33.467 24.652 33.474C24.6678 33.4812 24.6582 33.4943 24.6295 33.5045C24.5941 33.5171 24.5858 33.5133 24.6016 33.4918ZM31.9275 33.4185C31.9012 33.4116 31.8797 33.396 31.8797 33.3839C31.8797 33.3485 31.9721 33.3677 31.9812 33.405C31.9858 33.4237 31.9863 33.4371 31.9824 33.435C31.9785 33.4328 31.9538 33.4254 31.9275 33.4185ZM31.4862 33.3522C31.5447 33.318 31.5782 33.318 31.5394 33.3522C31.5218 33.3676 31.4931 33.3795 31.4756 33.3786C31.4545 33.3775 31.4582 33.3685 31.4862 33.3522ZM31.615 33.3549C31.6085 33.3404 31.6223 33.3354 31.6457 33.3438C31.6953 33.3614 31.7016 33.3811 31.6576 33.3811C31.6408 33.3811 31.6216 33.3693 31.615 33.3549ZM28.8773 33.2894C28.8438 33.2437 28.859 33.2405 29.1218 33.2384C29.276 33.2371 29.4234 33.2305 29.4495 33.2236C29.4756 33.2167 29.5019 33.2221 29.5079 33.2354C29.514 33.2488 29.5482 33.2569 29.584 33.2536C29.6808 33.2444 29.6813 33.2865 29.5845 33.2991C29.5388 33.305 29.5059 33.2999 29.5115 33.2877C29.5289 33.2492 29.4962 33.2635 29.4629 33.3088C29.4267 33.358 29.3369 33.3668 29.317 33.3232C29.3082 33.3039 29.2898 33.3044 29.2621 33.3245C29.215 33.3588 29.1707 33.3355 29.1924 33.2879C29.2018 33.267 29.1966 33.265 29.1768 33.282C29.1603 33.296 29.0943 33.3144 29.0299 33.3228C28.9379 33.3349 28.9053 33.3278 28.8773 33.2894ZM30.5824 33.3232C30.5824 33.3074 30.5866 33.2943 30.5917 33.2943C30.5969 33.2943 30.6071 33.3074 30.6143 33.3232C30.6215 33.3392 30.6173 33.3522 30.6049 33.3522C30.5925 33.3522 30.5824 33.3392 30.5824 33.3232ZM29.7317 33.2654C29.7126 33.2486 29.7099 33.2372 29.7252 33.237C29.7391 33.2367 29.7564 33.2495 29.7636 33.2654C29.7799 33.3013 29.7726 33.3013 29.7317 33.2654ZM38.0381 33.2615C38.0491 33.2373 37.9681 33.2088 37.9517 33.2311C37.9288 33.2622 37.8343 33.268 37.8343 33.2384C37.8343 33.2201 37.7738 33.2156 37.6695 33.2263C37.5416 33.2395 37.4879 33.2328 37.4302 33.1961C37.3893 33.1702 37.3719 33.1549 37.3916 33.1622C37.4113 33.1695 37.4305 33.1641 37.4342 33.1503C37.4378 33.1365 37.4552 33.121 37.4727 33.1158C37.4903 33.1106 37.5117 33.0934 37.5203 33.0775C37.5289 33.0616 37.5361 33.0771 37.5362 33.1119C37.5365 33.1718 37.5397 33.173 37.595 33.1337C37.6475 33.0964 37.6565 33.0974 37.683 33.1427C37.711 33.1907 37.7118 33.1906 37.6996 33.1427C37.6897 33.1036 37.6985 33.0921 37.7382 33.0921C37.7665 33.0921 37.7994 33.1148 37.8113 33.1427C37.8234 33.1707 37.8333 33.1772 37.8336 33.1571C37.8343 33.1193 37.8981 33.105 37.8981 33.1427C37.8981 33.1546 37.9704 33.1636 38.0588 33.1627C38.1473 33.1618 38.2244 33.1715 38.2302 33.1844C38.2361 33.1972 38.2613 33.2077 38.2864 33.2077C38.3228 33.2077 38.3266 33.2149 38.3053 33.2438C38.2787 33.2801 38.022 33.2971 38.0381 33.2616V33.2615ZM38.3872 33.2606C38.3872 33.2474 38.3944 33.2356 38.4032 33.2346C38.4119 33.2335 38.4497 33.2271 38.4871 33.2205C38.5713 33.2055 38.6012 33.2552 38.5203 33.2754C38.4403 33.2955 38.3872 33.2895 38.3872 33.2606ZM36.856 33.1642C36.856 33.1483 36.8201 33.1353 36.7763 33.1353C36.7324 33.1353 36.6895 33.1483 36.6809 33.1642C36.6705 33.1835 36.6651 33.1835 36.6649 33.1642C36.6644 33.128 36.537 33.1195 36.537 33.1556C36.537 33.1702 36.5283 33.1748 36.5177 33.1659C36.4974 33.1488 36.3104 33.1215 36.1117 33.1066C36.0473 33.1017 35.9947 33.0948 35.9947 33.0912C35.9947 33.0719 35.7149 33.0716 35.697 33.091C35.665 33.1255 35.4524 33.1496 35.4524 33.1187C35.4524 33.104 35.4381 33.092 35.4205 33.092C35.403 33.092 35.3886 33.1045 35.3886 33.1199C35.3886 33.1373 35.2388 33.1426 34.9899 33.1341C34.7706 33.1265 34.568 33.1205 34.5398 33.1207C34.5116 33.121 34.4566 33.109 34.4176 33.0944C34.3749 33.0783 34.3465 33.0782 34.3465 33.0941C34.3465 33.1204 34.2722 33.1161 34.252 33.0887C34.2462 33.0807 34.1494 33.0789 34.0369 33.0846C33.9014 33.0914 33.8223 33.0834 33.8024 33.0609C33.779 33.0345 33.7723 33.0358 33.772 33.0667C33.7718 33.0918 33.766 33.0953 33.7561 33.0762C33.7467 33.0581 33.6257 33.0445 33.4534 33.0424C33.2955 33.0404 32.817 33.0313 32.3901 33.0222C31.9631 33.0132 31.4152 33.004 31.1725 33.0019C30.9298 32.9998 30.7312 32.9899 30.7312 32.9799C30.7312 32.97 30.6785 32.9618 30.6142 32.9618C30.5499 32.9618 30.4973 32.9716 30.4973 32.9835C30.4973 32.9954 30.4872 33.0052 30.4748 33.0052C30.4624 33.0052 30.4582 32.9922 30.4654 32.9763C30.4727 32.9604 30.4636 32.9474 30.4454 32.9474C30.4272 32.9474 30.4123 32.9344 30.4123 32.9185C30.4123 32.9026 30.4021 32.8896 30.3897 32.8896C30.3774 32.8896 30.3731 32.9026 30.3804 32.9185C30.3881 32.9356 30.3647 32.9472 30.3231 32.9469C30.2699 32.9466 30.2605 32.9397 30.2847 32.9185C30.3082 32.8978 30.3092 32.8903 30.2884 32.89C30.2668 32.8896 30.2677 32.8796 30.2922 32.8462C30.3098 32.8223 30.344 32.8028 30.3682 32.8028C30.3924 32.8028 30.4123 32.7889 30.4123 32.7719C30.4123 32.7537 30.4306 32.749 30.4574 32.7606C30.4879 32.7737 30.4979 32.7696 30.4881 32.7481C30.4801 32.7305 30.4792 32.7161 30.4861 32.7161C30.493 32.7161 30.506 32.7428 30.5149 32.7755L30.531 32.835L30.5871 32.775C30.6256 32.7339 30.6478 32.7253 30.658 32.7476C30.6685 32.7706 30.6779 32.7687 30.6906 32.7408C30.7051 32.709 30.851 32.7018 31.4695 32.7027C31.8881 32.7033 32.4028 32.7121 32.6134 32.7224C32.8239 32.7326 33.1732 32.7485 33.3896 32.7577C34.1709 32.791 34.3722 32.8031 34.3897 32.8178C34.4288 32.8507 34.6002 32.8798 34.6261 32.858C34.6421 32.8446 34.6608 32.8494 34.6703 32.8694C34.6826 32.8952 34.6921 32.893 34.7078 32.8606C34.7193 32.8368 34.7289 32.8303 34.7291 32.8462C34.7293 32.8644 34.8608 32.8738 35.0856 32.8716C35.4409 32.8681 36.0479 32.9148 36.0479 32.9456C36.0479 32.9545 36.1221 32.9604 36.2127 32.9586C36.368 32.9555 36.7258 32.9951 36.7893 33.0224C36.8127 33.0324 36.8131 33.0432 36.7916 33.0785C36.7699 33.114 36.7705 33.1198 36.7945 33.1095C36.8108 33.1025 36.8508 33.0888 36.8835 33.0791C36.92 33.0681 36.9381 33.0478 36.9305 33.026C36.9238 33.0066 36.9294 33.0111 36.943 33.036C36.9631 33.0726 36.9904 33.0771 37.0859 33.0595C37.1531 33.0471 37.2201 33.0494 37.2412 33.0648C37.2618 33.0797 37.3055 33.0937 37.3384 33.0959C37.3936 33.0995 37.3943 33.1009 37.347 33.113C37.3073 33.1231 37.3025 33.132 37.3258 33.1519C37.3586 33.1802 37.331 33.1838 37.0315 33.1897C36.927 33.1917 36.856 33.1814 36.856 33.1642ZM30.6752 32.9042C30.6685 32.8804 30.6544 32.8682 30.644 32.877C30.6139 32.9022 30.6218 32.9474 30.6561 32.9474C30.6751 32.9474 30.6826 32.9304 30.6752 32.9042ZM29.4348 33.003C29.4568 32.9474 29.4554 32.9411 29.4253 32.9568C29.3953 32.9725 29.394 32.9661 29.4156 32.9112L29.4407 32.8474L29.4618 32.9118C29.4861 32.9858 29.5301 32.9965 29.548 32.9329C29.5547 32.9091 29.5526 32.8896 29.5432 32.8896C29.5338 32.8896 29.5261 32.8699 29.5261 32.8458C29.5261 32.8103 29.5454 32.8056 29.6289 32.8207C29.6992 32.8333 29.7317 32.8288 29.7317 32.8065C29.7317 32.7884 29.7654 32.7739 29.8074 32.7739C29.857 32.7739 29.8781 32.7849 29.8686 32.8057C29.8584 32.8283 29.8671 32.8281 29.8988 32.805C29.9359 32.7781 29.9413 32.78 29.931 32.8166C29.9242 32.8408 29.91 32.8606 29.8996 32.8606C29.8891 32.8606 29.8806 32.8736 29.8806 32.8896C29.8806 32.9498 29.919 32.915 29.9444 32.8317C29.974 32.7346 29.9747 32.7341 30.0281 32.7729C30.0549 32.7924 30.0633 32.823 30.0559 32.8753C30.0501 32.9163 30.0538 32.946 30.064 32.9414C30.0742 32.9367 30.0874 32.9456 30.0933 32.9612C30.0995 32.9779 30.049 32.9914 29.9695 32.9943C29.8467 32.9988 29.8332 32.9933 29.8119 32.9299C29.789 32.8616 29.7105 32.8317 29.7105 32.8912C29.7105 32.9081 29.7199 32.9139 29.7315 32.9042C29.7433 32.8942 29.7472 32.9053 29.7404 32.9296C29.7333 32.9548 29.7142 32.9654 29.6946 32.9551C29.6727 32.9437 29.6662 32.9491 29.6759 32.9705C29.6931 33.0082 29.6224 33.036 29.5403 33.0238C29.5111 33.0196 29.4697 33.0276 29.4483 33.0417C29.4135 33.0647 29.4121 33.0607 29.4348 33.003ZM30.0166 32.8944C30.0226 32.8811 30.0141 32.8703 29.9976 32.8703C29.981 32.8703 29.9724 32.8811 29.9785 32.8944C29.9845 32.9076 29.9931 32.9185 29.9976 32.9185C30.002 32.9185 30.0106 32.9076 30.0166 32.8944ZM29.1484 33.0085C29.142 32.9944 29.1558 32.9761 29.1791 32.9678C29.2073 32.9578 29.2172 32.9374 29.2085 32.9067C29.2014 32.8814 29.2045 32.8606 29.2155 32.8606C29.2447 32.8606 29.24 32.9551 29.2087 32.9976C29.1769 33.0408 29.1641 33.0431 29.1484 33.0085ZM29.2788 32.9281C29.2848 32.9069 29.2924 32.8896 29.2958 32.8896C29.2991 32.8896 29.3067 32.9069 29.3127 32.9281C29.3187 32.9493 29.3111 32.9666 29.2958 32.9666C29.2804 32.9666 29.2728 32.9493 29.2788 32.9281ZM29.3608 32.8471C29.3835 32.8238 29.423 32.8042 29.4487 32.8037C29.4994 32.8027 29.5317 32.8466 29.5 32.8733C29.4891 32.8824 29.4765 32.875 29.472 32.8567C29.4659 32.8317 29.4526 32.8317 29.4184 32.8564C29.3531 32.904 29.3119 32.8973 29.3608 32.847V32.8471ZM29.0782 32.8432C29.0853 32.8336 29.1036 32.8325 29.119 32.8409C29.136 32.8501 29.1309 32.857 29.1061 32.8584C29.0837 32.8596 29.0711 32.8528 29.0782 32.8432ZM30.1996 32.8317C30.1723 32.8078 30.1731 32.8036 30.2049 32.8032C30.2254 32.803 30.2421 32.8158 30.2421 32.8317C30.2421 32.867 30.2397 32.867 30.1996 32.8317ZM30.0854 32.7877C30.0753 32.7518 30.0807 32.7493 30.115 32.7742C30.1643 32.8101 30.169 32.8317 30.1274 32.8317C30.1111 32.8317 30.0922 32.8119 30.0854 32.7877Z" fill="#FFE4B7"/>
<path d="M23.5282 43.2082C23.2831 43.2082 23.0705 43.1596 22.8903 43.0624C22.71 42.9652 22.5407 42.8194 22.3821 42.625C22.4542 42.625 22.5407 42.6319 22.6416 42.6458L22.9443 42.6562C23.1894 42.6562 23.5642 42.6215 24.0688 42.5521C24.2634 42.1216 24.4436 41.5315 24.6094 40.7816C24.7824 40.0248 24.9626 39.1396 25.15 38.1259C25.3086 37.3066 25.4239 36.7408 25.496 36.4284C25.1284 36.6644 24.8581 36.8241 24.6851 36.9074C24.5193 36.9838 24.3859 37.022 24.285 37.022C24.076 37.022 23.9715 36.8797 23.9715 36.595C24.2094 36.4839 24.5734 36.2548 25.0635 35.9076C25.5537 35.5536 26.0042 35.189 26.4151 34.8141C26.5088 34.8974 26.5556 35.0328 26.5556 35.2203C26.5556 35.3244 26.5376 35.439 26.5016 35.564C26.4727 35.682 26.4547 35.7549 26.4475 35.7827C26.3754 36.0534 26.3322 36.2409 26.3178 36.3451C26.1087 37.6434 25.8961 38.7751 25.6798 39.7402C25.4636 40.7053 25.1608 41.6113 24.7716 42.4584C24.9446 42.4445 25.0708 42.4375 25.15 42.4375C25.46 42.4375 25.7123 42.4896 25.9069 42.5937C26.1087 42.7048 26.2421 42.8992 26.3069 43.177C25.9537 43.1353 25.6222 43.1145 25.3122 43.1145C25.1536 43.1145 24.7752 43.1318 24.1769 43.1665C23.8165 43.1943 23.6003 43.2082 23.5282 43.2082ZM29.7983 43.2082C29.0631 43.2082 28.5008 42.9409 28.1116 42.4063C27.7224 41.8786 27.5277 41.2017 27.5277 40.3755C27.5277 39.584 27.6935 38.7543 28.0251 37.8864C28.3639 37.0116 28.8396 36.2791 29.4523 35.6889C30.0722 35.0988 30.775 34.8037 31.5607 34.8037C32.2743 34.8037 32.8438 35.0571 33.2691 35.564C33.6943 36.0708 33.907 36.7825 33.907 37.6989C33.907 38.5529 33.7232 39.4104 33.3556 40.2713C32.9951 41.1253 32.5014 41.8265 31.8743 42.375C31.2472 42.9305 30.5552 43.2082 29.7983 43.2082ZM29.9497 42.7083C30.4687 42.7083 30.9552 42.4202 31.4093 41.8439C31.8706 41.2607 32.2383 40.5455 32.5122 39.6985C32.7861 38.8445 32.9231 38.0426 32.9231 37.2928C32.9231 36.6609 32.8113 36.1611 32.5879 35.7931C32.3716 35.4182 32.0292 35.2307 31.5607 35.2307C30.9624 35.2307 30.4398 35.5293 29.9929 36.1264C29.546 36.7165 29.2036 37.4316 28.9658 38.2717C28.7279 39.1118 28.609 39.8721 28.609 40.5525C28.609 41.2121 28.7279 41.7363 28.9658 42.1251C29.2036 42.5139 29.5316 42.7083 29.9497 42.7083ZM34.7629 43.2082C34.5178 43.2082 34.3051 43.1596 34.1249 43.0624C33.9447 42.9652 33.7753 42.8194 33.6167 42.625C33.6888 42.625 33.7753 42.6319 33.8762 42.6458L34.179 42.6562C34.4241 42.6562 34.7989 42.6215 35.3035 42.5521C35.4981 42.1216 35.6783 41.5315 35.8441 40.7816C36.0171 40.0248 36.1973 39.1396 36.3847 38.1259C36.5433 37.3066 36.6586 36.7408 36.7307 36.4284C36.3631 36.6644 36.0928 36.8241 35.9198 36.9074C35.754 36.9838 35.6206 37.022 35.5197 37.022C35.3107 37.022 35.2062 36.8797 35.2062 36.595C35.444 36.4839 35.808 36.2548 36.2982 35.9076C36.7884 35.5536 37.2389 35.189 37.6497 34.8141C37.7434 34.8974 37.7903 35.0328 37.7903 35.2203C37.7903 35.3244 37.7723 35.439 37.7362 35.564C37.7074 35.682 37.6894 35.7549 37.6822 35.7827C37.6101 36.0534 37.5668 36.2409 37.5524 36.3451C37.3434 37.6434 37.1308 38.7751 36.9145 39.7402C36.6983 40.7053 36.3955 41.6113 36.0063 42.4584C36.1793 42.4445 36.3054 42.4375 36.3847 42.4375C36.6946 42.4375 36.9469 42.4896 37.1416 42.5937C37.3434 42.7048 37.4767 42.8992 37.5416 43.177C37.1884 43.1353 36.8568 43.1145 36.5469 43.1145C36.3883 43.1145 36.0099 43.1318 35.4116 43.1665C35.0512 43.1943 34.8349 43.2082 34.7629 43.2082Z" fill="#96BB7C"/>
<path d="M12.1824 36.237C11.5428 36.237 11.0231 36.1095 10.6233 35.8546C10.2236 35.5997 10.0237 35.2417 10.0237 34.7809C10.0237 34.4672 10.1236 34.1877 10.3235 33.9426C10.5234 33.7072 10.8032 33.5503 11.163 33.4719C11.0531 33.9622 10.9981 34.2956 10.9981 34.4721C10.9981 34.8741 11.108 35.1829 11.3279 35.3986C11.5578 35.6144 11.9026 35.7222 12.3623 35.7222C13.0819 35.7222 13.6565 35.4722 14.0863 34.9721C14.5161 34.4721 14.8259 33.8886 15.0158 33.2219C15.2156 32.5551 15.4055 31.7266 15.5854 30.7363C15.7253 29.991 15.8303 29.5008 15.9003 29.2655C15.4805 29.9322 15.0158 30.447 14.5061 30.8098C13.9964 31.1726 13.4167 31.354 12.7671 31.354C12.1374 31.354 11.6727 31.1824 11.3729 30.8392C11.0731 30.496 10.9232 30.0401 10.9232 29.4714C10.9232 29.1478 10.9631 28.7997 11.0431 28.4271C11.123 28.0447 11.248 27.5398 11.4179 26.9122C11.5678 26.3533 11.6827 25.8974 11.7627 25.5444C11.8426 25.1816 11.8826 24.858 11.8826 24.5737C11.8826 23.8677 11.6128 23.5147 11.0731 23.5147C10.7333 23.5147 10.4484 23.6422 10.2186 23.8971C9.9887 24.1422 9.8138 24.4511 9.69387 24.8237C9.58393 25.1865 9.52896 25.5493 9.52896 25.9121C9.52896 26.0592 9.53896 26.1866 9.55894 26.2945C9.58893 26.4023 9.6389 26.5494 9.70886 26.7357C9.24912 26.7357 8.90932 26.6328 8.68945 26.4269C8.47957 26.2209 8.37463 25.9464 8.37463 25.6032C8.37463 25.2012 8.50956 24.7894 8.7794 24.3678C9.04924 23.9461 9.41403 23.5981 9.87376 23.3235C10.3435 23.0392 10.8532 22.897 11.4029 22.897C11.9725 22.897 12.4073 23.0489 12.7071 23.3529C13.0069 23.6569 13.1569 24.0442 13.1569 24.5148C13.1569 24.7207 13.1219 24.9708 13.0519 25.2649C12.9919 25.5591 12.887 25.9709 12.7371 26.5004C12.5572 27.1475 12.4223 27.6672 12.3323 28.0594C12.2424 28.4517 12.1974 28.8242 12.1974 29.1772C12.1974 30.0989 12.5522 30.5598 13.2618 30.5598C13.9014 30.5598 14.4961 30.2264 15.0458 29.5596C15.5954 28.8831 16.0452 28.0398 16.395 27.0299C16.4549 26.873 16.5199 26.6769 16.5899 26.4416C16.6598 26.2062 16.7098 26.0297 16.7398 25.9121C17.0496 24.9218 17.3144 24.1717 17.5343 23.6618C17.7542 23.1519 18.004 22.897 18.2839 22.897C18.4038 22.897 18.5587 22.9509 18.7486 23.0588C18.9485 23.1568 19.1334 23.2892 19.3033 23.4559C18.9335 24.0148 18.6437 24.5394 18.4338 25.0296C18.2239 25.5101 18.014 26.1229 17.8041 26.8681C17.5943 27.6133 17.2694 28.8732 16.8297 30.648C16.5599 31.7168 16.2551 32.6483 15.9152 33.4425C15.5854 34.2269 15.1157 34.8888 14.5061 35.4281C13.8964 35.9674 13.1219 36.237 12.1824 36.237ZM19.1323 33.9573C18.7225 33.9573 18.4227 33.8249 18.2328 33.5602C18.0529 33.2954 17.9629 32.967 17.9629 32.5747C17.9629 32.1629 18.0479 31.7364 18.2178 31.2952C18.3977 30.8539 18.6276 30.4862 18.9074 30.1921C19.1872 29.8979 19.4721 29.7508 19.7619 29.7508C19.8819 29.7508 20.0368 29.7901 20.2267 29.8685C20.2866 29.4174 20.4465 29.0449 20.7064 28.7507C20.9762 28.4565 21.351 28.3095 21.8307 28.3095C22.2305 28.3095 22.5253 28.4222 22.7152 28.6477C22.9051 28.8635 23.0001 29.1478 23.0001 29.5008C23.0001 29.844 22.9051 30.2362 22.7152 30.6774C22.5353 31.1187 22.3004 31.5599 22.0106 32.0011C22.1306 32.06 22.2705 32.0894 22.4304 32.0894C22.7102 32.0894 23.01 32.0011 23.3299 31.8246C23.6497 31.6383 23.8945 31.3589 24.0644 30.9863L24.3343 31.1775C24.1244 31.6481 23.8396 32.006 23.4798 32.2512C23.13 32.4963 22.7652 32.6189 22.3854 32.6189C22.1555 32.6189 21.9057 32.5747 21.6358 32.4865C21.266 32.9179 20.8613 33.2709 20.4216 33.5455C19.9818 33.82 19.5521 33.9573 19.1323 33.9573ZM21.5009 31.6923C21.7508 31.3295 21.9556 30.952 22.1156 30.5598C22.2855 30.1675 22.3704 29.8146 22.3704 29.5008C22.3704 29.0694 22.2305 28.8537 21.9507 28.8537C21.8207 28.8537 21.6858 28.9174 21.5459 29.0449C21.406 29.1723 21.291 29.3439 21.2011 29.5596C21.1112 29.7655 21.0662 29.996 21.0662 30.2509C21.0662 30.4764 21.1061 30.7363 21.1861 31.0304C21.266 31.3148 21.371 31.5354 21.5009 31.6923ZM19.672 33.2072C19.8519 33.2072 20.0717 33.1091 20.3316 32.913C20.5914 32.7169 20.8513 32.4669 21.1112 32.1629C20.5415 31.6727 20.2417 30.952 20.2117 30.0009C20.0917 30.0597 19.9468 30.2411 19.7769 30.5451C19.607 30.849 19.4621 31.1873 19.3422 31.5599C19.2222 31.9325 19.1623 32.2561 19.1623 32.5306C19.1623 32.9817 19.3322 33.2072 19.672 33.2072ZM24.86 33.9279C24.5302 33.9279 24.2553 33.7759 24.0355 33.4719C23.8156 33.1679 23.7057 32.8101 23.7057 32.3982C23.7057 32.0453 23.7856 31.604 23.9456 31.0745C24.1054 30.5451 24.2904 30.0842 24.5002 29.692C24.7201 29.2998 24.91 29.1037 25.0699 29.1037C25.1398 29.1037 25.2448 29.1429 25.3847 29.2213C25.5346 29.29 25.6645 29.3782 25.7745 29.4861C25.5646 29.7901 25.3447 30.2264 25.1149 30.7951C24.895 31.3638 24.7851 31.8541 24.7851 32.2659C24.7851 32.4522 24.81 32.6483 24.86 32.8542C24.92 33.0503 25.0449 33.1483 25.2348 33.1483C25.6046 33.1483 26.0443 32.7463 26.554 31.9423C27.0737 31.1285 27.5185 30.3048 27.8883 29.4714C28.4879 29.5694 28.7877 29.7361 28.7877 29.9714C28.7877 29.991 28.7278 30.1332 28.6078 30.398C28.398 30.8784 28.2181 31.3246 28.0682 31.7364C27.9182 32.1482 27.8433 32.5061 27.8433 32.8101C27.8433 33.1532 27.9782 33.3248 28.248 33.3248C28.4579 33.3248 28.7078 33.2317 28.9976 33.0454C29.2974 32.8493 29.6022 32.5747 29.9121 32.2218C30.2219 31.8589 30.4917 31.4422 30.7216 30.9716L30.9465 31.1481C30.7266 31.6776 30.4418 32.1531 30.092 32.5747C29.7422 32.9964 29.3624 33.3248 28.9526 33.5602C28.5529 33.8053 28.1681 33.9279 27.7983 33.9279C27.3585 33.9279 27.0737 33.7808 26.9438 33.4866C26.8239 33.1826 26.7639 32.7806 26.7639 32.2806C26.4241 32.7905 26.1043 33.1925 25.8045 33.4866C25.5046 33.7808 25.1898 33.9279 24.86 33.9279ZM33.1113 33.869C32.7415 33.869 32.4417 33.771 32.2118 33.5749C31.982 33.3886 31.867 33.1336 31.867 32.8101C31.867 32.6238 31.902 32.4228 31.972 32.207C32.0519 31.9815 32.1668 31.7119 32.3168 31.3981C32.4467 31.1236 32.5466 30.8932 32.6166 30.7068C32.6866 30.5107 32.7215 30.3391 32.7215 30.1921C32.7215 29.8195 32.4717 29.5057 31.972 29.2508C31.7721 29.741 31.5372 30.2362 31.2674 30.7363C31.0075 31.2363 30.7727 31.658 30.5628 32.0011L30.3379 31.5746C30.7977 30.7706 31.2024 29.8832 31.5522 28.9125C31.4522 28.8144 31.4023 28.682 31.4023 28.5154C31.4023 28.2604 31.4822 28.0202 31.6422 27.7947C31.8021 27.5692 31.957 27.4564 32.1069 27.4564C32.2068 27.4564 32.2868 27.5152 32.3467 27.6329C32.4167 27.7506 32.4517 27.8486 32.4517 27.9271C32.4517 27.9663 32.4267 28.0545 32.3767 28.1918C32.3367 28.3193 32.3068 28.4124 32.2868 28.4712C32.2968 28.5399 32.3367 28.6085 32.4067 28.6772C32.4767 28.736 32.6066 28.8242 32.7965 28.9419C33.1463 29.1674 33.4161 29.388 33.606 29.6038C33.8059 29.8097 33.9058 30.0891 33.9058 30.4421C33.9058 30.6578 33.8658 30.8735 33.7859 31.0892C33.7159 31.305 33.606 31.5648 33.4561 31.8688C33.2362 32.3002 33.1263 32.609 33.1263 32.7954C33.1263 33.0209 33.2512 33.1336 33.5011 33.1336C33.8009 33.1336 34.1257 33.016 34.4755 32.7806C34.8353 32.5453 35.1601 32.261 35.4499 31.9276C35.7498 31.5844 35.9696 31.2657 36.1096 30.9716L36.4693 31.2363C36.2695 31.6776 35.9896 32.0992 35.6298 32.5012C35.27 32.9032 34.8653 33.2317 34.4155 33.4866C33.9758 33.7415 33.5411 33.869 33.1113 33.869ZM37.538 34.2367C36.8384 34.2367 36.3186 34.0357 35.9789 33.6337C35.6491 33.2415 35.4842 32.7708 35.4842 32.2218C35.4842 31.8393 35.5541 31.5746 35.694 31.4275C35.8339 31.2706 35.9888 31.153 36.1588 31.0745C36.3387 30.9961 36.4436 30.9422 36.4736 30.9128C37.1132 30.2656 37.5979 29.5939 37.9277 28.8978V28.7507C37.9277 28.3879 37.9877 28.1183 38.1076 27.9418C38.2375 27.7653 38.4024 27.677 38.6023 27.677C38.8222 27.677 38.9421 27.7751 38.9621 27.9712C38.9621 28.0202 38.9471 28.0937 38.9172 28.1918C38.8971 28.2899 38.8872 28.3928 38.8872 28.5007C38.8872 28.687 38.9172 28.8831 38.9771 29.089C39.0371 29.2949 39.132 29.5743 39.262 29.9273C39.4218 30.3587 39.5418 30.7314 39.6217 31.0451C39.7117 31.3589 39.7567 31.6776 39.7567 32.0011C39.7567 32.1678 39.7367 32.3688 39.6967 32.6042C40.3763 32.4375 40.9659 31.8835 41.4657 30.9422L41.6456 31.0745C41.4457 31.6334 41.1658 32.0845 40.8061 32.4277C40.4562 32.7708 40.0415 32.9767 39.5618 33.0454C39.4019 33.4376 39.142 33.7318 38.7822 33.9279C38.4224 34.1338 38.0077 34.2367 37.538 34.2367ZM38.5124 32.5747C38.5424 32.4865 38.5574 32.3345 38.5574 32.1188C38.5474 31.805 38.5124 31.4962 38.4524 31.1922C38.3925 30.8882 38.3025 30.496 38.1826 30.0156L38.0477 29.4861C37.5579 30.3195 37.1232 30.9323 36.7434 31.3246C36.9133 31.6089 37.1532 31.8688 37.463 32.1041C37.7728 32.3296 38.1226 32.4865 38.5124 32.5747ZM37.433 33.5896C37.6329 33.5896 37.8178 33.5406 37.9877 33.4425C38.1676 33.3444 38.3025 33.2023 38.3925 33.016C38.0027 32.9375 37.6429 32.7905 37.3131 32.5747C36.9833 32.3492 36.7184 32.109 36.5186 31.8541C36.3786 31.8835 36.3087 32.0158 36.3087 32.2512C36.3087 32.6042 36.4086 32.9179 36.6085 33.1925C36.8084 33.4572 37.0832 33.5896 37.433 33.5896ZM42.7787 34.1338C42.1491 34.1338 41.6593 33.9671 41.3095 33.6337C40.9598 33.3003 40.7848 32.8738 40.7848 32.3541C40.7848 31.7854 40.9797 31.1726 41.3695 30.5156C41.7593 29.8489 42.259 29.2949 42.8686 28.8537C43.4783 28.4026 44.0779 28.1771 44.6676 28.1771C44.9774 28.1771 45.2373 28.2555 45.4469 28.4124C45.6572 28.5595 45.7621 28.8095 45.7621 29.1625C45.7621 29.6332 45.577 30.0793 45.2073 30.5009C44.8375 30.9128 44.3578 31.251 43.7681 31.5158C43.1884 31.7805 42.5938 31.9472 41.9841 32.0158C41.9642 32.1139 41.9542 32.2266 41.9542 32.3541C41.9542 32.609 42.0241 32.864 42.164 33.1189C42.314 33.3739 42.6288 33.5013 43.1085 33.5013C43.7182 33.5013 44.3378 33.2611 44.9674 32.7806C45.607 32.2904 46.1219 31.6824 46.5117 30.9569L46.8115 31.1922C46.4116 32.0747 45.8371 32.7855 45.0873 33.3248C44.3478 33.8641 43.5782 34.1338 42.7787 34.1338ZM42.1491 31.4716C42.5088 31.4324 42.9086 31.2903 43.3484 31.0451C43.7981 30.8 44.1779 30.5009 44.4877 30.1479C44.7975 29.7851 44.9524 29.4321 44.9524 29.089C44.9524 28.9811 44.9324 28.9076 44.8925 28.8684C44.8525 28.8291 44.7875 28.8095 44.6976 28.8095C44.4077 28.8095 44.0879 28.9468 43.7381 29.2213C43.3983 29.4861 43.0835 29.8244 42.7937 30.2362C42.5039 30.648 42.289 31.0598 42.1491 31.4716ZM47.4382 33.9279C46.9985 33.9279 46.6789 33.7857 46.4787 33.5013C46.279 33.217 46.1789 32.8395 46.1789 32.3688C46.1789 31.4668 46.4888 30.2607 47.1084 28.7507C47.738 27.2407 48.4426 25.8876 49.2221 24.6913C50.0017 23.4951 50.5766 22.897 50.9461 22.897C51.1163 22.897 51.2609 23.0293 51.3809 23.2941C51.5008 23.549 51.566 23.8089 51.5758 24.0736C51.5758 24.5247 51.391 25.1865 51.0211 26.0592C50.6515 26.922 50.1516 27.7996 49.5219 28.6919C48.9024 29.5842 48.2379 30.3048 47.5281 30.8539C47.4183 31.4618 47.3632 31.9227 47.3632 32.2365C47.3632 32.5796 47.4183 32.8346 47.5281 33.0013C47.648 33.1679 47.8081 33.2513 48.0078 33.2513C48.3579 33.2513 48.7274 33.0258 49.1172 32.5747C49.5171 32.1139 49.872 31.5599 50.1816 30.9128L50.5414 31.104C50.1017 31.9962 49.6171 32.6924 49.0872 33.1925C48.5576 33.6827 48.0078 33.9279 47.4382 33.9279ZM47.798 29.942C48.3376 29.3733 48.8425 28.7066 49.3121 27.9418C49.7918 27.177 50.1718 26.4514 50.4514 25.765C50.7415 25.0786 50.8862 24.5688 50.8862 24.2354C50.7565 24.2354 50.4915 24.5344 50.0916 25.1326C49.7018 25.7307 49.2873 26.4759 48.8473 27.3682C48.4178 28.2506 48.0678 29.1086 47.798 29.942ZM49.8087 37.6048C49.5688 37.6048 49.3488 37.5019 49.149 37.296C48.9392 37.09 48.8342 36.7224 48.8342 36.1929C48.8342 35.1731 49.2041 33.5651 49.9436 31.3687C50.6931 29.1723 51.5728 27.2113 52.582 25.4856C53.6015 23.7598 54.5309 22.897 55.3704 22.897C55.7902 22.897 56.0001 23.147 56.0001 23.6471C56.0001 24.1864 55.8003 24.7992 55.4004 25.4856C55.0106 26.1719 54.5009 26.8436 53.8713 27.5005C53.2417 28.1477 52.5869 28.6919 51.9074 29.1331L51.6676 29.7214C51.7676 29.7606 51.8475 29.8293 51.9074 29.9273C51.9775 30.0254 52.0225 30.1283 52.0424 30.2362C52.1424 30.7657 52.2324 31.1726 52.3122 31.4569C52.392 31.7413 52.512 31.9717 52.672 32.1482C52.8418 32.3247 53.0719 32.413 53.3616 32.413C53.6914 32.413 53.9864 32.2953 54.2461 32.06C54.5159 31.8246 54.8056 31.4569 55.1156 30.9569L55.4454 31.1922C55.1456 31.7903 54.7959 32.2413 54.396 32.5453C54.0062 32.8493 53.6363 33.0013 53.2866 33.0013C52.9467 33.0013 52.5922 32.8689 52.2223 32.6042C52.2121 33.3984 52.0873 34.1828 51.8475 34.9574C51.6177 35.7418 51.3179 36.3792 50.948 36.8694C50.5781 37.3597 50.1984 37.6048 49.8087 37.6048ZM52.3422 28.1036C52.9119 27.5741 53.4167 27.0446 53.8563 26.5151C54.2959 25.9856 54.631 25.515 54.8607 25.1032C55.1006 24.6815 55.2205 24.3825 55.2205 24.206C55.2205 24.1275 55.1804 24.0883 55.1006 24.0883C54.7509 24.0883 54.3312 24.4609 53.8413 25.2061C53.3515 25.9415 52.8519 26.9073 52.3422 28.1036ZM50.2284 36.6929C50.4083 36.6929 50.6032 36.4576 50.8131 35.987C51.0331 35.5163 51.2178 34.9525 51.3678 34.2956C51.5278 33.6386 51.6076 33.0748 51.6076 32.6042C51.6076 32.3296 51.5728 32.0845 51.5027 31.8688C51.4427 31.6433 51.3329 31.3883 51.1729 31.104C50.8131 32.1629 50.5234 33.1287 50.3034 34.0014C50.0935 34.8741 49.9886 35.5604 49.9886 36.0605C49.9886 36.4821 50.0684 36.6929 50.2284 36.6929Z" fill="white"/>
<path d="M26.0573 28.0837C25.7093 28.0837 25.2719 27.8058 24.7452 27.2501C24.2278 26.6943 23.7011 26.0208 23.1649 25.2295C22.6381 24.4288 22.1913 23.6752 21.8245 22.9688L20.5405 27.1229C20.4465 27.4243 20.2677 27.6174 20.0044 27.7022C19.741 27.787 19.4118 27.8294 19.0167 27.8294C19.186 27.462 19.3506 27.057 19.5106 26.6142C19.6799 26.1715 19.9291 25.4603 20.2584 24.4806C21.152 21.8619 21.8903 19.7519 22.4735 18.1505C22.4829 18.1223 22.5111 18.0422 22.5582 17.9103C22.6146 17.7785 22.6428 17.656 22.6428 17.543C22.6428 17.364 22.5488 17.2745 22.3607 17.2745C22.0879 17.2745 21.8198 17.4158 21.5564 17.6984C21.2931 17.9716 21.0814 18.306 20.9215 18.7016C20.7616 19.0878 20.6816 19.4222 20.6816 19.7048C20.6816 19.9215 20.7287 20.1381 20.8227 20.3548C20.4371 20.3548 20.1502 20.2747 19.9621 20.1146C19.7834 19.945 19.694 19.7189 19.694 19.4363C19.694 19.0313 19.8586 18.6168 20.1878 18.1929C20.517 17.7596 20.9168 17.4017 21.3871 17.1191C21.8574 16.8271 22.2854 16.6811 22.6711 16.6811C23.1884 16.6811 23.4471 16.9542 23.4471 17.5006C23.4471 17.6796 23.4142 17.868 23.3483 18.0658L22.3042 21.4569C22.4171 21.391 22.7416 21.1508 23.2778 20.7363C24.0773 20.1146 24.8204 19.4505 25.5071 18.744C26.2031 18.0281 26.7769 17.3263 27.2284 16.6387C27.3319 16.7329 27.4024 16.8553 27.4401 17.006C27.4871 17.1473 27.5106 17.2792 27.5106 17.4017C27.5106 18.0422 26.9792 18.8099 25.9162 19.7048C24.8627 20.5903 23.6587 21.4663 22.3042 22.3329C22.8028 23.1053 23.2261 23.7318 23.5741 24.2122C23.9315 24.6926 24.3783 25.206 24.9145 25.7523C25.4506 26.2892 26.1232 26.8686 26.9321 27.4903C26.8475 27.6504 26.7205 27.787 26.5512 27.9C26.3819 28.0225 26.2173 28.0837 26.0573 28.0837ZM32.0798 27.137C31.7223 27.137 31.4448 27.0475 31.2473 26.8686C31.0498 26.6896 30.951 26.4541 30.951 26.1621C30.951 26.0396 30.9698 25.8983 31.0075 25.7382C31.0545 25.578 31.1015 25.4179 31.1485 25.2578C31.2802 24.8245 31.3461 24.5042 31.3461 24.297C31.3461 24.1085 31.299 23.972 31.205 23.8872C31.1109 23.793 30.9933 23.7459 30.8522 23.7459C30.3537 23.7459 29.8505 24.0615 29.3425 24.6926C28.8346 25.3143 28.289 26.1055 27.7058 27.0664C27.3013 27.0664 26.9957 26.9298 26.7887 26.6566L26.9157 26.3034C27.4707 24.9563 27.7482 23.9578 27.7482 23.3079C27.8234 23.2231 27.9316 23.1477 28.0727 23.0818C28.2138 23.0064 28.3502 22.9688 28.4819 22.9688C28.6417 22.9688 28.7641 23.0064 28.8487 23.0818C28.9334 23.1572 28.9757 23.2608 28.9757 23.3927C28.9757 23.647 28.8957 24.0662 28.7358 24.6502C29.1591 24.085 29.5965 23.6235 30.048 23.2655C30.5089 22.9075 30.9604 22.7286 31.4025 22.7286C31.7788 22.7286 32.0703 22.8604 32.2773 23.1242C32.4842 23.3785 32.5877 23.6847 32.5877 24.0426C32.5877 24.2498 32.5595 24.4477 32.5031 24.6361C32.456 24.8245 32.3807 25.0364 32.2773 25.2719C32.1174 25.6675 32.0374 25.9643 32.0374 26.1621C32.0374 26.3034 32.0703 26.407 32.1362 26.4729C32.202 26.5388 32.282 26.5718 32.3761 26.5718C32.6865 26.5718 33.0204 26.3599 33.3778 25.936C33.7447 25.5027 34.0739 24.994 34.3655 24.41L34.6054 24.6078C34.2667 25.3897 33.8905 26.0066 33.4766 26.4588C33.0721 26.9109 32.6065 27.137 32.0798 27.137ZM34.925 27.3066C34.5394 27.3066 34.2572 27.1794 34.0785 26.9251C33.9091 26.6707 33.8244 26.3552 33.8244 25.9784C33.8244 25.5828 33.9044 25.173 34.0644 24.7491C34.2337 24.3252 34.45 23.972 34.7134 23.6894C34.9767 23.4068 35.2448 23.2655 35.5176 23.2655C35.6305 23.2655 35.7763 23.3032 35.955 23.3785C36.0115 22.9452 36.1619 22.5873 36.4065 22.3047C36.6605 22.0221 37.0132 21.8808 37.4647 21.8808C37.841 21.8808 38.1184 21.9891 38.2972 22.2058C38.4759 22.413 38.5653 22.6862 38.5653 23.0253C38.5653 23.355 38.4759 23.7318 38.2972 24.1557C38.1279 24.5795 37.9068 25.0034 37.634 25.4273C37.7469 25.4838 37.8786 25.5121 38.0291 25.5121C38.2925 25.5121 38.5747 25.4273 38.8757 25.2578C39.1766 25.0788 39.4071 24.8103 39.567 24.4524L39.821 24.6361C39.6235 25.0882 39.3554 25.432 39.0168 25.6675C38.6875 25.903 38.3442 26.0208 37.9868 26.0208C37.7704 26.0208 37.5353 25.9784 37.2813 25.8936C36.9332 26.3081 36.5523 26.6472 36.1384 26.9109C35.7245 27.1747 35.3201 27.3066 34.925 27.3066ZM37.1543 25.1306C37.3895 24.7821 37.5823 24.4194 37.7328 24.0426C37.8927 23.6658 37.9727 23.3267 37.9727 23.0253C37.9727 22.6108 37.841 22.4036 37.5776 22.4036C37.4553 22.4036 37.3283 22.4648 37.1966 22.5873C37.0649 22.7097 36.9568 22.8746 36.8721 23.0818C36.7875 23.2796 36.7451 23.501 36.7451 23.7459C36.7451 23.9626 36.7828 24.2122 36.858 24.4948C36.9332 24.768 37.032 24.9799 37.1543 25.1306ZM35.433 26.586C35.6023 26.586 35.8092 26.4918 36.0538 26.3034C36.2983 26.115 36.5429 25.8748 36.7875 25.5828C36.2513 25.1117 35.9691 24.4194 35.9409 23.5057C35.828 23.5622 35.6916 23.7365 35.5317 24.0285C35.3718 24.3205 35.2354 24.6455 35.1226 25.0034C35.0097 25.3614 34.9532 25.6723 34.9532 25.936C34.9532 26.3693 35.1131 26.586 35.433 26.586ZM43.3493 27.3913C43.0577 27.3913 42.8508 27.2642 42.7285 27.0098C42.6062 26.7649 42.5357 26.4211 42.5169 25.9784L42.531 25.6393C42.531 25.4509 42.5404 25.2436 42.5592 25.0176C42.1924 25.6864 41.8255 26.2327 41.4587 26.6566C41.0918 27.0711 40.7156 27.2783 40.3299 27.2783C40.0195 27.2783 39.7561 27.137 39.5398 26.8544C39.3329 26.5624 39.2294 26.2139 39.2294 25.8088C39.2294 25.4603 39.3046 25.0317 39.4551 24.523C39.6056 24.0144 39.7796 23.5716 39.9772 23.1948C40.1841 22.8181 40.3628 22.6297 40.5133 22.6297C40.598 22.6297 40.7156 22.672 40.8661 22.7568C41.026 22.8416 41.1248 22.9358 41.1624 23.0394C40.9648 23.322 40.7626 23.7365 40.5557 24.2828C40.3487 24.8292 40.2453 25.3002 40.2453 25.6958C40.2453 25.8842 40.2735 26.0726 40.3299 26.261C40.3863 26.4399 40.5039 26.5294 40.6826 26.5294C41.1624 26.5294 41.8349 25.6864 42.7003 24.0002C42.7756 23.6046 42.8414 23.3173 42.8978 23.1383C42.9543 22.9594 43.0107 22.8463 43.0671 22.7992C43.1236 22.7427 43.2035 22.7144 43.307 22.7144C43.4857 22.7144 43.6221 22.7521 43.7162 22.8275C43.8197 22.8934 43.8714 22.9923 43.8714 23.1242C43.8714 23.1524 43.8479 23.2372 43.8008 23.3785C43.7068 23.68 43.6315 24.0662 43.5751 24.5372C43.5186 24.9987 43.4904 25.465 43.4904 25.936C43.4904 26.1903 43.5045 26.374 43.5328 26.487C43.5704 26.6001 43.6409 26.6566 43.7444 26.6566C43.989 26.6566 44.3088 26.3834 44.7038 25.8371C45.1083 25.2813 45.4799 24.6549 45.8185 23.9578C45.8185 23.289 45.8843 22.8227 46.016 22.559C46.1571 22.2953 46.3499 22.1634 46.5945 22.1634C46.8014 22.1634 46.9566 22.234 47.0601 22.3753C47.1637 22.5072 47.2153 22.6391 47.2153 22.7709C47.2153 22.8651 47.1871 22.9594 47.1307 23.0535C47.0835 23.1477 47.0507 23.2137 47.0319 23.2514C46.8438 23.6281 46.7497 24.0473 46.7497 24.5089C46.7497 25.206 46.9566 25.5545 47.3705 25.5545C47.5491 25.5545 47.7233 25.4744 47.8926 25.3143C48.0711 25.1541 48.2594 24.8763 48.4569 24.4806L48.725 24.6926C48.5368 25.1447 48.311 25.4744 48.0478 25.6817C47.7938 25.8795 47.5306 25.9784 47.2576 25.9784C46.9661 25.9784 46.7074 25.8747 46.4816 25.6675C46.2653 25.4509 46.0913 25.1636 45.9596 24.8056C45.5363 25.5404 45.0989 26.1573 44.6474 26.6566C44.1959 27.1464 43.7632 27.3913 43.3493 27.3913Z" fill="white"/>
</svg>
