<svg width="64" height="64" viewBox="0 0 64 64" fill="none" xmlns="http://www.w3.org/2000/svg">
<rect width="64" height="64" rx="12" fill="#2472A0"/>
<path d="M48.0988 21.9849L46.8965 27.0342L43.4684 29.7279L29.5172 40.6893L32 43.172L27.6552 43.7927L25.8819 42.0194L24.0695 43.6543C26.3846 46.1048 29.0418 48.2518 32 49.9996C40.7082 44.8541 46.8828 36.3172 49.0447 26.4358L49.9999 22.0687C49.3631 22.0687 48.7294 22.0395 48.0988 21.9849Z" fill="#63C1FF"/>
<path d="M23.3103 34.4827L36.6247 17.5367L31.9999 14L27.3647 17.5447C23.5276 20.4787 18.8308 22.0689 14 22.0689L14.9552 26.4361C15.9974 31.1993 17.9799 35.6446 20.7214 39.5543L22.0689 38.2068L20.2069 36.3448L20.8276 31.9999L23.3103 34.4827Z" fill="#63C1FF"/>
<path d="M42.5517 21.4483L40.0689 23.931L26.4138 37.5861L29.5173 40.6896L43.4685 29.7282L46.8965 27.0344L50 14L42.5517 21.4483Z" fill="#EBEBEB"/>
<path d="M36.9654 17.1034L36.6247 17.5367L23.3103 34.4827L26.4137 37.5861L40.0689 23.931L42.5516 21.4483L49.9999 14L36.9654 17.1034Z" fill="#E6E6E6"/>
<path d="M22.069 38.207L20.7215 39.5545L14.8777 45.3983C14.393 45.8831 14.393 46.6689 14.8777 47.1536L16.8465 49.1224C17.3313 49.6072 18.1171 49.6072 18.6019 49.1224L23.3104 44.4139L25.7931 41.9312L22.069 38.207Z" fill="#BEBEBE"/>
<path d="M31.9999 19.5864L28.5421 22.0977C25.8229 24.177 22.4953 25.3036 19.0729 25.3036L19.75 28.3983C20.02 29.6323 20.3794 30.8364 20.8214 32.0033L23.3103 34.4829L33.8446 21.0761L31.9999 19.5864Z" fill="#4398D1"/>
<path d="M43.4685 29.728C41.4277 36.6952 38.2907 41.3169 32 45.0342C31.2025 44.5631 30.4378 44.0547 29.7035 43.5129L32.3104 43.2826L29.7035 40.6894L43.4685 29.728Z" fill="#4398D1"/>
<path d="M42.5517 21.4482L40.9113 23.0887V31.7411L42.3525 30.6201L42.5517 21.4482Z" fill="#F5F5F5"/>
<path d="M39.3595 24.6587L39.4203 32.9517L38.3621 33.8039V25.6313L39.3595 24.6587Z" fill="#F5F5F5"/>
<path d="M32 45.0342C32.4599 44.7499 33.4623 44.1143 33.8875 43.8183L32 41.9307L41.8503 34.1914C42.4636 32.8153 42.9974 31.3369 43.4685 29.728L29.5173 40.6894L28.2759 42.5514C28.9022 43.0132 32 45.0342 32 45.0342Z" fill="#3F8FC4"/>
<path d="M48.0988 21.9849L46.8965 27.0342L43.4685 29.7279C42.9974 31.3368 42.4636 32.8152 41.8503 34.1913L45.9512 30.9693L48.3471 29.0868C48.6084 28.2141 48.8486 27.3327 49.0447 26.4364L50 22.0687C49.3631 22.0687 48.7294 22.0395 48.0988 21.9849Z" fill="#5EB7F2"/>
<path d="M27.6552 43.7928L25.1724 41.3101L24.0695 43.6544C24.6715 44.2918 25.2984 44.9076 25.9458 45.5022L27.6552 43.7928Z" fill="#5EB7F2"/>
<path d="M23.3104 44.4139L25.7931 41.9312L22.069 38.207L21.7587 38.5174C22.2242 39.7588 22.6897 41.3105 22.6897 42.5518C22.6897 43.4909 22.4234 44.6069 22.092 45.6323L23.3104 44.4139Z" fill="#B0B0B0"/>
<path d="M20.8275 32L20.2068 36.3448L27.655 43.7931L31.9999 43.1724L20.8275 32Z" fill="#8C421C"/>
<path d="M31.3794 42.5518L27.0345 43.1724L27.6552 43.7931L32 43.1724L31.3794 42.5518Z" fill="#803C19"/>
</svg>
