<svg width="64" height="64" viewBox="0 0 64 64" fill="none" xmlns="http://www.w3.org/2000/svg">
<rect width="64" height="64" rx="12" fill="#502822"/>
<path d="M26.7493 18.8763L36.126 28.253C36.1692 27.421 36.2065 25.5848 35.891 23.3846C35.3225 19.4194 33.8601 16.1616 31.662 13.9636C29.464 11.7656 26.2062 10.3032 22.241 9.73459C19.2906 9.31147 16.9932 9.52284 16.8968 9.53216C16.4248 9.57728 16.0512 9.9509 16.0061 10.4229C15.9969 10.5192 15.7855 12.8166 16.2085 15.767C16.7771 19.7322 18.2394 22.9901 20.4375 25.1881C22.6356 27.3861 25.8934 28.8485 29.8586 29.4171C31.319 29.6265 32.6189 29.6804 33.5715 29.6804C34.0539 29.6804 34.4471 29.6665 34.7268 29.652L25.3502 20.2754C24.9639 19.8891 24.9639 19.2627 25.3502 18.8763C25.7365 18.49 26.3629 18.49 26.7493 18.8763Z" fill="#A9BA5A"/>
<path d="M48.351 16.3941C48.3059 15.9222 47.9323 15.5485 47.4603 15.5034C47.1959 15.4782 40.9419 14.9264 37.3001 18.5683C37.1583 18.7101 37.0231 18.856 36.8937 19.0053C37.32 20.2802 37.6413 21.6506 37.8496 23.1034C37.9162 23.5686 37.9681 24.0176 38.0085 24.4467L40.5935 21.8617C40.9798 21.4754 41.6063 21.4754 41.9927 21.8617C42.3791 22.248 42.379 22.8744 41.9927 23.2608L38.134 27.1195C38.133 28.128 38.0756 28.7855 38.0631 28.9167C38.0409 29.1489 37.9915 29.373 37.919 29.5865C40.1167 29.3833 43.1504 28.6901 45.2861 26.5543C48.9279 22.9126 48.3763 16.6587 48.351 16.3941Z" fill="#9EB14A"/>
<path d="M15.1488 33.7017C15.3721 33.7017 15.5597 33.7988 15.7116 33.993C15.8634 34.1872 16.06 34.5888 16.3011 35.1979C16.8639 36.6367 17.4133 38.8919 17.9492 41.9636C17.9582 41.999 17.9626 42.0519 17.9626 42.1225C17.9626 42.1843 17.918 42.2549 17.8286 42.3344C17.7482 42.405 17.6277 42.4403 17.4669 42.4403C17.315 42.4403 17.1855 42.405 17.0783 42.3344C16.9711 42.2549 16.8996 42.1314 16.8639 41.9636C16.8282 41.7871 16.7612 41.4473 16.6629 40.9441C16.4485 39.8231 16.3056 39.2406 16.2341 39.1964C16.1269 39.1346 15.7696 39.0684 15.1622 38.9978C14.5637 38.9272 14.1662 38.8919 13.9697 38.8919C13.7732 38.8919 13.657 38.9096 13.6213 38.9449C13.4605 39.0861 13.2417 40.1586 12.9647 42.1622C12.929 42.33 12.7593 42.4138 12.4556 42.4138C12.1519 42.4138 12 42.2858 12 42.0298C12 41.3943 12.2367 40.1806 12.7102 38.3888C13.1836 36.5969 13.5766 35.4097 13.8893 34.8272C14.2823 34.0769 14.7022 33.7017 15.1488 33.7017ZM15.0952 35.1714C14.9612 35.1714 14.729 35.5642 14.3985 36.3498C14.0679 37.1265 13.9027 37.6076 13.9027 37.793C13.9027 37.8371 13.9116 37.868 13.9295 37.8856C14.0009 37.9563 14.2823 38.0181 14.7736 38.071C15.2649 38.124 15.591 38.1505 15.7518 38.1505C15.9126 38.1505 16.0019 38.1416 16.0198 38.124C16.0376 38.0975 16.0466 38.0269 16.0466 37.9121C16.0466 37.7886 15.926 37.3031 15.6848 36.4557C15.4436 35.5995 15.2471 35.1714 15.0952 35.1714Z" fill="white"/>
<path d="M19.2393 42.0166L19.0919 36.6411C19.0919 36.4734 19.15 36.3365 19.2661 36.2306C19.3822 36.1247 19.4984 36.0717 19.6145 36.0717C19.9004 36.0717 20.0656 36.1909 20.1103 36.4292C20.146 36.6675 20.1639 36.9147 20.1639 37.1707C20.6462 36.544 21.2492 36.2306 21.9728 36.2306C23.0804 36.2306 23.6343 37.4796 23.6343 39.9776C23.6343 40.2071 23.6343 40.5558 23.6343 41.0236C23.6343 41.4826 23.6075 41.818 23.5539 42.0298C23.4913 42.2946 23.2993 42.4271 22.9777 42.4271C22.7633 42.4271 22.6561 42.2858 22.6561 42.0034L22.6695 41.2619C22.6695 40.238 22.6338 39.5407 22.5623 39.17C22.4998 38.7904 22.4373 38.4903 22.3747 38.2696C22.2229 37.793 21.9772 37.5546 21.6378 37.5546C21.1911 37.5546 20.8785 37.7135 20.6998 38.0313C20.5033 38.3755 20.3872 38.7816 20.3515 39.2494C20.2889 40.0703 20.2577 40.9397 20.2577 41.8577C20.2577 42.0343 20.1907 42.1755 20.0567 42.2814C19.9227 42.3873 19.7619 42.4403 19.5743 42.4403C19.351 42.4403 19.2393 42.2991 19.2393 42.0166Z" fill="white"/>
<path d="M28.6341 41.8842C28.3126 42.2549 27.9061 42.4403 27.4148 42.4403C26.9235 42.4403 26.4992 42.2902 26.1419 41.9901C25.3915 41.4164 25.0164 40.5381 25.0164 39.3553C25.0164 38.4285 25.2754 37.687 25.7935 37.131C26.3116 36.566 26.9503 36.2836 27.7096 36.2836C28.4689 36.2836 28.987 36.5396 29.2639 37.0515C29.5051 37.5017 29.6257 38.1813 29.6257 39.0905L29.5989 40.1762C29.5989 40.6882 29.6212 41.3987 29.6659 42.3079C29.7195 43.2082 29.7463 43.8879 29.7463 44.3469C29.7463 45.106 29.5542 45.6621 29.1701 46.0152C28.7949 46.3771 28.2188 46.558 27.4416 46.558C26.9771 46.558 26.5037 46.4609 26.0213 46.2667C25.5389 46.0725 25.2977 45.8474 25.2977 45.5915C25.2977 45.4061 25.3469 45.2649 25.4451 45.1678C25.5523 45.0707 25.6729 45.0221 25.8069 45.0221C25.9409 45.0221 26.2402 45.1192 26.7047 45.3134C27.1781 45.5076 27.5175 45.6047 27.723 45.6047C28.3662 45.6047 28.6877 45.0839 28.6877 44.0424C28.6877 43.0008 28.6699 42.2814 28.6341 41.8842ZM28.6207 39.0905C28.6207 38.4462 28.5225 37.996 28.326 37.74C28.1384 37.4752 27.8391 37.3428 27.4282 37.3428C27.0173 37.3428 26.6868 37.5282 26.4367 37.8989C26.1866 38.2696 26.0615 38.7419 26.0615 39.3156C26.0615 39.8805 26.1776 40.3307 26.4099 40.6661C26.6511 41.0015 27.0173 41.1692 27.5086 41.1692C27.9999 41.1692 28.317 40.9618 28.4599 40.5469C28.5671 40.2115 28.6207 39.726 28.6207 39.0905Z" fill="white"/>
<path d="M34.601 41.8842C34.2794 42.2549 33.8729 42.4403 33.3816 42.4403C32.8903 42.4403 32.466 42.2902 32.1087 41.9901C31.3584 41.4164 30.9832 40.5381 30.9832 39.3553C30.9832 38.4285 31.2422 37.687 31.7603 37.131C32.2784 36.566 32.9171 36.2836 33.6764 36.2836C34.4357 36.2836 34.9538 36.5396 35.2307 37.0515C35.4719 37.5017 35.5925 38.1813 35.5925 39.0905L35.5657 40.1762C35.5657 40.6882 35.588 41.3987 35.6327 42.3079C35.6863 43.2082 35.7131 43.8879 35.7131 44.3469C35.7131 45.106 35.521 45.6621 35.1369 46.0152C34.7617 46.3771 34.1856 46.558 33.4084 46.558C32.9439 46.558 32.4705 46.4609 31.9881 46.2667C31.5057 46.0725 31.2646 45.8474 31.2646 45.5915C31.2646 45.4061 31.3137 45.2649 31.412 45.1678C31.5191 45.0707 31.6397 45.0221 31.7737 45.0221C31.9077 45.0221 32.207 45.1192 32.6715 45.3134C33.1449 45.5076 33.4844 45.6047 33.6898 45.6047C34.333 45.6047 34.6546 45.0839 34.6546 44.0424C34.6546 43.0008 34.6367 42.2814 34.601 41.8842ZM34.5876 39.0905C34.5876 38.4462 34.4893 37.996 34.2928 37.74C34.1052 37.4752 33.8059 37.3428 33.395 37.3428C32.9841 37.3428 32.6536 37.5282 32.4035 37.8989C32.1534 38.2696 32.0283 38.7419 32.0283 39.3156C32.0283 39.8805 32.1444 40.3307 32.3767 40.6661C32.6179 41.0015 32.9841 41.1692 33.4754 41.1692C33.9667 41.1692 34.2838 40.9618 34.4268 40.5469C34.534 40.2115 34.5876 39.726 34.5876 39.0905Z" fill="white"/>
<path d="M38.4507 40.494L38.4641 41.8577C38.4641 42.0166 38.3882 42.1622 38.2363 42.2946C38.0934 42.4271 37.9505 42.4933 37.8076 42.4933C37.6021 42.4933 37.4726 42.3344 37.419 42.0166C37.41 41.946 37.3743 41.3016 37.3118 40.0835C37.2493 38.8566 37.1287 37.8945 36.95 37.1972C36.8696 36.8617 36.8294 36.6631 36.8294 36.6013C36.8294 36.3101 37.0081 36.1644 37.3654 36.1644C37.5172 36.1644 37.6378 36.2218 37.7272 36.3365C37.8165 36.4513 37.8701 36.5705 37.8879 36.694C37.9147 36.8088 37.9371 36.9677 37.9549 37.1707C37.9728 37.3737 37.9862 37.5017 37.9951 37.5546C38.1827 37.1133 38.4641 36.7823 38.8393 36.5616C39.2145 36.341 39.6254 36.2306 40.072 36.2306C40.8045 36.2306 41.1707 36.416 41.1707 36.7867C41.1707 36.9721 41.1037 37.1221 40.9698 37.2369C40.8447 37.3428 40.6973 37.3958 40.5276 37.3958C39.7683 37.3958 39.2323 37.6341 38.9197 38.1107C38.607 38.5874 38.4507 39.3818 38.4507 40.494Z" fill="white"/>
<path d="M43.8072 36.2968C44.2807 36.2968 44.7318 36.4336 45.1606 36.7073C45.5893 36.9809 45.8037 37.3207 45.8037 37.7268C45.8037 38.124 45.6295 38.5124 45.2812 38.8919C44.9328 39.2626 44.4683 39.4877 43.8876 39.5672C43.6375 39.6025 43.2623 39.6201 42.7621 39.6201C42.8604 40.3704 43.0524 40.8647 43.3383 41.103C43.4276 41.2001 43.5482 41.2487 43.7 41.2487C44.2539 41.2487 44.7184 41.0765 45.0936 40.7323C45.4687 40.3792 45.7367 40.2027 45.8975 40.2027C45.969 40.2027 46.0762 40.2689 46.2191 40.4013C46.362 40.5337 46.4335 40.6573 46.4335 40.772C46.4335 41.0015 46.1521 41.3325 45.5893 41.765C45.3392 41.9681 45.0355 42.1402 44.6782 42.2814C44.3298 42.4138 44.0038 42.48 43.7 42.48C42.9229 42.48 42.3512 41.9857 41.985 40.9971C41.7527 40.3881 41.6366 39.7172 41.6366 38.9846C41.6366 38.252 41.8108 37.6208 42.1591 37.0912C42.5075 36.5616 43.0569 36.2968 43.8072 36.2968ZM43.8742 37.2104C43.5348 37.2104 43.2445 37.4002 43.0033 37.7797C42.914 37.9121 42.8291 38.2122 42.7487 38.6801C43.9993 38.6801 44.6246 38.3755 44.6246 37.7665C44.6246 37.3958 44.3745 37.2104 43.8742 37.2104Z" fill="white"/>
<path d="M52 41.8312C52 42.2461 51.8079 42.4535 51.4238 42.4535C51.263 42.4535 51.0442 42.0652 50.7673 41.2884C50.4904 40.5028 50.1196 39.8982 49.6551 39.4745C49.6105 39.5363 49.4184 39.7128 49.079 40.0041C48.7485 40.2865 48.5519 40.4587 48.4894 40.5205V41.8445C48.4715 41.9769 48.4492 42.0784 48.4224 42.149C48.3956 42.2196 48.3331 42.2858 48.2348 42.3476C48.1455 42.4094 48.0204 42.4403 47.8597 42.4403C47.6185 42.4403 47.4979 42.2946 47.4979 42.0034C47.4979 41.1825 47.4621 39.9114 47.3907 38.1902C47.3192 36.4601 47.2835 34.911 47.2835 33.5429C47.2835 33.3751 47.3505 33.2427 47.4845 33.1456C47.6274 33.0485 47.7748 33 47.9266 33C48.1321 33 48.2572 33.128 48.3018 33.384V35.7275C48.3018 36.0099 48.3063 36.2218 48.3152 36.363C48.3242 36.5043 48.3331 36.7161 48.342 36.9986C48.3599 37.5811 48.3912 38.2387 48.4358 38.9713C48.6949 38.7772 49.0254 38.4726 49.4274 38.0578C49.8383 37.6341 50.1465 37.2722 50.3519 36.9721C50.6735 36.4689 50.9683 36.2174 51.2362 36.2174C51.3077 36.2174 51.3792 36.235 51.4506 36.2703C51.6382 36.3763 51.732 36.4998 51.732 36.6411C51.732 36.7823 51.6695 36.9677 51.5444 37.1972C51.2229 37.7444 50.8521 38.2431 50.4323 38.6933C50.8343 39.1346 51.2362 39.7658 51.6382 40.5867C51.8794 41.1163 52 41.5311 52 41.8312Z" fill="white"/>
<path d="M18.0951 46.2741C18.5523 46.2741 19.0573 46.3618 19.61 46.5371C19.7328 46.6315 19.7942 46.736 19.7942 46.8506C19.7942 46.9585 19.7362 47.0563 19.6202 47.144C19.511 47.2249 19.3848 47.2653 19.2415 47.2653C18.873 47.1709 18.5284 47.1237 18.2077 47.1237C17.4708 47.1237 16.9112 47.3395 16.5291 47.771C16.147 48.2026 15.9559 48.8431 15.9559 49.6927C15.9559 50.5423 16.1811 51.2064 16.6315 51.6852C16.8635 51.9347 17.1398 52.0594 17.4605 52.0594C17.7812 52.0594 18.293 51.8908 18.9958 51.5537C19.2415 51.4391 19.4053 51.3817 19.4872 51.3817C19.6646 51.3817 19.7533 51.4728 19.7533 51.6548C19.7533 51.8369 19.668 51.9886 19.4974 52.11C18.9106 52.4134 18.4534 52.619 18.1258 52.7269C17.7983 52.8281 17.5151 52.8786 17.2763 52.8786C16.785 52.8786 16.3653 52.6999 16.0173 52.3426C15.3964 51.6818 15.0859 50.7816 15.0859 49.6421C15.0859 48.4959 15.3793 47.6497 15.9661 47.1035C16.5598 46.5506 17.2695 46.2741 18.0951 46.2741Z" fill="white"/>
<path d="M20.6218 46.3449C20.6422 46.0887 20.6832 45.9235 20.7446 45.8493C20.8128 45.7684 20.9186 45.728 21.0619 45.728C21.3553 45.728 21.502 45.846 21.502 46.082C21.502 46.264 21.485 46.7394 21.4508 47.5081C21.4236 48.2767 21.4099 48.9645 21.4099 49.5713C21.4099 50.1782 21.4338 50.667 21.4816 51.0379C21.5634 51.6852 21.6794 52.0088 21.8296 52.0088C21.9797 52.0088 22.0923 51.9043 22.1673 51.6953C22.2014 51.6144 22.256 51.5436 22.3311 51.4829C22.4062 51.4155 22.5017 51.3817 22.6177 51.3817C22.8565 51.3817 22.9759 51.5807 22.9759 51.9785C22.9759 52.1942 22.8565 52.41 22.6177 52.6258C22.3857 52.8348 22.1537 52.9393 21.9217 52.9393C21.6897 52.9393 21.502 52.9022 21.3587 52.8281C21.2223 52.7471 21.1097 52.6292 21.021 52.4741C20.9391 52.319 20.8708 52.1706 20.8162 52.029C20.7685 51.8807 20.7344 51.702 20.7139 51.493C20.6729 51.1559 20.6422 50.6165 20.6218 49.8748C20.6081 49.1263 20.6013 48.415 20.6013 47.7407C20.6013 47.0597 20.6081 46.5944 20.6218 46.3449Z" fill="white"/>
<path d="M26.227 48.1655C26.5272 48.1655 26.6773 48.4183 26.6773 48.924C26.6773 48.978 26.6773 49.0353 26.6773 49.096L26.6569 49.804C26.65 50.0265 26.6466 50.2456 26.6466 50.4614L26.8002 52.7471C26.8002 52.9157 26.6262 53 26.2782 53C26.2577 53 26.2065 53 26.1246 53C26.0496 53 25.995 52.9697 25.9609 52.909C25.9336 52.8483 25.9302 52.7741 25.9506 52.6865C25.9779 52.5988 25.9711 52.501 25.9301 52.3932C25.6163 52.7235 25.2 52.8887 24.6814 52.8887C23.7193 52.8887 23.2382 52.1538 23.2382 50.6839C23.2382 49.868 23.3917 49.251 23.6988 48.833C24.0127 48.415 24.4597 48.2059 25.0397 48.2059C25.3126 48.2059 25.5856 48.2531 25.8585 48.3475C25.9472 48.2262 26.07 48.1655 26.227 48.1655ZM25.1625 49.0859C24.7735 49.0859 24.4835 49.1971 24.2925 49.4196C24.1014 49.6421 24.0059 50.0501 24.0059 50.6434C24.0059 51.6413 24.2788 52.1403 24.8247 52.1403C24.968 52.1403 25.125 52.0762 25.2955 51.9481C25.473 51.82 25.5958 51.6751 25.664 51.5132C25.7937 51.1491 25.8585 50.7513 25.8585 50.3198C25.8585 49.8882 25.8039 49.5747 25.6947 49.3792C25.5924 49.1836 25.415 49.0859 25.1625 49.0859Z" fill="white"/>
<path d="M27.5535 49.45C27.5535 49.0521 27.6968 48.7352 27.9834 48.4992C28.27 48.2632 28.6009 48.1452 28.9762 48.1452C29.3584 48.1452 29.7234 48.2127 30.0714 48.3475C30.4195 48.4824 30.5935 48.6611 30.5935 48.8836C30.5935 48.9982 30.5491 49.0892 30.4604 49.1567C30.3717 49.2241 30.2932 49.2578 30.225 49.2578C30.1636 49.2578 30.1124 49.2578 30.0714 49.2578C30.0373 49.2511 29.9009 49.187 29.662 49.0656C29.43 48.9443 29.2151 48.8836 29.0172 48.8836C28.8193 48.8836 28.6487 48.9341 28.5054 49.0353C28.3689 49.1297 28.3007 49.2713 28.3007 49.4601C28.3007 49.6489 28.3792 49.7972 28.5361 49.9051C28.6999 50.013 28.9831 50.1074 29.3857 50.1883C29.7883 50.2625 30.0953 50.3703 30.3069 50.5119C30.5252 50.6535 30.6344 50.9165 30.6344 51.3008C30.6344 51.8605 30.4843 52.2583 30.184 52.4943C29.8906 52.7235 29.5324 52.8382 29.1093 52.8382C28.6862 52.8382 28.3246 52.7809 28.0243 52.6662C27.7309 52.5516 27.5842 52.3797 27.5842 52.1504C27.5842 51.8875 27.7173 51.756 27.9834 51.756C28.0516 51.756 28.2018 51.8032 28.4338 51.8976C28.6658 51.992 28.8944 52.0392 29.1195 52.0392C29.3515 52.0392 29.5256 51.9684 29.6416 51.8268C29.7644 51.6784 29.8258 51.5099 29.8258 51.3211C29.8258 51.1323 29.7473 50.9974 29.5904 50.9165C29.4334 50.8288 29.1946 50.758 28.8739 50.7041C28.5532 50.6502 28.3178 50.5928 28.1676 50.5322C27.7582 50.3703 27.5535 50.0096 27.5535 49.45Z" fill="white"/>
<path d="M31.4918 49.45C31.4918 49.0521 31.6351 48.7352 31.9217 48.4992C32.2083 48.2632 32.5392 48.1452 32.9145 48.1452C33.2966 48.1452 33.6617 48.2127 34.0097 48.3475C34.3577 48.4824 34.5317 48.6611 34.5317 48.8836C34.5317 48.9982 34.4874 49.0892 34.3987 49.1567C34.3099 49.2241 34.2315 49.2578 34.1632 49.2578C34.1018 49.2578 34.0506 49.2578 34.0097 49.2578C33.9756 49.2511 33.8391 49.187 33.6003 49.0656C33.3683 48.9443 33.1533 48.8836 32.9555 48.8836C32.7576 48.8836 32.587 48.9341 32.4437 49.0353C32.3072 49.1297 32.239 49.2713 32.239 49.4601C32.239 49.6489 32.3174 49.7972 32.4744 49.9051C32.6382 50.013 32.9213 50.1074 33.3239 50.1883C33.7265 50.2625 34.0336 50.3703 34.2451 50.5119C34.4635 50.6535 34.5727 50.9165 34.5727 51.3008C34.5727 51.8605 34.4225 52.2583 34.1223 52.4943C33.8289 52.7235 33.4706 52.8382 33.0476 52.8382C32.6245 52.8382 32.2628 52.7809 31.9626 52.6662C31.6692 52.5516 31.5225 52.3797 31.5225 52.1504C31.5225 51.8875 31.6555 51.756 31.9217 51.756C31.9899 51.756 32.14 51.8032 32.372 51.8976C32.604 51.992 32.8326 52.0392 33.0578 52.0392C33.2898 52.0392 33.4638 51.9684 33.5798 51.8268C33.7026 51.6784 33.7641 51.5099 33.7641 51.3211C33.7641 51.1323 33.6856 50.9974 33.5286 50.9165C33.3717 50.8288 33.1329 50.758 32.8122 50.7041C32.4914 50.6502 32.256 50.5928 32.1059 50.5322C31.6965 50.3703 31.4918 50.0096 31.4918 49.45Z" fill="white"/>
<path d="M35.9316 46.4967C36.0544 46.4967 36.1704 46.554 36.2796 46.6686C36.3888 46.7832 36.4434 46.9046 36.4434 47.0327C36.4434 47.1541 36.3819 47.2788 36.2591 47.4069C36.1431 47.535 36.0203 47.5991 35.8906 47.5991C35.761 47.5991 35.6416 47.5451 35.5324 47.4373C35.43 47.3294 35.3789 47.1911 35.3789 47.0226C35.3789 46.6989 35.5563 46.5236 35.9111 46.4967C35.9179 46.4967 35.9248 46.4967 35.9316 46.4967ZM36.3615 51.7964L36.3717 52.5044C36.3717 52.6325 36.3205 52.7404 36.2182 52.8281C36.1158 52.909 36.0066 52.9494 35.8906 52.9494C35.72 52.9494 35.6313 52.8651 35.6245 52.6966C35.5358 50.5457 35.4915 49.3556 35.4915 49.1263C35.4915 48.8971 35.5017 48.6172 35.5222 48.2868C35.5358 48.1655 35.6143 48.1048 35.7576 48.1048C36.1192 48.1048 36.3239 48.2498 36.3717 48.5397C36.3922 48.688 36.4024 48.806 36.4024 48.8937L36.3615 49.5309V51.7964Z" fill="white"/>
<path d="M41.0456 49.2274L41.0149 51.7964C41.0149 52.1605 41.0149 52.4033 41.0149 52.5246C41.0217 52.646 40.9773 52.7471 40.8818 52.8281C40.7863 52.909 40.6737 52.9494 40.544 52.9494C40.4144 52.9494 40.3257 52.8651 40.2779 52.6966C40.196 51.1727 40.1551 50.2625 40.1551 49.9658C40.1551 49.6624 40.1551 49.4837 40.1551 49.4297V48.9645C40.005 48.9915 39.848 49.0049 39.6842 49.0049C39.5273 49.0049 39.3976 49.0016 39.2953 48.9948C39.3089 49.2645 39.3396 49.7466 39.3874 50.4411C39.4352 51.1289 39.4591 51.7998 39.4591 52.4538C39.4591 52.5887 39.4045 52.6966 39.2953 52.7775C39.1861 52.8584 39.0735 52.8989 38.9575 52.8989C38.7733 52.8989 38.6812 52.791 38.6812 52.5752C38.6812 51.9684 38.6573 51.3784 38.6095 50.8052C38.5618 50.2321 38.5276 49.6286 38.5072 48.9948C37.893 48.9948 37.5348 48.9341 37.4324 48.8128C37.3915 48.7656 37.371 48.7049 37.371 48.6307C37.371 48.4554 37.4427 48.3408 37.586 48.2868C37.7361 48.2329 37.9067 48.2059 38.0977 48.2059C38.2888 48.2059 38.4253 48.2059 38.5072 48.2059C38.5276 47.1069 38.589 46.4259 38.6914 46.1629C38.7528 46.0011 38.8347 45.8831 38.937 45.8089C39.0462 45.728 39.1383 45.6842 39.2134 45.6774C39.2953 45.6639 39.4284 45.6572 39.6126 45.6572C40.3018 45.6572 40.7419 45.7853 40.933 46.0415C41.0763 46.2371 41.1479 46.4764 41.1479 46.7596C41.1479 46.908 41.0899 47.0428 40.9739 47.1642C40.8579 47.2855 40.7317 47.3462 40.5952 47.3462C40.5884 47.3462 40.5816 47.3462 40.5747 47.3462C40.1926 47.3058 40.0015 47.1136 40.0015 46.7697C40.0015 46.7158 40.0288 46.6281 40.0834 46.5068C39.9742 46.4461 39.8548 46.4157 39.7252 46.4157C39.4249 46.4157 39.2714 46.6787 39.2646 47.2046C39.2578 47.2586 39.2544 47.3159 39.2544 47.3766L39.2748 48.2363L40.4621 48.1857C40.6327 48.1857 40.7624 48.2093 40.8511 48.2565C40.9466 48.3037 41.0046 48.3981 41.0251 48.5397C41.0387 48.7217 41.0456 48.951 41.0456 49.2274Z" fill="white"/>
<path d="M43.1171 48.2059C43.4788 48.2059 43.8234 48.3104 44.1509 48.5195C44.4784 48.7285 44.6422 48.9881 44.6422 49.2982C44.6422 49.6017 44.5092 49.8984 44.243 50.1883C43.9769 50.4715 43.6221 50.6434 43.1785 50.7041C42.9875 50.7311 42.7009 50.7446 42.3188 50.7446C42.3938 51.3177 42.5405 51.6953 42.7589 51.8773C42.8271 51.9515 42.9192 51.9886 43.0352 51.9886C43.4583 51.9886 43.8131 51.8571 44.0997 51.5941C44.3863 51.3244 44.591 51.1896 44.7139 51.1896C44.7685 51.1896 44.8503 51.2402 44.9595 51.3413C45.0687 51.4424 45.1233 51.5368 45.1233 51.6245C45.1233 51.7998 44.9083 52.0526 44.4784 52.383C44.2874 52.5381 44.0554 52.6696 43.7824 52.7775C43.5163 52.8786 43.2672 52.9292 43.0352 52.9292C42.4416 52.9292 42.0049 52.5516 41.7251 51.7964C41.5477 51.3312 41.459 50.8187 41.459 50.2591C41.459 49.6994 41.592 49.2173 41.8582 48.8128C42.1243 48.4082 42.5439 48.2059 43.1171 48.2059ZM43.1683 48.9038C42.909 48.9038 42.6872 49.0488 42.503 49.3387C42.4348 49.4398 42.3699 49.6691 42.3085 50.0265C43.2638 50.0265 43.7415 49.7938 43.7415 49.3286C43.7415 49.0454 43.5504 48.9038 43.1683 48.9038Z" fill="white"/>
<path d="M47.0418 51.4121L47.052 52.4538C47.052 52.5752 46.994 52.6865 46.878 52.7876C46.7688 52.8887 46.6597 52.9393 46.5505 52.9393C46.3935 52.9393 46.2946 52.8179 46.2537 52.5752C46.2468 52.5213 46.2195 52.029 46.1718 51.0986C46.124 50.1613 46.0319 49.4264 45.8954 48.8937C45.834 48.6375 45.8033 48.4858 45.8033 48.4386C45.8033 48.216 45.9398 48.1048 46.2127 48.1048C46.3287 48.1048 46.4208 48.1486 46.4891 48.2363C46.5573 48.3239 46.5983 48.415 46.6119 48.5094C46.6324 48.597 46.6494 48.7184 46.6631 48.8735C46.6767 49.0285 46.687 49.1263 46.6938 49.1668C46.8371 48.8296 47.052 48.5768 47.3386 48.4082C47.6252 48.2396 47.9391 48.1554 48.2803 48.1554C48.8398 48.1554 49.1196 48.297 49.1196 48.5801C49.1196 48.7217 49.0684 48.8364 48.9661 48.924C48.8705 49.0049 48.7579 49.0454 48.6283 49.0454C48.0483 49.0454 47.6389 49.2274 47.4 49.5916C47.1612 49.9557 47.0418 50.5625 47.0418 51.4121Z" fill="white"/>
</svg>
