<svg width="64" height="64" viewBox="0 0 64 64" fill="none" xmlns="http://www.w3.org/2000/svg">
<rect width="64" height="64" rx="12" fill="#1C1E29"/>
<path fill-rule="evenodd" clip-rule="evenodd" d="M19.9247 15.2182C20.1311 15.2032 20.3038 15.3673 20.3038 15.5718V24.2826C20.3038 24.4815 20.1407 24.6428 19.9394 24.6428H10.0953C9.873 24.6428 9.70213 24.4474 9.74268 24.2313C10.6591 19.3486 14.8157 15.5904 19.9247 15.2182Z" fill="#AB63FA"/>
<path fill-rule="evenodd" clip-rule="evenodd" d="M9.73582 26.0182C9.63705 26.0182 9.55611 26.096 9.55507 26.1937C9.55465 26.2331 9.55444 26.2726 9.55444 26.3123C9.55444 32.4297 14.5715 37.3888 20.7603 37.3888C21.0037 37.3888 21.2453 37.3811 21.4848 37.366C21.5797 37.36 21.6528 37.2817 21.6528 37.1877V35.3832C21.6528 35.2768 21.5599 35.1937 21.4525 35.2018C21.224 35.2189 20.9932 35.2277 20.7603 35.2277C15.7789 35.2277 11.7408 31.2361 11.7408 26.3123C11.7408 26.2762 11.741 26.2401 11.7414 26.2042C11.7427 26.1025 11.6603 26.0182 11.5574 26.0182H9.73582ZM21.8175 17.4575C21.7244 17.4467 21.6528 17.3694 21.6528 17.2767V15.4652C21.6528 15.3602 21.7439 15.2774 21.8497 15.2875C27.3688 15.8138 31.7173 20.2974 31.9557 25.8329C31.9601 25.9341 31.8776 26.0182 31.7752 26.0182H29.9513C29.853 26.0182 29.7726 25.9406 29.7675 25.8435C29.5392 21.4866 26.1463 17.957 21.8175 17.4575Z" fill="#AB63FA"/>
<path d="M16.3993 43.9893L18.1608 38.2119H19.9436L17.2374 45.894H15.5667L12.8711 38.2119H14.6486L16.3993 43.9893ZM22.3829 45.894H20.7816V38.2119H22.3829V45.894ZM25.5696 44.6224H29.4875V45.894H23.5679V44.9654L27.4112 39.494H23.5733V38.2119H29.4021V39.1194L25.5696 44.6224ZM36.3839 38.2119V43.2717C36.3839 44.1124 36.117 44.7772 35.5832 45.2661C35.053 45.755 34.3271 45.9995 33.4054 45.9995C32.498 45.9995 31.7774 45.762 31.2436 45.2872C30.7098 44.8123 30.4376 44.1598 30.4269 43.3297V38.2119H32.0283V43.2823C32.0283 43.7853 32.1492 44.1528 32.3913 44.385C32.6368 44.6136 32.9748 44.7279 33.4054 44.7279C34.3057 44.7279 34.763 44.2601 34.7772 43.3245V38.2119H36.3839ZM41.9672 44.3111H39.1595L38.6257 45.894H36.923L39.816 38.2119H41.2999L44.209 45.894H42.5063L41.9672 44.3111ZM39.5918 43.029H41.5348L40.558 40.1535L39.5918 43.029ZM46.5363 44.6224H49.9364V45.894H44.935V38.2119H46.5363V44.6224ZM50.8385 45.1448C50.8385 44.902 50.9203 44.7051 51.084 44.5538C51.2513 44.4026 51.4595 44.327 51.7085 44.327C51.9612 44.327 52.1694 44.4026 52.3331 44.5538C52.5003 44.7051 52.584 44.902 52.584 45.1448C52.584 45.3839 52.5021 45.5792 52.3384 45.7304C52.1747 45.8781 51.9648 45.952 51.7085 45.952C51.4559 45.952 51.2477 45.8781 51.084 45.7304C50.9203 45.5792 50.8385 45.3839 50.8385 45.1448Z" fill="#636EFA"/>
<path d="M31.8421 37.6101H29.707L25.5507 30.8707V37.6101H23.4155V27.3673H25.5507L29.7141 34.1208V27.3673H31.8421V37.6101ZM35.9771 37.6101H33.8419V27.3673H35.9771V37.6101ZM46.0974 34.1981C46.0167 35.3003 45.604 36.1679 44.8591 36.8011C44.1189 37.4342 43.1415 37.7507 41.9268 37.7507C40.5983 37.7507 39.5522 37.31 38.7882 36.4282C38.0291 35.5418 37.6495 34.3272 37.6495 32.7841V32.158C37.6495 31.1732 37.8251 30.3055 38.1762 29.5552C38.5273 28.8048 39.0278 28.2302 39.6779 27.8316C40.3326 27.4283 41.0918 27.2266 41.9553 27.2266C43.151 27.2266 44.1142 27.5432 44.8449 28.1763C45.5755 28.8095 45.9978 29.6982 46.1117 30.8426H43.9765C43.9243 30.1813 43.7369 29.7028 43.4144 29.4074C43.0964 29.1073 42.6101 28.9572 41.9553 28.9572C41.2436 28.9572 40.7098 29.2105 40.354 29.717C40.0029 30.2188 39.8226 30.9997 39.8131 32.0595V32.8334C39.8131 33.9402 39.9815 34.7492 40.3184 35.2604C40.66 35.7716 41.1962 36.0272 41.9268 36.0272C42.5864 36.0272 43.0775 35.8795 43.4001 35.584C43.7275 35.2839 43.9148 34.8219 43.9623 34.1981H46.0974ZM53.734 33.1711H49.6346V35.9147H54.4456V37.6101H47.4994V27.3673H54.4314V29.0767H49.6346V31.5179H53.734V33.1711Z" fill="#636EFA"/>
</svg>
