<svg width="64" height="64" viewBox="0 0 64 64" fill="none" xmlns="http://www.w3.org/2000/svg">
<rect width="64" height="64" rx="12" fill="#F48843"/>
<path d="M11.2588 35.8364H9V33.4354H17.198V35.8364H14.9392V44.3029H11.2588V35.8364ZM17.6923 36.4998H21.0252V38.1109C21.2675 37.4896 21.5939 37.0315 22.0046 36.7367C22.4257 36.4313 22.9154 36.2786 23.4736 36.2786L23.9316 38.8533C22.9312 38.8533 22.1941 38.9639 21.7202 39.185C21.2568 39.3957 21.0252 39.7326 21.0252 40.196V44.3029H17.6923V36.4998ZM28.6117 41.7282H24.2363V39.5168L28.4379 33.7355H31.9762V39.5483H33.4926V41.7439H31.9762V44.3029H28.6117V41.7282ZM28.6117 39.5483V36.4208L26.5582 39.5483H28.6117ZM38.6698 44.4292C37.8275 44.4292 37.0798 44.2608 36.4269 43.9238C35.7845 43.5763 35.2791 43.0919 34.9105 42.4706C34.5525 41.8492 34.3734 41.1437 34.3734 40.3539C34.3734 39.5957 34.563 38.906 34.9421 38.2847C35.3212 37.6633 35.8373 37.1737 36.49 36.8157C37.143 36.4577 37.8696 36.2786 38.6698 36.2786C39.6914 36.2786 40.497 36.4893 41.0866 36.9105L40.7865 39.0113C40.1862 38.8322 39.6914 38.7428 39.3017 38.7428C38.7962 38.7428 38.3962 38.8902 38.1012 39.185C37.8064 39.4694 37.6589 39.8589 37.6589 40.3539C37.6589 40.8489 37.8064 41.2438 38.1012 41.5386C38.3962 41.8334 38.7857 41.9809 39.2701 41.9809C39.6914 41.9809 40.1862 41.8914 40.7549 41.7124L41.055 43.9238C40.697 44.1028 40.3337 44.2292 39.9651 44.3029C39.5966 44.3872 39.1648 44.4292 38.6698 44.4292ZM50.0062 44.4292C49.3007 44.4292 48.732 44.3398 48.3002 44.1607C47.8791 43.9711 47.5316 43.6606 47.2577 43.2287C46.9839 42.7969 46.7418 42.1809 46.5311 41.3806L45.5992 42.123V44.3029H42.2505L42.2663 33.8935L45.615 33.4038L45.5992 38.8059L49.6587 35.4888L51.4752 37.9688L48.9321 39.7379C49.0584 40.5382 49.2375 41.0963 49.4691 41.4122C49.7114 41.7282 50.064 41.8861 50.5274 41.8861C50.717 41.8861 50.9434 41.8545 51.2066 41.7913L50.8907 44.3818C50.5748 44.4134 50.28 44.4292 50.0062 44.4292Z" fill="#F9F9F9"/>
<path d="M53.5197 44.3822C53.0528 44.3822 52.6871 44.2544 52.4227 43.9989C52.1584 43.7435 52.0262 43.4218 52.0262 43.0341C52.0262 42.6376 52.1628 42.3161 52.436 42.0693C52.7092 41.8225 53.0704 41.6992 53.5197 41.6992C53.9603 41.6992 54.3171 41.8314 54.5903 42.0957C54.8635 42.3512 55 42.664 55 43.0341C55 43.4482 54.8722 43.7786 54.6167 44.0254C54.3613 44.2633 53.9956 44.3822 53.5197 44.3822Z" fill="#F0D051"/>
<path d="M17.2296 31.0991C15.2498 31.0991 14.0388 30.183 13.5966 28.3506L13.2017 26.7237H12.4593V30.8464H9V19.9789H13.7861C14.6917 19.9789 15.4868 20.1158 16.1713 20.3896C16.8663 20.6529 17.4033 21.0267 17.7824 21.5111C18.1615 21.9955 18.3511 22.5536 18.3511 23.1854C18.3511 23.891 18.1773 24.486 17.8298 24.9704C17.4928 25.4442 16.9663 25.8339 16.2502 26.1392C16.3239 26.5394 16.4082 26.9027 16.503 27.2292C16.6293 27.6293 16.8031 27.9084 17.0242 28.0663C17.2454 28.2243 17.5666 28.3033 17.9878 28.3033C18.1352 28.3033 18.3669 28.2822 18.6828 28.2401V30.8148C18.1878 31.0043 17.7034 31.0991 17.2296 31.0991ZM13.0595 24.5123C13.8388 24.5123 14.3863 24.428 14.7023 24.2596C15.0287 24.0805 15.1919 23.7804 15.1919 23.3592C15.1919 23.0012 15.0603 22.7432 14.797 22.5852C14.5338 22.4167 14.1178 22.3325 13.5492 22.3325H12.4593V24.5123H13.0595ZM22.5723 30.9727C21.6878 30.9727 20.998 30.6884 20.5031 30.1198C20.0082 29.5511 19.7607 28.7771 19.7607 27.7978V22.9327H23.1094V27.6556C23.1094 27.8978 23.1726 28.0874 23.2989 28.2243C23.4359 28.3506 23.6096 28.4138 23.8202 28.4138C24.0308 28.4138 24.2467 28.3506 24.4679 28.2243L24.6416 30.4199C24.4099 30.599 24.1046 30.7358 23.7254 30.8306C23.3569 30.9254 22.9725 30.9727 22.5723 30.9727ZM21.4351 21.748C20.9401 21.748 20.5189 21.5953 20.1714 21.29C19.8344 20.974 19.6659 20.5897 19.6659 20.1369C19.6659 19.6841 19.845 19.305 20.203 18.9996C20.561 18.6942 20.9717 18.5415 21.4351 18.5415C21.9195 18.5415 22.3354 18.6995 22.6829 19.0154C23.041 19.3313 23.22 19.7051 23.22 20.1369C23.22 20.6002 23.041 20.9846 22.6829 21.29C22.3249 21.5953 21.9089 21.748 21.4351 21.748ZM30.0317 34.4636C29.4524 34.4636 28.8995 34.4057 28.3731 34.2898L28.6259 31.9521C29.0365 32.0153 29.4156 32.0468 29.7632 32.0468C30.4159 32.0468 30.9109 31.852 31.248 31.4624C31.5848 31.0833 31.785 30.441 31.8482 29.5353C31.2268 30.4094 30.2791 30.8464 29.005 30.8464C28.3099 30.8464 27.6675 30.6673 27.0779 30.3093C26.4986 29.9513 26.0354 29.4668 25.6879 28.8561C25.3508 28.2453 25.1824 27.5767 25.1824 26.8501C25.1824 26.1129 25.3508 25.439 25.6879 24.8282C26.0247 24.2069 26.4828 23.7172 27.0621 23.3592C27.6517 23.0012 28.2941 22.8221 28.9892 22.8221C29.6315 22.8221 30.1896 22.9906 30.6635 23.3276C31.1479 23.654 31.4638 24.0963 31.6113 24.6544V22.8221H34.9441V28.8403C34.9441 30.6831 34.5228 32.0784 33.6805 33.0262C32.8485 33.9844 31.6322 34.4636 30.0317 34.4636ZM30.0317 28.477C30.4528 28.477 30.8161 28.3296 31.1216 28.0347C31.4269 27.7293 31.5901 27.3713 31.6113 26.9606V26.8343C31.5901 26.4341 31.4217 26.0813 31.1058 25.7759C30.8004 25.4706 30.4424 25.3179 30.0317 25.3179C29.5999 25.3179 29.2313 25.4758 28.926 25.7917C28.6205 26.0971 28.4679 26.4657 28.4679 26.8974C28.4679 27.3292 28.6205 27.703 28.926 28.0189C29.2313 28.3243 29.5999 28.477 30.0317 28.477ZM36.5444 20.437L39.8772 19.9473V24.5597C40.109 24.0016 40.4565 23.5751 40.9198 23.2802C41.3936 22.9748 41.9623 22.8221 42.6257 22.8221C43.6366 22.8221 44.4264 23.1854 44.9951 23.912C45.5743 24.6281 45.8638 25.6233 45.8638 26.8974V30.8464H42.5467V26.5657C42.5467 26.1129 42.4468 25.7654 42.2466 25.5232C42.0571 25.281 41.7885 25.1599 41.441 25.1599C41.1883 25.1599 40.9409 25.2442 40.6986 25.4126C40.4565 25.5706 40.2563 25.8023 40.0984 26.1077C39.9511 26.413 39.8772 26.7606 39.8772 27.1502V30.8464H36.5444V20.437ZM50.7089 30.9727C49.7823 30.9727 49.061 30.7095 48.5449 30.183C48.029 29.6459 47.7709 28.9088 47.7709 27.9715V24.8914H46.76V22.9327H48.0079L49.4769 19.9473H51.0722V22.9327H52.9045V24.8914H51.0722V27.5767C51.0722 27.8399 51.1565 28.0453 51.325 28.1927C51.4936 28.3401 51.7305 28.4138 52.0358 28.4138C52.3201 28.4138 52.5781 28.3506 52.8098 28.2243L52.9361 30.4357C52.6729 30.5936 52.3307 30.7253 51.9094 30.8306C51.4987 30.9254 51.0987 30.9727 50.7089 30.9727Z" fill="#F9F9F9"/>
</svg>
