<svg width="32" height="32" viewBox="0 0 32 32" fill="none" xmlns="http://www.w3.org/2000/svg">
<g clip-path="url(#clip0_110_18898)">
<path d="M19.7498 22.5003C19.3575 22.5003 18.9915 22.2517 18.8607 21.8589L16.9857 16.2339C16.8218 15.7427 17.0874 15.2117 17.5787 15.0482C18.0699 14.8843 18.6006 15.1499 18.7644 15.6409L20.6394 21.2659C20.8033 21.7572 20.5377 22.2881 20.0464 22.4519C19.9483 22.4847 19.8482 22.5003 19.7498 22.5003ZM12.2503 22.5003C12.1519 22.5003 12.052 22.4847 11.9537 22.4519C11.4624 22.2882 11.1968 21.7571 11.3607 21.2659L13.2357 15.6409C13.3994 15.1499 13.9302 14.8843 14.4214 15.0482C14.9127 15.2117 15.1783 15.7427 15.0144 16.2339L13.1394 21.8589C13.0086 22.2517 12.6426 22.5003 12.2503 22.5003Z" fill="#F43F5E"/>
<path d="M31.0625 22.5H0.9375C0.419688 22.5 0 22.0803 0 21.5625C0 21.0447 0.419688 20.625 0.9375 20.625H31.0625C31.5803 20.625 32 21.0447 32 21.5625C32 22.0803 31.5803 22.5 31.0625 22.5Z" fill="#3B82F6"/>
<path d="M29.1875 3.75H19.2825C18.7646 3.75 18.345 4.16969 18.345 4.6875C18.345 5.20531 18.7646 5.625 19.2825 5.625H29.1875C29.7044 5.625 30.125 6.04544 30.125 6.5625V23.4375C30.125 23.9544 29.7044 24.375 29.1875 24.375H2.8125C2.29562 24.375 1.875 23.9544 1.875 23.4375V6.5625C1.875 6.04544 2.29562 5.625 2.8125 5.625H12.7175C13.2354 5.625 13.655 5.20531 13.655 4.6875C13.655 4.16969 13.2354 3.75 12.7175 3.75H2.8125C1.26169 3.75 0 5.01175 0 6.5625V23.4375C0 24.9883 1.26175 26.25 2.8125 26.25H10.9583L9.69456 30.125H8.5C7.98219 30.125 7.5625 30.5447 7.5625 31.0625C7.5625 31.5803 7.98219 32 8.5 32H23.5C24.0178 32 24.4375 31.5803 24.4375 31.0625C24.4375 30.5447 24.0178 30.125 23.5 30.125H22.3054L21.0417 26.25H29.1875C30.7383 26.25 32 24.9883 32 23.4375V6.5625C32 5.01169 30.7383 3.75 29.1875 3.75ZM20.3333 30.125H11.6667L12.9304 26.25H19.0696L20.3333 30.125Z" fill="#3B82F6"/>
<path d="M8.5 18.75C8.32585 18.7501 8.15513 18.7016 8.00706 18.6099C7.87113 18.5259 7.75892 18.4086 7.68111 18.269C7.6033 18.1294 7.56247 17.9723 7.5625 17.8125V14.0625C7.5625 11.4778 9.66531 9.37501 12.25 9.37501C12.7678 9.37501 13.1875 9.79469 13.1875 10.3125C13.1875 10.8303 12.7678 11.25 12.25 11.25C10.6992 11.25 9.4375 12.5118 9.4375 14.0625V16.2954L11.8308 15.0989C12.2937 14.8674 12.8569 15.0551 13.0886 15.5181C13.3201 15.9812 13.1324 16.5444 12.6694 16.7759L8.91944 18.6509C8.78921 18.716 8.64561 18.7499 8.5 18.75ZM23.5 18.75C23.3567 18.75 23.2131 18.7171 23.0808 18.6511L19.3308 16.7761C18.8677 16.5444 18.6799 15.9814 18.9116 15.5183C19.1431 15.0552 19.7063 14.8674 20.1694 15.0989L22.5625 16.2956V14.0625C22.5625 12.5118 21.3008 11.25 19.75 11.25C19.2322 11.25 18.8125 10.8303 18.8125 10.3125C18.8125 9.79469 19.2322 9.37501 19.75 9.37501C22.3347 9.37501 24.4375 11.4778 24.4375 14.0625V17.8125C24.4374 18.0611 24.3386 18.2995 24.1628 18.4753C23.987 18.6511 23.7486 18.7499 23.5 18.75ZM16 7.50001C14.7534 7.50001 13.54 7.14869 12.4913 6.48413C12.0539 6.20707 11.9241 5.62769 12.2012 5.19038C12.4785 4.75288 13.0576 4.62307 13.4949 4.90038C14.2432 5.37451 15.1091 5.62501 16 5.62501C16.8909 5.62501 17.7569 5.37451 18.5049 4.90038C18.9424 4.62307 19.5215 4.75288 19.7986 5.19038C20.0759 5.62769 19.9461 6.20701 19.5086 6.48413C18.4599 7.14876 17.2466 7.50001 16 7.50001ZM16.9375 10.3125C16.9375 10.8303 16.5178 11.25 16 11.25C15.4822 11.25 15.0625 10.8303 15.0625 10.3125C15.0625 9.79469 15.4822 9.37501 16 9.37501C16.5178 9.37501 16.9375 9.79469 16.9375 10.3125Z" fill="#22C55E"/>
<path d="M19.75 16.875H12.25C11.7322 16.875 11.3125 16.4553 11.3125 15.9375V9.99075C11.3125 8.17725 11.6643 6.40794 12.3584 4.73244C13.0524 3.05694 14.0547 1.55712 15.3371 0.274687C15.7031 -0.0915625 16.2966 -0.0915625 16.6628 0.274687C17.9453 1.55719 18.9475 3.05688 19.6416 4.73244C20.3356 6.408 20.6875 8.17725 20.6875 9.99075V15.9375C20.6875 16.4553 20.2678 16.875 19.75 16.875ZM13.1875 15H18.8125V9.99075C18.8125 7.14919 17.8203 4.45994 16 2.31888C14.1797 4.45994 13.1875 7.14919 13.1875 9.99075V15Z" fill="#F43F5E"/>
</g>
<defs>
<clipPath id="clip0_110_18898">
<rect width="32" height="32" fill="white"/>
</clipPath>
</defs>
</svg>
