<svg width="32" height="32" viewBox="0 0 32 32" fill="none" xmlns="http://www.w3.org/2000/svg">
<path d="M16 28.2499C12.9975 28.2499 10.383 26.5129 9.64205 24.0258C9.49424 23.5296 9.77661 23.0075 10.2729 22.8597C10.769 22.7119 11.2912 22.9943 11.439 23.4905C11.945 25.1888 13.8205 26.3749 16 26.3749C18.1795 26.3749 20.0551 25.1888 20.5611 23.4905C20.7089 22.9943 21.2309 22.7119 21.7272 22.8597C22.2234 23.0075 22.5059 23.5296 22.358 24.0258C21.6171 26.5129 19.0025 28.2499 16 28.2499Z" fill="#3B82F6"/>
<path d="M27.25 32H4.75C4.23225 32 3.8125 31.5802 3.8125 31.0625C3.8125 26.41 7.5975 22.625 12.25 22.625H12.6023L12.8944 21.1227C12.9932 20.6144 13.4854 20.2825 13.9936 20.3814C14.5018 20.4802 14.8337 20.9723 14.7349 21.4807L14.2952 23.7415C14.2537 23.9551 14.1391 24.1476 13.9712 24.2859C13.8034 24.4243 13.5926 24.5 13.375 24.5H12.25C8.94969 24.5 6.21056 26.9489 5.75425 30.125H26.2457C25.7894 26.9489 23.0503 24.5 19.7499 24.5H18.6249C18.4074 24.5 18.1965 24.4243 18.0286 24.2859C17.8607 24.1475 17.7462 23.955 17.7047 23.7414L17.265 21.4805C17.1661 20.9723 17.4981 20.4802 18.0063 20.3813C18.5145 20.2825 19.0067 20.6143 19.1055 21.1225L19.3978 22.625H19.75C24.4025 22.625 28.1875 26.41 28.1875 31.0625C28.1875 31.5802 27.7678 32 27.25 32Z" fill="#3B82F6"/>
<path d="M16 22.5625C12.3332 22.5625 9.20525 20.2114 8.04444 16.9375H7.5625C5.49475 16.9375 3.8125 15.2552 3.8125 13.1875C3.8125 11.1198 5.49475 9.4375 7.5625 9.4375H8.5C8.62312 9.43749 8.74503 9.46174 8.85878 9.50885C8.97252 9.55596 9.07587 9.62501 9.16293 9.71207C9.24999 9.79913 9.31904 9.90248 9.36615 10.0162C9.41326 10.13 9.43751 10.2519 9.4375 10.375V14.125C9.4375 17.7436 12.3814 20.6875 16 20.6875C19.6186 20.6875 22.5625 17.7436 22.5625 14.125V10.375C22.5625 10.1264 22.6613 9.88793 22.8371 9.71212C23.0129 9.53632 23.2514 9.43753 23.5 9.4375H24.4375C26.5052 9.4375 28.1875 11.1198 28.1875 13.1875C28.1875 15.2552 26.5052 16.9375 24.4375 16.9375H23.9556C22.7948 20.2114 19.6668 22.5625 16 22.5625ZM24.3857 15.0625H24.4375C25.4714 15.0625 26.3125 14.2214 26.3125 13.1875C26.3125 12.1536 25.4714 11.3125 24.4375 11.3125V14.125C24.4375 14.4419 24.4199 14.7546 24.3857 15.0625ZM7.5625 11.3125C6.52863 11.3125 5.6875 12.1536 5.6875 13.1875C5.6875 14.2214 6.52863 15.0625 7.5625 15.0625H7.61425C7.57972 14.7512 7.56245 14.4382 7.5625 14.125V11.3125Z" fill="#F43F5E"/>
<path d="M16 0C10.3137 0 5.6875 4.65419 5.6875 10.375V10.5351C5.6875 11.0528 6.10725 11.4726 6.625 11.4726C6.81912 11.4726 6.99944 11.4136 7.14906 11.3125H13.6824C15.1164 11.3128 16.522 10.9135 17.7417 10.1593C18.3388 9.79038 18.8828 9.34173 19.3587 8.82575C19.5777 9.23581 19.8563 9.61113 20.1854 9.9395C21.0708 10.8249 22.2479 11.3125 23.5 11.3125H24.8509C25.0057 11.4171 25.1882 11.4729 25.375 11.4726C25.8928 11.4726 26.3125 11.0528 26.3125 10.5351V10.375C26.3125 4.65419 21.6863 0 16 0ZM21.5112 8.61375C20.98 8.08256 20.6875 7.37625 20.6875 6.625C20.6875 6.41379 20.6162 6.20876 20.4852 6.04314C20.3541 5.87751 20.171 5.76099 19.9654 5.71246C19.7599 5.66393 19.5439 5.68623 19.3526 5.77575C19.1613 5.86527 19.0059 6.01677 18.9114 6.20569C17.9148 8.19913 15.9111 9.4375 13.6824 9.4375H7.61406C8.07881 5.19012 11.6621 1.875 16 1.875C20.3379 1.875 23.9212 5.19012 24.3859 9.4375H23.5C22.7487 9.4375 22.0425 9.14494 21.5112 8.61375Z" fill="#22C55E"/>
<path d="M12.25 15.0625C12.7678 15.0625 13.1875 14.6428 13.1875 14.125C13.1875 13.6072 12.7678 13.1875 12.25 13.1875C11.7322 13.1875 11.3125 13.6072 11.3125 14.125C11.3125 14.6428 11.7322 15.0625 12.25 15.0625Z" fill="#3B82F6"/>
<path d="M19.75 15.0625C20.2678 15.0625 20.6875 14.6428 20.6875 14.125C20.6875 13.6072 20.2678 13.1875 19.75 13.1875C19.2322 13.1875 18.8125 13.6072 18.8125 14.125C18.8125 14.6428 19.2322 15.0625 19.75 15.0625Z" fill="#3B82F6"/>
<path d="M16 18.8125C14.4492 18.8125 13.1875 17.5508 13.1875 16C13.1875 15.4822 13.6072 15.0625 14.125 15.0625C14.6428 15.0625 15.0625 15.4822 15.0625 16C15.0625 16.5169 15.4831 16.9375 16 16.9375C16.5169 16.9375 16.9375 16.5169 16.9375 16C16.9375 15.4822 17.3572 15.0625 17.875 15.0625C18.3928 15.0625 18.8125 15.4822 18.8125 16C18.8125 17.5508 17.5508 18.8125 16 18.8125Z" fill="#F43F5E"/>
</svg>
