<svg width="32" height="32" viewBox="0 0 32 32" fill="none" xmlns="http://www.w3.org/2000/svg">
<g clip-path="url(#clip0_110_18864)">
<path d="M21.6249 24.4941H10.3749C9.85712 24.4941 9.43744 24.0744 9.43744 23.5566C9.43744 21.8484 8.78119 20.1726 7.58956 18.833C5.18694 16.132 4.2465 12.519 5.00969 8.92017C5.91469 4.65204 9.36031 1.19161 13.5834 0.309043C16.9628 -0.397019 20.4157 0.429168 23.0576 2.57617C25.7218 4.74117 27.2499 7.94623 27.2499 11.3691C27.2503 14.0925 26.2605 16.7232 24.465 18.771C23.2383 20.1709 22.5624 21.8704 22.5624 23.5566C22.5624 24.0744 22.1427 24.4941 21.6249 24.4941ZM11.2614 22.6191H20.7409C20.9479 20.7988 21.7514 19.0224 23.0551 17.5351C24.5507 15.8292 25.3752 13.6378 25.3749 11.3691C25.3749 8.51317 24.0993 5.83861 21.8752 4.03123C19.6735 2.24217 16.7912 1.55442 13.967 2.14448C10.4596 2.87742 7.59712 5.75654 6.84387 9.30904C6.20575 12.3189 6.98825 15.3359 8.99044 17.5869C10.2717 19.0271 11.0604 20.7861 11.2614 22.6191Z" fill="#3B82F6"/>
<path d="M17.875 32.0566H14.125C12.5742 32.0566 11.3125 30.795 11.3125 29.2441V27.3066C11.3125 26.7888 11.7322 26.3691 12.25 26.3691H19.75C20.2678 26.3691 20.6875 26.7888 20.6875 27.3066V29.2441C20.6875 30.795 19.4258 32.0566 17.875 32.0566ZM13.1875 28.2441V29.2441C13.1875 29.761 13.6081 30.1816 14.125 30.1816H17.875C18.3919 30.1816 18.8125 29.761 18.8125 29.2441V28.2441H13.1875Z" fill="#3B82F6"/>
<path d="M16.0001 15.9738C14.8399 15.9738 13.6797 15.6364 12.6676 14.9616C12.2366 14.6745 12.1204 14.0923 12.4076 13.6616C12.6946 13.2306 13.2767 13.1144 13.7076 13.4016C15.1002 14.3298 16.8999 14.33 18.2926 13.4016C18.7234 13.1144 19.3055 13.2306 19.5926 13.6616C19.8799 14.0922 19.7635 14.6745 19.3326 14.9616C18.3204 15.6364 17.1602 15.9738 16.0001 15.9738Z" fill="#F43F5E"/>
<path d="M18.8125 24.4942C18.2947 24.4942 17.875 24.0745 17.875 23.5567V14.4029L16 10.6529L14.125 14.4029V23.5567C14.125 24.0745 13.7053 24.4942 13.1875 24.4942C12.6697 24.4942 12.25 24.0745 12.25 23.5567V14.1817C12.25 14.0362 12.2839 13.8926 12.3489 13.7625L15.1614 8.13747C15.2393 7.98175 15.359 7.85079 15.5071 7.75927C15.6552 7.66774 15.8259 7.61926 16 7.61926C16.1741 7.61926 16.3448 7.66774 16.4929 7.75927C16.641 7.85079 16.7607 7.98175 16.8386 8.13747L19.6511 13.7625C19.7162 13.8926 19.7501 14.0361 19.75 14.1817V23.5567C19.75 24.0745 19.3303 24.4942 18.8125 24.4942Z" fill="#F43F5E"/>
<path d="M2.8125 13.2441H0.9375C0.419688 13.2441 0 12.8244 0 12.3066C0 11.7888 0.419688 11.3691 0.9375 11.3691H2.8125C3.33031 11.3691 3.75 11.7888 3.75 12.3066C3.75 12.8244 3.33031 13.2441 2.8125 13.2441ZM2.53781 8.28194C2.29781 8.28194 2.05813 8.19063 1.875 8.00725L0.549062 6.68163C0.183125 6.31538 0.183125 5.72188 0.549062 5.35563C0.915312 4.98969 1.50881 4.98969 1.875 5.35563L3.20094 6.68157C3.56688 7.04782 3.56688 7.64132 3.20094 8.00725C3.11395 8.09447 3.01059 8.16364 2.89679 8.21078C2.78299 8.25792 2.66099 8.2821 2.53781 8.28194ZM1.21219 19.5319C0.972188 19.5319 0.732187 19.4406 0.549312 19.2576C0.183062 18.8913 0.183062 18.2978 0.549312 17.9316L1.875 16.6056C2.24125 16.2397 2.83469 16.2397 3.20094 16.6056C3.56688 16.9719 3.56688 17.5654 3.20094 17.9316L1.875 19.2573C1.78806 19.3444 1.68475 19.4136 1.571 19.4607C1.45725 19.5079 1.33531 19.5321 1.21219 19.5319ZM31.0625 13.2441H29.1875C28.6697 13.2441 28.25 12.8244 28.25 12.3066C28.25 11.7888 28.6697 11.3691 29.1875 11.3691H31.0625C31.5803 11.3691 32 11.7888 32 12.3066C32 12.8244 31.5803 13.2441 31.0625 13.2441ZM29.4622 8.28194C29.2222 8.28194 28.9822 8.19063 28.7993 8.00757C28.4331 7.64132 28.4331 7.04782 28.7993 6.68157L30.125 5.35563C30.4909 4.98969 31.0847 4.98969 31.4509 5.35563C31.8169 5.72188 31.8169 6.31538 31.4509 6.68157L30.125 8.00725C30.0381 8.09444 29.9347 8.16359 29.821 8.21073C29.7073 8.25787 29.5853 8.28207 29.4622 8.28194ZM30.7878 19.5319C30.5478 19.5319 30.3081 19.4406 30.125 19.2573L28.7991 17.9316C28.4331 17.5654 28.4331 16.9719 28.7991 16.6056C29.1653 16.2397 29.7591 16.2397 30.125 16.6056L31.4509 17.9316C31.8169 18.2978 31.8169 18.8913 31.4509 19.2573C31.364 19.3445 31.2606 19.4136 31.1468 19.4608C31.033 19.5079 30.911 19.5321 30.7878 19.5319Z" fill="#22C55E"/>
<path d="M19.75 28.2441H12.25C10.6992 28.2441 9.4375 26.9825 9.4375 25.4316V23.5566C9.4375 23.0388 9.85719 22.6191 10.375 22.6191H21.625C22.1428 22.6191 22.5625 23.0388 22.5625 23.5566V25.4316C22.5625 26.9825 21.3008 28.2441 19.75 28.2441ZM11.3125 24.4941V25.4316C11.3125 25.9485 11.7331 26.3691 12.25 26.3691H19.75C20.2669 26.3691 20.6875 25.9485 20.6875 25.4316V24.4941H11.3125Z" fill="#3B82F6"/>
</g>
<defs>
<clipPath id="clip0_110_18864">
<rect width="32" height="32" fill="white"/>
</clipPath>
</defs>
</svg>
