<svg width="32" height="32" viewBox="0 0 32 32" fill="none" xmlns="http://www.w3.org/2000/svg">
<path d="M12.1875 9.4375C11.6697 9.4375 11.25 9.01781 11.25 8.5V4.6875C11.25 4.16969 11.6697 3.75 12.1875 3.75C12.7053 3.75 13.125 4.16969 13.125 4.6875V8.5C13.125 9.01781 12.7053 9.4375 12.1875 9.4375ZM8.4375 13.1875H4.6875C4.16969 13.1875 3.75 12.7678 3.75 12.25C3.75 11.7322 4.16969 11.3125 4.6875 11.3125H8.4375C8.95531 11.3125 9.375 11.7322 9.375 12.25C9.375 12.7678 8.95531 13.1875 8.4375 13.1875ZM19.6875 13.1875H15.9375C15.4197 13.1875 15 12.7678 15 12.25C15 11.7322 15.4197 11.3125 15.9375 11.3125H19.6875C20.2053 11.3125 20.625 11.7322 20.625 12.25C20.625 12.7678 20.2053 13.1875 19.6875 13.1875ZM14.8391 10.5359C14.716 10.536 14.594 10.5118 14.4803 10.4647C14.3665 10.4176 14.2632 10.3484 14.1763 10.2612C13.8103 9.895 13.8103 9.3015 14.1763 8.93556L16.8279 6.28369C17.1941 5.91775 17.7876 5.91775 18.1538 6.28369C18.5197 6.64994 18.5197 7.24344 18.1538 7.60962L15.5022 10.2612C15.4152 10.3485 15.3118 10.4176 15.198 10.4647C15.0842 10.5119 14.9623 10.536 14.8391 10.5359ZM9.53588 10.5359C9.29588 10.5359 9.05587 10.4443 8.87306 10.2612L6.22119 7.60962C5.85525 7.24337 5.85525 6.64988 6.22119 6.28369C6.58744 5.91775 7.18094 5.91775 7.54712 6.28369L10.1987 8.93556C10.565 9.3015 10.565 9.895 10.1987 10.2612C10.1118 10.3484 10.0085 10.4176 9.89474 10.4647C9.78097 10.5118 9.65902 10.536 9.53588 10.5359Z" fill="#22C55E"/>
<path d="M10.3115 16.4361C10.1469 16.436 9.98533 16.3924 9.843 16.3098C8.39769 15.4739 7.5 13.9182 7.5 12.25C7.5 9.66531 9.60281 7.5625 12.1875 7.5625C14.7722 7.5625 16.875 9.66531 16.875 12.25C16.875 13.9182 15.9773 15.4736 14.532 16.3098C14.0837 16.5691 13.5103 16.4161 13.251 15.9677C12.9918 15.5194 13.1448 14.9461 13.593 14.6868C14.4609 14.1848 15 13.251 15 12.25C15 10.6992 13.7383 9.4375 12.1875 9.4375C10.6367 9.4375 9.375 10.6992 9.375 12.25C9.375 13.251 9.91406 14.1848 10.782 14.6868C11.2302 14.9461 11.3832 15.5196 11.124 15.9677C11.0416 16.1103 10.9231 16.2286 10.7805 16.3108C10.6379 16.393 10.4761 16.4362 10.3115 16.4361ZM12.1875 5.625C10.6367 5.625 9.375 4.36325 9.375 2.8125C9.375 1.26175 10.6367 0 12.1875 0C13.7383 0 15 1.26175 15 2.8125C15 4.36325 13.7383 5.625 12.1875 5.625ZM12.1875 1.875C11.6706 1.875 11.25 2.29562 11.25 2.8125C11.25 3.32938 11.6706 3.75 12.1875 3.75C12.7044 3.75 13.125 3.32938 13.125 2.8125C13.125 2.29562 12.7044 1.875 12.1875 1.875ZM21.5625 15.0625C20.0117 15.0625 18.75 13.8008 18.75 12.25C18.75 10.6992 20.0117 9.4375 21.5625 9.4375C23.1133 9.4375 24.375 10.6992 24.375 12.25C24.375 13.8008 23.1133 15.0625 21.5625 15.0625ZM21.5625 11.3125C21.0456 11.3125 20.625 11.7331 20.625 12.25C20.625 12.7669 21.0456 13.1875 21.5625 13.1875C22.0794 13.1875 22.5 12.7669 22.5 12.25C22.5 11.7331 22.0794 11.3125 21.5625 11.3125ZM2.8125 15.0625C1.26169 15.0625 0 13.8008 0 12.25C0 10.6992 1.26175 9.4375 2.8125 9.4375C4.36325 9.4375 5.625 10.6992 5.625 12.25C5.625 13.8008 4.36325 15.0625 2.8125 15.0625ZM2.8125 11.3125C2.29562 11.3125 1.875 11.7331 1.875 12.25C1.875 12.7669 2.29562 13.1875 2.8125 13.1875C3.32938 13.1875 3.75 12.7669 3.75 12.25C3.75 11.7331 3.32938 11.3125 2.8125 11.3125ZM18.8166 8.43213C18.0964 8.43213 17.3763 8.15794 16.8279 7.60962C15.7312 6.51294 15.7312 4.72875 16.8279 3.63212C17.9243 2.53562 19.7087 2.53537 20.8054 3.63212C21.902 4.72887 21.9021 6.51294 20.8054 7.60962C20.2571 8.15794 19.5369 8.43213 18.8166 8.43213ZM18.8166 4.68381C18.5764 4.68381 18.3364 4.77513 18.1538 4.958C18.0664 5.0448 17.9971 5.1481 17.95 5.26189C17.9028 5.37568 17.8787 5.4977 17.8791 5.62087C17.8791 5.87131 17.9766 6.10669 18.1538 6.28369C18.5193 6.64944 19.114 6.64944 19.4794 6.28369C19.8452 5.91819 19.8452 5.3235 19.4794 4.95806C19.3925 4.87094 19.2891 4.80187 19.1754 4.7548C19.0616 4.70774 18.9397 4.68361 18.8166 4.68381ZM5.55837 8.43338C4.80712 8.43338 4.10087 8.14087 3.56962 7.60962C2.47287 6.51294 2.47287 4.72875 3.56962 3.63212C4.10087 3.10087 4.80712 2.80837 5.55837 2.80837C6.30962 2.80837 7.01587 3.10087 7.54712 3.63212C8.64381 4.72875 8.64381 6.51294 7.54712 7.60962C7.01587 8.14087 6.30962 8.43338 5.55837 8.43338ZM4.8955 4.958C4.53 5.3235 4.53 5.91819 4.8955 6.28369C4.98234 6.37103 5.08564 6.44029 5.19942 6.48744C5.3132 6.53459 5.43521 6.5587 5.55837 6.55837C5.68153 6.55869 5.80352 6.53458 5.9173 6.48743C6.03107 6.44028 6.13436 6.37103 6.22119 6.28369C6.58694 5.91819 6.58694 5.3235 6.22119 4.95806C6.13439 4.87068 6.03111 4.8014 5.91733 4.75425C5.80355 4.7071 5.68154 4.68301 5.55837 4.68337C5.43521 4.68299 5.31319 4.70707 5.1994 4.75421C5.08561 4.80135 4.98231 4.87062 4.8955 4.958Z" fill="#F43F5E"/>
<path d="M23.4376 18.8125C23.0828 18.8121 22.7312 18.8792 22.4015 19.0103C22.0757 17.8171 20.9825 16.9375 19.6876 16.9375C19.3326 16.9374 18.9808 17.0049 18.651 17.1362C18.3258 15.9429 17.2328 15.0625 15.9376 15.0625C15.609 15.0625 15.2935 15.1196 15.0001 15.2236V14.125C15.0001 12.5742 13.7383 11.3125 12.1876 11.3125C10.6368 11.3125 9.3751 12.5742 9.3751 14.125V22.094L8.2511 21.251C8.24397 21.2456 8.23672 21.241 8.2296 21.2356C8.20331 21.2163 8.17677 21.1973 8.14997 21.1787C8.13803 21.1706 8.12585 21.1626 8.11385 21.1546C8.08922 21.1384 8.06453 21.1223 8.03991 21.1069C8.02353 21.0969 8.00716 21.0872 7.99085 21.0774C7.97116 21.0657 7.95128 21.0543 7.93122 21.0432C7.90886 21.0306 7.88632 21.0183 7.8636 21.0063C7.85091 20.9998 7.83822 20.9934 7.82553 20.9868C7.79528 20.9717 7.76472 20.9568 7.73397 20.9426C7.73085 20.9412 7.72766 20.9397 7.72447 20.9385C7.2406 20.7175 6.70297 20.6384 6.16341 20.7161C5.50741 20.8106 4.91853 21.1252 4.47985 21.6106C4.4686 21.6231 4.4581 21.6358 4.4471 21.6482C4.42853 21.6694 4.40978 21.6907 4.39172 21.7126C4.37385 21.7344 4.35703 21.7564 4.33972 21.7783C4.33091 21.7898 4.32185 21.8008 4.3131 21.8123C4.31091 21.8149 4.30891 21.8181 4.30697 21.821C4.29041 21.8432 4.27447 21.866 4.25866 21.8887C4.24866 21.9028 4.23835 21.9173 4.22866 21.9316C4.21372 21.9539 4.19953 21.9763 4.18516 21.9988C4.17516 22.0149 4.16491 22.031 4.15516 22.0471C4.14266 22.0676 4.13072 22.0884 4.11897 22.1094C4.10772 22.1287 4.09703 22.1482 4.08647 22.1677C4.07678 22.1856 4.06747 22.2034 4.05847 22.2214C4.04597 22.2454 4.03428 22.2696 4.02285 22.2937C4.00218 22.337 3.98272 22.3809 3.96447 22.4252C3.96053 22.4343 3.95691 22.4436 3.95297 22.4526C3.93831 22.4892 3.92447 22.5261 3.91147 22.5632C3.91047 22.5664 3.90928 22.5693 3.90835 22.5725C3.59041 23.4827 3.75835 24.5115 4.38147 25.2751C4.38147 25.2754 4.38166 25.2754 4.38166 25.2756C4.41047 25.3108 4.44028 25.3454 4.47103 25.3794C4.47372 25.3826 4.47641 25.3857 4.47935 25.3887C4.50716 25.4192 4.53572 25.4494 4.56528 25.479C4.56841 25.4821 4.57116 25.4854 4.57428 25.4885L5.6991 26.6133C6.9566 27.8708 8.13803 29.3708 9.21078 31.0723L9.51985 31.5625C9.69172 31.8347 9.9911 32 10.3131 32H23.4381C23.7931 32 24.1178 31.7994 24.2765 31.4817C25.5675 28.8989 26.2501 25.9858 26.2501 23.0574V21.625C26.2501 20.0742 24.9883 18.8125 23.4376 18.8125ZM24.3751 23.0574C24.3751 25.5019 23.848 27.9329 22.8468 30.125H10.8297L10.7965 30.072C9.64953 28.2532 8.38047 26.6433 7.02453 25.2876L5.9061 24.1689C5.90172 24.1646 5.89753 24.1599 5.89316 24.1553C5.8502 24.1119 5.81175 24.0643 5.77841 24.0132C5.76106 23.9869 5.74508 23.9598 5.73053 23.9319C5.71978 23.9112 5.70986 23.89 5.70078 23.8684C5.68918 23.8415 5.67891 23.8141 5.67003 23.7862C5.66075 23.7577 5.6531 23.7288 5.6471 23.6995C5.64535 23.6916 5.64341 23.6841 5.64197 23.6763C5.6376 23.6531 5.63416 23.6296 5.63166 23.6059C5.63097 23.6003 5.62997 23.5947 5.62947 23.5889C5.62678 23.5601 5.62535 23.5305 5.62535 23.5012C5.62535 23.5007 5.6251 23.5003 5.6251 23.4998C5.6251 23.4394 5.63122 23.3799 5.64216 23.322C5.6451 23.3074 5.64903 23.293 5.65247 23.2783C5.6556 23.2652 5.65853 23.2517 5.66247 23.2388C5.66735 23.2217 5.67341 23.2046 5.67953 23.1875C5.68297 23.1775 5.68641 23.1672 5.69028 23.1572C5.69716 23.1396 5.70491 23.1226 5.71297 23.1054C5.71735 23.0959 5.72153 23.0864 5.72641 23.0771C5.73472 23.0608 5.74372 23.0446 5.75328 23.0286C5.75916 23.0188 5.76472 23.0088 5.77085 22.999C5.7801 22.9846 5.78991 22.9704 5.79991 22.9563C5.80797 22.9453 5.81578 22.9346 5.8241 22.9238C5.8341 22.9109 5.8446 22.8987 5.8551 22.8865C5.86585 22.8742 5.87653 22.8621 5.88803 22.8501C5.89753 22.8403 5.9071 22.8311 5.91685 22.8216C5.92903 22.8098 5.94147 22.7983 5.95422 22.7876C5.96347 22.7798 5.97297 22.7722 5.98253 22.7646C5.99641 22.7537 6.01035 22.7427 6.02478 22.7327C6.03403 22.7261 6.04353 22.7202 6.0531 22.7141C6.06822 22.7041 6.0836 22.6943 6.09922 22.6856C6.10872 22.6802 6.11872 22.6751 6.12878 22.6699C6.14466 22.6616 6.16028 22.6533 6.17635 22.646C6.18785 22.6409 6.19935 22.6367 6.21078 22.6321C6.22616 22.6258 6.24128 22.6194 6.25666 22.614C6.27522 22.6077 6.29428 22.6026 6.31335 22.5971C6.32578 22.5937 6.33797 22.5903 6.35066 22.5874C6.3751 22.5818 6.40003 22.5767 6.42516 22.573C6.43685 22.5713 6.44885 22.5703 6.46078 22.5691C6.47766 22.5672 6.49472 22.5652 6.51185 22.5642C6.52697 22.5635 6.5421 22.5635 6.55722 22.5632C6.57066 22.5632 6.5841 22.563 6.59753 22.5635C6.6141 22.5639 6.63066 22.5654 6.64728 22.5669C6.65928 22.5679 6.67122 22.5691 6.68322 22.5706C6.71235 22.5743 6.74128 22.5794 6.76991 22.5859C6.79954 22.5924 6.8288 22.6006 6.85753 22.6103C6.88774 22.6201 6.91733 22.6317 6.94616 22.645C6.95566 22.6494 6.96541 22.6536 6.97491 22.6582C6.99472 22.6679 7.01403 22.6784 7.03303 22.6897C7.03941 22.6934 7.04597 22.6967 7.0521 22.7007C7.07285 22.7134 7.0931 22.7273 7.11316 22.7419C7.11922 22.7463 7.12585 22.7505 7.13216 22.7554L9.7501 24.719C9.88938 24.8235 10.055 24.8871 10.2284 24.9027C10.4018 24.9183 10.5761 24.8854 10.7319 24.8075C10.8876 24.7297 11.0185 24.61 11.1101 24.4619C11.2016 24.3138 11.2501 24.1431 11.2501 23.969V14.125C11.2501 13.6081 11.6707 13.1875 12.1876 13.1875C12.7045 13.1875 13.1251 13.6081 13.1251 14.125V21.625C13.1251 22.1428 13.5448 22.5625 14.0626 22.5625C14.5804 22.5625 15.0001 22.1428 15.0001 21.625V17.875C15.0001 17.3581 15.4207 16.9375 15.9376 16.9375C16.4545 16.9375 16.8751 17.3581 16.8751 17.875V21.625C16.8751 22.0134 17.1112 22.3464 17.4476 22.4888C17.5599 22.5361 17.6832 22.5625 17.8126 22.5625C17.942 22.5625 18.0653 22.5361 18.1776 22.4888C18.514 22.3464 18.7501 22.0134 18.7501 21.625V19.75C18.7501 19.2331 19.1707 18.8125 19.6876 18.8125C20.2045 18.8125 20.6251 19.2331 20.6251 19.75V21.625C20.6251 22.1428 21.0448 22.5625 21.5626 22.5625C22.0804 22.5625 22.5001 22.1428 22.5001 21.625C22.5001 21.1081 22.9207 20.6875 23.4376 20.6875C23.9545 20.6875 24.3751 21.1081 24.3751 21.625V23.0574Z" fill="#3B82F6"/>
</svg>
