<svg width="32" height="32" viewBox="0 0 32 32" fill="none" xmlns="http://www.w3.org/2000/svg">
<g clip-path="url(#clip0_110_18846)">
<path d="M14.125 3.75H4.6875C4.16969 3.75 3.75 3.33031 3.75 2.8125C3.75 2.29469 4.16969 1.875 4.6875 1.875H14.125C14.6428 1.875 15.0625 2.29469 15.0625 2.8125C15.0625 3.33031 14.6428 3.75 14.125 3.75ZM27.3125 3.75H17.875C17.3572 3.75 16.9375 3.33031 16.9375 2.8125C16.9375 2.29469 17.3572 1.875 17.875 1.875H27.3125C27.8303 1.875 28.25 2.29469 28.25 2.8125C28.25 3.33031 27.8303 3.75 27.3125 3.75Z" fill="#F43F5E"/>
<path d="M4.75 15.0625C4.23219 15.0625 3.8125 14.6429 3.8125 14.125C3.8125 11.2213 4.84837 8.40041 6.72925 6.18216C8.59475 3.98216 11.1687 2.51173 13.9768 2.04229C14.4873 1.95685 14.9705 2.30179 15.0559 2.81229C15.1414 3.32304 14.7966 3.80616 14.2859 3.89166C9.384 4.71123 5.6875 9.11066 5.6875 14.125C5.6875 14.6429 5.26781 15.0625 4.75 15.0625ZM27.25 15.0625C26.7322 15.0625 26.3125 14.6429 26.3125 14.125C26.3125 9.11066 22.6159 4.71123 17.7141 3.89166C17.2034 3.80616 16.8586 3.32304 16.9441 2.81229C17.0296 2.30179 17.5123 1.95685 18.0234 2.04229C20.8316 2.51173 23.4053 3.98223 25.2709 6.18216C27.1516 8.40041 28.1875 11.2213 28.1875 14.125C28.1875 14.6429 27.7678 15.0625 27.25 15.0625Z" fill="#F43F5E"/>
<path d="M4.75 18.8125C3.19919 18.8125 1.9375 17.5508 1.9375 16C1.9375 14.4492 3.19925 13.1875 4.75 13.1875C6.30075 13.1875 7.5625 14.4492 7.5625 16C7.5625 17.5508 6.30075 18.8125 4.75 18.8125ZM4.75 15.0625C4.23312 15.0625 3.8125 15.4831 3.8125 16C3.8125 16.5169 4.23312 16.9375 4.75 16.9375C5.26688 16.9375 5.6875 16.5169 5.6875 16C5.6875 15.4831 5.26688 15.0625 4.75 15.0625ZM27.25 18.8125C25.6992 18.8125 24.4375 17.5508 24.4375 16C24.4375 14.4492 25.6992 13.1875 27.25 13.1875C28.8008 13.1875 30.0625 14.4492 30.0625 16C30.0625 17.5508 28.8008 18.8125 27.25 18.8125ZM27.25 15.0625C26.7331 15.0625 26.3125 15.4831 26.3125 16C26.3125 16.5169 26.7331 16.9375 27.25 16.9375C27.7669 16.9375 28.1875 16.5169 28.1875 16C28.1875 15.4831 27.7669 15.0625 27.25 15.0625ZM16 5.625C14.4492 5.625 13.1875 4.36325 13.1875 2.8125C13.1875 1.26175 14.4492 0 16 0C17.5508 0 18.8125 1.26175 18.8125 2.8125C18.8125 4.36325 17.5508 5.625 16 5.625ZM16 1.875C15.4831 1.875 15.0625 2.29562 15.0625 2.8125C15.0625 3.32938 15.4831 3.75 16 3.75C16.5169 3.75 16.9375 3.32938 16.9375 2.8125C16.9375 2.29562 16.5169 1.875 16 1.875ZM4.6875 5.625H0.9375C0.419688 5.625 0 5.20531 0 4.6875V0.9375C0 0.419688 0.419688 0 0.9375 0H4.6875C5.20531 0 5.625 0.419688 5.625 0.9375V4.6875C5.625 5.20531 5.20531 5.625 4.6875 5.625ZM1.875 3.75H3.75V1.875H1.875V3.75ZM31.0625 5.625H27.3125C26.7947 5.625 26.375 5.20531 26.375 4.6875V0.9375C26.375 0.419688 26.7947 0 27.3125 0H31.0625C31.5803 0 32 0.419688 32 0.9375V4.6875C32 5.20531 31.5803 5.625 31.0625 5.625ZM28.25 3.75H30.125V1.875H28.25V3.75Z" fill="#22C55E"/>
<path d="M19.7923 28.7133C19.7671 28.7133 19.7417 28.7123 19.7161 28.7104C19.2 28.6689 18.8152 28.2168 18.8567 27.7007C19.0975 24.7087 20.3147 21.8784 22.306 19.6492L16 10.1902L9.69409 19.6492C11.6851 21.8784 12.9026 24.709 13.1433 27.7007C13.1848 28.2168 12.8001 28.6689 12.284 28.7104C11.7671 28.7517 11.316 28.3672 11.2742 27.851C11.0486 25.0452 9.82796 22.4038 7.83721 20.4128C7.6839 20.2596 7.58843 20.058 7.56707 19.8423C7.5457 19.6267 7.59975 19.4103 7.72002 19.23L15.22 7.97997C15.3056 7.85159 15.4216 7.74632 15.5577 7.67352C15.6938 7.60071 15.8457 7.56262 16 7.56262C16.1543 7.56262 16.3063 7.60071 16.4423 7.67352C16.5784 7.74632 16.6944 7.85159 16.78 7.97997L24.28 19.23C24.4002 19.4103 24.4542 19.6267 24.4328 19.8423C24.4114 20.058 24.316 20.2595 24.1628 20.4128C22.1719 22.4035 20.9512 25.0452 20.7256 27.851C20.6863 28.3415 20.2759 28.7133 19.7923 28.7133Z" fill="#3B82F6"/>
<path d="M21.625 32H10.375C9.85719 32 9.4375 31.5803 9.4375 31.0625C9.4375 29.8106 9.92238 28.625 10.803 27.7244C11.6929 26.8139 12.8728 26.3125 14.125 26.3125H17.875C19.1272 26.3125 20.3071 26.8139 21.197 27.7244C22.0776 28.625 22.5625 29.8106 22.5625 31.0625C22.5625 31.5803 22.1428 32 21.625 32ZM11.4724 30.125H20.5275C20.1376 29.0105 19.0802 28.1875 17.8749 28.1875H14.1249C12.9199 28.1875 11.8624 29.0105 11.4724 30.125H11.4724ZM16.9375 17.0986V8.5C16.9375 7.98219 16.5178 7.5625 16 7.5625C15.4822 7.5625 15.0625 7.98219 15.0625 8.5V17.0986C13.9713 17.4858 13.1875 18.5278 13.1875 19.75C13.1875 21.3008 14.4492 22.5625 16 22.5625C17.5508 22.5625 18.8125 21.3008 18.8125 19.75C18.8125 18.5278 18.0287 17.4858 16.9375 17.0986ZM16 20.6875C15.4831 20.6875 15.0625 20.2669 15.0625 19.75C15.0625 19.2331 15.4831 18.8125 16 18.8125C16.5169 18.8125 16.9375 19.2331 16.9375 19.75C16.9375 20.2669 16.5169 20.6875 16 20.6875Z" fill="#3B82F6"/>
</g>
<defs>
<clipPath id="clip0_110_18846">
<rect width="32" height="32" fill="white"/>
</clipPath>
</defs>
</svg>
