<svg width="304" height="146" viewBox="0 0 304 146" fill="none" xmlns="http://www.w3.org/2000/svg">
<path d="M80.7922 58.3406L55.7433 50.9102L32.5598 55.4215L27.4967 56.2176C29.362 67.6287 28.8291 79.3051 30.1615 91.2468C33.8922 91.2468 38.9552 92.043 43.4854 95.4928C66.6689 112.211 84.2564 103.189 84.2564 103.189L82.924 72.6707L80.7922 58.3406Z" fill="#FFC4C3"/>
<path d="M20.3016 95.7578L33.6255 94.6963C36.0238 94.4309 37.6226 92.308 37.3562 89.9196L34.4249 57.8095C34.1584 55.4211 32.0266 53.8289 29.6283 54.0943L16.3044 55.1558L20.3016 95.7578Z" fill="#DBEAFE"/>
<path d="M27.4966 99.2076L9.90911 100.8C0.315923 101.861 -4.21421 52.7673 5.1125 51.9712L22.7 50.3789C25.0983 50.1136 27.2301 51.7058 28.0296 54.0942C28.296 54.3595 28.0296 54.6249 28.2961 54.8903L32.0267 93.6347C32.2932 96.5538 30.4279 98.9422 27.4966 99.2076Z" fill="#3B82F6"/>
<path d="M165.265 72.4049C165.265 79.3046 162.867 84.8774 156.205 85.1428C153.409 85.1428 149.467 84.458 145.731 83.0884C143.382 82.2268 140.523 84.0037 140.83 86.4787C141.427 91.3036 142.289 96.0505 143.414 100.534C144.214 103.984 141.282 106.903 137.818 106.638C121.03 103.719 99.4454 104.515 82.9238 108.23C79.4596 109.026 76.5283 106.107 76.7948 102.657C79.7261 85.9389 78.9266 64.4437 75.1959 47.9906C74.3965 44.5407 77.3278 41.6216 80.792 41.887C85.4308 42.6569 90.35 43.1476 95.4479 43.4604C97.8924 43.6103 99.5002 40.8474 98.488 38.6266C96.7775 34.8736 95.628 30.865 95.4482 27.8222C95.4482 20.9225 100.778 18.2688 107.44 18.0034C114.368 18.0034 119.964 20.3918 120.231 27.0261C120.231 29.8106 119.543 33.7365 118.168 37.4564C117.303 39.7965 119.087 42.6429 121.572 42.3377C126.417 41.7429 131.184 40.885 135.686 39.764C139.151 38.9679 142.082 41.887 141.815 45.3368C141.042 49.9564 140.549 54.8553 140.235 59.9321C140.085 62.3664 142.859 63.9676 145.089 62.9595C148.858 61.2561 152.883 60.1113 155.939 59.9324C162.334 59.9324 165.265 65.5052 165.265 72.4049Z" fill="#F43F5E"/>
<path d="M115.434 50.9093C115.168 49.5825 113.835 48.7864 112.503 49.0517C108.506 49.3171 100.245 50.1132 97.3137 48.7864C94.3825 47.4595 85.5887 47.7249 81.0586 47.9902C79.4597 47.9902 77.8609 47.9902 76.5285 47.1941C72.5313 45.3365 52.0126 34.987 34.6915 55.4207C34.6915 55.4207 42.1529 83.5502 68.8006 72.9353C72.2649 71.6084 75.4626 69.4854 78.6603 67.3625C80.7921 65.7702 85.5887 63.6472 91.9842 63.6472C95.4484 63.3819 119.698 63.6472 115.434 50.9093Z" fill="#FFC4C3"/>
<path d="M223.091 56.7481L248.406 49.583L271.856 54.3597L276.653 54.8905C274.788 66.3015 275.054 78.2433 273.722 89.6543C269.991 89.6543 264.928 90.4504 260.398 93.9003C236.948 110.353 219.36 101.331 219.36 101.331L220.693 70.8128L223.091 56.7481Z" fill="#FFC4C3"/>
<path d="M255.868 74.528C256.134 67.8937 253.469 62.0555 246.807 61.7901C243.883 61.7901 239.706 62.539 235.736 63.9512C233.46 64.7609 230.822 63.0388 231.109 60.6489C231.708 55.6659 232.589 50.7595 233.75 46.1331C234.549 42.6833 231.618 39.7642 228.154 40.0296C211.366 42.9487 189.781 42.1525 173.26 37.9066C169.795 37.1105 166.864 40.0296 167.131 43.4794C167.664 47.1946 168.463 50.1137 168.463 53.2982C168.612 54.9275 168.76 56.7221 168.863 58.7282C168.98 61.029 171.534 62.5144 173.679 61.6525C177.795 59.9988 182.204 59.0224 185.251 59.4018C191.913 59.6672 194.578 65.5054 194.311 72.1397C194.045 78.774 191.114 84.3468 184.185 84.3468C181.311 84.156 176.92 83.0045 172.798 81.0896C170.686 80.1086 168.006 81.4488 167.748 83.7554C167.148 89.1082 166.232 92.9451 164.999 98.677C164.199 102.127 167.131 105.046 170.595 104.781C175.261 104.006 180.211 103.514 185.238 103.305C187.634 103.205 189.133 105.9 188.109 108.06C186.262 111.959 184.985 116.171 184.985 119.111C184.718 125.745 190.314 128.664 197.243 129.195C203.905 129.46 209.767 126.807 210.034 120.172C210.034 117.26 209.281 113.1 207.863 109.147C207.05 106.881 208.78 104.253 211.179 104.539C216.183 105.136 221.11 106.012 225.756 107.169C229.22 107.965 232.151 105.046 231.885 101.596C231.107 96.9492 230.613 92.0198 230.403 87.0141C230.302 84.6276 233.009 83.1348 235.178 84.1541C239.093 85.9938 243.322 87.2659 246.274 87.2659C252.67 86.7352 255.601 81.6931 255.868 74.528Z" fill="#22C55E"/>
<path d="M283.581 94.6963L270.524 93.3694C268.126 93.1041 266.527 90.9811 266.793 88.5927L269.991 56.748C270.258 54.3596 272.389 52.7674 274.788 53.0327L287.845 54.3596L283.581 94.6963Z" fill="#DBEAFE"/>
<path d="M276.387 98.1456L293.974 99.7378C303.567 100.799 308.364 51.9707 298.771 50.9092L281.183 49.3169C278.785 49.0515 276.653 50.6438 275.854 53.0321C275.587 53.2975 275.854 53.5629 275.587 53.8283L271.59 92.3074C271.324 95.2265 273.455 97.8802 276.387 98.1456Z" fill="#3B82F6"/>
<path d="M188.449 49.3173C188.716 47.9904 190.048 47.1943 191.38 47.4597C195.377 47.7251 203.638 48.5212 206.836 47.4597C209.767 46.1328 218.561 46.3982 223.091 46.6636C224.69 46.6636 226.289 46.6636 227.621 45.8675C231.618 44.0098 252.137 33.6603 269.458 54.094C269.458 54.094 261.997 82.2235 235.083 71.3432C231.618 70.0164 228.421 67.8934 225.223 65.7704C223.091 64.1782 218.561 61.7898 211.899 61.5245C208.435 61.7898 184.185 62.0552 188.449 49.3173Z" fill="#FFC4C3"/>
<path d="M139.93 122.618C137.798 122.618 136.199 124.21 136.466 126.068L136.466 142.521C136.466 144.644 138.065 146.236 139.93 145.971C142.062 145.971 143.661 144.379 143.394 142.521L143.394 126.068C143.394 123.945 142.062 122.618 139.93 122.618Z" fill="#F59E0B"/>
<path d="M155.385 123.679C154.053 125.006 154.053 127.129 155.385 128.456L167.11 140.133C168.443 141.459 170.574 141.459 171.907 140.133C173.239 138.806 173.239 136.683 171.907 135.356L160.182 123.679C159.116 122.087 156.718 122.353 155.385 123.679Z" fill="#F59E0B"/>
<path d="M124.474 123.679C123.142 122.352 121.01 122.352 119.677 123.679L107.952 135.356C106.62 136.683 106.62 138.805 107.952 140.132C109.285 141.459 111.416 141.459 112.749 140.132L124.474 128.456C125.806 127.129 125.806 125.006 124.474 123.679Z" fill="#F59E0B"/>
<path d="M163.954 23.3818C166.086 23.3818 167.684 21.7895 167.418 19.9319L167.418 3.47878C167.418 1.3558 165.819 -0.236437 163.954 0.0289359C161.822 0.0289359 160.223 1.62117 160.49 3.47878L160.49 19.9319C160.49 22.0549 161.822 23.3818 163.954 23.3818Z" fill="#F59E0B"/>
<path d="M148.498 22.3203C149.83 20.9935 149.83 18.8705 148.498 17.5436L136.773 5.86722C135.44 4.54035 133.309 4.54035 131.976 5.86722C130.644 7.19408 130.644 9.31707 131.976 10.6439L143.701 22.3203C144.767 23.9126 147.165 23.6472 148.498 22.3203Z" fill="#F59E0B"/>
<path d="M179.409 22.3203C180.741 23.6472 182.873 23.6472 184.206 22.3203L195.931 10.6439C197.263 9.31707 197.263 7.19408 195.931 5.86722C194.598 4.54035 192.466 4.54035 191.134 5.86722L179.409 17.5436C178.077 18.8705 178.077 20.9935 179.409 22.3203Z" fill="#F59E0B"/>
</svg>
