<svg width="96" height="96" viewBox="0 0 96 96" fill="none" xmlns="http://www.w3.org/2000/svg">
<path d="M4.22398 30.5818L50.6534 3.60001L48.4358 2.32129L2.0083 29.2992L4.22398 30.5818Z" fill="#FB7185"/>
<path d="M54.267 43.9294C52.2203 42.7467 50.5614 39.8705 50.5691 37.5243L50.6401 3.60938L34.8462 12.787L4.22414 30.5796L4.13966 64.5003C4.13582 66.8523 5.7947 69.7284 7.84142 70.9073C8.87246 71.5044 9.80558 71.5582 10.4814 71.1665L56.907 44.1847C56.2312 44.5764 55.2942 44.5227 54.2651 43.9313L54.267 43.9294Z" fill="#F43F5E"/>
<path d="M6.07867 31.8643L12.3494 35.4835L12.8064 35.7484V71.6927C12.1996 71.6563 11.5315 71.4489 10.8288 71.0438C8.16379 69.5001 5.99995 65.758 6.00955 62.6975L6.07867 31.8643Z" fill="#E2E8F0"/>
<path d="M60.2939 9.16797L60.2094 43.0886C60.2017 44.951 59.5432 46.2701 58.4757 46.8864L12.05 73.8681C13.1156 73.246 13.7742 71.9328 13.7838 70.0665L13.8664 36.144L60.2939 9.16797Z" fill="#F43F5E"/>
<path d="M12.0479 35.3126L55.6319 9.98396L49.6646 6.53564L6.08057 31.8662L12.0479 35.3126Z" fill="#F8FAFC"/>
<path d="M2.00833 29.2993L1.92385 63.2219C1.91425 66.9774 4.56385 71.57 7.83361 73.4574C11.1034 75.3447 13.7703 73.8222 13.7818 70.0686L13.8663 36.146L11.6487 34.8673L11.5642 68.788C11.5584 71.138 9.88801 72.0904 7.83937 70.9096C5.79457 69.7288 4.13377 66.8526 4.14145 64.5025L4.22401 30.5819L2.00833 29.2993Z" fill="#BE123C"/>
<path d="M13.8663 36.1458L60.2919 9.16593L58.0743 7.88721L11.6487 34.867L13.8663 36.1458Z" fill="#FB7185"/>
<path d="M60.3054 3.604L49.2654 10.0206L44.498 18.3458L60.2939 9.16816L60.3054 3.604Z" fill="#F43F5E"/>
<path d="M49.2672 10.0204L44.4999 18.3436L42.2842 17.0649L47.0496 8.73975L49.2672 10.0204Z" fill="#BE123C"/>
<path d="M49.2672 10.0206L60.3052 3.60779L58.0876 2.32715L47.0496 8.73995L49.2672 10.0206Z" fill="#FB7185"/>
<path d="M21.1104 40.2873L67.536 13.3056L65.3203 12.0269L18.8928 39.0067L21.1104 40.2873Z" fill="#FBBF24"/>
<path d="M71.1514 53.6373C69.1046 52.4527 67.4458 49.5765 67.4534 47.2303L67.5264 13.3135L51.7306 22.4911L21.1104 40.2856L21.0278 74.2063C21.024 76.5564 22.6829 79.4344 24.7296 80.6133C25.7587 81.2104 26.6938 81.2642 27.3677 80.8725L73.7933 53.8908C73.1213 54.2824 72.1805 54.2287 71.1514 53.6354V53.6373Z" fill="#F59E0B"/>
<path d="M22.9632 41.5698L29.2339 45.189L29.6909 45.454V81.3983C29.0861 81.3618 28.4179 81.1545 27.7133 80.7493C25.0483 79.2057 22.8845 75.4636 22.8941 72.4031L22.9632 41.5698Z" fill="#E2E8F0"/>
<path d="M77.1782 18.8735L77.0956 52.7942C77.086 54.6566 76.4274 55.9756 75.3618 56.5919L28.9343 83.5737C30.0018 82.9516 30.6604 81.6403 30.6681 79.7721L30.7526 45.8495L77.1782 18.8735Z" fill="#F59E0B"/>
<path d="M28.9344 45.0182L72.5184 19.6895L66.5491 16.2412L22.9651 41.5699L28.9344 45.0182Z" fill="#F8FAFC"/>
<path d="M18.8929 39.0068L18.8103 72.9275C18.7988 76.683 21.4503 81.2756 24.7201 83.163C27.9879 85.0504 30.6567 83.5278 30.6683 79.7723L30.7508 45.8516L28.5351 44.5729L28.4507 78.4936C28.443 80.8436 26.7726 81.796 24.7259 80.6152C22.6791 79.4344 21.0203 76.5582 21.026 74.2081L21.1105 40.2856L18.8929 39.0068Z" fill="#B45309"/>
<path d="M30.7508 45.8514L77.1764 18.8734L74.9608 17.5947L28.5352 44.5746L30.7508 45.8514Z" fill="#FBBF24"/>
<path d="M77.1897 13.3096L66.1497 19.7262L61.3843 28.0513L77.1782 18.8737L77.1897 13.3096Z" fill="#F59E0B"/>
<path d="M66.1537 19.726L61.3863 28.0492L59.1687 26.7704L63.9361 18.4453L66.1537 19.726Z" fill="#B45309"/>
<path d="M66.1536 19.7261L77.1898 13.3133L74.9741 12.0308L63.9341 18.4455L66.1536 19.7261Z" fill="#FBBF24"/>
<path d="M37.9969 49.991L84.4225 23.0111L82.2069 21.7324L35.7812 48.7123L37.9969 49.991Z" fill="#60A5FA"/>
<path d="M88.0378 63.341C85.9911 62.1582 84.3322 59.2821 84.3399 56.9358L84.4109 23.019L68.617 32.1966L37.9968 49.9893L37.9124 83.9118C37.9085 86.2619 39.5674 89.14 41.6141 90.3189C42.6452 90.9141 43.5783 90.9698 44.2541 90.5781L90.6797 63.5963C90.0058 63.988 89.0669 63.9342 88.0378 63.341Z" fill="#3B82F6"/>
<path d="M39.8497 51.2754L46.1204 54.8946L46.5774 55.1596V91.1039C45.9726 91.0674 45.3025 90.86 44.5997 90.4549C41.9348 88.9112 39.7709 85.1672 39.7805 82.1087L39.8497 51.2754Z" fill="#E2E8F0"/>
<path d="M94.0646 28.5791L93.9802 62.4997C93.9725 64.3621 93.3139 65.6812 92.2464 66.2975L45.8208 93.2793C46.8864 92.6572 47.5469 91.3439 47.5546 89.4777L47.6371 55.5551L94.0646 28.5791Z" fill="#3B82F6"/>
<path d="M79.0638 66.2784L90.3668 59.712C90.3668 59.712 90.3611 61.9373 90.363 62.0775L79.0542 68.6496L79.0638 66.2784ZM79.0638 61.8106L90.3668 55.2423C90.3668 55.2423 90.3611 57.4695 90.363 57.6077L79.0542 64.1799L79.0638 61.8106ZM79.0638 57.3408L90.3668 50.7744C90.3668 50.7744 90.3611 52.9978 90.363 53.1379L79.0542 59.712L79.0638 57.3408Z" fill="#E2E8F0"/>
<path d="M45.8208 54.7237L89.4048 29.3932L83.4336 25.9468L39.8496 51.2754L45.8208 54.7237Z" fill="#F8FAFC"/>
<path d="M35.7793 48.7104L35.6949 82.633C35.6853 86.3885 38.3349 90.9812 41.6046 92.8666C44.8744 94.7559 47.5432 93.2352 47.5528 89.4797L47.6373 55.5572L45.4197 54.2784L45.3352 88.1991C45.3294 90.5492 43.659 91.5015 41.6104 90.3207C39.5617 89.1399 37.9048 86.2637 37.9125 83.9137L37.9969 49.9911L35.7793 48.7104Z" fill="#1D4ED8"/>
<path d="M47.6371 55.5569L94.0627 28.5771L91.847 27.2983L45.4214 54.2782L47.6371 55.5569Z" fill="#60A5FA"/>
<path d="M94.0762 23.0151L83.0362 29.4318L78.2708 37.7569L94.0647 28.5793L94.0762 23.0151Z" fill="#3B82F6"/>
<path d="M83.0399 29.4315L78.2725 37.7547L76.0549 36.476L80.8223 28.1509L83.0399 29.4315Z" fill="#1D4ED8"/>
<path d="M83.0401 29.4317L94.0763 23.0189L91.8587 21.7363L80.8225 28.151L83.0401 29.4317Z" fill="#60A5FA"/>
</svg>
