<svg width="81" height="80" viewBox="0 0 81 80" fill="none" xmlns="http://www.w3.org/2000/svg">
<rect x="1.54962" y="1" width="78.1925" height="78" rx="11" fill="#30353E" stroke="#30353E" stroke-width="2"/>
<path fill-rule="evenodd" clip-rule="evenodd" d="M40.6458 63.0663L49.8744 34.7245H31.4173L40.6458 63.0663Z" fill="#E24329"/>
<path fill-rule="evenodd" clip-rule="evenodd" d="M40.6459 63.0663L31.4173 34.7245H18.4829L40.6459 63.0663Z" fill="#FC6D26"/>
<path fill-rule="evenodd" clip-rule="evenodd" d="M18.483 34.7245L15.6793 43.3418C15.5546 43.7246 15.5545 44.137 15.6792 44.5199C15.8038 44.9028 16.0468 45.2364 16.3732 45.4731L40.6459 63.0663L18.483 34.7245Z" fill="#FCA326"/>
<path fill-rule="evenodd" clip-rule="evenodd" d="M18.4829 34.7245H31.4165L25.8586 17.6664C25.5727 16.7883 24.3275 16.7883 24.0417 17.6664L18.4829 34.7245Z" fill="#E24329"/>
<path fill-rule="evenodd" clip-rule="evenodd" d="M40.6459 63.0663L49.8745 34.7245H62.8088L40.6459 63.0663Z" fill="#FC6D26"/>
<path fill-rule="evenodd" clip-rule="evenodd" d="M62.8088 34.7245L65.6125 43.334C65.7372 43.7168 65.7373 44.1292 65.6126 44.5121C65.488 44.8949 65.245 45.2286 64.9186 45.4653L40.6459 63.0663L62.8088 34.7245Z" fill="#FCA326"/>
<path fill-rule="evenodd" clip-rule="evenodd" d="M62.8088 34.7245H49.8744L55.4332 17.6586C55.719 16.7805 56.9642 16.7805 57.2501 17.6586L62.8088 34.7245Z" fill="#E24329"/>
</svg>
