<svg width="81" height="80" viewBox="0 0 81 80" fill="none" xmlns="http://www.w3.org/2000/svg">
<rect x="1.203" y="1" width="78.1925" height="78" rx="11" fill="#1DA1F2" stroke="#1DA1F2" stroke-width="2"/>
<path d="M64.357 26.2879C62.7485 27.0747 60.8719 27.5992 58.9953 27.8615C61.0059 26.6813 62.4804 24.8455 63.2846 22.6164C61.408 23.6654 59.3974 24.4522 57.2527 24.8455C55.794 23.384 53.8902 22.4248 51.8268 22.1116C49.7635 21.7985 47.652 22.1484 45.8092 23.1088C43.9664 24.0693 42.4918 25.5885 41.6065 27.4384C40.7213 29.2883 40.4732 31.3692 40.8995 33.3688C33.3931 32.9754 26.1548 29.5661 21.4633 23.6654C20.8249 24.6628 20.3947 25.774 20.1974 26.9348C20.0002 28.0957 20.0397 29.2833 20.3139 30.4291C20.588 31.5749 21.0913 32.6563 21.7947 33.611C22.4981 34.5656 23.3877 35.3746 24.4123 35.9913C22.9378 35.9913 21.4633 35.729 20.1229 35.0734C20.2569 39.4006 23.3399 43.2033 27.6293 44.1211C26.2889 44.5145 24.8144 44.5145 23.3399 44.2523C24.6803 48.0549 28.2995 50.6775 32.3208 50.8086C28.4335 53.9556 23.2059 55.398 18.2463 54.6113C22.3908 57.3167 27.227 58.8325 32.207 58.9869C37.187 59.1413 42.1116 57.9282 46.4229 55.4851C50.7343 53.0419 54.2599 49.4663 56.6004 45.1635C58.9409 40.8606 60.0027 36.0025 59.6655 31.1396C61.5421 29.8284 63.1506 28.2548 64.357 26.2879Z" fill="#F7F9F9"/>
</svg>
