<svg width="81" height="80" viewBox="0 0 81 80" fill="none" xmlns="http://www.w3.org/2000/svg">
<rect x="1.07697" y="1" width="78.1925" height="78" rx="11" fill="#2867B2" stroke="#2867B2" stroke-width="2"/>
<path d="M27.4803 21.6739C27.4803 24.2558 25.394 26.3478 22.8191 26.3478C20.2442 26.3478 18.1579 24.2558 18.1579 21.6739C18.1579 19.0939 20.2442 17 22.8191 17C25.394 17 27.4803 19.0939 27.4803 21.6739ZM27.5179 30.087H18.1203V60H27.5179V30.087ZM42.5201 30.087H33.1827V60H42.522V44.2975C42.522 35.5667 53.8536 34.8525 53.8536 44.2975V60H63.2286V41.0594C63.2286 26.3273 46.4596 26.8638 42.5201 34.1159V30.087Z" fill="#F7F9F9"/>
</svg>
