<svg width="82" height="80" viewBox="0 0 82 80" fill="none" xmlns="http://www.w3.org/2000/svg">
<rect x="0.856537" width="80.1925" height="80" rx="12" fill="url(#paint0_linear)"/>
<path d="M41.4546 16.0231C31.8059 16.0231 22.6434 15.1494 19.1437 24.2929C17.6982 28.0694 17.9081 32.9739 17.9081 39.9966C17.9081 46.1591 17.7141 51.9509 19.1437 55.6976C22.6355 64.8466 31.8723 63.9701 41.4493 63.9701C50.6888 63.9701 60.2153 64.9494 63.7575 55.6976C65.2057 51.8833 64.9931 47.0518 64.9931 39.9966C64.9931 30.6312 65.5007 24.5851 61.039 20.0458C56.5216 15.4469 50.4124 16.0231 41.444 16.0231H41.4546ZM39.3447 20.3433C59.4712 20.3109 62.0329 18.0331 60.6192 49.6758C60.1169 60.8672 51.7464 59.6391 41.4572 59.6391C22.6966 59.6391 22.1571 59.0926 22.1571 39.9858C22.1571 20.6571 23.6452 20.3542 39.3447 20.3379V20.3433ZM54.0237 24.3227C52.4639 24.3227 51.199 25.6104 51.199 27.1983C51.199 28.7863 52.4639 30.0739 54.0237 30.0739C55.5835 30.0739 56.8484 28.7863 56.8484 27.1983C56.8484 25.6104 55.5835 24.3227 54.0237 24.3227ZM41.4546 27.6853C34.7767 27.6853 29.3638 33.1985 29.3638 39.9966C29.3638 46.7948 34.7767 52.3053 41.4546 52.3053C48.1324 52.3053 53.5427 46.7948 53.5427 39.9966C53.5427 33.1985 48.1324 27.6853 41.4546 27.6853ZM41.4546 32.0055C51.8314 32.0055 51.8447 47.9878 41.4546 47.9878C31.0804 47.9878 31.0645 32.0055 41.4546 32.0055Z" fill="white"/>
<defs>
<linearGradient id="paint0_linear" x1="6.2408" y1="74.788" x2="80.3916" y2="10.4443" gradientUnits="userSpaceOnUse">
<stop stop-color="#FFDD55"/>
<stop offset="0.5" stop-color="#FF543E"/>
<stop offset="1" stop-color="#C837AB"/>
</linearGradient>
</defs>
</svg>
