<svg width="81" height="80" viewBox="0 0 81 80" fill="none" xmlns="http://www.w3.org/2000/svg">
<rect x="1.76999" y="1" width="78.1925" height="78" rx="11" fill="#ED1D24" stroke="#ED1D24" stroke-width="2"/>
<path d="M66.863 26.7812C66.2551 24.5069 64.2793 22.6875 61.9996 22.081C56.8321 20.7165 25.6757 20.5648 19.7483 22.081C17.4686 22.6875 15.4928 24.5069 14.8849 26.7812C13.517 32.5427 13.3651 47.2496 14.8849 53.1627C15.4928 55.437 17.4686 57.2564 19.7483 57.8629C25.2197 59.379 56.3762 59.379 61.9996 57.8629C64.2793 57.2564 66.2551 55.437 66.863 53.1627C68.2309 47.7045 68.2309 32.391 66.863 26.7812Z" fill="white"/>
<path d="M35.4026 31.9363V48.0078L49.537 39.972" fill="#ED1D24"/>
</svg>
