<svg width="81" height="80" viewBox="0 0 81 80" fill="none" xmlns="http://www.w3.org/2000/svg">
<rect x="1.76996" y="1" width="78.1925" height="78" rx="11" fill="#1769FF" stroke="#1769FF" stroke-width="2"/>
<path d="M62.5845 27.5333H47.3815V23H62.5845V27.5333ZM66.3331 50.2C65.3732 53.1399 61.9265 57 55.2545 57C48.5782 57 43.1703 53.0809 43.1703 44.1367C43.1703 35.274 48.2199 30.718 55.0417 30.718C61.7353 30.718 65.8228 34.7572 66.7154 40.7503C66.8848 41.8972 66.9521 43.4431 66.9217 45.6009H49.4882C49.7706 52.8792 57.0528 53.1081 59.4527 50.2H66.3331ZM49.6403 41.1333H60.4235C60.1955 37.6268 57.9563 36.1036 55.0438 36.1036C51.8599 36.1036 50.0985 37.8444 49.6403 41.1333ZM28.8469 56.9728H14.8037V23.0476H29.9046C41.7977 23.2312 42.0236 35.3873 35.812 38.7012C43.3288 41.5572 43.5808 56.9728 28.8469 56.9728ZM21.3193 36.6H29.1032C34.5502 36.6 35.4146 29.8 28.4256 29.8H21.3193V36.6ZM28.684 43.4H21.3193V50.2363H28.5754C35.2104 50.2363 34.8043 43.4 28.684 43.4Z" fill="#F7F9F9"/>
</svg>
