<svg width="81" height="80" viewBox="0 0 81 80" fill="none" xmlns="http://www.w3.org/2000/svg">
<rect x="1.20311" y="1" width="78.1925" height="78" rx="11" fill="#D0D3D4" stroke="#D0D3D4" stroke-width="2"/>
<path d="M40.2994 15C26.462 15 15.2392 26.2472 15.2392 40.1194C15.2392 51.2179 22.4189 60.6335 32.3783 63.9556C33.6292 64.1879 34.0343 63.4092 34.0343 62.7477V58.0713C27.0634 59.5911 25.612 55.1073 25.612 55.1073C24.4718 52.2039 22.8283 51.4315 22.8283 51.4315C20.5541 49.872 23.0016 49.9055 23.0016 49.9055C25.5181 50.0813 26.8421 52.4948 26.8421 52.4948C29.0766 56.3339 32.7041 55.2245 34.1346 54.5818C34.358 52.9596 35.0075 51.8501 35.7259 51.2242C30.1604 50.5858 24.3089 48.4318 24.3089 38.809C24.3089 36.0647 25.2883 33.8249 26.8901 32.0665C26.6311 31.4323 25.7728 28.8764 27.1344 25.4183C27.1344 25.4183 29.2395 24.7442 34.0281 27.993C36.0266 27.4362 38.1693 27.1578 40.2994 27.1473C42.4295 27.1578 44.5742 27.4362 46.5769 27.993C51.3613 24.7442 53.4622 25.4183 53.4622 25.4183C54.8259 28.8785 53.9676 31.4343 53.7086 32.0665C55.3167 33.8249 56.2877 36.0668 56.2877 38.809C56.2877 48.4569 50.4258 50.5816 44.8457 51.2033C45.7437 51.982 46.5644 53.5101 46.5644 55.8546V62.7477C46.5644 63.4155 46.9654 64.2005 48.2372 63.9535C58.1881 60.6272 65.3595 51.2138 65.3595 40.1194C65.3595 26.2472 54.1388 15 40.2994 15Z" fill="black"/>
</svg>
