<svg width="81" height="80" viewBox="0 0 81 80" fill="none" xmlns="http://www.w3.org/2000/svg">
<rect x="1.42346" y="1" width="78.1925" height="78" rx="11" fill="#202020" stroke="#202020" stroke-width="2"/>
<path fill-rule="evenodd" clip-rule="evenodd" d="M22.0488 29.3444C22.1077 28.787 21.8859 28.2371 21.454 27.863L17.0568 22.7615V22H30.7157L41.2729 44.2863L50.5542 22H63.5751V22.7615L59.8139 26.2324C59.49 26.4705 59.329 26.8616 59.3958 27.2489V52.753C59.329 53.1384 59.49 53.5295 59.8139 53.7676L63.4867 57.2385V58H45.0106V57.2385L48.8169 53.6826C49.1899 53.3236 49.1899 53.2178 49.1899 52.6679V32.0539L38.611 57.9169H37.1819L24.8638 32.0539V49.3878C24.7617 50.1153 25.013 50.8503 25.545 51.3755L30.4938 57.1535V57.9169H16.462V57.1535L21.4108 51.3755C21.9409 50.8484 22.1764 50.1096 22.0488 49.3878V29.3444Z" fill="#F7F9F9"/>
</svg>
