<svg width="81" height="80" viewBox="0 0 81 80" fill="none" xmlns="http://www.w3.org/2000/svg">
<rect x="1.42349" y="1" width="78.1925" height="78" rx="11" fill="#D0D3D4" stroke="#D0D3D4" stroke-width="2"/>
<path d="M40.5474 17.5955C52.9664 17.5955 63.0145 27.6195 63.0145 39.9899C63.0145 52.3603 52.9664 62.4031 40.5474 62.4031C28.1284 62.4031 18.0803 52.3791 18.0803 40.0087C18.0803 27.6382 28.1284 17.5955 40.5474 17.5955Z" fill="#E74D89"/>
<path d="M40.5474 63.9988C27.2628 63.9988 16.462 53.2427 16.462 40.0088C16.462 26.7561 27.2628 16 40.5474 16C53.832 16 64.6327 26.7561 64.6327 39.99C64.6327 53.2239 53.832 63.9988 40.5474 63.9988ZM60.8506 43.275C60.1544 43.0498 54.4905 41.3791 48.0364 42.3928C50.7272 49.7512 51.8186 55.7581 52.0256 56.997C56.6545 53.8997 59.9474 48.9816 60.8506 43.275ZM48.5821 58.8929C48.281 57.0909 47.0768 50.8212 44.1978 43.3501C44.1602 43.3689 44.1037 43.3876 44.0661 43.3876C32.4562 47.4235 28.2977 55.439 27.9214 56.1898C31.4025 58.8929 35.7867 60.5073 40.5474 60.5073C43.3887 60.5261 46.1171 59.9441 48.5821 58.8929ZM25.2682 53.7308C25.7386 52.9424 31.3836 43.6317 41.9963 40.1965C42.2597 40.1026 42.5419 40.0275 42.8054 39.9525C42.2973 38.7886 41.7328 37.6248 41.1307 36.4797C30.8568 39.5395 20.8839 39.4081 19.9807 39.3893C19.9807 39.5958 19.9619 39.8023 19.9619 40.0088C19.9807 45.2836 21.9753 50.0891 25.2682 53.7308ZM20.4135 35.8227C21.3355 35.8415 29.803 35.879 39.4372 33.3261C36.0314 27.2817 32.3433 22.2134 31.8164 21.4813C26.0397 24.1844 21.7495 29.478 20.4135 35.8227ZM35.7303 20.0922C36.2948 20.8431 40.0393 25.9114 43.4075 32.0872C50.7272 29.3466 53.8131 25.2168 54.1895 24.6912C50.5578 21.4813 45.7784 19.529 40.5474 19.529C38.8915 19.529 37.2733 19.7355 35.7303 20.0922ZM56.4663 27.0564C56.0335 27.6383 52.5901 32.0497 44.9881 35.147C45.4585 36.1231 45.9289 37.118 46.3617 38.1129C46.5123 38.4695 46.6628 38.8262 46.8133 39.1641C53.6626 38.3006 60.4554 39.6897 61.1328 39.8211C61.0764 34.9968 59.3452 30.5479 56.4663 27.0564Z" fill="#B2215A"/>
</svg>
