<svg width="24" height="25" viewBox="0 0 24 25" fill="none" xmlns="http://www.w3.org/2000/svg">
<path d="M6.66073 23.2177H3.47713C2.91424 23.2177 2.3744 22.9941 1.97637 22.5961C1.57835 22.1981 1.35474 21.6582 1.35474 21.0953V13.667C1.35474 13.1041 1.57835 12.5642 1.97637 12.1662C2.3744 11.7682 2.91424 11.5446 3.47713 11.5446H6.66073M14.0891 9.42216V5.17737C14.0891 4.33303 13.7537 3.52327 13.1567 2.92623C12.5596 2.32919 11.7499 1.99377 10.9055 1.99377L6.66073 11.5446V23.2177H18.6311C19.1429 23.2235 19.6396 23.0441 20.0296 22.7126C20.4196 22.3811 20.6767 21.9198 20.7534 21.4137L22.2179 11.8629C22.2641 11.5587 22.2436 11.2481 22.1578 10.9527C22.072 10.6572 21.923 10.3839 21.7211 10.1518C21.5192 9.91958 21.2693 9.73408 20.9886 9.60811C20.7079 9.48213 20.4032 9.41868 20.0955 9.42216H14.0891Z" stroke="#87CEFA" stroke-width="2" stroke-linecap="round" stroke-linejoin="round"/>
</svg>
