<svg width="24" height="25" viewBox="0 0 24 25" fill="none" xmlns="http://www.w3.org/2000/svg">
<path d="M20.413 12.6057V23.2177H3.43384V12.6057" stroke="#87CEFA" stroke-width="2" stroke-linecap="round" stroke-linejoin="round"/>
<path d="M22.5355 7.2998H1.31152V12.6058H22.5355V7.2998Z" stroke="#87CEFA" stroke-width="2" stroke-linecap="round" stroke-linejoin="round"/>
<path d="M11.9236 23.2178V7.2998" stroke="#87CEFA" stroke-width="2" stroke-linecap="round" stroke-linejoin="round"/>
<path d="M11.9235 7.29977H7.14811C6.4445 7.29977 5.7697 7.02026 5.27216 6.52272C4.77463 6.02519 4.49512 5.35039 4.49512 4.64677C4.49512 3.94315 4.77463 3.26835 5.27216 2.77082C5.7697 2.27329 6.4445 1.99377 7.14811 1.99377C10.8623 1.99377 11.9235 7.29977 11.9235 7.29977Z" stroke="#87CEFA" stroke-width="2" stroke-linecap="round" stroke-linejoin="round"/>
<path d="M11.9236 7.29977H16.699C17.4026 7.29977 18.0774 7.02026 18.5749 6.52272C19.0725 6.02519 19.352 5.35039 19.352 4.64677C19.352 3.94315 19.0725 3.26835 18.5749 2.77082C18.0774 2.27329 17.4026 1.99377 16.699 1.99377C12.9848 1.99377 11.9236 7.29977 11.9236 7.29977Z" stroke="#87CEFA" stroke-width="2" stroke-linecap="round" stroke-linejoin="round"/>
</svg>
