<svg width="25" height="25" viewBox="0 0 25 25" fill="none" xmlns="http://www.w3.org/2000/svg">
<path d="M17.9792 9.42224H19.0404C20.1662 9.42224 21.2459 9.86946 22.042 10.6655C22.838 11.4616 23.2852 12.5412 23.2852 13.667C23.2852 14.7928 22.838 15.8725 22.042 16.6686C21.2459 17.4646 20.1662 17.9118 19.0404 17.9118H17.9792" stroke="#87CEFA" stroke-width="2" stroke-linecap="round" stroke-linejoin="round"/>
<path d="M1 9.42224H17.9792V18.973C17.9792 20.0988 17.532 21.1785 16.7359 21.9746C15.9399 22.7706 14.8602 23.2178 13.7344 23.2178H5.24479C4.11901 23.2178 3.03933 22.7706 2.24327 21.9746C1.44722 21.1785 1 20.0988 1 18.973V9.42224Z" stroke="#87CEFA" stroke-width="2" stroke-linecap="round" stroke-linejoin="round"/>
<path d="M5.24463 1.99377V5.17737" stroke="#87CEFA" stroke-width="2" stroke-linecap="round" stroke-linejoin="round"/>
<path d="M9.4895 1.99377V5.17737" stroke="#87CEFA" stroke-width="2" stroke-linecap="round" stroke-linejoin="round"/>
<path d="M13.7344 1.99377V5.17737" stroke="#87CEFA" stroke-width="2" stroke-linecap="round" stroke-linejoin="round"/>
</svg>
