<svg width="92" height="92" viewBox="0 0 92 92" fill="none" xmlns="http://www.w3.org/2000/svg">
<rect width="92" height="92" rx="12" fill="url(#paint0_linear)"/>
<path d="M46.5757 18.4266C35.5063 18.4266 24.9948 17.4218 20.9798 27.9369C19.3214 32.2798 19.5622 37.92 19.5622 45.9961C19.5622 53.083 19.3397 59.7436 20.9798 64.0523C24.9857 74.5736 35.5825 73.5657 46.5696 73.5657C57.1695 73.5657 68.0987 74.6918 72.1624 64.0523C73.8239 59.6658 73.58 54.1096 73.58 45.9961C73.58 35.2259 74.1623 28.2729 69.0437 23.0527C63.8612 17.764 56.8525 18.4266 46.5635 18.4266H46.5757ZM44.1551 23.3949C67.2451 23.3575 70.1839 20.7381 68.5621 57.1272C67.9859 69.9974 58.3829 68.585 46.5788 68.585C25.0558 68.585 24.4369 67.9566 24.4369 45.9837C24.4369 23.7557 26.1441 23.4073 44.1551 23.3886V23.3949ZM60.9955 27.9711C59.206 27.9711 57.7549 29.4519 57.7549 31.2781C57.7549 33.1042 59.206 34.5851 60.9955 34.5851C62.785 34.5851 64.2361 33.1042 64.2361 31.2781C64.2361 29.4519 62.785 27.9711 60.9955 27.9711V27.9711ZM46.5757 31.8381C38.9146 31.8381 32.7047 38.1782 32.7047 45.9961C32.7047 53.814 38.9146 60.1511 46.5757 60.1511C54.2368 60.1511 60.4437 53.814 60.4437 45.9961C60.4437 38.1782 54.2368 31.8381 46.5757 31.8381V31.8381ZM46.5757 36.8063C58.4804 36.8063 58.4957 55.186 46.5757 55.186C34.6741 55.186 34.6558 36.8063 46.5757 36.8063Z" fill="white"/>
<defs>
<linearGradient id="paint0_linear" x1="6.17704" y1="86.0062" x2="91.4213" y2="12.2138" gradientUnits="userSpaceOnUse">
<stop stop-color="#FFDD55"/>
<stop offset="0.5" stop-color="#FF543E"/>
<stop offset="1" stop-color="#C837AB"/>
</linearGradient>
</defs>
</svg>
