<svg width="16" height="29" viewBox="0 0 16 29" fill="none" xmlns="http://www.w3.org/2000/svg">
<path d="M-6.11966e-07 14.5002C-5.97556e-07 14.1705 0.0960735 13.8412 0.27217 13.5942L8.27187 1.24133C8.55987 0.796468 9.04001 0.5 9.59988 0.5L14.3998 0.5C15.2799 0.5 16 1.24133 16 2.14726C16 2.47662 15.9039 2.8059 15.7278 3.05288L8.31995 14.5002L15.7278 25.9471C15.9039 26.1941 16 26.5234 16 26.8531C16 27.7587 15.2799 28.5 14.3998 28.5L9.59988 28.5C9.04001 28.5 8.55987 28.2035 8.27187 27.7587L0.27217 15.4058C0.0960735 15.1588 -6.26363e-07 14.8295 -6.11966e-07 14.5002Z" fill="#8F6DAC"/>
</svg>
