<svg width="24" height="24" viewBox="0 0 24 24" fill="none" xmlns="http://www.w3.org/2000/svg">
<g clip-path="url(#clip0_77_2459)">
<path d="M24 7V8H0V7C0 4.239 2.239 2 5 2H6V1C6 0.448 6.448 0 7 0C7.552 0 8 0.448 8 1V2H16V1C16 0.448 16.448 0 17 0C17.552 0 18 0.448 18 1V2H19C21.761 2 24 4.239 24 7ZM24 17C24 20.86 20.859 24 17 24C13.141 24 10 20.86 10 17C10 13.14 13.141 10 17 10C20.859 10 24 13.14 24 17ZM19 17.586L18 16.586V15C18 14.448 17.552 14 17 14C16.448 14 16 14.448 16 15V17C16 17.265 16.105 17.52 16.293 17.707L17.586 19C17.976 19.39 18.61 19.39 19 19C19.39 18.61 19.39 17.976 19 17.586ZM8 17C8 14.171 9.308 11.65 11.349 10H0V19C0 21.761 2.239 24 5 24H11.349C9.308 22.35 8 19.829 8 17Z" fill="#8F6DAC"/>
</g>
<defs>
<clipPath id="clip0_77_2459">
<rect width="24" height="24" fill="white"/>
</clipPath>
</defs>
</svg>
