<svg width="44" height="48" viewBox="0 0 44 48" fill="none" xmlns="http://www.w3.org/2000/svg">
<path d="M35.5483 31.0182C33.6474 33.629 30.5682 35.3294 27.0988 35.3294H22.2308C20.5492 35.3294 19.1171 34.2618 18.5749 32.7675C17.8984 32.5651 17.2406 32.3051 16.6086 31.9904C15.2521 31.3164 14.0204 30.4033 12.9362 29.2722C5.90331 30.8173 0.639648 37.0839 0.639648 44.581V45.5609C0.639648 46.9079 1.73171 48 3.07877 48H40.922C42.2691 48 43.3612 46.9079 43.3612 45.5609V44.581C43.3611 38.7895 40.2197 33.732 35.5483 31.0182Z" fill="url(#paint0_linear_77_493)"/>
<path d="M10.3438 24.2448C11.3921 24.2448 12.3045 23.6638 12.7772 22.8063C12.7897 22.8403 12.8023 22.874 12.815 22.9077L12.8263 22.9381C13.9353 25.8572 16.0931 28.3042 18.9384 29.3734C19.6266 28.28 20.8434 27.5528 22.2309 27.5528H27.0989C27.5844 27.5528 28.0364 27.4158 28.4326 27.1943C29.0979 26.8222 29.6963 25.8784 30.0053 25.3781C30.4997 24.5775 30.8829 23.7294 31.2225 22.8049C31.4131 23.1507 31.6748 23.4522 31.9905 23.6894V24.8831C31.9905 27.5804 29.7961 29.7748 27.0988 29.7748H22.2308C21.3105 29.7748 20.5644 30.5209 20.5644 31.4412C20.5644 32.3616 21.3105 33.1076 22.2308 33.1076H27.0988C31.6338 33.1076 35.3232 29.4181 35.3232 24.8831V23.6894C35.9978 23.1827 36.4342 22.3761 36.4342 21.4675V14.516C36.4342 13.5887 35.9794 12.7682 35.2812 12.2638C34.7396 5.41079 28.9901 0 22.0003 0C15.0104 0 9.26099 5.41079 8.71945 12.2637C8.02117 12.7681 7.56641 13.5887 7.56641 14.5159V21.4673C7.56641 23.0056 8.81604 24.2448 10.3438 24.2448ZM22.0003 3.33288C27.1747 3.33288 31.4426 7.28717 31.9414 12.3326C31.612 12.5914 31.3452 12.9211 31.1608 13.2972C29.5884 9.19488 26.0783 6.3387 22.0002 6.3387C17.8341 6.3387 14.3803 9.29304 12.8457 13.2809L12.8396 13.2974C12.6552 12.9212 12.3884 12.5915 12.059 12.3327C12.5581 7.28717 16.8259 3.33288 22.0003 3.33288Z" fill="url(#paint1_linear_77_493)"/>
<defs>
<linearGradient id="paint0_linear_77_493" x1="43.3612" y1="29.2722" x2="29.5885" y2="60.6903" gradientUnits="userSpaceOnUse">
<stop stop-color="#F19722"/>
<stop offset="1" stop-color="#BB6F0C"/>
</linearGradient>
<linearGradient id="paint1_linear_77_493" x1="36.4342" y1="-1.97337e-06" x2="3.63507" y2="28.5988" gradientUnits="userSpaceOnUse">
<stop stop-color="#F19722"/>
<stop offset="1" stop-color="#BB6F0C"/>
</linearGradient>
</defs>
</svg>
