<svg width="32" height="32" viewBox="0 0 32 32" fill="none" xmlns="http://www.w3.org/2000/svg">
<g clip-path="url(#clip0_40_1742)">
<path d="M26.9578 10.0801L19.2413 17.7966C18.3809 18.6548 17.2153 19.1368 16 19.1368C14.7847 19.1368 13.6191 18.6548 12.7587 17.7966L5.04217 10.0801C5.02933 10.2249 5 10.356 5 10.4999V21.4999C5.00146 22.715 5.48481 23.88 6.34403 24.7392C7.20326 25.5984 8.3682 26.0818 9.58333 26.0832H22.4167C23.6318 26.0818 24.7967 25.5984 25.656 24.7392C26.5152 23.88 26.9985 22.715 27 21.4999V10.4999C27 10.356 26.9707 10.2249 26.9578 10.0801Z" fill="#8F6DAC"/>
<path d="M17.9452 16.5006L26.318 8.12683C25.9124 7.45429 25.3403 6.89762 24.657 6.5105C23.9736 6.12339 23.2021 5.91889 22.4167 5.91675H9.58334C8.79796 5.91889 8.02638 6.12339 7.34303 6.5105C6.65968 6.89762 6.08761 7.45429 5.68201 8.12683L14.0548 16.5006C14.5714 17.0151 15.2709 17.304 16 17.304C16.7291 17.304 17.4286 17.0151 17.9452 16.5006Z" fill="#8F6DAC"/>
</g>
<defs>
<clipPath id="clip0_40_1742">
<rect width="22" height="22" fill="white" transform="translate(5 5)"/>
</clipPath>
</defs>
</svg>
