<svg width="102" height="101" viewBox="0 0 102 101" fill="none" xmlns="http://www.w3.org/2000/svg">
<rect x="2.375" y="6.5" width="93" height="93" rx="30.5" stroke="#8F6DAC" stroke-width="3" stroke-dasharray="8 8"/>
<rect x="5.125" width="96" height="96" rx="32" fill="url(#paint0_linear_21_230)"/>
<path d="M64.4954 40.2291V61.8347C63.6003 61.6442 63.2971 61.6875 59.8069 61.6875V46.5122C59.8069 45.7359 59.1779 45.1059 58.4007 45.1059C57.6244 45.1059 56.9944 45.7359 56.9944 46.5122V61.6875H54.1819V46.5122C54.1819 45.7359 53.5529 45.1059 52.7757 45.1059C51.9994 45.1059 51.3694 45.7359 51.3694 46.5122V61.6875H48.5569V46.5122C48.5569 45.7359 47.9279 45.1059 47.1507 45.1059C46.3744 45.1059 45.7444 45.7359 45.7444 46.5122V61.6875C42.2083 61.6875 41.937 61.6484 41.0569 61.8309V40.2291H64.4954ZM66.9814 68.34V70.5938C66.9814 71.37 66.3514 72 65.5752 72H39.9768C39.2005 72 38.5705 71.37 38.5705 70.5938V68.34C38.5705 66.1866 40.2805 64.5 42.4639 64.5H63.0889C65.2349 64.5 66.9814 66.2231 66.9814 68.34ZM66.5598 24H39.6902C35.9936 24 32.9814 26.9932 32.9814 30.7078C32.9814 34.4137 35.9852 37.4166 39.6902 37.4166C41.0104 37.4166 40.563 37.4172 41.6477 37.4137C42.702 37.4101 43.9323 36.666 43.9323 34.8572C43.9323 33.0731 42.2636 31.7213 40.487 32.1441C39.7314 32.3259 38.972 31.8609 38.7902 31.1063C38.6092 30.3506 39.0742 29.5912 39.8289 29.4103C43.3577 28.5609 46.7448 31.2469 46.7448 34.8572C46.7448 35.7524 46.5332 36.6247 46.127 37.4119C46.127 37.4137 46.1261 37.4156 46.1242 37.4166H59.7667C59.7659 37.4161 59.7651 37.4155 59.7646 37.4146C59.7641 37.4138 59.7639 37.4128 59.7639 37.4119C59.3584 36.626 59.1461 35.7539 59.1461 34.8572C59.1461 31.2469 62.5333 28.5609 66.062 29.4103C66.8167 29.5912 67.2817 30.3506 67.1008 31.1063C66.9189 31.8609 66.1595 32.3259 65.4039 32.1441C63.6273 31.7213 61.9586 33.0731 61.9586 34.8572C61.9586 36.8212 63.336 37.4137 64.2433 37.4137C65.3551 37.4173 64.8405 37.4166 66.5598 37.4166C68.4123 37.4166 70.0895 36.6656 71.3036 35.4516C72.5177 34.2384 73.2686 32.5603 73.2686 30.7078C73.2686 27.0098 70.2715 24 66.5598 24Z" fill="url(#paint1_linear_21_230)"/>
<defs>
<linearGradient id="paint0_linear_21_230" x1="101.5" y1="-2.84993e-06" x2="4.75" y2="96" gradientUnits="userSpaceOnUse">
<stop stop-color="white"/>
<stop offset="1" stop-color="#E9D5FF"/>
</linearGradient>
<linearGradient id="paint1_linear_21_230" x1="73.2686" y1="24" x2="25.9957" y2="63.6769" gradientUnits="userSpaceOnUse">
<stop stop-color="#8F6DAC"/>
<stop offset="1" stop-color="#684A82"/>
</linearGradient>
</defs>
</svg>
