<svg width="48" height="48" viewBox="0 0 48 48" fill="none" xmlns="http://www.w3.org/2000/svg">
<g clip-path="url(#clip0_73_4296)">
<rect width="48" height="48" rx="24" fill="#F93939"/>
<path d="M51.2 0H-3.19998C-6.7346 0 -9.59998 2.86538 -9.59998 6.4V41.6C-9.59998 45.1346 -6.7346 48 -3.19998 48H51.2C54.7346 48 57.6 45.1346 57.6 41.6V6.4C57.6 2.86538 54.7346 0 51.2 0Z" fill="#F93939"/>
<path fill-rule="evenodd" clip-rule="evenodd" d="M-9.59998 0H57.6V25.6H-9.59998V0Z" fill="#1A47B8"/>
<path fill-rule="evenodd" clip-rule="evenodd" d="M-9.59998 0V48.1056L22.4 24L-9.59998 0Z" fill="white"/>
<path fill-rule="evenodd" clip-rule="evenodd" d="M4.75199 25.552C7.53599 25.376 9.59999 24.752 9.59999 24C9.59999 23.2512 7.53599 22.624 4.75199 22.448C4.57599 19.664 3.95199 17.6 3.19999 17.6C2.45119 17.6 1.82399 19.664 1.64799 22.448C-1.13601 22.624 -3.20001 23.248 -3.20001 24C-3.20001 24.7488 -1.13601 25.376 1.64799 25.552C1.82079 28.336 2.44799 30.4 3.19999 30.4C3.94879 30.4 4.57599 28.336 4.75199 25.552Z" fill="#FFDA2C"/>
<path d="M14.4 25.6C15.2836 25.6 16 24.8837 16 24C16 23.1164 15.2836 22.4 14.4 22.4C13.5163 22.4 12.8 23.1164 12.8 24C12.8 24.8837 13.5163 25.6 14.4 25.6Z" fill="#FFDA2C"/>
</g>
<defs>
<clipPath id="clip0_73_4296">
<rect width="48" height="48" rx="24" fill="white"/>
</clipPath>
</defs>
</svg>
