<svg width="83" height="82" viewBox="0 0 83 82" fill="none" xmlns="http://www.w3.org/2000/svg">
<path d="M77.2198 52.0256C76.7213 47.8665 75.0567 43.9332 72.4182 40.6798C69.7798 37.4264 66.275 34.9855 62.3085 33.639C58.342 32.2924 54.0756 32.0951 50.0017 33.0698C45.9279 34.0444 42.2127 36.1514 39.2852 39.1474C36.3577 42.1433 34.3371 45.9062 33.4569 50.0015C32.5766 54.0967 32.8725 58.3575 34.3103 62.2918C35.7482 66.2261 38.2694 69.6735 41.5829 72.2361C44.8965 74.7987 48.8672 76.372 53.0366 76.7742C53.7387 76.8391 54.4426 76.8733 55.143 76.8733C58.423 76.8758 61.6631 76.153 64.6311 74.7567C65.0238 74.5581 65.4742 74.5054 65.9021 74.608L71.1347 76.0584C71.6997 76.2154 72.2956 76.2244 72.8651 76.0844C73.4345 75.9444 73.9584 75.6602 74.3862 75.2592C74.814 74.8581 75.1314 74.3537 75.3078 73.7945C75.4843 73.2352 75.5138 72.64 75.3936 72.066L74.2866 66.8129C74.2091 66.3704 74.294 65.9148 74.5257 65.53C76.8384 61.4301 77.7822 56.6991 77.2198 52.0256Z" fill="#40596B"/>
<path d="M63.7096 64.9167C63.3907 64.9184 63.0777 64.8308 62.806 64.6639C62.5342 64.4969 62.3147 64.2572 62.1721 63.972L55.168 49.9448L48.1638 63.972C47.9613 64.3775 47.6059 64.6859 47.176 64.8294C46.7461 64.973 46.2767 64.9398 45.8712 64.7373C45.4657 64.5348 45.1573 64.1794 45.0137 63.7495C44.8702 63.3196 44.9033 62.8502 45.1059 62.4447L53.6475 45.3614C53.8054 45.0966 54.0293 44.8774 54.2973 44.7252C54.5653 44.5729 54.8683 44.4929 55.1765 44.4929C55.4847 44.4929 55.7877 44.5729 56.0557 44.7252C56.3237 44.8774 56.5476 45.0966 56.7055 45.3614L65.2471 62.4447C65.3776 62.7059 65.439 62.9961 65.4255 63.2878C65.4119 63.5794 65.3238 63.8627 65.1696 64.1106C65.0154 64.3585 64.8002 64.5628 64.5447 64.7039C64.2891 64.845 64.0016 64.9183 63.7096 64.9167Z" fill="white"/>
<path d="M49.1524 60.0513C48.6993 60.0556 48.2631 59.8798 47.9396 59.5625C47.6162 59.2451 47.4321 58.8123 47.4278 58.3592C47.4235 57.9062 47.5994 57.4699 47.9167 57.1465C48.234 56.8231 48.6668 56.639 49.1199 56.6347L61.1517 56.4109C61.6048 56.4025 62.0426 56.5744 62.3689 56.8889C62.6952 57.2033 62.8833 57.6345 62.8916 58.0876C62.9 58.5407 62.7281 58.9785 62.4136 59.3048C62.0992 59.6311 61.668 59.8192 61.2149 59.8275L49.1831 60.0513H49.1524Z" fill="white"/>
<path d="M46.472 12.148C43.8897 9.55545 40.7462 7.59098 37.2842 6.40617C33.8222 5.22136 30.1342 4.8479 26.505 5.31462C22.6102 5.81152 18.8977 7.26021 15.6958 9.53267C12.4938 11.8051 9.90094 14.8314 8.14635 18.3439C6.39176 21.8565 5.52948 25.7472 5.6357 29.6721C5.74193 33.5971 6.8134 37.4355 8.75541 40.848C8.98779 41.2288 9.07228 41.6817 8.99287 42.1207L7.72529 48.1494C7.60497 48.7231 7.63429 49.3181 7.81042 49.8772C7.98655 50.4363 8.30357 50.9407 8.73099 51.3419C9.15841 51.743 9.68185 52.0275 10.251 52.1679C10.8201 52.3083 11.4158 52.2999 11.9807 52.1435L17.9719 50.4795C18.4025 50.3733 18.8571 50.4267 19.2514 50.6299C22.4689 52.167 25.9903 52.9627 29.5561 52.9583C30.7653 52.9578 31.9729 52.8687 33.1692 52.6918C37.5386 52.0232 41.6372 50.1567 45.01 47.2996C48.3828 44.4425 50.8978 40.7066 52.2759 36.5066C53.6539 32.3066 53.8411 27.8069 52.8166 23.507C51.792 19.2071 49.5959 15.2753 46.472 12.148Z" fill="#54C0EB"/>
<path d="M29.543 39.2917C27.5157 39.2917 25.534 38.6905 23.8484 37.5642C22.1628 36.4379 20.849 34.8371 20.0732 32.9642C19.2974 31.0912 19.0944 29.0303 19.4899 27.042C19.8854 25.0537 20.8616 23.2273 22.2951 21.7938C23.7286 20.3603 25.555 19.3841 27.5433 18.9886C29.5316 18.5931 31.5925 18.7961 33.4655 19.5719C35.3384 20.3477 36.9393 21.6615 38.0655 23.3471C39.1918 25.0327 39.793 27.0144 39.793 29.0417C39.7903 31.7593 38.7095 34.3648 36.7878 36.2865C34.8662 38.2082 32.2606 39.2889 29.543 39.2917ZM29.543 22.2083C28.1915 22.2083 26.8703 22.6091 25.7466 23.36C24.6228 24.1108 23.747 25.178 23.2298 26.4267C22.7126 27.6753 22.5773 29.0492 22.8409 30.3748C23.1046 31.7003 23.7554 32.9179 24.7111 33.8736C25.6667 34.8292 26.8843 35.48 28.2099 35.7437C29.5354 36.0074 30.9093 35.872 32.158 35.3548C33.4066 34.8376 34.4738 33.9618 35.2247 32.8381C35.9755 31.7143 36.3763 30.3932 36.3763 29.0417C36.3763 27.2293 35.6564 25.4913 34.3749 24.2098C33.0934 22.9283 31.3553 22.2083 29.543 22.2083Z" fill="white"/>
<path d="M38.0851 41C37.6321 40.9999 37.1976 40.8198 36.8773 40.4994L30.044 33.6661C29.7328 33.3439 29.5606 32.9124 29.5645 32.4645C29.5684 32.0166 29.7481 31.5881 30.0648 31.2713C30.3816 30.9546 30.81 30.7749 31.2579 30.771C31.7059 30.7672 32.1374 30.9393 32.4596 31.2505L39.2929 38.0839C39.5318 38.3228 39.6944 38.6271 39.7603 38.9585C39.8262 39.2898 39.7923 39.6332 39.6631 39.9454C39.5338 40.2575 39.3149 40.5242 39.034 40.712C38.7532 40.8997 38.423 40.9999 38.0851 41Z" fill="white"/>
</svg>
