<svg width="49" height="48" viewBox="0 0 49 48" fill="none" xmlns="http://www.w3.org/2000/svg">
<path d="M24.5 0C11.2664 0 0.5 10.7664 0.5 24C0.5 37.2336 11.2664 48 24.5 48C37.7336 48 48.5 37.2336 48.5 24C48.5 10.7664 37.7337 0 24.5 0ZM20.7785 34.0052C19.3769 35.324 17.6216 35.983 15.5124 35.983C13.6335 35.983 11.9685 35.1261 10.5183 33.4118C9.10069 31.797 8.39218 30.0494 8.39218 28.1703C8.39218 22.6636 12.1881 17.3414 19.7808 12.2028C20.0509 12.02 20.729 11.8591 21.1256 12.2996L21.8575 13.2201C22.2114 13.8186 21.7827 14.3737 21.5052 14.6039C20.1858 15.6983 19.2264 16.545 18.6277 17.1438C17.4537 18.3785 16.5859 19.6143 16.0129 20.8465C15.8818 21.1282 16.2163 21.307 16.39 21.3638C20.7164 22.7818 22.8803 25.2815 22.8803 28.8626C22.8799 30.9727 22.1792 32.687 20.7785 34.0052ZM37.2442 34.0052C35.8427 35.324 34.0873 35.983 31.9782 35.983C30.0993 35.983 28.4343 35.1261 26.9841 33.4118C25.5665 31.797 24.858 30.0494 24.858 28.1703C24.858 22.6636 28.6539 17.3414 36.2466 12.2028C36.5167 12.02 37.1947 11.8591 37.5914 12.2996L38.3233 13.2201C38.6772 13.8186 38.2485 14.3737 37.971 14.6039C36.6516 15.6983 35.6922 16.545 35.0935 17.1438C33.9195 18.3785 33.0517 19.6143 32.4787 20.8465C32.3476 21.1282 32.6821 21.307 32.8558 21.3638C37.1822 22.7818 39.3461 25.2815 39.3461 28.8626C39.3456 30.9727 38.645 32.687 37.2442 34.0052Z" fill="url(#paint0_linear_77_354)"/>
<defs>
<linearGradient id="paint0_linear_77_354" x1="48.5" y1="-2.86102e-06" x2="0.500003" y2="48" gradientUnits="userSpaceOnUse">
<stop stop-color="#F19722"/>
<stop offset="1" stop-color="#BB6F0C"/>
</linearGradient>
</defs>
</svg>
