<svg width="56" height="52" viewBox="0 0 56 52" fill="none" xmlns="http://www.w3.org/2000/svg">
<path d="M28 0C4.26 0.62 4.26 35.38 28 36C51.74 35.38 51.74 0.62 28 0ZM32 24C30.72 24.24 27.48 20 26.58 19.42C25.68 18.84 26.2 8.96 26 8C26 7.46957 26.2107 6.96086 26.5858 6.58579C26.9609 6.21071 27.4696 6 28 6C28.5304 6 29.0391 6.21071 29.4142 6.58579C29.7893 6.96086 30 7.46957 30 8V17.18L33.42 20.58C33.7021 20.8597 33.8944 21.2171 33.9726 21.6066C34.0507 21.9961 34.0111 22.4001 33.8587 22.767C33.7064 23.1339 33.4483 23.4471 33.1172 23.6667C32.7862 23.8863 32.3972 24.0023 32 24ZM54 48C53.2208 48.0508 52.4392 48.0508 51.66 48C51.2436 49.1651 50.4772 50.173 49.4657 50.8856C48.4543 51.5982 47.2473 51.9807 46.01 51.9807C44.7727 51.9807 43.5657 51.5982 42.5543 50.8856C41.5428 50.173 40.7764 49.1651 40.36 48H33.64C33.2196 49.1583 32.4527 50.1591 31.4437 50.8663C30.4346 51.5736 29.2322 51.953 28 51.953C26.7678 51.953 25.5654 51.5736 24.5563 50.8663C23.5473 50.1591 22.7804 49.1583 22.36 48H15.64C15.2196 49.1583 14.4527 50.1591 13.4437 50.8663C12.4346 51.5736 11.2322 51.953 10 51.953C8.76776 51.953 7.5654 51.5736 6.55633 50.8663C5.54726 50.1591 4.78041 49.1583 4.36 48C2.76 48 0 48.36 0 46C0 43.64 2.76 44 4.36 44C4.78041 42.8417 5.54726 41.8409 6.55633 41.1337C7.5654 40.4264 8.76776 40.047 10 40.047C11.2322 40.047 12.4346 40.4264 13.4437 41.1337C14.4527 41.8409 15.2196 42.8417 15.64 44H22.36C22.7804 42.8417 23.5473 41.8409 24.5563 41.1337C25.5654 40.4264 26.7678 40.047 28 40.047C29.2322 40.047 30.4346 40.4264 31.4437 41.1337C32.4527 41.8409 33.2196 42.8417 33.64 44H40.36C40.7764 42.8349 41.5428 41.827 42.5543 41.1144C43.5657 40.4018 44.7727 40.0193 46.01 40.0193C47.2473 40.0193 48.4543 40.4018 49.4657 41.1144C50.4772 41.827 51.2436 42.8349 51.66 44C52.4395 43.9593 53.2205 43.9593 54 44C54.5304 44 55.0391 44.2107 55.4142 44.5858C55.7893 44.9609 56 45.4696 56 46C56 46.5304 55.7893 47.0391 55.4142 47.4142C55.0391 47.7893 54.5304 48 54 48Z" fill="url(#paint0_linear_77_514)"/>
<defs>
<linearGradient id="paint0_linear_77_514" x1="56" y1="-3.09829e-06" x2="4.16313" y2="55.845" gradientUnits="userSpaceOnUse">
<stop stop-color="#F19722"/>
<stop offset="1" stop-color="#BB6F0C"/>
</linearGradient>
</defs>
</svg>
