<svg width="48" height="48" viewBox="0 0 48 48" fill="none" xmlns="http://www.w3.org/2000/svg">
<path d="M45.6 2.4H38.4V0H9.6V2.4H2.4C0.96 2.4 0 3.36 0 4.8V10.56C0 16.08 4.08 20.64 9.6 21.36V21.6C9.6 28.56 14.4 34.32 20.88 35.76L19.2 40.8H13.68C12.72 40.8 11.76 41.52 11.52 42.48L9.6 48H38.4L36.48 42.48C36.24 41.52 35.28 40.8 34.32 40.8H28.8L27.12 35.76C33.6 34.32 38.4 28.56 38.4 21.6V21.36C43.92 20.64 48 16.08 48 10.56V4.8C48 3.36 47.04 2.4 45.6 2.4ZM9.6 16.56C6.96 15.84 4.8 13.44 4.8 10.56V7.2H9.6V16.56ZM28.8 24L24 21.36L19.2 24L20.4 19.2L16.8 14.4H21.84L24 9.6L26.16 14.4H31.2L27.6 19.2L28.8 24ZM43.2 10.56C43.2 13.44 41.04 16.08 38.4 16.56V7.2H43.2V10.56Z" fill="url(#paint0_linear_77_431)"/>
<defs>
<linearGradient id="paint0_linear_77_431" x1="48" y1="-2.86102e-06" x2="2.86102e-06" y2="48" gradientUnits="userSpaceOnUse">
<stop stop-color="#F19722"/>
<stop offset="1" stop-color="#BB6F0C"/>
</linearGradient>
</defs>
</svg>
