<svg width="102" height="101" viewBox="0 0 102 101" fill="none" xmlns="http://www.w3.org/2000/svg">
<rect x="6.75" y="6.5" width="93" height="93" rx="30.5" stroke="#488589" stroke-width="3" stroke-dasharray="8 8"/>
<rect x="0.75" width="96" height="96" rx="32" fill="url(#paint0_linear_21_288)"/>
<g clip-path="url(#clip0_21_288)">
<path d="M43.125 72C47.2727 72 50.484 71.6031 53.06 70.7916C53.0054 70.4985 52.9688 70.1991 52.9688 69.8906C52.9688 68.513 53.5416 67.2694 54.457 66.375C53.5415 65.4806 52.9688 64.237 52.9688 62.8594C52.9688 61.4817 53.5416 60.2381 54.457 59.3438C53.5415 58.4494 52.9688 57.2058 52.9688 55.8281C52.9688 54.4505 53.5416 53.2069 54.457 52.3125C53.5415 51.4181 52.9688 50.1745 52.9688 48.7969C52.9688 47.1694 53.7722 45.735 54.9936 44.8385C54.164 44.0792 53.2716 43.3914 52.3261 42.7825C52.7069 42.3028 52.9688 41.7225 52.9688 41.0625C52.9688 39.5091 51.7097 38.25 50.1562 38.25H36.0938C34.5403 38.25 33.2812 39.5091 33.2812 41.0625C33.2812 41.7209 33.5423 42.2995 33.921 42.7786C28.4616 46.2956 24.75 52.6644 24.75 59.3438C24.75 70.6886 35.2767 72 43.125 72ZM43.11 58.3495C40.7834 58.3495 38.8912 56.4573 38.8912 54.1308C38.8912 52.2942 40.0778 50.7447 41.7188 50.1665V48.0938C41.7188 47.3166 42.3478 46.6875 43.125 46.6875C43.9022 46.6875 44.5312 47.3166 44.5312 48.0938V50.1759C46.1569 50.7623 47.3288 52.3056 47.3288 54.1308C47.3288 54.9082 46.6996 55.537 45.9225 55.537C45.145 55.537 44.5163 54.9082 44.5163 54.1308C44.5163 53.3547 43.8856 52.7245 43.11 52.7245C42.3339 52.7245 41.7038 53.3547 41.7038 54.1308C41.7038 54.9067 42.3339 55.537 43.11 55.537C45.4361 55.537 47.3288 57.4296 47.3288 59.7558C47.3288 61.5809 46.1569 63.1242 44.5312 63.7108V64.9688C44.5312 65.7459 43.9022 66.375 43.125 66.375C42.3478 66.375 41.7188 65.7459 41.7188 64.9688V63.72C40.0778 63.1421 38.8912 61.5923 38.8912 59.7558C38.8912 58.9786 39.52 58.3495 40.2975 58.3495C41.0746 58.3495 41.7038 58.9786 41.7038 59.7558C41.7038 60.5317 42.3339 61.162 43.11 61.162C43.8856 61.162 44.5163 60.5317 44.5163 59.7558C44.5163 58.9797 43.8856 58.3495 43.11 58.3495ZM70.6406 67.7812H57.8906C56.7257 67.7812 55.7812 68.7257 55.7812 69.8906C55.7812 71.0556 56.7257 72 57.8906 72H70.6406C71.8056 72 72.75 71.0556 72.75 69.8906C72.75 68.7257 71.8056 67.7812 70.6406 67.7812ZM70.6406 60.75H57.8906C56.7257 60.75 55.7812 61.6944 55.7812 62.8594C55.7812 64.0243 56.7257 64.9688 57.8906 64.9688H70.6406C71.8056 64.9688 72.75 64.0243 72.75 62.8594C72.75 61.6944 71.8056 60.75 70.6406 60.75ZM70.6406 53.7188H57.8906C56.7257 53.7188 55.7812 54.6632 55.7812 55.8281C55.7812 56.9931 56.7257 57.9375 57.8906 57.9375H70.6406C71.8056 57.9375 72.75 56.9931 72.75 55.8281C72.75 54.6632 71.8056 53.7188 70.6406 53.7188ZM70.6406 46.6875H57.8906C56.7257 46.6875 55.7812 47.6319 55.7812 48.7969C55.7812 49.9618 56.7257 50.9062 57.8906 50.9062H70.6406C71.8056 50.9062 72.75 49.9618 72.75 48.7969C72.75 47.6319 71.8056 46.6875 70.6406 46.6875ZM47.0848 26.8125C46.5022 25.1792 44.956 24 43.125 24C41.2917 24 39.7277 25.1756 39.1464 26.8125H34.6875C34.4646 26.8123 34.2449 26.8651 34.0464 26.9667C33.848 27.0682 33.6766 27.2154 33.5463 27.3963C33.416 27.5772 33.3306 27.7864 33.2972 28.0068C33.2638 28.2272 33.2833 28.4523 33.3541 28.6637L35.5495 35.4375H50.7009L52.896 28.6637C52.9668 28.4523 52.9863 28.2272 52.9529 28.0068C52.9194 27.7864 52.8341 27.5771 52.7038 27.3963C52.5735 27.2154 52.4021 27.0681 52.2036 26.9666C52.0052 26.8651 51.7854 26.8123 51.5625 26.8125H47.0848Z" fill="url(#paint1_linear_21_288)"/>
</g>
<defs>
<linearGradient id="paint0_linear_21_288" x1="97.125" y1="0" x2="1.125" y2="96" gradientUnits="userSpaceOnUse">
<stop stop-color="white"/>
<stop offset="1" stop-color="#C7D2FE"/>
</linearGradient>
<linearGradient id="paint1_linear_21_288" x1="72.75" y1="24" x2="24.75" y2="72" gradientUnits="userSpaceOnUse">
<stop stop-color="#488589"/>
<stop offset="1" stop-color="#2E5457"/>
</linearGradient>
<clipPath id="clip0_21_288">
<rect width="48" height="48" fill="white" transform="translate(24.75 24)"/>
</clipPath>
</defs>
</svg>
