<svg width="25" height="25" viewBox="0 0 25 25" fill="none" xmlns="http://www.w3.org/2000/svg">
<path fill-rule="evenodd" clip-rule="evenodd" d="M9.16913 23.1533C9.16909 23.3404 9.12443 23.5246 9.03913 23.6895C8.95383 23.8543 8.83055 23.9946 8.68031 24.0978C8.53008 24.201 8.35757 24.264 8.17821 24.281C7.99885 24.298 7.81823 24.2685 7.65251 24.1952C5.12207 23.0545 3.04708 21.0426 1.77678 18.4984C0.506487 15.9541 0.118443 13.0327 0.677966 10.226C1.23749 7.41929 2.71042 4.89855 4.84883 3.08807C6.98725 1.2776 9.66059 0.287934 12.4189 0.285648C15.1772 0.283363 17.8521 1.2686 19.9933 3.07553C22.1344 4.88245 23.6112 7.40075 24.1751 10.2065C24.7389 13.0123 24.3553 15.9343 23.0889 18.4807C21.8226 21.0271 19.7507 23.0423 17.222 24.1873C17.0575 24.26 16.8783 24.2893 16.7003 24.2724C16.5224 24.2555 16.3512 24.1931 16.2021 24.0907C16.0531 23.9882 15.9308 23.849 15.8462 23.6854C15.7616 23.5218 15.7173 23.339 15.7173 23.1533C15.7086 21.8162 15.7086 20.123 15.7086 20.123C15.7087 19.6768 15.6241 19.2349 15.4599 18.8226C15.2956 18.4104 15.0547 18.0357 14.7511 17.7202C14.6828 17.6496 14.612 17.5824 14.5386 17.5186C14.5194 17.5016 14.5056 17.4789 14.4991 17.4536C14.4926 17.4282 14.4938 17.4015 14.5024 17.3768C14.511 17.3521 14.5266 17.3308 14.5472 17.3157C14.5678 17.3005 14.5924 17.2923 14.6176 17.2921L14.6187 17.2915C15.3344 17.2915 16.043 17.145 16.7042 16.8604C17.3653 16.5758 17.9661 16.1587 18.4721 15.6328C18.9782 15.107 19.3796 14.4827 19.6535 13.7956C19.9273 13.1086 20.0683 12.3722 20.0683 11.6285C20.0702 10.3991 19.6854 9.20274 18.9724 8.22166C19.1579 7.36019 19.1399 6.46486 18.9201 5.61216L18.8274 5.25256C18.8089 5.18072 18.7769 5.11337 18.7333 5.05437C18.6898 4.99536 18.6354 4.94586 18.5734 4.90868C18.5115 4.8715 18.443 4.84738 18.3721 4.83768C18.3011 4.82799 18.229 4.83292 18.1598 4.85219L17.8138 4.94846C17.05 5.16116 16.3422 5.55002 15.743 6.08615C15.3732 6.00571 14.9965 5.96529 14.6187 5.96553H10.259C9.88129 5.96529 9.50453 6.00571 9.13479 6.08615C8.53556 5.55002 7.82774 5.16116 7.06395 4.94846L6.7179 4.85219C6.57836 4.81344 6.42972 4.83385 6.30465 4.90892C6.17957 4.98399 6.0883 5.10759 6.05087 5.25256L5.95823 5.61216C5.73835 6.46486 5.7204 7.36019 5.90591 8.22166C5.19274 9.20267 4.80771 10.399 4.80946 11.6285C4.80946 13.1304 5.38361 14.5708 6.4056 15.6328C7.4276 16.6949 8.81372 17.2915 10.259 17.2915H10.2601C10.2853 17.2918 10.3098 17.3002 10.3303 17.3153C10.3508 17.3305 10.3664 17.3519 10.3749 17.3765C10.3835 17.4011 10.3845 17.4279 10.3781 17.4532C10.3716 17.4784 10.3578 17.5011 10.3386 17.518C10.2659 17.5822 10.1953 17.6496 10.1266 17.7202C9.6466 18.2191 9.32795 18.861 9.2149 19.5567H8.62417C8.11655 19.5567 7.61591 19.4339 7.16189 19.198C6.70787 18.9621 6.31293 18.6196 6.00837 18.1976C5.80538 17.9162 5.5421 17.6878 5.23941 17.5305C4.93671 17.3732 4.60292 17.2914 4.2645 17.2915C4.11997 17.2915 3.98136 17.3512 3.87916 17.4574C3.77696 17.5636 3.71954 17.7076 3.71954 17.8578C3.71954 18.008 3.77696 18.152 3.87916 18.2582C3.98136 18.3644 4.11997 18.4241 4.2645 18.4241C4.43064 18.4241 4.59395 18.4688 4.73853 18.5539C4.88312 18.6389 5.00405 18.7614 5.08957 18.9094L5.17404 19.0561C5.56143 19.727 6.10943 20.2822 6.76467 20.6677C7.41991 21.0532 8.16005 21.2557 8.913 21.2556H9.16913V23.1533Z" fill="#A78BFA"/>
</svg>
