<svg width="48" height="36" viewBox="0 0 48 36" fill="none" xmlns="http://www.w3.org/2000/svg">
<path d="M43.5812 19.2097L47.0981 19.2097C47.3707 19.2097 47.6165 19.0454 47.7208 18.7936C47.8142 18.5681 47.7784 18.3097 47.6272 18.1181L47.0371 17.3702C46.6173 16.8381 45.984 16.5184 45.3066 16.4965L43.6259 16.4422C43.1826 16.4279 42.7594 16.6269 42.4875 16.9773C41.7821 17.8867 42.4302 19.2097 43.5812 19.2097Z" fill="#AFA8E9"/>
<path fill-rule="evenodd" clip-rule="evenodd" d="M31.6932 17.7078C31.4505 18.0235 31.3957 18.418 31.4237 18.6696L31.428 18.7083L31.428 32.023C31.428 32.4118 31.1128 32.727 30.724 32.727C30.3352 32.727 30.02 32.4118 30.02 32.023L30.02 18.7827C29.9708 18.2525 30.0803 17.4957 30.5768 16.8497C31.1112 16.1545 32.0111 15.6936 33.3337 15.6936L44.702 15.6936L44.7178 15.6943C45.2461 15.7181 46.0305 15.8841 46.7054 16.3301C47.4118 16.797 47.9999 17.5794 47.9999 18.7473C47.9999 19.1361 47.6847 19.4513 47.2959 19.4513C46.9071 19.4513 46.5919 19.1361 46.5919 18.7473C46.5919 18.1294 46.3101 17.7566 45.9291 17.5048C45.5224 17.2361 45.0108 17.1196 44.6691 17.1016L33.3337 17.1016C32.3597 17.1016 31.9113 17.424 31.6932 17.7078Z" fill="#8A7FDF"/>
<path d="M35.5992 31.7256L26.7421 31.7256C25.6095 31.7256 24.9785 33.0346 25.6842 33.9206C25.9408 34.2428 26.3302 34.4305 26.7421 34.4305L35.5992 34.4305C36.5353 34.4305 37.1883 33.5025 36.8723 32.6214C36.6795 32.084 36.1701 31.7256 35.5992 31.7256Z" fill="#AFA8E9"/>
<path fill-rule="evenodd" clip-rule="evenodd" d="M41.4706 33.3651C41.7197 33.0271 41.7776 32.6015 41.7483 32.3258L41.7443 32.2886V18.4066C41.7443 18.0178 42.0595 17.7026 42.4483 17.7026C42.8371 17.7026 43.1523 18.0178 43.1523 18.4066V32.217C43.2009 32.757 43.095 33.5342 42.604 34.2004C42.0739 34.9196 41.1724 35.4056 39.8385 35.4056H28.4696L28.4531 35.4049C27.9199 35.3798 27.1318 35.2052 26.4555 34.7392C25.7473 34.2511 25.1724 33.444 25.1724 32.2513C25.1724 31.8624 25.4876 31.5473 25.8764 31.5473C26.2652 31.5473 26.5804 31.8624 26.5804 32.2513C26.5804 32.9208 26.8753 33.3185 27.2545 33.5798C27.6595 33.859 28.1671 33.979 28.504 33.9976H39.8385C40.8013 33.9976 41.2481 33.6669 41.4706 33.3651Z" fill="#8A7FDF"/>
<path fill-rule="evenodd" clip-rule="evenodd" d="M39.7086 34.7357C39.6898 35.1241 39.3597 35.4236 38.9714 35.4048C38.4469 35.3794 37.6751 35.2024 37.0139 34.732C36.3208 34.239 35.768 33.431 35.768 32.2462C35.768 31.8574 36.0832 31.5422 36.472 31.5422C36.8608 31.5422 37.176 31.8574 37.176 32.2462C37.176 32.9276 37.4676 33.3268 37.8301 33.5847C38.2245 33.8653 38.7195 33.983 39.0395 33.9985C39.4279 34.0173 39.7274 34.3474 39.7086 34.7357Z" fill="#8A7FDF"/>
<path fill-rule="evenodd" clip-rule="evenodd" d="M43.4071 17.65C43.1949 17.9473 43.1435 18.3269 43.169 18.5744L43.1727 18.6104L43.1727 31.3533C43.1727 31.7421 42.8575 32.0573 42.4687 32.0573C42.0799 32.0573 41.7647 31.7421 41.7647 31.3533L41.7647 18.6796C41.7214 18.1784 41.8161 17.4553 42.2611 16.832C42.7457 16.153 43.5733 15.6936 44.7885 15.6936C45.1773 15.6936 45.4925 16.0088 45.4925 16.3976C45.4925 16.7864 45.1773 17.1016 44.7885 17.1016C43.9623 17.1016 43.5913 17.3919 43.4071 17.65Z" fill="#8A7FDF"/>
<path fill-rule="evenodd" clip-rule="evenodd" d="M33.4777 21.1693C33.4777 20.7805 33.7929 20.4653 34.1817 20.4653L38.7619 20.4653C39.1507 20.4653 39.4659 20.7805 39.4659 21.1693C39.4659 21.5581 39.1507 21.8733 38.7619 21.8733L34.1817 21.8733C33.7929 21.8733 33.4777 21.5581 33.4777 21.1693Z" fill="#AFA8E9"/>
<path fill-rule="evenodd" clip-rule="evenodd" d="M33.4775 24.2981C33.4775 23.9093 33.7927 23.5941 34.1815 23.5941L38.7617 23.5941C39.1506 23.5941 39.4658 23.9093 39.4658 24.2981C39.4658 24.687 39.1506 25.0021 38.7617 25.0021L34.1815 25.0021C33.7927 25.0021 33.4775 24.687 33.4775 24.2981Z" fill="#AFA8E9"/>
<path fill-rule="evenodd" clip-rule="evenodd" d="M38.762 28.1311L34.1818 28.1311C33.7929 28.1311 33.4778 27.8159 33.4778 27.4271C33.4778 27.0383 33.7929 26.7231 34.1818 26.7231L38.762 26.7231C39.1508 26.7231 39.466 27.0383 39.466 27.4271C39.466 27.8159 39.1508 28.1311 38.762 28.1311Z" fill="#AFA8E9"/>
<path d="M6.39231 25.7756C6.67935 25.7756 6.91672 25.8766 7.1044 26.0786C7.30313 26.2688 7.40249 26.5183 7.40249 26.8272C7.40249 27.1243 7.30313 27.3739 7.1044 27.5759C6.91672 27.766 6.67935 27.8611 6.39231 27.8611H1.01018C0.723137 27.8611 0.480251 27.76 0.281527 27.558C0.0938424 27.3441 0 27.0827 0 26.7738V16.4714C0 16.1624 0.0993625 15.9069 0.298087 15.7049C0.496812 15.491 0.750737 15.3841 1.05986 15.3841C1.33587 15.3841 1.57324 15.491 1.77196 15.7049C1.97068 15.9069 2.07005 16.1624 2.07005 16.4714V25.7756H6.39231ZM11.0048 26.7738C11.0048 27.0827 10.9109 27.3441 10.7232 27.558C10.5356 27.76 10.2982 27.8611 10.0111 27.8611C9.7241 27.8611 9.48673 27.76 9.29905 27.558C9.11136 27.3441 9.01752 27.0827 9.01752 26.7738V19.4124C9.01752 19.1034 9.11136 18.8479 9.29905 18.6459C9.48673 18.432 9.7241 18.3251 10.0111 18.3251C10.2982 18.3251 10.5356 18.432 10.7232 18.6459C10.9109 18.8479 11.0048 19.1034 11.0048 19.4124V26.7738ZM9.99458 17.1665C9.61921 17.1665 9.35425 17.1011 9.19968 16.9704C9.04512 16.8397 8.96784 16.608 8.96784 16.2753V15.9366C8.96784 15.6039 9.05064 15.3722 9.21624 15.2415C9.38185 15.1108 9.64681 15.0454 10.0111 15.0454C10.3976 15.0454 10.668 15.1108 10.8226 15.2415C10.9772 15.3722 11.0544 15.6039 11.0544 15.9366V16.2753C11.0544 16.6199 10.9716 16.8575 10.806 16.9883C10.6515 17.1071 10.381 17.1665 9.99458 17.1665ZM12.5338 26.3816C12.4344 26.239 12.3847 26.0608 12.3847 25.8469C12.3847 25.538 12.5282 25.2765 12.8153 25.0626C12.9699 24.9557 13.1299 24.9022 13.2955 24.9022C13.5274 24.9022 13.7482 25.0151 13.958 25.2409C14.2892 25.6093 14.6314 25.8826 14.9847 26.0608C15.349 26.239 15.7851 26.3282 16.293 26.3282C17.1541 26.2925 17.5847 25.942 17.5847 25.2765C17.5847 24.9319 17.4356 24.6705 17.1375 24.4923C16.8505 24.314 16.3978 24.1358 15.7796 23.9575C15.1393 23.7674 14.6148 23.5773 14.2064 23.3872C13.8089 23.197 13.4611 22.9118 13.1631 22.5316C12.876 22.1395 12.7325 21.6166 12.7325 20.9631C12.7325 20.3927 12.8815 19.8995 13.1796 19.4836C13.4887 19.0559 13.8862 18.7291 14.372 18.5033C14.8688 18.2657 15.3932 18.1468 15.9452 18.1468C16.5083 18.1468 17.0713 18.2597 17.6344 18.4855C18.1974 18.7113 18.639 19.044 18.9592 19.4836C19.1027 19.6738 19.1745 19.8877 19.1745 20.1253C19.1745 20.3986 19.0696 20.6244 18.8598 20.8026C18.7053 20.9334 18.5286 20.9987 18.3299 20.9987C18.087 20.9987 17.8883 20.9155 17.7337 20.7492C17.535 20.4878 17.2755 20.2798 16.9554 20.1253C16.6463 19.9708 16.293 19.8936 15.8955 19.8936C15.0565 19.8936 14.6369 20.2204 14.6369 20.8739C14.6369 21.1354 14.7142 21.3493 14.8688 21.5156C15.0233 21.6701 15.2165 21.7949 15.4484 21.8899C15.6913 21.9731 16.028 22.0801 16.4586 22.2108C17.0547 22.389 17.5516 22.5732 17.949 22.7633C18.3465 22.9534 18.6832 23.2446 18.9592 23.6367C19.2352 24.0288 19.3732 24.5457 19.3732 25.1874C19.3732 25.7697 19.2131 26.2806 18.8929 26.7203C18.5728 27.1481 18.1588 27.4749 17.6509 27.7006C17.1541 27.9264 16.6407 28.0393 16.1108 28.0393C15.3821 28.0393 14.7032 27.9086 14.0739 27.6472C13.4446 27.3857 12.9312 26.9639 12.5338 26.3816ZM25.3088 25.8469C25.4634 25.8469 25.6014 25.9301 25.7228 26.0965C25.8553 26.2509 25.9215 26.4589 25.9215 26.7203C25.9215 27.0411 25.7559 27.3144 25.4247 27.5402C25.1045 27.7541 24.7402 27.8611 24.3317 27.8611C23.6472 27.8611 23.0676 27.7066 22.5929 27.3976C22.1292 27.0768 21.8974 26.4054 21.8974 25.3835V20.464H21.1356C20.8706 20.464 20.6498 20.3689 20.4732 20.1788C20.2965 19.9887 20.2082 19.751 20.2082 19.4658C20.2082 19.1925 20.2965 18.9667 20.4732 18.7885C20.6498 18.5984 20.8706 18.5033 21.1356 18.5033H21.8974V17.3626C21.8974 17.0536 21.9912 16.7981 22.1789 16.5961C22.3776 16.3822 22.6205 16.2753 22.9075 16.2753C23.1835 16.2753 23.4154 16.3822 23.6031 16.5961C23.7908 16.7981 23.8846 17.0536 23.8846 17.3626V18.5033H25.0604C25.3253 18.5033 25.5462 18.5984 25.7228 18.7885C25.8994 18.9786 25.9878 19.2163 25.9878 19.5015C25.9878 19.7748 25.8994 20.0065 25.7228 20.1966C25.5462 20.3749 25.3253 20.464 25.0604 20.464H23.8846V25.2944C23.8846 25.5439 23.9453 25.7281 24.0668 25.8469C24.1882 25.9539 24.3538 26.0073 24.5636 26.0073C24.6519 26.0073 24.7733 25.9836 24.9279 25.936C25.0604 25.8766 25.1873 25.8469 25.3088 25.8469Z" fill="#8A7FDF"/>
<path d="M9.09566 0.320837C9.36973 0.320837 9.59241 0.410896 9.7637 0.591015C9.93499 0.771134 10.0206 0.996282 10.0206 1.26646V11.1111C10.0206 11.4038 9.91786 11.6514 9.71231 11.8541C9.51818 12.0454 9.27266 12.1411 8.97575 12.1411C8.81588 12.1411 8.65601 12.1186 8.49613 12.0736C8.34768 12.0173 8.23919 11.9441 8.17068 11.8541L1.88422 3.98513V11.1955C1.88422 11.4657 1.79287 11.6908 1.61015 11.871C1.43886 12.0511 1.21047 12.1411 0.924982 12.1411C0.650913 12.1411 0.428232 12.0511 0.256939 11.871C0.0856464 11.6908 0 11.4657 0 11.1955V1.35089C0 1.0582 0.097066 0.816163 0.291198 0.624787C0.49675 0.422153 0.747979 0.320837 1.04489 0.320837C1.21618 0.320837 1.38176 0.354609 1.54164 0.422154C1.71293 0.489698 1.83854 0.579757 1.91848 0.692332L8.15355 8.5275V1.26646C8.15355 0.996282 8.23919 0.771134 8.41049 0.591015C8.5932 0.410896 8.82159 0.320837 9.09566 0.320837ZM14.3604 11.1111C14.3604 11.4038 14.2633 11.6514 14.0692 11.8541C13.8751 12.0454 13.6295 12.1411 13.3326 12.1411C13.0357 12.1411 12.7902 12.0454 12.5961 11.8541C12.4019 11.6514 12.3049 11.4038 12.3049 11.1111V4.1371C12.3049 3.84441 12.4019 3.60238 12.5961 3.411C12.7902 3.20837 13.0357 3.10705 13.3326 3.10705C13.6295 3.10705 13.8751 3.20837 14.0692 3.411C14.2633 3.60238 14.3604 3.84441 14.3604 4.1371V11.1111ZM13.3155 2.00945C12.9272 2.00945 12.6532 1.94753 12.4933 1.8237C12.3334 1.69987 12.2535 1.48035 12.2535 1.16514V0.844307C12.2535 0.529099 12.3391 0.309579 12.5104 0.185747C12.6817 0.0619158 12.9558 0 13.3326 0C13.7323 0 14.0121 0.0619158 14.172 0.185747C14.3318 0.309579 14.4118 0.529099 14.4118 0.844307V1.16514C14.4118 1.49161 14.3261 1.71676 14.1548 1.84059C13.995 1.95316 13.7152 2.00945 13.3155 2.00945ZM20.464 2.93819C21.4347 2.93819 22.2169 3.09016 22.8107 3.39411C23.4045 3.68681 23.7014 4.08082 23.7014 4.57614C23.7014 4.82381 23.6272 5.04333 23.4788 5.2347C23.3303 5.41482 23.1362 5.50488 22.8964 5.50488C22.7137 5.50488 22.5652 5.48237 22.451 5.43734C22.3368 5.38105 22.2226 5.31351 22.1084 5.2347C22.0056 5.14464 21.9029 5.07147 21.8001 5.01518C21.6859 4.9589 21.5146 4.90824 21.2862 4.86321C21.0692 4.81818 20.8922 4.79566 20.7552 4.79566C19.8987 4.79566 19.225 5.06021 18.7339 5.58931C18.2543 6.10715 18.0145 6.78823 18.0145 7.63253C18.0145 8.44307 18.26 9.11851 18.7511 9.65887C19.2421 10.188 19.8702 10.4525 20.6353 10.4525C21.1949 10.4525 21.6117 10.385 21.8857 10.2499C21.9543 10.2161 22.0456 10.1598 22.1598 10.081C22.2854 9.99096 22.3996 9.92342 22.5024 9.87839C22.6052 9.83336 22.7308 9.81085 22.8792 9.81085C23.1647 9.81085 23.3874 9.90091 23.5473 10.081C23.7186 10.2611 23.8042 10.4919 23.8042 10.7734C23.8042 11.0435 23.6443 11.2968 23.3246 11.5332C23.0049 11.7696 22.5823 11.961 22.057 12.1074C21.5317 12.2425 20.9722 12.31 20.3784 12.31C19.4991 12.31 18.7225 12.1074 18.0488 11.7021C17.3864 11.2968 16.8726 10.7396 16.5071 10.0304C16.1417 9.30989 15.959 8.51061 15.959 7.63253C15.959 6.72068 16.1474 5.91015 16.5243 5.20093C16.9125 4.49171 17.4492 3.9401 18.1344 3.54609C18.8196 3.14082 19.5961 2.93819 20.464 2.93819ZM33.5105 7.41301C33.4991 7.68319 33.3906 7.90271 33.1851 8.07157C32.9795 8.24044 32.7397 8.32487 32.4656 8.32487H26.813C26.95 8.98905 27.264 9.51253 27.7551 9.89528C28.2461 10.2668 28.8 10.4525 29.4166 10.4525C29.8848 10.4525 30.2503 10.4131 30.5129 10.3343C30.7756 10.2443 30.9811 10.1542 31.1296 10.0641C31.2894 9.96282 31.3979 9.89528 31.455 9.86151C31.6606 9.76019 31.8547 9.70953 32.0374 9.70953C32.2772 9.70953 32.4828 9.79396 32.6541 9.96282C32.8254 10.1317 32.911 10.3287 32.911 10.5538C32.911 10.8578 32.7511 11.1336 32.4314 11.3813C32.1116 11.6402 31.6834 11.8597 31.1467 12.0398C30.61 12.2199 30.0675 12.31 29.5194 12.31C28.5602 12.31 27.7208 12.113 27.0014 11.719C26.2934 11.325 25.7453 10.7846 25.357 10.0979C24.9687 9.39995 24.7746 8.61756 24.7746 7.75074C24.7746 6.7826 24.9801 5.93266 25.3912 5.20093C25.8024 4.4692 26.3448 3.91196 27.0185 3.5292C27.6923 3.13519 28.4117 2.93819 29.1768 2.93819C29.9305 2.93819 30.6385 3.14082 31.3009 3.54609C31.9746 3.95136 32.5113 4.49734 32.911 5.18404C33.3107 5.87075 33.5105 6.61374 33.5105 7.41301ZM29.1768 4.79566C27.8522 4.79566 27.0699 5.40919 26.8301 6.63625H31.318V6.51805C31.2723 6.04524 31.0382 5.63997 30.6157 5.30225C30.1932 4.96452 29.7135 4.79566 29.1768 4.79566Z" fill="#8A7FDF"/>
</svg>
