<svg width="48" height="48" viewBox="0 0 48 48" fill="none" xmlns="http://www.w3.org/2000/svg">
<rect width="48" height="48" rx="24" fill="#8A7FDF"/>
<path d="M37.3678 25.4585L39.7609 25.4585C39.9464 25.4585 40.1137 25.3467 40.1847 25.1753C40.2482 25.0219 40.2239 24.8461 40.121 24.7157L39.7194 24.2068C39.4338 23.8447 39.0029 23.6272 38.5419 23.6123L37.3982 23.5753C37.0966 23.5656 36.8086 23.701 36.6236 23.9394C36.1436 24.5582 36.5847 25.4585 37.3678 25.4585Z" fill="#DAC7FC"/>
<path d="M28.6187 34.1773L28.6187 25.1438C28.5595 24.6108 28.8318 23.5449 30.3945 23.5449C31.9572 23.5449 36.1955 23.5449 38.1194 23.5449C38.7113 23.5716 39.8952 23.9286 39.8952 25.1438" stroke="#FAFAFA" stroke-width="1.04348" stroke-linecap="round"/>
<path d="M31.9363 33.9749L25.9094 33.9749C25.1387 33.9749 24.7094 34.8656 25.1895 35.4685C25.3641 35.6877 25.6291 35.8154 25.9094 35.8154L31.9363 35.8154C32.5733 35.8154 33.0176 35.1839 32.8026 34.5844C32.6714 34.2188 32.3248 33.9749 31.9363 33.9749Z" fill="#DAC7FC"/>
<path d="M36.5971 24.9119L36.5971 34.3326C36.6563 34.8884 36.384 36 34.8213 36C33.2586 36 29.0203 36 27.0965 36C26.5045 35.9722 25.3206 35.5998 25.3206 34.3326" stroke="#FAFAFA" stroke-width="1.04348" stroke-linecap="round"/>
<path d="M34.2544 36C33.6798 35.9722 32.5305 35.599 32.5305 34.3292" stroke="#FAFAFA" stroke-width="1.04348" stroke-linecap="round"/>
<path d="M36.611 33.7216L36.611 25.0753C36.5584 24.5651 36.8004 23.5449 38.1895 23.5449" stroke="#FAFAFA" stroke-width="1.04348" stroke-linecap="round"/>
<line x1="31.0144" y1="26.749" x2="34.0457" y2="26.749" stroke="#DAC7FC" stroke-width="1.04348" stroke-linecap="round"/>
<line x1="31.0144" y1="28.8779" x2="34.0457" y2="28.8779" stroke="#DAC7FC" stroke-width="1.04348" stroke-linecap="round"/>
<line x1="31.0144" y1="31.0073" x2="34.0457" y2="31.0073" stroke="#DAC7FC" stroke-width="1.04348" stroke-linecap="round"/>
<path d="M12.0621 29.9262C12.2574 29.9262 12.4189 29.9949 12.5466 30.1324C12.6819 30.2618 12.7495 30.4316 12.7495 30.6418C12.7495 30.8439 12.6819 31.0137 12.5466 31.1512C12.4189 31.2806 12.2574 31.3453 12.0621 31.3453H8.39979C8.20447 31.3453 8.03919 31.2765 7.90397 31.1391C7.77626 30.9935 7.7124 30.8156 7.7124 30.6054V23.595C7.7124 23.3848 7.78001 23.211 7.91524 23.0735C8.05046 22.928 8.22325 22.8552 8.4336 22.8552C8.62141 22.8552 8.78292 22.928 8.91815 23.0735C9.05337 23.211 9.12098 23.3848 9.12098 23.595V29.9262H12.0621ZM15.2007 30.6054C15.2007 30.8156 15.1368 30.9935 15.0091 31.1391C14.8814 31.2765 14.7199 31.3453 14.5246 31.3453C14.3292 31.3453 14.1677 31.2765 14.04 31.1391C13.9123 30.9935 13.8484 30.8156 13.8484 30.6054V25.5963C13.8484 25.386 13.9123 25.2122 14.04 25.0747C14.1677 24.9292 14.3292 24.8564 14.5246 24.8564C14.7199 24.8564 14.8814 24.9292 15.0091 25.0747C15.1368 25.2122 15.2007 25.386 15.2007 25.5963V30.6054ZM14.5133 24.0681C14.2579 24.0681 14.0776 24.0236 13.9724 23.9347C13.8672 23.8457 13.8146 23.688 13.8146 23.4616V23.2312C13.8146 23.0048 13.871 22.8471 13.9837 22.7582C14.0964 22.6692 14.2767 22.6248 14.5246 22.6248C14.7875 22.6248 14.9715 22.6692 15.0767 22.7582C15.1819 22.8471 15.2345 23.0048 15.2345 23.2312V23.4616C15.2345 23.6961 15.1781 23.8578 15.0655 23.9468C14.9603 24.0276 14.7762 24.0681 14.5133 24.0681ZM16.2411 30.3386C16.1735 30.2415 16.1397 30.1203 16.1397 29.9747C16.1397 29.7645 16.2373 29.5866 16.4327 29.4411C16.5378 29.3683 16.6468 29.3319 16.7595 29.3319C16.9172 29.3319 17.0675 29.4087 17.2102 29.5623C17.4356 29.813 17.6685 29.999 17.9089 30.1203C18.1568 30.2416 18.4535 30.3022 18.7991 30.3022C19.385 30.2779 19.678 30.0394 19.678 29.5866C19.678 29.3521 19.5766 29.1742 19.3738 29.0529C19.1785 28.9317 18.8704 28.8104 18.4497 28.6891C18.014 28.5597 17.6572 28.4303 17.3792 28.301C17.1088 28.1716 16.8721 27.9775 16.6693 27.7188C16.474 27.452 16.3763 27.0962 16.3763 26.6515C16.3763 26.2634 16.4777 25.9278 16.6806 25.6448C16.8909 25.3537 17.1614 25.1313 17.4919 24.9777C17.83 24.816 18.1868 24.7351 18.5624 24.7351C18.9456 24.7351 19.3287 24.812 19.7118 24.9656C20.095 25.1192 20.3955 25.3456 20.6133 25.6448C20.711 25.7742 20.7598 25.9197 20.7598 26.0814C20.7598 26.2674 20.6885 26.421 20.5457 26.5423C20.4405 26.6313 20.3203 26.6757 20.1851 26.6757C20.0198 26.6757 19.8846 26.6191 19.7794 26.5059C19.6442 26.328 19.4677 26.1865 19.2498 26.0814C19.0395 25.9763 18.7991 25.9238 18.5286 25.9238C17.9577 25.9238 17.6722 26.1461 17.6722 26.5908C17.6722 26.7687 17.7248 26.9143 17.83 27.0275C17.9351 27.1326 18.0666 27.2175 18.2244 27.2822C18.3896 27.3388 18.6188 27.4115 18.9118 27.5005C19.3174 27.6218 19.6555 27.7471 19.9259 27.8765C20.1964 28.0058 20.4255 28.2039 20.6133 28.4708C20.8011 28.7376 20.895 29.0893 20.895 29.526C20.895 29.9222 20.7861 30.2698 20.5683 30.569C20.3504 30.8601 20.0687 31.0825 19.7231 31.2361C19.385 31.3897 19.0357 31.4665 18.6751 31.4665C18.1793 31.4665 17.7173 31.3776 17.2891 31.1997C16.8609 31.0218 16.5115 30.7348 16.2411 30.3386ZM24.934 29.9747C25.0391 29.9747 25.133 30.0313 25.2157 30.1445C25.3058 30.2496 25.3509 30.3911 25.3509 30.569C25.3509 30.7873 25.2382 30.9733 25.0128 31.1269C24.795 31.2725 24.5471 31.3453 24.2691 31.3453C23.8033 31.3453 23.4089 31.2401 23.0859 31.0299C22.7704 30.8116 22.6126 30.3548 22.6126 29.6594V26.3119H22.0943C21.914 26.3119 21.7637 26.2472 21.6435 26.1178C21.5233 25.9884 21.4632 25.8267 21.4632 25.6327C21.4632 25.4467 21.5233 25.2931 21.6435 25.1718C21.7637 25.0424 21.914 24.9777 22.0943 24.9777H22.6126V24.2015C22.6126 23.9913 22.6765 23.8174 22.8042 23.6799C22.9394 23.5344 23.1047 23.4616 23.3 23.4616C23.4878 23.4616 23.6456 23.5344 23.7733 23.6799C23.901 23.8174 23.9649 23.9913 23.9649 24.2015V24.9777H24.7649C24.9452 24.9777 25.0955 25.0424 25.2157 25.1718C25.3359 25.3011 25.396 25.4629 25.396 25.6569C25.396 25.8429 25.3359 26.0006 25.2157 26.1299C25.0955 26.2512 24.9452 26.3119 24.7649 26.3119H23.9649V29.5987C23.9649 29.7685 24.0062 29.8939 24.0888 29.9747C24.1715 30.0475 24.2841 30.0839 24.4269 30.0839C24.487 30.0839 24.5696 30.0677 24.6748 30.0354C24.7649 29.9949 24.8513 29.9747 24.934 29.9747Z" fill="white"/>
<path d="M13.9016 12.6053C14.0881 12.6053 14.2396 12.6666 14.3562 12.7891C14.4727 12.9117 14.531 13.0649 14.531 13.2487V19.9476C14.531 20.1467 14.4611 20.3153 14.3212 20.4532C14.1891 20.5834 14.0221 20.6485 13.82 20.6485C13.7112 20.6485 13.6024 20.6332 13.4937 20.6025C13.3926 20.5642 13.3188 20.5144 13.2722 20.4532L8.99454 15.0987V20.005C8.99454 20.1889 8.93237 20.3421 8.80804 20.4646C8.69149 20.5872 8.53608 20.6485 8.34181 20.6485C8.15532 20.6485 8.0038 20.5872 7.88724 20.4646C7.77068 20.3421 7.7124 20.1889 7.7124 20.005V13.3062C7.7124 13.107 7.77845 12.9423 7.91055 12.8121C8.05042 12.6742 8.22137 12.6053 8.4234 12.6053C8.53996 12.6053 8.65263 12.6283 8.76142 12.6742C8.87798 12.7202 8.96345 12.7815 9.01785 12.8581L13.2605 18.1896V13.2487C13.2605 13.0649 13.3188 12.9117 13.4354 12.7891C13.5597 12.6666 13.7151 12.6053 13.9016 12.6053ZM17.484 19.9476C17.484 20.1467 17.418 20.3153 17.2859 20.4532C17.1538 20.5834 16.9867 20.6485 16.7847 20.6485C16.5827 20.6485 16.4156 20.5834 16.2835 20.4532C16.1514 20.3153 16.0853 20.1467 16.0853 19.9476V15.2021C16.0853 15.0029 16.1514 14.8382 16.2835 14.708C16.4156 14.5701 16.5827 14.5012 16.7847 14.5012C16.9867 14.5012 17.1538 14.5701 17.2859 14.708C17.418 14.8382 17.484 15.0029 17.484 15.2021V19.9476ZM16.773 13.7543C16.5088 13.7543 16.3223 13.7122 16.2136 13.6279C16.1048 13.5437 16.0504 13.3943 16.0504 13.1798V12.9615C16.0504 12.747 16.1087 12.5976 16.2252 12.5134C16.3418 12.4291 16.5283 12.387 16.7847 12.387C17.0567 12.387 17.247 12.4291 17.3558 12.5134C17.4646 12.5976 17.519 12.747 17.519 12.9615V13.1798C17.519 13.4019 17.4607 13.5551 17.3442 13.6394C17.2354 13.716 17.045 13.7543 16.773 13.7543ZM21.6373 14.3863C22.2978 14.3863 22.8301 14.4897 23.2341 14.6965C23.6382 14.8957 23.8402 15.1638 23.8402 15.5008C23.8402 15.6694 23.7897 15.8187 23.6887 15.949C23.5877 16.0715 23.4556 16.1328 23.2924 16.1328C23.1681 16.1328 23.0671 16.1175 22.9894 16.0868C22.9117 16.0485 22.8339 16.0026 22.7562 15.949C22.6863 15.8877 22.6164 15.8379 22.5464 15.7996C22.4687 15.7613 22.3522 15.7268 22.1968 15.6962C22.0491 15.6655 21.9287 15.6502 21.8354 15.6502C21.2527 15.6502 20.7942 15.8302 20.4601 16.1903C20.1337 16.5426 19.9705 17.0061 19.9705 17.5806C19.9705 18.1321 20.1376 18.5917 20.4717 18.9594C20.8058 19.3194 21.2332 19.4995 21.7538 19.4995C22.1346 19.4995 22.4182 19.4535 22.6047 19.3616C22.6513 19.3386 22.7135 19.3003 22.7912 19.2467C22.8767 19.1854 22.9544 19.1394 23.0243 19.1088C23.0943 19.0781 23.1797 19.0628 23.2808 19.0628C23.475 19.0628 23.6265 19.1241 23.7353 19.2467C23.8519 19.3692 23.9102 19.5263 23.9102 19.7178C23.9102 19.9016 23.8014 20.074 23.5838 20.2348C23.3662 20.3957 23.0787 20.5259 22.7213 20.6255C22.3638 20.7174 21.9831 20.7634 21.579 20.7634C20.9807 20.7634 20.4523 20.6255 19.9938 20.3497C19.5431 20.074 19.1935 19.6948 18.9448 19.2122C18.6962 18.7219 18.5718 18.1781 18.5718 17.5806C18.5718 16.9601 18.7 16.4086 18.9565 15.926C19.2207 15.4434 19.5859 15.068 20.0521 14.7999C20.5183 14.5242 21.0467 14.3863 21.6373 14.3863ZM30.5149 17.4312C30.5071 17.615 30.4333 17.7644 30.2934 17.8793C30.1536 17.9942 29.9904 18.0517 29.8039 18.0517H25.9575C26.0507 18.5036 26.2644 18.8598 26.5986 19.1203C26.9327 19.3731 27.3096 19.4995 27.7292 19.4995C28.0478 19.4995 28.2964 19.4726 28.4751 19.419C28.6539 19.3577 28.7937 19.2965 28.8947 19.2352C29.0035 19.1662 29.0774 19.1203 29.1162 19.0973C29.2561 19.0284 29.3882 18.9939 29.5125 18.9939C29.6757 18.9939 29.8156 19.0513 29.9321 19.1662C30.0487 19.2811 30.1069 19.4152 30.1069 19.5684C30.1069 19.7752 29.9982 19.9629 29.7806 20.1314C29.563 20.3076 29.2716 20.457 28.9064 20.5795C28.5412 20.7021 28.1721 20.7634 27.7991 20.7634C27.1464 20.7634 26.5753 20.6293 26.0857 20.3612C25.6039 20.0931 25.231 19.7254 24.9668 19.2582C24.7026 18.7832 24.5705 18.2508 24.5705 17.661C24.5705 17.0022 24.7103 16.4239 24.9901 15.926C25.2698 15.4281 25.6389 15.0489 26.0974 14.7884C26.5558 14.5203 27.0454 14.3863 27.566 14.3863C28.0788 14.3863 28.5606 14.5242 29.0113 14.7999C29.4698 15.0757 29.835 15.4472 30.1069 15.9145C30.3789 16.3818 30.5149 16.8873 30.5149 17.4312ZM27.566 15.6502C26.6646 15.6502 26.1323 16.0677 25.9692 16.9027H29.023V16.8222C28.9919 16.5005 28.8326 16.2247 28.5451 15.9949C28.2576 15.7651 27.9312 15.6502 27.566 15.6502Z" fill="white"/>
</svg>
