<svg width="48" height="48" viewBox="0 0 48 48" fill="none" xmlns="http://www.w3.org/2000/svg">
<rect width="48" height="48" rx="24" fill="black"/>
<circle cx="32.7687" cy="34.8627" r="2.74773" fill="#4B92E3"/>
<path d="M17.9137 35.6108C19.3715 33.1181 22.8941 31.0974 25.7817 31.0974V31.0974L24.6122 33.0972C23.1545 35.5899 19.6318 37.6106 16.7442 37.6106V37.6106L17.9137 35.6108Z" fill="white"/>
<path d="M25.535 22.5824C26.9921 20.0909 30.5132 18.071 33.3996 18.071V18.071L32.2289 20.0728C30.7718 22.5644 27.2507 24.5842 24.3643 24.5842V24.5842L25.535 22.5824Z" fill="white"/>
<path d="M21.7243 29.0999C23.1828 26.6058 26.7074 24.584 29.5967 24.584V24.584L28.4286 26.5813C26.9701 29.0753 23.4455 31.0971 20.5562 31.0971V31.0971L21.7243 29.0999Z" fill="white"/>
<path d="M12.2666 14.6111H16.7444V37.6106V37.6106C14.2714 37.6106 12.2666 35.6059 12.2666 33.1328L12.2666 14.6111Z" fill="white"/>
<path d="M12.2666 14.6111C12.2666 12.1381 14.2714 10.1333 16.7444 10.1333H30.9919C33.4649 10.1333 35.4697 12.1381 35.4697 14.6111V14.6111H12.2666V14.6111Z" fill="white"/>
</svg>
