<svg width="48" height="48" viewBox="0 0 48 48" fill="none" xmlns="http://www.w3.org/2000/svg">
<g clip-path="url(#clip0_410_13569)">
<path d="M48 24C48 10.7452 37.2548 0 24 0C10.7452 0 0 10.7452 0 24C0 37.2548 10.7452 48 24 48C37.2548 48 48 37.2548 48 24Z" fill="#7DD3FC"/>
<path d="M11.3251 35.1493H13.1205C13.7331 35.1493 14.1879 35.293 14.4847 35.5804C14.7816 35.8632 14.9301 36.3038 14.9301 36.9022V38.3442C14.9301 38.9427 14.7816 39.3856 14.4847 39.6731C14.1879 39.9558 13.7331 40.0972 13.1205 40.0972H11.3251V39.1995H11.7917V36.0399H11.3251V35.1493ZM13.1205 39.2065C13.4457 39.2065 13.6719 39.1311 13.7991 38.9804C13.931 38.8248 13.997 38.5845 13.997 38.2594V36.9022C13.997 36.6195 13.931 36.4051 13.7991 36.259C13.6719 36.1129 13.4457 36.0399 13.1205 36.0399H12.7247V39.2065H13.1205ZM17.2153 36.3297C17.0975 36.2779 17.0009 36.1977 16.9255 36.0894C16.8548 35.9763 16.8195 35.8514 16.8195 35.7147C16.8195 35.6252 16.836 35.5404 16.869 35.4603C16.9067 35.3754 16.9561 35.3048 17.0174 35.2482C17.0787 35.187 17.1493 35.1398 17.2295 35.1068C17.3096 35.0691 17.3967 35.0503 17.491 35.0503C17.5805 35.0503 17.6653 35.0691 17.7454 35.1068C17.8303 35.1398 17.901 35.187 17.9575 35.2482C18.0188 35.3048 18.0659 35.3754 18.0989 35.4603C18.1366 35.5404 18.1554 35.6252 18.1554 35.7147C18.1554 35.8514 18.1177 35.9763 18.0423 36.0894C17.9716 36.1977 17.8797 36.2779 17.7667 36.3297V37.2132H17.2153V36.3297ZM19.9812 35.1493H21.7766C22.3892 35.1493 22.8439 35.293 23.1408 35.5804C23.4377 35.8632 23.5861 36.3038 23.5861 36.9022V38.3442C23.5861 38.9427 23.4377 39.3856 23.1408 39.6731C22.8439 39.9558 22.3892 40.0972 21.7766 40.0972H19.9812V39.1995H20.4477V36.0399H19.9812V35.1493ZM21.7766 39.2065C22.1018 39.2065 22.328 39.1311 22.4552 38.9804C22.5871 38.8248 22.6531 38.5845 22.6531 38.2594V36.9022C22.6531 36.6195 22.5871 36.4051 22.4552 36.259C22.328 36.1129 22.1018 36.0399 21.7766 36.0399H21.3808V39.2065H21.7766ZM24.5991 39.249H25.7866V37.4394H24.6839V36.5912H26.6772V39.249H27.6951V40.0972H24.5991V39.249ZM26.8963 35.5522C26.8963 35.6464 26.8775 35.7359 26.8398 35.8208C26.8068 35.9009 26.7597 35.9716 26.6984 36.0328C26.6371 36.0894 26.5641 36.1365 26.4793 36.1742C26.3992 36.2072 26.3143 36.2237 26.2248 36.2237C26.1306 36.2237 26.0434 36.2072 25.9633 36.1742C25.8832 36.1365 25.8125 36.0894 25.7512 36.0328C25.69 35.9716 25.6405 35.9009 25.6028 35.8208C25.5698 35.7359 25.5533 35.6464 25.5533 35.5522C25.5533 35.4579 25.5698 35.3707 25.6028 35.2906C25.6405 35.2058 25.69 35.1351 25.7512 35.0786C25.8125 35.0173 25.8832 34.9702 25.9633 34.9372C26.0434 34.8995 26.1306 34.8807 26.2248 34.8807C26.3143 34.8807 26.3992 34.8995 26.4793 34.9372C26.5641 34.9702 26.6371 35.0173 26.6984 35.0786C26.7597 35.1351 26.8068 35.2058 26.8398 35.2906C26.8775 35.3707 26.8963 35.4579 26.8963 35.5522ZM28.6161 36.5912H29.5774L30.4044 39.6731H30.5316L31.3587 36.5912H32.32L31.3162 40.0972H29.6198L28.6161 36.5912ZM33.9761 38.634C33.9808 38.7377 34.0044 38.8343 34.0468 38.9238C34.0939 39.0086 34.1552 39.084 34.2306 39.15C34.3107 39.2113 34.4002 39.2607 34.4992 39.2984C34.6029 39.3314 34.7113 39.3479 34.8243 39.3479C35.0458 39.3479 35.2155 39.3102 35.3333 39.2348C35.4511 39.1547 35.5359 39.0605 35.5877 38.9521L36.3511 39.3762C36.3087 39.4657 36.2498 39.56 36.1744 39.6589C36.099 39.7532 36.0001 39.8403 35.8775 39.9205C35.7597 40.0006 35.6137 40.0665 35.4393 40.1184C35.2697 40.1702 35.0694 40.1961 34.8385 40.1961C34.5746 40.1961 34.3343 40.1537 34.1175 40.0689C33.9007 39.9841 33.7122 39.8616 33.552 39.7013C33.3965 39.5411 33.274 39.3456 33.1845 39.1147C33.0996 38.8838 33.0572 38.6222 33.0572 38.3301V38.2876C33.0572 38.019 33.102 37.774 33.1915 37.5525C33.2858 37.3311 33.413 37.1426 33.5732 36.9871C33.7335 36.8315 33.9196 36.7114 34.1316 36.6266C34.3484 36.537 34.5793 36.4923 34.8243 36.4923C35.1259 36.4923 35.3851 36.5465 35.6019 36.6548C35.8186 36.7585 35.9977 36.8928 36.1391 37.0577C36.2804 37.218 36.3841 37.397 36.4501 37.5949C36.5161 37.7881 36.549 37.9766 36.549 38.1604V38.634H33.9761ZM34.8173 37.2981C34.5911 37.2981 34.4073 37.357 34.2659 37.4748C34.1246 37.5879 34.0327 37.7198 33.9903 37.8706H35.6443C35.616 37.7057 35.5265 37.569 35.3757 37.4606C35.2296 37.3523 35.0435 37.2981 34.8173 37.2981Z" fill="#172554"/>
<path d="M33.2571 22.9778V22.8857C33.2571 22.4545 33.0858 22.0409 32.7808 21.736C32.4759 21.4311 32.0624 21.2598 31.6311 21.2598H16.4558C16.0245 21.2598 15.611 21.4311 15.3061 21.736C15.0011 22.0409 14.8298 22.4545 14.8298 22.8857V22.9778L15.5127 26.3652C16.2043 28.0601 17.3851 29.5105 18.9045 30.5315C20.4238 31.5525 22.2129 32.0978 24.0434 32.0978C25.874 32.0978 27.6631 31.5525 29.1824 30.5315C30.7018 29.5105 31.8826 28.0601 32.5742 26.3652L33.2571 22.9778Z" fill="#DBEAFE"/>
<path d="M14.2878 9.33643V16.9241H13.7458C12.548 16.9241 11.5779 15.2277 11.5779 13.1303C11.5779 11.0328 12.548 9.33643 13.7458 9.33643H14.2878ZM33.7989 9.33643V16.9241H34.3409C35.5387 16.9241 36.5088 15.2277 36.5088 13.1303C36.5088 11.0328 35.5387 9.33643 34.3409 9.33643H33.7989Z" fill="#0284C7"/>
<path d="M13.7459 12.5877V16.9235C13.7459 18.0734 14.2027 19.1763 15.0159 19.9894C15.829 20.8025 16.9318 21.2593 18.0817 21.2593H30.0052C31.1552 21.2593 32.258 20.8025 33.0711 19.9894C33.8843 19.1763 34.3411 18.0734 34.3411 16.9235V9.33582C34.3411 8.18589 33.8843 7.08306 33.0711 6.26993C32.258 5.45681 31.1552 5 30.0052 5H19.1657L13.7459 12.5877Z" fill="#EFF6FF"/>
<path d="M34.341 12.5877V16.9235C34.341 18.0734 33.8842 19.1763 33.0711 19.9894C32.2579 20.8025 31.1551 21.2593 30.0052 21.2593H18.0817C16.9317 21.2593 15.8289 20.8025 15.0158 19.9894C14.2027 19.1763 13.7458 18.0734 13.7458 16.9235V9.33582C13.7458 8.18589 14.2027 7.08306 15.0158 6.26993C15.8289 5.45681 16.9317 5 18.0817 5H28.9212L34.341 12.5877Z" fill="#EFF6FF"/>
<path d="M32.1729 12.5883V16.9241C32.1729 17.4991 31.9445 18.0505 31.5379 18.457C31.1314 18.8636 30.5799 19.092 30.005 19.092H18.0815C17.5065 19.092 16.9551 18.8636 16.5485 18.457C16.142 18.0505 15.9136 17.4991 15.9136 16.9241V11.5043C15.9136 10.9294 16.142 10.378 16.5485 9.97139C16.9551 9.56483 17.5065 9.33643 18.0815 9.33643H28.921L32.1729 12.5883Z" fill="#172554"/>
<path d="M15.9138 12.5883V16.9241C15.9138 17.4991 16.1422 18.0505 16.5487 18.457C16.9553 18.8636 17.5067 19.092 18.0817 19.092H30.0052C30.5802 19.092 31.1316 18.8636 31.5381 18.457C31.9447 18.0505 32.1731 17.4991 32.1731 16.9241V11.5043C32.1731 10.9294 31.9447 10.378 31.5381 9.97139C31.1316 9.56483 30.5802 9.33643 30.0052 9.33643H19.1656L15.9138 12.5883Z" fill="#172554"/>
<path d="M19.437 14.2133C20.1853 14.2133 20.7919 13.6067 20.7919 12.8584C20.7919 12.11 20.1853 11.5034 19.437 11.5034C18.6887 11.5034 18.082 12.11 18.082 12.8584C18.082 13.6067 18.6887 14.2133 19.437 14.2133Z" fill="#7DD3FC"/>
<path d="M28.646 14.2133C29.3943 14.2133 30.0009 13.6067 30.0009 12.8584C30.0009 12.11 29.3943 11.5034 28.646 11.5034C27.8976 11.5034 27.291 12.11 27.291 12.8584C27.291 13.6067 27.8976 14.2133 28.646 14.2133Z" fill="#7DD3FC"/>
<path d="M29.9783 12.5874C29.9956 12.6767 30.0047 12.7674 30.0054 12.8584C30.0054 13.1263 29.9259 13.3883 29.7771 13.6111C29.6282 13.8339 29.4166 14.0076 29.169 14.1102C28.9214 14.2127 28.649 14.2396 28.3861 14.1873C28.1233 14.135 27.8819 14.0059 27.6924 13.8165C27.5029 13.627 27.3738 13.3855 27.3216 13.1227C27.2693 12.8599 27.2961 12.5874 27.3987 12.3398C27.5012 12.0923 27.6749 11.8806 27.8977 11.7318C28.1205 11.5829 28.3825 11.5034 28.6505 11.5034C28.7414 11.5041 28.8321 11.5132 28.9215 11.5305M22.9597 14.7553H25.1276C25.2714 14.7553 25.4092 14.8124 25.5108 14.914C25.6125 15.0157 25.6696 15.1535 25.6696 15.2973C25.6696 15.7285 25.4983 16.142 25.1934 16.447C24.8884 16.7519 24.4749 16.9232 24.0437 16.9232C23.6124 16.9232 23.1989 16.7519 22.8939 16.447C22.589 16.142 22.4177 15.7285 22.4177 15.2973C22.4177 15.1535 22.4748 15.0157 22.5765 14.914C22.6781 14.8124 22.816 14.7553 22.9597 14.7553Z" fill="#7DD3FC"/>
<path d="M29.9783 12.5874C29.9956 12.6767 30.0047 12.7674 30.0054 12.8584C30.0054 13.1263 29.9259 13.3883 29.7771 13.6111C29.6282 13.8339 29.4166 14.0076 29.169 14.1102C28.9214 14.2127 28.649 14.2396 28.3861 14.1873C28.1233 14.135 27.8819 14.0059 27.6924 13.8165C27.5029 13.627 27.3738 13.3855 27.3216 13.1227C27.2693 12.8599 27.2961 12.5874 27.3987 12.3398C27.5012 12.0923 27.6749 11.8806 27.8977 11.7318C28.1205 11.5829 28.3825 11.5034 28.6505 11.5034C28.7414 11.5041 28.8321 11.5132 28.9215 11.5305M22.9597 14.7553H25.1276C25.2714 14.7553 25.4092 14.8124 25.5108 14.914C25.6125 15.0157 25.6696 15.1535 25.6696 15.2973C25.6696 15.7285 25.4983 16.142 25.1934 16.447C24.8884 16.7519 24.4749 16.9232 24.0437 16.9232C23.6124 16.9232 23.1989 16.7519 22.8939 16.447C22.589 16.142 22.4177 15.7285 22.4177 15.2973C22.4177 15.1535 22.4748 15.0157 22.5765 14.914C22.6781 14.8124 22.816 14.7553 22.9597 14.7553Z" fill="#7DD3FC"/>
<path d="M15.5762 26.1782C14.8527 28.2436 13.1324 30.7443 12.2008 30.45C11.2691 30.1557 11.4772 27.1743 12.2008 25.1094C12.9243 23.0445 13.8977 22.6781 14.8299 22.9762C15.7621 23.2743 16.3057 24.1132 15.5762 26.1782ZM32.5108 26.1782C33.2344 28.2436 34.9546 30.7427 35.8857 30.45C36.8168 30.1574 36.6098 27.1743 35.8857 25.1094C35.1616 23.0445 34.1893 22.6781 33.2571 22.9762C32.3249 23.2743 31.7813 24.1132 32.5108 26.1782Z" fill="#EFF6FF"/>
<path d="M24.0432 28.3051C25.2405 28.3051 26.2111 27.3345 26.2111 26.1371C26.2111 24.9398 25.2405 23.9692 24.0432 23.9692C22.8459 23.9692 21.8752 24.9398 21.8752 26.1371C21.8752 27.3345 22.8459 28.3051 24.0432 28.3051Z" fill="#172554"/>
</g>
<defs>
<clipPath id="clip0_410_13569">
<rect width="48" height="48" fill="white"/>
</clipPath>
</defs>
</svg>
