<svg width="92" height="92" viewBox="0 0 92 92" fill="none" xmlns="http://www.w3.org/2000/svg">
<rect width="92" height="92" rx="12" fill="#174587"/>
<path d="M34.0551 68.1668C30.4748 68.1668 28.2848 66.5093 27.4849 63.1945L26.7707 60.2511H25.4281V67.7095H19.1721V48.0489H27.8277C29.4655 48.0489 30.9033 48.2966 32.1412 48.7919C33.3981 49.2682 34.3694 49.9445 35.055 50.8208C35.7405 51.6972 36.0833 52.7069 36.0833 53.85C36.0833 55.1264 35.7691 56.2028 35.1407 57.0791C34.5312 57.9364 33.579 58.6413 32.284 59.1938C32.4173 59.9177 32.5697 60.575 32.7411 61.1655C32.9696 61.8895 33.2838 62.3943 33.6838 62.6801C34.0837 62.9658 34.6645 63.1087 35.4263 63.1087C35.6929 63.1087 36.1119 63.0706 36.6832 62.9944V67.6524C35.7882 67.9953 34.9121 68.1668 34.0551 68.1668ZM26.5136 56.2504C27.9229 56.2504 28.9132 56.098 29.4845 55.7932C30.0749 55.4693 30.3701 54.9263 30.3701 54.1643C30.3701 53.5166 30.132 53.0498 29.6559 52.7641C29.1798 52.4592 28.4276 52.3068 27.3992 52.3068H25.4281V56.2504H26.5136ZM46.0884 67.9382C44.5077 67.9382 43.0985 67.6238 41.8607 66.9951C40.6418 66.3474 39.6896 65.471 39.004 64.3661C38.3184 63.2421 37.9756 61.9752 37.9756 60.5654C37.9756 59.1175 38.328 57.8316 39.0326 56.7076C39.7372 55.5836 40.6894 54.7168 41.8892 54.1071C43.089 53.4975 44.422 53.1927 45.8884 53.1927C47.2977 53.1927 48.4975 53.507 49.4878 54.1357C50.4971 54.7454 51.2494 55.5836 51.7445 56.6504C52.2397 57.6983 52.4872 58.8794 52.4872 60.1939C52.4872 60.5368 52.4682 60.7845 52.4301 60.9369L43.8602 62.0514C44.0888 62.7182 44.4601 63.204 44.9743 63.5088C45.4885 63.7946 46.1646 63.9374 47.0025 63.9374C48.2975 63.9374 49.6973 63.6041 51.2018 62.9373L51.9159 66.7665C50.1448 67.5476 48.2023 67.9382 46.0884 67.9382ZM48.0595 58.4508C47.7548 57.2506 47.0311 56.6504 45.8884 56.6504C45.2029 56.6504 44.6601 56.9076 44.2602 57.422C43.8602 57.9364 43.6508 58.6032 43.6318 59.4224L48.0595 58.4508ZM55.6486 56.9362H53.8489V53.3927H55.6486V52.1925C55.6486 50.0779 56.1532 48.4776 57.1626 47.3917C58.191 46.3058 59.6193 45.7628 61.4475 45.7628C62.9139 45.7628 64.2756 46.1343 65.5325 46.8773L65.3325 50.7351C64.228 50.297 63.3043 50.0779 62.5616 50.0779C61.9903 50.0779 61.5523 50.2207 61.2476 50.5065C60.9429 50.7732 60.7905 51.1638 60.7905 51.6781C60.7905 52.1735 60.9524 52.745 61.2761 53.3927H65.2754V56.9362H61.6761V67.7095H55.6486V56.9362Z" fill="#F9F9F9"/>
<path d="M69.7761 67.8807C68.7667 67.8807 67.9764 67.6045 67.4051 67.052C66.8338 66.4995 66.5481 65.8042 66.5481 64.9659C66.5481 64.1086 66.8433 63.4133 67.4337 62.8799C68.024 62.3464 68.8048 62.0797 69.7761 62.0797C70.7283 62.0797 71.4996 62.3655 72.09 62.937C72.6803 63.4895 72.9755 64.1658 72.9755 64.9659C72.9755 65.8613 72.6994 66.5757 72.1471 67.1092C71.5948 67.6235 70.8045 67.8807 69.7761 67.8807Z" fill="#F0D051"/>
<path d="M19 25.5263H24.2102L31.3126 35.1465V25.5263H35.9525V43.3665H30.7682L23.614 34.0834V43.3665H19V25.5263ZM43.5002 43.5739C42.0486 43.5739 40.9167 43.1072 40.1045 42.1737C39.2923 41.2402 38.8862 39.9696 38.8862 38.3619V30.3753H44.3816V38.1285C44.3816 38.5261 44.4853 38.8373 44.6927 39.062C44.9173 39.2695 45.2024 39.3732 45.5481 39.3732C45.8935 39.3732 46.248 39.2695 46.6109 39.062L46.896 42.6664C46.5156 42.9603 46.0147 43.185 45.3926 43.3405C44.7877 43.4961 44.1568 43.5739 43.5002 43.5739ZM41.6339 28.4305C40.8217 28.4305 40.1305 28.1799 39.5602 27.6785C39.0072 27.1599 38.7307 26.5289 38.7307 25.7856C38.7307 25.0423 39.0245 24.4199 39.612 23.9186C40.1996 23.4173 40.8735 23.1666 41.6339 23.1666C42.4288 23.1666 43.1114 23.4259 43.6817 23.9445C44.2692 24.4632 44.5631 25.0768 44.5631 25.7856C44.5631 26.5462 44.2692 27.1772 43.6817 27.6785C43.0941 28.1799 42.4115 28.4305 41.6339 28.4305ZM54.8081 43.5739C53.4255 43.5739 52.1985 43.2974 51.1272 42.7441C50.0729 42.1737 49.2435 41.3786 48.6388 40.3585C48.0511 39.3386 47.7575 38.1804 47.7575 36.8839C47.7575 35.6392 48.0685 34.5069 48.6906 33.487C49.3128 32.467 50.1594 31.6632 51.2309 31.0754C52.3022 30.4877 53.4945 30.1938 54.8081 30.1938C56.4842 30.1938 57.8062 30.5395 58.774 31.231L58.2815 34.6798C57.2965 34.3859 56.4842 34.2389 55.8449 34.2389C55.0154 34.2389 54.3587 34.481 53.8749 34.965C53.3909 35.4317 53.1491 36.0714 53.1491 36.8839C53.1491 37.6964 53.3909 38.3446 53.8749 38.8286C54.3587 39.3127 54.998 39.5547 55.7931 39.5547C56.4842 39.5547 57.2965 39.4078 58.2297 39.1139L58.7222 42.7441C58.1344 43.0381 57.5383 43.2456 56.9336 43.3665C56.3287 43.5049 55.6201 43.5739 54.8081 43.5739ZM67.1936 43.5739C65.7593 43.5739 64.4806 43.2887 63.3573 42.7182C62.2514 42.1305 61.3873 41.3352 60.7652 40.3326C60.1431 39.3127 59.832 38.1631 59.832 36.8839C59.832 35.5701 60.1518 34.4032 60.7911 33.3832C61.4304 32.3633 62.2945 31.5768 63.3832 31.0236C64.4719 30.4704 65.6815 30.1938 67.0122 30.1938C68.2911 30.1938 69.3798 30.479 70.2783 31.0495C71.1942 31.6027 71.8767 32.3633 72.326 33.3314C72.7754 34.2822 73 35.354 73 36.5468C73 36.8579 72.9828 37.0826 72.9482 37.221L65.1718 38.2322C65.3792 38.8373 65.7161 39.2781 66.1827 39.5547C66.6493 39.814 67.2627 39.9437 68.0231 39.9437C69.1983 39.9437 70.4684 39.6411 71.8335 39.0361L72.4816 42.5108C70.8745 43.2196 69.1118 43.5739 67.1936 43.5739ZM68.9822 34.965C68.7058 33.8759 68.049 33.3314 67.0122 33.3314C66.3901 33.3314 65.8976 33.5648 65.5347 34.0315C65.1718 34.4982 64.9816 35.1033 64.9644 35.8466L68.9822 34.965Z" fill="#F9F9F9"/>
</svg>
