<svg width="92" height="92" viewBox="0 0 92 92" fill="none" xmlns="http://www.w3.org/2000/svg">
<rect x="-0.000488281" width="92" height="92" rx="12" fill="#96BB7C"/>
<path d="M29.1122 68.9485C29.1122 68.8849 29.0977 68.845 29.0799 68.8599C29.0622 68.8748 29.0255 68.8149 28.9984 68.7268C28.9699 68.6339 28.9258 68.5666 28.8935 68.5666C28.8494 68.5666 28.8459 68.5533 28.8766 68.5031C28.9063 68.4543 28.9053 68.4351 28.8723 68.4199C28.8385 68.4045 28.84 68.3827 28.8792 68.3177C28.9173 68.2548 28.9193 68.2306 28.8876 68.2161C28.8646 68.2056 28.8459 68.1772 28.8459 68.1529C28.8459 68.1286 28.8607 68.1212 28.8788 68.1364C28.8977 68.1522 28.9033 68.1341 28.892 68.0938C28.881 68.0551 28.8892 68.0236 28.9101 68.0236C28.9378 68.0236 28.9385 67.999 28.9125 67.9331C28.8839 67.8603 28.8872 67.8425 28.9293 67.8425C28.9716 67.8425 28.9737 67.8309 28.94 67.7819C28.8969 67.7192 28.8132 67.7753 28.8242 67.8595C28.827 67.8813 28.8118 67.9079 28.7903 67.9187C28.7647 67.9316 28.7579 67.9039 28.7706 67.838C28.7812 67.783 28.7763 67.7487 28.7596 67.7619C28.7431 67.7752 28.6995 67.771 28.6629 67.7527C28.6101 67.7263 28.6256 67.7126 28.7378 67.6865C28.826 67.666 28.8792 67.6295 28.8792 67.5897C28.8792 67.5545 28.9083 67.5258 28.9439 67.5258C28.9795 67.5258 29.029 67.486 29.0541 67.4374C29.099 67.3503 29.2686 67.2313 29.3235 67.2484C29.339 67.2533 29.4364 67.2282 29.5399 67.1927C29.6433 67.1572 29.8216 67.1138 29.9361 67.0962C30.0505 67.0787 30.1525 67.046 30.1627 67.0236C30.1729 67.0011 30.214 66.9823 30.2542 66.9817C30.2943 66.9812 30.417 66.9205 30.5268 66.847C30.6366 66.7734 30.7518 66.7128 30.7828 66.7123C30.8137 66.7117 30.8483 66.6909 30.8596 66.666C30.8709 66.6411 30.8633 66.6207 30.8427 66.6207C30.7965 66.6207 30.8132 66.4184 30.8596 66.414C30.878 66.4122 30.9586 66.3852 31.0389 66.354C31.1191 66.3228 31.2214 66.3097 31.266 66.3249C31.3107 66.3402 31.3948 66.3327 31.4529 66.3083C31.5111 66.2839 31.6422 66.2418 31.7444 66.2146C32.0247 66.14 32.1744 66.0777 32.1744 66.0356C32.1744 65.992 30.4669 66.0224 30.0442 66.0736C29.8215 66.1005 29.7365 66.0931 29.6448 66.039C29.5807 66.0011 29.5208 65.9671 29.5116 65.9635C29.5025 65.9599 29.4512 65.9324 29.3977 65.9023C29.3442 65.8723 29.2768 65.8603 29.2479 65.8755C29.2191 65.8908 28.776 65.9107 28.2634 65.9196C27.7509 65.9285 27.2641 65.9561 27.1817 65.9809C27.0994 66.0057 26.8525 66.0496 26.6331 66.0785C26.4138 66.1074 26.2056 66.1519 26.1706 66.1774C26.1356 66.2029 26.0338 66.2142 25.9443 66.2024C25.855 66.1908 25.7737 66.199 25.7638 66.2207C25.754 66.2424 25.7319 66.2485 25.7149 66.2341C25.6978 66.2199 25.6839 66.2297 25.6839 66.2561C25.6839 66.2824 25.6727 66.2999 25.659 66.295C25.6036 66.275 25.3178 66.3574 25.3178 66.3932C25.3178 66.4375 25.0664 66.5109 24.9713 66.4945C24.9363 66.4884 24.8796 66.5245 24.8452 66.5747C24.8108 66.6249 24.757 66.6684 24.7257 66.6714C24.6944 66.6743 24.5789 66.6811 24.469 66.6864C24.3592 66.6918 24.2094 66.7197 24.1362 66.7485C24.0629 66.7771 23.9465 66.8122 23.8773 66.8261C23.8082 66.8401 23.7597 66.8694 23.7696 66.8913C23.8006 66.9594 23.7266 66.9773 23.1484 67.0412C23.1177 67.0446 23.0952 67.0667 23.0985 67.0903C23.1017 67.1138 23.0744 67.1451 23.0378 67.1597C23.0012 67.1744 22.9334 67.2214 22.8872 67.2641C22.8268 67.32 22.7007 67.35 22.4378 67.371C22.2369 67.3869 22.0379 67.3979 21.9956 67.3953C21.9533 67.3927 21.8727 67.4229 21.8165 67.4625C21.7584 67.5032 21.7054 67.5164 21.6937 67.4928C21.665 67.4349 21.5479 67.3793 21.5735 67.4358C21.6006 67.4953 21.5682 67.4923 21.4796 67.4269C21.3007 67.2952 20.4539 67.3953 20.3656 67.5587C20.3382 67.6093 20.3353 67.6435 20.3573 67.6534C20.3762 67.6621 20.3917 67.6871 20.3917 67.7091C20.3917 67.7312 20.3708 67.7383 20.3451 67.7249C20.3195 67.7116 20.2887 67.7223 20.2766 67.749C20.2443 67.8199 20.4438 67.8097 20.5514 67.7348C20.6009 67.7004 20.7088 67.6573 20.7911 67.6389C20.8735 67.6206 20.9671 67.599 20.9991 67.5909C21.0312 67.5829 21.0574 67.6029 21.0574 67.6355C21.0574 67.6774 21.0988 67.6904 21.1989 67.6797C21.3082 67.6681 21.3269 67.6752 21.2814 67.7111C21.249 67.7367 21.2299 67.7741 21.239 67.7943C21.2588 67.8377 21.0727 67.8814 20.7125 67.9179C20.5102 67.9384 20.4442 67.9303 20.4218 67.8822C20.4007 67.837 20.3926 67.8355 20.3922 67.8765C20.3915 67.9598 20.1914 67.9463 20.1197 67.8581C20.0863 67.817 20.0589 67.8025 20.0589 67.8261C20.0589 67.8521 19.9508 67.8566 19.7843 67.8378C19.6332 67.8207 19.3973 67.7954 19.2601 67.7817C19.1227 67.768 18.9612 67.7331 18.9011 67.7042C18.8409 67.6752 18.7545 67.6613 18.7089 67.6731C18.6633 67.685 18.6166 67.6739 18.605 67.6485C18.5922 67.6201 18.6008 67.6164 18.6277 67.6389C18.6547 67.6617 18.6631 67.6578 18.6498 67.6285C18.6248 67.5734 18.466 67.5234 18.2782 67.5116C18.1673 67.5046 18.1444 67.4869 18.1414 67.4059C18.1382 67.319 18.1611 67.305 18.3577 67.274C18.4788 67.2549 18.6152 67.2438 18.6609 67.2492L18.7442 67.259L18.6558 67.1937C18.5027 67.0805 18.3533 67.0328 18.0618 67.0037C17.9062 66.9882 17.6815 66.9423 17.5626 66.9017C17.2889 66.8082 16.3392 66.801 16.2978 66.8921C16.2836 66.9235 16.2543 66.9343 16.2327 66.9162C16.1771 66.8695 15.5646 66.8537 15.5855 66.8996C15.6049 66.9424 15.6 66.9432 15.1646 66.9611C14.8572 66.9738 14.7275 66.9893 14.2674 67.0681C14.0576 67.104 13.9349 67.0834 13.815 66.9922C13.7647 66.954 13.7756 66.9322 13.8965 66.8284C13.9941 66.7447 14.1133 66.6955 14.2931 66.6645C14.6001 66.6118 14.893 66.5453 15.1041 66.4806C15.2303 66.4418 15.2555 66.4179 15.2423 66.3491C15.2328 66.2997 15.2068 66.275 15.1795 66.2893C15.1538 66.3027 15.1328 66.2911 15.1328 66.2636C15.1328 66.236 15.159 66.2132 15.191 66.2128C15.2408 66.2122 15.242 66.2057 15.1994 66.1682C15.1678 66.1405 15.1643 66.1241 15.19 66.1236C15.2124 66.1233 15.2219 66.0924 15.2113 66.0548C15.1979 66.0075 15.2311 65.9631 15.3206 65.9091L15.449 65.8315L15.1237 65.8042C14.9449 65.7892 14.709 65.779 14.5995 65.7815C14.4901 65.784 14.4005 65.7835 14.4005 65.7805C14.4005 65.7773 14.4305 65.7278 14.4671 65.6704C14.5037 65.613 14.5337 65.5798 14.5337 65.5967C14.5337 65.6135 14.5674 65.5972 14.6086 65.5605C14.6499 65.5238 14.7946 65.4703 14.9303 65.4416C15.066 65.413 15.2364 65.3612 15.3089 65.3264C15.3814 65.2916 15.495 65.2624 15.5613 65.2616C15.7467 65.2591 16.2137 65.094 16.0786 65.0787C16.0618 65.0768 16.0182 65.0659 15.9815 65.0544C15.9449 65.043 15.8967 65.0281 15.8743 65.0215C15.7982 64.9987 15.7933 64.9547 15.8636 64.9244C15.9022 64.9077 15.9729 64.8448 16.0207 64.7845C16.0686 64.7242 16.1412 64.6749 16.182 64.6749C16.2229 64.6749 16.2734 64.6469 16.2943 64.6127C16.3255 64.5615 16.2981 64.5452 16.1402 64.5207C16.0347 64.5044 15.9033 64.4812 15.8484 64.4691C15.7177 64.4404 15.1979 64.4446 15.1621 64.4746C15.1139 64.515 14.7334 64.5342 14.7334 64.4961C14.7334 64.4761 14.7559 64.4344 14.7833 64.4034C14.8107 64.3724 14.8332 64.3258 14.8332 64.2998C14.8332 64.2738 14.8234 64.2659 14.8113 64.2823C14.7993 64.2987 14.7693 64.2894 14.7447 64.2617C14.72 64.2337 14.7001 64.2305 14.7001 64.2545C14.7001 64.2783 14.6776 64.2978 14.6502 64.2978C14.5702 64.2978 14.5921 64.2493 14.702 64.1832C14.8255 64.1088 14.8079 64.0776 14.6087 64.0187C14.427 63.9649 14.3924 63.8806 14.5226 63.8092C14.6574 63.7354 15.2907 63.6395 15.6528 63.6382C15.8225 63.6375 16.0011 63.6235 16.0496 63.6069L16.1379 63.5767L16.0431 63.4713C15.9909 63.4132 15.923 63.3651 15.892 63.3642C15.813 63.3619 15.7891 63.2899 15.8314 63.1824C15.8761 63.0689 16.1656 62.8648 16.2819 62.8648C16.331 62.8648 16.3594 62.8452 16.3477 62.8195C16.3364 62.7946 16.2996 62.7743 16.266 62.7743C16.2096 62.7743 16.147 62.6613 16.1593 62.5819C16.1719 62.5013 15.6438 62.5915 15.5996 62.6776C15.5658 62.7433 14.7159 62.9151 14.6323 62.8731L14.5528 62.833L14.6302 62.7767C14.6727 62.7457 14.9493 62.6656 15.2447 62.5986C15.7853 62.4761 15.9169 62.3896 15.5626 62.3896C15.4538 62.3896 15.3537 62.3638 15.3211 62.3273C15.2748 62.2754 15.2109 62.274 14.9412 62.3188C14.4453 62.4011 14.1572 62.4577 14.0896 62.4859C14.0448 62.5046 14.0313 62.4912 14.0397 62.4362C14.0518 62.3559 14.1547 62.2618 14.3162 62.1835C14.4552 62.116 14.3688 62.0565 14.1911 62.0973C14.114 62.115 13.9837 62.1438 13.9013 62.1614L13.7515 62.1933L13.8763 62.0306C13.945 61.9412 14.0011 61.8607 14.0011 61.8518C14.0011 61.8429 13.9082 61.8214 13.7947 61.8039C13.5263 61.7626 13.3827 61.6603 13.3845 61.5118C13.3855 61.4334 13.6009 61.3283 13.8012 61.3084C13.8837 61.3002 14.071 61.2611 14.2175 61.2216C14.3639 61.182 14.5886 61.1404 14.7168 61.1293C14.8449 61.1181 15.0397 61.0874 15.1494 61.0613C15.8314 60.8984 15.985 60.8583 16.0144 60.8355C16.0324 60.8214 15.98 60.7876 15.8979 60.7604C15.8152 60.733 15.7486 60.6844 15.7486 60.6516C15.7486 60.5754 16.084 60.41 16.3885 60.336C16.5366 60.3 16.6462 60.2465 16.682 60.1925C16.7142 60.1443 16.8256 60.0835 16.9358 60.054C17.1859 59.9871 17.1792 59.9236 16.9074 59.7871C16.8491 59.7578 16.8083 59.7104 16.8165 59.6815C16.8353 59.616 16.9895 59.5161 17.0719 59.5161C17.1059 59.5161 17.1245 59.4957 17.1132 59.4708C17.1019 59.446 16.9812 59.4256 16.8449 59.4256C16.6205 59.4256 16.5304 59.3793 16.6389 59.3198C16.7358 59.2666 16.2501 59.2954 16.0102 59.3571C15.7114 59.4339 15.5488 59.4017 15.5488 59.2659C15.5488 59.2032 15.6358 59.121 15.8755 58.9568C16.1014 58.8022 16.1887 58.7213 16.1585 58.6947C16.1009 58.6443 16.1577 58.5927 16.381 58.4924C16.696 58.3509 16.946 58.1137 16.9132 57.9874C16.8908 57.9011 17.0136 57.854 17.521 57.7544C17.7732 57.7049 18.0258 57.6331 18.0822 57.5948C18.1388 57.5564 18.2584 57.5132 18.3481 57.4985C18.5954 57.4582 19.0686 57.2955 19.1426 57.2253C19.1787 57.191 19.2537 57.1615 19.309 57.1597C19.3645 57.1581 19.4398 57.1391 19.4764 57.1177C19.5294 57.0867 19.5158 57.0774 19.4098 57.0721C19.1261 57.058 18.9756 57.0199 18.938 56.9529C18.9123 56.9073 18.8721 56.8932 18.8215 56.9121C18.7549 56.937 18.7523 56.934 18.803 56.8909C18.8353 56.8633 18.8878 56.8466 18.9195 56.8536C18.9512 56.8608 18.9973 56.8494 19.0219 56.8284C19.0484 56.8058 19.1002 56.8147 19.1488 56.85C19.2128 56.8965 19.2447 56.8979 19.2938 56.8563C19.3337 56.8224 19.3642 56.8191 19.3769 56.8471C19.3881 56.8715 19.4824 56.8922 19.5865 56.893C19.6907 56.8939 19.8134 56.9237 19.8592 56.9593C19.9588 57.0368 19.9923 57.0425 19.9923 56.9819C19.9923 56.9571 19.969 56.9367 19.9404 56.9367C19.9119 56.9367 19.8967 56.9187 19.9067 56.8966C19.9168 56.8746 19.8936 56.8453 19.8553 56.8317C19.8169 56.8181 19.7921 56.7801 19.8 56.7473C19.8147 56.6869 19.9638 56.6515 20.425 56.5989C20.8416 56.5514 20.9576 56.5258 20.9576 56.4814C20.9576 56.458 20.9351 56.4389 20.9076 56.4389C20.8799 56.4389 20.8577 56.3987 20.8577 56.3484C20.8577 56.2821 20.8799 56.2579 20.9409 56.2579C21.0366 56.2579 21.053 56.1882 20.9646 56.1568C20.9319 56.1451 20.7633 56.1465 20.5901 56.1598C20.0856 56.1985 19.8839 56.1856 19.7784 56.108C19.7247 56.0685 19.6713 56.0444 19.6595 56.0542C19.6478 56.064 19.6444 56.0148 19.6519 55.9447C19.6685 55.7919 19.6217 55.768 19.2799 55.7552C19.0754 55.7476 19.0595 55.7407 19.1306 55.6906C19.2475 55.6082 19.6765 55.49 19.9323 55.4696C20.063 55.4592 20.1865 55.4221 20.2309 55.3797C20.3255 55.2897 20.3824 55.2886 20.4464 55.3755C20.4751 55.4146 20.5553 55.443 20.6354 55.4424C20.8821 55.4407 21.8025 55.3134 21.9275 55.2637C22.0442 55.2174 22.0477 55.2098 22.0231 55.0614C22.0076 54.9679 22.0111 54.8889 22.032 54.8605C22.0557 54.8282 22.0547 54.7944 22.0287 54.7518C21.9492 54.6216 22.0503 54.5946 22.5361 54.6165C22.9135 54.6336 23.0312 54.6243 23.1078 54.5712C23.1888 54.515 23.5541 54.4375 23.8033 54.4236C23.8399 54.4216 23.9448 54.4017 24.0363 54.3795L24.2027 54.339L24.053 54.3061C23.9706 54.288 23.7234 54.2836 23.5038 54.2963C23.2842 54.309 22.9696 54.3166 22.8049 54.3133C22.6401 54.31 22.318 54.3405 22.0892 54.381C21.6364 54.4613 21.1695 54.5173 20.9685 54.5157C20.8984 54.5151 20.8317 54.5324 20.8202 54.5541C20.8087 54.5759 20.7525 54.5963 20.6953 54.5994C20.6382 54.6026 20.5914 54.6221 20.5914 54.6427C20.5914 54.6633 20.5577 54.6673 20.5165 54.6515C20.4579 54.6291 20.4525 54.6332 20.4916 54.6704C20.5346 54.7114 20.5335 54.718 20.4832 54.7186C20.4512 54.719 20.425 54.742 20.425 54.7697C20.425 54.8008 20.3934 54.792 20.3429 54.7471C20.2518 54.666 20.2119 54.6532 20.2396 54.7142C20.2496 54.7362 20.228 54.7649 20.1916 54.7778C20.1537 54.7913 20.1255 54.779 20.1254 54.749C20.1254 54.7187 20.0729 54.6967 20.0006 54.6967C19.9213 54.6967 19.8787 54.7165 19.8836 54.7511C19.8889 54.7885 19.8531 54.7988 19.7686 54.7841C19.63 54.76 19.4933 54.6546 19.4926 54.5712C19.4922 54.5356 19.4804 54.54 19.4598 54.5836C19.4347 54.6363 19.4274 54.6229 19.427 54.524C19.4263 54.3608 19.4812 54.2215 19.5461 54.2215C19.574 54.2215 19.5876 54.2012 19.5763 54.1763C19.5649 54.1514 19.5828 54.1295 19.6159 54.1276C19.7255 54.1213 19.7953 54.0938 19.8694 54.0278C19.9359 53.9685 20.0922 53.9913 20.0922 54.0603C20.0922 54.0728 20.0721 54.0725 20.0476 54.0596C20.023 54.0468 19.9818 54.0718 19.956 54.115C19.9156 54.1828 19.9156 54.1883 19.9564 54.1549C19.9928 54.1251 19.9982 54.1353 19.9802 54.1991C19.9662 54.2488 19.974 54.297 19.9995 54.319C20.0632 54.3739 20.1169 54.3636 20.0589 54.3075C20.0213 54.2712 20.0406 54.2653 20.1368 54.2834C20.2075 54.2968 20.2918 54.2846 20.3255 54.256C20.3716 54.2168 20.3982 54.2177 20.4351 54.2593C20.4744 54.3037 20.4888 54.2988 20.5096 54.2339C20.5239 54.1898 20.5331 54.1384 20.5301 54.1197C20.5273 54.101 20.5461 54.0857 20.572 54.0857C20.598 54.0857 20.6249 54.0624 20.6319 54.034C20.6389 54.0055 20.6885 53.9759 20.7422 53.968C20.7959 53.9603 20.8566 53.9228 20.8771 53.8847C20.8975 53.8467 20.9264 53.8306 20.9412 53.8488C20.9561 53.8671 20.9588 53.8465 20.9473 53.8029C20.9216 53.7054 20.9852 53.6963 21.0126 53.7935C21.0301 53.8554 21.0396 53.8545 21.0949 53.7865C21.1538 53.7139 21.1573 53.7144 21.1578 53.7959C21.1582 53.8681 21.1636 53.8711 21.1906 53.8142C21.2387 53.713 21.2318 53.691 21.1427 53.6606C21.0862 53.6413 21.0632 53.604 21.0668 53.5376C21.0727 53.4319 21.1887 53.3529 21.3223 53.3636C21.4468 53.3736 21.5567 53.3153 21.5567 53.2394C21.5567 53.1905 21.5898 53.1762 21.6815 53.1853C21.8157 53.1986 22.0413 53.1477 22.1225 53.0857C22.1628 53.055 22.1596 53.047 22.1059 53.0441C22.0693 53.0423 21.9645 53.0311 21.8729 53.0194C21.5898 52.9834 21.2134 52.9845 21.0776 53.0218C20.9843 53.0475 20.9545 53.0431 20.9711 53.0064C20.9855 52.975 20.9765 52.9648 20.9476 52.9799C20.9202 52.9942 20.8761 52.9527 20.8409 52.8798C20.798 52.7908 20.7924 52.7502 20.8211 52.7372C20.848 52.725 20.8416 52.698 20.8013 52.655C20.7466 52.5967 20.7501 52.5931 20.8411 52.6146C20.896 52.6276 20.9222 52.6262 20.8994 52.6115C20.815 52.5575 20.8615 52.5019 20.9909 52.5019C21.0749 52.5019 21.1242 52.5227 21.1245 52.5584C21.1249 52.6001 21.1326 52.5988 21.1536 52.5536C21.1716 52.515 21.19 52.5093 21.2032 52.5383C21.2255 52.5874 21.2679 52.5836 21.3719 52.5231C21.4076 52.5023 21.486 52.484 21.5462 52.4823C21.6841 52.4785 21.729 52.3661 21.5925 52.3661C21.5385 52.3661 21.4889 52.3367 21.4781 52.2982C21.4652 52.2525 21.4797 52.2304 21.5228 52.2304C21.5579 52.2304 21.5986 52.2049 21.6133 52.1738C21.6515 52.0927 21.7871 51.9966 21.822 52.026C21.8383 52.0396 21.8611 52.0302 21.8726 52.0049C21.8841 51.9795 21.9348 51.9589 21.9853 51.9589C22.0358 51.9589 22.1585 51.9258 22.2579 51.8854C22.4149 51.8216 22.429 51.8069 22.3649 51.7742C22.3242 51.7535 22.0463 51.7393 21.7473 51.7427C21.4482 51.7461 21.184 51.7324 21.16 51.7123C21.1353 51.6915 21.1067 51.6973 21.0938 51.7259C21.067 51.7847 20.0323 51.8293 20.0066 51.7727C19.9976 51.7528 19.9669 51.7487 19.9386 51.7635C19.9036 51.7817 19.8989 51.8006 19.9242 51.8219C19.9448 51.8391 19.9161 51.8533 19.8605 51.8533C19.8049 51.8533 19.7593 51.8338 19.7593 51.8101C19.7593 51.7862 19.7365 51.7925 19.7086 51.824C19.6807 51.8555 19.6472 51.8668 19.6342 51.8491C19.6212 51.8314 19.6478 51.7784 19.6933 51.7313L19.776 51.6457L19.6928 51.6675C19.6198 51.6865 19.6178 51.6839 19.6761 51.6462C19.7721 51.5842 19.9299 51.5906 20.0223 51.6603C20.1125 51.7282 20.2253 51.7058 20.2253 51.6201C20.2253 51.5805 20.2911 51.5628 20.4417 51.5616C20.5774 51.5606 20.658 51.5785 20.658 51.6097C20.658 51.637 20.6767 51.626 20.6996 51.5852C20.7297 51.5317 20.8198 51.503 21.0241 51.4821C21.1798 51.4661 21.4016 51.4243 21.5171 51.3892C21.6327 51.354 21.775 51.3234 21.8333 51.321C21.8917 51.3186 22.0144 51.2888 22.1059 51.2548C22.2619 51.1969 22.2443 51.1946 21.823 51.2177C21.5758 51.2313 21.3511 51.2427 21.3237 51.2432C21.2963 51.2436 20.9517 51.2917 20.5582 51.35C20.1646 51.4084 19.7355 51.4623 19.6046 51.4699C19.4737 51.4775 19.3735 51.499 19.3819 51.5177C19.3903 51.5363 19.3326 51.5517 19.2537 51.5518C19.1748 51.5518 18.9755 51.5815 18.8107 51.6175C18.5282 51.6793 17.8636 51.7431 17.9539 51.6997C17.9769 51.6887 17.9872 51.661 17.9769 51.6382C17.9665 51.6155 18.0002 51.5959 18.0515 51.5947C18.103 51.5935 18.1975 51.5539 18.2615 51.5066C18.3256 51.4594 18.408 51.4018 18.4446 51.3785C18.5649 51.3022 20.528 50.8607 20.9909 50.8058C21.1281 50.7896 21.5251 50.7359 21.8729 50.6866C22.2207 50.6373 22.6798 50.5772 22.8931 50.5531C23.1064 50.5289 23.3529 50.4797 23.441 50.4436C23.5567 50.3963 23.6075 50.3921 23.6241 50.4286C23.6451 50.4749 23.9953 50.4621 24.4192 50.3998C24.4832 50.3904 24.6854 50.37 24.8685 50.3544C25.1969 50.3265 25.6974 50.2326 25.9776 50.1464C26.0567 50.1221 26.1354 50.1139 26.1525 50.1283C26.1697 50.1427 26.4016 50.1096 26.6679 50.0548C27.0619 49.9736 27.1663 49.9654 27.2282 50.0105C27.2905 50.0558 27.3704 50.0482 27.6675 49.9686C28.162 49.8361 28.8073 49.6638 29.1289 49.5785C29.2754 49.5396 29.4881 49.4789 29.6017 49.4437C29.7153 49.4083 29.8576 49.3796 29.9179 49.3797C29.9782 49.3797 30.095 49.3506 30.1774 49.3148C30.3162 49.2544 30.6005 49.1873 31.359 49.036C31.7486 48.9583 31.8271 48.9404 32.2244 48.8383C32.4074 48.7912 32.707 48.7191 32.89 48.678C33.0731 48.637 33.2678 48.5932 33.3227 48.5809C33.7114 48.4936 33.7853 48.4952 33.8626 48.5927C33.9043 48.6454 33.9385 48.7116 33.9385 48.7398C33.9385 48.7681 33.9497 48.7888 33.9634 48.7858C33.9772 48.7829 34.0227 48.7829 34.0645 48.7858C34.128 48.7903 34.1351 48.805 34.1073 48.8757C34.0665 48.9793 34.0991 49.0351 34.1601 48.9662C34.2287 48.8888 34.2131 48.9585 34.1341 49.0819C34.0927 49.1467 34.0095 49.2048 33.933 49.2224C33.8212 49.248 33.8084 49.2622 33.8442 49.3208C33.8979 49.4088 33.8526 49.4142 35.9854 49.0634C36.1319 49.0393 36.394 49.0098 36.5679 48.9979C36.7419 48.986 37.0564 48.9547 37.2669 48.9285C37.4775 48.9023 37.7545 48.8728 37.8827 48.863C38.0108 48.8531 38.1749 48.824 38.2473 48.7982C38.3197 48.7724 38.6069 48.75 38.8855 48.7485C39.1641 48.747 39.4119 48.7367 39.4362 48.7256C39.4961 48.6982 40.2761 48.6426 40.4616 48.6525C40.5437 48.6569 40.6338 48.6886 40.6618 48.7231C40.7245 48.8003 40.8842 48.808 41.6272 48.7699C41.9687 48.7523 42.2823 48.7124 42.3853 48.6735C42.5197 48.6225 42.7426 48.6086 43.3339 48.6141C43.759 48.6182 44.4663 48.606 44.9057 48.5873C45.7961 48.5492 45.7485 48.5488 46.6698 48.6031C47.2662 48.6383 47.6104 48.6398 48.1343 48.6093C48.2258 48.6041 48.2745 48.5903 48.2424 48.579C48.2104 48.5676 48.1842 48.537 48.1842 48.511C48.1842 48.4798 48.2776 48.4727 48.4588 48.4901C48.6098 48.5045 49.0629 48.537 49.4656 48.5623C49.8684 48.5875 50.3851 48.629 50.614 48.6546C51.5333 48.7572 51.8839 48.7933 52.3614 48.8347C53.5555 48.9384 54.185 48.9797 54.8411 48.9974C55.1431 49.0056 55.5176 49.0262 55.6732 49.0431C55.8288 49.0601 56.0609 49.0721 56.1891 49.0699C56.3172 49.0677 56.5719 49.0858 56.7549 49.1103C56.938 49.1348 57.5308 49.1638 58.0724 49.1748C58.614 49.1857 59.1232 49.2145 59.2041 49.2388C59.2849 49.2631 59.4688 49.294 59.6126 49.3074C59.7564 49.3209 59.9212 49.3424 59.9787 49.3552C60.1755 49.399 60.4828 49.4288 60.9321 49.4475C61.3278 49.4641 61.7123 49.5039 62.2801 49.587C62.3717 49.6004 62.499 49.617 62.563 49.624C62.6271 49.6309 62.7919 49.6497 62.9291 49.6656C63.0665 49.6816 63.2986 49.7072 63.4451 49.7224C63.5914 49.7376 63.7187 49.7563 63.728 49.764C63.7371 49.7717 63.8298 49.7902 63.9339 49.8053C64.038 49.8204 64.1452 49.8441 64.172 49.8581C64.1988 49.8721 64.3532 49.8896 64.5152 49.897C64.9601 49.9174 64.9595 49.9173 64.9595 49.9904C64.9595 50.0277 64.9754 50.0583 64.9948 50.0583C65.0141 50.0583 65.0192 50.0345 65.006 50.0053C64.9895 49.9692 65.0004 49.962 65.04 49.9827C65.072 49.9994 65.1311 50.013 65.1715 50.013C65.2211 50.013 65.2466 50.0424 65.25 50.1035C65.2559 50.2117 65.2378 50.2169 65.1711 50.1262C65.1014 50.0314 65.0235 50.0385 65.0469 50.1374C65.0584 50.1862 65.0548 50.1972 65.0376 50.1661C65.0184 50.1316 64.9246 50.1252 64.7431 50.1458C64.4308 50.1813 64.195 50.1715 63.7613 50.1051C63.5874 50.0784 63.3627 50.0457 63.262 50.0323C63.1613 50.0189 63.0615 50.0003 63.0401 49.9907C63.0187 49.9812 62.9925 50.0043 62.9819 50.0421C62.9675 50.0929 62.9359 50.1028 62.86 50.0801C62.7408 50.0445 62.6642 50.031 62.3467 49.9894C62.2186 49.9726 62.1048 49.9515 62.0938 49.9423C62.0705 49.9228 61.6253 49.9196 61.0153 49.9346C60.6283 49.944 60.3554 49.9181 60.1518 49.8526C60.0372 49.8157 59.2346 49.7996 59.2346 49.8343C59.2346 49.8521 59.3357 49.8814 59.4593 49.8994C59.5829 49.9174 59.7139 49.9401 59.7505 49.95C60.0073 50.0188 60.6952 50.096 61.2483 50.118C61.3765 50.1232 61.4972 50.1411 61.5165 50.158C61.5487 50.186 62.5679 50.294 62.6226 50.2752C62.6356 50.2707 62.7586 50.2813 62.8959 50.2987C63.1081 50.3257 63.6502 50.3798 63.7863 50.3877C63.8354 50.3906 63.8412 50.4489 63.7961 50.4869C63.7637 50.5141 63.5128 50.5204 63.2857 50.4997C63.2164 50.4933 63.1475 50.4613 63.1326 50.4286C63.1125 50.3843 63.0553 50.3769 62.9092 50.3997C62.8012 50.4166 62.7028 50.4385 62.6906 50.4484C62.6783 50.4583 62.6455 50.4355 62.6178 50.3977C62.59 50.36 62.5594 50.3465 62.5497 50.3678C62.5309 50.4092 61.8591 50.3916 61.6643 50.3446C61.6003 50.3292 61.4874 50.3123 61.4134 50.3072C61.3394 50.302 61.2458 50.2738 61.2054 50.2444C61.1465 50.2016 61.1318 50.203 61.1318 50.2512C61.1318 50.2868 61.0873 50.3166 61.0236 50.3235C60.7604 50.3524 60.3921 50.3497 60.1 50.3167C59.8899 50.293 59.8002 50.2959 59.8328 50.3255C59.9639 50.445 59.7178 50.5039 59.3345 50.4448C58.9946 50.3924 58.9339 50.3896 58.787 50.4199C58.7112 50.4356 58.6049 50.4322 58.5508 50.4125C58.4083 50.3606 57.6674 50.2687 57.3374 50.2619C57.1818 50.2588 56.9571 50.2422 56.8382 50.2253C56.7192 50.2082 56.4795 50.1839 56.3056 50.1711C56.1316 50.1583 55.7198 50.1179 55.3903 50.0813C55.0608 50.0447 54.5706 50.0011 54.3011 49.9843C53.8619 49.9571 53.8088 49.9618 53.7898 50.0293C53.7717 50.0936 53.7138 50.1044 53.3978 50.1027C53.1939 50.1017 52.9597 50.1173 52.8773 50.1376L52.7275 50.1743L52.9772 50.2247C53.1144 50.2524 53.2792 50.2746 53.3433 50.2739C53.4073 50.2732 53.6695 50.3042 53.9258 50.3428C54.1821 50.3813 54.6688 50.4356 55.0075 50.4633C55.3461 50.4912 55.6566 50.5236 55.6973 50.5356C55.738 50.5475 56.075 50.577 56.4462 50.6013C57.1133 50.6448 57.5807 50.6803 57.9365 50.7146C58.0372 50.7242 58.3826 50.7528 58.7041 50.778C59.0256 50.8032 59.3101 50.8329 59.3365 50.844C59.3628 50.8551 59.4144 50.8795 59.451 50.8984C59.4876 50.9172 59.5751 50.9382 59.6455 50.9452C59.7159 50.952 59.7908 50.99 59.812 51.0295C59.8427 51.0865 59.9294 51.1036 60.2333 51.1129C60.4437 51.1193 60.6309 51.1371 60.6492 51.1524C60.6675 51.1677 60.7948 51.1922 60.9321 51.2068C61.5885 51.2766 62.2446 51.3333 62.5464 51.3463C62.7294 51.3542 63.1189 51.3962 63.4118 51.4397C63.7047 51.4831 64.0792 51.5255 64.2439 51.5338C65.3842 51.5909 66.295 51.6629 66.7735 51.7337C66.9383 51.7581 67.2271 51.7911 67.4153 51.8072C67.6035 51.8231 67.7654 51.8536 67.7751 51.8749C67.7847 51.8962 67.7431 51.9153 67.6825 51.9173C67.6219 51.9194 67.5301 51.9252 67.4784 51.9303C67.4267 51.9353 67.3779 51.9252 67.3699 51.9077C67.362 51.8902 67.3002 51.8966 67.2325 51.922C67.1638 51.9478 67.0132 51.955 66.8916 51.9383C66.7717 51.9219 66.1344 51.9005 65.4754 51.8907C64.8164 51.881 64.03 51.8598 63.728 51.8438C63.1896 51.8152 63.037 51.8327 63.3902 51.8826C63.4882 51.8964 63.5756 51.9176 63.5845 51.9296C63.6082 51.9619 63.4865 52.0418 63.3855 52.0602C63.2679 52.0816 63.2308 52.1389 63.3313 52.1438C63.3756 52.146 63.6065 52.1667 63.8445 52.1899C64.0825 52.2131 64.5505 52.2441 64.8846 52.2588C65.4338 52.283 65.4921 52.2932 65.4921 52.3649C65.4921 52.4644 65.6261 52.488 66.4336 52.5303C66.7593 52.5474 67.0334 52.5785 67.043 52.5995C67.0525 52.6205 67.126 52.6377 67.2062 52.6377C67.4796 52.6377 67.403 52.7626 67.0671 52.8644C66.9723 52.8932 66.845 52.9129 66.7842 52.9083C66.3788 52.8778 66.4852 52.9669 66.9399 53.0388C67.123 53.0678 67.3776 53.1013 67.5058 53.1134C67.6339 53.1254 67.8661 53.1556 68.0219 53.1804C68.177 53.2052 68.4917 53.2389 68.7209 53.2554C69.0022 53.2756 69.1473 53.3043 69.1699 53.3445C69.1881 53.3774 69.3075 53.417 69.4362 53.4333C69.5643 53.4495 69.6843 53.4876 69.7025 53.518C69.7207 53.5484 69.845 53.587 69.9788 53.6037C70.1126 53.6206 70.2557 53.6642 70.2966 53.7008C70.3437 53.7427 70.4875 53.7746 70.6859 53.7871C71.1136 53.8142 71.4483 53.8652 71.4672 53.906C71.4866 53.949 71.1953 54.0103 71.1507 53.9727C71.1325 53.9573 71.1174 53.964 71.1174 53.9875C71.1174 54.0111 71.1695 54.0438 71.2336 54.0601C71.3604 54.0924 71.3843 54.1487 71.292 54.1972C71.1833 54.2546 71.3353 54.3454 71.6776 54.4273C71.9652 54.4961 72.1467 54.5811 72.0142 54.5849C71.8898 54.5885 72.082 54.6682 72.2817 54.696C72.4004 54.7126 72.5153 54.7457 72.536 54.7697C72.5574 54.7937 72.6698 54.8341 72.7854 54.8594C73.1069 54.9299 73.1038 54.9865 72.7753 55.0216C72.6529 55.0346 72.5411 55.0735 72.5072 55.1145C72.4601 55.1721 72.4023 55.179 72.1906 55.1522C71.7617 55.0977 71.6769 55.1082 71.6123 55.2244C71.5808 55.2812 71.5614 55.3419 71.5695 55.3593C71.5771 55.3767 71.6845 55.4052 71.8082 55.4226C71.9313 55.44 72.0475 55.4703 72.0657 55.4898C72.0839 55.5094 72.1699 55.5398 72.2572 55.5574C72.4959 55.6056 72.4469 55.6696 72.1712 55.6696C72.0368 55.6696 71.9156 55.6849 71.9018 55.7035C71.8879 55.7222 71.7485 55.7374 71.5915 55.7374C71.3931 55.7374 71.302 55.7547 71.2926 55.7941C71.2825 55.8328 71.3183 55.8507 71.4056 55.8509C71.476 55.8509 71.5859 55.8698 71.6499 55.8926C71.714 55.9155 71.893 55.947 72.0481 55.9627C72.2026 55.9785 72.3464 56.0104 72.3671 56.0337C72.3878 56.057 72.4136 56.0642 72.4243 56.0497C72.4349 56.0352 72.4783 56.0403 72.521 56.061C72.5806 56.09 72.5455 56.1051 72.3652 56.1274C72.153 56.1536 71.9112 56.2197 71.7831 56.2862C71.7014 56.3285 71.8277 56.3749 72.207 56.4422C72.3947 56.4754 72.5486 56.5147 72.5486 56.5294C72.5486 56.5442 72.646 56.5478 72.7646 56.5376C72.9386 56.5225 72.9813 56.5318 72.9813 56.585C72.9813 56.667 72.8758 56.8012 72.8117 56.8002C72.7728 56.7996 72.7734 56.7919 72.8149 56.7557C72.857 56.7183 72.8557 56.7117 72.8055 56.7111C72.7728 56.7107 72.737 56.742 72.7263 56.7806C72.7094 56.8405 72.6491 56.8474 72.3194 56.8272C71.9062 56.8019 71.805 56.8318 71.881 56.9566C72.0085 57.1653 72.5279 57.3892 72.8852 57.3892C73.1013 57.3892 73.2143 57.4441 73.2143 57.5492C73.2143 57.6018 73.1609 57.6153 72.9562 57.6144C72.8143 57.6138 72.6384 57.5918 72.5649 57.5656C72.4915 57.5394 72.1467 57.5088 71.7981 57.4975C71.1821 57.4775 71.1645 57.4795 71.1595 57.568C71.1551 57.655 71.1953 57.7177 71.2668 57.7333C71.2851 57.7374 71.4289 57.7736 71.5859 57.8139C72.1002 57.9457 72.5574 58.026 73.0246 58.0667C73.458 58.1046 73.6055 58.1564 73.561 58.2548C73.5509 58.2773 73.5277 58.2837 73.5107 58.269C73.4931 58.2543 73.4825 58.2692 73.4875 58.3022C73.4931 58.3353 73.4712 58.3593 73.4391 58.3559C73.4071 58.3525 73.3883 58.3655 73.397 58.3849C73.4058 58.4042 73.3625 58.433 73.3003 58.4489C73.1659 58.4832 73.1339 58.5647 73.203 58.6983C73.2394 58.7694 73.2432 58.8118 73.2174 58.8547C73.1741 58.9249 73.2024 58.9731 73.2859 58.9731C73.3198 58.9731 73.3474 58.9816 73.3474 58.992C73.3474 59.0024 73.3569 59.0461 73.3694 59.0892C73.3895 59.1611 73.3669 59.165 73.0943 59.1374C72.9317 59.1209 72.742 59.0953 72.673 59.0805C72.5737 59.0591 72.5486 59.068 72.5486 59.1242C72.5486 59.163 72.5241 59.2131 72.4946 59.2356C72.4186 59.2936 72.4645 59.5543 72.5599 59.6068C72.6284 59.6442 72.6284 59.6463 72.5649 59.6521C72.4984 59.6582 72.4984 59.6582 72.5649 59.6971C72.6296 59.735 72.5392 59.7512 72.1988 59.7625C72.0569 59.7672 71.9495 59.8281 71.9495 59.9037C71.9495 59.9442 71.9149 59.9688 71.8578 59.9692C71.8076 59.9696 71.7322 59.9822 71.6908 59.9974C71.6198 60.0232 71.6185 60.0287 71.6738 60.0858C71.7065 60.1193 71.7736 60.1474 71.8239 60.1481C71.8741 60.1489 72.0135 60.2209 72.1348 60.308C72.2566 60.3958 72.4029 60.4663 72.4632 60.4663C72.6648 60.4663 72.9794 60.524 72.9637 60.5581C72.9556 60.5767 72.9738 60.5891 73.0052 60.5857C73.0359 60.5823 73.0667 60.6146 73.0736 60.6574C73.0887 60.757 72.8921 60.9287 72.791 60.9044C72.7502 60.8947 72.7119 60.909 72.705 60.9362C72.6893 61.0002 72.3005 61.0183 72.1454 60.9622C72.0795 60.9384 71.7385 60.9134 71.3881 60.9067C70.7958 60.8953 70.6212 60.9184 70.8423 60.9788C70.8925 60.9925 71.0012 61.0246 71.0841 61.0499C71.1664 61.0752 71.297 61.0968 71.3749 61.0979C71.4527 61.099 71.5168 61.1203 71.5168 61.1451C71.5168 61.17 71.54 61.1904 71.5689 61.1904C71.5972 61.1904 71.6512 61.2128 71.6889 61.2401C71.7567 61.2893 71.7567 61.2904 71.6788 61.3433C71.5419 61.4358 71.5846 61.5232 71.8138 61.6223C71.9313 61.6732 72.0349 61.7445 72.0437 61.7807C72.0519 61.8169 72.0726 61.8584 72.0883 61.8728C72.1391 61.9182 72.0782 62.0578 72.0211 62.0278C71.9916 62.0126 71.9771 62.0127 71.9884 62.028C71.9997 62.0432 71.9708 62.107 71.925 62.1698C71.8641 62.2523 71.8013 62.2859 71.6983 62.2913C71.6204 62.2955 71.562 62.3121 71.5695 62.3284C71.5771 62.3447 71.4395 62.348 71.2643 62.3358C71.01 62.3181 70.9346 62.3274 70.89 62.3822C70.8279 62.4585 70.5013 62.4898 70.3305 62.436C70.2658 62.4154 70.2181 62.4218 70.2036 62.4529C70.1917 62.4803 70.1459 62.5027 70.1025 62.5027C70.0027 62.5027 69.9191 62.5462 69.9191 62.5981C69.9191 62.6203 69.9405 62.6385 69.9669 62.6385C69.9939 62.6385 70.0284 62.6694 70.0435 62.7071C70.0611 62.7497 70.1911 62.8073 70.3864 62.859C70.7707 62.9607 71.054 63.1162 71.0276 63.211C71.0169 63.2474 70.9874 63.2661 70.961 63.2525C70.9353 63.2389 70.9221 63.2463 70.9327 63.2687C70.9428 63.2912 70.912 63.3731 70.8637 63.4506C70.7996 63.5544 70.7588 63.584 70.7098 63.5627C70.6727 63.5467 70.6514 63.5522 70.6614 63.575C70.6721 63.5977 70.6282 63.6183 70.5647 63.6208C70.5007 63.6232 70.3437 63.6602 70.2149 63.703L69.9813 63.7809L70.056 63.8885C70.0969 63.9477 70.144 63.9961 70.1609 63.9961C70.1779 63.9961 70.2432 64.0292 70.306 64.0698C70.4153 64.1404 70.4184 64.1478 70.3694 64.2484C70.338 64.3145 70.3311 64.3638 70.3525 64.3815C70.3707 64.397 70.3763 64.4307 70.3644 64.4565C70.3506 64.4869 70.333 64.4817 70.3142 64.4421C70.2953 64.4023 70.2765 64.3969 70.2601 64.4269C70.2463 64.4523 70.1904 64.5025 70.1352 64.5385L70.0353 64.604L70.1408 64.6194C70.2545 64.6361 70.316 64.7522 70.2331 64.7953C70.2049 64.8099 70.1741 64.8106 70.1641 64.7968C70.154 64.783 70.0956 64.8099 70.0347 64.8564C69.9738 64.9029 69.867 64.9555 69.7973 64.9732C69.7276 64.991 69.651 65.0329 69.6259 65.0664C69.5675 65.1458 69.5448 65.1441 69.2359 65.0366C68.9583 64.94 68.8798 64.949 68.7661 65.0906C68.7014 65.1704 68.6757 65.1743 68.5017 65.1306C68.2738 65.0733 67.8439 65.0659 67.8684 65.1197C67.8778 65.1405 67.9948 65.1828 68.1281 65.2137C68.4684 65.2926 68.5067 65.3095 68.4509 65.3565C68.3541 65.4378 68.7881 65.6299 69.2114 65.6934C69.3263 65.7106 69.4268 65.7406 69.4356 65.76C69.445 65.7796 69.4205 65.8499 69.3822 65.9162C69.3175 66.0276 69.3162 66.043 69.3659 66.1174C69.3954 66.1617 69.4199 66.2091 69.4199 66.2227C69.4199 66.2786 68.8559 66.1981 68.6707 66.1158C68.4044 65.9973 67.8648 65.9109 67.8149 65.9786C67.7886 66.0145 67.7883 66.0452 67.8141 66.0875C67.8489 66.1445 67.9023 66.1689 68.346 66.3306C68.4848 66.381 68.5545 66.4292 68.5545 66.4745C68.5545 66.5319 68.5149 66.5379 68.307 66.5122C68.1488 66.4928 68.0527 66.4987 68.0389 66.5287C68.0276 66.5544 68.0357 66.5755 68.0583 66.5755C68.081 66.5755 68.0916 66.586 68.0822 66.5989C68.0596 66.6293 67.5883 66.4947 67.5415 66.4447C67.5046 66.4053 67.0186 66.3035 66.9149 66.3134C66.8829 66.3165 66.8567 66.3445 66.8567 66.3757C66.8567 66.4068 66.8489 66.4598 66.8394 66.4933C66.8231 66.5513 67.2296 66.6684 67.93 66.8076C68.0351 66.8286 68.1758 66.8765 68.2417 66.9142C68.3083 66.9519 68.4094 66.9828 68.4666 66.983C68.6173 66.9834 68.8339 67.073 68.7988 67.1205C68.7831 67.1426 68.5802 67.1664 68.3485 67.1735C68.1168 67.1806 67.93 67.1898 67.9331 67.1941C67.9361 67.1983 68.0126 67.2413 68.1029 67.2896C68.2606 67.3737 68.2643 67.3797 68.1921 67.4321C68.1362 67.4731 68.0759 67.4747 67.9513 67.4384C67.7487 67.3793 67.7221 67.3785 67.7221 67.4316C67.7221 67.4546 67.7668 67.4867 67.8215 67.5031C68.0035 67.5574 67.9641 67.6162 67.7458 67.6162C67.6187 67.6162 67.4903 67.645 67.4279 67.6873C67.3647 67.7301 67.2939 67.7457 67.2495 67.7265C67.1545 67.6856 65.5918 67.6699 65.6101 67.7101C65.6488 67.7953 65.2122 67.7949 64.8396 67.7093C64.0851 67.5362 63.4431 67.4377 63.029 67.4317C62.8002 67.4284 62.4556 67.3977 62.2635 67.3635C62.0712 67.3293 61.7288 67.2803 61.5025 67.2546C61.2762 67.229 61.0814 67.2001 61.0698 67.1906C61.0581 67.181 60.9362 67.1602 60.7989 67.1443C60.6617 67.1284 60.4969 67.1068 60.4328 67.0963C60.2994 67.0744 59.6921 67.0283 59.2512 67.0067C58.9323 66.9911 58.4476 66.9494 58.1195 66.9095C58.0097 66.8962 57.5829 66.8765 57.1709 66.8659C56.759 66.8553 56.2723 66.8299 56.0892 66.8095C55.9061 66.7891 55.3998 66.7745 54.9641 66.7769C54.3051 66.7807 54.1665 66.7926 54.1403 66.8481C54.1135 66.9047 54.1042 66.9052 54.0789 66.8517C54.0589 66.8096 54.0161 66.7974 53.9506 66.8153C53.8963 66.83 53.8358 66.8198 53.8158 66.7925C53.7958 66.7652 53.7299 66.7387 53.6695 66.7334C53.609 66.7282 53.5296 66.7118 53.493 66.6971C53.2935 66.6168 53.0857 66.5934 53.002 66.6419C52.9348 66.6808 52.767 66.6348 52.7902 66.5838C52.7987 66.5651 52.6383 66.5443 52.4337 66.5376C51.8829 66.5195 51.8257 66.5113 51.7633 66.441C51.7127 66.3838 51.7076 66.3864 51.7177 66.4647C51.7253 66.5244 51.7128 66.5476 51.679 66.5367C51.6516 66.5278 51.5954 66.5202 51.5542 66.5198C51.513 66.5193 51.4793 66.5032 51.4793 66.4841C51.4793 66.465 51.4552 66.4368 51.4257 66.4214C51.3867 66.4011 51.3775 66.4128 51.392 66.4641C51.4058 66.5129 51.3992 66.5238 51.3708 66.4992C51.3481 66.4797 51.1872 66.4573 51.0133 66.4494C50.6476 66.433 50.7019 66.4332 48.983 66.4415C48.2599 66.4449 47.5757 66.433 47.4624 66.415C47.3493 66.3971 47.2315 66.3955 47.2007 66.4116C47.144 66.4412 46.0568 66.4995 45.7227 66.4909C45.4614 66.4842 45.1651 66.693 45.33 66.7677C45.3545 66.7788 45.3375 66.8108 45.2883 66.8461C45.2426 66.8789 45.1969 66.9229 45.1867 66.9439C45.15 67.0199 44.8674 67.0622 44.7871 67.0038C44.7366 66.967 44.6025 66.9538 44.3918 66.9648C44.2164 66.974 43.6404 66.9922 43.1118 67.0054C42.5832 67.0185 42.1144 67.0417 42.0699 67.0568C42.0254 67.072 41.8365 67.0875 41.65 67.0913C41.4635 67.0952 41.281 67.1211 41.2444 67.1491C41.1788 67.1992 40.8702 67.2814 40.8185 67.2625C40.7548 67.2392 40.6366 67.2451 40.5288 67.2768C40.4646 67.2957 40.3823 67.3077 40.3457 67.3035C40.3091 67.2994 40.2492 67.2923 40.2126 67.288C40.176 67.2836 40.0037 67.3039 39.8298 67.3331C39.6558 67.3623 39.4488 67.3858 39.3697 67.3853C39.2905 67.3848 39.2081 67.4036 39.1866 67.4272C39.165 67.4507 39.0988 67.4841 39.0393 67.5014C38.9507 67.5272 38.9311 67.519 38.9311 67.4563C38.9311 67.3885 38.9035 67.3834 38.6898 67.4118C38.5571 67.4294 38.2088 67.4485 37.9159 67.4542C37.623 67.46 37.3027 67.4886 37.2041 67.5178C37.1055 67.547 37.0175 67.571 37.0087 67.571C36.9997 67.571 37.0111 67.6015 37.0339 67.6388C37.0567 67.6762 37.1259 67.7067 37.1878 67.7067C37.2496 67.7067 37.3002 67.7152 37.3002 67.7257C37.3002 67.7361 37.3092 67.7768 37.3203 67.8161C37.3481 67.9143 37.2543 67.9095 37.1804 67.8089C37.1385 67.752 37.1186 67.7458 37.1086 67.7866C37.101 67.8176 37.0811 67.8315 37.0643 67.8174C37.0476 67.8034 37.0339 67.8083 37.0339 67.8285C37.0339 67.8486 37.0002 67.8676 36.959 67.8707C36.9178 67.8737 36.6894 67.8992 36.4514 67.9274C36.2134 67.9556 35.7341 67.9868 35.3863 67.9968C35.0385 68.0067 34.7165 68.0261 34.6707 68.0397C34.5156 68.086 33.6631 68.1931 33.2062 68.2239C32.3596 68.2808 31.7178 68.4454 31.5855 68.6396C31.544 68.7003 31.4711 68.7494 31.4187 68.7517C30.988 68.7707 30.3899 68.8317 30.1274 68.8833C30.0175 68.9049 29.8249 68.9351 29.6992 68.9504C29.5735 68.9656 29.3955 68.9975 29.3036 69.0212C29.2116 69.0449 29.131 69.0643 29.1243 69.0643C29.1177 69.0643 29.1122 69.0122 29.1122 68.9485V68.9485ZM29.1122 68.5368C29.1122 68.4873 29.0975 68.4836 29.0469 68.5204C29.0079 68.5489 28.9893 68.5955 29.0009 68.6363C29.0157 68.689 29.0307 68.6927 29.0662 68.6527C29.0915 68.6241 29.1122 68.572 29.1122 68.5368ZM34.7206 67.8638C34.8509 67.8003 34.8475 67.7993 34.5708 67.8214C33.9372 67.8719 33.7387 67.8975 33.7387 67.9287C33.7387 67.9877 34.5806 67.9321 34.7206 67.8638ZM19.2601 67.3173C19.2601 67.3075 19.2376 67.2995 19.2101 67.2995C19.1826 67.2995 19.1602 67.3193 19.1602 67.3433C19.1602 67.3674 19.1826 67.3755 19.2101 67.3611C19.2376 67.3468 19.2601 67.3271 19.2601 67.3173ZM21.6732 67.1637C21.6848 67.1382 21.6575 67.1185 21.6105 67.1185C21.5647 67.1185 21.5181 67.1389 21.5068 67.1637C21.4951 67.1893 21.5224 67.209 21.5694 67.209C21.6152 67.209 21.6618 67.1887 21.6732 67.1637ZM20.0922 66.9322C20.0922 66.8855 20.0523 66.8811 19.9784 66.9197C19.8949 66.9633 19.9173 67.0177 20.009 66.9938C20.0547 66.9819 20.0922 66.9542 20.0922 66.9322ZM38.9256 66.9248C39.0392 66.8819 39.0548 66.8653 38.9989 66.8473C38.91 66.8187 37.8511 66.8792 37.2835 66.9453C37.1293 66.9632 38.3203 67.0071 38.565 66.9924C38.684 66.9854 38.8463 66.9549 38.9256 66.9248ZM40.0794 66.7856C40.116 66.7738 40.0487 66.7658 39.9296 66.7679C39.6456 66.7727 39.5332 66.8143 39.7133 66.8479C39.7865 66.8615 39.8839 66.8579 39.9296 66.8398C39.9754 66.8218 40.0428 66.7974 40.0794 66.7856ZM18.8384 66.7989C18.9069 66.7962 18.9065 66.7938 18.8295 66.752C18.7388 66.7027 18.6609 66.7273 18.6609 66.8051C18.6609 66.8336 18.6846 66.8444 18.7136 66.8292C18.7425 66.8141 18.7987 66.8004 18.8384 66.7989ZM40.5794 66.748C40.5883 66.7359 40.5291 66.7225 40.4478 66.7183C40.3665 66.7141 40.2896 66.7335 40.2769 66.7613C40.2608 66.7969 40.2999 66.8057 40.4086 66.7909C40.4937 66.7794 40.5705 66.76 40.5794 66.748ZM66.6071 66.2135C66.6198 66.1855 66.5667 66.1702 66.4676 66.1736C66.3255 66.1783 66.3187 66.1828 66.4074 66.2135C66.553 66.2638 66.5842 66.2638 66.6071 66.2135ZM15.3054 65.549C15.2814 65.536 15.2527 65.5375 15.2416 65.5526C15.2306 65.5676 15.2502 65.5783 15.2853 65.5764C15.3241 65.5742 15.332 65.5635 15.3054 65.549ZM15.6986 65.4894C15.7655 65.4603 15.7688 65.4529 15.7153 65.4519C15.6787 65.4511 15.6187 65.468 15.5821 65.4894C15.4973 65.539 15.5848 65.539 15.6986 65.4894ZM16.1452 65.5072C16.1742 65.4921 16.1979 65.4431 16.1979 65.3984C16.1979 65.3291 16.1769 65.3206 16.0564 65.341C15.9035 65.367 15.8037 65.4441 15.923 65.4441C15.9622 65.4441 16.0035 65.4645 16.0148 65.4894C16.0385 65.5415 16.071 65.5459 16.1452 65.5072ZM70.2187 64.7201C70.2187 64.6953 70.1923 64.6752 70.1603 64.6756C70.1107 64.6761 70.1094 64.6827 70.1521 64.7201C70.2149 64.7753 70.2187 64.7753 70.2187 64.7201ZM16.9697 62.8791C16.9457 62.866 16.9169 62.8677 16.9058 62.8827C16.8948 62.8977 16.9144 62.9085 16.9496 62.9064C16.9883 62.9043 16.9962 62.8935 16.9697 62.8791ZM16.6972 62.7471C16.6972 62.6733 16.6046 62.665 16.4829 62.7279C16.3506 62.7963 16.382 62.8445 16.5474 62.8266C16.6479 62.8157 16.6972 62.7896 16.6972 62.7471ZM17.3154 62.7797C17.2821 62.7066 17.1631 62.688 17.1631 62.7559C17.1631 62.794 17.1973 62.8195 17.2483 62.8195C17.2951 62.8195 17.3254 62.8017 17.3154 62.7797ZM17.0633 62.729C17.1004 62.6964 17.0812 62.685 16.9884 62.6845C16.9197 62.6841 16.8636 62.7041 16.8636 62.729C16.8636 62.7867 16.9977 62.7867 17.0633 62.729ZM72.5486 57.4345C72.5486 57.4096 72.5335 57.3893 72.5153 57.3893C72.4965 57.3893 72.482 57.4096 72.482 57.4345C72.482 57.4593 72.4965 57.4797 72.5153 57.4797C72.5335 57.4797 72.5486 57.4593 72.5486 57.4345ZM72.7898 56.5899C72.7665 56.5774 72.7295 56.5774 72.7062 56.5899C72.6836 56.6025 72.7025 56.6128 72.7483 56.6128C72.7935 56.6128 72.8124 56.6025 72.7898 56.5899ZM72.2905 56.045C72.249 56.0342 72.1819 56.0342 72.1404 56.045C72.0996 56.0558 72.1329 56.0646 72.2158 56.0646C72.298 56.0646 72.3313 56.0558 72.2905 56.045ZM70.7512 55.6797C70.7512 55.6603 70.6275 55.6203 70.4762 55.5907C70.3255 55.5612 70.1659 55.523 70.122 55.5057C70.0717 55.4863 70.0491 55.4913 70.0617 55.5191C70.073 55.5438 70.2143 55.5898 70.3751 55.6215C70.5358 55.6531 70.6828 55.6855 70.701 55.6934C70.7192 55.7013 70.7381 55.7093 70.7425 55.7113C70.7475 55.7133 70.7512 55.699 70.7512 55.6797ZM22.2057 55.2623C22.2651 55.2276 22.2627 55.2231 22.1827 55.2203C22.1335 55.2185 22.0839 55.2375 22.0726 55.2623C22.048 55.3164 22.1132 55.3164 22.2057 55.2623ZM70.5183 54.9972C70.5183 54.9758 70.3675 54.9351 70.1842 54.9067C69.7703 54.8428 69.6956 54.8415 69.7383 54.899C69.7559 54.9231 69.9348 54.961 70.1358 54.9832C70.3368 55.0053 70.5051 55.0263 70.5095 55.0298C70.5145 55.0333 70.5183 55.0186 70.5183 54.9972ZM20.3384 54.4554C20.3478 54.4346 20.3337 54.4177 20.307 54.4177C20.2804 54.4177 20.2586 54.4346 20.2586 54.4554C20.2586 54.4761 20.2727 54.4931 20.2899 54.4931C20.3071 54.4931 20.3289 54.4761 20.3384 54.4554ZM24.7915 54.3716C24.7674 54.3586 24.7387 54.3602 24.7277 54.3752C24.7166 54.3902 24.7363 54.4009 24.7714 54.399C24.8102 54.3968 24.8181 54.3861 24.7915 54.3716ZM19.6262 54.3121C19.6262 54.2872 19.5999 54.2671 19.5679 54.2675C19.5182 54.2681 19.5169 54.2745 19.5596 54.3121C19.6224 54.3672 19.6262 54.3672 19.6262 54.3121ZM19.7593 54.2415C19.7593 54.2305 19.7443 54.2215 19.726 54.2215C19.7077 54.2215 19.6928 54.2431 19.6928 54.2695C19.6928 54.2958 19.7077 54.3048 19.726 54.2894C19.7443 54.274 19.7593 54.2525 19.7593 54.2415ZM21.6565 53.9265C21.7023 53.909 21.8446 53.8778 21.9727 53.8571C22.1009 53.8363 22.2581 53.7977 22.3222 53.7714C22.3863 53.7451 22.4387 53.7253 22.4387 53.7274C22.4387 53.7447 22.6667 53.6479 22.7799 53.5825C22.9516 53.4832 22.9624 53.407 22.8049 53.407C22.7235 53.407 22.6884 53.3865 22.6884 53.3391C22.6884 53.2695 22.8373 53.242 23.0846 53.2659C23.1923 53.2763 23.4997 53.1984 23.57 53.1428C23.6226 53.1012 23.4546 53.0544 23.2355 53.0495C23.093 53.0463 22.9715 53.0782 22.8215 53.1581C22.7047 53.2203 22.5783 53.2716 22.5406 53.272C22.486 53.2725 22.4818 53.2811 22.5203 53.3142C22.5469 53.3371 22.5806 53.3457 22.5952 53.3335C22.6098 53.3212 22.6218 53.3304 22.6218 53.3539C22.6218 53.3945 22.5489 53.4231 22.2947 53.4824C22.2338 53.4966 22.1758 53.5368 22.166 53.5719C22.1513 53.624 22.1385 53.625 22.0957 53.5779C22.0519 53.5295 22.0467 53.5317 22.0631 53.5914C22.0774 53.6436 22.0634 53.6607 22.0111 53.6552C21.9717 53.651 21.8897 53.6661 21.829 53.6887C21.7524 53.7171 21.704 53.7132 21.6709 53.676C21.6441 53.6457 21.6233 53.6417 21.6233 53.6668C21.6233 53.7167 21.3696 53.8596 21.2809 53.8596C21.2495 53.8596 21.2238 53.8874 21.2238 53.9214C21.2238 53.9675 21.2684 53.9801 21.3986 53.9707C21.4946 53.9637 21.6108 53.9438 21.6565 53.9265ZM23.0257 52.2853C23.0017 52.2744 22.9663 52.287 22.9469 52.3133C22.9222 52.3469 22.9352 52.3528 22.9906 52.3331C23.0356 52.3171 23.0507 52.2966 23.0257 52.2853ZM63.2286 52.106C63.2286 52.0873 63.1831 52.0677 63.1276 52.0624C63.0698 52.0569 63.0351 52.0714 63.0464 52.0964C63.0696 52.1474 63.2287 52.1558 63.2286 52.106ZM23.1211 51.8209L23.2043 51.8174L23.1266 51.7751C23.0389 51.7273 22.8881 51.7641 22.8881 51.8334C22.8881 51.8586 22.9215 51.8668 22.9629 51.8517C23.0041 51.8367 23.0753 51.8228 23.1211 51.8209ZM62.9624 51.8307C62.9624 51.81 62.9399 51.793 62.9125 51.793C62.8851 51.793 62.8626 51.81 62.8626 51.8307C62.8626 51.8515 62.8851 51.8684 62.9125 51.8684C62.9399 51.8684 62.9624 51.8515 62.9624 51.8307ZM63.1018 51.8375C63.0778 51.8245 63.0491 51.826 63.038 51.8411C63.0269 51.8561 63.0466 51.8668 63.0817 51.8649C63.1205 51.8627 63.1283 51.852 63.1018 51.8375ZM23.6931 51.747C23.6691 51.7339 23.6404 51.7355 23.6293 51.7505C23.6183 51.7656 23.6379 51.7763 23.673 51.7743C23.7118 51.7722 23.7197 51.7614 23.6931 51.747ZM19.959 51.6874C19.959 51.6625 19.944 51.6422 19.9258 51.6422C19.9074 51.6422 19.8925 51.6625 19.8925 51.6874C19.8925 51.7123 19.9074 51.7326 19.9258 51.7326C19.944 51.7326 19.959 51.7123 19.959 51.6874ZM20.8244 51.5687C20.8244 51.518 20.7619 51.5625 20.744 51.6259C20.7265 51.688 20.7314 51.6909 20.7737 51.643C20.8016 51.6116 20.8244 51.5781 20.8244 51.5687ZM21.1573 51.5743C21.1573 51.537 21.1514 51.5064 21.1442 51.5064C21.137 51.5064 21.1225 51.537 21.1119 51.5743C21.1014 51.6116 21.1073 51.6422 21.125 51.6422C21.1428 51.6422 21.1573 51.6116 21.1573 51.5743ZM64.7327 50.0274C64.7087 50.0144 64.68 50.0159 64.6689 50.031C64.6579 50.046 64.6775 50.0567 64.7126 50.0548C64.7514 50.0526 64.7593 50.0419 64.7327 50.0274ZM34.0868 49.1111C34.0973 49.0879 34.0923 49.0576 34.0756 49.0435C34.059 49.0295 34.0367 49.0484 34.0262 49.0856C34.0055 49.159 34.0555 49.18 34.0868 49.1111ZM18.2882 68.5326C18.269 68.5016 18.2664 68.4754 18.2824 68.4747C18.2984 68.474 18.2834 68.4512 18.2492 68.4242C18.1614 68.3548 18.2392 68.2954 18.4113 68.3003C18.5012 68.3029 18.5228 68.3136 18.4779 68.3335C18.4144 68.3616 18.3672 68.4768 18.4196 68.4754C18.5173 68.4731 18.5879 68.4139 18.5727 68.3472C18.5578 68.282 18.5618 68.2826 18.6036 68.3517C18.6605 68.4454 18.9138 68.4627 18.9356 68.3743C18.9467 68.3294 18.9603 68.3297 19.0014 68.3758C19.0662 68.4484 19.1044 68.6251 19.0494 68.5975C19.028 68.5867 19.0153 68.5505 19.0212 68.517C19.0288 68.4743 19.0134 68.4788 18.9704 68.5318C18.9212 68.5923 18.8498 68.6057 18.6159 68.5984C18.4299 68.5926 18.3103 68.5686 18.2882 68.5327V68.5326ZM17.8313 68.4329C17.7869 68.3956 17.8083 68.2951 17.8605 68.2951C17.8985 68.2951 17.9318 68.4229 17.9007 68.449C17.8869 68.4606 17.8556 68.4534 17.8313 68.4329ZM18.5355 68.0688C18.4987 67.9887 18.5026 67.9775 18.5691 67.9714C18.6105 67.9676 18.6667 67.9612 18.6942 67.9571C18.783 67.944 18.7997 67.9854 18.7411 68.0733C18.6672 68.1844 18.5878 68.1827 18.5355 68.0688ZM38.6981 67.7321C38.6981 67.7211 38.7131 67.6995 38.7314 67.6841C38.7497 67.6688 38.7647 67.6777 38.7647 67.7041C38.7647 67.7305 38.7497 67.752 38.7314 67.752C38.7131 67.752 38.6981 67.7431 38.6981 67.7321ZM39.0887 67.7012C39.1112 67.6702 39.1381 67.6563 39.1483 67.6703C39.1586 67.6842 39.1401 67.7095 39.1073 67.7265C39.0599 67.7511 39.056 67.7459 39.0887 67.7012ZM21.2238 67.5766C21.2238 67.5547 21.2469 67.5108 21.2752 67.4789C21.3151 67.4339 21.3354 67.4331 21.3664 67.4753C21.3974 67.5175 21.3953 67.5391 21.3567 67.5722C21.2939 67.6262 21.2238 67.6285 21.2238 67.5766ZM58.8019 67.1637C58.8019 67.1389 58.8235 67.1185 58.8499 67.1185C58.8762 67.1185 58.9071 67.1389 58.9184 67.1637C58.9297 67.1887 58.9081 67.209 58.8704 67.209C58.8327 67.209 58.8019 67.1887 58.8019 67.1637ZM58.236 67.1157C58.236 67.0642 58.3255 67.059 58.3483 67.1091C58.3572 67.1289 58.3356 67.148 58.3003 67.1515C58.265 67.1552 58.236 67.1391 58.236 67.1157ZM25.2277 67.0427C25.1978 66.9366 25.2434 66.921 25.3585 66.9981C25.4185 67.0383 25.4526 67.0742 25.4343 67.078C25.294 67.1067 25.2434 67.098 25.2277 67.0427ZM54.0089 66.9375C54.0089 66.9126 54.0155 66.8923 54.0236 66.8923C54.0317 66.8923 54.0475 66.9126 54.0588 66.9375C54.0701 66.9624 54.0635 66.9828 54.0442 66.9828C54.0248 66.9828 54.0089 66.9624 54.0089 66.9375ZM53.529 66.8983C53.5147 66.8668 53.512 66.8288 53.523 66.8138C53.5528 66.7733 53.5853 66.8329 53.5692 66.8985C53.5579 66.9445 53.55 66.9445 53.529 66.8983V66.8983ZM53.6511 66.9076C53.583 66.8702 53.604 66.8083 53.6761 66.8339C53.7127 66.8469 53.7426 66.8755 53.7426 66.8975C53.7426 66.9407 53.7167 66.9435 53.6511 66.9076ZM69.6083 66.6811C69.57 66.629 69.5838 66.5755 69.6359 66.5755C69.6635 66.5755 69.6861 66.606 69.6861 66.6434C69.6861 66.714 69.6466 66.7331 69.6083 66.6811ZM28.301 66.4039C28.2921 66.3842 28.3139 66.365 28.3497 66.3614C28.3855 66.3577 28.406 66.3738 28.3953 66.3972C28.3718 66.4491 28.3232 66.4525 28.301 66.4039ZM28.6011 66.3262C28.6115 66.2891 28.6447 66.2571 28.6748 66.2552C28.7048 66.2533 28.7969 66.2426 28.8792 66.2314C28.9872 66.2167 29.0151 66.2237 28.9791 66.2568C28.9379 66.2946 28.9374 66.3027 28.9763 66.3033C29.0022 66.3037 29.0141 66.3166 29.0027 66.3322C28.9913 66.3477 28.892 66.3678 28.782 66.377C28.6154 66.3908 28.5852 66.3823 28.6011 66.3262ZM15.0177 66.2166C14.9931 66.1624 15.0557 66.1088 15.1001 66.1461C15.1372 66.1773 15.1128 66.2587 15.0662 66.2587C15.0501 66.2587 15.0282 66.2398 15.0177 66.2166ZM15.3325 65.0396C15.3325 65.0161 15.3473 64.9845 15.3654 64.9694C15.3842 64.9535 15.3898 64.9717 15.3785 65.012C15.3564 65.0903 15.3325 65.1047 15.3325 65.0396ZM15.5766 65.0163C15.5766 64.98 15.5893 64.9611 15.6049 64.9741C15.6204 64.9872 15.6245 65.0168 15.614 65.04C15.5871 65.0992 15.5766 65.0926 15.5766 65.0163ZM73.5804 59.1088C73.5528 59.0847 73.5453 59.0649 73.5635 59.0649C73.5817 59.0649 73.6194 59.0847 73.647 59.1088C73.674 59.133 73.6815 59.1527 73.6633 59.1527C73.6451 59.1527 73.6074 59.133 73.5804 59.1088ZM18.8939 55.7505C18.8939 55.7309 18.9239 55.7149 18.9605 55.7149C18.9971 55.7149 19.0271 55.734 19.0271 55.7573C19.0271 55.7807 18.9971 55.7967 18.9605 55.7929C18.9239 55.7892 18.8939 55.7701 18.8939 55.7505ZM20.2877 55.0859L20.2097 55L20.4089 54.964C20.5184 54.9443 20.6866 54.927 20.7827 54.9255C20.8788 54.9241 20.9575 54.9091 20.9575 54.8922C20.9575 54.8569 21.1558 54.9271 21.1867 54.9733C21.198 54.9901 21.161 54.9919 21.1045 54.9773C21.0413 54.961 20.9645 54.9776 20.9048 55.0205C20.8514 55.0589 20.7291 55.0923 20.633 55.0946C20.5369 55.0971 20.4583 55.1154 20.4583 55.1354C20.4583 55.2003 20.3678 55.174 20.2877 55.0859ZM19.8682 55.0992C19.8792 55.0842 19.9079 55.0826 19.932 55.0957C19.9585 55.1101 19.9506 55.1208 19.9119 55.123C19.8768 55.125 19.8571 55.1143 19.8682 55.0993V55.0992ZM19.2627 54.4742C19.2613 54.4265 19.2691 54.3997 19.2802 54.4148C19.2912 54.4299 19.2924 54.4689 19.2828 54.5015C19.2722 54.5376 19.2643 54.5269 19.2627 54.4742ZM20.1717 54.0939C20.181 54.0734 20.1579 54.021 20.1205 53.9774C20.0535 53.8993 20.0557 53.8959 20.2583 53.7657C20.5024 53.6088 20.5249 53.6052 20.5249 53.7238C20.5249 53.7795 20.5025 53.8145 20.4666 53.815C20.4194 53.8155 20.4173 53.8234 20.4554 53.8562C20.4814 53.8785 20.53 53.8895 20.5636 53.8807C20.5972 53.8719 20.6247 53.8855 20.6247 53.9109C20.6247 53.9362 20.5761 53.9533 20.5165 53.9489C20.457 53.9445 20.3784 53.9432 20.3418 53.9461C20.2864 53.9505 20.2835 53.9587 20.3252 53.9953C20.3678 54.0328 20.3666 54.0393 20.3168 54.0398C20.2848 54.0403 20.2586 54.0609 20.2586 54.0858C20.2586 54.1107 20.2352 54.131 20.2067 54.131C20.1781 54.131 20.1624 54.1143 20.1717 54.0939ZM20.5973 53.7287C20.5638 53.7006 20.5651 53.6817 20.6035 53.6384C20.6574 53.5776 20.7003 53.6307 20.6632 53.7122C20.65 53.7413 20.621 53.7486 20.5973 53.7287ZM19.4431 51.8231C19.4318 51.7983 19.445 51.7779 19.4725 51.7779C19.4999 51.7779 19.5317 51.7983 19.543 51.8231C19.5543 51.8481 19.5411 51.8684 19.5136 51.8684C19.4861 51.8684 19.4544 51.8481 19.4431 51.8231ZM20.1248 51.6206C20.1727 51.542 20.192 51.5339 20.192 51.5921C20.192 51.6143 20.1674 51.6453 20.1374 51.661C20.0917 51.6848 20.0896 51.6782 20.1248 51.6206ZM67.1656 50.8903C67.2046 50.8372 67.4178 50.7956 67.4607 50.8327C67.4855 50.854 67.4908 50.8738 67.4725 50.8766C67.2933 50.9046 67.1504 50.9109 67.1656 50.8903ZM66.9635 50.8345C66.9359 50.8106 66.9566 50.7974 67.0218 50.7974C67.0775 50.7974 67.123 50.8144 67.123 50.8352C67.123 50.8833 67.0197 50.8829 66.9635 50.8344V50.8345ZM66.1078 50.7767C65.9653 50.7333 65.6194 50.7022 64.9731 50.6746C64.7518 50.6652 64.5387 50.6342 64.4995 50.6057C64.4569 50.5747 64.3078 50.5589 64.1281 50.5664C63.9629 50.5733 63.8278 50.5743 63.8278 50.5686C63.8278 50.5529 64.0215 50.4203 64.0445 50.4203C64.0556 50.4203 64.0555 50.4407 64.0442 50.4655C64.0322 50.492 64.066 50.5108 64.1254 50.5108C64.1814 50.5108 64.2272 50.4905 64.2272 50.4655C64.2272 50.4407 64.2431 50.4203 64.2625 50.4203C64.2819 50.4203 64.2865 50.4457 64.2728 50.4769C64.2542 50.5187 64.2603 50.5215 64.2958 50.4876C64.3221 50.4624 64.3737 50.4441 64.4103 50.447C64.4469 50.4498 64.5564 50.4551 64.6536 50.4588C64.7507 50.4625 64.8233 50.4808 64.8148 50.4995C64.8063 50.5181 64.8916 50.5304 65.0043 50.5268C65.1169 50.5231 65.2353 50.5391 65.2674 50.5623C65.3063 50.5905 65.3256 50.5881 65.3256 50.555C65.3256 50.5277 65.3437 50.5207 65.3659 50.5393C65.388 50.5579 65.534 50.5787 65.6904 50.5854C65.8468 50.5922 65.9747 50.6002 65.9747 50.6031C65.9747 50.6061 66.0495 50.6151 66.1411 50.6231C66.2326 50.6312 66.3113 50.6424 66.3158 50.6479C66.3237 50.6573 66.3579 50.671 66.4157 50.6878C66.4422 50.6955 66.2859 50.8269 66.2576 50.8208C66.2484 50.8187 66.181 50.799 66.1078 50.7767ZM64.7598 50.5504C64.7598 50.5287 64.7307 50.5108 64.6952 50.5108C64.6596 50.5108 64.6224 50.5287 64.6126 50.5504C64.6027 50.5722 64.6317 50.59 64.6772 50.59C64.7226 50.59 64.7598 50.5722 64.7598 50.5504ZM66.5401 50.4196C66.5286 50.3943 66.5053 50.3853 66.4883 50.3996C66.4712 50.414 66.4573 50.4053 66.4573 50.3804C66.4573 50.2928 66.511 50.2914 66.5508 50.378C66.5729 50.4262 66.5843 50.4656 66.5761 50.4656C66.5678 50.4656 66.5517 50.4449 66.5401 50.4196ZM65.8277 50.2431C65.7926 50.1954 65.7569 50.1658 65.7484 50.1773C65.7399 50.1889 65.66 50.2051 65.5709 50.2135C65.4165 50.2279 65.225 50.1347 65.2736 50.0687C65.3124 50.0159 65.5423 50.0283 65.5925 50.0859C65.6439 50.1449 65.7376 50.1468 65.7796 50.0898C65.8148 50.0417 65.9847 50.0522 66.0082 50.1039C66.0401 50.1743 65.9926 50.3298 65.9391 50.3298C65.9129 50.3298 65.8628 50.2908 65.8277 50.243V50.2431ZM66.1712 50.2776C66.157 50.2464 66.162 50.2376 66.1836 50.2557C66.2035 50.2724 66.2291 50.2653 66.2406 50.24C66.2716 50.1718 66.313 50.1844 66.313 50.262C66.313 50.3416 66.2057 50.3535 66.1712 50.2776ZM27.2573 49.9404C27.2684 49.9254 27.2971 49.9238 27.3211 49.9369C27.3477 49.9513 27.3398 49.962 27.301 49.9642C27.2659 49.9662 27.2463 49.9555 27.2573 49.9404ZM33.9717 48.6555C33.9717 48.6306 33.9783 48.6102 33.9864 48.6102C33.9945 48.6102 34.0104 48.6306 34.0217 48.6555C34.033 48.6804 34.0264 48.7007 34.007 48.7007C33.9876 48.7007 33.9717 48.6804 33.9717 48.6555ZM34.7479 48.6601C34.6941 48.6064 34.707 48.5293 34.7662 48.5503C34.8039 48.5637 34.8281 48.5452 34.8316 48.5004C34.8346 48.4613 34.8396 48.3987 34.8427 48.3613C34.8457 48.324 34.8757 48.2909 34.9092 48.2878C34.9428 48.2847 34.9815 48.278 34.9953 48.2728C35.0089 48.2676 35.0652 48.247 35.12 48.227C35.2422 48.1823 35.3085 48.1157 35.2841 48.0621C35.2741 48.04 35.2955 48.022 35.3317 48.022C35.3678 48.022 35.405 48.0474 35.4143 48.0785C35.426 48.1178 35.4396 48.1203 35.4587 48.0866C35.5075 48.0002 35.6095 47.9733 35.6632 48.0325C35.7064 48.08 35.7104 48.0788 35.6868 48.0255C35.6652 47.9767 35.6723 47.9686 35.7164 47.9917C35.7484 48.0083 35.7948 48.022 35.8195 48.022C35.8442 48.022 35.8735 48.0606 35.8845 48.1078C35.8974 48.163 35.9259 48.1861 35.9644 48.1724C36.0494 48.1422 36.0406 48.0303 35.9549 48.0517C35.8873 48.0686 35.8872 48.068 35.9522 48.026C35.9888 48.0024 36.0694 47.9816 36.1314 47.9799C36.1934 47.9781 36.3356 47.9567 36.4476 47.9323C36.7377 47.869 37.4671 47.7581 37.7994 47.7268C37.9551 47.7122 38.1497 47.6921 38.2321 47.6822C38.4057 47.6614 38.7483 47.6284 39.1974 47.589C39.3713 47.5737 39.6109 47.5501 39.7299 47.5363C40.0159 47.5034 40.4661 47.501 40.5288 47.532C40.5562 47.5456 40.6423 47.5724 40.7201 47.5915C40.7979 47.6106 40.8616 47.6413 40.8616 47.6596C40.8616 47.6778 40.8246 47.7432 40.7793 47.8047C40.7123 47.8958 40.6659 47.9157 40.5295 47.9122C40.4299 47.9095 40.3666 47.9263 40.3733 47.9535C40.3795 47.9787 40.4998 48.001 40.6408 48.0031C40.8621 48.0062 41.0096 48.0648 40.9592 48.1295C40.9367 48.1585 40.4955 48.187 40.4955 48.1596C40.4956 48.1461 40.3945 48.1415 40.2709 48.1493C40.1473 48.157 39.9602 48.1449 39.8552 48.1223C39.7502 48.0996 39.6572 48.0907 39.6484 48.1026C39.6398 48.1144 39.5684 48.1283 39.4899 48.1336C39.4114 48.1389 39.3058 48.1588 39.2552 48.1781C39.2005 48.1989 39.1461 48.1937 39.121 48.1654C39.0977 48.1392 38.9339 48.113 38.7568 48.1072C38.5377 48.1001 38.4419 48.0812 38.4565 48.048C38.4683 48.0213 38.4525 48.0274 38.4214 48.0616C38.3825 48.1045 38.3226 48.1147 38.2295 48.0945C38.1406 48.0752 38.1013 48.081 38.1151 48.1114C38.1387 48.1632 38.1344 48.1642 37.8327 48.1752C37.7137 48.1796 37.5827 48.1992 37.5415 48.2187C37.5003 48.2383 37.4666 48.2377 37.4666 48.2173C37.4666 48.197 37.4292 48.1803 37.3834 48.1803C37.3376 48.1803 37.3002 48.1956 37.3002 48.2143C37.3002 48.2329 37.2768 48.2482 37.2483 48.2482C37.2197 48.2482 37.2042 48.2311 37.2138 48.21C37.2369 48.1592 36.8949 48.2338 36.8701 48.285C36.8247 48.3787 36.2018 48.4737 36.2018 48.3869C36.2018 48.3604 36.1859 48.3387 36.1666 48.3387C36.1472 48.3387 36.1399 48.3577 36.1504 48.3809C36.1806 48.4471 36.1039 48.4879 36.0545 48.432C36.0212 48.3945 36.0056 48.3968 35.9931 48.441C35.9824 48.4791 35.9276 48.4966 35.8394 48.4899C35.7641 48.4841 35.7025 48.4985 35.7025 48.5217C35.7025 48.5965 35.5315 48.5474 35.4983 48.463C35.4806 48.4182 35.4517 48.3936 35.434 48.4084C35.4163 48.4234 35.4095 48.4523 35.4188 48.4729C35.4282 48.4934 35.414 48.5217 35.3872 48.5357C35.3604 48.5496 35.3295 48.5412 35.3186 48.5171C35.3063 48.4903 35.2637 48.4995 35.2093 48.5407C35.1069 48.6182 34.7885 48.7007 34.7479 48.6601ZM34.2713 48.4545C34.2713 48.375 34.2913 48.3633 34.3198 48.4261C34.3303 48.4493 34.3237 48.481 34.3051 48.4966C34.2865 48.5123 34.2713 48.4934 34.2713 48.4545ZM34.3967 48.3763C34.416 48.3501 34.4515 48.3374 34.4756 48.3483C34.5005 48.3596 34.4854 48.3801 34.4404 48.3961C34.385 48.4158 34.372 48.41 34.3967 48.3763ZM45.8626 48.2615C45.8214 48.2507 45.7877 48.2264 45.7877 48.2074C45.7877 48.152 45.9323 48.1821 45.9467 48.2405C45.9538 48.2696 45.9546 48.2907 45.9485 48.2873C45.9425 48.2839 45.9038 48.2723 45.8626 48.2615ZM45.1719 48.1577C45.2635 48.1042 45.316 48.1042 45.2552 48.1577C45.2277 48.1818 45.1828 48.2004 45.1553 48.1991C45.1223 48.1974 45.1281 48.1833 45.1719 48.1577ZM45.3735 48.1619C45.3633 48.1394 45.3849 48.1315 45.4215 48.1446C45.4992 48.1722 45.5091 48.2029 45.4402 48.2029C45.4138 48.2029 45.3838 48.1845 45.3735 48.1619ZM41.0886 48.0595C41.0363 47.9879 41.0601 47.9829 41.4714 47.9796C41.7127 47.9776 41.9434 47.9672 41.9842 47.9565C42.0251 47.9457 42.0662 47.9541 42.0757 47.975C42.0852 47.9959 42.1388 48.0086 42.1948 48.0034C42.3463 47.9891 42.347 48.055 42.1956 48.0746C42.124 48.0839 42.0725 48.0758 42.0813 48.0567C42.1086 47.9966 42.0573 48.0189 42.0052 48.0898C41.9485 48.1668 41.808 48.1806 41.7769 48.1123C41.7632 48.0822 41.7343 48.0829 41.691 48.1144C41.6173 48.168 41.548 48.1316 41.5818 48.057C41.5966 48.0245 41.5884 48.0213 41.5574 48.0478C41.5317 48.0698 41.4283 48.0986 41.3276 48.1118C41.1835 48.1307 41.1326 48.1196 41.0886 48.0595ZM43.7574 48.1124C43.7574 48.0876 43.764 48.0672 43.772 48.0672C43.7801 48.0672 43.796 48.0876 43.8073 48.1124C43.8186 48.1374 43.812 48.1577 43.7926 48.1577C43.7732 48.1577 43.7574 48.1374 43.7574 48.1124ZM42.426 48.0219C42.396 47.9956 42.3919 47.9778 42.4157 47.9774C42.4375 47.9769 42.4646 47.997 42.4759 48.0219C42.5014 48.0781 42.4899 48.0781 42.426 48.0219ZM55.4263 48.0158C55.4435 47.9779 55.3167 47.9333 55.2911 47.9682C55.2553 48.0169 55.1073 48.026 55.1073 47.9796C55.1073 47.9509 55.0126 47.944 54.8494 47.9608C54.6492 47.9814 54.5653 47.9708 54.4749 47.9135C54.4108 47.8728 54.3836 47.8489 54.4145 47.8604C54.4454 47.8718 54.4753 47.8634 54.4811 47.8418C54.4868 47.8202 54.514 47.7958 54.5415 47.7878C54.569 47.7797 54.6024 47.7527 54.6159 47.7278C54.6293 47.7029 54.6406 47.7271 54.6408 47.7817C54.6413 47.8754 54.6463 47.8773 54.7329 47.8158C54.815 47.7575 54.8292 47.7589 54.8705 47.8298C54.9143 47.905 54.9156 47.9049 54.8965 47.8298C54.881 47.7687 54.8948 47.7506 54.957 47.7506C55.0012 47.7506 55.0527 47.7863 55.0714 47.8298C55.0902 47.8737 55.1057 47.8838 55.1063 47.8524C55.1074 47.7932 55.2072 47.7708 55.2072 47.8298C55.2072 47.8485 55.3204 47.8626 55.4588 47.8611C55.5972 47.8597 55.7179 47.875 55.727 47.8951C55.7362 47.9152 55.7757 47.9316 55.8149 47.9316C55.8719 47.9316 55.8779 47.9429 55.8446 47.9881C55.8029 48.0448 55.4011 48.0715 55.4263 48.016V48.0158ZM55.9727 48.0144C55.9727 47.9937 55.9839 47.9753 55.9977 47.9736C56.0114 47.9719 56.0705 47.962 56.1291 47.9516C56.2608 47.9282 56.3077 48.0059 56.181 48.0376C56.0558 48.0689 55.9727 48.0597 55.9727 48.0144ZM53.5763 47.8636C53.5763 47.8387 53.5201 47.8183 53.4514 47.8183C53.3828 47.8183 53.3156 47.8387 53.3022 47.8636C53.2858 47.8938 53.2775 47.8938 53.2771 47.8636C53.2764 47.8069 53.0769 47.7935 53.0769 47.8501C53.0769 47.8729 53.0634 47.8801 53.0467 47.8661C53.015 47.8394 52.7222 47.7967 52.4113 47.7733C52.3106 47.7657 52.2282 47.7549 52.2282 47.7493C52.2282 47.719 51.7903 47.7186 51.7623 47.7489C51.7122 47.8029 51.3794 47.8407 51.3794 47.7923C51.3794 47.7692 51.357 47.7504 51.3295 47.7504C51.3021 47.7504 51.2796 47.7701 51.2796 47.7941C51.2796 47.8213 51.0452 47.8297 50.6555 47.8163C50.3123 47.8046 49.9953 47.7952 49.9512 47.7954C49.907 47.7959 49.8208 47.7771 49.7598 47.7542C49.693 47.7291 49.6486 47.729 49.6486 47.7538C49.6486 47.7949 49.5323 47.7882 49.5007 47.7453C49.4916 47.7329 49.3401 47.73 49.1641 47.7389C48.9519 47.7496 48.8282 47.7371 48.797 47.7019C48.7604 47.6606 48.7499 47.6626 48.7495 47.7109C48.7491 47.7502 48.74 47.7556 48.7245 47.7258C48.7098 47.6974 48.5205 47.6762 48.2508 47.6728C48.0036 47.6698 47.2547 47.6555 46.5865 47.6413C45.9183 47.6271 45.0609 47.6128 44.681 47.6094C44.3012 47.6062 43.9903 47.5907 43.9902 47.5751C43.9902 47.5595 43.9078 47.5467 43.8072 47.5467C43.7066 47.5467 43.6242 47.562 43.6242 47.5807C43.6242 47.5994 43.6083 47.6146 43.5889 47.6146C43.5696 47.6146 43.563 47.5943 43.5743 47.5694C43.5856 47.5445 43.5715 47.5241 43.543 47.5241C43.5144 47.5242 43.4911 47.5038 43.4911 47.4789C43.4911 47.454 43.4752 47.4337 43.4558 47.4337C43.4364 47.4337 43.4299 47.454 43.4412 47.4789C43.4533 47.5056 43.4166 47.5239 43.3515 47.5234C43.2682 47.5229 43.2536 47.5121 43.2914 47.4789C43.3282 47.4465 43.3298 47.4349 43.2973 47.4344C43.2634 47.4338 43.2648 47.4181 43.3032 47.3658C43.3307 47.3284 43.3842 47.2979 43.4221 47.2979C43.4601 47.2979 43.4911 47.2761 43.4911 47.2496C43.4911 47.221 43.5198 47.2137 43.5618 47.2318C43.6094 47.2523 43.6251 47.246 43.6098 47.2123C43.5972 47.1847 43.5958 47.1621 43.6066 47.1621C43.6175 47.1621 43.6377 47.2041 43.6517 47.2552L43.677 47.3483L43.7648 47.2544C43.8249 47.1901 43.8598 47.1766 43.8757 47.2114C43.8921 47.2475 43.9069 47.2445 43.9267 47.2009C43.9494 47.151 44.1777 47.1398 45.1458 47.1412C45.8009 47.1422 46.6065 47.1559 46.936 47.172C47.2655 47.188 47.8122 47.2128 48.1509 47.2273C49.3738 47.2794 49.6888 47.2983 49.7162 47.3214C49.7775 47.3728 50.0457 47.4184 50.0862 47.3843C50.1113 47.3633 50.1404 47.3708 50.1554 47.4021C50.1747 47.4425 50.1895 47.4391 50.214 47.3884C50.232 47.3511 50.247 47.3409 50.2473 47.3658C50.2477 47.3943 50.4535 47.409 50.8054 47.4056C51.3614 47.4001 52.3114 47.4731 52.3115 47.5214C52.3115 47.5353 52.4276 47.5445 52.5694 47.5417C52.8125 47.5369 53.3725 47.5989 53.4718 47.6415C53.5084 47.6572 53.5091 47.6741 53.4754 47.7294C53.4414 47.785 53.4423 47.794 53.48 47.7779C53.5055 47.7669 53.5681 47.7455 53.6192 47.7303C53.6764 47.7132 53.7047 47.6813 53.6928 47.6473C53.6823 47.6169 53.6911 47.6239 53.7124 47.6629C53.7438 47.7202 53.7865 47.7272 53.936 47.6996C54.0411 47.6802 54.146 47.6838 54.1792 47.708C54.2113 47.7313 54.2797 47.7532 54.3313 47.7566C54.4176 47.7623 54.4187 47.7644 54.3447 47.7833C54.2826 47.7992 54.2751 47.8131 54.3114 47.8443C54.3629 47.8886 54.3197 47.8942 53.8508 47.9034C53.6873 47.9066 53.5763 47.8905 53.5763 47.8636ZM43.9026 47.4565C43.8921 47.4193 43.8701 47.4002 43.8537 47.4139C43.8067 47.4535 43.819 47.5242 43.8728 47.5242C43.9025 47.5242 43.9142 47.4976 43.9026 47.4565ZM41.9613 47.6113C41.9956 47.5242 41.9935 47.5144 41.9464 47.5389C41.8995 47.5634 41.8973 47.5535 41.9312 47.4675L41.9705 47.3677L42.0036 47.4685C42.0416 47.5843 42.1103 47.6011 42.1384 47.5015C42.149 47.4642 42.1456 47.4337 42.1309 47.4337C42.1162 47.4337 42.1042 47.4029 42.1042 47.3652C42.1042 47.3096 42.1343 47.3022 42.2651 47.3258C42.375 47.3456 42.426 47.3386 42.426 47.3037C42.426 47.2753 42.4786 47.2527 42.5444 47.2527C42.6221 47.2527 42.6551 47.2698 42.6403 47.3024C42.6242 47.3378 42.6378 47.3375 42.6875 47.3014C42.7455 47.2592 42.754 47.2622 42.7379 47.3195C42.7272 47.3574 42.705 47.3884 42.6887 47.3884C42.6723 47.3884 42.659 47.4087 42.659 47.4337C42.659 47.528 42.7191 47.4735 42.7588 47.3432C42.8051 47.1911 42.8063 47.1903 42.8898 47.251C42.9318 47.2817 42.9448 47.3295 42.9334 47.4113C42.9243 47.4755 42.93 47.522 42.946 47.5147C42.9621 47.5075 42.9826 47.5214 42.9918 47.5457C43.0016 47.5719 42.9225 47.5931 42.7981 47.5977C42.6059 47.6047 42.5847 47.596 42.5515 47.4969C42.5157 47.39 42.3927 47.3431 42.3927 47.4363C42.3927 47.4627 42.4075 47.4718 42.4256 47.4566C42.4441 47.441 42.4502 47.4584 42.4395 47.4963C42.4284 47.5357 42.3986 47.5523 42.3678 47.5362C42.3336 47.5184 42.3234 47.5268 42.3386 47.5604C42.3654 47.6193 42.2548 47.6628 42.1264 47.6438C42.0806 47.6371 42.0158 47.6497 41.9824 47.6718C41.928 47.7078 41.9258 47.7016 41.9613 47.6113ZM42.8719 47.4412C42.8813 47.4205 42.8678 47.4035 42.842 47.4035C42.8162 47.4035 42.8027 47.4205 42.8121 47.4412C42.8216 47.4619 42.835 47.4789 42.842 47.4789C42.849 47.4789 42.8624 47.4619 42.8719 47.4412ZM41.513 47.6198C41.5029 47.5977 41.5246 47.5691 41.5611 47.5561C41.6052 47.5404 41.6206 47.5085 41.6071 47.4605C41.5959 47.4208 41.6008 47.3884 41.618 47.3884C41.6637 47.3884 41.6563 47.5362 41.6073 47.6028C41.5576 47.6704 41.5376 47.674 41.513 47.6198ZM41.7171 47.494C41.7264 47.4608 41.7384 47.4337 41.7437 47.4337C41.7489 47.4337 41.7608 47.4608 41.7702 47.494C41.7796 47.5272 41.7676 47.5543 41.7437 47.5543C41.7197 47.5543 41.7077 47.5272 41.7171 47.494ZM41.8455 47.3672C41.881 47.3307 41.9429 47.3001 41.983 47.2993C42.0624 47.2978 42.113 47.3664 42.0632 47.4082C42.0462 47.4225 42.0265 47.4108 42.0195 47.3822C42.0099 47.3431 41.9891 47.343 41.9356 47.3818C41.8333 47.4562 41.769 47.4458 41.8455 47.3671V47.3672ZM41.4031 47.3611C41.4142 47.346 41.443 47.3444 41.4669 47.3575C41.4935 47.3719 41.4856 47.3827 41.4469 47.3848C41.4117 47.3868 41.3921 47.3761 41.4031 47.3611ZM43.1582 47.3432C43.1155 47.3056 43.1168 47.2992 43.1665 47.2986C43.1986 47.2982 43.2248 47.3182 43.2248 47.3432C43.2248 47.3984 43.221 47.3984 43.1582 47.3432ZM42.9794 47.2742C42.9636 47.218 42.9722 47.2141 43.0259 47.2532C43.103 47.3093 43.1103 47.3432 43.0453 47.3432C43.0198 47.3432 42.9902 47.3121 42.9794 47.2742Z" fill="#FFE4B7"/>
<path d="M32.7169 63.5835C32.3333 63.5835 32.0005 63.5074 31.7184 63.3553C31.4364 63.2032 31.1713 62.975 30.9231 62.6707C31.0359 62.6707 31.1713 62.6816 31.3292 62.7033L31.8031 62.7196C32.1867 62.7196 32.7733 62.6653 33.563 62.5566C33.8676 61.8829 34.1497 60.9592 34.4091 59.7856C34.6799 58.6012 34.9619 57.2157 35.2552 55.6292C35.5034 54.3469 35.6839 53.4613 35.7967 52.9723C35.2214 53.3418 34.7983 53.5917 34.5276 53.7221C34.2681 53.8416 34.0594 53.9014 33.9014 53.9014C33.5743 53.9014 33.4107 53.6786 33.4107 53.2331C33.783 53.0592 34.3527 52.7006 35.1199 52.1573C35.887 51.6031 36.5921 51.0327 37.2352 50.4459C37.3818 50.5763 37.4551 50.7882 37.4551 51.0816C37.4551 51.2446 37.4269 51.4239 37.3705 51.6194C37.3254 51.8042 37.2972 51.9183 37.2859 51.9617C37.1731 52.3855 37.1054 52.6789 37.0828 52.8419C36.7557 54.874 36.4229 56.6452 36.0844 58.1557C35.746 59.6661 35.2722 61.0842 34.6629 62.4099C34.9337 62.3882 35.1312 62.3773 35.2552 62.3773C35.7404 62.3773 36.1352 62.4588 36.4398 62.6218C36.7557 62.7957 36.9644 63.0999 37.0659 63.5346C36.5131 63.4694 35.9942 63.4368 35.5091 63.4368C35.2609 63.4368 34.6686 63.464 33.7322 63.5183C33.1682 63.5618 32.8297 63.5835 32.7169 63.5835ZM42.5303 63.5835C41.3796 63.5835 40.4996 63.1651 39.8904 62.3284C39.2812 61.5025 38.9766 60.443 38.9766 59.1499C38.9766 57.9112 39.236 56.6126 39.755 55.2543C40.2852 53.8851 41.0298 52.7387 41.9888 51.815C42.959 50.8914 44.0589 50.4296 45.2886 50.4296C46.4055 50.4296 47.2967 50.8262 47.9624 51.6194C48.628 52.4127 48.9608 53.5265 48.9608 54.9609C48.9608 56.2975 48.6731 57.6395 48.0978 58.9869C47.5336 60.3235 46.7609 61.421 45.7794 62.2795C44.7979 63.1488 43.7149 63.5835 42.5303 63.5835ZM42.7672 62.8011C43.5795 62.8011 44.341 62.3501 45.0517 61.4482C45.7737 60.5354 46.3491 59.4162 46.7778 58.0905C47.2065 56.7539 47.4209 55.4988 47.4209 54.3252C47.4209 53.3363 47.246 52.5539 46.8963 51.978C46.5578 51.3913 46.0219 51.0979 45.2886 51.0979C44.3522 51.0979 43.5343 51.5651 42.8349 52.4996C42.1354 53.4233 41.5996 54.5425 41.2273 55.8574C40.855 57.1723 40.6688 58.3621 40.6688 59.427C40.6688 60.4593 40.855 61.2798 41.2273 61.8883C41.5996 62.4968 42.1129 62.8011 42.7672 62.8011ZM50.3003 63.5835C49.9167 63.5835 49.5839 63.5074 49.3019 63.3553C49.0198 63.2032 48.7547 62.975 48.5065 62.6707C48.6193 62.6707 48.7547 62.6816 48.9126 62.7033L49.3865 62.7196C49.7701 62.7196 50.3567 62.6653 51.1465 62.5566C51.4511 61.8829 51.7331 60.9592 51.9926 59.7856C52.2633 58.6012 52.5453 57.2157 52.8387 55.6292C53.0868 54.3469 53.2674 53.4613 53.3802 52.9723C52.8048 53.3418 52.3818 53.5917 52.111 53.7221C51.8515 53.8416 51.6428 53.9014 51.4849 53.9014C51.1577 53.9014 50.9941 53.6786 50.9941 53.2331C51.3664 53.0592 51.9361 52.7006 52.7033 52.1573C53.4704 51.6031 54.1756 51.0327 54.8186 50.4459C54.9652 50.5763 55.0386 50.7882 55.0386 51.0816C55.0386 51.2446 55.0104 51.4239 54.954 51.6194C54.9088 51.8042 54.8806 51.9183 54.8694 51.9617C54.7565 52.3855 54.6889 52.6789 54.6663 52.8419C54.3391 54.874 54.0063 56.6452 53.6679 58.1557C53.3294 59.6661 52.8556 61.0842 52.2464 62.4099C52.5172 62.3882 52.7146 62.3773 52.8387 62.3773C53.3238 62.3773 53.7187 62.4588 54.0233 62.6218C54.3391 62.7957 54.5479 63.0999 54.6494 63.5346C54.0966 63.4694 53.5776 63.4368 53.0925 63.4368C52.8443 63.4368 52.252 63.464 51.3156 63.5183C50.7516 63.5618 50.4131 63.5835 50.3003 63.5835Z" fill="#96BB7C"/>
<path d="M14.9596 52.6735C13.9585 52.6735 13.1451 52.4739 12.5194 52.075C11.8938 51.676 11.5809 51.1158 11.5809 50.3946C11.5809 49.9035 11.7373 49.4661 12.0502 49.0825C12.363 48.7141 12.801 48.4686 13.3641 48.3458C13.192 49.1131 13.106 49.6349 13.106 49.9111C13.106 50.5403 13.2781 51.0237 13.6222 51.3614C13.982 51.699 14.5216 51.8678 15.2411 51.8678C16.3674 51.8678 17.2668 51.4765 17.9394 50.6938C18.612 49.9111 19.0969 48.998 19.3941 47.9545C19.7069 46.911 20.0041 45.6142 20.2857 44.0642C20.5046 42.8979 20.6689 42.1306 20.7784 41.7623C20.1214 42.8058 19.3941 43.6115 18.5963 44.1793C17.7986 44.7472 16.8913 45.031 15.8746 45.031C14.8892 45.031 14.1618 44.7625 13.6926 44.2254C13.2233 43.6883 12.9887 42.9747 12.9887 42.0846C12.9887 41.5781 13.0513 41.0333 13.1764 40.4502C13.3015 39.8517 13.4971 39.0614 13.763 38.0792C13.9976 37.2045 14.1775 36.4909 14.3026 35.9384C14.4277 35.3706 14.4903 34.8641 14.4903 34.4191C14.4903 33.3142 14.068 32.7617 13.2233 32.7617C12.6915 32.7617 12.2457 32.9613 11.8859 33.3602C11.5262 33.7439 11.2524 34.2273 11.0647 34.8105C10.8927 35.3783 10.8066 35.9461 10.8066 36.5139C10.8066 36.7441 10.8223 36.9436 10.8536 37.1124C10.9005 37.2812 10.9787 37.5114 11.0882 37.803C10.3687 37.803 9.83685 37.6418 9.49272 37.3196C9.16424 36.9973 9 36.5676 9 36.0305C9 35.4013 9.21117 34.7568 9.6335 34.0969C10.0558 33.4369 10.6268 32.8922 11.3463 32.4625C12.0815 32.0175 12.8792 31.7949 13.7395 31.7949C14.6311 31.7949 15.3115 32.0328 15.7808 32.5085C16.25 32.9843 16.4847 33.5904 16.4847 34.327C16.4847 34.6493 16.43 35.0406 16.3204 35.501C16.2266 35.9614 16.0623 36.606 15.8277 37.4347C15.5462 38.4475 15.335 39.2608 15.1942 39.8747C15.0534 40.4886 14.983 41.0717 14.983 41.6242C14.983 43.0667 15.5384 43.788 16.6489 43.788C17.65 43.788 18.5807 43.2662 19.441 42.2227C20.3013 41.1638 21.0052 39.844 21.5527 38.2634C21.6465 38.0178 21.7482 37.7109 21.8577 37.3426C21.9672 36.9743 22.0454 36.698 22.0923 36.5139C22.5772 34.9639 22.9917 33.79 23.3359 32.9919C23.68 32.1939 24.071 31.7949 24.509 31.7949C24.6967 31.7949 24.9391 31.8793 25.2364 32.0481C25.5492 32.2016 25.8386 32.4088 26.1045 32.6697C25.5257 33.5444 25.0721 34.3654 24.7436 35.1327C24.4152 35.8847 24.0867 36.8438 23.7582 38.0101C23.4297 39.1765 22.9213 41.1484 22.2331 43.9261C21.8108 45.5989 21.3337 47.0567 20.8019 48.2998C20.2857 49.5275 19.5505 50.5633 18.5963 51.4074C17.6422 52.2515 16.43 52.6735 14.9596 52.6735ZM25.8368 49.1055C25.1955 49.1055 24.7263 48.8983 24.4291 48.4839C24.1475 48.0696 24.0067 47.5555 24.0067 46.9417C24.0067 46.2971 24.1397 45.6295 24.4056 44.939C24.6872 44.2484 25.0469 43.6729 25.4849 43.2125C25.9229 42.7521 26.3687 42.5219 26.8223 42.5219C27.01 42.5219 27.2525 42.5833 27.5497 42.7061C27.6435 42.0001 27.8938 41.417 28.3005 40.9566C28.7228 40.4962 29.3094 40.266 30.0602 40.266C30.6859 40.266 31.1473 40.4425 31.4445 40.7955C31.7417 41.1331 31.8903 41.5781 31.8903 42.1306C31.8903 42.6677 31.7417 43.2816 31.4445 43.9722C31.163 44.6627 30.7954 45.3533 30.3418 46.0439C30.5295 46.136 30.7484 46.182 30.9987 46.182C31.4367 46.182 31.9059 46.0439 32.4065 45.7677C32.907 45.4761 33.2902 45.0387 33.5562 44.4556L33.9785 44.7548C33.65 45.4914 33.2043 46.0515 32.6411 46.4352C32.0936 46.8189 31.5227 47.0107 30.9283 47.0107C30.5685 47.0107 30.1775 46.9416 29.7552 46.8035C29.1764 47.4787 28.5429 48.0312 27.8547 48.4609C27.1664 48.8906 26.4938 49.1055 25.8368 49.1055ZM29.544 45.5605C29.935 44.9927 30.2557 44.4019 30.506 43.788C30.7719 43.1741 30.9049 42.6217 30.9049 42.1306C30.9049 41.4554 30.6859 41.1178 30.2479 41.1178C30.0446 41.1178 29.8334 41.2175 29.6144 41.417C29.3954 41.6165 29.2156 41.885 29.0748 42.2227C28.934 42.545 28.8636 42.9056 28.8636 43.3046C28.8636 43.6575 28.9261 44.0642 29.0513 44.5246C29.1764 44.9696 29.3407 45.3149 29.544 45.5605ZM26.6816 47.9315C26.9631 47.9315 27.3072 47.778 27.7139 47.4711C28.1206 47.1642 28.5273 46.7729 28.934 46.2971C28.0424 45.5298 27.5731 44.4019 27.5262 42.9133C27.3385 43.0053 27.1117 43.2892 26.8458 43.765C26.5798 44.2407 26.3531 44.7702 26.1654 45.3533C25.9777 45.9365 25.8838 46.4429 25.8838 46.8726C25.8838 47.5785 26.1497 47.9315 26.6816 47.9315ZM34.8014 49.0594C34.2852 49.0594 33.855 48.8216 33.5109 48.3458C33.1668 47.8701 32.9947 47.31 32.9947 46.6654C32.9947 46.113 33.1198 45.4224 33.3701 44.5937C33.6204 43.765 33.9098 43.0437 34.2383 42.4299C34.5823 41.816 34.8796 41.5091 35.1299 41.5091C35.2393 41.5091 35.4035 41.5705 35.6226 41.6932C35.8572 41.8007 36.0605 41.9388 36.2326 42.1076C35.9041 42.5833 35.56 43.2662 35.2002 44.1563C34.8561 45.0464 34.6841 45.8137 34.6841 46.4582C34.6841 46.7498 34.7231 47.0567 34.8014 47.379C34.8952 47.6859 35.0907 47.8394 35.3879 47.8394C35.9667 47.8394 36.6549 47.2102 37.4527 45.9518C38.266 44.6781 38.9621 43.389 39.5409 42.0846C40.4794 42.2381 40.9487 42.4989 40.9487 42.8672C40.9487 42.8979 40.8548 43.1204 40.6671 43.5348C40.3386 44.2868 40.0571 44.985 39.8224 45.6295C39.5878 46.2741 39.4705 46.8342 39.4705 47.31C39.4705 47.8471 39.6817 48.1156 40.104 48.1156C40.4325 48.1156 40.8235 47.9699 41.2771 47.6783C41.7464 47.3714 42.2235 46.9417 42.7084 46.3892C43.1932 45.8214 43.6156 45.1692 43.9754 44.4325L44.3273 44.7088C43.9832 45.5375 43.5374 46.2817 42.9899 46.9417C42.4424 47.6016 41.8481 48.1156 41.2068 48.4839C40.5811 48.8676 39.9788 49.0594 39.4001 49.0594C38.7118 49.0594 38.266 48.8292 38.0627 48.3688C37.875 47.8931 37.7812 47.2639 37.7812 46.4813C37.2493 47.2793 36.7488 47.9085 36.2795 48.3688C35.8103 48.8292 35.3176 49.0594 34.8014 49.0594ZM47.7155 48.9674C47.1367 48.9674 46.6675 48.8139 46.3077 48.507C45.948 48.2154 45.7681 47.8164 45.7681 47.31C45.7681 47.0184 45.8228 46.7038 45.9323 46.3662C46.0574 46.0132 46.2373 45.5912 46.472 45.1001C46.6753 44.6704 46.8317 44.3098 46.9412 44.0182C47.0507 43.7113 47.1055 43.4427 47.1055 43.2125C47.1055 42.6294 46.7144 42.1383 45.9323 41.7393C45.6195 42.5066 45.2519 43.2816 44.8296 44.0642C44.4229 44.8469 44.0553 45.5068 43.7268 46.0439L43.3749 45.3763C44.0944 44.1179 44.7279 42.7291 45.2753 41.2098C45.1189 41.0564 45.0407 40.8492 45.0407 40.5883C45.0407 40.1893 45.1658 39.8133 45.4161 39.4604C45.6664 39.1074 45.9088 38.9309 46.1435 38.9309C46.2999 38.9309 46.425 39.023 46.5189 39.2072C46.6284 39.3913 46.6831 39.5448 46.6831 39.6675C46.6831 39.7289 46.644 39.8671 46.5658 40.0819C46.5032 40.2814 46.4563 40.4272 46.425 40.5193C46.4407 40.6267 46.5032 40.7341 46.6127 40.8415C46.7222 40.9336 46.9256 41.0717 47.2228 41.2559C47.7702 41.6088 48.1926 41.9541 48.4898 42.2917C48.8026 42.614 48.959 43.0514 48.959 43.6038C48.959 43.9415 48.8964 44.2791 48.7713 44.6167C48.6618 44.9543 48.4898 45.361 48.2551 45.8367C47.911 46.5119 47.739 46.9953 47.739 47.2869C47.739 47.6399 47.9345 47.8164 48.3255 47.8164C48.7948 47.8164 49.3032 47.6322 49.8506 47.2639C50.4137 46.8956 50.9221 46.4506 51.3757 45.9288C51.845 45.3917 52.1891 44.8929 52.4081 44.4325L52.9712 44.8469C52.6584 45.5375 52.2204 46.1974 51.6573 46.8266C51.0942 47.4557 50.4607 47.9699 49.7568 48.3688C49.0685 48.7678 48.3881 48.9674 47.7155 48.9674ZM54.6437 49.5428C53.5487 49.5428 52.7353 49.2282 52.2035 48.599C51.6874 47.9852 51.4293 47.2486 51.4293 46.3892C51.4293 45.7907 51.5387 45.3763 51.7577 45.1461C51.9767 44.9006 52.2191 44.7164 52.4851 44.5937C52.7667 44.4709 52.9309 44.3865 52.9778 44.3405C53.9789 43.3276 54.7375 42.2764 55.2537 41.1868V40.9566C55.2537 40.3888 55.3476 39.9668 55.5353 39.6906C55.7386 39.4143 55.9967 39.2762 56.3096 39.2762C56.6536 39.2762 56.8413 39.4297 56.8727 39.7366C56.8727 39.8133 56.8492 39.9284 56.8023 40.0819C56.771 40.2354 56.7554 40.3965 56.7554 40.5653C56.7554 40.8569 56.8023 41.1638 56.8961 41.4861C56.99 41.8083 57.1386 42.2457 57.3419 42.7982C57.5922 43.4734 57.7799 44.0566 57.905 44.5476C58.0458 45.0387 58.1162 45.5375 58.1162 46.0439C58.1162 46.3048 58.0849 46.6194 58.0224 46.9877C59.086 46.7268 60.0088 45.8597 60.791 44.3865L61.0725 44.5937C60.7597 45.4684 60.3217 46.1744 59.7586 46.7115C59.2111 47.2486 58.562 47.5708 57.8112 47.6783C57.5609 48.2921 57.1542 48.7525 56.5911 49.0594C56.028 49.3817 55.3788 49.5428 54.6437 49.5428ZM56.1688 46.9417C56.2157 46.8035 56.2392 46.5657 56.2392 46.2281C56.2235 45.737 56.1688 45.2536 56.0749 44.7778C55.9811 44.3021 55.8403 43.6883 55.6526 42.9363L55.4414 42.1076C54.675 43.412 53.9945 44.3711 53.4002 44.985C53.666 45.43 54.0415 45.8367 54.5264 46.205C55.0112 46.558 55.5587 46.8035 56.1688 46.9417ZM54.4795 48.53C54.7923 48.53 55.0816 48.4533 55.3476 48.2998C55.6291 48.1463 55.8403 47.9238 55.9811 47.6322C55.371 47.5095 54.8079 47.2793 54.2917 46.9417C53.7756 46.5887 53.361 46.2127 53.0482 45.8137C52.8292 45.8597 52.7197 46.0669 52.7197 46.4352C52.7197 46.9877 52.8761 47.4787 53.189 47.9085C53.5018 48.3228 53.9319 48.53 54.4795 48.53ZM62.846 49.3817C61.8605 49.3817 61.0941 49.1208 60.5466 48.599C59.9992 48.0773 59.7254 47.4097 59.7254 46.5964C59.7254 45.7063 60.0304 44.7472 60.6405 43.7189C61.2505 42.6754 62.0326 41.8083 62.9868 41.1178C63.9409 40.4118 64.8795 40.0589 65.8023 40.0589C66.2872 40.0589 66.6939 40.1816 67.0221 40.4272C67.3512 40.6574 67.5154 41.0487 67.5154 41.6012C67.5154 42.3378 67.2256 43.036 66.647 43.6959C66.0682 44.3405 65.3174 44.8699 64.3945 45.2843C63.4873 45.6986 62.5566 45.9595 61.6024 46.0669C61.5712 46.2204 61.5555 46.3968 61.5555 46.5964C61.5555 46.9953 61.665 47.3944 61.884 47.7934C62.1186 48.1923 62.6113 48.3919 63.3622 48.3919C64.3163 48.3919 65.2861 48.0159 66.2716 47.2639C67.2726 46.4966 68.0785 45.5451 68.6885 44.4095L69.1578 44.7778C68.5319 46.159 67.6327 47.2716 66.4593 48.1156C65.3018 48.9597 64.0973 49.3817 62.846 49.3817ZM61.8605 45.2152C62.4236 45.1538 63.0493 44.9313 63.7376 44.5476C64.4415 44.164 65.0358 43.6959 65.5208 43.1435C66.0057 42.5756 66.2481 42.0232 66.2481 41.4861C66.2481 41.3173 66.2168 41.2022 66.1543 41.1408C66.0917 41.0794 65.99 41.0487 65.8492 41.0487C65.3956 41.0487 64.8951 41.2635 64.3476 41.6932C63.8158 42.1076 63.323 42.637 62.8694 43.2816C62.4158 43.9261 62.0795 44.5707 61.8605 45.2152ZM70.1386 49.0594C69.4505 49.0594 68.9502 48.8369 68.6369 48.3919C68.3243 47.9468 68.1677 47.356 68.1677 46.6194C68.1677 45.2075 68.6528 43.32 69.6224 40.9566C70.6078 38.5933 71.7106 36.4755 72.9306 34.6033C74.1507 32.7311 75.0505 31.7949 75.6289 31.7949C75.8952 31.7949 76.1216 32.0021 76.3093 32.4164C76.497 32.8154 76.5991 33.2221 76.6143 33.6365C76.6143 34.3424 76.3251 35.3783 75.7462 36.7441C75.1678 38.0946 74.3853 39.468 73.3999 40.8645C72.4303 42.2611 71.3903 43.389 70.2793 44.2484C70.1075 45.1998 70.0212 45.9211 70.0212 46.4122C70.0212 46.9493 70.1075 47.3483 70.2793 47.6092C70.467 47.8701 70.7175 48.0005 71.0301 48.0005C71.578 48.0005 72.1564 47.6476 72.7664 46.9417C73.3923 46.2204 73.9478 45.3533 74.4323 44.3405L74.9954 44.6397C74.3073 46.0362 73.5489 47.1258 72.7195 47.9085C71.8907 48.6758 71.0301 49.0594 70.1386 49.0594ZM70.7017 42.8212C71.5463 41.9311 72.3364 40.8876 73.0714 39.6906C73.8222 38.4935 74.417 37.3579 74.8546 36.2837C75.3086 35.2094 75.535 34.4115 75.535 33.8897C75.3321 33.8897 74.9174 34.3577 74.2915 35.2939C73.6815 36.23 73.0327 37.3963 72.3441 38.7928C71.6719 40.174 71.124 41.5167 70.7017 42.8212ZM73.8486 54.8143C73.4732 54.8143 73.1289 54.6531 72.8163 54.3309C72.4878 54.0086 72.3235 53.4331 72.3235 52.6044C72.3235 51.0084 72.9025 48.4916 74.0598 45.0541C75.2329 41.6165 76.6096 38.5472 78.1893 35.8463C79.7848 33.1454 81.2395 31.7949 82.5534 31.7949C83.2104 31.7949 83.5388 32.1863 83.5388 32.9689C83.5388 33.813 83.2262 34.7721 82.6003 35.8463C81.9903 36.9206 81.1925 37.9718 80.2071 39C79.2216 40.0128 78.1969 40.8645 77.1334 41.5551L76.758 42.4759C76.9146 42.5373 77.0396 42.6447 77.1334 42.7982C77.2431 42.9516 77.3135 43.1128 77.3446 43.2816C77.5012 44.1103 77.642 44.7472 77.7669 45.1922C77.8919 45.6372 78.0796 45.9979 78.3301 46.2741C78.5958 46.5503 78.9559 46.6884 79.4093 46.6884C79.9255 46.6884 80.3872 46.5043 80.7937 46.136C81.216 45.7677 81.6694 45.1922 82.1545 44.4095L82.6707 44.7778C82.2014 45.714 81.6542 46.4199 81.0283 46.8956C80.4183 47.3714 79.8393 47.6092 79.292 47.6092C78.76 47.6092 78.2051 47.402 77.6262 46.9877C77.6103 48.2307 77.415 49.4584 77.0396 50.6708C76.68 51.8985 76.2108 52.896 75.6318 53.6633C75.0529 54.4306 74.4587 54.8143 73.8486 54.8143ZM77.8139 39.9438C78.7055 39.1151 79.4956 38.2864 80.1836 37.4577C80.8717 36.629 81.3961 35.8924 81.7556 35.2478C82.1311 34.5879 82.3188 34.1199 82.3188 33.8436C82.3188 33.7209 82.256 33.6595 82.1311 33.6595C81.5838 33.6595 80.9268 34.2426 80.1602 35.409C79.3935 36.5599 78.6116 38.0715 77.8139 39.9438ZM74.5056 53.3871C74.7871 53.3871 75.0922 53.0188 75.4206 52.2821C75.765 51.5455 76.0542 50.6631 76.2888 49.6349C76.5392 48.6067 76.6642 47.7243 76.6642 46.9877C76.6642 46.558 76.6096 46.1744 76.4999 45.8367C76.4061 45.4838 76.2342 45.0847 75.9838 44.6397C75.4206 46.2971 74.9672 47.8087 74.6229 49.1745C74.2944 50.5403 74.1302 51.6146 74.1302 52.3972C74.1302 53.0571 74.2551 53.3871 74.5056 53.3871Z" fill="white"/>
<path d="M36.6753 39.9127C36.1306 39.9127 35.4461 39.4778 34.6216 38.6079C33.8119 37.7381 32.9875 36.684 32.1483 35.4456C31.3239 34.1924 30.6246 33.013 30.0505 31.9073L28.0409 38.4089C27.8937 38.8807 27.614 39.1829 27.2018 39.3156C26.7896 39.4483 26.2743 39.5146 25.656 39.5146C25.921 38.9396 26.1786 38.3057 26.4289 37.6128C26.6939 36.9198 27.084 35.8068 27.5993 34.2735C28.9979 30.1749 30.1535 26.8726 31.0663 24.3662C31.081 24.322 31.1251 24.1967 31.1988 23.9903C31.2871 23.7839 31.3313 23.5922 31.3313 23.4153C31.3313 23.1352 31.1841 22.9951 30.8896 22.9951C30.4627 22.9951 30.0431 23.2163 29.6309 23.6586C29.2187 24.0861 28.8875 24.6095 28.6372 25.2287C28.3869 25.8332 28.2618 26.3565 28.2618 26.7988C28.2618 27.1379 28.3354 27.477 28.4826 27.8161C27.879 27.8161 27.43 27.6908 27.1356 27.4401C26.8559 27.1748 26.716 26.8209 26.716 26.3787C26.716 25.7447 26.9736 25.096 27.4889 24.4326C28.0042 23.7544 28.6298 23.1942 29.3659 22.7519C30.102 22.2949 30.7718 22.0663 31.3754 22.0663C32.1851 22.0663 32.59 22.4939 32.59 23.349C32.59 23.6291 32.5384 23.924 32.4354 24.2336L30.8013 29.541C30.978 29.4378 31.4859 29.0619 32.325 28.4132C33.5763 27.4401 34.7394 26.4008 35.8141 25.295C36.9035 24.1746 37.8015 23.0762 38.5082 22C38.6701 22.1474 38.7806 22.3391 38.8394 22.575C38.913 22.7961 38.9498 23.0025 38.9498 23.1942C38.9498 24.1967 38.1181 25.3982 36.4545 26.7988C34.8057 28.1846 32.9212 29.5557 30.8013 30.9121C31.5816 32.121 32.2441 33.1014 32.7887 33.8533C33.3482 34.6052 34.0475 35.4087 34.8866 36.2638C35.7257 37.1042 36.7783 38.0108 38.0444 38.9839C37.9119 39.2345 37.7132 39.4483 37.4482 39.6252C37.1832 39.8168 36.9256 39.9127 36.6753 39.9127ZM46.1011 38.431C45.5416 38.431 45.1073 38.2909 44.7982 38.0108C44.489 37.7307 44.3344 37.3621 44.3344 36.9051C44.3344 36.7135 44.3638 36.4923 44.4228 36.2417C44.4963 35.991 44.57 35.7405 44.6436 35.4898C44.8497 34.8116 44.9528 34.3103 44.9528 33.986C44.9528 33.6911 44.8791 33.4774 44.7319 33.3447C44.5847 33.1973 44.4007 33.1236 44.1799 33.1236C43.3996 33.1236 42.612 33.6175 41.817 34.6052C41.022 35.5783 40.1681 36.8167 39.2554 38.3204C38.6223 38.3204 38.1439 38.1067 37.82 37.6791L38.0187 37.1263C38.8873 35.018 39.3216 33.4553 39.3216 32.438C39.4394 32.3053 39.6087 32.1874 39.8296 32.0842C40.0504 31.9662 40.2638 31.9073 40.47 31.9073C40.7202 31.9073 40.9116 31.9662 41.0441 32.0842C41.1766 32.2021 41.2428 32.3643 41.2428 32.5707C41.2428 32.9688 41.1177 33.6248 40.8674 34.5389C41.5299 33.6543 42.2145 32.9319 42.9211 32.3717C43.6425 31.8114 44.3491 31.5313 45.0411 31.5313C45.6299 31.5313 46.0863 31.7377 46.4102 32.1505C46.7341 32.5486 46.896 33.0277 46.896 33.588C46.896 33.9123 46.8519 34.2219 46.7635 34.5168C46.6899 34.8116 46.5721 35.1434 46.4102 35.5119C46.1599 36.1311 46.0348 36.5955 46.0348 36.9051C46.0348 37.1263 46.0863 37.2885 46.1894 37.3916C46.2924 37.4948 46.4175 37.5464 46.5648 37.5464C47.0506 37.5464 47.5732 37.2147 48.1327 36.5513C48.7068 35.8731 49.222 35.077 49.6785 34.1629L50.0539 34.4725C49.5239 35.6962 48.935 36.6619 48.2873 37.3695C47.6542 38.0772 46.9254 38.431 46.1011 38.431ZM50.5541 38.6964C49.9506 38.6964 49.5089 38.4974 49.2292 38.0993C48.9642 37.7012 48.8317 37.2073 48.8317 36.6176C48.8317 35.9984 48.9568 35.3571 49.2071 34.6937C49.4721 34.0302 49.8107 33.4774 50.2229 33.0351C50.6351 32.5928 51.0547 32.3717 51.4817 32.3717C51.6583 32.3717 51.8865 32.4306 52.1662 32.5486C52.2546 31.8704 52.4901 31.3102 52.8729 30.8679C53.2704 30.4256 53.8224 30.2045 54.5291 30.2045C55.1179 30.2045 55.5522 30.374 55.832 30.7131C56.1117 31.0374 56.2515 31.465 56.2515 31.9957C56.2515 32.5117 56.1117 33.1014 55.832 33.7649C55.567 34.4283 55.221 35.0917 54.7941 35.7552C54.9707 35.8436 55.1768 35.8879 55.4124 35.8879C55.8246 35.8879 56.2662 35.7552 56.7374 35.4898C57.2084 35.2097 57.5691 34.7895 57.8194 34.2293L58.2169 34.5168C57.9077 35.2244 57.4882 35.7626 56.9582 36.1311C56.4429 36.4997 55.9055 36.684 55.3461 36.684C55.0075 36.684 54.6395 36.6176 54.242 36.4849C53.6973 37.1337 53.101 37.6644 52.4533 38.0772C51.8055 38.49 51.1725 38.6964 50.5541 38.6964ZM54.0433 35.2908C54.4113 34.7453 54.7131 34.1777 54.9487 33.588C55.1989 32.9983 55.3241 32.4675 55.3241 31.9957C55.3241 31.347 55.1179 31.0227 54.7057 31.0227C54.5143 31.0227 54.3156 31.1185 54.1095 31.3102C53.9034 31.5018 53.7341 31.7599 53.6016 32.0842C53.4691 32.3938 53.4029 32.7402 53.4029 33.1236C53.4029 33.4627 53.4617 33.8533 53.5795 34.2956C53.6973 34.7232 53.8518 35.0549 54.0433 35.2908ZM51.3492 37.5686C51.6142 37.5686 51.938 37.4211 52.3208 37.1263C52.7035 36.8314 53.0863 36.4554 53.4691 35.9984C52.63 35.2613 52.1883 34.1777 52.1441 32.7476C51.9675 32.8361 51.754 33.1088 51.5037 33.5658C51.2535 34.0229 51.04 34.5315 50.8633 35.0917C50.6867 35.652 50.5984 36.1385 50.5984 36.5513C50.5984 37.2294 50.8486 37.5686 51.3492 37.5686ZM63.7391 38.8291C63.2828 38.8291 62.9588 38.63 62.7675 38.232C62.5761 37.8486 62.4657 37.3106 62.4362 36.6176L62.4583 36.0869C62.4583 35.792 62.473 35.4677 62.5025 35.1139C61.9283 36.1606 61.3542 37.0157 60.78 37.6791C60.2059 38.3278 59.617 38.6522 59.0134 38.6522C58.5276 38.6522 58.1154 38.431 57.7768 37.9887C57.4529 37.5317 57.2909 36.9862 57.2909 36.3523C57.2909 35.8068 57.4087 35.136 57.6443 34.3398C57.8798 33.5437 58.1522 32.8508 58.4613 32.2611C58.7852 31.6714 59.065 31.3765 59.3005 31.3765C59.433 31.3765 59.617 31.4429 59.8526 31.5755C60.1028 31.7082 60.2574 31.8556 60.3163 32.0178C60.0071 32.4601 59.6906 33.1088 59.3667 33.9639C59.0429 34.819 58.8809 35.5561 58.8809 36.1753C58.8809 36.4702 58.9251 36.765 59.0134 37.0599C59.1017 37.34 59.2858 37.4801 59.5655 37.4801C60.3163 37.4801 61.3689 36.1606 62.7233 33.5216C62.8411 32.9024 62.9441 32.4527 63.0325 32.1726C63.1208 31.8925 63.2091 31.7156 63.2975 31.6419C63.3858 31.5534 63.5109 31.5092 63.6729 31.5092C63.9526 31.5092 64.1661 31.5682 64.3133 31.6861C64.4752 31.7893 64.5562 31.9441 64.5562 32.1505C64.5562 32.1947 64.5194 32.3274 64.4458 32.5486C64.2986 33.0204 64.1808 33.6248 64.0924 34.362C64.0041 35.0843 63.9599 35.8141 63.9599 36.5513C63.9599 36.9494 63.982 37.2368 64.0262 37.4138C64.0851 37.5907 64.1955 37.6791 64.3574 37.6791C64.7402 37.6791 65.2407 37.2516 65.8591 36.3965C66.4921 35.5266 67.0736 34.5463 67.6036 33.4553C67.6036 32.4085 67.7066 31.6787 67.9128 31.2659C68.1336 30.8532 68.4354 30.6467 68.8181 30.6467C69.142 30.6467 69.3849 30.7573 69.5469 30.9785C69.709 31.1849 69.7898 31.3912 69.7898 31.5977C69.7898 31.7451 69.7456 31.8925 69.6573 32.0399C69.5835 32.1874 69.5322 32.2906 69.5027 32.3496C69.2083 32.9392 69.0611 33.5954 69.0611 34.3177C69.0611 35.4087 69.3849 35.9542 70.0327 35.9542C70.3122 35.9542 70.5848 35.8289 70.8498 35.5783C71.1292 35.3276 71.4239 34.8927 71.7331 34.2735L72.1526 34.6052C71.858 35.3129 71.5047 35.8289 71.0927 36.1532C70.6952 36.4628 70.2832 36.6176 69.856 36.6176C69.3997 36.6176 68.9948 36.4554 68.6415 36.1311C68.3029 35.792 68.0306 35.3424 67.8244 34.7821C67.1619 35.9321 66.4774 36.8977 65.7707 37.6791C65.0641 38.4457 64.3869 38.8291 63.7391 38.8291Z" fill="white"/>
</svg>
