<svg width="44" height="44" viewBox="0 0 44 44" fill="none" xmlns="http://www.w3.org/2000/svg">
<path d="M22 41.3354C32.6789 41.3354 41.3359 32.6785 41.3359 21.9995C41.3359 11.3206 32.6789 2.66357 22 2.66357C11.3211 2.66357 2.66406 11.3206 2.66406 21.9995C2.66406 32.6785 11.3211 41.3354 22 41.3354Z" fill="#0077B5"/>
<path d="M11.3779 18.3731H16.517V32.7419H11.3779V18.3731ZM27.4225 18.356C23.7529 18.356 23.1428 20.3669 23.1428 20.3669V18.3731H19.1725V32.7419H23.1857V24.4575C23.1857 23.2802 23.8646 21.7333 26.0303 21.7333C28.1873 21.7333 28.4451 23.8474 28.4279 24.1052C28.4021 24.363 28.385 32.7419 28.385 32.7419H32.6217V22.7731C32.6217 19.5333 30.4561 18.356 27.4225 18.356Z" fill="white"/>
<path d="M13.9562 16.3964C15.3754 16.3964 16.5258 15.246 16.5258 13.8269C16.5258 12.4077 15.3754 11.2573 13.9562 11.2573C12.5371 11.2573 11.3867 12.4077 11.3867 13.8269C11.3867 15.246 12.5371 16.3964 13.9562 16.3964Z" fill="white"/>
</svg>
